<svg xmlns="http://www.w3.org/2000/svg" width="68" height="38" fill="none"><path d="M62.883 0H5.117a5.16 5.16 0 0 0-1.958.386 5.12 5.12 0 0 0-1.66 1.098c-.475.47-.852 1.03-1.11 1.644S0 4.4 0 5.067v27.867a5.04 5.04 0 0 0 1.499 3.582c.96.95 2.26 1.484 3.618 1.484h57.766c1.357 0 2.66-.534 3.618-1.484A5.04 5.04 0 0 0 68 32.934V5.067c0-.665-.132-1.324-.39-1.94s-.634-1.173-1.11-1.644a5.12 5.12 0 0 0-1.66-1.098A5.16 5.16 0 0 0 62.883 0zM3.688 3.456c.114-.02 2.82-.476 5.06.858s3.1 3.914 3.136 4.023l.09.278-.29.05a7.79 7.79 0 0 1-1.254.091c-1.33.025-2.645-.303-3.805-.95-2.24-1.334-3.1-3.914-3.136-4.023l-.09-.278.29-.05zm12.54 25.873H5.924a2.85 2.85 0 0 1-2.003-.822 2.79 2.79 0 0 1 0-3.967 2.85 2.85 0 0 1 2.003-.822h10.303c.75 0 1.472.296 2.003.822a2.79 2.79 0 0 1 0 3.967c-.53.526-1.252.822-2.003.822zm46.88-.5c-.002.81-.33 1.588-.908 2.16s-1.364.897-2.183.9h-7.727c-.82-.002-1.604-.326-2.183-.9s-.906-1.35-.908-2.16v-4.59c.002-.81.33-1.588.908-2.16s1.364-.897 2.183-.9h7.727c.82.002 1.604.326 2.183.9s.906 1.35.908 2.16v4.59z" fill="url(#A)"/><defs><linearGradient id="A" x1="34" y1="0" x2="34" y2="38" gradientUnits="userSpaceOnUse"><stop stop-color="#414d54"/><stop offset="1" stop-color="#3d3f40"/></linearGradient></defs></svg>