<svg width="16" height="17" viewBox="0 0 16 17" fill="none" xmlns="http://www.w3.org/2000/svg">
<path d="M9.99999 14.9653C9.99999 16.064 9.09999 16.963 7.99998 16.963C6.89998 16.963 5.99998 16.064 5.99998 14.9653C5.99998 13.8665 6.89998 12.9675 7.99998 12.9675C9.09999 12.9675 9.99999 13.8665 9.99999 14.9653ZM7.99998 6.97423C6.89998 6.97423 5.99998 7.87322 5.99998 8.97198C5.99998 10.0708 6.89998 10.9697 7.99998 10.9697C9.09999 10.9697 9.99999 10.0708 9.99999 8.97198C9.99999 7.87322 9.09999 6.97423 7.99998 6.97423ZM7.99998 0.980957C6.89998 0.980957 5.99998 1.87995 5.99998 2.97871C5.99998 4.07748 6.89998 4.97647 7.99998 4.97647C9.09999 4.97647 9.99999 4.07748 9.99999 2.97871C9.99999 1.87995 9.09999 0.980957 7.99998 0.980957ZM14 4.97647C15.1 4.97647 16 4.07748 16 2.97871C16 1.87995 15.1 0.980957 14 0.980957C12.9 0.980957 12 1.87995 12 2.97871C12 4.07748 12.9 4.97647 14 4.97647ZM14 6.97423C12.9 6.97423 12 7.87322 12 8.97198C12 10.0708 12.9 10.9697 14 10.9697C15.1 10.9697 16 10.0708 16 8.97198C16 7.87322 15.1 6.97423 14 6.97423ZM14 12.9675C12.9 12.9675 12 13.8665 12 14.9653C12 16.064 12.9 16.963 14 16.963C15.1 16.963 16 16.064 16 14.9653C16 13.8665 15.1 12.9675 14 12.9675Z" fill="#3D3F40"/>
<path d="M4.00001 2.97871C4.00001 4.07748 3.10001 4.97647 2 4.97647C0.900002 4.97647 0 4.07748 0 2.97871C0 1.87995 0.900002 0.980957 2 0.980957C3.10001 0.980957 4.00001 1.87995 4.00001 2.97871Z" fill="#3D3F40"/>
<path d="M0 8.97198C0 7.87322 0.900002 6.97423 2 6.97423C3.10001 6.97423 4.00001 7.87322 4.00001 8.97198C4.00001 10.0708 3.10001 10.9697 2 10.9697C0.900002 10.9697 0 10.0708 0 8.97198Z" fill="#3D3F40"/>
<path d="M0 14.9653C0 13.8665 0.900002 12.9675 2 12.9675C3.10001 12.9675 4.00001 13.8665 4.00001 14.9653C4.00001 16.064 3.10001 16.963 2 16.963C0.900002 16.963 0 16.064 0 14.9653Z" fill="#3D3F40"/>
</svg>
