<svg xmlns="http://www.w3.org/2000/svg" width="15" height="18" fill="#3d3f40"><path d="M9.637 9.686h2.397v4.22H9.637v-4.22zm1.438-3.694L9.84 4.972c-.094-.078-.213-.12-.335-.12H7.288a.53.53 0 0 0-.325.112l-1.3 1.02a2.57 2.57 0 0 0-1.01 2.076v9.414a.53.53 0 0 0 .527.527h6.328a.53.53 0 0 0 .527-.527V14.96H9.1a.53.53 0 0 1-.527-.527V9.158a.53.53 0 0 1 .527-.527h2.924v-.605a2.56 2.56 0 0 0-.959-2.034zM2.7 10.296a.53.53 0 0 0-.513-.406h-.562c-.244 0-.457.168-.513.406L.014 14.972a.53.53 0 0 0 .099.449.53.53 0 0 0 .414.2h2.777a.53.53 0 0 0 .513-.649L2.7 10.296zm3.292-8.492H4.06c-1.473 0-2.672 1.2-2.672 2.672v4.36h1.055v-4.36A1.62 1.62 0 0 1 4.06 2.859H6V1.804zm7.78 0h-3.58l2.206-.78c.275-.097.42-.398.322-.673a.53.53 0 0 0-.673-.322l-5 1.767v2H9.64V2.86h4.133a.53.53 0 0 0 .527-.527.53.53 0 0 0-.527-.527z"/></svg>