<svg width="246" height="222" viewBox="0 0 246 222" fill="none" xmlns="http://www.w3.org/2000/svg">
<path d="M246.001 166.066C246.001 166.142 192.968 166.207 127.558 166.207C62.127 166.207 9.1048 166.142 9.1048 166.066C9.1048 165.989 62.127 165.924 127.558 165.924C192.962 165.924 246.001 165.989 246.001 166.066Z" fill="#E0E0E0"/>
<path d="M209.004 124.776C209.179 124.608 210.397 125.473 211.991 127.263C212.794 128.155 213.657 129.293 214.526 130.62C215.378 131.959 216.224 133.488 216.961 135.169C217.688 136.851 218.229 138.516 218.627 140.05C219.004 141.59 219.244 142.999 219.348 144.191C219.567 146.574 219.37 148.055 219.124 148.065C218.551 148.109 218.027 142.336 215.197 135.931C212.45 129.494 208.583 125.168 209.004 124.776Z" fill="#EBEBEB"/>
<path d="M221.03 152.859C220.779 152.892 220.091 149.736 219.457 144.556C218.807 139.381 218.278 132.193 218.065 124.254C217.846 116.31 217.939 109.127 218.097 103.925C218.261 98.7284 218.507 95.5126 218.769 95.5126C219.037 95.5126 219.272 98.7284 219.452 103.92C219.643 109.111 219.769 116.288 219.982 124.2C220.189 132.111 220.506 139.261 220.806 144.436C221.096 149.611 221.303 152.821 221.03 152.859Z" fill="#EBEBEB"/>
<path d="M232.658 107.718C232.904 107.859 231.905 110.068 230.588 113.752C229.245 117.425 227.595 122.583 225.973 128.335C224.384 134.097 223.128 139.365 222.379 143.206C221.598 147.042 221.314 149.447 221.03 149.442C220.785 149.442 220.588 146.955 221.036 143.005C221.451 139.049 222.516 133.662 224.122 127.829C225.76 122.007 227.639 116.848 229.332 113.246C230.998 109.622 232.451 107.592 232.658 107.718Z" fill="#EBEBEB"/>
<path d="M206.059 146.253V152.576C206.059 160.026 212.122 166.066 219.599 166.066C227.076 166.066 233.138 160.026 233.138 152.576V146.253H206.059Z" fill="#E0E0E0"/>
<path d="M233.39 151.602C233.39 151.706 227.273 151.793 219.724 151.793C212.176 151.793 206.059 151.706 206.059 151.602C206.059 151.499 212.176 151.412 219.724 151.412C227.273 151.412 233.39 151.499 233.39 151.602Z" fill="#FAFAFA"/>
<path d="M233.39 153.36C233.39 153.463 227.273 153.55 219.724 153.55C212.176 153.55 206.059 153.463 206.059 153.36C206.059 153.257 212.176 153.169 219.724 153.169C227.273 153.169 233.39 153.251 233.39 153.36Z" fill="#FAFAFA"/>
<path d="M231.933 0H180.135V53.7935H231.933V0Z" fill="#E0E0E0"/>
<path d="M228.426 0H176.627V53.7935H228.426V0Z" fill="#EBEBEB"/>
<path d="M221.463 7.23157H183.591V46.5619H221.463V7.23157Z" fill="#FAFAFA"/>
<path d="M183.591 46.8231C183.618 46.8558 183.252 47.2585 182.646 47.8897C182.039 48.5209 181.187 49.3806 180.232 50.3165C179.276 51.2524 178.407 52.085 177.763 52.6835C177.118 53.2766 176.709 53.6303 176.682 53.6031C176.654 53.5759 177.015 53.1732 177.621 52.5366C178.227 51.9054 179.085 51.0457 180.04 50.1043C180.996 49.1684 181.87 48.3304 182.515 47.7373C183.154 47.1442 183.563 46.7959 183.591 46.8231Z" fill="#E0E0E0"/>
<path d="M221.463 46.7253C221.49 46.6981 221.9 47.0627 222.533 47.6667C223.167 48.2707 224.03 49.1195 224.969 50.0718C225.909 51.024 226.744 51.8892 227.345 52.5313C227.94 53.1733 228.295 53.5815 228.268 53.6087C228.241 53.6359 227.837 53.2767 227.198 52.6727C226.564 52.0687 225.701 51.2144 224.756 50.2622C223.817 49.31 222.976 48.4393 222.38 47.7973C221.785 47.1606 221.436 46.7525 221.463 46.7253Z" fill="#E0E0E0"/>
<path d="M221.359 7.33502C221.331 7.30237 221.697 6.89971 222.304 6.26851C222.91 5.63731 223.762 4.77757 224.718 3.84165C225.673 2.90573 226.542 2.0732 227.186 1.47465C227.831 0.881536 228.24 0.527846 228.268 0.555053C228.295 0.58226 227.935 0.984922 227.328 1.62156C226.722 2.25277 225.865 3.1125 224.909 4.05386C223.953 4.98978 223.079 5.82776 222.435 6.42087C221.796 7.01398 221.386 7.36767 221.359 7.33502Z" fill="#E0E0E0"/>
<path d="M183.487 7.43289C183.454 7.4601 183.05 7.09553 182.416 6.49153C181.783 5.88754 180.92 5.03868 179.98 4.08644C179.041 3.1342 178.205 2.26902 177.605 1.62693C177.009 0.98485 176.654 0.576746 176.682 0.549539C176.709 0.522332 177.113 0.881463 177.752 1.48546C178.386 2.08945 179.249 2.94375 180.193 3.89599C181.133 4.84823 181.974 5.71886 182.569 6.36094C183.165 6.99758 183.52 7.40568 183.487 7.43289Z" fill="#E0E0E0"/>
<path d="M221.359 46.562C221.359 46.562 221.354 46.4967 221.354 46.3716C221.354 46.241 221.348 46.0614 221.348 45.822C221.343 45.3323 221.343 44.6249 221.332 43.6998C221.326 41.8389 221.316 39.1291 221.299 35.6847C221.283 28.7959 221.261 18.9796 221.234 7.22624L221.359 7.3514C210.338 7.35684 197.388 7.36228 183.597 7.36772H183.592L183.734 7.22624C183.728 21.6622 183.717 35.1678 183.712 46.5566L183.592 46.4369C194.914 46.4641 204.341 46.4858 210.944 46.4967C214.248 46.513 216.842 46.5185 218.623 46.5294C219.508 46.5348 220.185 46.5402 220.655 46.5457C220.879 46.5511 221.053 46.5511 221.179 46.5511C221.299 46.5566 221.359 46.562 221.359 46.562C221.359 46.562 221.305 46.5675 221.19 46.5675C221.07 46.5675 220.9 46.5729 220.677 46.5729C220.212 46.5783 219.541 46.5783 218.672 46.5892C216.897 46.5947 214.314 46.6055 211.02 46.6219C204.395 46.6382 194.946 46.66 183.592 46.6817H183.471V46.562C183.466 35.1732 183.461 21.6677 183.45 7.23169V7.09021H183.592H183.597C197.388 7.09565 210.338 7.10109 221.359 7.10653H221.485V7.23169C221.458 19.0177 221.436 28.8612 221.419 35.7717C221.403 39.2053 221.392 41.9042 221.387 43.7597C221.381 44.6739 221.376 45.3758 221.37 45.8546C221.365 46.0832 221.365 46.2627 221.365 46.3879C221.365 46.5076 221.359 46.562 221.359 46.562Z" fill="#E0E0E0"/>
<path d="M193.586 23.6646C193.586 23.6646 192.777 33.4046 203.362 33.4046C203.362 28.2027 199.058 24.0999 193.586 23.6646Z" fill="#EBEBEB"/>
<path d="M212.958 23.6701C212.958 23.6701 203.182 22.8648 203.182 33.4102C208.398 33.4102 212.516 29.1224 212.958 23.6701Z" fill="#EBEBEB"/>
<path d="M202.892 18.3375C202.892 18.3375 194.907 25.4766 203.329 33.3993C207.245 29.2638 206.912 22.7831 202.892 18.3375Z" fill="#E0E0E0"/>
<path d="M73.1985 17.6737H29.2755V63.2888H73.1985V17.6737Z" fill="#E0E0E0"/>
<path d="M70.2239 17.6748H26.3008V63.2899H70.2239V17.6748Z" fill="#FAFAFA"/>
<path d="M70.2384 63.3052H26.288V17.6628H70.2384V63.3052ZM26.3153 63.278H70.211V17.69H26.3153V63.278Z" fill="#E0E0E0"/>
<path d="M64.317 23.806H32.2022V57.1563H64.317V23.806Z" fill="#FAFAFA"/>
<path d="M32.2022 57.3794C32.2295 57.4121 31.9237 57.7603 31.4103 58.299C30.8969 58.8377 30.1759 59.5669 29.3676 60.3613C28.5593 61.1558 27.8165 61.8631 27.2703 62.3637C26.7241 62.8644 26.3691 63.1636 26.3418 63.1364C26.3145 63.1092 26.6149 62.761 27.1283 62.2223C27.6417 61.6836 28.3626 60.949 29.1764 60.1545C29.9848 59.3601 30.733 58.6527 31.2792 58.1521C31.8308 57.6461 32.1804 57.3522 32.2022 57.3794Z" fill="#E0E0E0"/>
<path d="M64.3172 57.2978C64.3499 57.2706 64.6995 57.5753 65.2402 58.0868C65.7809 58.5983 66.5128 59.3166 67.3102 60.1219C68.1076 60.9272 68.8176 61.6673 69.3201 62.2114C69.8226 62.7555 70.123 63.1092 70.0957 63.1364C70.0684 63.1636 69.7188 62.8644 69.1781 62.3529C68.6374 61.8414 67.9001 61.1231 67.1026 60.3124C66.3052 59.507 65.5952 58.7616 65.0927 58.2174C64.5848 57.6733 64.2899 57.325 64.3172 57.2978Z" fill="#E0E0E0"/>
<path d="M64.2302 23.8986C64.2029 23.8659 64.5088 23.5177 65.0222 22.979C65.5356 22.4403 66.2565 21.7112 67.0648 20.9167C67.8732 20.1223 68.616 19.4149 69.1621 18.9143C69.7083 18.4137 70.0633 18.1144 70.0906 18.1416C70.1179 18.1688 69.8175 18.5171 69.3041 19.0558C68.7907 19.5945 68.0698 20.329 67.256 21.1235C66.4477 21.9179 65.6994 22.6253 65.1532 23.1259C64.6071 23.632 64.2575 23.9258 64.2302 23.8986Z" fill="#E0E0E0"/>
<path d="M32.1149 23.9802C32.0821 24.0074 31.7326 23.7027 31.1919 23.1912C30.6512 22.6797 29.9193 21.9615 29.1219 21.1561C28.3245 20.3508 27.6145 19.6108 27.112 19.0666C26.6095 18.5225 26.3091 18.1688 26.3364 18.1416C26.3637 18.1144 26.7133 18.4137 27.254 18.9252C27.7947 19.4367 28.532 20.1549 29.3294 20.9657C30.1269 21.771 30.8369 22.5165 31.3394 23.0606C31.8528 23.6048 32.1477 23.953 32.1149 23.9802Z" fill="#E0E0E0"/>
<path d="M64.2301 57.1564C64.2301 57.1564 64.2246 57.102 64.2246 56.9932C64.2246 56.8789 64.2192 56.7265 64.2192 56.5252C64.2137 56.1062 64.2137 55.5077 64.2028 54.7241C64.1973 53.1461 64.1864 50.8444 64.17 47.9278C64.1536 42.0838 64.1318 33.7639 64.1045 23.8007L64.2301 23.9259C54.8797 23.9313 43.9016 23.9367 32.2081 23.9422H32.2027L32.3447 23.8007C32.3392 36.0438 32.3283 47.4925 32.3228 57.151L32.2027 57.0312C41.7989 57.0584 49.7894 57.0802 55.3931 57.0911C58.1895 57.1074 60.396 57.1129 61.9089 57.1237C62.6571 57.1292 63.2306 57.1346 63.6348 57.1401C63.8259 57.1455 63.9734 57.1455 64.0826 57.1455C64.1755 57.1564 64.2301 57.1564 64.2301 57.1564C64.2301 57.1564 64.1864 57.1618 64.0881 57.1618C63.9843 57.1618 63.8423 57.1673 63.6566 57.1673C63.2634 57.1727 62.6954 57.1727 61.958 57.1836C60.4506 57.189 58.2605 57.1999 55.4695 57.2163C49.8494 57.2326 41.8317 57.2543 32.2027 57.2761H32.0825V57.1564C32.0771 47.4979 32.0716 36.0438 32.0607 23.8061V23.6647H32.2027H32.2081C43.9016 23.6701 54.8851 23.6756 64.2301 23.681H64.3557V23.8061C64.3284 33.802 64.3066 42.1491 64.2902 48.0094C64.2738 50.9151 64.2629 53.2059 64.2574 54.7785C64.2519 55.5512 64.2465 56.1443 64.241 56.5524C64.2356 56.7429 64.2356 56.8952 64.2356 57.004C64.2356 57.1129 64.2356 57.1618 64.2301 57.1564Z" fill="#E0E0E0"/>
<path d="M53.6182 35.146H42.9023V45.822H53.6182V35.146Z" fill="#EBEBEB"/>
<path d="M120.169 221.845C184.036 221.845 235.81 212.395 235.81 200.738C235.81 189.081 184.036 179.631 120.169 179.631C56.3026 179.631 4.5285 189.081 4.5285 200.738C4.5285 212.395 56.3026 221.845 120.169 221.845Z" fill="#EBEBEB"/>
<path d="M164.299 200.738C164.288 200.744 164.315 200.559 164.097 200.341C163.889 200.118 163.491 199.889 162.934 199.677C161.819 199.247 160.099 198.855 157.86 198.496C153.381 197.778 146.833 197.19 138.727 196.826C130.622 196.467 120.96 196.314 110.234 196.559C104.87 196.69 99.2447 196.918 93.428 197.359C90.5224 197.582 87.5622 197.86 84.5801 198.268C83.089 198.474 81.5925 198.708 80.1015 199.029C79.3587 199.193 78.6159 199.372 77.8949 199.617C77.5345 199.737 77.1795 199.878 76.8518 200.052C76.535 200.216 76.1909 200.466 76.1745 200.744C76.1854 201.021 76.5295 201.271 76.8463 201.435C77.174 201.609 77.529 201.745 77.8895 201.87C78.6104 202.115 79.3532 202.294 80.096 202.458C81.5871 202.779 83.0836 203.013 84.5746 203.219C87.5567 203.627 90.5169 203.9 93.4226 204.128C99.2393 204.569 104.87 204.797 110.234 204.928C120.96 205.173 130.622 205.02 138.727 204.661C146.833 204.297 153.376 203.709 157.854 202.991C160.094 202.632 161.814 202.24 162.928 201.81C163.48 201.598 163.884 201.369 164.092 201.146C164.315 200.912 164.283 200.727 164.299 200.738C164.294 200.727 164.337 200.923 164.119 201.157C163.917 201.391 163.513 201.63 162.956 201.854C161.841 202.305 160.121 202.713 157.882 203.094C153.403 203.845 146.849 204.465 138.744 204.857C130.639 205.244 120.966 205.418 110.234 205.184C104.87 205.059 99.2338 204.835 93.4117 204.4C90.5006 204.177 87.5349 203.9 84.5418 203.497C83.0453 203.29 81.5434 203.056 80.0414 202.73C79.2931 202.566 78.5449 202.381 77.8021 202.131C77.4362 202.006 77.0702 201.864 76.7152 201.679C76.5405 201.582 76.3657 201.478 76.2073 201.337C76.0544 201.195 75.896 200.999 75.8905 200.738C75.9014 200.477 76.0598 200.281 76.2127 200.145C76.3711 200.004 76.5459 199.895 76.7207 199.802C77.0757 199.617 77.4416 199.476 77.8076 199.351C78.5449 199.1 79.2931 198.921 80.0414 198.752C81.5434 198.431 83.0453 198.192 84.5418 197.985C87.5349 197.577 90.4951 197.305 93.4062 197.081C99.2338 196.641 104.859 196.418 110.228 196.298C120.96 196.064 130.628 196.238 138.738 196.624C146.844 197.016 153.398 197.631 157.876 198.387C160.115 198.763 161.841 199.176 162.95 199.628C163.502 199.851 163.906 200.091 164.113 200.325C164.337 200.553 164.294 200.744 164.299 200.738Z" fill="#FAFAFA"/>
<path d="M190.591 200.738C190.57 200.743 190.619 200.466 190.362 200.047C190.1 199.633 189.532 199.149 188.68 198.708C186.981 197.816 184.25 196.994 180.684 196.243C173.546 194.752 163.032 193.539 150.011 192.777C136.99 192.026 121.441 191.705 104.204 192.2C95.5851 192.462 86.5406 192.924 77.2011 193.827C72.5313 194.29 67.7905 194.85 63.017 195.683C60.6357 196.107 58.2435 196.586 55.884 197.25C54.7098 197.587 53.5355 197.963 52.4159 198.464C51.8588 198.714 51.3126 198.997 50.832 199.356C50.3622 199.71 49.898 200.172 49.8925 200.733C49.8925 201.293 50.3568 201.761 50.821 202.115C51.3017 202.474 51.8478 202.762 52.4049 203.013C53.5246 203.513 54.6934 203.889 55.8731 204.226C58.2326 204.89 60.6248 205.369 63.0116 205.793C67.7851 206.626 72.5258 207.186 77.1956 207.649C86.5351 208.552 95.5851 209.014 104.204 209.276C121.446 209.771 136.996 209.45 150.016 208.699C163.037 207.937 173.551 206.724 180.689 205.233C184.256 204.487 186.987 203.66 188.685 202.768C189.532 202.327 190.105 201.843 190.368 201.429C190.619 201.01 190.57 200.727 190.591 200.738C190.591 200.738 190.591 200.798 190.581 200.923C190.564 201.048 190.51 201.228 190.389 201.445C190.133 201.875 189.559 202.37 188.713 202.822C187.014 203.736 184.278 204.58 180.717 205.341C173.573 206.87 163.059 208.117 150.033 208.9C137.007 209.678 121.452 210.021 104.198 209.537C95.5742 209.281 86.5187 208.824 77.1683 207.921C72.4931 207.464 67.7414 206.898 62.9624 206.065C60.5756 205.641 58.1725 205.156 55.7966 204.493C54.6115 204.155 53.4317 203.774 52.2902 203.263C51.7222 203.007 51.1597 202.713 50.6517 202.332C50.395 202.147 50.1547 201.919 49.9581 201.663C49.7615 201.402 49.6031 201.075 49.6085 200.722C49.6085 200.368 49.7615 200.042 49.9635 199.786C50.1656 199.53 50.4005 199.301 50.6626 199.116C51.176 198.736 51.7331 198.447 52.3012 198.191C53.4427 197.685 54.6224 197.305 55.8076 196.967C58.1834 196.303 60.5811 195.819 62.9679 195.395C67.7469 194.562 72.4985 194.002 77.1738 193.539C86.5242 192.636 95.5742 192.179 104.198 191.928C121.446 191.444 137.001 191.787 150.027 192.565C163.054 193.354 173.567 194.595 180.711 196.124C184.278 196.891 187.009 197.729 188.713 198.643C189.565 199.095 190.133 199.59 190.389 200.02C190.51 200.237 190.564 200.417 190.581 200.542C190.591 200.673 190.591 200.738 190.591 200.738Z" fill="#FAFAFA"/>
<path d="M223.214 200.738C223.187 200.743 223.247 200.352 222.952 199.688C222.668 199.024 221.92 198.197 220.746 197.419C218.392 195.846 214.426 194.383 209.227 193.066C198.801 190.427 183.333 188.288 164.151 186.95C144.97 185.622 122.047 185.051 96.6339 185.916C83.93 186.373 70.598 187.178 56.8618 188.762C49.9964 189.567 43.0218 190.557 36.0308 192.016C32.5408 192.756 29.0399 193.604 25.6208 194.774C23.9168 195.362 22.2236 196.026 20.6452 196.907C19.8587 197.348 19.0995 197.849 18.4496 198.464C17.8106 199.073 17.2753 199.857 17.2644 200.727C17.2699 201.603 17.7997 202.387 18.4332 202.996C19.0832 203.611 19.8423 204.112 20.6288 204.558C22.2073 205.439 23.9004 206.109 25.6044 206.696C29.0235 207.866 32.5244 208.721 36.0144 209.455C43.0054 210.913 49.98 211.904 56.8508 212.709C70.598 214.293 83.93 215.098 96.6339 215.555C122.047 216.42 144.975 215.849 164.157 214.521C183.333 213.177 198.801 211.039 209.227 208.4C214.426 207.083 218.392 205.619 220.746 204.046C221.925 203.274 222.668 202.441 222.952 201.783C223.253 201.124 223.193 200.733 223.214 200.738C223.214 200.738 223.209 200.831 223.198 201.016C223.198 201.108 223.171 201.217 223.138 201.353C223.116 201.489 223.056 201.636 222.98 201.805C222.701 202.479 221.958 203.323 220.778 204.106C218.424 205.706 214.459 207.186 209.254 208.519C198.822 211.191 183.355 213.362 164.168 214.733C144.981 216.083 122.047 216.676 96.623 215.827C83.9136 215.375 70.5707 214.575 56.8181 212.992C49.9418 212.187 42.9617 211.196 35.9544 209.738C32.4589 208.998 28.947 208.144 25.5116 206.968C23.7966 206.375 22.0926 205.706 20.4868 204.808C19.6894 204.357 18.9139 203.845 18.2366 203.203C17.5757 202.566 16.9859 201.718 16.9804 200.727C16.9968 199.737 17.5921 198.893 18.253 198.257C18.9302 197.615 19.7113 197.109 20.5087 196.657C22.1144 195.765 23.8185 195.095 25.5334 194.502C28.9688 193.327 32.4807 192.478 35.9762 191.738C42.9781 190.28 49.9582 189.289 56.8345 188.484C70.587 186.906 83.9245 186.101 96.6339 185.655C122.058 184.806 144.986 185.399 164.173 186.748C183.355 188.114 198.828 190.285 209.26 192.962C214.465 194.301 218.43 195.781 220.784 197.375C221.964 198.159 222.706 199.002 222.985 199.677C223.056 199.846 223.116 199.993 223.143 200.129C223.176 200.259 223.203 200.373 223.203 200.466C223.214 200.646 223.214 200.738 223.214 200.738Z" fill="#FAFAFA"/>
<path d="M124.882 187.771C115.924 187.189 106.934 186.607 97.9554 186.982C88.9818 187.358 79.9536 188.729 72.0069 191.852C68.8828 193.082 65.6713 194.867 65.1197 197.468C64.5243 200.27 67.3644 202.931 70.7288 204.259C77.6652 207.001 86.2346 205.559 93.455 203.252C100.675 200.945 107.634 197.794 115.444 197.174C121.932 196.657 128.437 197.947 134.56 199.617C140.688 201.288 146.641 203.361 152.977 204.514C159.312 205.668 166.243 205.826 172.136 203.747C175.288 202.632 178.259 200.597 178.439 198.001C178.57 196.162 177.227 194.388 175.375 193.169C173.518 191.95 171.197 191.205 168.865 190.584C153.916 186.612 137.591 187.096 121.736 187.624" fill="#E0E0E0"/>
<path d="M13.6714 199.819C12.4152 200.733 11.159 201.647 9.90285 202.561C9.52599 202.833 9.10544 203.203 9.17098 203.666C9.24745 204.242 9.98478 204.427 10.5637 204.46C14.6108 204.678 17.3745 204.248 20.9628 202.387C21.2741 202.229 22.3228 201.669 22.7761 201.326C23.0546 201.119 24.2344 200.221 24.0159 199.949C23.781 199.661 23.355 199.644 22.9836 199.655C19.7612 199.721 16.8938 199.742 13.6714 199.819Z" fill="#E0E0E0"/>
<path d="M85.2582 97.4063C86.5472 97.994 87.2681 99.3597 87.7542 100.687C88.2403 102.01 88.6008 103.43 89.5129 104.507C90.425 105.585 92.1291 106.178 93.276 105.351C94.3684 104.567 94.423 102.924 93.926 101.683C93.3306 100.181 92.1181 98.9734 90.7309 98.1409C89.3381 97.3083 87.7706 96.8186 86.1922 96.4486" fill="#E8505B"/>
<g opacity="0.2">
<g opacity="0.2">
<path opacity="0.2" d="M85.2582 97.4063C86.5472 97.994 87.2681 99.3597 87.7542 100.687C88.2403 102.01 88.6008 103.43 89.5129 104.507C90.425 105.585 92.1291 106.178 93.276 105.351C94.3684 104.567 94.423 102.924 93.926 101.683C93.3306 100.181 92.1181 98.9734 90.7309 98.1409C89.3381 97.3083 87.7706 96.8186 86.1922 96.4486" fill="black"/>
</g>
</g>
<path d="M187.643 144.523C187.408 144.447 186.993 144.371 186.442 144.295L142.535 125.952H98.8796L55.8414 142.891C51.4775 144.338 45.2402 152.832 48.7739 162.981C48.8723 163.263 48.976 163.536 49.0798 163.802C51.9035 170.86 59.7574 174.533 67.1253 172.574C73.0676 170.99 81.6152 168.672 90.4085 166.273L91.3971 166.245L118.782 158.502C123.07 159.683 132.081 162.159 142.098 164.901H142.104C154.283 168.237 167.932 171.953 176.365 174.201C183.733 176.165 191.587 172.492 194.41 165.429C194.52 165.162 194.618 164.885 194.716 164.607C198.244 154.465 192.013 145.971 187.643 144.523Z" fill="#455A64"/>
<path d="M118.438 158.6C118.438 158.595 118.487 158.578 118.586 158.546C118.7 158.508 118.848 158.464 119.034 158.41C119.449 158.29 120.028 158.121 120.77 157.904C122.316 157.468 124.533 156.837 127.324 156.048L127.253 156.179C126.123 152.043 124.621 146.537 122.879 140.181L123.032 140.295C121.579 140.295 120.077 140.301 118.531 140.301C116.985 140.322 115.407 140.437 113.785 140.508C110.541 140.682 107.16 140.867 103.681 141.057C91.2007 141.781 79.9114 142.619 71.7461 143.277C67.6771 143.615 64.3837 143.887 62.0789 144.072C60.9538 144.164 60.0744 144.235 59.4518 144.284C59.1678 144.306 58.9384 144.316 58.7691 144.333C58.6162 144.344 58.5342 144.344 58.5342 144.338C58.5342 144.333 58.6107 144.316 58.7636 144.3C58.9329 144.278 59.1623 144.251 59.4463 144.219C60.069 144.153 60.9483 144.061 62.068 143.941C64.3455 143.712 67.6444 143.391 71.7297 143.032C79.8895 142.309 91.1789 141.433 103.664 140.709C107.143 140.524 110.53 140.344 113.768 140.17C115.391 140.105 116.98 139.991 118.526 139.974C120.071 139.974 121.579 139.98 123.032 139.98H123.152L123.184 140.094C124.883 146.46 126.352 151.978 127.455 156.119L127.483 156.222L127.384 156.249C124.577 157 122.349 157.599 120.803 158.012C120.055 158.208 119.47 158.361 119.05 158.47C118.864 158.513 118.717 158.551 118.597 158.578C118.493 158.595 118.444 158.606 118.438 158.6Z" fill="#263238"/>
<path d="M104.221 140.698C104.172 140.774 102.959 140.088 101.643 138.989C100.321 137.896 99.4257 136.829 99.4913 136.769C99.5623 136.698 100.562 137.645 101.867 138.723C103.162 139.8 104.276 140.611 104.221 140.698Z" fill="#263238"/>
<path d="M182.471 146.101C182.471 146.112 182.263 146.107 181.87 146.09C181.444 146.063 180.871 146.031 180.15 145.987C178.626 145.884 176.468 145.737 173.825 145.557C168.456 145.198 161.094 144.703 152.956 144.159C144.812 143.669 137.445 143.223 132.076 142.902C129.427 142.744 127.275 142.619 125.746 142.526C125.025 142.477 124.451 142.439 124.025 142.412C123.632 142.379 123.424 142.358 123.424 142.347C123.424 142.336 123.632 142.33 124.025 142.341C124.451 142.352 125.025 142.368 125.746 142.39C127.275 142.456 129.432 142.543 132.081 142.651C137.428 142.896 144.818 143.288 152.972 143.805C161.127 144.322 168.5 144.872 173.836 145.307C176.479 145.535 178.631 145.715 180.155 145.846C180.876 145.916 181.45 145.971 181.87 146.014C182.263 146.063 182.471 146.09 182.471 146.101Z" fill="#263238"/>
<path d="M119.164 145.269C119.104 145.204 119.825 144.545 120.966 144.262C122.108 143.968 123.058 144.202 123.031 144.289C123.02 144.393 122.113 144.327 121.054 144.6C119.988 144.861 119.224 145.35 119.164 145.269Z" fill="#263238"/>
<path d="M120.355 148.033C120.344 147.935 121.142 147.766 122.136 147.647C123.13 147.527 123.949 147.511 123.96 147.609C123.971 147.707 123.173 147.875 122.179 147.995C121.185 148.109 120.366 148.126 120.355 148.033Z" fill="#263238"/>
<path d="M120.89 151.238C120.89 151.135 121.868 151.108 122.999 150.776C124.135 150.455 124.976 149.954 125.03 150.041C125.085 150.112 124.298 150.765 123.097 151.108C121.901 151.461 120.879 151.331 120.89 151.238Z" fill="#263238"/>
<path d="M121.961 154.693C121.955 154.59 122.895 154.514 123.954 154.111C125.019 153.719 125.773 153.164 125.838 153.24C125.904 153.3 125.205 154.019 124.074 154.432C122.949 154.867 121.955 154.78 121.961 154.693Z" fill="#263238"/>
<path d="M141.967 139.038C142.038 139.109 141.306 139.958 140.487 141.063C139.662 142.167 139.061 143.108 138.974 143.06C138.892 143.016 139.367 141.977 140.203 140.856C141.044 139.729 141.901 138.973 141.967 139.038Z" fill="#263238"/>
<path d="M123.184 140.094L112.725 138.516C112.725 138.516 111.769 136.062 110.158 135.937C108.547 135.812 107.056 137.585 105.882 137.471C104.707 137.362 90.6598 132.661 89.8624 139L95.701 141.4" fill="#FFBE9D"/>
<path d="M157.494 145.835L126.362 152.484L123.566 141.835L135.085 141.28C135.085 141.28 136.467 139.033 138.072 139.202C139.678 139.365 140.825 141.373 142.005 141.476C143.184 141.574 157.849 139.457 157.494 145.835Z" fill="#FFBE9D"/>
<path d="M118.416 64.6219C123.823 65.0028 128.34 60.5572 128.017 55.1647C127.886 52.912 127.772 51.198 127.772 51.198C127.772 51.198 134.894 50.0934 134.981 42.9978C135.069 35.9022 133.834 19.6053 133.834 19.6053C125.587 16.0738 116.073 17.2655 108.962 22.7178L107.907 23.5285L110.07 56.2748C110.365 60.7422 113.932 64.3063 118.416 64.6219Z" fill="#FFBE9D"/>
<path d="M162.764 80.7992C162.688 79.466 161.951 78.122 160.733 77.5724C159.668 77.0936 158.384 77.2677 157.374 77.8499C156.363 78.4322 155.604 79.3735 155.042 80.3965C153.572 83.0737 153.398 86.2351 153.092 89.266C152.786 92.3023 152.049 94.8597 150.443 97.847L161.628 84.5755C162.344 83.4437 162.841 82.1323 162.764 80.7992Z" fill="#E8505B"/>
<g opacity="0.2">
<g opacity="0.2">
<path opacity="0.2" d="M162.764 80.7992C162.688 79.466 161.951 78.122 160.733 77.5724C159.668 77.0936 158.384 77.2677 157.374 77.8499C156.363 78.4322 155.604 79.3735 155.042 80.3965C153.572 83.0737 153.398 86.2351 153.092 89.266C152.786 92.3023 152.049 94.8597 150.443 97.847L161.628 84.5755C162.344 83.4437 162.841 82.1323 162.764 80.7992Z" fill="black"/>
</g>
</g>
<path d="M149.956 73.5513C150.612 74.1117 172.398 99.0115 172.398 99.0115L160.607 108.333L145.636 89.7503L149.956 73.5513Z" fill="#FFBE9D"/>
<path d="M85.05 81.969C84.4711 82.6111 66.8735 105.922 66.8735 105.922L77.8897 117.817L91.4074 97.4824L85.05 81.969Z" fill="#FFBE9D"/>
<path d="M127.783 51.0892C127.783 51.0892 123.283 51.4538 118.498 48.4611C118.498 48.4611 120.694 53.5705 127.8 52.9284L127.783 51.0892Z" fill="#EB996E"/>
<path d="M108.787 30.8798C108.667 30.8254 103.893 29.4378 104.046 34.2915C104.199 39.1452 109.06 37.9862 109.06 37.8448C109.071 37.7033 108.787 30.8798 108.787 30.8798Z" fill="#FFBE9D"/>
<path d="M107.52 36.0492C107.498 36.0329 107.438 36.1091 107.296 36.1798C107.16 36.2505 106.919 36.2995 106.663 36.2124C106.144 36.0383 105.685 35.2384 105.63 34.3678C105.603 33.9271 105.685 33.5026 105.827 33.1489C105.964 32.7898 106.188 32.5341 106.444 32.4797C106.701 32.4144 106.887 32.5613 106.952 32.6973C107.023 32.8334 106.996 32.9313 107.018 32.9367C107.034 32.9476 107.121 32.8497 107.072 32.6538C107.05 32.5558 106.99 32.447 106.87 32.3545C106.75 32.262 106.575 32.2185 106.395 32.2457C106.018 32.2838 105.696 32.6375 105.532 33.0238C105.352 33.4156 105.254 33.889 105.281 34.3841C105.341 35.3581 105.876 36.2614 106.586 36.441C106.93 36.5172 107.214 36.4083 107.356 36.2886C107.515 36.1689 107.537 36.0601 107.52 36.0492Z" fill="#EB996E"/>
<path d="M117.809 30.118C117.935 29.9874 118.705 30.5533 119.803 30.5533C120.895 30.5642 121.698 30.0037 121.818 30.1397C121.878 30.1996 121.747 30.439 121.398 30.6893C121.054 30.9396 120.464 31.1899 119.787 31.1845C119.104 31.179 118.53 30.9287 118.203 30.673C117.864 30.4172 117.749 30.1778 117.809 30.118Z" fill="#263238"/>
<path d="M128.569 29.9167C128.694 29.7861 129.464 30.352 130.562 30.352C131.654 30.3629 132.457 29.8024 132.577 29.9384C132.638 29.9983 132.506 30.2377 132.157 30.488C131.813 30.7383 131.223 30.9886 130.546 30.9832C129.863 30.9777 129.29 30.7274 128.962 30.4717C128.623 30.2159 128.509 29.9765 128.569 29.9167Z" fill="#263238"/>
<path d="M125.702 37.8774C125.696 37.8175 126.379 37.6978 127.482 37.5563C127.761 37.5291 128.029 37.4747 128.072 37.2843C128.138 37.0829 128.023 36.7837 127.886 36.4572C127.624 35.7824 127.351 35.0751 127.062 34.335C125.915 31.3151 125.085 28.8338 125.205 28.7903C125.325 28.7467 126.357 31.1573 127.504 34.1772C127.783 34.9227 128.045 35.6301 128.296 36.3103C128.4 36.6259 128.586 36.985 128.444 37.404C128.367 37.6107 128.165 37.7631 127.985 37.8121C127.805 37.8665 127.646 37.8719 127.51 37.8774C126.395 37.9318 125.707 37.9372 125.702 37.8774Z" fill="#263238"/>
<path d="M122.485 38.6282C122.665 38.6174 122.665 39.8036 123.681 40.6416C124.697 41.485 125.964 41.349 125.97 41.5176C125.986 41.5938 125.686 41.7462 125.15 41.7625C124.626 41.7788 123.861 41.6101 123.239 41.0986C122.616 40.5817 122.354 39.8961 122.31 39.4118C122.267 38.9166 122.403 38.6228 122.485 38.6282Z" fill="#263238"/>
<path d="M122.015 26.6247C121.906 26.9185 120.814 26.7825 119.53 26.9348C118.241 27.0654 117.209 27.4354 117.04 27.1742C116.963 27.0491 117.143 26.7661 117.564 26.4832C117.979 26.1948 118.64 25.9227 119.41 25.8411C120.18 25.7595 120.885 25.8792 121.354 26.0696C121.824 26.2492 122.059 26.4832 122.015 26.6247Z" fill="#B42E16"/>
<path d="M132.087 27.664C131.896 27.9143 131.142 27.6532 130.235 27.6423C129.329 27.5987 128.559 27.811 128.384 27.5498C128.307 27.4246 128.428 27.1743 128.761 26.9403C129.088 26.7064 129.646 26.5159 130.268 26.5322C130.891 26.554 131.432 26.7771 131.748 27.0274C132.071 27.2886 132.174 27.5443 132.087 27.664Z" fill="#B42E16"/>
<path d="M153.294 123.982C153.294 123.982 153.748 127.356 150.323 129.2L142.535 125.946L132.938 126.588L136.723 116.348C136.723 116.348 147.505 117.665 149.034 118.883C150.563 120.102 153.414 122.371 153.294 123.982Z" fill="#E8505B"/>
<g opacity="0.4">
<path opacity="0.4" d="M153.294 123.982C153.294 123.982 153.748 127.356 150.323 129.2L142.535 125.946L132.938 126.588L136.723 116.348C136.723 116.348 147.505 117.665 149.034 118.883C150.563 120.102 153.414 122.371 153.294 123.982Z" fill="black"/>
</g>
<path d="M153.294 123.982C153.294 123.982 153.748 127.356 150.323 129.2L142.535 125.946L132.938 126.588L136.723 116.348C136.723 116.348 147.505 117.665 149.034 118.883C150.563 120.102 153.414 122.371 153.294 123.982Z" fill="#E8505B"/>
<g opacity="0.4">
<path opacity="0.4" d="M153.294 123.982C153.294 123.982 153.748 127.356 150.323 129.2L142.535 125.946L132.938 126.588L136.723 116.348C136.723 116.348 147.505 117.665 149.034 118.883C150.563 120.102 153.414 122.371 153.294 123.982Z" fill="black"/>
</g>
<path d="M161.378 77.9697L160.603 77.2949L144.136 64.4478C139.051 59.0663 135.353 57.4447 128.204 56.6013C127.035 56.4653 128.87 56.683 128.204 56.6013C122.72 58.2827 115.374 58.446 109.885 56.7537C107.34 56.8625 105.232 57.6406 103.069 58.0542C96.2529 59.3547 92.6154 64.1485 89.9883 68.8662L76.8038 90.9038L77.3663 91.7745C79.2069 94.6094 81.9487 96.7479 85.1547 97.8525L86.0395 98.2932C89.0926 99.8114 91.8945 101.972 93.817 104.785L99.6228 94.6802L97.9897 110.874L96.8646 126.779C105.052 128.999 111.884 129.946 120.689 129.804C132.175 129.853 148.139 115.929 153.295 123.982C153.371 119.857 148.155 114.204 146.708 111.467C142.224 102.962 143.065 99.523 142.737 93.1457L150.444 97.847L151.826 95.1536C152.995 92.8791 155.223 87.8186 156.053 83.8681C156.053 83.8736 156.96 76.5059 161.378 77.9697Z" fill="#EAA7A7"/>
<path d="M99.6597 78.3616C99.6816 78.3616 99.7034 78.601 99.7198 79.0254C99.7362 79.4553 99.7526 80.0756 99.7635 80.8374C99.7854 82.3664 99.7963 84.4831 99.7853 86.8229C99.7744 89.1627 99.7471 91.274 99.7089 92.8085C99.6925 93.5757 99.6707 94.196 99.6488 94.6204C99.627 95.0503 99.6051 95.2843 99.5833 95.2843C99.5614 95.2843 99.5396 95.0449 99.5232 94.6204C99.5068 94.1906 99.4904 93.5702 99.4795 92.8085C99.4577 91.274 99.4467 89.1627 99.4577 86.8229C99.4686 84.4886 99.4959 82.3719 99.5341 80.8374C99.5505 80.0702 99.5723 79.4499 99.5942 79.0254C99.616 78.5956 99.6379 78.3616 99.6597 78.3616Z" fill="#263238"/>
<path d="M143.676 104.045C143.654 104.045 143.605 103.68 143.54 103.016C143.474 102.298 143.392 101.351 143.288 100.203C143.092 97.8252 142.841 94.544 142.578 90.9146C142.322 87.2852 142.103 83.9986 141.967 81.6208C141.907 80.4726 141.857 79.5204 141.819 78.8021C141.792 78.1383 141.786 77.7683 141.808 77.7628C141.83 77.7628 141.879 78.1274 141.945 78.7912C142.01 79.5095 142.092 80.4563 142.196 81.6044C142.393 83.9823 142.644 87.2635 142.906 90.8929C143.163 94.5223 143.381 97.8089 143.518 100.187C143.578 101.335 143.627 102.287 143.665 103.005C143.693 103.675 143.698 104.045 143.676 104.045Z" fill="#263238"/>
<g opacity="0.2">
<g opacity="0.2">
<path opacity="0.2" d="M113.042 121.582C121.049 123.106 129.678 119.7 134.55 113.192C135.337 112.142 136.058 110.857 135.73 109.59C135.391 108.267 133.938 107.44 132.567 107.473C131.197 107.511 129.929 108.24 128.897 109.138C126.396 111.32 124.965 114.519 122.469 116.718C120.251 118.671 117.237 119.705 114.282 119.526C113.823 119.498 113.364 119.509 112.911 119.58C112.316 119.672 111.862 120.206 111.862 120.663C111.862 121.207 112.294 121.435 113.042 121.582Z" fill="black"/>
</g>
</g>
<g opacity="0.2">
<path opacity="0.2" d="M142.06 83.2369L142.737 93.1457L150.444 97.8471L152.055 94.8597L142.06 83.2369Z" fill="black"/>
</g>
<path d="M161.525 78.1274C161.514 78.1655 161.208 77.9696 160.602 77.9479C160.007 77.9207 159.1 78.122 158.27 78.8185C157.423 79.4932 156.828 80.6903 156.446 82.067C156.069 83.4546 155.708 85.0217 155.206 86.616C154.228 89.8264 153.065 92.6342 152.125 94.6203C151.661 95.6161 151.251 96.4051 150.962 96.9438C150.667 97.4825 150.498 97.7763 150.476 97.7654C150.46 97.7545 150.596 97.4444 150.864 96.8948C151.12 96.3398 151.503 95.5399 151.945 94.5387C152.83 92.5362 153.96 89.7285 154.933 86.5344C155.435 84.9401 155.796 83.4001 156.194 81.9963C156.598 80.6033 157.232 79.3572 158.139 78.6661C159.023 77.9588 159.985 77.7737 160.602 77.8445C160.913 77.8717 161.148 77.9533 161.301 78.0132C161.454 78.0785 161.53 78.122 161.525 78.1274Z" fill="#263238"/>
<path d="M93.8164 104.779C93.8 104.79 93.6088 104.545 93.2538 104.105C92.8988 103.669 92.3745 103.044 91.659 102.336C90.9435 101.634 90.0369 100.851 88.9008 100.16C87.7757 99.4523 86.4594 98.8102 85.0831 98.1137C83.7067 97.4064 82.4178 96.6935 81.3036 95.9372C80.1894 95.1863 79.2718 94.3864 78.5782 93.6409C77.8955 92.89 77.4312 92.199 77.1691 91.6984C77.0216 91.4535 76.9451 91.2467 76.8796 91.1107C76.8195 90.9747 76.7922 90.8985 76.8031 90.8985C76.8632 90.8604 77.3275 92.052 78.7257 93.5049C79.4248 94.2232 80.3423 94.9958 81.4511 95.725C82.5543 96.465 83.8433 97.1615 85.2142 97.8689C86.5851 98.5654 87.9122 99.2183 89.0428 99.9475C90.1898 100.655 91.1019 101.471 91.8064 102.2C92.511 102.935 93.0135 103.582 93.3466 104.039C93.5105 104.268 93.6361 104.453 93.7126 104.578C93.7836 104.709 93.8218 104.774 93.8164 104.779Z" fill="#263238"/>
<path d="M137.477 108.077C137.488 108.082 137.45 108.186 137.379 108.387C137.303 108.588 137.204 108.888 137.035 109.263C136.718 110.014 136.188 111.081 135.396 112.31C133.84 114.764 131.016 117.866 127.002 119.928C122.987 121.991 118.82 122.486 115.909 122.328C114.445 122.257 113.266 122.072 112.468 121.893C112.064 121.816 111.764 121.719 111.556 121.664C111.348 121.604 111.239 121.572 111.245 121.561C111.245 121.55 111.359 121.566 111.572 121.604C111.785 121.637 112.091 121.719 112.495 121.778C113.298 121.925 114.467 122.078 115.92 122.121C118.809 122.225 122.922 121.702 126.876 119.667C130.83 117.632 133.643 114.601 135.233 112.191C136.041 110.983 136.592 109.943 136.937 109.209C137.122 108.844 137.232 108.55 137.33 108.36C137.417 108.17 137.472 108.072 137.477 108.077Z" fill="#263238"/>
<g opacity="0.2">
<g opacity="0.2">
<path opacity="0.2" d="M94.3025 103.642C94.9306 95.7359 96.7439 87.9221 99.6604 80.5436L99.6495 94.6259L94.3025 103.642Z" fill="black"/>
</g>
</g>
<path d="M78.5023 117.077L112.802 97.2811C115.412 95.7738 117.073 93.0477 117.204 90.0441L118.111 69.2525C118.138 68.6812 117.706 68.1969 117.138 68.1425C116.625 68.099 116.15 68.42 116.013 68.9152L111.633 84.5156L70.8286 101.732C66.2408 103.669 64.2527 109.062 66.4865 113.491C68.704 117.92 74.2039 119.553 78.5023 117.077Z" fill="#FFBE9D"/>
<path d="M111.621 84.521C111.627 84.5319 111.49 84.6026 111.228 84.7278C110.944 84.8638 110.562 85.0434 110.081 85.2719C109.049 85.7399 107.607 86.3983 105.826 87.2091C102.227 88.8252 97.2351 91.018 91.686 93.3578C86.1315 95.6922 81.074 97.7273 77.3928 99.1529C75.5522 99.8657 74.0611 100.432 73.0234 100.818C72.5264 100.998 72.1277 101.144 71.8273 101.253C71.5542 101.351 71.4067 101.395 71.4013 101.384C71.3958 101.373 71.5378 101.313 71.8054 101.199C72.1004 101.079 72.4882 100.916 72.9797 100.715C74.0284 100.29 75.503 99.697 77.3163 98.9679C80.9756 97.4933 86.0223 95.4364 91.5714 93.0966C97.1204 90.7623 102.123 88.5966 105.739 87.0241C107.53 86.2514 108.989 85.6202 110.026 85.1685C110.518 84.9618 110.906 84.7985 111.195 84.6734C111.474 84.5646 111.616 84.5101 111.621 84.521Z" fill="#EB996E"/>
<path d="M161.967 111.244L127.034 95.6867C124.374 94.5004 122.506 92.0464 122.075 89.1788L119.098 69.3068C119.016 68.7627 119.376 68.2512 119.923 68.1424C120.414 68.0444 120.9 68.311 121.08 68.7736L126.87 83.3129L167.789 95.7465C172.912 97.3952 174.889 102.14 173.147 106.602C171.459 111.064 166.342 113.192 161.967 111.244Z" fill="#FFBE9D"/>
<path d="M126.871 83.313C126.876 83.3021 127.018 83.3402 127.286 83.4164C127.581 83.5034 127.969 83.6231 128.46 83.7701C129.503 84.0965 130.967 84.5536 132.764 85.1195C136.396 86.2622 141.421 87.8402 146.981 89.5216C152.546 91.2084 157.598 92.6776 161.263 93.7278C163.071 94.2447 164.546 94.6691 165.6 94.9684C166.091 95.1153 166.484 95.2296 166.774 95.3167C167.042 95.3983 167.184 95.4473 167.178 95.4581C167.178 95.469 167.031 95.4364 166.758 95.3711C166.457 95.2949 166.064 95.197 165.567 95.0772C164.535 94.8161 163.044 94.4188 161.203 93.9237C157.527 92.9225 152.459 91.4805 146.893 89.7991C141.328 88.1123 136.314 86.5071 132.693 85.3154C130.907 84.7169 129.454 84.2271 128.416 83.8789C127.936 83.7102 127.548 83.5742 127.259 83.4708C127.007 83.3783 126.871 83.3184 126.871 83.313Z" fill="#EB996E"/>
<path d="M138.729 12.6833C137.618 10.7102 135.463 9.23994 133.054 8.82588C130.645 8.40761 128.035 9.04981 126.193 10.5117C125.04 8.44141 122.697 6.94152 120.147 6.64577C117.598 6.34579 114.908 7.2584 113.206 8.99489C111.744 10.4905 110.985 12.5186 109.27 13.7776C107.784 14.8677 105.774 15.2268 104.283 16.3084C102.638 17.4956 101.823 19.5406 102.245 21.4038C102.666 23.2628 104.311 24.8556 106.341 25.3669C104.705 28.0286 106.238 31.8481 109.387 32.9466L110.146 32.6635C113.033 29.8074 113.694 25.295 111.725 21.8601C111.819 21.8643 111.908 21.8516 111.997 21.8474C113 22.3417 114.158 22.591 115.301 22.5276C117.124 22.4305 118.882 21.5517 119.941 20.2081C122.026 21.5643 125.012 21.6784 127.214 20.4827C127.561 20.2926 127.908 20.0729 128.311 20.0349C128.789 19.9884 129.244 20.2123 129.68 20.4025C130.823 20.9095 132.112 21.239 133.372 21.0742C134.549 20.9221 135.683 20.2588 136.147 19.2828C136.175 19.2786 136.203 19.2786 136.231 19.2744C137.703 19.0335 138.884 17.9012 139.287 16.6042C139.695 15.3071 139.404 13.8875 138.729 12.6833Z" fill="#B42E16"/>
<path d="M16.6146 185.638C16.6091 185.633 16.6419 185.557 16.7129 185.399C16.7948 185.23 16.8986 185.002 17.0351 184.713C17.3082 184.104 17.6687 183.184 17.9855 181.96C18.6136 179.511 18.832 175.773 17.9035 171.327C17.4721 169.102 16.773 166.719 15.9264 164.188C15.0907 161.653 14.1131 158.965 13.3212 156.059C12.5347 153.159 11.9175 150.008 12.0322 146.711C12.1524 143.402 13.1355 140.105 14.2169 136.818C15.2928 133.526 16.4125 130.31 16.7456 127.078C17.1225 123.846 16.4289 120.679 14.9542 118.078C13.5232 115.455 11.7263 113.208 10.3773 110.879C9.01187 108.561 8.15438 106.178 7.6246 103.963C6.60326 99.4958 6.95827 95.7249 7.44982 93.2436C7.97961 90.746 8.57494 89.4564 8.57494 89.4564C8.5804 89.4564 8.55855 89.5435 8.50939 89.7067C8.45478 89.8863 8.37831 90.1257 8.28 90.4304C8.08338 91.0671 7.82668 92.0193 7.58091 93.2654C7.13305 95.7412 6.81627 99.4849 7.85945 103.903C8.3947 106.096 9.25765 108.447 10.6176 110.732C11.9612 113.029 13.769 115.265 15.2273 117.92C16.7347 120.549 17.4611 123.819 17.0788 127.1C16.7402 130.392 15.6205 133.63 14.5446 136.916C13.4632 140.197 12.491 143.462 12.3708 146.716C12.2507 149.965 12.8515 153.083 13.627 155.972C14.408 158.867 15.3693 161.555 16.1995 164.096C17.0406 166.632 17.7288 169.037 18.1493 171.279C19.0559 175.757 18.7992 179.533 18.122 181.987C17.7834 183.217 17.4011 184.137 17.1061 184.735C16.9587 185.018 16.8385 185.241 16.7511 185.41C16.6692 185.562 16.62 185.638 16.6146 185.638Z" fill="#263238"/>
<path d="M12.2121 113.165C12.2121 113.165 9.47581 104.453 14.3859 99.3489C14.5607 99.1693 14.861 99.2564 14.9047 99.5013C15.1614 100.943 15.4891 105.324 12.2121 113.165Z" fill="#11DE9A"/>
<path d="M13.8507 102.255C13.8999 102.265 13.8179 102.875 13.665 103.86C13.4848 104.964 13.2718 106.265 13.0424 107.701C12.813 109.138 12.6054 110.438 12.4307 111.543C12.2832 112.528 12.1903 113.137 12.1412 113.132C12.0975 113.126 12.103 112.506 12.1903 111.51C12.2832 110.515 12.458 109.143 12.7037 107.642C12.9495 106.14 13.2117 104.785 13.4302 103.811C13.6432 102.842 13.8015 102.249 13.8507 102.255Z" fill="#263238"/>
<path d="M15.4271 133.717C15.4271 133.717 17.0983 124.744 23.8326 122.518C24.0675 122.442 24.2969 122.654 24.2204 122.894C23.778 124.287 22.0084 128.313 15.4271 133.717Z" fill="#11DE9A"/>
<path d="M21.9952 124.836C22.0334 124.864 21.673 125.37 21.0776 126.17C20.4004 127.062 19.603 128.118 18.7236 129.277C17.8498 130.441 17.0524 131.491 16.3806 132.389C15.7852 133.189 15.4193 133.684 15.3756 133.662C15.3374 133.641 15.6323 133.091 16.1785 132.253C16.7247 131.415 17.5221 130.289 18.4506 129.075C19.3736 127.862 20.242 126.79 20.8919 126.028C21.531 125.255 21.957 124.804 21.9952 124.836Z" fill="#263238"/>
<path d="M13.6071 156.233C13.6071 156.233 12.5912 147.162 18.3806 143.087C18.5827 142.945 18.8667 143.087 18.8612 143.332C18.8448 144.79 18.326 149.154 13.6071 156.233Z" fill="#11DE9A"/>
<path d="M17.3027 145.835C17.3464 145.851 17.1497 146.439 16.8166 147.38C16.4288 148.43 15.97 149.671 15.4675 151.031C14.9705 152.397 14.5172 153.632 14.1294 154.688C13.7963 155.624 13.5887 156.206 13.5396 156.195C13.4959 156.184 13.6215 155.575 13.9 154.617C14.1786 153.659 14.6155 152.348 15.1453 150.917C15.6751 149.486 16.1939 148.207 16.5872 147.293C16.9859 146.368 17.259 145.813 17.3027 145.835Z" fill="#263238"/>
<path d="M18.675 178.88C18.675 178.88 17.9869 169.777 23.9183 165.913C24.1258 165.777 24.4044 165.93 24.3935 166.175C24.3224 167.633 23.6507 171.975 18.675 178.88Z" fill="#11DE9A"/>
<path d="M22.7425 168.618C22.7862 168.64 22.5732 169.216 22.1964 170.141C21.7704 171.181 21.2679 172.4 20.7162 173.744C20.1701 175.093 19.6731 176.312 19.247 177.351C18.8756 178.276 18.6517 178.848 18.6026 178.837C18.5589 178.826 18.7063 178.222 19.0177 177.27C19.329 176.323 19.8151 175.028 20.394 173.618C20.9729 172.209 21.541 170.952 21.967 170.049C22.4094 169.146 22.6988 168.601 22.7425 168.618Z" fill="#263238"/>
<path d="M8.28002 105.514C8.28002 105.514 0.15847 101.286 8.06464e-05 94.2232C-0.00538106 93.9729 0.267704 93.8206 0.475249 93.9621C1.68229 94.7946 5.02485 97.6568 8.28002 105.514Z" fill="#11DE9A"/>
<path d="M1.68753 96.6501C1.72576 96.6229 2.10808 97.1126 2.69795 97.918C3.35881 98.8267 4.13437 99.8932 4.9864 101.074C5.84389 102.249 6.61945 103.316 7.28578 104.219C7.8811 105.019 8.24704 105.514 8.20881 105.547C8.17603 105.574 7.7391 105.133 7.09462 104.366C6.45014 103.599 5.60357 102.505 4.70785 101.27C3.81213 100.035 3.03657 98.892 2.49586 98.054C1.95515 97.2106 1.6493 96.6773 1.68753 96.6501Z" fill="#263238"/>
<path d="M17.0019 124.221C17.0019 124.221 8.64007 120.494 8.05021 113.453C8.02836 113.208 8.29598 113.034 8.50899 113.164C9.75972 113.926 13.2716 116.582 17.0019 124.221Z" fill="#11DE9A"/>
<path d="M9.881 115.777C9.91923 115.749 10.3289 116.212 10.9679 116.979C11.6834 117.844 12.519 118.862 13.4475 119.988C14.376 121.109 15.2171 122.127 15.9326 122.992C16.5716 123.754 16.9757 124.227 16.9375 124.26C16.9047 124.292 16.4405 123.879 15.7523 123.15C15.0642 122.42 14.152 121.387 13.1853 120.206C12.2186 119.025 11.372 117.931 10.7822 117.126C10.1869 116.321 9.84276 115.804 9.881 115.777Z" fill="#263238"/>
<path d="M12.1907 145.095C12.1907 145.095 6.45042 137.983 9.14304 131.448C9.23589 131.219 9.55267 131.187 9.68375 131.399C10.4484 132.639 12.3654 136.601 12.1907 145.095Z" fill="#11DE9A"/>
<path d="M9.71175 134.343C9.7609 134.332 9.90837 134.936 10.1323 135.904C10.3726 136.998 10.6512 138.288 10.9625 139.708C11.2793 141.128 11.5633 142.412 11.8036 143.506C12.0275 144.474 12.1641 145.078 12.1204 145.089C12.0767 145.1 11.8527 144.523 11.5742 143.566C11.2956 142.608 10.9516 141.269 10.6348 139.779C10.3125 138.288 10.0613 136.933 9.90291 135.948C9.73359 134.963 9.66259 134.348 9.71175 134.343Z" fill="#263238"/>
<path d="M17.8765 169.652C17.8765 169.652 9.57473 165.788 9.10503 158.736C9.08864 158.491 9.35627 158.323 9.56927 158.453C10.8091 159.237 14.2773 161.952 17.8765 169.652Z" fill="#11DE9A"/>
<path d="M10.9015 161.087C10.9398 161.06 11.3385 161.528 11.9666 162.306C12.6657 163.187 13.4849 164.216 14.3916 165.358C15.3037 166.496 16.1229 167.524 16.8275 168.4C17.4556 169.173 17.8488 169.652 17.8106 169.684C17.7778 169.717 17.3245 169.292 16.6418 168.558C15.9645 167.818 15.0688 166.768 14.1239 165.571C13.1791 164.373 12.3489 163.269 11.7754 162.453C11.1965 161.642 10.8633 161.119 10.9015 161.087Z" fill="#263238"/>
<path d="M34.4094 133.766C34.4148 133.766 34.4203 133.836 34.4203 133.967C34.4148 134.125 34.4094 134.315 34.4039 134.549C34.3821 135.099 34.3493 135.839 34.3056 136.764C34.1964 138.712 34.0489 141.422 33.8687 144.67V144.676V144.687C33.2788 147.99 31.5857 151.652 29.3191 155.205C27.6532 157.822 25.911 160.205 24.409 162.42C22.8961 164.629 21.6181 166.675 20.7278 168.487C19.8321 170.299 19.3078 171.85 19.0074 172.938C18.8599 173.482 18.7507 173.907 18.6906 174.201C18.6251 174.489 18.5814 174.641 18.5704 174.641C18.5595 174.641 18.5759 174.484 18.6251 174.19C18.6687 173.896 18.7561 173.461 18.8818 172.906C19.1494 171.801 19.6409 170.223 20.5148 168.384C21.3832 166.545 22.6503 164.471 24.1523 162.246C25.6488 160.015 27.3802 157.632 29.0351 155.025C31.2907 151.488 32.9729 147.881 33.5847 144.632V144.649C33.814 141.405 34.0052 138.696 34.1417 136.753C34.2182 135.833 34.2783 135.093 34.322 134.544C34.3438 134.31 34.3657 134.119 34.3821 133.962C34.393 133.831 34.4039 133.766 34.4094 133.766Z" fill="#263238"/>
<path d="M29.4718 154.525C29.4718 154.525 32.9891 146.096 28.5652 140.573C28.4122 140.377 28.1009 140.437 28.0354 140.676C27.6421 142.086 26.9157 146.417 29.4718 154.525Z" fill="#11DE9A"/>
<path d="M28.8272 143.511C28.8764 143.506 28.9801 144.115 29.1057 145.105C29.2314 146.096 29.3679 147.467 29.4771 148.985C29.5864 150.503 29.641 151.885 29.6355 152.887C29.6355 153.888 29.5809 154.503 29.5372 154.503C29.4881 154.503 29.4553 153.888 29.3952 152.892C29.3188 151.771 29.2314 150.46 29.1331 149.012C29.0293 147.559 28.9419 146.248 28.86 145.127C28.8054 144.131 28.7835 143.516 28.8272 143.511Z" fill="#263238"/>
<path d="M18.5812 174.837C18.5812 174.837 21.3994 166.153 16.544 161.005C16.3747 160.826 16.0688 160.907 16.0251 161.152C15.7466 162.589 15.3752 166.964 18.5812 174.837Z" fill="#11DE9A"/>
<path d="M17.0467 163.917C17.0959 163.906 17.2488 164.504 17.4564 165.484C17.6585 166.463 17.9097 167.818 18.1445 169.32C18.3794 170.827 18.5432 172.198 18.6197 173.194C18.7016 174.19 18.6962 174.81 18.6525 174.816C18.6033 174.821 18.5159 174.206 18.3794 173.221C18.2155 172.111 18.0189 170.811 17.8059 169.374C17.5874 167.938 17.3854 166.637 17.2161 165.527C17.074 164.537 17.003 163.922 17.0467 163.917Z" fill="#263238"/>
<path d="M33.9443 144.224C33.9443 144.224 41.4487 138.989 40.695 131.965C40.6677 131.72 40.3782 131.6 40.1925 131.769C39.1002 132.748 36.1563 136.018 33.9443 144.224Z" fill="#11DE9A"/>
<path d="M39.3352 134.587C39.3789 134.609 39.1386 135.181 38.7126 136.084C38.2865 136.987 37.6639 138.217 36.9375 139.561C36.2111 140.905 35.512 142.091 34.9713 142.935C34.4306 143.778 34.0537 144.273 34.0155 144.246C33.9718 144.219 34.2777 143.68 34.7583 142.809C35.299 141.824 35.9326 140.671 36.6316 139.392C37.3253 138.113 37.9588 136.954 38.4941 135.97C38.9802 135.099 39.2915 134.566 39.3352 134.587Z" fill="#263238"/>
<path d="M21.6066 166.229C21.6066 166.229 30.6621 164.825 33.0871 158.187C33.1745 157.953 32.9615 157.719 32.7212 157.789C31.3121 158.187 27.2213 159.83 21.6066 166.229Z" fill="#11DE9A"/>
<path d="M30.7058 159.944C30.7331 159.982 30.2688 160.39 29.4824 161.011C28.7013 161.631 27.5981 162.469 26.3528 163.351C25.1075 164.237 23.9551 164.999 23.0976 165.522C22.2401 166.039 21.683 166.322 21.6612 166.283C21.6339 166.24 22.1473 165.892 22.9665 165.32C23.8841 164.673 24.9655 163.916 26.1562 163.073C27.3468 162.23 28.4228 161.468 29.3404 160.815C30.1596 160.243 30.6785 159.906 30.7058 159.944Z" fill="#263238"/>
<path d="M10.8964 182.825L13.4907 199.797L23.8624 199.781L27.3579 182.825H10.8964Z" fill="#455A64"/>
</svg>
