<svg width="244" height="244" viewBox="0 0 244 244" fill="none" xmlns="http://www.w3.org/2000/svg">
<path d="M223.231 18.0266H33.7256V144.067H223.231V18.0266Z" fill="#E0E0E0"/>
<path d="M217.487 23.6628H27.9819V149.703H217.487V23.6628Z" fill="#EBEBEB"/>
<path d="M39.5722 188.09C41.4347 187.216 43.5277 186.962 45.5453 187.363C46.6335 187.543 47.7608 187.851 48.4733 188.68C49.1858 189.51 49.3517 190.925 48.5026 191.608C47.9592 191.984 47.3011 192.157 46.6433 192.096C45.0622 192.096 43.3102 191.803 42.0512 192.75C41.329 193.292 40.8507 194.214 39.9918 194.463C39.5632 194.564 39.1133 194.523 38.7096 194.347C38.3059 194.171 37.9699 193.87 37.7519 193.487C37.3396 192.696 37.2487 191.776 37.4982 190.92C37.599 190.319 37.8391 189.75 38.1992 189.259C38.5594 188.767 39.0296 188.367 39.5722 188.09Z" fill="#EBEBEB"/>
<path d="M35.4093 180.072C36.5219 181.658 38.6789 181.131 39.6793 180.165C40.6797 179.198 41.1043 177.788 41.4898 176.451C42.3731 173.391 43.2612 170.185 42.6024 167.067C42.4454 166.122 42.0318 165.239 41.4068 164.514C41.0887 164.159 40.6831 163.892 40.2303 163.742C39.7775 163.591 39.2931 163.561 38.8253 163.655C37.7371 163.943 37.0587 165.012 36.5707 166.027C35.1279 169.022 34.3727 172.302 34.3601 175.626C34.3601 177.173 34.5358 178.793 35.4093 180.072Z" fill="#EBEBEB"/>
<path d="M32.3595 182.326C33.5649 180.896 33.7942 178.808 33.2574 177.012C32.6473 175.231 31.5583 173.652 30.1098 172.449C28.4658 170.983 26.5511 169.853 24.4734 169.121C23.6688 168.795 22.8029 168.649 21.9358 168.692C21.5033 168.717 21.0835 168.848 20.7128 169.073C20.3421 169.297 20.0316 169.609 19.8082 169.98C19.2177 171.112 19.7838 172.483 20.3986 173.601C21.4826 175.574 22.7211 177.459 24.1026 179.237C25.2103 180.667 26.484 182.082 28.1725 182.726C29.861 183.371 31.6226 183.297 32.5206 182.126" fill="#EBEBEB"/>
<path d="M35.3312 203.984C35.3945 203.748 35.4289 203.506 35.4337 203.262C35.4874 202.735 35.5508 202.076 35.624 201.31C35.7233 200.34 35.8715 199.376 36.0681 198.421C36.327 197.256 36.6778 196.114 37.1173 195.005C37.5481 193.899 38.1348 192.86 38.8594 191.92C39.4462 191.155 40.1964 190.53 41.0554 190.09C41.6401 189.804 42.2656 189.61 42.9098 189.515C43.1517 189.503 43.3919 189.469 43.6272 189.412C43.3839 189.387 43.1385 189.387 42.8952 189.412C42.2207 189.458 41.5597 189.623 40.9432 189.9C40.0373 190.328 39.2423 190.959 38.6203 191.745C37.8674 192.699 37.2605 193.76 36.8196 194.892C36.3692 196.014 36.0197 197.174 35.7753 198.357C35.5885 199.325 35.4598 200.302 35.3898 201.285C35.3312 202.12 35.3068 202.798 35.2922 203.237C35.2793 203.487 35.2923 203.737 35.3312 203.984Z" fill="#E0E0E0"/>
<path d="M35.4679 202.476C35.4828 202.366 35.4828 202.254 35.4679 202.144V201.168C35.4679 200.334 35.4679 199.133 35.5069 197.65C35.585 194.683 35.8388 191.486 36.3317 186.982C36.8197 182.751 37.4248 177.822 38.0885 174.616C38.23 173.889 38.3715 173.235 38.5081 172.664C38.6448 172.093 38.7473 171.59 38.8497 171.2C38.9522 170.81 39.0157 170.517 39.0742 170.268C39.107 170.162 39.1267 170.052 39.1328 169.941C39.0811 170.04 39.0418 170.145 39.0157 170.253C38.9425 170.492 38.8546 170.8 38.7424 171.171C38.6301 171.542 38.4886 172.064 38.3471 172.635C38.2056 173.206 38.0397 173.86 37.8591 174.587C37.0408 178.377 36.4234 182.209 36.0096 186.065C35.5216 190.579 35.2922 194.688 35.2727 197.659C35.2727 199.148 35.2727 200.353 35.3264 201.183C35.3264 201.573 35.3703 201.89 35.3849 202.159C35.3997 202.267 35.4276 202.374 35.4679 202.476Z" fill="#E0E0E0"/>
<path d="M35.4878 194.551C35.5176 194.218 35.5176 193.883 35.4878 193.55C35.4488 192.911 35.3609 191.984 35.1804 190.847C34.9628 189.515 34.6695 188.197 34.302 186.899C33.8688 185.303 33.3175 183.742 32.6525 182.229C31.5063 179.45 29.868 176.901 27.8164 174.704C27.4577 174.328 27.0763 173.974 26.6745 173.645C26.4988 173.498 26.3476 173.347 26.1865 173.23L25.7473 172.928C25.4823 172.724 25.1998 172.544 24.9031 172.391C25.8739 173.144 26.7948 173.959 27.6603 174.831C29.6509 177.05 31.2499 179.591 32.389 182.346C33.0433 183.85 33.5976 185.395 34.0482 186.972C34.4776 188.436 34.7656 189.759 34.9852 190.876C35.2048 191.994 35.3072 192.921 35.3804 193.555C35.3906 193.889 35.4264 194.222 35.4878 194.551Z" fill="#E0E0E0"/>
<path d="M27.8308 208.532L28.6214 219.414H42.6026L43.3931 208.532H27.8308Z" fill="#E0E0E0"/>
<path d="M45.062 204.243H26.479V208.532H45.062V204.243Z" fill="#E0E0E0"/>
<path d="M26.479 218.995V220.185H27.3525H44.7546V218.995H26.479Z" fill="#EBEBEB"/>
<path d="M28.2065 222.279L27.3525 220.185H44.0909L43.0905 222.279H28.2065Z" fill="#E0E0E0"/>
<path d="M43.1344 212.09C43.1169 212.124 43.0956 212.157 43.0709 212.187L42.8611 212.465L42.0461 213.505L42.012 213.554L41.9729 213.505L39.977 210.738H40.0893C39.4939 211.582 38.8302 212.519 38.1373 213.529L38.0738 213.612L38.0055 213.534L35.668 210.752H35.8046L35.6729 210.914L33.5842 213.529L33.5159 213.617L33.4525 213.529L31.5005 210.738H31.6176L29.1776 213.5L29.1385 213.549L29.1044 213.495L28.3041 212.226L28.1089 211.89C28.0833 211.852 28.0635 211.811 28.0503 211.768C28.0503 211.768 28.0796 211.802 28.1333 211.875L28.348 212.202C28.5432 212.504 28.836 212.929 29.1434 213.456H29.0702L31.4565 210.66L31.5151 210.587L31.5737 210.665C32.1739 211.509 32.8425 212.441 33.5598 213.441H33.4281C34.0869 212.607 34.7847 211.728 35.5118 210.821L35.6387 210.66L35.7021 210.577L35.7705 210.655L38.1031 213.441H37.9713L39.9624 210.665L40.0161 210.587L40.0746 210.665L42.0266 213.461H41.9681L42.8123 212.446L43.0417 212.182C43.1051 212.114 43.1295 212.085 43.1344 212.09Z" fill="#F5F5F5"/>
<path d="M43.5882 208.459C43.5882 208.508 40.0843 208.547 35.7802 208.547C31.476 208.547 27.9722 208.508 27.9722 208.459C27.9722 208.41 31.4711 208.376 35.7802 208.376C40.0892 208.376 43.5882 208.415 43.5882 208.459Z" fill="#F5F5F5"/>
<path d="M44.2961 220.303C44.2961 220.351 40.4897 220.39 35.7951 220.39C31.1006 220.39 27.2942 220.351 27.2942 220.303C27.2942 220.254 31.1006 220.215 35.7951 220.215C40.4897 220.215 44.2961 220.254 44.2961 220.303Z" fill="#F5F5F5"/>
<path d="M226.583 222.274C226.583 222.348 179.735 222.406 122.005 222.406C64.2743 222.406 17.4165 222.348 17.4165 222.274C17.4165 222.201 64.2352 222.147 122.005 222.147C179.774 222.147 226.583 222.206 226.583 222.274Z" fill="#263238"/>
<path d="M211.011 30.2017H21.5059V155.339H211.011V30.2017Z" fill="#FAFAFA"/>
<path d="M211.011 155.34C211.011 154.515 210.972 106.54 210.909 30.2023L211.011 30.3048H21.5207L21.6476 30.1779C21.6476 74.7079 21.6476 117.071 21.6476 155.316L21.5304 155.199L211.036 155.316L21.5304 155.433H21.4133V155.316C21.4133 117.071 21.4133 74.7079 21.4133 30.1779V30.051H21.5548H211.045H211.148V30.1535C211.05 106.521 211.011 154.515 211.011 155.34Z" fill="#263238"/>
<path d="M199.461 135H164.539C163.689 135 163 135.393 163 135.878V146.122C163 146.607 163.689 147 164.539 147H199.461C200.311 147 201 146.607 201 146.122V135.878C201 135.393 200.311 135 199.461 135Z" fill="#055EFF"/>
<path d="M44.2275 70.8429C46.8795 70.8429 49.0294 68.693 49.0294 66.0409C49.0294 63.3889 46.8795 61.239 44.2275 61.239C41.5754 61.239 39.4255 63.3889 39.4255 66.0409C39.4255 68.693 41.5754 70.8429 44.2275 70.8429Z" fill="#055EFF"/>
<path d="M142.125 66.3191C142.084 65.9283 142.019 65.5404 141.93 65.1576C141.652 64.1227 141.033 63.2116 140.173 62.5712C139.591 62.1282 138.912 61.8304 138.192 61.7026C137.366 61.5523 136.515 61.6264 135.728 61.9173C134.857 62.2343 134.101 62.8035 133.556 63.5521C132.967 64.3533 132.649 65.3219 132.649 66.3166C132.649 67.3113 132.967 68.2799 133.556 69.0811C133.827 69.4565 134.157 69.786 134.532 70.0571C134.892 70.3307 135.292 70.5479 135.718 70.7013C136.506 70.9884 137.357 71.0608 138.182 70.9111C138.902 70.7833 139.582 70.4855 140.164 70.0425C141.023 69.4021 141.642 68.491 141.92 67.4561C142.009 67.0748 142.074 66.6886 142.116 66.2995C142.147 66.6961 142.112 67.0952 142.013 67.4805C141.765 68.5573 141.151 69.5147 140.276 70.1889C139.673 70.6547 138.969 70.9738 138.221 71.121C137.357 71.2834 136.464 71.2143 135.635 70.9209C135.189 70.7626 134.769 70.5371 134.39 70.2523C133.989 69.9644 133.636 69.6134 133.346 69.2129C132.72 68.3708 132.381 67.3492 132.381 66.2995C132.381 65.2499 132.72 64.2282 133.346 63.3862C133.635 62.9831 133.987 62.6303 134.39 62.3419C134.769 62.0571 135.189 61.8316 135.635 61.6733C136.464 61.3799 137.357 61.3108 138.221 61.4732C138.969 61.6204 139.673 61.9395 140.276 62.4053C141.151 63.0795 141.765 64.0369 142.013 65.1137C142.117 65.5064 142.155 65.9138 142.125 66.3191Z" fill="#263238"/>
<path d="M188.651 65.7627C188.617 65.7627 188.651 65.3333 188.451 64.6013C188.17 63.5686 187.554 62.6587 186.699 62.0149C186.071 61.5425 185.335 61.2351 184.557 61.1208C183.78 61.0066 182.986 61.0892 182.249 61.361C181.824 61.5145 181.424 61.73 181.063 62.0003C180.689 62.2727 180.359 62.602 180.087 62.9763C179.497 63.7782 179.179 64.7477 179.179 65.7432C179.179 66.7387 179.497 67.7082 180.087 68.5102C180.632 69.2588 181.388 69.8279 182.258 70.145C182.996 70.4168 183.789 70.4994 184.567 70.3851C185.344 70.2709 186.081 69.9635 186.709 69.4911C187.564 68.8472 188.18 67.9373 188.461 66.9047C188.651 66.1727 188.627 65.7432 188.661 65.7432C188.689 66.1414 188.654 66.5415 188.558 66.9291C188.342 67.8358 187.869 68.661 187.195 69.3057C186.522 69.9505 185.677 70.3876 184.762 70.5647C183.899 70.7316 183.007 70.6625 182.18 70.3646C181.732 70.2091 181.311 69.9852 180.931 69.7009C180.528 69.4125 180.175 69.0597 179.887 68.6566C179.26 67.8145 178.922 66.7929 178.922 65.7432C178.922 64.6936 179.26 63.6719 179.887 62.8299C180.175 62.4268 180.528 62.074 180.931 61.7855C181.311 61.5012 181.732 61.2774 182.18 61.1219C183.007 60.8239 183.899 60.7548 184.762 60.9218C185.677 61.0989 186.522 61.5359 187.195 62.1807C187.869 62.8255 188.342 63.6506 188.558 64.5574C188.653 64.9517 188.684 65.3586 188.651 65.7627Z" fill="#263238"/>
<path d="M46.2282 64.7429C45.6709 65.5148 45.0454 66.2351 44.3591 66.895C44.1883 67.0804 44.0175 67.2561 43.8711 67.422L43.7833 67.5148L43.6954 67.4269C43.1579 66.9605 42.6675 66.4424 42.2314 65.88C42.8193 66.2793 43.364 66.7389 43.8565 67.2512H43.6857C43.8418 67.0804 44.0078 66.8999 44.1737 66.7193C44.7985 66.0009 45.486 65.3394 46.2282 64.7429Z" fill="white"/>
<path d="M84.7021 65.0651H49.937V67.0171H84.7021V65.0651Z" fill="#055EFF"/>
<path d="M90.6459 70.8429C93.2979 70.8429 95.4478 68.693 95.4478 66.0409C95.4478 63.3889 93.2979 61.239 90.6459 61.239C87.9939 61.239 85.844 63.3889 85.844 66.0409C85.844 68.693 87.9939 70.8429 90.6459 70.8429Z" fill="#055EFF"/>
<path d="M92.6464 64.7429C92.0873 65.5134 91.4619 66.2335 90.7773 66.895C90.6017 67.0804 90.4357 67.2561 90.2893 67.422L90.2064 67.5148L90.1185 67.4269C89.5779 66.9638 89.0872 66.4453 88.6545 65.88C89.2391 66.2817 89.7819 66.7411 90.2747 67.2512H90.1039L90.5919 66.7193C91.2161 66.0003 91.9037 65.3388 92.6464 64.7429Z" fill="white"/>
<path d="M131.116 65.0651H96.3506V67.0171H131.116V65.0651Z" fill="#055EFF"/>
<path d="M178.252 65.7629C178.252 65.8312 170.468 65.8897 160.869 65.8897C151.27 65.8897 143.472 65.8312 143.472 65.7629C143.472 65.6945 151.28 65.636 160.854 65.636C170.429 65.636 178.252 65.6945 178.252 65.7629Z" fill="#263238"/>
<path d="M211.011 50.5568C211.011 50.6251 168.584 50.6837 116.261 50.6837C63.9377 50.6837 21.5061 50.6251 21.5061 50.5568C21.5061 50.4885 63.9231 50.4299 116.261 50.4299C168.599 50.4299 211.011 50.4836 211.011 50.5568Z" fill="#E0E0E0"/>
<path d="M186.797 93.2421C186.797 93.3104 154.432 93.369 114.519 93.369C74.6054 93.369 42.2266 93.3104 42.2266 93.2421C42.2266 93.1738 74.5858 93.1152 114.519 93.1152C154.452 93.1152 186.797 93.1738 186.797 93.2421Z" fill="#263238"/>
<path d="M106.682 98.9468C106.626 98.9529 106.571 98.9529 106.516 98.9468H106.028L104.149 98.9712L97.2437 99.0103L74.459 99.0444L51.6694 99.0103L44.7593 98.9712L42.8854 98.9468H42.3974C42.3406 98.9531 42.2833 98.9531 42.2266 98.9468H42.3974H42.8854L44.7593 98.9224L51.6694 98.8834L74.459 98.8444L97.2437 98.8834L104.149 98.9224L106.028 98.9468H106.516H106.682Z" fill="#263238"/>
<path d="M172.034 107.248C172.034 107.316 145.604 107.374 112.986 107.374C80.3683 107.374 53.9382 107.316 53.9382 107.248C53.9382 107.179 80.3634 107.121 112.986 107.121C145.609 107.121 172.034 107.179 172.034 107.248Z" fill="#263238"/>
<path d="M46.5649 109.132C46.0541 109.132 45.5548 108.98 45.1302 108.696C44.7056 108.412 44.3747 108.009 44.1794 107.537C43.9842 107.065 43.9334 106.545 44.0334 106.045C44.1334 105.544 44.3797 105.084 44.7412 104.723C45.1028 104.362 45.5632 104.117 46.0643 104.018C46.5654 103.918 47.0846 103.97 47.5562 104.166C48.0278 104.363 48.4307 104.694 48.7137 105.119C48.9968 105.545 49.1474 106.044 49.1464 106.555C49.1439 107.238 48.8709 107.893 48.3872 108.376C47.9035 108.859 47.2483 109.13 46.5649 109.132ZM46.5649 104.461C46.1509 104.461 45.7461 104.584 45.4018 104.814C45.0575 105.044 44.7892 105.371 44.6308 105.754C44.4723 106.136 44.4308 106.557 44.5116 106.963C44.5924 107.369 44.7918 107.742 45.0846 108.035C45.3774 108.328 45.7504 108.527 46.1565 108.608C46.5626 108.689 46.9835 108.648 47.3661 108.489C47.7486 108.331 48.0756 108.062 48.3056 107.718C48.5357 107.374 48.6584 106.969 48.6584 106.555C48.6571 106 48.4362 105.468 48.0438 105.076C47.6515 104.684 47.1198 104.463 46.5649 104.461Z" fill="#E0E0E0"/>
<path d="M148.088 113.572C148.088 113.572 148.01 113.572 147.849 113.572H147.137L144.394 113.596L134.307 113.636L101.016 113.704L67.7342 113.665L57.6473 113.626L54.9096 113.601H54.1922H53.9531H54.1922H54.9096L57.6473 113.577L67.7342 113.538L101.016 113.499L134.288 113.538L144.375 113.577L147.117 113.601H147.83C148.01 113.562 148.088 113.572 148.088 113.572Z" fill="#263238"/>
<path d="M46.5649 116.144C46.0543 116.144 45.5552 115.993 45.1307 115.709C44.7062 115.425 44.3753 115.022 44.1799 114.55C43.9845 114.079 43.9334 113.56 44.033 113.059C44.1326 112.558 44.3785 112.098 44.7395 111.737C45.1005 111.376 45.5605 111.13 46.0613 111.031C46.5621 110.931 47.0811 110.982 47.5528 111.177C48.0245 111.373 48.4277 111.704 48.7114 112.128C48.995 112.553 49.1464 113.052 49.1464 113.562C49.1451 114.247 48.8728 114.903 48.3889 115.386C47.9051 115.87 47.2492 116.143 46.5649 116.144ZM46.5649 111.469C46.1509 111.469 45.7461 111.592 45.4018 111.822C45.0575 112.052 44.7892 112.379 44.6308 112.761C44.4723 113.144 44.4308 113.565 44.5116 113.971C44.5924 114.377 44.7918 114.75 45.0846 115.043C45.3774 115.336 45.7504 115.535 46.1565 115.616C46.5626 115.697 46.9835 115.655 47.3661 115.497C47.7486 115.338 48.0756 115.07 48.3056 114.726C48.5357 114.381 48.6584 113.977 48.6584 113.562C48.6546 113.009 48.4325 112.48 48.0404 112.09C47.6484 111.7 47.1181 111.48 46.5649 111.479V111.469Z" fill="#E0E0E0"/>
<path d="M46.5648 114.709C47.1927 114.709 47.7018 114.2 47.7018 113.572C47.7018 112.944 47.1927 112.435 46.5648 112.435C45.9368 112.435 45.4277 112.944 45.4277 113.572C45.4277 114.2 45.9368 114.709 46.5648 114.709Z" fill="#055EFF"/>
<path d="M172.034 121.287C172.034 121.356 145.604 121.414 112.986 121.414C80.3683 121.414 53.9382 121.356 53.9382 121.287C53.9382 121.219 80.3634 121.16 112.986 121.16C145.609 121.16 172.034 121.214 172.034 121.287Z" fill="#263238"/>
<path d="M46.5649 123.171C46.0543 123.171 45.5552 123.02 45.1307 122.736C44.7062 122.452 44.3753 122.049 44.1799 121.578C43.9845 121.106 43.9334 120.587 44.033 120.086C44.1326 119.585 44.3785 119.125 44.7395 118.764C45.1005 118.403 45.5605 118.157 46.0613 118.058C46.5621 117.958 47.0811 118.009 47.5528 118.205C48.0245 118.4 48.4277 118.731 48.7114 119.155C48.995 119.58 49.1464 120.079 49.1464 120.59C49.1451 121.274 48.8728 121.93 48.3889 122.414C47.9051 122.898 47.2492 123.17 46.5649 123.171ZM46.5649 118.501C46.1507 118.501 45.7457 118.624 45.4013 118.854C45.0569 119.084 44.7886 119.412 44.6303 119.795C44.472 120.177 44.4308 120.599 44.512 121.005C44.5932 121.411 44.793 121.784 45.0863 122.077C45.3796 122.369 45.7531 122.568 46.1595 122.648C46.5659 122.729 46.987 122.687 47.3695 122.527C47.7519 122.368 48.0785 122.099 48.308 121.754C48.5374 121.409 48.6594 121.004 48.6584 120.59C48.6571 120.035 48.436 119.504 48.0435 119.113C47.6511 118.721 47.1193 118.501 46.5649 118.501Z" fill="#E0E0E0"/>
<path d="M89.4895 122.244C88.6562 122.565 87.935 123.123 87.4148 123.849C86.8945 124.574 86.5979 125.436 86.5615 126.329C86.5273 127.456 86.5615 128.769 85.688 129.476C84.8144 130.184 83.6188 129.832 82.6233 130.203C81.3545 130.691 80.725 132.092 80.4468 133.414C80.1687 134.737 80.0857 136.152 79.344 137.284C78.6022 138.416 77.431 139.021 76.3428 139.724C75.2545 140.427 74.176 141.408 73.976 142.696C73.688 144.541 75.3131 146.424 74.6445 148.171C74.2151 149.294 73.0048 149.87 72.0972 150.655C71.5058 151.167 71.0236 151.792 70.6791 152.494C70.3346 153.196 70.135 153.96 70.0922 154.74C70.0494 155.521 70.1643 156.302 70.4299 157.037C70.6956 157.773 71.1066 158.447 71.6384 159.02C72.0438 159.499 72.5575 159.876 73.1371 160.117C73.7166 160.359 74.3454 160.46 74.9715 160.41C76.1817 160.24 77.1431 159.356 78.0508 158.546C81.3837 155.582 85.1037 153.083 89.1088 151.119C90.1434 150.631 91.2756 150.07 91.8124 149.045C92.0505 148.51 92.2004 147.94 92.2564 147.356C93.3756 139.672 94.4964 131.988 95.6188 124.303" fill="#263238"/>
<path d="M100.899 114.939C100.445 113.245 101.436 111.406 102.904 110.444C104.373 109.483 106.198 109.258 107.95 109.307C109.702 109.356 111.752 109.795 112.747 111.313C113.367 112.255 113.474 113.46 114.031 114.446C115.597 117.227 119.95 117.276 121.648 119.98C123.264 122.547 121.614 125.909 122 128.915C122.258 130.93 123.425 132.692 124.337 134.512C125.25 136.333 125.923 138.485 125.152 140.368C124.323 142.379 121.99 143.682 121.736 145.844C121.448 148.523 124.625 150.977 123.649 153.491C122.927 155.355 120.233 156.062 119.926 158.039C119.77 159.098 120.414 160.093 120.682 161.123C121.404 163.739 119.706 166.613 117.266 167.823C114.826 169.033 111.898 168.843 109.336 167.96C107.287 167.25 105.401 166.136 103.79 164.683C102.179 163.231 100.876 161.471 99.9576 159.506C99.0393 157.541 98.5246 155.412 98.4441 153.244C98.3635 151.077 98.7186 148.916 99.4884 146.888" fill="#263238"/>
<path d="M73.4342 141.003C73.3447 140.853 73.212 140.734 73.0536 140.661C72.8607 140.58 72.6469 140.563 72.4436 140.612C72.3058 140.64 72.1777 140.704 72.0717 140.796C71.9656 140.888 71.8853 141.007 71.8385 141.139C71.7879 141.308 71.7762 141.486 71.804 141.66C71.8319 141.834 71.8987 142 71.9995 142.145C72.1221 142.315 72.2856 142.451 72.475 142.542C72.6643 142.632 72.8734 142.674 73.0829 142.662C73.3253 142.655 73.5639 142.6 73.785 142.5C74.0061 142.4 74.2053 142.258 74.3712 142.081C74.7443 141.672 75.0123 141.178 75.152 140.642C75.4936 139.514 75.396 138.202 75.518 136.801C75.5763 136.067 75.7716 135.35 76.0938 134.688C76.2709 134.338 76.507 134.021 76.7917 133.751C77.091 133.48 77.4409 133.271 77.8213 133.136C78.6052 132.923 79.4075 132.786 80.2174 132.726C80.6212 132.713 81.0184 132.62 81.386 132.452C81.7537 132.285 82.0846 132.046 82.3597 131.75C82.8819 131.111 82.9258 130.208 82.8477 129.349C82.7264 128.458 82.6677 127.56 82.6721 126.66C82.7448 125.742 83.0541 124.857 83.57 124.093C84.0583 123.334 84.7815 122.755 85.6293 122.444C86.4592 122.227 87.3251 122.186 88.1718 122.322C88.9721 122.381 89.8164 122.415 90.4117 121.946C91.0071 121.478 91.1681 120.697 91.2072 119.994C91.2066 119.265 91.2785 118.538 91.4219 117.823C91.7661 116.538 92.5371 115.409 93.6081 114.621C94.4901 113.975 95.5503 113.617 96.6435 113.597C97.4611 113.576 98.2735 113.732 99.0249 114.055C99.5015 114.25 99.9445 114.518 100.338 114.851C100.476 114.962 100.605 115.084 100.723 115.217C100.723 115.217 100.582 115.1 100.304 114.89C99.9015 114.58 99.458 114.329 98.9859 114.143C98.2431 113.848 97.4472 113.71 96.6484 113.738C95.5902 113.774 94.5684 114.134 93.7204 114.768C92.6922 115.537 91.9558 116.633 91.6317 117.876C91.4975 118.579 91.4321 119.293 91.4365 120.009C91.4224 120.396 91.3585 120.78 91.2462 121.151C91.118 121.537 90.8787 121.876 90.5581 122.127C90.2208 122.381 89.8178 122.533 89.3967 122.566C88.9843 122.603 88.5695 122.603 88.1572 122.566C87.345 122.431 86.5136 122.47 85.7172 122.678C84.9137 122.969 84.2279 123.516 83.7652 124.235C83.2747 124.961 82.9805 125.802 82.9112 126.675C82.9099 127.564 82.9669 128.453 83.082 129.335C83.1243 129.78 83.1128 130.229 83.0478 130.672C82.9844 131.122 82.8044 131.547 82.5257 131.906C82.2458 132.254 81.8788 132.522 81.4618 132.682C81.0615 132.828 80.6455 132.926 80.2223 132.975C79.4274 133.028 78.6397 133.159 77.8701 133.365C77.5103 133.485 77.1783 133.676 76.8941 133.927C76.629 134.176 76.4094 134.47 76.2451 134.795C75.933 135.433 75.7411 136.123 75.679 136.83C75.5473 138.202 75.6351 139.534 75.274 140.7C75.1236 141.262 74.835 141.777 74.4346 142.198C74.2532 142.388 74.0359 142.539 73.7955 142.644C73.5551 142.748 73.2963 142.804 73.0341 142.808C72.803 142.816 72.5736 142.766 72.3666 142.663C72.1596 142.56 71.9815 142.407 71.8482 142.218C71.7401 142.057 71.6702 141.873 71.644 141.681C71.6178 141.489 71.6359 141.294 71.6969 141.11C71.7512 140.965 71.8423 140.836 71.9612 140.737C72.0801 140.638 72.2228 140.571 72.3753 140.544C72.5954 140.496 72.8251 140.522 73.0292 140.617C73.1218 140.646 73.2066 140.696 73.2769 140.762C73.3471 140.829 73.401 140.912 73.4342 141.003Z" fill="#263238"/>
<path d="M126.763 147.049C126.784 147.09 126.804 147.133 126.821 147.176C126.869 147.302 126.892 147.436 126.889 147.571C126.868 147.834 126.783 148.088 126.641 148.31C126.499 148.532 126.304 148.716 126.074 148.845C125.748 149.052 125.358 149.132 124.976 149.069C124.527 148.976 124.124 148.727 123.839 148.367C123.509 147.96 123.302 147.467 123.244 146.947C123.192 146.364 123.29 145.778 123.527 145.244C123.986 144.102 124.937 143.145 125.821 142.081C126.284 141.539 126.658 140.926 126.928 140.266C127.199 139.561 127.328 138.81 127.309 138.055C127.291 137.262 127.114 136.48 126.787 135.757C126.434 135.015 125.937 134.351 125.323 133.805C124.703 133.224 124.005 132.692 123.371 132.038C122.694 131.388 122.257 130.528 122.131 129.598C122.092 128.683 122.233 127.77 122.546 126.909C122.831 126.092 123.026 125.246 123.127 124.386C123.225 123.582 123.161 122.767 122.938 121.988C122.715 121.209 122.338 120.483 121.829 119.853C121.342 119.278 120.727 118.825 120.033 118.53C119.37 118.274 118.659 118.166 117.949 118.213C117.259 118.271 116.564 118.184 115.909 117.959C115.317 117.682 114.85 117.193 114.602 116.588C114.114 115.466 114.114 114.348 113.894 113.445C113.808 113.019 113.658 112.608 113.45 112.225C113.273 111.909 113.026 111.637 112.728 111.43C112.321 111.126 111.811 110.993 111.308 111.059C111.139 111.101 110.975 111.162 110.82 111.24C110.96 111.123 111.128 111.044 111.308 111.01C111.821 110.926 112.347 111.047 112.772 111.347C113.086 111.56 113.35 111.84 113.543 112.167C113.768 112.554 113.932 112.974 114.031 113.411C114.265 114.334 114.265 115.446 114.763 116.515C114.999 117.074 115.436 117.525 115.987 117.779C116.616 117.987 117.28 118.063 117.939 118.003C118.703 117.937 119.471 118.056 120.178 118.351C120.885 118.646 121.51 119.108 122 119.697C122.532 120.35 122.928 121.105 123.163 121.915C123.398 122.725 123.467 123.574 123.366 124.411C123.269 125.285 123.074 126.146 122.785 126.978C122.482 127.808 122.345 128.69 122.38 129.574C122.502 130.443 122.913 131.246 123.547 131.853C124.152 132.482 124.84 133.019 125.474 133.61C126.116 134.182 126.634 134.879 126.997 135.659C127.336 136.412 127.519 137.225 127.534 138.05C127.55 138.834 127.412 139.613 127.129 140.344C126.846 141.025 126.455 141.656 125.972 142.213C125.069 143.287 124.132 144.219 123.683 145.312C123.453 145.818 123.354 146.373 123.395 146.927C123.445 147.418 123.633 147.885 123.937 148.274C124.197 148.616 124.568 148.856 124.986 148.952C125.342 149.017 125.709 148.947 126.016 148.757C126.236 148.639 126.424 148.469 126.565 148.263C126.706 148.056 126.796 147.819 126.826 147.571C126.828 147.395 126.807 147.22 126.763 147.049Z" fill="#263238"/>
<path d="M88.7671 122.834C87.8399 123.093 87.3373 124.142 87.3373 125.104C87.42 126.061 87.6301 127.003 87.9619 127.905C88.2157 128.832 88.3377 129.857 87.8789 130.711C86.9517 132.399 84.3507 132.311 83.0965 133.775C81.5008 135.635 82.9892 138.709 81.8375 140.871C80.7883 142.823 77.8554 143.457 77.2747 145.614C76.9038 146.986 77.6846 148.479 77.2747 149.845C76.8404 151.397 75.1177 152.183 74.2101 153.515C73.7878 154.21 73.5417 154.999 73.4933 155.811C73.4448 156.623 73.5954 157.435 73.9319 158.175C74.5458 159.491 75.4662 160.641 76.6159 161.528C76.7525 161.645 76.8941 161.757 77.0356 161.87L93.8423 157.966L97.2095 126.88L88.7671 122.834Z" fill="#263238"/>
<path d="M97.9855 117.081C97.3775 117.013 96.7662 117.176 96.2727 117.537C95.7793 117.899 95.4396 118.433 95.321 119.033L89.792 151.695C89.0307 155.53 94.1498 158.878 98.2588 159.664C102.412 160.459 102.978 158.463 103.812 154.842C105.208 148.786 105.691 146.507 105.686 146.546C105.681 146.585 111.093 146.795 113.626 140.202C114.89 136.928 115.9 131.335 116.583 126.738C117.198 122.595 115.558 116.978 111.396 116.568L97.9855 117.081Z" fill="#B78876"/>
<path d="M114.119 130.833C114.073 131.061 113.939 131.262 113.746 131.392C113.554 131.523 113.318 131.572 113.089 131.531C112.976 131.516 112.867 131.48 112.769 131.422C112.67 131.365 112.585 131.289 112.516 131.198C112.448 131.107 112.399 131.003 112.371 130.892C112.344 130.782 112.339 130.667 112.357 130.555C112.404 130.327 112.538 130.127 112.73 129.995C112.922 129.864 113.157 129.813 113.387 129.852C113.5 129.867 113.609 129.904 113.707 129.962C113.806 130.02 113.891 130.096 113.96 130.188C114.028 130.279 114.077 130.383 114.104 130.494C114.132 130.605 114.137 130.72 114.119 130.833Z" fill="#263238"/>
<path d="M114.748 129.949C114.617 130.042 114.06 129.413 113.118 129.213C112.177 129.012 111.391 129.339 111.313 129.213C111.274 129.149 111.425 128.969 111.772 128.812C112.234 128.619 112.746 128.573 113.236 128.681C113.726 128.783 114.17 129.039 114.504 129.413C114.758 129.686 114.812 129.91 114.748 129.949Z" fill="#263238"/>
<path d="M104.754 128.832C104.708 129.06 104.575 129.262 104.382 129.393C104.19 129.524 103.954 129.575 103.725 129.535C103.612 129.519 103.504 129.482 103.406 129.424C103.309 129.366 103.223 129.29 103.155 129.199C103.087 129.109 103.038 129.005 103.01 128.895C102.982 128.785 102.976 128.671 102.993 128.559C103.04 128.331 103.174 128.131 103.366 128C103.558 127.869 103.793 127.817 104.022 127.856C104.135 127.871 104.243 127.908 104.341 127.966C104.44 128.023 104.525 128.099 104.593 128.19C104.661 128.281 104.711 128.385 104.738 128.495C104.766 128.605 104.771 128.72 104.754 128.832Z" fill="#263238"/>
<path d="M105.472 127.856C105.34 127.944 104.783 127.314 103.842 127.114C102.9 126.914 102.109 127.241 102.036 127.114C101.997 127.051 102.148 126.87 102.495 126.714C102.958 126.524 103.469 126.478 103.959 126.582C104.448 126.687 104.892 126.943 105.228 127.314C105.481 127.583 105.535 127.807 105.472 127.856Z" fill="#263238"/>
<path d="M107.394 135.283C107.923 135.232 108.456 135.248 108.98 135.332C109.229 135.356 109.468 135.361 109.541 135.205C109.617 134.962 109.617 134.702 109.541 134.458L109.219 132.477C108.79 129.666 108.531 127.373 108.648 127.358C108.765 127.343 109.2 129.608 109.624 132.424C109.722 133.112 109.819 133.775 109.912 134.405C110.002 134.729 109.974 135.075 109.834 135.381C109.779 135.461 109.707 135.526 109.622 135.573C109.537 135.62 109.443 135.646 109.346 135.649C109.205 135.658 109.064 135.648 108.926 135.62C108.404 135.572 107.889 135.458 107.394 135.283Z" fill="#263238"/>
<path d="M105.672 146.542C102.453 145.904 99.4762 144.383 97.073 142.15C97.073 142.15 98.3467 147.449 105.301 148.264L105.672 146.542Z" fill="#AA6550"/>
<path d="M106.516 137.465C106.388 137.197 106.193 136.967 105.95 136.796C105.708 136.625 105.425 136.519 105.13 136.489C104.919 136.464 104.705 136.481 104.502 136.541C104.298 136.601 104.108 136.701 103.944 136.835C103.781 136.962 103.663 137.137 103.606 137.335C103.549 137.533 103.556 137.744 103.627 137.938C103.741 138.14 103.913 138.303 104.121 138.406C104.329 138.508 104.563 138.546 104.793 138.514C105.271 138.453 105.733 138.297 106.15 138.055C106.271 137.999 106.381 137.924 106.477 137.831C106.523 137.787 106.554 137.731 106.567 137.669C106.58 137.607 106.574 137.543 106.55 137.484" fill="#AA6550"/>
<path d="M104.491 135.342C104.647 135.366 104.432 136.386 105.149 137.294C105.867 138.202 106.979 138.324 106.955 138.465C106.955 138.533 106.672 138.611 106.208 138.528C105.61 138.408 105.073 138.082 104.691 137.606C104.324 137.148 104.149 136.566 104.203 135.981C104.256 135.552 104.432 135.322 104.491 135.342Z" fill="#263238"/>
<path d="M106.247 126.026C106.096 126.265 105.184 125.943 104.056 125.84C102.929 125.738 101.968 125.84 101.87 125.587C101.826 125.465 102.036 125.255 102.446 125.099C102.991 124.899 103.574 124.826 104.151 124.884C104.728 124.942 105.285 125.131 105.779 125.435C106.15 125.67 106.311 125.904 106.247 126.026Z" fill="#263238"/>
<path d="M114.983 128.256C114.773 128.437 114.173 128.076 113.397 127.9C112.621 127.724 111.933 127.734 111.825 127.48C111.782 127.358 111.928 127.168 112.26 127.026C112.699 126.867 113.175 126.841 113.628 126.953C114.082 127.064 114.492 127.307 114.807 127.651C115.037 127.929 115.08 128.168 114.983 128.256Z" fill="#263238"/>
<path d="M102.929 115.827C102.272 115.115 101.47 114.552 100.577 114.177C99.6834 113.803 98.7199 113.625 97.7516 113.655C95.824 113.787 93.9647 115.095 93.506 116.935C93.2083 118.13 93.4474 119.516 92.6813 120.487C91.9151 121.458 90.6073 121.561 89.563 122.117C88.7516 122.566 88.1138 123.274 87.7512 124.127C87.3886 124.98 87.322 125.931 87.5622 126.826C88.0111 128.349 89.358 129.686 89.1579 131.257C88.9676 132.721 87.4841 133.697 86.879 135.054C86.2104 136.557 86.7326 138.368 87.7525 139.68C88.7724 140.993 90.2266 141.906 91.6565 142.794C92.7642 143.487 93.9598 144.204 95.2677 144.189C96.0406 144.152 96.785 143.886 97.4062 143.424C98.0275 142.963 98.4976 142.327 98.7569 141.598C98.9913 140.867 99.0651 140.094 98.9733 139.332C98.8815 138.57 98.6262 137.836 98.225 137.182C97.5564 136.035 96.5072 134.952 96.5706 133.634C96.6731 131.584 99.3815 130.467 99.6646 128.432C99.8158 127.388 99.2693 126.377 98.8496 125.396C98.4299 124.416 98.1274 123.235 98.7081 122.346C99.4596 121.195 101.187 121.224 102.383 120.516C102.881 120.217 103.286 119.784 103.551 119.267C103.817 118.749 103.933 118.168 103.886 117.588C103.821 117.008 103.6 116.456 103.246 115.992C102.892 115.528 102.418 115.169 101.875 114.953" fill="#263238"/>
<path d="M102.529 114.133C102.378 114.817 102.379 115.526 102.534 116.209C102.688 116.892 102.991 117.533 103.421 118.086C103.851 118.638 104.398 119.089 105.022 119.407C105.646 119.724 106.333 119.9 107.033 119.921C108.111 119.955 109.366 119.672 110.146 120.409C110.927 121.146 110.698 122.63 111.381 123.542C112.357 124.84 114.475 124.274 115.905 125.055C117.003 125.66 117.496 126.939 118.076 128.056C118.657 129.174 119.628 130.32 120.882 130.228C121.076 129.159 121.147 128.072 121.092 126.987C121.03 125.898 120.594 124.864 119.858 124.059C119.443 123.635 118.916 123.323 118.545 122.859C117.735 121.883 117.808 120.419 117.442 119.209C117.198 118.415 116.768 117.692 116.189 117.098C115.609 116.503 114.896 116.056 114.109 115.793C112.801 115.363 111.332 115.471 110.098 114.861C109.185 114.407 108.477 113.597 107.54 113.201C105.715 112.43 103.636 113.416 101.977 114.48" fill="#263238"/>
<path d="M77.6163 153.427C77.4338 153.397 77.2565 153.341 77.0893 153.261C76.6086 153.032 76.1952 152.682 75.8888 152.246C75.3862 151.558 75.1536 150.709 75.2349 149.86C75.3519 148.739 75.8722 147.698 76.6989 146.932C77.1527 146.507 77.6749 146.156 78.2166 145.751C78.7743 145.37 79.1991 144.824 79.4317 144.189C79.5565 143.471 79.5565 142.736 79.4317 142.018C79.3835 141.209 79.552 140.402 79.9197 139.68C80.305 138.921 80.8778 138.273 81.5838 137.797C82.3225 137.301 83.1881 137.029 84.0774 137.011C84.9656 136.967 85.8586 137.06 86.7419 136.943C87.1774 136.89 87.5976 136.749 87.9766 136.528C88.3536 136.288 88.6587 135.951 88.8598 135.552C89.2145 134.714 89.47 133.838 89.6211 132.941C89.7221 132.493 89.8778 132.058 90.0847 131.648C90.3006 131.236 90.6097 130.88 90.9875 130.608C91.7475 130.163 92.5885 129.872 93.4617 129.754C94.2654 129.642 95.0358 129.359 95.7211 128.925C96.0324 128.708 96.2801 128.411 96.4385 128.066C96.5859 127.725 96.6511 127.354 96.6288 126.983C96.5463 126.253 96.3692 125.538 96.1018 124.855C95.8531 124.193 95.7418 123.487 95.7748 122.781C95.8018 122.436 95.9069 122.103 96.0822 121.805C96.2586 121.527 96.4976 121.295 96.7801 121.127C97.3071 120.855 97.8825 120.689 98.4734 120.639C98.9858 120.583 99.4942 120.497 99.996 120.38C100.79 120.163 101.492 119.692 101.992 119.038C102.312 118.629 102.549 118.162 102.69 117.662C102.782 117.315 102.792 117.125 102.807 117.125C102.806 117.309 102.783 117.493 102.739 117.672C102.619 118.19 102.392 118.677 102.07 119.101C101.566 119.785 100.851 120.282 100.035 120.517C99.5291 120.643 99.0156 120.737 98.4978 120.8C97.9297 120.856 97.3778 121.021 96.8728 121.288C96.6112 121.446 96.3921 121.665 96.2348 121.927C96.0774 122.189 95.9865 122.486 95.97 122.791C95.9465 123.471 96.0593 124.15 96.3018 124.787C96.5818 125.484 96.7656 126.216 96.8484 126.963C96.8764 127.37 96.8078 127.778 96.6483 128.154C96.4769 128.544 96.2039 128.881 95.8578 129.13C95.1466 129.586 94.3464 129.885 93.5105 130.008C92.67 130.12 91.8604 130.399 91.129 130.828C90.4528 131.378 90.0029 132.158 89.8651 133.019C89.7121 133.937 89.45 134.833 89.0843 135.689C88.8607 136.123 88.5234 136.489 88.1083 136.747C87.6987 136.989 87.2433 137.141 86.7712 137.196C85.844 137.318 84.9461 137.221 84.0823 137.265C83.2553 137.287 82.4501 137.534 81.7529 137.98C81.0557 138.425 80.4928 139.052 80.1246 139.793C79.7663 140.474 79.5978 141.239 79.6366 142.008C79.766 142.752 79.766 143.513 79.6366 144.258C79.3845 144.931 78.9291 145.509 78.3337 145.912C77.8018 146.322 77.265 146.664 76.8209 147.069C76.0109 147.797 75.4911 148.794 75.3569 149.875C75.2679 150.693 75.4776 151.516 75.9474 152.193C76.2392 152.631 76.6371 152.989 77.1039 153.232C77.4309 153.374 77.6212 153.413 77.6163 153.427Z" fill="#455A64"/>
<path d="M118.096 163.768C118.247 163.622 118.389 163.468 118.521 163.304C118.872 162.81 119.067 162.222 119.082 161.616C119.115 160.659 118.891 159.71 118.433 158.868C117.945 157.858 117.184 156.814 116.676 155.452C116.158 153.957 116.158 152.331 116.676 150.836C116.958 150.005 117.395 149.235 117.965 148.567C118.555 147.884 119.272 147.313 119.843 146.586C120.414 145.858 120.819 144.926 120.536 144.019C120.253 143.111 119.433 142.472 118.711 141.759C118.324 141.402 117.995 140.987 117.735 140.529C117.485 140.051 117.334 139.526 117.291 138.987C117.224 137.899 117.406 136.809 117.823 135.801C118.218 134.776 118.74 133.849 119.175 132.873C119.633 131.955 119.929 130.964 120.048 129.945C120.115 128.982 119.96 128.017 119.596 127.124C119.231 126.23 118.666 125.432 117.945 124.791C117.217 124.252 116.452 123.763 115.656 123.327C115.267 123.087 114.934 122.766 114.68 122.386C114.464 122.005 114.325 121.585 114.27 121.151C114.222 120.757 114.094 120.377 113.895 120.033C113.687 119.715 113.401 119.455 113.065 119.277C112.402 118.963 111.702 118.735 110.981 118.599C110.304 118.47 109.648 118.25 109.029 117.945C108.492 117.658 107.998 117.295 107.565 116.866C106.863 116.18 106.321 115.347 105.979 114.426C105.762 113.854 105.635 113.252 105.604 112.64C105.588 112.427 105.588 112.214 105.604 112.001C105.61 112.819 105.764 113.629 106.057 114.392C106.41 115.283 106.953 116.086 107.648 116.744C108.074 117.159 108.559 117.508 109.088 117.779C109.689 118.071 110.325 118.282 110.981 118.408C111.721 118.538 112.44 118.766 113.119 119.087C113.487 119.275 113.8 119.556 114.026 119.902C114.241 120.268 114.382 120.672 114.441 121.092C114.491 121.5 114.622 121.893 114.827 122.249C115.061 122.602 115.369 122.9 115.73 123.123C116.536 123.555 117.311 124.044 118.048 124.587C118.803 125.251 119.394 126.082 119.775 127.013C120.156 127.944 120.316 128.951 120.244 129.954C120.127 131.003 119.827 132.022 119.355 132.965C118.916 133.941 118.379 134.864 118.013 135.859C117.611 136.832 117.433 137.883 117.491 138.934C117.53 139.445 117.673 139.943 117.911 140.398C118.158 140.835 118.473 141.23 118.843 141.569C119.204 141.92 119.59 142.257 119.931 142.633C120.293 143.001 120.567 143.446 120.732 143.936C120.869 144.43 120.853 144.954 120.688 145.439C120.531 145.903 120.293 146.336 119.985 146.717C119.394 147.469 118.667 148.04 118.096 148.699C117.541 149.342 117.113 150.086 116.837 150.89C116.333 152.342 116.333 153.922 116.837 155.374C117.325 156.692 118.077 157.751 118.555 158.79C119.011 159.658 119.223 160.633 119.17 161.611C119.145 162.231 118.928 162.827 118.55 163.319C118.426 163.494 118.272 163.646 118.096 163.768Z" fill="#455A64"/>
<path d="M112.591 157.97C115.346 160.859 116.856 164.715 116.793 168.706C116.666 175.382 117.745 187.49 117.745 187.49L136.215 198.782L131.004 206.766L110.654 197.738L106.384 188.998L112.591 157.97Z" fill="#055EFF"/>
<path d="M118.238 203.715C118.238 203.715 118.926 202.393 116.988 201.383H113.85L107.726 190.808L112.606 157.97L104.251 151.626L85.7612 149.982L79.2952 183.215L87.557 198.318L103.944 205.048L118.238 203.715Z" fill="#055EFF"/>
<path d="M89.0259 150.221L89.3967 147.088C89.4104 146.945 89.4555 146.807 89.5287 146.683C89.6019 146.56 89.7015 146.454 89.8204 146.373C89.9392 146.293 90.0744 146.239 90.2163 146.217C90.3582 146.194 90.5032 146.204 90.6412 146.244C95.2235 149.835 99.9131 151.656 104.91 150.221C105.236 150.311 105.513 150.525 105.683 150.817C105.854 151.108 105.904 151.455 105.823 151.783L103.871 159.63L98.8103 161.147L92.1295 159.839L89.0063 154.071L89.0259 150.221Z" fill="#055EFF"/>
<path d="M105.042 152.383C104.855 152.529 104.65 152.65 104.432 152.744C103.871 153.036 103.284 153.278 102.68 153.466C100.676 154.105 98.5375 154.197 96.4856 153.734C94.4337 153.271 92.5425 152.269 91.0071 150.831C90.5444 150.402 90.1199 149.933 89.7383 149.43C89.59 149.252 89.4624 149.057 89.3577 148.85C89.9132 149.499 90.5046 150.116 91.1291 150.699C92.6681 152.073 94.5318 153.032 96.5444 153.485C98.5569 153.939 100.652 153.872 102.631 153.29C103.452 153.035 104.257 152.732 105.042 152.383Z" fill="#263238"/>
<g opacity="0.2">
<path opacity="0.2" d="M89.9191 149.46C89.8009 149.762 89.76 150.089 89.8001 150.411C89.8401 150.733 89.9598 151.04 90.1484 151.304C90.5361 151.822 91.0099 152.269 91.549 152.627C93.3448 153.964 95.209 155.286 97.3562 155.901C99.5034 156.516 102.021 156.282 103.671 154.774C104.159 154.34 104.515 153.52 104.022 153.105C103.651 152.793 103.09 152.983 102.641 153.159C100.43 154.004 97.9992 154.084 95.7377 153.384C93.4762 152.684 91.515 151.245 90.1679 149.299" fill="black"/>
</g>
<path d="M87.352 185.01L117.608 201.212L106.706 207.8L85.888 201.7C74.8641 198.772 71.8532 194.204 71.9605 189.5C72.0044 187.777 71.7995 170.956 72.5412 162.733C73.5514 151.509 85.7563 149.996 85.7563 149.996L85.5513 159.576L85.6879 171.288L86.1027 182.024C87.2056 181.472 87.4789 183.542 87.4789 183.542L87.352 185.01Z" fill="#055EFF"/>
<path d="M85.8881 183.332C85.8198 183.332 85.7222 179.267 85.6782 174.255C85.6343 169.243 85.6538 165.173 85.7222 165.168C85.7905 165.164 85.8881 169.234 85.932 174.25C85.9759 179.267 85.9662 183.332 85.8881 183.332Z" fill="#263238"/>
<path d="M87.2594 185.562C87.2252 185.562 87.3228 185.362 87.3668 185.074C87.4304 184.678 87.3582 184.272 87.1618 183.922C86.9543 183.579 86.6357 183.318 86.259 183.18C85.9711 183.068 85.771 183.063 85.771 183.019C85.771 182.976 85.976 182.932 86.3176 183.019C86.5397 183.072 86.7489 183.169 86.9324 183.305C87.1159 183.441 87.2698 183.612 87.3848 183.81C87.4998 184.007 87.5736 184.225 87.6015 184.452C87.6294 184.679 87.611 184.908 87.5473 185.128C87.44 185.44 87.2838 185.581 87.2594 185.562Z" fill="#263238"/>
<path d="M87.2593 185.562C87.2593 185.562 87.2593 185.562 87.313 185.611L87.4887 185.723C87.6497 185.821 87.8888 185.952 88.2012 186.123C88.8209 186.46 89.7286 186.938 90.851 187.519L99.635 192.033L108.448 196.537L111.108 197.923L111.825 198.309C111.913 198.348 111.995 198.399 112.069 198.46C111.978 198.434 111.889 198.398 111.806 198.352L111.064 198.011L108.365 196.698C106.116 195.581 102.968 194.019 99.552 192.272C96.136 190.525 93.008 188.9 90.768 187.69C88.5281 186.479 87.1812 185.66 87.2593 185.562Z" fill="#263238"/>
<path d="M107.033 191.135C106.553 191.067 106.081 190.953 105.623 190.793C104.759 190.544 103.573 190.178 102.275 189.739C100.977 189.3 99.8349 188.861 98.9809 188.529C98.5216 188.372 98.0773 188.175 97.6536 187.938C98.1348 188.042 98.6066 188.186 99.0639 188.368L102.377 189.5L105.696 190.627C106.156 190.757 106.603 190.927 107.033 191.135Z" fill="#263238"/>
<path d="M99.5814 178.681C99.5814 178.681 99.5472 178.818 99.435 179.037C99.2793 179.354 99.0929 179.655 98.8787 179.935C98.5667 180.355 98.2136 180.742 97.8246 181.092C97.3398 181.512 96.8133 181.882 96.2532 182.195C95.6864 182.496 95.0893 182.736 94.472 182.912C93.9663 183.049 93.448 183.134 92.9251 183.166C92.5745 183.2 92.2215 183.2 91.871 183.166C91.627 183.137 91.4904 183.112 91.4952 183.093C91.5001 183.073 92.0418 183.093 92.9104 183.005C93.4175 182.947 93.9187 182.845 94.4086 182.702C95.0038 182.517 95.5805 182.277 96.1312 181.985C96.6777 181.684 97.1927 181.329 97.6684 180.926C98.0566 180.596 98.4142 180.232 98.7372 179.838C99.2886 179.145 99.5521 178.662 99.5814 178.681Z" fill="#263238"/>
<path d="M85.7709 162.406C85.7319 162.406 85.6685 161.728 85.5074 160.635C85.3279 159.215 84.9467 157.828 84.3753 156.516C83.7912 155.212 82.8801 154.081 81.7303 153.232C81.2368 152.905 80.7178 152.618 80.1785 152.373C80.3469 152.382 80.5123 152.422 80.6665 152.49C81.0842 152.638 81.4824 152.837 81.8523 153.081C83.0658 153.913 84.0252 155.065 84.6241 156.409C85.209 157.744 85.5748 159.164 85.7075 160.615C85.7661 161.167 85.7953 161.616 85.8051 161.923C85.8191 162.085 85.8075 162.248 85.7709 162.406Z" fill="#263238"/>
<path d="M118.008 187.446C117.74 187.638 117.482 187.844 117.237 188.065C116.674 188.637 116.183 189.274 115.773 189.964C115.356 190.643 115.028 191.373 114.797 192.135C114.631 192.721 114.626 193.111 114.582 193.111C114.515 192.774 114.53 192.426 114.626 192.096C114.809 191.297 115.123 190.534 115.554 189.837C115.966 189.128 116.486 188.488 117.096 187.939C117.34 187.681 117.659 187.509 118.008 187.446Z" fill="#263238"/>
<g opacity="0.2">
<path opacity="0.2" d="M113.504 199.324C114.509 197.396 114.26 195.059 113.694 192.98C113.128 190.901 112.269 188.837 112.103 186.67C111.962 184.791 112.357 182.917 112.733 181.072C113.109 179.228 113.475 177.349 113.279 175.475C113.084 173.601 112.245 171.703 110.674 170.668C111.364 172.2 111.856 173.814 112.138 175.47C112.41 177.143 112.029 178.857 111.074 180.258C110.552 180.941 109.849 181.502 109.507 182.292C109.058 183.342 109.127 184.532 108.795 185.582C108.429 186.738 107.765 190.613 107.765 190.613C107.721 190.828 108.912 193.019 110.088 194.58C111.264 196.142 112.694 197.552 113.548 199.314" fill="black"/>
</g>
<path d="M113.577 199.192C113.577 199.192 113.533 199.148 113.455 199.05L113.123 198.606L111.898 196.908C110.844 195.415 109.375 193.336 107.628 190.871L107.604 190.832V190.784L109.195 183C109.258 182.702 109.317 182.41 109.375 182.122V182.087V182.058C111.138 180.293 112.139 177.906 112.162 175.412C112.095 173.494 111.41 171.649 110.21 170.151V170.127C110.132 168.882 110.068 167.887 110.024 167.174C110.024 166.847 109.995 166.589 109.985 166.389C109.976 166.298 109.976 166.206 109.985 166.115C110.012 166.202 110.027 166.293 110.029 166.384C110.029 166.584 110.073 166.842 110.107 167.164C110.171 167.877 110.259 168.872 110.366 170.092V170.049C111.615 171.567 112.332 173.452 112.406 175.417C112.434 176.63 112.204 177.836 111.732 178.955C111.234 180.183 110.501 181.304 109.576 182.253L109.61 182.19C109.551 182.473 109.493 182.771 109.429 183.068C108.863 185.855 108.336 188.5 107.848 190.808V190.72L112.04 196.81C112.528 197.538 112.928 198.118 113.211 198.543L113.514 199.006C113.553 199.133 113.587 199.192 113.577 199.192Z" fill="#263238"/>
<g opacity="0.2">
<path opacity="0.2" d="M91.6413 183.249C91.3436 183.01 90.8702 183.38 90.8897 183.761C90.9219 183.95 90.999 184.128 91.1145 184.281C91.23 184.434 91.3805 184.557 91.5534 184.64C92.4764 185.155 93.5385 185.367 94.5888 185.245C95.9029 185.172 97.1534 184.656 98.1365 183.781C98.6197 183.342 98.9834 182.787 99.1934 182.169C99.4034 181.551 99.4528 180.89 99.337 180.248C99.3204 180.142 99.2767 180.043 99.2101 179.96C98.9613 179.706 98.5513 179.989 98.3073 180.248C96.612 182.027 94.3007 183.092 91.8462 183.224" fill="black"/>
</g>
<g opacity="0.2">
<path opacity="0.2" d="M85.7516 183.034C85.1868 182.804 84.5629 182.762 83.9723 182.914C83.3817 183.066 82.8558 183.404 82.4722 183.878C82.3336 184.018 82.2404 184.196 82.2047 184.389C82.169 184.582 82.1925 184.782 82.2721 184.962C82.3684 185.092 82.5022 185.19 82.6557 185.243C82.8092 185.295 82.9751 185.299 83.131 185.254C83.4428 185.154 83.7292 184.988 83.9704 184.766C84.5316 184.332 85.083 183.883 85.6149 183.42C85.6986 183.362 85.7645 183.283 85.8053 183.19C85.8247 183.145 85.8265 183.093 85.8102 183.046C85.794 183 85.7609 182.96 85.7174 182.936" fill="black"/>
</g>
<path d="M83.1945 185.586C83.1652 185.586 83.1945 185.337 83.3409 184.976C83.5448 184.509 83.8489 184.091 84.2317 183.754C84.6145 183.417 85.0668 183.168 85.5565 183.024C85.7529 182.945 85.9678 182.923 86.1762 182.961C85.5356 183.189 84.9359 183.518 84.3999 183.937C83.9146 184.42 83.5079 184.977 83.1945 185.586Z" fill="#263238"/>
<path d="M74.21 168.951C74.1279 167.499 74.1279 166.044 74.21 164.593C74.2158 163.14 74.3038 161.688 74.4735 160.245C74.5615 161.694 74.5615 163.148 74.4735 164.598C74.4702 166.052 74.3823 167.506 74.21 168.951Z" fill="#FAFAFA"/>
<path d="M76.3818 175.758C76.3135 175.758 76.25 173.416 76.2452 170.532C76.2403 167.647 76.2988 165.31 76.3672 165.31C76.4355 165.31 76.4989 167.647 76.5038 170.532C76.5087 173.416 76.4501 175.758 76.3818 175.758Z" fill="#FAFAFA"/>
<path d="M80.2858 158.502C80.3419 158.895 80.355 159.293 80.3249 159.688C80.3249 160.42 80.2956 161.43 80.2517 162.543C80.2077 163.656 80.1541 164.666 80.1004 165.398C80.1022 165.794 80.0563 166.189 79.9637 166.574C79.9073 166.183 79.8942 165.787 79.9247 165.393C79.9247 164.661 79.954 163.651 79.9979 162.533C80.0418 161.416 80.0955 160.406 80.1492 159.678C80.1468 159.282 80.1927 158.887 80.2858 158.502Z" fill="#FAFAFA"/>
<path d="M83.1405 172.513C83.012 171.395 82.9696 170.27 83.0136 169.146C82.9756 168.023 83.0197 166.9 83.1454 165.783C83.2705 166.9 83.3113 168.024 83.2674 169.146C83.3084 170.27 83.266 171.395 83.1405 172.513Z" fill="#FAFAFA"/>
<path d="M79.9346 180.189C79.8632 179.132 79.8746 178.072 79.9687 177.017C79.9812 175.957 80.0758 174.9 80.2518 173.855C80.3191 175.975 80.213 178.096 79.9346 180.199V180.189Z" fill="#FAFAFA"/>
<path d="M73.3999 186.596C73.1949 184.519 73.159 182.428 73.2926 180.345C73.4975 182.423 73.5334 184.513 73.3999 186.596Z" fill="#FAFAFA"/>
<path d="M76.3623 187.075C76.2787 186.322 76.2787 185.563 76.3623 184.81C76.3629 184.054 76.4463 183.299 76.6112 182.561C76.6948 183.313 76.6948 184.073 76.6112 184.825C76.613 185.582 76.5296 186.337 76.3623 187.075Z" fill="#FAFAFA"/>
<path d="M92.0319 190.637C91.0052 190.279 90.0229 189.804 89.1039 189.222C88.1426 188.714 87.2408 188.1 86.415 187.392C86.4541 187.329 87.6838 188.109 89.2308 189.002C90.7778 189.895 92.0661 190.574 92.0319 190.637Z" fill="#FAFAFA"/>
<path d="M101.992 195.859C101.64 195.765 101.303 195.625 100.987 195.444C99.4144 194.661 97.9402 193.694 96.5948 192.565C96.3012 192.348 96.0385 192.092 95.814 191.804C95.8628 191.745 97.1316 192.809 98.8347 193.921C100.538 195.034 102.041 195.791 101.992 195.859Z" fill="#FAFAFA"/>
<path d="M102.631 198.719C101.802 198.473 101 198.147 100.235 197.743C99.4352 197.419 98.67 197.015 97.9514 196.537C98.7787 196.783 99.5797 197.11 100.343 197.513C101.142 197.841 101.909 198.245 102.631 198.719Z" fill="#FAFAFA"/>
<path d="M109.38 201.056C109.341 201.12 108.228 200.417 106.779 199.69C105.33 198.963 104.11 198.479 104.134 198.411C106.046 198.924 107.831 199.824 109.38 201.056Z" fill="#FAFAFA"/>
<path d="M107.706 204.404C107.096 204.126 106.508 203.799 105.95 203.428C105.349 203.133 104.772 202.793 104.222 202.413C104.881 202.566 105.507 202.836 106.072 203.208C106.68 203.512 107.233 203.916 107.706 204.404Z" fill="#FAFAFA"/>
<path d="M84.17 184.225C84.0196 183.566 83.9507 182.89 83.9651 182.214C83.8977 181.54 83.9124 180.86 84.009 180.189C84.1654 180.848 84.236 181.523 84.2188 182.2C84.2891 182.874 84.2727 183.555 84.17 184.225Z" fill="#FAFAFA"/>
<path d="M99.064 170.854C98.8209 169.937 98.6576 169.002 98.576 168.057C98.4112 167.126 98.3327 166.182 98.3418 165.237C98.588 166.151 98.7514 167.085 98.8298 168.028C98.9947 168.961 99.0731 169.907 99.064 170.854Z" fill="#FAFAFA"/>
<path d="M100.684 179.16C100.544 178.177 100.487 177.185 100.513 176.192C100.457 175.203 100.487 174.21 100.601 173.225C100.741 174.208 100.796 175.201 100.767 176.192C100.826 177.182 100.798 178.175 100.684 179.16Z" fill="#FAFAFA"/>
<path d="M90.8608 180.345C90.3625 178.544 90.2281 176.661 90.4655 174.807C90.5387 174.807 90.5289 176.051 90.6363 177.578C90.7437 179.106 90.934 180.331 90.8608 180.345Z" fill="#FAFAFA"/>
<path d="M94.2232 188.505C93.9371 187.667 93.7727 186.793 93.7352 185.908C93.6206 185.033 93.6304 184.146 93.7645 183.273C93.8835 184.141 93.9585 185.014 93.989 185.889C94.1207 187.328 94.2964 188.49 94.2232 188.505Z" fill="#FAFAFA"/>
<path d="M95.6774 176.783C95.5082 174.888 95.5082 172.982 95.6774 171.088C95.8466 172.982 95.8466 174.888 95.6774 176.783Z" fill="#FAFAFA"/>
<path d="M91.6367 166.969C91.8124 168.389 91.8124 169.824 91.6367 171.244C91.4674 169.824 91.4674 168.389 91.6367 166.969Z" fill="#FAFAFA"/>
<path d="M95.7653 159.771C95.9604 161.028 95.9867 162.305 95.8434 163.568C95.7075 162.945 95.6517 162.307 95.6775 161.67C95.6247 161.036 95.6543 160.398 95.7653 159.771Z" fill="#FAFAFA"/>
<path d="M103.334 167.687C103.122 166.352 102.995 165.006 102.954 163.656C102.827 162.313 102.783 160.963 102.822 159.615C103.037 160.947 103.166 162.292 103.207 163.641C103.331 164.986 103.373 166.337 103.334 167.687Z" fill="#FAFAFA"/>
<path d="M105.803 181.926C105.678 180.427 105.635 178.921 105.676 177.417C105.635 175.913 105.678 174.407 105.803 172.908C105.932 174.407 105.974 175.913 105.93 177.417C105.974 178.921 105.932 180.427 105.803 181.926Z" fill="#FAFAFA"/>
<path d="M101.372 189.207C101.202 187.096 101.202 184.975 101.372 182.863C101.542 184.975 101.542 187.096 101.372 189.207Z" fill="#FAFAFA"/>
<path d="M105.408 193.482C105.284 193.087 105.241 192.67 105.281 192.257C105.241 191.843 105.284 191.425 105.408 191.028C105.534 191.424 105.577 191.843 105.535 192.257C105.578 192.67 105.534 193.087 105.408 193.482Z" fill="#FAFAFA"/>
<path d="M108.102 163.568C108.271 165.49 108.271 167.423 108.102 169.346C107.933 167.423 107.933 165.49 108.102 163.568Z" fill="#FAFAFA"/>
<path d="M105.33 153.515C105.455 154.791 105.498 156.074 105.457 157.356C105.498 158.637 105.455 159.92 105.33 161.196C105.204 159.92 105.162 158.637 105.203 157.356C105.162 156.074 105.204 154.791 105.33 153.515Z" fill="#FAFAFA"/>
<path d="M100.108 154.545C100.277 156.283 100.277 158.033 100.108 159.771C99.9392 158.033 99.9392 156.283 100.108 154.545Z" fill="#FAFAFA"/>
<path d="M112.089 166.476C111.751 164.378 111.713 162.242 111.977 160.132C112.05 160.132 112.025 161.562 112.06 163.314C112.094 165.066 112.162 166.467 112.089 166.476Z" fill="#FAFAFA"/>
<path d="M114.382 171.815C114.213 169.666 114.213 167.508 114.382 165.359C114.552 167.508 114.552 169.666 114.382 171.815Z" fill="#FAFAFA"/>
<path d="M115.793 181.194C115.623 178.979 115.623 176.754 115.793 174.538C115.962 176.754 115.962 178.979 115.793 181.194Z" fill="#FAFAFA"/>
<path d="M112.567 186.338C112.398 183.987 112.398 181.627 112.567 179.277C112.736 181.627 112.736 183.987 112.567 186.338Z" fill="#FAFAFA"/>
<path d="M110.044 192.272C109.875 189.786 109.875 187.291 110.044 184.806C110.172 186.046 110.215 187.293 110.171 188.539C110.215 189.785 110.172 191.032 110.044 192.272Z" fill="#FAFAFA"/>
<path d="M115.592 189.164C115.423 187.722 115.423 186.266 115.592 184.825C115.762 186.266 115.762 187.722 115.592 189.164Z" fill="#FAFAFA"/>
<path d="M121.024 199.719C119.754 199.325 118.511 198.85 117.301 198.299C116.059 197.827 114.849 197.274 113.68 196.644C114.948 197.039 116.19 197.513 117.398 198.064C118.641 198.537 119.852 199.09 121.024 199.719Z" fill="#FAFAFA"/>
<path d="M127.485 197.767C126.133 197.422 124.803 196.993 123.503 196.483C122.172 196.056 120.868 195.547 119.599 194.961C120.951 195.309 122.281 195.737 123.581 196.244C124.911 196.675 126.215 197.183 127.485 197.767Z" fill="#FAFAFA"/>
<path d="M122.932 193.448C122.009 193.119 121.116 192.711 120.263 192.228C119.371 191.816 118.517 191.326 117.71 190.764C118.634 191.093 119.527 191.502 120.38 191.984C121.272 192.395 122.126 192.885 122.932 193.448Z" fill="#FAFAFA"/>
<path d="M79.964 153.486C80.0176 153.544 79.2417 154.247 78.4756 155.272C77.7094 156.296 77.236 157.224 77.1677 157.19C77.39 156.429 77.7672 155.723 78.2755 155.116C78.7182 154.46 79.2934 153.905 79.964 153.486Z" fill="#FAFAFA"/>
<path d="M86.6447 155.34C86.4164 154.861 86.2665 154.349 86.2006 153.822C86.0478 153.315 85.9818 152.785 86.0054 152.256C86.2306 152.734 86.3804 153.245 86.4495 153.769C86.5967 154.279 86.6626 154.809 86.6447 155.34Z" fill="#FAFAFA"/>
<path d="M114.578 205.755L146.859 190.081C148.478 189.292 150.27 188.923 152.07 189.008C153.869 189.093 155.618 189.63 157.156 190.569C158.481 191.379 159.615 192.467 160.48 193.758C161.344 195.049 161.918 196.512 162.161 198.047C162.405 199.581 162.312 201.15 161.891 202.645C161.469 204.14 160.727 205.526 159.718 206.707L145.732 223.074L110.025 228.013L106.682 207.79L110.654 201.642L114.578 205.755Z" fill="#263238"/>
<path d="M134.078 212.451C133.961 212.577 133.828 212.687 133.683 212.778C133.419 212.973 133.029 213.266 132.546 213.583C131.57 214.247 130.218 215.13 128.681 216.057C127.144 216.984 125.728 217.77 124.689 218.317C124.167 218.59 123.742 218.805 123.445 218.946C123.291 219.032 123.127 219.098 122.957 219.141C123.084 219.028 123.227 218.932 123.381 218.858L124.582 218.156C125.597 217.57 126.997 216.76 128.53 215.838C130.062 214.915 131.433 214.056 132.434 213.432L133.614 212.695C133.757 212.593 133.913 212.511 134.078 212.451Z" fill="#455A64"/>
<path d="M65.88 213.656C65.88 213.656 69.0862 198.177 70.76 195.795C72.4339 193.414 75.8889 188.08 80.2858 187.533C84.6827 186.987 93.6667 192.257 95.3015 194.326C99.4398 199.572 125.558 227.218 125.235 226.856L116.817 232.659L107.921 229.848H82.3988C82.3988 229.848 64.7186 226.856 65.88 213.656Z" fill="#263238"/>
<path d="M107.921 229.848C107.791 229.852 107.66 229.844 107.531 229.823C107.158 229.792 106.788 229.733 106.423 229.648C105.079 229.322 103.771 228.863 102.519 228.277C98.4239 226.327 94.5702 223.907 91.0365 221.064C87.4053 218.351 83.9679 215.388 80.7495 212.197C79.7782 211.225 78.8857 210.177 78.0801 209.064C77.8596 208.76 77.6591 208.442 77.4799 208.112C77.4091 208.004 77.3486 207.89 77.2993 207.771C77.3863 207.867 77.4617 207.974 77.5238 208.088C77.6751 208.298 77.8508 208.63 78.1582 209.005C78.9913 210.091 79.8995 211.117 80.8764 212.075C84.1251 215.219 87.5708 218.153 91.1927 220.859C94.7196 223.685 98.5495 226.111 102.612 228.091C103.842 228.694 105.124 229.184 106.443 229.555C106.931 229.662 107.282 229.745 107.536 229.775C107.666 229.787 107.795 229.812 107.921 229.848Z" fill="#455A64"/>
<path d="M96.4826 226.388C96.3769 226.463 96.266 226.53 96.1507 226.588L95.1747 227.125C94.7502 227.354 94.1987 227.569 93.5741 227.852C93.2618 227.999 92.9055 228.091 92.5395 228.228C92.1557 228.373 91.7648 228.498 91.3683 228.604C89.4264 229.16 87.4199 229.461 85.4001 229.497C82.9149 229.549 80.4359 229.228 78.0459 228.545C75.6551 227.86 73.3932 226.787 71.3506 225.368C70.8919 225.022 70.4283 224.714 70.0135 224.363C69.6112 224.019 69.239 223.642 68.9008 223.236C68.2934 222.509 67.7665 221.719 67.3295 220.879C66.6755 219.675 66.2269 218.37 66.0021 217.019C65.94 216.652 65.9073 216.282 65.9045 215.911C65.8938 215.783 65.8938 215.654 65.9045 215.525C65.9338 215.525 65.9045 216.057 66.0899 216.989C66.3479 218.319 66.8157 219.599 67.4759 220.781C67.92 221.6 68.4465 222.372 69.0472 223.084C69.3834 223.478 69.7506 223.843 70.1452 224.178C70.5551 224.519 71.0187 224.822 71.4726 225.154C73.503 226.544 75.7439 227.598 78.1094 228.277C80.4734 228.959 82.9253 229.288 85.3855 229.253C87.3939 229.229 89.3911 228.95 91.3293 228.423C91.749 228.335 92.1296 228.179 92.5005 228.067C92.8714 227.955 93.2179 227.847 93.5302 227.711C94.1548 227.442 94.7111 227.223 95.1406 227.027L96.1166 226.539C96.2326 226.476 96.3553 226.425 96.4826 226.388Z" fill="#455A64"/>
<path d="M124.474 225.944C124.425 225.993 118.091 219.322 110.322 211.045C102.553 202.769 96.3067 196.02 96.3555 195.976C96.4043 195.932 102.743 202.593 110.508 210.875C118.272 219.156 124.528 225.9 124.474 225.944Z" fill="#455A64"/>
<path d="M98.132 225.827C98.132 225.827 92.359 228.179 92.9641 230.868C93.5692 233.557 96.5412 234.806 99.5521 234.518C102.563 234.23 108.102 231.751 108.102 231.751L110.952 230.238C110.952 230.238 107.487 230.185 105.735 229.56C103.705 228.833 98.132 225.827 98.132 225.827Z" fill="#055EFF"/>
<path d="M105.271 230.546L125.767 233.767L169.033 229.453L145.311 222.953L105.295 228.706C105.075 228.738 104.873 228.848 104.727 229.016C104.581 229.185 104.5 229.4 104.5 229.623C104.499 229.843 104.576 230.057 104.717 230.226C104.858 230.394 105.054 230.508 105.271 230.546Z" fill="#455A64"/>
<path d="M131.272 201.173L126.314 230.487C126.252 230.871 126.279 231.264 126.394 231.635C126.508 232.007 126.706 232.347 126.972 232.63C127.238 232.913 127.566 233.131 127.93 233.267C128.294 233.403 128.684 233.454 129.071 233.415L169.024 229.433C169.572 229.379 170.087 229.147 170.492 228.774C170.897 228.401 171.17 227.906 171.268 227.364L176.656 197.713C176.726 197.325 176.705 196.926 176.595 196.547C176.484 196.168 176.286 195.82 176.018 195.531C175.749 195.242 175.417 195.019 175.048 194.88C174.678 194.741 174.282 194.69 173.889 194.732L133.492 199.075C132.945 199.137 132.432 199.375 132.032 199.753C131.631 200.132 131.365 200.63 131.272 201.173Z" fill="#455A64"/>
<path d="M104.486 229.623H104.593L104.91 229.658L106.126 229.828L110.635 230.502L125.904 232.878L125.763 232.981C126.016 231.453 126.275 229.863 126.543 228.238C127.749 221.025 128.837 214.5 129.632 209.752C130.038 207.405 130.364 205.497 130.608 204.16C130.721 203.511 130.813 203.003 130.882 202.637C130.911 202.476 130.94 202.349 130.96 202.247C130.966 202.2 130.977 202.154 130.994 202.11C130.999 202.155 130.999 202.201 130.994 202.247C130.994 202.354 130.965 202.486 130.94 202.647C130.887 203.013 130.809 203.525 130.716 204.174C130.501 205.516 130.199 207.429 129.828 209.781C129.057 214.534 127.993 221.064 126.817 228.277C126.543 229.902 126.285 231.492 126.031 233.025V233.147H125.904L110.63 230.707L106.13 229.96L104.92 229.75L104.608 229.687L104.486 229.623Z" fill="#263238"/>
<path d="M156.228 213.871C156.228 215.462 155.077 216.75 153.657 216.75C152.237 216.75 151.09 215.462 151.09 213.871C151.09 212.28 152.242 210.992 153.657 210.992C155.072 210.992 156.228 212.28 156.228 213.871Z" fill="#FAFAFA"/>
<path d="M96.024 134.054C97.0585 135.581 98.1028 137.133 98.6787 138.885C99.2545 140.637 99.3179 142.643 98.42 144.253C97.6734 145.59 96.3021 146.639 96.0679 148.157C95.6775 150.738 98.7763 152.651 98.9959 155.252C99.1228 156.716 98.2785 158.122 97.3172 159.259C96.3558 160.396 95.2334 161.431 94.6087 162.782C93.9841 164.134 94.0183 165.92 95.1602 166.896C93.7352 166.496 92.2566 168.009 90.8512 167.54C89.6556 167.145 89.3384 165.632 89.2212 164.378C88.9284 164.751 88.7276 165.189 88.6352 165.654C88.5428 166.119 88.5613 166.6 88.6893 167.057C87.6238 165.933 86.934 164.505 86.7154 162.972C86.4968 161.438 86.7603 159.875 87.4693 158.498C88.3282 156.902 89.7922 155.496 89.7922 153.72C89.7678 151.768 87.9378 150.304 87.4254 148.386C87.0691 147.088 87.362 145.707 87.7524 144.419C88.1428 143.131 88.6405 141.847 88.6942 140.515C88.7479 139.183 88.6259 138.631 87.4742 137.938" fill="#263238"/>
<path d="M92.437 166.598H92.3297C92.2252 166.578 92.1236 166.545 92.0271 166.501C91.6449 166.333 91.3218 166.054 91.0999 165.7C90.7401 165.145 90.5611 164.492 90.5875 163.831C90.6566 162.961 90.9657 162.126 91.4806 161.421C92.0027 160.62 92.7347 159.864 93.4082 158.981C94.0816 158.097 94.7355 157.058 94.7355 155.828C94.7355 154.598 94.067 153.413 93.3106 152.3C92.5542 151.187 91.6709 150.001 91.4025 148.518C91.2704 147.782 91.38 147.024 91.7148 146.356C92.0528 145.734 92.4822 145.167 92.9885 144.672C93.463 144.215 93.9065 143.725 94.3158 143.208C94.7036 142.717 94.9665 142.14 95.082 141.525C95.162 140.939 95.0268 140.344 94.7014 139.851C94.3823 139.378 94.0284 138.929 93.6424 138.509C92.9353 137.72 92.4754 136.741 92.3199 135.693C92.1935 134.832 92.2909 133.953 92.6029 133.141C92.8402 132.532 93.1894 131.972 93.6326 131.492C93.9105 131.19 94.2253 130.924 94.5696 130.701C94.6579 130.643 94.7491 130.589 94.8429 130.54C94.9047 130.507 94.9388 130.493 94.9454 130.496C94.4885 130.796 94.072 131.154 93.7058 131.56C93.2834 132.039 92.9526 132.591 92.7298 133.19C92.4416 133.983 92.3593 134.836 92.4907 135.669C92.6495 136.679 93.1027 137.619 93.7937 138.372C94.189 138.799 94.5527 139.254 94.8819 139.734C95.2361 140.27 95.385 140.917 95.3016 141.554C95.1848 142.209 94.9101 142.825 94.5013 143.35C94.0908 143.884 93.6423 144.388 93.1593 144.858C92.6725 145.337 92.2582 145.884 91.9295 146.483C91.6189 147.103 91.5194 147.807 91.6465 148.489C91.8954 149.889 92.7493 151.055 93.5106 152.178C93.8966 152.734 94.2345 153.321 94.5208 153.935C94.7997 154.533 94.9493 155.183 94.96 155.843C94.9466 156.472 94.7932 157.091 94.511 157.653C94.2483 158.172 93.9327 158.663 93.5692 159.117C92.8714 159.996 92.1442 160.737 91.6172 161.518C91.1122 162.193 90.8016 162.993 90.7193 163.831C90.6856 164.467 90.8437 165.097 91.1731 165.642C91.3802 165.987 91.6793 166.267 92.0369 166.452C92.2906 166.559 92.4419 166.579 92.437 166.598Z" fill="#455A64"/>
<path d="M126.675 211.133C125.27 209.869 126.851 208.391 124.304 205.985C122.4 204.194 118.794 201.105 111.811 198.782L107.419 206.59L115.032 209.03L114.958 213.993C114.954 214.236 114.999 214.477 115.09 214.702C115.181 214.928 115.317 215.132 115.488 215.304C115.66 215.476 115.864 215.612 116.089 215.704C116.314 215.795 116.555 215.841 116.798 215.838L120.751 215.789C120.751 215.789 119.594 220.669 119.775 220.962C119.879 221.127 120.028 221.259 120.203 221.344C120.379 221.429 120.575 221.463 120.769 221.442C120.963 221.421 121.148 221.347 121.302 221.226C121.455 221.106 121.572 220.945 121.639 220.762C121.795 220.108 125.055 212.231 125.055 212.231C125.055 212.231 127.183 214.066 127.495 213.017C127.505 213.041 128.085 212.402 126.675 211.133Z" fill="#B78876"/>
<path d="M116.046 215.979C116.046 215.954 116.227 215.832 116.49 215.574C116.827 215.236 117.083 214.828 117.242 214.378C117.398 213.927 117.449 213.447 117.393 212.973C117.349 212.612 117.266 212.392 117.296 212.377C117.423 212.545 117.504 212.744 117.53 212.953C117.628 213.45 117.591 213.964 117.423 214.442C117.259 214.927 116.969 215.36 116.583 215.696C116.431 215.835 116.247 215.932 116.046 215.979Z" fill="#AA6550"/>
<path d="M118.584 215.818C118.915 215.351 119.172 214.836 119.345 214.291C119.457 213.73 119.48 213.155 119.414 212.587C119.51 212.734 119.568 212.901 119.584 213.075C119.655 213.494 119.637 213.923 119.531 214.334C119.425 214.745 119.234 215.129 118.97 215.462C118.765 215.72 118.584 215.833 118.584 215.818Z" fill="#AA6550"/>
<path d="M121.649 212.958C121.673 212.958 121.722 213.114 121.727 213.388C121.729 213.742 121.658 214.092 121.517 214.417C121.38 214.743 121.177 215.037 120.922 215.281C120.722 215.467 120.57 215.54 120.556 215.52C120.863 215.16 121.126 214.765 121.341 214.344C121.5 213.896 121.603 213.431 121.649 212.958Z" fill="#AA6550"/>
<path d="M225.266 190.135C225.705 188.612 226.642 187.143 228.096 186.514C229.55 185.884 231.361 186.236 232.908 186.797C234.455 187.358 235.977 188.109 237.617 188.212C239.257 188.314 241.116 187.534 241.609 185.962C242.072 184.498 241.179 182.912 240.067 181.839C238.887 180.71 237.442 179.896 235.866 179.47C234.289 179.044 232.631 179.021 231.043 179.402C229.455 179.783 227.989 180.557 226.777 181.652C225.566 182.747 224.648 184.128 224.109 185.669" fill="#055EFF"/>
<g opacity="0.5">
<path opacity="0.5" d="M225.266 190.135C225.705 188.612 226.642 187.143 228.096 186.514C229.55 185.884 231.361 186.236 232.908 186.797C234.455 187.358 235.977 188.109 237.617 188.212C239.257 188.314 241.116 187.534 241.609 185.962C242.072 184.498 241.179 182.912 240.067 181.839C238.887 180.71 237.442 179.896 235.866 179.47C234.289 179.044 232.631 179.021 231.043 179.402C229.455 179.783 227.989 180.557 226.777 181.652C225.566 182.747 224.648 184.128 224.109 185.669" fill="black"/>
</g>
<path d="M212.246 196.732C209.835 194.444 209.952 190.457 211.158 187.358C212.363 184.259 214.984 181.873 217.916 180.306C220.778 178.803 223.944 177.968 227.175 177.863C230.406 177.758 233.619 178.387 236.573 179.701C235.127 179.763 233.718 180.178 232.47 180.911C231.222 181.643 230.173 182.671 229.414 183.903C228.091 186.099 227.798 188.783 226.705 191.081C225.475 193.693 223.29 195.735 220.601 196.786C217.911 197.837 214.922 197.818 212.246 196.732Z" fill="#055EFF"/>
<path d="M211.084 182.971C208.415 179.823 208.059 174.762 208.454 170.653C208.849 166.545 209.801 162.406 209.152 158.327C208.766 155.911 207.829 153.603 207.512 151.177C207.195 148.752 207.644 146.005 209.523 144.443C211.685 142.642 215.086 143.067 217.331 144.755C219.576 146.444 220.879 149.099 221.83 151.748C223.924 157.56 224.69 164.007 222.972 169.941C221.254 175.875 217.223 181.165 211.314 182.971" fill="#055EFF"/>
<path d="M209.806 208.825C209.792 208.705 209.792 208.584 209.806 208.464C209.806 208.225 209.806 207.873 209.806 207.424C209.84 206.517 209.923 205.214 210.128 203.608C210.367 201.727 210.709 199.86 211.153 198.016C211.707 195.753 212.566 193.577 213.705 191.545C214.848 189.516 216.248 187.645 217.873 185.977C219.194 184.612 220.658 183.393 222.24 182.341C222.909 181.882 223.553 181.531 224.109 181.209C224.665 180.887 225.173 180.662 225.573 180.467L226.549 180.062C226.66 180.013 226.774 179.97 226.891 179.935C226.788 179.999 226.68 180.054 226.569 180.101L225.627 180.545C225.227 180.75 224.739 181.009 224.163 181.316C223.587 181.624 222.982 182.004 222.323 182.473C218.846 184.848 215.961 187.991 213.89 191.657C211.45 195.947 210.767 200.441 210.279 203.628C210.055 205.223 209.947 206.526 209.884 207.429L209.825 208.464C209.827 208.584 209.821 208.705 209.806 208.825Z" fill="#263238"/>
<path d="M186.777 170.541C181.839 173.523 181.853 176.236 182.678 178.793C183.503 181.35 186.538 183.132 189.051 182.175C190.471 181.633 191.491 180.399 192.379 179.159C193.268 177.92 194.083 176.588 195.307 175.699C196.532 174.811 198.328 174.465 199.563 175.348" fill="#055EFF"/>
<g opacity="0.5">
<path opacity="0.5" d="M186.777 170.541C181.839 173.523 181.853 176.236 182.678 178.793C183.503 181.35 186.538 183.132 189.051 182.175C190.471 181.633 191.491 180.399 192.379 179.159C193.268 177.92 194.083 176.588 195.307 175.699C196.532 174.811 198.328 174.465 199.563 175.348" fill="black"/>
</g>
<path d="M183.083 173.811C184.372 172.025 187.563 171.508 189.579 172.401C191.594 173.294 193.068 175.055 194.39 176.817C195.713 178.579 196.996 180.443 198.826 181.668C200.656 182.893 203.218 183.337 205.033 182.102C205.615 181.669 206.102 181.122 206.464 180.494C206.827 179.867 207.057 179.172 207.142 178.452C207.304 177.01 207.207 175.55 206.854 174.143C206.419 172.074 205.707 169.912 204.048 168.594C202.198 167.13 199.656 167.057 197.279 167.13C194.576 167.218 191.828 167.423 189.291 168.36C186.753 169.297 184.157 171.322 183.083 173.806" fill="#055EFF"/>
<path d="M205.697 204.872C205.697 204.872 205.697 204.833 205.697 204.765V204.443C205.697 204.145 205.673 203.735 205.658 203.218C205.624 202.134 205.58 200.602 205.526 198.709C205.473 196.815 205.39 194.541 205.253 192.028C205.116 189.515 204.926 186.753 204.545 183.878C204.382 182.479 204.108 181.096 203.726 179.74C203.333 178.489 202.827 177.277 202.213 176.119C201.663 175.067 201.023 174.064 200.3 173.123C199.669 172.304 198.972 171.539 198.216 170.834C197.114 169.817 195.87 168.967 194.522 168.311C194.278 168.204 194.068 168.092 193.878 168.018L193.39 167.828L193.092 167.711L192.994 167.662L193.097 167.687L193.404 167.789L193.892 167.955C194.088 168.028 194.302 168.131 194.546 168.233C195.922 168.864 197.192 169.701 198.314 170.717C199.082 171.423 199.792 172.19 200.436 173.011C201.171 173.957 201.824 174.965 202.388 176.022C203.012 177.19 203.527 178.414 203.926 179.677C204.316 181.042 204.594 182.438 204.755 183.849C205.141 186.738 205.321 189.505 205.448 192.018C205.575 194.531 205.638 196.801 205.678 198.704C205.717 200.607 205.731 202.154 205.736 203.218V204.443C205.736 204.574 205.736 204.677 205.736 204.765C205.731 204.803 205.717 204.839 205.697 204.872Z" fill="#263238"/>
<path d="M207.478 207.102C207.242 206.412 207.061 205.703 206.937 204.984C206.592 203.016 206.515 201.01 206.707 199.021C207.013 196.079 207.645 193.181 208.591 190.378C209.606 187.202 210.982 183.8 212.158 180.13C212.737 178.356 213.21 176.549 213.573 174.719C213.9 173.011 214.135 171.288 214.276 169.556C214.497 166.617 214.55 163.668 214.432 160.723C214.349 158.21 214.213 156.175 214.13 154.769C214.091 154.076 214.056 153.534 214.037 153.154C214.037 152.973 214.037 152.837 214.013 152.729C214.007 152.682 214.007 152.635 214.013 152.588C214.015 152.635 214.015 152.682 214.013 152.729C214.013 152.837 214.013 152.973 214.056 153.149C214.086 153.53 214.135 154.071 214.193 154.764C214.3 156.17 214.457 158.18 214.564 160.718C214.708 163.668 214.67 166.624 214.452 169.57C214.19 173.186 213.481 176.756 212.344 180.199C211.163 183.864 209.782 187.255 208.762 190.422C207.808 193.208 207.163 196.09 206.839 199.016C206.635 200.993 206.687 202.987 206.995 204.95C207.117 205.638 207.229 206.175 207.327 206.531C207.366 206.702 207.4 206.839 207.425 206.941L207.478 207.102Z" fill="#263238"/>
<path d="M219.722 209.337H196.533L196.001 204.872H219.722V209.337Z" fill="#455A64"/>
<path d="M199.016 208.825L201.92 222.216H214.52L217.233 208.825H199.016Z" fill="#455A64"/>
<path d="M219.722 209.352C219.722 209.41 214.623 209.445 208.332 209.43C202.042 209.415 196.947 209.347 196.947 209.284C196.947 209.22 202.042 209.191 208.332 209.205C214.623 209.22 219.722 209.274 219.722 209.352Z" fill="#455A64"/>
<path d="M215.74 215.945C215.111 215.472 214.426 215.078 213.7 214.774C212.908 214.465 212.067 214.3 211.216 214.286C210.172 214.286 209.137 214.476 208.161 214.847C207.102 215.203 206.117 215.618 205.155 215.847C204.302 216.034 203.422 216.06 202.559 215.925C201.977 215.844 201.413 215.665 200.89 215.398C200.748 215.323 200.613 215.237 200.485 215.14C200.438 215.11 200.395 215.074 200.358 215.032C200.358 215.032 200.558 215.149 200.929 215.32C201.453 215.551 202.009 215.703 202.579 215.769C203.423 215.878 204.281 215.836 205.111 215.647C206.038 215.418 207.024 214.998 208.093 214.637C209.092 214.26 210.153 214.072 211.221 214.081C212.094 214.109 212.954 214.297 213.759 214.637C214.298 214.865 214.804 215.162 215.267 215.52C215.394 215.616 215.514 215.721 215.628 215.833C215.696 215.896 215.745 215.94 215.74 215.945Z" fill="#263238"/>
<path d="M215.564 216.838C214.96 216.379 214.305 215.991 213.612 215.681C212.85 215.375 212.038 215.21 211.216 215.193C210.209 215.198 209.21 215.378 208.264 215.725C207.244 216.067 206.283 216.462 205.37 216.701C204.559 216.935 203.714 217.029 202.871 216.98C202.303 216.945 201.747 216.798 201.237 216.545C201.101 216.471 200.97 216.388 200.846 216.296C200.763 216.233 200.719 216.199 200.724 216.189C200.729 216.179 200.915 216.301 201.271 216.467C201.781 216.683 202.327 216.804 202.881 216.823C203.706 216.852 204.531 216.744 205.321 216.506C206.219 216.252 207.171 215.852 208.205 215.506C209.174 215.15 210.199 214.973 211.231 214.984C212.072 215.009 212.901 215.196 213.671 215.535C214.196 215.761 214.688 216.057 215.135 216.413C215.257 216.506 215.373 216.607 215.481 216.716C215.53 216.794 215.569 216.833 215.564 216.838Z" fill="white"/>
<path d="M215.969 215.057C215.317 214.57 214.613 214.156 213.871 213.822C213.065 213.473 212.205 213.265 211.328 213.207C210.251 213.186 209.181 213.375 208.176 213.763C207.158 214.161 206.119 214.5 205.062 214.778C204.176 214.933 203.27 214.933 202.383 214.778C201.786 214.684 201.205 214.501 200.661 214.237C200.514 214.16 200.374 214.072 200.241 213.973C200.148 213.91 200.104 213.871 200.109 213.861C200.114 213.851 200.314 213.983 200.695 214.159C201.242 214.395 201.818 214.56 202.408 214.647C203.278 214.771 204.163 214.753 205.028 214.593C206.072 214.305 207.1 213.963 208.108 213.568C209.137 213.171 210.235 212.985 211.338 213.022C212.236 213.088 213.116 213.314 213.934 213.69C214.485 213.939 215.004 214.252 215.481 214.622C215.612 214.722 215.735 214.829 215.852 214.944C215.935 215.008 215.974 215.052 215.969 215.057Z" fill="white"/>
<path d="M219.927 209.352C219.927 209.415 214.711 209.464 208.274 209.464C201.837 209.464 196.625 209.415 196.625 209.352C196.625 209.289 201.842 209.245 208.274 209.245C214.706 209.245 219.927 209.293 219.927 209.352Z" fill="#263238"/>
<path d="M35.7197 48L33.4533 41.4431H34.6047L36.2045 46.5456L37.7195 41.4431H38.8831L40.3496 46.5456L41.9615 41.4431H43.1372L40.8465 48H39.7799L38.3013 42.9944L36.7863 48H36.2045H35.7197ZM44.9835 48H43.9412V41.4431H44.9835V48ZM43.8685 39.2736C43.8685 39.1039 43.925 38.9625 44.0381 38.8494C44.1593 38.7282 44.3007 38.6676 44.4623 38.6676C44.632 38.6676 44.7734 38.7282 44.8865 38.8494C45.0077 38.9625 45.0683 39.1039 45.0683 39.2736C45.0683 39.4352 45.0077 39.5766 44.8865 39.6978C44.7734 39.8109 44.632 39.8675 44.4623 39.8675C44.3007 39.8675 44.1593 39.8109 44.0381 39.6978C43.925 39.5766 43.8685 39.4352 43.8685 39.2736ZM55.2055 48H53.7996H53.5935H52.4785H51.6664C51.4887 48 51.3352 47.9475 51.2059 47.8424C51.0847 47.7374 51.0241 47.5798 51.0241 47.3698C51.0241 47.2405 51.0483 47.095 51.0968 46.9334C51.1534 46.7718 51.2503 46.5941 51.3877 46.4002L54.1147 42.4006H51.4362L51.0241 41.4431H52.4421H52.7451H53.8602H54.3328C54.5672 41.4431 54.753 41.4996 54.8904 41.6128C55.0358 41.7178 55.1085 41.8754 55.1085 42.0854C55.1085 42.1986 55.0843 42.3278 55.0358 42.4733C54.9954 42.6106 54.9186 42.7642 54.8055 42.9338L52.0906 47.0789H54.9267L55.2055 48ZM57.0499 44.9821V45.3094C57.0499 45.5922 57.058 45.8507 57.0741 46.085C57.0903 46.3194 57.1388 46.5254 57.2196 46.7032C57.3085 46.8809 57.4458 47.0183 57.6317 47.1152C57.8175 47.2122 58.0841 47.2607 58.4316 47.2607C58.9568 47.2607 59.3163 47.1556 59.5103 46.9456C59.7042 46.7274 59.8011 46.4244 59.8011 46.0366C59.8496 46.0366 59.9183 46.0366 60.0072 46.0366C60.0961 46.0366 60.189 46.0366 60.2859 46.0366C60.3829 46.0285 60.4799 46.0244 60.5768 46.0244C60.6738 46.0244 60.7586 46.0244 60.8313 46.0244C60.8313 46.3396 60.795 46.6264 60.7223 46.885C60.6495 47.1354 60.5203 47.3536 60.3344 47.5394C60.1567 47.7172 59.9102 47.8586 59.5951 47.9636C59.2881 48.0606 58.9002 48.1091 58.4316 48.1091C57.8821 48.1091 57.4458 48.0404 57.1226 47.903C56.8075 47.7576 56.5691 47.5637 56.4075 47.3213C56.2459 47.0708 56.1409 46.7759 56.0924 46.4365C56.0439 46.0972 56.0197 45.7255 56.0197 45.3215V44.1337C56.0197 43.7297 56.0399 43.358 56.0803 43.0187C56.1288 42.6712 56.2338 42.3723 56.3954 42.1218C56.5651 41.8713 56.8075 41.6774 57.1226 41.54C57.4458 41.3946 57.8821 41.3219 58.4316 41.3219C58.9406 41.3219 59.3527 41.3906 59.6678 41.5279C59.9829 41.6653 60.2253 41.8592 60.395 42.1097C60.5728 42.3521 60.6899 42.651 60.7465 43.0066C60.8111 43.354 60.8435 43.7418 60.8435 44.1701V44.9821H57.0499ZM58.4316 42.1703C58.0841 42.1703 57.8175 42.2228 57.6317 42.3278C57.4458 42.4248 57.3085 42.5581 57.2196 42.7278C57.1388 42.8975 57.0903 43.0954 57.0741 43.3217C57.058 43.5479 57.0499 43.7903 57.0499 44.0489V44.1701H59.8133C59.8133 43.8307 59.7971 43.5358 59.7648 43.2853C59.7405 43.0348 59.6799 42.8288 59.583 42.6672C59.4941 42.4975 59.3567 42.3723 59.1709 42.2915C58.9931 42.2107 58.7467 42.1703 58.4316 42.1703ZM61.774 43.6368C61.774 43.2166 61.8103 42.8692 61.883 42.5945C61.9558 42.3117 62.0931 42.0854 62.2951 41.9158C62.4971 41.7461 62.7678 41.6249 63.1072 41.5522C63.4546 41.4794 63.903 41.4431 64.4525 41.4431H65.616L65.1797 42.3036H64.5252C64.1778 42.3036 63.8909 42.3238 63.6647 42.3642C63.4465 42.3965 63.2728 42.4612 63.1435 42.5581C63.0142 42.6551 62.9254 42.7924 62.8769 42.9702C62.8284 43.1399 62.8042 43.3621 62.8042 43.6368V48H61.774V43.6368Z" fill="#055EFF"/>
<path d="M50.2462 48H48.8403H48.6343H47.5192H46.7072C46.5294 48 46.3759 47.9475 46.2466 47.8424C46.1254 47.7374 46.0648 47.5798 46.0648 47.3698C46.0648 47.2405 46.0891 47.095 46.1376 46.9334C46.1941 46.7718 46.2911 46.5941 46.4284 46.4002L49.1554 42.4006H46.4769L46.0648 41.4431H47.4829H47.7859H48.9009H49.3736C49.6079 41.4431 49.7938 41.4996 49.9311 41.6128C50.0766 41.7178 50.1493 41.8754 50.1493 42.0854C50.1493 42.1986 50.125 42.3278 50.0766 42.4733C50.0362 42.6106 49.9594 42.7642 49.8463 42.9338L47.1314 47.0789H49.9675L50.2462 48Z" fill="#11DE9A"/>
<path d="M168.926 141.795V143H168.52V139.923H169.655C169.992 139.923 170.255 140.009 170.446 140.181C170.637 140.352 170.733 140.58 170.733 140.863C170.733 141.162 170.639 141.392 170.452 141.554C170.266 141.715 169.999 141.795 169.651 141.795H168.926ZM168.926 141.463H169.655C169.872 141.463 170.038 141.413 170.154 141.311C170.27 141.208 170.327 141.06 170.327 140.867C170.327 140.684 170.27 140.538 170.154 140.428C170.038 140.318 169.88 140.261 169.678 140.257H168.926V141.463ZM172.576 143C172.554 142.955 172.535 142.875 172.521 142.759C172.339 142.948 172.122 143.042 171.87 143.042C171.645 143.042 171.459 142.979 171.314 142.852C171.171 142.724 171.099 142.562 171.099 142.366C171.099 142.128 171.189 141.943 171.369 141.812C171.551 141.68 171.806 141.614 172.134 141.614H172.515V141.434C172.515 141.297 172.474 141.189 172.392 141.108C172.311 141.027 172.19 140.986 172.031 140.986C171.891 140.986 171.774 141.021 171.68 141.091C171.586 141.162 171.538 141.247 171.538 141.347H171.145C171.145 141.233 171.185 141.123 171.266 141.017C171.347 140.91 171.457 140.826 171.595 140.764C171.735 140.702 171.888 140.671 172.054 140.671C172.318 140.671 172.524 140.737 172.673 140.87C172.823 141.001 172.9 141.182 172.906 141.413V142.465C172.906 142.675 172.933 142.842 172.986 142.966V143H172.576ZM171.927 142.702C172.05 142.702 172.166 142.67 172.276 142.607C172.386 142.543 172.466 142.461 172.515 142.36V141.89H172.208C171.729 141.89 171.49 142.031 171.49 142.311C171.49 142.434 171.531 142.529 171.612 142.598C171.694 142.667 171.799 142.702 171.927 142.702ZM173.426 141.838C173.426 141.481 173.508 141.198 173.673 140.988C173.838 140.777 174.056 140.671 174.328 140.671C174.607 140.671 174.825 140.769 174.981 140.967L175 140.713H175.358V142.945C175.358 143.241 175.269 143.474 175.093 143.645C174.919 143.815 174.683 143.9 174.387 143.9C174.223 143.9 174.061 143.865 173.903 143.795C173.746 143.724 173.625 143.628 173.542 143.505L173.745 143.271C173.913 143.478 174.118 143.581 174.36 143.581C174.55 143.581 174.698 143.528 174.804 143.421C174.911 143.314 174.964 143.163 174.964 142.968V142.772C174.808 142.952 174.595 143.042 174.324 143.042C174.056 143.042 173.839 142.934 173.673 142.719C173.508 142.503 173.426 142.21 173.426 141.838ZM173.819 141.882C173.819 142.14 173.872 142.343 173.977 142.491C174.083 142.637 174.231 142.71 174.421 142.71C174.668 142.71 174.849 142.598 174.964 142.374V141.33C174.845 141.112 174.665 141.003 174.425 141.003C174.235 141.003 174.087 141.077 173.98 141.225C173.872 141.373 173.819 141.592 173.819 141.882ZM177.361 143C177.339 142.955 177.32 142.875 177.306 142.759C177.124 142.948 176.908 143.042 176.655 143.042C176.43 143.042 176.245 142.979 176.099 142.852C175.956 142.724 175.884 142.562 175.884 142.366C175.884 142.128 175.974 141.943 176.154 141.812C176.336 141.68 176.591 141.614 176.919 141.614H177.3V141.434C177.3 141.297 177.259 141.189 177.177 141.108C177.096 141.027 176.975 140.986 176.816 140.986C176.676 140.986 176.559 141.021 176.465 141.091C176.371 141.162 176.323 141.247 176.323 141.347H175.93C175.93 141.233 175.97 141.123 176.051 141.017C176.133 140.91 176.242 140.826 176.381 140.764C176.52 140.702 176.673 140.671 176.839 140.671C177.103 140.671 177.309 140.737 177.458 140.87C177.608 141.001 177.685 141.182 177.691 141.413V142.465C177.691 142.675 177.718 142.842 177.771 142.966V143H177.361ZM176.712 142.702C176.835 142.702 176.951 142.67 177.061 142.607C177.171 142.543 177.251 142.461 177.3 142.36V141.89H176.993C176.514 141.89 176.275 142.031 176.275 142.311C176.275 142.434 176.316 142.529 176.397 142.598C176.479 142.667 176.584 142.702 176.712 142.702ZM179.409 141.064C179.35 141.054 179.286 141.049 179.217 141.049C178.96 141.049 178.786 141.158 178.695 141.377V143H178.304V140.713H178.684L178.691 140.977C178.819 140.773 179.001 140.671 179.236 140.671C179.312 140.671 179.37 140.681 179.409 140.7V141.064ZM182.605 142.197H181.316L181.026 143H180.608L181.783 139.923H182.138L183.315 143H182.899L182.605 142.197ZM181.438 141.863H182.484L181.96 140.424L181.438 141.863ZM184.093 143H183.702V139.754H184.093V143ZM186.132 142.774C185.98 142.953 185.757 143.042 185.462 143.042C185.219 143.042 185.033 142.972 184.905 142.831C184.778 142.689 184.714 142.479 184.712 142.201V140.713H185.103V142.191C185.103 142.537 185.244 142.71 185.526 142.71C185.825 142.71 186.023 142.599 186.122 142.376V140.713H186.513V143H186.141L186.132 142.774ZM187.016 141.838C187.016 141.481 187.098 141.198 187.263 140.988C187.428 140.777 187.647 140.671 187.918 140.671C188.197 140.671 188.415 140.769 188.572 140.967L188.591 140.713H188.948V142.945C188.948 143.241 188.86 143.474 188.684 143.645C188.509 143.815 188.274 143.9 187.978 143.9C187.813 143.9 187.651 143.865 187.494 143.795C187.336 143.724 187.215 143.628 187.132 143.505L187.335 143.271C187.503 143.478 187.708 143.581 187.95 143.581C188.14 143.581 188.288 143.528 188.394 143.421C188.501 143.314 188.555 143.163 188.555 142.968V142.772C188.398 142.952 188.185 143.042 187.914 143.042C187.647 143.042 187.43 142.934 187.263 142.719C187.098 142.503 187.016 142.21 187.016 141.838ZM187.409 141.882C187.409 142.14 187.462 142.343 187.568 142.491C187.673 142.637 187.821 142.71 188.011 142.71C188.258 142.71 188.439 142.598 188.555 142.374V141.33C188.435 141.112 188.255 141.003 188.016 141.003C187.825 141.003 187.677 141.077 187.57 141.225C187.463 141.373 187.409 141.592 187.409 141.882ZM190.951 142.774C190.799 142.953 190.576 143.042 190.281 143.042C190.038 143.042 189.852 142.972 189.723 142.831C189.597 142.689 189.533 142.479 189.531 142.201V140.713H189.922V142.191C189.922 142.537 190.063 142.71 190.345 142.71C190.644 142.71 190.842 142.599 190.941 142.376V140.713H191.332V143H190.96L190.951 142.774ZM192.877 143.042C192.567 143.042 192.315 142.941 192.12 142.738C191.926 142.534 191.829 142.261 191.829 141.92V141.848C191.829 141.621 191.872 141.419 191.957 141.242C192.045 141.063 192.166 140.923 192.321 140.823C192.477 140.722 192.646 140.671 192.828 140.671C193.126 140.671 193.357 140.769 193.521 140.965C193.686 141.16 193.769 141.441 193.769 141.806V141.969H192.22C192.225 142.194 192.291 142.376 192.416 142.516C192.543 142.654 192.704 142.723 192.898 142.723C193.036 142.723 193.153 142.695 193.249 142.639C193.345 142.582 193.429 142.508 193.5 142.415L193.739 142.601C193.548 142.895 193.26 143.042 192.877 143.042ZM192.828 140.992C192.67 140.992 192.538 141.05 192.431 141.165C192.324 141.28 192.258 141.44 192.232 141.647H193.378V141.618C193.367 141.419 193.313 141.265 193.217 141.157C193.121 141.047 192.992 140.992 192.828 140.992ZM194.648 143H194.257V139.754H194.648V143Z" fill="#FAFAFA"/>
</svg>
