<svg width="117" height="35" viewBox="0 0 117 35" fill="none" xmlns="http://www.w3.org/2000/svg">
<path d="M8.64968 34L0.43907 10.2463H4.61023L10.406 28.7312L15.8943 10.2463H20.1094L25.4221 28.7312L31.2618 10.2463H35.5207L27.2223 34H23.3585L18.0019 15.8664L12.5135 34H10.406H8.64968ZM42.2094 34H38.4334V10.2463H42.2094V34ZM38.1699 2.38697C38.1699 1.77228 38.3748 1.26003 38.7846 0.850229C39.2237 0.411159 39.7359 0.191625 40.3214 0.191625C40.9361 0.191625 41.4483 0.411159 41.8581 0.850229C42.2972 1.26003 42.5167 1.77228 42.5167 2.38697C42.5167 2.9724 42.2972 3.48465 41.8581 3.92372C41.4483 4.33352 40.9361 4.53842 40.3214 4.53842C39.7359 4.53842 39.2237 4.33352 38.7846 3.92372C38.3748 3.48465 38.1699 2.9724 38.1699 2.38697ZM79.2404 34H74.1472H73.4008H69.3614H66.4196C65.7756 34 65.2195 33.8097 64.7511 33.4292C64.3121 33.0487 64.0925 32.4779 64.0925 31.7168C64.0925 31.2485 64.1803 30.7216 64.356 30.1362C64.5609 29.5508 64.9121 28.9068 65.4097 28.2043L75.2888 13.715H65.5854L64.0925 10.2463H69.2296H70.3273H74.3668H76.0791C76.928 10.2463 77.6012 10.4512 78.0988 10.861C78.6257 11.2415 78.8892 11.8123 78.8892 12.5734C78.8892 12.9832 78.8014 13.4515 78.6257 13.9784C78.4794 14.476 78.2013 15.0322 77.7915 15.6469L67.9563 30.6631H78.2306L79.2404 34ZM85.9222 23.0672V24.2526C85.9222 25.2771 85.9515 26.2138 86.01 27.0627C86.0685 27.9116 86.2442 28.658 86.5369 29.302C86.8589 29.9459 87.3565 30.4435 88.0297 30.7948C88.703 31.146 89.6689 31.3217 90.9276 31.3217C92.8302 31.3217 94.1328 30.9411 94.8353 30.1801C95.5378 29.3898 95.8891 28.2921 95.8891 26.8871C96.0647 26.8871 96.3135 26.8871 96.6355 26.8871C96.9575 26.8871 97.2941 26.8871 97.6453 26.8871C97.9966 26.8578 98.3479 26.8432 98.6991 26.8432C99.0504 26.8432 99.3577 26.8432 99.6212 26.8432C99.6212 27.9847 99.4894 29.0239 99.226 29.9606C98.9626 30.868 98.4942 31.6583 97.821 32.3315C97.177 32.9755 96.2842 33.4878 95.1426 33.8683C94.0303 34.2195 92.6253 34.3952 90.9276 34.3952C88.9371 34.3952 87.3565 34.1464 86.1856 33.6487C85.044 33.1219 84.1805 32.4193 83.5951 31.5412C83.0097 30.6338 82.6292 29.5654 82.4535 28.336C82.2779 27.1066 82.1901 25.7601 82.1901 24.2966V19.9937C82.1901 18.5301 82.2633 17.1836 82.4096 15.9542C82.5853 14.6956 82.9658 13.6125 83.5512 12.7051C84.1659 11.7977 85.044 11.0952 86.1856 10.5976C87.3565 10.0707 88.9371 9.80725 90.9276 9.80725C92.7717 9.80725 94.2645 10.0561 95.4061 10.5537C96.5477 11.0513 97.4258 11.7538 98.0405 12.6612C98.6845 13.5393 99.1089 14.6224 99.3138 15.9103C99.548 17.169 99.6651 18.574 99.6651 20.1254V23.0672H85.9222ZM90.9276 12.8807C89.6689 12.8807 88.703 13.071 88.0297 13.4515C87.3565 13.8028 86.8589 14.2858 86.5369 14.9005C86.2442 15.5152 86.0685 16.2323 86.01 17.0519C85.9515 17.8715 85.9222 18.7496 85.9222 19.6863V20.1254H95.933C95.933 18.896 95.8744 17.8276 95.7573 16.9202C95.6695 16.0128 95.45 15.2664 95.0987 14.6809C94.7768 14.0662 94.2791 13.6125 93.6059 13.3198C92.9619 13.0271 92.0692 12.8807 90.9276 12.8807ZM103.036 18.1935C103.036 16.6714 103.168 15.4127 103.431 14.4175C103.695 13.393 104.192 12.5734 104.924 11.9587C105.656 11.344 106.636 10.9049 107.866 10.6415C109.124 10.378 110.749 10.2463 112.739 10.2463H116.954L115.374 13.3637H113.003C111.744 13.3637 110.705 13.4369 109.885 13.5833C109.095 13.7003 108.466 13.9345 107.997 14.2858C107.529 14.637 107.207 15.1346 107.031 15.7786C106.856 16.3933 106.768 17.1983 106.768 18.1935V34H103.036V18.1935Z" fill="#055EFF"/>
<path d="M61.2746 34H56.1814H55.435H51.3955H48.4538C47.8098 34 47.2536 33.8097 46.7853 33.4292C46.3462 33.0487 46.1267 32.4779 46.1267 31.7168C46.1267 31.2485 46.2145 30.7216 46.3901 30.1362C46.595 29.5508 46.9463 28.9068 47.4439 28.2043L57.323 13.715H47.6195L46.1267 10.2463H51.2638H52.3615H56.4009H58.1133C58.9622 10.2463 59.6354 10.4512 60.133 10.861C60.6599 11.2415 60.9233 11.8123 60.9233 12.5734C60.9233 12.9832 60.8355 13.4515 60.6599 13.9784C60.5135 14.476 60.2355 15.0322 59.8257 15.6469L49.9905 30.6631H60.2647L61.2746 34Z" fill="#11DE9A"/>
</svg>
