<svg width="151" height="109" viewBox="0 0 151 109" fill="none" xmlns="http://www.w3.org/2000/svg">
<path d="M150.869 98.7891H0V98.8645H150.869V98.7891Z" fill="#E0E0E0"/>
<path d="M122.358 102.072H116.16V102.147H122.358V102.072Z" fill="#E0E0E0"/>
<path d="M128.399 102.033H124.57V102.108H128.399V102.033Z" fill="#E0E0E0"/>
<path d="M95.2588 102.033H83.5483V102.108H95.2588V102.033Z" fill="#E0E0E0"/>
<path d="M60.8515 103.357H46.531V103.433H60.8515V103.357Z" fill="#E0E0E0"/>
<path d="M30.9311 100.971H28.7979V101.046H30.9311V100.971Z" fill="#E0E0E0"/>
<path d="M49.0506 100.971H32.6089V101.046H49.0506V100.971Z" fill="#E0E0E0"/>
<path d="M29.8661 102.793H21.2273V102.869H29.8661V102.793Z" fill="#E0E0E0"/>
<path d="M71.5119 85.3316H13.2492C12.7928 85.3308 12.3553 85.149 12.0329 84.8259C11.7104 84.5029 11.5293 84.0651 11.5293 83.6087V1.70784C11.5333 1.25403 11.7161 0.820119 12.0382 0.500348C12.3602 0.180578 12.7954 0.000777395 13.2492 0H71.5119C71.9688 0 72.4071 0.181522 72.7302 0.504634C73.0533 0.827745 73.2348 1.26598 73.2348 1.72293V83.6087C73.2348 84.0657 73.0533 84.5039 72.7302 84.827C72.4071 85.1501 71.9688 85.3316 71.5119 85.3316ZM13.2492 0.0603479C12.8128 0.0611472 12.3945 0.235074 12.0862 0.543952C11.7779 0.85283 11.6047 1.27142 11.6047 1.70784V83.6087C11.6047 84.0451 11.7779 84.4637 12.0862 84.7726C12.3945 85.0815 12.8128 85.2554 13.2492 85.2562H71.5119C71.9486 85.2554 72.3672 85.0816 72.676 84.7728C72.9847 84.464 73.1586 84.0454 73.1594 83.6087V1.70784C73.1586 1.27114 72.9847 0.85256 72.676 0.543768C72.3672 0.234976 71.9486 0.0611455 71.5119 0.0603479H13.2492Z" fill="#E0E0E0"/>
<path d="M136.781 85.3316H78.5154C78.0587 85.3308 77.6209 85.1491 77.298 84.8261C76.9751 84.5032 76.7933 84.0654 76.7925 83.6087V1.70784C76.7972 1.25376 76.9808 0.819847 77.3033 0.500159C77.6258 0.180472 78.0613 0.000768917 78.5154 0H136.781C137.234 0.0015704 137.669 0.181722 137.99 0.501407C138.312 0.821093 138.494 1.25455 138.498 1.70784V83.6087C138.498 84.0646 138.317 84.5019 137.995 84.8249C137.674 85.1478 137.237 85.33 136.781 85.3316ZM78.5154 0.0603479C78.0787 0.0611455 77.6601 0.234976 77.3513 0.543768C77.0425 0.85256 76.8687 1.27114 76.8679 1.70784V83.6087C76.8687 84.0454 77.0425 84.464 77.3513 84.7728C77.6601 85.0816 78.0787 85.2554 78.5154 85.2562H136.781C137.218 85.2554 137.636 85.0816 137.945 84.7728C138.254 84.464 138.428 84.0454 138.429 83.6087V1.70784C138.428 1.27114 138.254 0.85256 137.945 0.543768C137.636 0.234976 137.218 0.0611455 136.781 0.0603479H78.5154Z" fill="#E0E0E0"/>
<path d="M23.3033 98.7891H17.1026C17.1026 98.7891 13.2765 95.3976 12.0424 90.8473C11.4661 88.7503 14.2873 87.3049 15.9922 88.8016C19.9811 92.3078 23.3033 98.7891 23.3033 98.7891Z" fill="#EBEBEB"/>
<path d="M25.9134 98.7891H19.7127C19.7127 98.7891 16.1673 91.5051 17.5372 86.2036C17.6434 85.788 17.8603 85.409 18.1649 85.107C18.4694 84.8049 18.8502 84.5911 19.2666 84.4883C19.683 84.3855 20.1195 84.3976 20.5297 84.5232C20.9398 84.6489 21.3081 84.8834 21.5955 85.2018C26.2846 90.3615 25.9134 98.7891 25.9134 98.7891Z" fill="#EBEBEB"/>
<path d="M25.9192 98.7892H29.9233C29.9233 98.7892 32.4337 94.3627 34.7903 88.9223C36.99 83.8501 33.2424 81.7319 30.8888 86.7166C27.8956 93.0592 25.9192 98.7892 25.9192 98.7892Z" fill="#EBEBEB"/>
<path d="M27.0146 98.7891H33.2154C33.2154 98.7891 39.4583 95.8351 39.1113 90.2439C39.0178 88.7804 37.3462 87.83 35.8646 88.3972C29.2083 90.9499 27.0146 98.7891 27.0146 98.7891Z" fill="#EBEBEB"/>
<path d="M23.5355 98.7891H29.7332C29.7332 98.7891 31.607 88.4455 29.3862 81.931C28.7224 79.9848 26.3689 79.6438 25.2766 81.3275C21.2363 87.6278 23.5355 98.7891 23.5355 98.7891Z" fill="#EBEBEB"/>
<path d="M64.6052 43.752L82.0729 29.8811L132.991 46.2655H64.6052V43.752Z" fill="#E0E0E0"/>
<path d="M101.755 98.7891H130.855V48.782L101.755 48.782V98.7891Z" fill="#EBEBEB"/>
<path d="M123.36 98.7892H117.762C117.762 98.7892 114.313 96.0735 113.191 92.4044C112.675 90.7177 115.219 89.553 116.758 90.7569C120.36 93.5782 123.36 98.7892 123.36 98.7892Z" fill="#F5F5F5"/>
<path d="M125.719 98.7892H120.119C120.119 98.7892 116.918 92.9324 118.155 88.6689C118.583 87.1904 120.665 86.7347 121.818 87.8632C126.054 92.0121 125.719 98.7892 125.719 98.7892Z" fill="#F5F5F5"/>
<path d="M125.725 98.7891H129.346C130.946 96.221 132.414 93.5734 133.746 90.8564C135.731 86.7769 132.345 85.0721 130.221 89.0822C128.553 92.2365 127.052 95.4767 125.725 98.7891Z" fill="#F5F5F5"/>
<path d="M126.712 98.7892H132.312C132.312 98.7892 137.952 96.4145 137.635 91.9186C137.553 90.7419 136.042 89.9784 134.705 90.4341C128.694 92.4859 126.712 98.7892 126.712 98.7892Z" fill="#F5F5F5"/>
<path d="M123.571 98.7891H129.168C129.168 98.7891 130.861 90.4732 128.866 85.232C128.726 84.8765 128.493 84.5652 128.191 84.3304C127.89 84.0957 127.53 83.9462 127.151 83.8975C126.772 83.8488 126.387 83.9027 126.036 84.0536C125.685 84.2045 125.381 84.4468 125.155 84.7553C121.495 89.8124 123.571 98.7891 123.571 98.7891Z" fill="#F5F5F5"/>
<path d="M101.752 48.7821H130.855L132.991 46.2656H101.752V48.7821Z" fill="#E0E0E0"/>
<path d="M117.998 52.9431H88.9495V77.2512H117.998V52.9431Z" fill="#E0E0E0"/>
<path d="M116.634 75.7152V54.4758H90.3164V75.7152H116.634Z" fill="#F5F5F5"/>
<path d="M117.437 64.0652H89.5168V66.123H117.437V64.0652Z" fill="#E0E0E0"/>
<path d="M101.752 40.0859H27.458V98.7861H101.752V40.0859Z" fill="#F5F5F5"/>
<path d="M67.9696 50.5564H33.2153V79.6379H67.9696V50.5564Z" fill="#EBEBEB"/>
<path d="M66.3342 77.8033V52.3909H34.8478V77.8033H66.3342Z" fill="#FAFAFA"/>
<path d="M66.3372 72.5531V52.3879H34.8508V72.5531H66.3372Z" fill="#F5F5F5"/>
<path d="M67.2936 71.3218H33.8911V73.784H67.2936V71.3218Z" fill="#EBEBEB"/>
<path d="M75.9295 91.5928H95.7869V49.3705H75.9295V91.5928Z" fill="#E0E0E0"/>
<path d="M94.7397 91.5926V50.3298H76.9734V91.5926H94.7397Z" fill="#EBEBEB"/>
<path d="M93.1677 68.1958V51.9834H78.5394V68.1958H93.1677Z" fill="#E0E0E0"/>
<path d="M93.1709 86.8887V70.6763H78.5426V86.8887H93.1709Z" fill="#E0E0E0"/>
<path d="M102.959 44.1776H26.2512V38.8791L64.6052 18.8979L102.959 38.8791V44.1776Z" fill="#EBEBEB"/>
<path d="M106.351 41.667L64.6052 19.9207L22.8597 41.667L22.0239 40.0617L64.6052 17.8779L107.187 40.0617L106.351 41.667Z" fill="#E0E0E0"/>
<path d="M64.6052 40.6533C62.9711 40.6539 61.3735 40.1699 60.0145 39.2625C58.6555 38.355 57.5961 37.065 56.9703 35.5554C56.3446 34.0458 56.1805 32.3846 56.499 30.7818C56.8174 29.179 57.604 27.7067 58.7593 26.551C59.9146 25.3953 61.3866 24.6081 62.9893 24.2891C64.592 23.9701 66.2533 24.1335 67.7631 24.7587C69.2728 25.3839 70.5633 26.4428 71.4712 27.8015C72.3792 29.1602 72.8638 30.7576 72.8638 32.3917C72.8614 34.5816 71.9906 36.6811 70.4424 38.2299C68.8943 39.7786 66.7951 40.6501 64.6052 40.6533ZM64.6052 25.9436C63.329 25.943 62.0813 26.3209 61.02 27.0295C59.9586 27.7382 59.1313 28.7457 58.6427 29.9246C58.154 31.1035 58.026 32.4009 58.2748 33.6526C58.5236 34.9043 59.1381 36.054 60.0405 36.9564C60.9429 37.8588 62.0927 38.4733 63.3444 38.7221C64.596 38.9709 65.8934 38.8429 67.0723 38.3543C68.2512 37.8656 69.2588 37.0383 69.9674 35.9769C70.676 34.9156 71.0539 33.6679 71.0533 32.3917C71.0494 30.6834 70.3685 29.0462 69.16 27.8387C67.9514 26.6313 66.3136 25.952 64.6052 25.9496V25.9436Z" fill="#E0E0E0"/>
<path d="M64.6052 38.4052C67.9264 38.4052 70.6188 35.7128 70.6188 32.3916C70.6188 29.0703 67.9264 26.3779 64.6052 26.3779C61.284 26.3779 58.5916 29.0703 58.5916 32.3916C58.5916 35.7128 61.284 38.4052 64.6052 38.4052Z" fill="#F5F5F5"/>
<path d="M98.3334 90.8896H73.3796V92.1841H98.3334V90.8896Z" fill="#EBEBEB"/>
<path d="M97.7631 92.187H73.95V94.8393H97.7631V92.187Z" fill="#E0E0E0"/>
<path d="M100.228 94.8394H71.4849V96.1338H100.228V94.8394Z" fill="#EBEBEB"/>
<path d="M99.5706 96.1338H72.1426V98.7861H99.5706V96.1338Z" fill="#E0E0E0"/>
<path d="M93.7653 68.4374C93.7653 68.654 93.7011 68.8658 93.5807 69.0459C93.4604 69.226 93.2893 69.3664 93.0892 69.4493C92.889 69.5322 92.6688 69.5539 92.4563 69.5116C92.2439 69.4694 92.0487 69.365 91.8955 69.2119C91.7423 69.0587 91.638 68.8635 91.5958 68.651C91.5535 68.4386 91.5752 68.2183 91.6581 68.0182C91.741 67.8181 91.8814 67.647 92.0615 67.5266C92.2416 67.4063 92.4534 67.342 92.67 67.342C92.9605 67.342 93.2391 67.4574 93.4445 67.6628C93.6499 67.8683 93.7653 68.1469 93.7653 68.4374Z" fill="#FAFAFA"/>
<path d="M22.214 10.6816C20.4639 6.90082 21.855 4.2063 26.1366 4.2063C28.8191 4.2063 32.1442 5.26842 35.3849 6.99134C35.75 6.00768 36.7819 5.41929 38.4415 5.41929C41.3593 5.41929 45.3815 7.22972 48.5377 9.80958C49.3011 9.2393 50.4054 8.88626 51.8266 8.83195C54.6147 8.71427 58.0002 9.7613 60.9512 11.4661C61.3009 11.1382 61.7665 10.9624 62.2457 10.9773C63.8569 10.9109 66.0355 11.967 67.1157 13.3339C67.1851 13.4214 67.2455 13.5029 67.3028 13.5873H20.0415C18.5479 12.2416 20.1984 10.748 22.214 10.6816Z" fill="#F5F5F5"/>
<path d="M83.9918 17.0875C84.126 17.0728 84.261 17.0658 84.3961 17.0664C84.2724 15.6633 84.9996 14.7671 86.5505 14.7671C87.673 14.7671 89.0459 15.2348 90.446 16.0254C90.0477 13.3097 91.33 11.5325 94.2358 11.5325C96.5803 11.5325 99.5494 12.6851 102.482 14.5499C102.739 13.4817 103.605 12.842 105.056 12.842C107.606 12.842 111.23 14.8184 114.135 17.6095C114.763 16.9879 115.704 16.6047 116.945 16.5413C119.374 16.4176 122.376 17.5522 125.061 19.4048C125.188 19.233 125.355 19.0947 125.548 19.0021C125.74 18.9096 125.952 18.8655 126.166 18.8738C127.493 18.8044 129.322 19.8273 130.39 21.1941H81.8555C80.7149 19.1333 81.6231 17.3198 83.9918 17.0875Z" fill="#F5F5F5"/>
<path d="M92.2258 19.1597L91.8595 18.2696C91.7986 18.1216 91.6293 18.0511 91.4814 18.112L73.9973 25.3077C73.8494 25.3686 73.7788 25.5378 73.8397 25.6858L74.206 26.5759C74.2669 26.7238 74.4362 26.7944 74.5841 26.7335L92.0682 19.5378C92.2162 19.4769 92.2867 19.3076 92.2258 19.1597Z" fill="#055EFF"/>
<path opacity="0.6" d="M92.2258 19.1597L91.8595 18.2696C91.7986 18.1216 91.6293 18.0511 91.4814 18.112L73.9973 25.3077C73.8494 25.3686 73.7788 25.5378 73.8397 25.6858L74.206 26.5759C74.2669 26.7238 74.4362 26.7944 74.5841 26.7335L92.0682 19.5378C92.2162 19.4769 92.2867 19.3076 92.2258 19.1597Z" fill="#FAFAFA"/>
<path d="M88.2436 21.1099L87.6567 19.6841L86.3258 20.2319L86.9126 21.6577L88.2436 21.1099Z" fill="#055EFF"/>
<path opacity="0.3" d="M88.2436 21.1099L87.6567 19.6841L86.3258 20.2319L86.9126 21.6577L88.2436 21.1099Z" fill="#FAFAFA"/>
<path d="M91.7248 21.0728L90.1573 17.2641C89.8047 16.4072 88.8242 15.9985 87.9674 16.3511L87.786 16.4258C86.9292 16.7784 86.5205 17.7589 86.8731 18.6157L88.4406 22.4245C88.7933 23.2813 89.7737 23.69 90.6305 23.3374L90.8119 23.2627C91.6687 22.9101 92.0775 21.9297 91.7248 21.0728Z" fill="#055EFF"/>
<path opacity="0.3" d="M91.7248 21.0728L90.1573 17.2641C89.8047 16.4072 88.8242 15.9985 87.9674 16.3511L87.786 16.4258C86.9292 16.7784 86.5205 17.7589 86.8731 18.6157L88.4406 22.4245C88.7933 23.2813 89.7737 23.69 90.6305 23.3374L90.8119 23.2627C91.6687 22.9101 92.0775 21.9297 91.7248 21.0728Z" fill="black"/>
<path d="M83.1712 106.275H80.9745L80.3892 101.182H82.5888L83.1712 106.275Z" fill="#E4897B"/>
<path d="M98.6443 106.275H96.4446L94.7307 101.182H96.9304L98.6443 106.275Z" fill="#E4897B"/>
<path d="M96.1519 106.019H98.8314C98.8752 106.019 98.9177 106.033 98.9518 106.061C98.9858 106.088 99.0094 106.127 99.0184 106.17L99.4529 108.125C99.4629 108.172 99.4621 108.221 99.4506 108.268C99.4391 108.315 99.4171 108.359 99.3864 108.396C99.3557 108.434 99.317 108.464 99.2732 108.484C99.2293 108.504 99.1815 108.515 99.1331 108.514C98.2701 108.499 97.6244 108.451 96.5532 108.451C95.8864 108.451 94.5105 108.52 93.5871 108.52C92.6638 108.52 92.5431 107.615 92.9203 107.524C94.6161 107.153 95.2527 106.643 95.7959 106.155C95.8935 106.067 96.0205 106.018 96.1519 106.019Z" fill="#263238"/>
<path d="M80.9896 106.019H83.4035C83.447 106.02 83.489 106.035 83.5229 106.062C83.5567 106.09 83.5806 106.127 83.5906 106.17L84.0251 108.125C84.0356 108.172 84.0352 108.221 84.0241 108.268C84.013 108.315 83.9914 108.359 83.9609 108.396C83.9305 108.434 83.8919 108.464 83.8481 108.484C83.8044 108.505 83.7566 108.515 83.7083 108.514C82.8423 108.499 81.5961 108.451 80.5008 108.451C79.2275 108.451 78.1291 108.52 76.6355 108.52C75.7303 108.52 75.4829 107.615 75.8631 107.524C77.583 107.147 78.9861 107.108 80.4706 106.191C80.6249 106.088 80.8042 106.028 80.9896 106.019Z" fill="#263238"/>
<path d="M81.5961 43.1244C81.231 42.8226 80.9111 42.539 80.5853 42.2192C80.2594 41.8993 79.9426 41.6157 79.6288 41.3139C79.0011 40.6894 78.3946 40.0436 77.8183 39.3677C77.242 38.6918 76.6808 37.9828 76.1527 37.2375L75.7665 36.6672L75.4014 36.0637C75.2777 35.8706 75.1691 35.6503 75.0544 35.4421L74.8854 35.1253C74.8251 34.9986 74.7647 34.8749 74.7104 34.7451C74.2954 33.7334 74.1418 32.6334 74.2638 31.5467C74.3774 30.565 74.6463 29.6076 75.0604 28.7103C75.4434 27.8679 75.9105 27.0662 76.4545 26.3176C76.72 25.9494 77.0036 25.5964 77.2933 25.2524C77.5885 24.9033 77.9017 24.57 78.2317 24.2537L79.4688 25.346C79.2667 25.6477 79.0404 26.0158 78.8382 26.3598C78.636 26.7038 78.4459 27.0659 78.2679 27.4249C77.9124 28.1232 77.6157 28.8499 77.3808 29.5974C76.9252 31.0518 76.8799 32.4972 77.4321 33.52C77.4623 33.5864 77.5015 33.6468 77.5377 33.7101L77.6886 33.9485C77.7942 34.1054 77.8817 34.2653 77.9903 34.4192L78.3252 34.8899L78.6873 35.3576C79.1792 35.9611 79.7072 36.5646 80.2594 37.1681C80.8116 37.7715 81.3909 38.3448 81.9763 38.9151C82.5617 39.4854 83.1832 40.0587 83.7535 40.5837L81.5961 43.1244Z" fill="#E4897B"/>
<path d="M84.5472 44.6753C82.4924 45.1158 77.3206 40.5475 77.3206 40.5475L80.3379 36.5525C80.3379 36.5525 83.3885 39.0599 85.9714 39.9139C88.6146 40.7919 86.8042 44.1895 84.5472 44.6753Z" fill="#263238"/>
<path d="M77.396 25.8983L77.6495 24.0396H80.5401C80.5401 24.0396 79.831 26.8548 78.2409 26.6677L77.396 25.8983Z" fill="#E4897B"/>
<path d="M78.3012 22.7178L80.2594 22.2561L80.5401 24.0394H77.6494L78.3012 22.7178Z" fill="#E4897B"/>
<path d="M80.3892 101.185L80.6909 103.81H82.8906L82.5888 101.185H80.3892Z" fill="#CE6F64"/>
<path d="M96.9336 101.185H94.7339L95.615 103.81H97.8146L96.9336 101.185Z" fill="#CE6F64"/>
<path d="M81.6112 40.8129C81.6112 40.8129 79.0162 47.4512 81.4814 59.8224H93.2492C93.3307 58.012 92.1962 49.2133 93.9372 40.7073C92.6417 40.4575 91.3315 40.2911 90.0146 40.2094C88.3494 40.1128 86.68 40.1128 85.0148 40.2094C83.8662 40.3214 82.7282 40.5231 81.6112 40.8129Z" fill="#263238"/>
<path d="M85.5218 44.2346C84.5652 44.1894 84.0463 44.1984 83.82 44.2105H83.7355C83.2979 46.3076 82.8484 49.8621 83.2467 54.7713L86.427 54.8377C86.4178 51.3232 86.6649 47.8128 87.1662 44.3342C86.6804 44.301 86.1071 44.2618 85.5218 44.2346Z" fill="#055EFF"/>
<path opacity="0.3" d="M85.5218 44.2346C84.5652 44.1894 84.0463 44.1984 83.82 44.2105H83.7355C83.2979 46.3076 82.8484 49.8621 83.2467 54.7713L86.427 54.8377C86.4178 51.3232 86.6649 47.8128 87.1662 44.3342C86.6804 44.301 86.1071 44.2618 85.5218 44.2346Z" fill="#FAFAFA"/>
<path d="M89.4955 34.573C89.1937 36.1813 88.8679 39.1292 89.9933 40.2004C88.7933 41.2713 87.2734 41.9161 85.6694 42.035C84.3689 41.5643 84.6073 40.7677 84.7401 40.5082C84.8482 40.3253 85.0237 40.192 85.2289 40.1371C86.7828 39.6513 86.7376 38.384 86.4358 37.1921L89.4955 34.573Z" fill="#E4897B"/>
<path d="M88.2465 35.6411L86.436 37.192C86.5133 37.4826 86.5648 37.7795 86.5899 38.0792C87.293 38.1697 88.2404 37.4757 88.2404 36.6942C88.2705 36.3439 88.2725 35.9917 88.2465 35.6411Z" fill="#CE6F64"/>
<path d="M83.5816 29.8961C82.5738 30.4996 82.2811 33.8911 83.7475 34.395C85.214 34.8989 85.4946 28.7616 83.5816 29.8961Z" fill="#263238"/>
<path d="M85.5245 31.6825C84.4745 31.5497 81.1795 31.7911 81.967 29.7061C82.7546 27.6211 86.2185 28.9095 86.4931 29.8931C86.7677 30.8768 87.3591 31.9238 85.5245 31.6825Z" fill="#263238"/>
<path d="M89.0612 31.9843C89.2211 34.1598 89.4263 35.4241 88.4879 36.6823C87.0758 38.5712 84.2787 37.9466 83.47 35.8616C82.7428 33.9848 82.601 30.7321 84.5955 29.5975C85.0341 29.3423 85.5307 29.2035 86.038 29.1943C86.5454 29.1852 87.0466 29.3059 87.4942 29.5451C87.9417 29.7843 88.3206 30.134 88.5949 30.5609C88.8692 30.9878 89.0297 31.4778 89.0612 31.9843Z" fill="#E4897B"/>
<path d="M89.1968 34.1264C88.1227 34.751 85.2169 30.4422 88.6356 29.4706C92.0543 28.499 90.9379 33.1186 89.1968 34.1264Z" fill="#263238"/>
<path d="M87.6369 31.2691C86.2338 30.8648 81.7017 30.4876 83.2165 27.8202C84.7312 25.1529 89.1728 27.6452 89.3236 29.0272C89.4745 30.4092 90.084 31.9842 87.6369 31.2691Z" fill="#263238"/>
<path d="M87.8239 30.4754C87.2385 29.4073 84.8065 26.5015 87.2656 25.8286C89.7248 25.1558 90.8865 29.2534 90.1352 30.1616C89.3838 31.0698 88.8437 32.3432 87.8239 30.4754Z" fill="#263238"/>
<path d="M90.0811 29.7573C90.3412 28.9287 90.4675 28.0639 90.4552 27.1956C90.7751 27.6844 91.0768 29.2685 90.0811 29.7573Z" fill="#263238"/>
<path d="M91.7708 29.6516C91.1155 29.5334 90.4428 29.5509 89.7944 29.7029C90.0901 29.3137 91.1945 28.7645 91.7708 29.6516Z" fill="#263238"/>
<path d="M88.5843 30.72C89.2089 31.3235 90.7448 33.5714 91.6802 31.9964C92.6155 30.4213 90.0146 28.8522 89.2451 29.1872C88.4757 29.5221 87.5041 29.6579 88.5843 30.72Z" fill="#263238"/>
<path d="M90.3586 34.2383C90.1306 34.7371 89.7155 35.1262 89.203 35.3215C88.521 35.572 88.1197 34.9745 88.2615 34.2986C88.3913 33.6952 88.8982 32.8322 89.6073 32.8714C89.7619 32.8826 89.9113 32.9324 90.0418 33.0161C90.1723 33.0998 90.2797 33.2148 90.3544 33.3507C90.4291 33.4865 90.4686 33.6389 90.4693 33.7939C90.4701 33.949 90.432 34.1017 90.3586 34.2383Z" fill="#E4897B"/>
<path d="M81.4693 59.8135C81.4693 59.8135 75.2686 75.525 75.5069 82.2296C75.7574 89.2028 79.855 103.3 79.855 103.3H83.5815C83.5815 103.3 82.0728 89.6162 82.2297 82.7607C82.4107 75.2957 89.2119 59.8286 89.2119 59.8286L81.4693 59.8135Z" fill="#055EFF"/>
<path d="M86.4209 65.0063L86.7799 65.815C85.4746 69.1747 84.3416 72.5989 83.3854 76.0741C83.2798 72.1153 84.1035 67.7401 86.4209 65.0063Z" fill="#055EFF"/>
<path opacity="0.2" d="M86.4209 65.0063L86.7799 65.815C85.4746 69.1747 84.3416 72.5989 83.3854 76.0741C83.2798 72.1153 84.1035 67.7401 86.4209 65.0063Z" fill="black"/>
<path d="M85.6514 59.8135C85.6514 59.8135 84.3992 75.8871 85.7691 82.1813C87.2778 89.0761 94.5829 103.303 94.5829 103.303H98.6081C98.6081 103.303 93.222 89.6343 92.3651 82.809C91.4357 75.4043 93.2401 59.8165 93.2401 59.8165L85.6514 59.8135Z" fill="#055EFF"/>
<path d="M93.8708 103.388H99.1332V101.969L93.2493 101.879L93.8708 103.388Z" fill="#055EFF"/>
<path opacity="0.6" d="M93.8708 103.388H99.1332V101.969L93.2493 101.879L93.8708 103.388Z" fill="#FAFAFA"/>
<path d="M79.0343 103.388H84.2997V101.954L78.4158 101.879L79.0343 103.388Z" fill="#055EFF"/>
<path opacity="0.6" d="M79.0343 103.388H84.2997V101.954L78.4158 101.879L79.0343 103.388Z" fill="#FAFAFA"/>
<path d="M85.8686 33.0433C85.8928 33.2183 85.8204 33.3722 85.7057 33.3873C85.5911 33.4024 85.4764 33.2757 85.4523 33.0856C85.4281 32.8955 85.5035 32.7567 85.6182 32.7416C85.7329 32.7265 85.8445 32.8653 85.8686 33.0433Z" fill="#263238"/>
<path d="M83.8833 33.3119C83.9074 33.4899 83.835 33.6438 83.7204 33.6589C83.6057 33.674 83.491 33.5442 83.4669 33.3571C83.4428 33.1701 83.5182 33.0252 83.6329 33.0101C83.7475 32.995 83.8592 33.1369 83.8833 33.3119Z" fill="#263238"/>
<path d="M84.526 33.3149C84.3905 33.8807 84.1773 34.425 83.8923 34.9323C84.0239 35.0016 84.1691 35.0413 84.3176 35.0486C84.4662 35.0559 84.6145 35.0306 84.7523 34.9745L84.526 33.3149Z" fill="#DE5753"/>
<path d="M85.3255 35.3908C85.3125 35.391 85.2999 35.3865 85.2899 35.3782C85.28 35.3699 85.2733 35.3583 85.2712 35.3455C85.2701 35.3317 85.2741 35.3179 85.2825 35.3068C85.2908 35.2957 85.3028 35.288 85.3164 35.2852C85.5357 35.2605 85.7462 35.1845 85.9307 35.0634C86.1152 34.9424 86.2686 34.7795 86.3785 34.5881C86.3814 34.5819 86.3856 34.5764 86.3906 34.5718C86.3957 34.5672 86.4017 34.5637 86.4081 34.5614C86.4146 34.5592 86.4215 34.5583 86.4283 34.5587C86.4351 34.5591 86.4418 34.5609 86.4479 34.564C86.4599 34.5705 86.4691 34.5812 86.4735 34.594C86.478 34.6069 86.4775 34.6209 86.4721 34.6334C86.3551 34.8406 86.1909 35.0173 85.9926 35.1489C85.7944 35.2805 85.5679 35.3634 85.3315 35.3908H85.3255Z" fill="#263238"/>
<path d="M86.3667 32.3221C86.3532 32.3213 86.3401 32.3176 86.3281 32.3114C86.3162 32.3051 86.3057 32.2965 86.2973 32.2859C86.2071 32.1911 86.096 32.1188 85.9729 32.0748C85.8497 32.0308 85.718 32.0163 85.5882 32.0325C85.561 32.0378 85.5328 32.0323 85.5096 32.017C85.4865 32.0018 85.4703 31.9781 85.4645 31.951C85.4614 31.9377 85.4611 31.9239 85.4636 31.9104C85.4661 31.897 85.4713 31.8842 85.479 31.8729C85.4866 31.8616 85.4965 31.852 85.508 31.8446C85.5195 31.8373 85.5324 31.8324 85.5459 31.8303C85.71 31.8032 85.8781 31.8166 86.0359 31.8691C86.1936 31.9217 86.3361 32.012 86.4511 32.132C86.4611 32.1416 86.469 32.1531 86.4744 32.1658C86.4798 32.1785 86.4826 32.1921 86.4826 32.206C86.4826 32.2198 86.4798 32.2334 86.4744 32.2461C86.469 32.2588 86.4611 32.2703 86.4511 32.2799C86.4413 32.293 86.4286 32.3036 86.4139 32.311C86.3992 32.3183 86.3831 32.3221 86.3667 32.3221Z" fill="#263238"/>
<path d="M82.9056 32.7505H82.8754C82.8625 32.7464 82.8506 32.7398 82.8402 32.731C82.8299 32.7223 82.8214 32.7115 82.8152 32.6995C82.809 32.6874 82.8053 32.6742 82.8043 32.6607C82.8032 32.6472 82.8048 32.6336 82.8091 32.6208C82.8559 32.4621 82.9405 32.3172 83.0555 32.1985C83.1706 32.0797 83.3128 31.9906 83.4699 31.9388C83.4829 31.9352 83.4966 31.9342 83.5101 31.9358C83.5236 31.9375 83.5366 31.9418 83.5484 31.9486C83.5602 31.9553 83.5705 31.9643 83.5788 31.9751C83.587 31.9858 83.5931 31.9981 83.5966 32.0113C83.6002 32.0243 83.6013 32.038 83.5996 32.0515C83.5979 32.065 83.5936 32.078 83.5869 32.0897C83.5801 32.1015 83.5711 32.1119 83.5604 32.1201C83.5496 32.1284 83.5373 32.1345 83.5242 32.138C83.4008 32.1818 83.2896 32.2541 83.1994 32.349C83.1092 32.4439 83.0427 32.5587 83.0052 32.6841C82.9976 32.7042 82.9839 32.7214 82.9661 32.7333C82.9482 32.7453 82.9271 32.7513 82.9056 32.7505Z" fill="#263238"/>
<path d="M94.9117 42.9583C95.0052 43.9661 95.0475 44.9256 95.0807 45.9093C95.1139 46.8929 95.1078 47.8675 95.0807 48.8512C95.0663 50.8825 94.8295 52.9062 94.3746 54.886C94.2369 55.4322 94.0542 55.9661 93.8285 56.4822C93.7772 56.6089 93.6897 56.7839 93.6142 56.9137C93.5388 57.0434 93.4603 57.1792 93.3849 57.2938C93.231 57.5383 93.0832 57.7525 92.9142 57.9607C92.3001 58.7522 91.6434 59.5097 90.9469 60.2298C89.6001 61.6312 88.1757 62.9559 86.6803 64.1976L85.5005 63.045C86.6592 61.5363 87.839 60.0276 88.9614 58.5461C89.5136 57.7977 90.0688 57.0374 90.5305 56.3072C90.7369 55.9948 90.9108 55.6622 91.0495 55.3144C91.1809 54.9441 91.2818 54.5637 91.3512 54.1769C91.516 53.313 91.6228 52.439 91.671 51.5608C91.7314 50.6556 91.7646 49.7504 91.7646 48.812C91.7646 46.9684 91.6952 45.0734 91.5805 43.2509L94.9117 42.9583Z" fill="#E4897B"/>
<path d="M95.9257 42.1196C97.6547 44.8775 96.2064 49.4005 96.2064 49.4005L90.8535 49.2436C90.8535 49.2436 91.1734 46.528 91.3242 43.8123C91.4841 40.8824 94.233 39.416 95.9257 42.1196Z" fill="#263238"/>
<path d="M95.4247 106.405C95.2749 106.416 95.1259 106.375 95.0022 106.29C94.9621 106.258 94.9311 106.215 94.912 106.167C94.893 106.119 94.8867 106.067 94.8936 106.016C94.8936 105.985 94.902 105.955 94.918 105.929C94.934 105.903 94.9569 105.882 94.9841 105.868C95.2285 105.747 95.9346 106.17 96.0161 106.23C96.0244 106.235 96.0311 106.243 96.0354 106.252C96.0396 106.261 96.0413 106.271 96.0402 106.281C96.0387 106.291 96.0341 106.301 96.0271 106.308C96.0201 106.316 96.011 106.321 96.001 106.323C95.8127 106.373 95.6193 106.4 95.4247 106.405ZM95.0988 105.949C95.0759 105.944 95.0522 105.944 95.0294 105.949C95.0189 105.955 95.0102 105.964 95.0043 105.975C94.9985 105.985 94.9957 105.997 94.9962 106.01C94.9918 106.045 94.9962 106.08 95.0088 106.114C95.0214 106.147 95.0419 106.176 95.0686 106.2C95.3148 106.311 95.594 106.325 95.8501 106.239C95.6202 106.096 95.3652 105.998 95.0988 105.949Z" fill="#055EFF"/>
<path d="M95.9889 106.327H95.9617C95.7354 106.203 95.2949 105.723 95.3582 105.476C95.3582 105.43 95.3974 105.355 95.5242 105.34C95.5635 105.334 95.6036 105.337 95.6416 105.349C95.6796 105.36 95.7147 105.38 95.7444 105.406C96.0009 105.614 96.0462 106.248 96.0462 106.275C96.0467 106.285 96.0448 106.294 96.0405 106.303C96.0363 106.311 96.0299 106.318 96.022 106.323L95.9889 106.327ZM95.5453 105.421H95.5212C95.4518 105.421 95.4457 105.461 95.4457 105.473C95.4156 105.617 95.6962 105.983 95.9225 106.155C95.9071 105.904 95.8167 105.665 95.663 105.467C95.6293 105.441 95.5873 105.429 95.5453 105.433V105.421Z" fill="#055EFF"/>
<path d="M80.0753 106.405C79.8871 106.421 79.6991 106.373 79.5412 106.269C79.5065 106.237 79.4797 106.198 79.4629 106.154C79.4461 106.11 79.4399 106.063 79.4447 106.016C79.4451 105.987 79.4531 105.959 79.468 105.935C79.4828 105.91 79.504 105.89 79.5292 105.877C79.7977 105.729 80.6788 106.179 80.7784 106.227C80.7883 106.232 80.7966 106.24 80.802 106.249C80.8074 106.259 80.8097 106.27 80.8085 106.281C80.8066 106.292 80.8015 106.302 80.7941 106.31C80.7866 106.318 80.7769 106.324 80.7663 106.326C80.5388 106.374 80.3076 106.4 80.0753 106.405ZM79.677 105.949C79.6439 105.948 79.6109 105.954 79.5805 105.967C79.5704 105.973 79.562 105.982 79.5562 105.992C79.5504 106.002 79.5473 106.013 79.5473 106.025C79.543 106.055 79.5465 106.087 79.5576 106.116C79.5687 106.145 79.5869 106.171 79.6106 106.191C79.7464 106.311 80.1085 106.332 80.5913 106.251C80.3059 106.099 79.9967 105.997 79.677 105.949Z" fill="#055EFF"/>
<path d="M80.7573 106.326H80.7361C80.4706 106.209 79.9426 105.723 79.9848 105.485C79.9848 105.427 80.0361 105.352 80.1779 105.34C80.2316 105.332 80.2862 105.336 80.3382 105.351C80.3902 105.366 80.4384 105.392 80.4797 105.427C80.7573 105.657 80.8176 106.251 80.8206 106.275C80.821 106.284 80.8193 106.293 80.8156 106.302C80.812 106.31 80.8065 106.317 80.7995 106.323C80.7863 106.33 80.7712 106.331 80.7573 106.326ZM80.2202 105.421H80.187C80.0934 105.421 80.0874 105.466 80.0874 105.478C80.0633 105.629 80.4193 106.004 80.6909 106.166C80.6642 105.914 80.5586 105.676 80.3892 105.488C80.3401 105.452 80.2809 105.433 80.2202 105.433V105.421Z" fill="#055EFF"/>
<path d="M86.5145 62.8309L84.4023 62.1128L84.689 64.9069C84.689 64.9069 86.6262 65.1181 86.8525 64.1073L86.5145 62.8309Z" fill="#E4897B"/>
<path d="M81.1194 64.3698L83.0113 65.0065L84.689 64.9069L84.4023 62.1128L81.1194 64.3698Z" fill="#E4897B"/>
<path d="M67.3205 61.1533H63.3979V109H67.3205V61.1533Z" fill="#055EFF"/>
<path opacity="0.6" d="M67.3205 61.1533H63.3979V109H67.3205V61.1533Z" fill="#FAFAFA"/>
<path d="M67.3205 61.1533C67.3205 61.2529 66.4425 61.3374 65.3592 61.3374C64.276 61.3374 63.3979 61.2529 63.3979 61.1533C63.3979 61.0537 64.276 60.9692 65.3592 60.9692C66.4425 60.9692 67.3205 61.0507 67.3205 61.1533Z" fill="#055EFF"/>
<path opacity="0.4" d="M67.3205 61.1533C67.3205 61.2529 66.4425 61.3374 65.3592 61.3374C64.276 61.3374 63.3979 61.2529 63.3979 61.1533C63.3979 61.0537 64.276 60.9692 65.3592 60.9692C66.4425 60.9692 67.3205 61.0507 67.3205 61.1533Z" fill="#FAFAFA"/>
<path d="M67.3205 91.2095L63.3979 90.9259V87.9749H67.3205V91.2095Z" fill="#055EFF"/>
<path opacity="0.4" d="M67.3205 91.2095L63.3979 90.9259V87.9749H67.3205V91.2095Z" fill="#FAFAFA"/>
<path d="M87.9629 64.801L45.0784 61.0415L42.7484 87.6193L85.633 91.3787L87.9629 64.801Z" fill="#055EFF"/>
<path opacity="0.3" d="M87.9629 64.801L45.0784 61.0415L42.7484 87.6193L85.633 91.3787L87.9629 64.801Z" fill="black"/>
<path d="M41.8073 64.1695L41.6602 65.8376L41.9607 65.8642L42.1078 64.196L41.8073 64.1695Z" fill="#055EFF"/>
<path opacity="0.2" d="M41.8073 64.1695L41.6602 65.8376L41.9607 65.8642L42.1078 64.196L41.8073 64.1695Z" fill="#FAFAFA"/>
<path d="M41.4973 67.7036L41.1362 71.7974L41.4368 71.8239L41.7978 67.7301L41.4973 67.7036Z" fill="#055EFF"/>
<path opacity="0.2" d="M41.4973 67.7036L41.1362 71.7974L41.4368 71.8239L41.7978 67.7301L41.4973 67.7036Z" fill="#FAFAFA"/>
<path d="M86.0447 64.631L43.1602 60.8716L40.8302 87.4494L83.7148 91.2088L86.0447 64.631Z" fill="#055EFF"/>
<path opacity="0.2" d="M86.0447 64.631L43.1602 60.8716L40.8302 87.4494L83.7148 91.2088L86.0447 64.631Z" fill="#FAFAFA"/>
<path opacity="0.4" d="M86.2519 68.7663L78.2075 68.3982L86.1976 69.4L86.2519 68.7663Z" fill="#055EFF"/>
<path opacity="0.1" d="M86.2519 68.7663L78.2075 68.3982L86.1976 69.4L86.2519 68.7663Z" fill="black"/>
<path opacity="0.4" d="M85.9109 69.6714L80.9473 69.7408L85.8264 70.6219L85.9109 69.6714Z" fill="#055EFF"/>
<path opacity="0.1" d="M85.9109 69.6714L80.9473 69.7408L85.8264 70.6219L85.9109 69.6714Z" fill="black"/>
<path opacity="0.4" d="M41.4194 80.703L45.7584 80.7482L41.4768 80.0693L41.4194 80.703Z" fill="#055EFF"/>
<path opacity="0.1" d="M41.4194 80.703L45.7584 80.7482L41.4768 80.0693L41.4194 80.703Z" fill="black"/>
<path opacity="0.4" d="M41.8599 75.6941L45.5924 75.5161L41.9413 74.7437L41.8599 75.6941Z" fill="#055EFF"/>
<path opacity="0.1" d="M41.8599 75.6941L45.5924 75.5161L41.9413 74.7437L41.8599 75.6941Z" fill="black"/>
<path opacity="0.4" d="M84.3146 88.3853L80.5791 88.5633L84.2301 89.3387L84.3146 88.3853Z" fill="#055EFF"/>
<path opacity="0.1" d="M84.3146 88.3853L80.5791 88.5633L84.2301 89.3387L84.3146 88.3853Z" fill="black"/>
<path d="M47.5992 76.5159L45.7073 76.3504L45.2833 77.3914L43.8083 77.2623L46.4097 71.7192L47.7077 71.8328L49.3228 77.7448L47.8399 77.615L47.5992 76.5159ZM46.131 75.3134L47.3621 75.4211L46.9183 73.3808L46.131 75.3134Z" fill="#0342B3"/>
<path d="M51.2171 76.8404L53.6204 77.0506L53.5274 78.1126L49.7436 77.7816L50.2447 72.0548L51.6253 72.1755L51.2171 76.8404Z" fill="#0342B3"/>
<path d="M59.008 72.8214L58.6801 76.5698C58.6429 76.9946 58.5202 77.3551 58.312 77.6513C58.104 77.9449 57.8237 78.1582 57.4712 78.2912C57.1187 78.4242 56.7118 78.4705 56.2502 78.4301C55.5528 78.3691 55.0192 78.1401 54.6497 77.7431C54.2802 77.3462 54.119 76.8327 54.1662 76.2027L54.4965 72.4267L55.885 72.5482L55.5522 76.3517C55.5131 76.9798 55.7768 77.3186 56.3432 77.3681C56.629 77.3931 56.8522 77.3334 57.0128 77.1889C57.1734 77.0444 57.2692 76.7952 57.3002 76.4412L57.6274 72.7007L59.008 72.8214Z" fill="#0342B3"/>
<path d="M64.1227 78.3262C63.8896 78.5436 63.5623 78.7065 63.1406 78.8149C62.7189 78.9234 62.2642 78.9563 61.7765 78.9136C61.0265 78.848 60.4475 78.5661 60.0392 78.068C59.631 77.5699 59.4469 76.9104 59.487 76.0895L59.5264 75.5936C59.5758 75.0298 59.7184 74.5469 59.9544 74.1448C60.1906 73.74 60.5035 73.4411 60.8929 73.2479C61.2852 73.0524 61.7252 72.9759 62.213 73.0186C62.9262 73.081 63.4651 73.2933 63.8298 73.6555C64.1973 74.0153 64.3855 74.5219 64.3944 75.1753L63.0649 75.059C63.0457 74.7349 62.9634 74.4979 62.818 74.3478C62.6726 74.1976 62.4557 74.11 62.1673 74.0847C61.8211 74.0544 61.5408 74.1779 61.3263 74.455C61.1118 74.7322 60.9794 75.1434 60.9291 75.6886L60.8988 76.0347C60.8488 76.6063 60.9082 77.0449 61.077 77.3503C61.2486 77.6533 61.5442 77.8232 61.9638 77.8599C62.323 77.8913 62.5975 77.8347 62.7872 77.6901L62.8649 76.8012L61.9052 76.7173L61.9882 75.7693L64.3285 75.9741L64.1227 78.3262Z" fill="#0342B3"/>
<path d="M68.2095 78.3191L66.3176 78.1536L65.8936 79.1945L64.4187 79.0655L67.0201 73.5224L68.318 73.636L69.9331 79.5479L68.4503 79.4182L68.2095 78.3191ZM66.7413 77.1166L67.9724 77.2243L67.5286 75.184L66.7413 77.1166Z" fill="#0342B3"/>
<path d="M73.0541 77.8512L70.6902 77.6444L70.78 76.6178L73.1439 76.8246L73.0541 77.8512Z" fill="#0342B3"/>
<path d="M77.0675 78.6383C77.0851 78.4364 77.0268 78.2727 76.8924 78.1474C76.7607 78.0222 76.5205 77.8836 76.1718 77.7316C75.8231 77.5795 75.5397 77.4372 75.3214 77.3044C74.6112 76.875 74.284 76.3417 74.3397 75.7045C74.3675 75.3873 74.4837 75.116 74.6884 74.8908C74.8959 74.6633 75.1746 74.4974 75.5246 74.3933C75.8747 74.2865 76.2609 74.2516 76.6831 74.2885C77.0948 74.3246 77.4568 74.4302 77.7691 74.6055C78.084 74.781 78.32 75.0131 78.4771 75.3016C78.6344 75.5875 78.6978 75.9048 78.6673 76.2536L77.2906 76.1331C77.311 75.8998 77.2547 75.7125 77.1218 75.5714C76.9914 75.4305 76.8043 75.3494 76.5604 75.3281C76.314 75.3065 76.1138 75.3445 75.9599 75.442C75.8089 75.5372 75.7261 75.6686 75.7114 75.8364C75.6986 75.9833 75.7655 76.1239 75.9123 76.2583C76.0593 76.39 76.3252 76.5375 76.7099 76.7006C77.0948 76.8611 77.408 77.0259 77.6495 77.195C78.2372 77.6058 78.5036 78.1245 78.4487 78.7512C78.4049 79.252 78.1817 79.6288 77.7791 79.8816C77.3765 80.1344 76.8461 80.232 76.188 80.1744C75.7238 80.1338 75.3102 80.0144 74.9471 79.8162C74.5868 79.6155 74.3235 79.3626 74.1574 79.0575C73.994 78.7499 73.9289 78.4073 73.9619 78.0297L75.3464 78.1508C75.3196 78.4576 75.3784 78.6913 75.5229 78.8519C75.6702 79.0101 75.9222 79.1048 76.2788 79.136C76.5069 79.156 76.6908 79.1232 76.8304 79.0377C76.9729 78.9497 77.0519 78.8166 77.0675 78.6383Z" fill="#0342B3"/>
<path d="M82.7869 78.2271L80.6158 78.0371L80.4964 79.402L83.0608 79.6264L82.9679 80.6883L79.0229 80.3432L79.5239 74.6164L83.4768 74.9622L83.3836 76.0281L80.8112 75.8031L80.7056 77.0106L82.8767 77.2005L82.7869 78.2271Z" fill="#0342B3"/>
</svg>
