<svg width="81" height="118" viewBox="0 0 81 118" fill="none" xmlns="http://www.w3.org/2000/svg">
<path d="M75.1422 10.0669H34.1508C31.2756 10.0669 28.9448 12.3977 28.9448 15.2729V108.981C28.9448 111.856 31.2756 114.187 34.1508 114.187H75.1422C78.0174 114.187 80.3482 111.856 80.3482 108.981V15.2729C80.3482 12.3977 78.0174 10.0669 75.1422 10.0669Z" fill="#263238"/>
<path d="M80.0221 28.3647H79.327C78.7869 28.3647 78.3491 28.8026 78.3491 29.3427V41.9646C78.3491 42.5047 78.7869 42.9425 79.327 42.9425H80.0221C80.5622 42.9425 81.0001 42.5047 81.0001 41.9646V29.3427C81.0001 28.8026 80.5622 28.3647 80.0221 28.3647Z" fill="#263238"/>
<path d="M29.0502 28.3647H28.2497C27.7387 28.3647 27.3245 28.779 27.3245 29.2899V34.5583C27.3245 35.0692 27.7387 35.4835 28.2497 35.4835H29.0502C29.5612 35.4835 29.9754 35.0692 29.9754 34.5583V29.2899C29.9754 28.779 29.5612 28.3647 29.0502 28.3647Z" fill="#263238"/>
<path d="M29.0502 37.7749H28.2497C27.7387 37.7749 27.3245 38.1891 27.3245 38.7001V43.9684C27.3245 44.4794 27.7387 44.8936 28.2497 44.8936H29.0502C29.5612 44.8936 29.9754 44.4794 29.9754 43.9684V38.7001C29.9754 38.1891 29.5612 37.7749 29.0502 37.7749Z" fill="#263238"/>
<path d="M74.2745 10.0669H33.2832C30.408 10.0669 28.0771 12.3977 28.0771 15.2729V108.981C28.0771 111.856 30.408 114.187 33.2832 114.187H74.2745C77.1497 114.187 79.4805 111.856 79.4805 108.981V15.2729C79.4805 12.3977 77.1497 10.0669 74.2745 10.0669Z" fill="#407BFF"/>
<path opacity="0.9" d="M77.5151 16.1741H30.0426C29.3489 16.1741 28.7866 16.7364 28.7866 17.43V107.001C28.7866 107.695 29.3489 108.257 30.0426 108.257H77.5151C78.2087 108.257 78.7711 107.695 78.7711 107.001V17.43C78.7711 16.7364 78.2087 16.1741 77.5151 16.1741Z" fill="white"/>
<g opacity="0.3">
<path opacity="0.3" d="M78.5937 16.7925C78.4838 16.604 78.3263 16.4477 78.137 16.3392C77.9477 16.2307 77.7333 16.1737 77.5151 16.1741H52.3239L51.4371 17.4924L28.7866 51.1493V90.808L51.4371 57.1463L78.5937 16.7925Z" fill="white"/>
<path opacity="0.3" d="M51.4371 66.0195L28.7866 99.6765V107.001C28.7866 107.334 28.9189 107.654 29.1545 107.889C29.39 108.125 29.7095 108.257 30.0426 108.257H36.0875L62.9804 68.2966L78.7711 44.8503V25.4021L51.4371 66.0195Z" fill="white"/>
</g>
<path opacity="0.2" d="M48.8388 12.4734H58.7235C58.8935 12.4746 59.0561 12.5427 59.1763 12.6629C59.2965 12.7831 59.3646 12.9458 59.3658 13.1157C59.3646 13.2857 59.2965 13.4484 59.1763 13.5686C59.0561 13.6888 58.8935 13.7569 58.7235 13.7581H48.8388C48.6717 13.7531 48.5132 13.6833 48.3969 13.5633C48.2805 13.4434 48.2155 13.2828 48.2156 13.1157C48.2167 12.949 48.2821 12.7891 48.3982 12.6695C48.5143 12.5498 48.6721 12.4796 48.8388 12.4734Z" fill="black"/>
<path d="M2.80015 18.8311L1.03125 19.6172L2.01876 22.4024L3.67739 21.4724L2.80015 18.8311Z" fill="#FFC3BD"/>
<path d="M3.91718 27.8672L11.1461 27.0906C11.2298 27.0834 11.311 27.0581 11.3839 27.0165C11.4569 26.9749 11.5199 26.9179 11.5687 26.8495C11.6175 26.7811 11.6508 26.703 11.6664 26.6205C11.682 26.5379 11.6795 26.453 11.6591 26.3715L9.02732 14.646C8.98446 14.4691 8.8797 14.3133 8.73198 14.207C8.58426 14.1006 8.40336 14.0506 8.22197 14.066L0.992986 14.8378C0.90878 14.8448 0.827142 14.8702 0.753767 14.9121C0.680392 14.954 0.61705 15.0115 0.568194 15.0804C0.519337 15.1494 0.486148 15.2282 0.470923 15.3113C0.455698 15.3944 0.458805 15.4798 0.480052 15.5616L3.11183 27.2871C3.15556 27.4636 3.26053 27.6187 3.40803 27.725C3.55553 27.8312 3.73598 27.8816 3.91718 27.8672Z" fill="#407BFF"/>
<path opacity="0.9" d="M3.34182 27.1672L11.3953 26.3043C11.4156 26.3029 11.4352 26.297 11.4529 26.2871C11.4706 26.2772 11.486 26.2635 11.4978 26.2471C11.5097 26.2306 11.5179 26.2118 11.5217 26.1919C11.5255 26.172 11.5249 26.1514 11.52 26.1318L9.00324 14.924C8.99299 14.8809 8.96739 14.843 8.93122 14.8174C8.89504 14.7918 8.85077 14.7803 8.8067 14.785L0.757994 15.6478C0.737763 15.6493 0.718094 15.6552 0.700383 15.6651C0.682672 15.675 0.667348 15.6886 0.655471 15.7051C0.643594 15.7215 0.63546 15.7404 0.63164 15.7603C0.62782 15.7802 0.628401 15.8007 0.633352 15.8204L3.15007 27.0282C3.16022 27.0704 3.18512 27.1076 3.22028 27.1331C3.25543 27.1586 3.29853 27.1707 3.34182 27.1672Z" fill="white"/>
<g opacity="0.3">
<path opacity="0.3" d="M2.62753 15.4512L1.92285 21.5776L3.15005 27.0281C3.1602 27.0703 3.1851 27.1076 3.22026 27.133C3.25541 27.1585 3.29851 27.1706 3.3418 27.1671L4.25262 27.0713L5.62363 15.1252L2.62753 15.4512Z" fill="white"/>
<path opacity="0.3" d="M6.40496 15.0438L5.03394 26.985L6.63026 26.8125L8.19303 14.8521L6.40496 15.0438Z" fill="white"/>
</g>
<path opacity="0.2" d="M5.30713 14.6891L4.05117 14.8233C4.04121 14.8244 4.03159 14.8276 4.02294 14.8327C4.01428 14.8377 4.00679 14.8445 4.00092 14.8526C3.99505 14.8608 3.99094 14.87 3.98887 14.8798C3.98679 14.8896 3.98678 14.8998 3.98885 14.9096C3.99444 14.9315 4.00761 14.9508 4.02604 14.9639C4.04447 14.9771 4.06695 14.9833 4.08952 14.9815L5.34069 14.8473C5.35117 14.8463 5.3613 14.8429 5.37036 14.8376C5.37942 14.8322 5.3872 14.825 5.39314 14.8163C5.39908 14.8076 5.40305 14.7977 5.40475 14.7873C5.40646 14.7769 5.40587 14.7663 5.40301 14.7562C5.39746 14.7355 5.38481 14.7175 5.36727 14.7052C5.34974 14.6929 5.32845 14.6872 5.30713 14.6891Z" fill="black"/>
<path d="M28.2788 18.3564C29.3334 20.1014 30.2874 21.8463 31.203 23.6535C32.1186 25.4608 32.9527 27.2968 33.7005 29.2239C33.8779 29.7032 34.0649 30.1826 34.223 30.7051L34.3477 31.0791L34.41 31.2708L34.4532 31.4194L34.5059 31.6255C34.5961 32.0175 34.6043 32.4239 34.5298 32.8192C34.4199 33.3602 34.1333 33.8492 33.7149 34.2094C33.4178 34.4617 33.0694 34.6465 32.6938 34.7511C32.4559 34.8187 32.2118 34.862 31.9652 34.8805C31.6087 34.9035 31.2509 34.8939 30.8962 34.8517C30.3233 34.7806 29.7572 34.662 29.204 34.497C27.2179 33.9122 25.303 33.1083 23.4946 32.1001L24.276 30.0915C26.1648 30.4894 28.111 30.9209 29.8943 31.1462C30.3061 31.1979 30.7208 31.2235 31.1359 31.2229C31.2731 31.2224 31.4098 31.2063 31.5433 31.1749C31.5721 31.1749 31.5913 31.151 31.5433 31.1749C31.4067 31.2108 31.2802 31.2781 31.1742 31.3715C30.937 31.5677 30.7689 31.8349 30.6948 32.1337C30.6609 32.2917 30.6609 32.4551 30.6948 32.6131V32.6562V32.6131L30.6277 32.4549L30.4983 32.1337C30.3305 31.7118 30.1244 31.2804 29.9422 30.8538C29.1513 29.1376 28.2644 27.4262 27.3488 25.7196C26.4332 24.0131 25.4792 22.3017 24.5349 20.6383L28.2788 18.3564Z" fill="#FFC3BD"/>
<path d="M24.5302 29.9429L22.5504 29.1807L22.071 32.4644C22.071 32.4644 23.6434 32.8814 24.7316 32.0138L24.5302 29.9429Z" fill="#FFC3BD"/>
<path d="M19.7268 28.2937L19.861 31.2419L22.0709 32.4643L22.5599 29.1805L19.7268 28.2937Z" fill="#FFC3BD"/>
<path d="M13.4471 7.78132C13.5047 8.00663 13.4472 8.21755 13.2842 8.2607C13.1212 8.30384 12.9726 8.14564 12.915 7.92034C12.8575 7.69503 12.915 7.48411 13.078 7.44096C13.241 7.39782 13.3896 7.54163 13.4471 7.78132Z" fill="#263238"/>
<path d="M13.4518 8.19849C13.3581 8.95363 13.1613 9.69236 12.8669 10.394C13.0487 10.4642 13.2436 10.4942 13.4381 10.4818C13.6326 10.4694 13.8221 10.4149 13.9935 10.3221L13.4518 8.19849Z" fill="#ED847E"/>
<path d="M13.9551 6.30972C13.9854 6.29473 14.0093 6.26917 14.0222 6.23782C14.0349 6.20408 14.034 6.16672 14.0197 6.13363C14.0054 6.10054 13.9788 6.0743 13.9455 6.06045C13.7456 5.97645 13.5285 5.94174 13.3124 5.95926C13.0963 5.97678 12.8876 6.04601 12.7039 6.16112C12.6754 6.18217 12.6564 6.21364 12.651 6.24867C12.6456 6.28369 12.6543 6.31943 12.6751 6.34807C12.6852 6.36256 12.698 6.37493 12.7129 6.38446C12.7277 6.39399 12.7443 6.40049 12.7616 6.40361C12.779 6.40672 12.7968 6.40639 12.814 6.40262C12.8313 6.39885 12.8476 6.39172 12.8621 6.38163C13.0056 6.29638 13.167 6.24591 13.3335 6.23426C13.5 6.2226 13.6669 6.25009 13.8208 6.31452C13.8413 6.32662 13.8648 6.3326 13.8886 6.33175C13.9124 6.3309 13.9355 6.32326 13.9551 6.30972Z" fill="#263238"/>
<path d="M20.3597 8.97974C20.9445 11.1177 20.6904 14.1234 22.4354 15.5232C22.4354 15.5232 22.282 17.6564 18.3751 17.6564C14.0607 17.6564 15.9015 15.528 15.9015 15.528C18.1402 14.9671 17.7327 13.227 17.004 11.5923L20.3597 8.97974Z" fill="#FFC3BD"/>
<path d="M22.6128 15.9979C22.9244 15.5856 23.2647 15.1159 22.5552 14.9673C21.8458 14.8186 17.5266 14.6413 16.0597 14.9673C14.5928 15.2932 15.0099 16.1034 15.0099 16.1034L22.6128 15.9979Z" fill="#263238"/>
<path d="M35.0766 112.999C34.8425 113.079 34.5865 113.066 34.3623 112.961C34.3195 112.922 34.2901 112.87 34.278 112.814C34.266 112.757 34.272 112.698 34.2952 112.645C34.3083 112.601 34.3304 112.56 34.3601 112.526C34.3898 112.491 34.4265 112.463 34.4678 112.443C34.8561 112.256 35.7477 112.621 35.7861 112.635C35.7987 112.64 35.8096 112.648 35.8173 112.66C35.825 112.671 35.8291 112.684 35.8292 112.697C35.8302 112.711 35.827 112.724 35.8201 112.735C35.8132 112.746 35.803 112.755 35.7908 112.76C35.5621 112.865 35.3226 112.946 35.0766 112.999ZM34.5972 112.52C34.57 112.525 34.5439 112.534 34.5205 112.549C34.4949 112.558 34.472 112.573 34.4536 112.593C34.4352 112.613 34.422 112.638 34.415 112.664C34.3767 112.784 34.4151 112.822 34.439 112.836C34.5924 112.966 35.1677 112.836 35.5703 112.683C35.2603 112.565 34.9282 112.516 34.5972 112.539V112.52Z" fill="#407BFF"/>
<path d="M35.7524 112.765H35.7189C35.3929 112.669 34.6978 112.175 34.6882 111.849C34.689 111.798 34.7069 111.748 34.739 111.708C34.7711 111.668 34.8157 111.64 34.8656 111.628C34.915 111.612 34.9672 111.606 35.019 111.61C35.0708 111.614 35.1214 111.629 35.1676 111.652C35.5511 111.849 35.7908 112.645 35.8004 112.678C35.8074 112.688 35.8112 112.7 35.8112 112.712C35.8112 112.724 35.8074 112.736 35.8004 112.745C35.7951 112.753 35.7877 112.759 35.7792 112.762C35.7707 112.765 35.7614 112.766 35.7524 112.765ZM34.9375 111.748H34.9087C34.8225 111.777 34.8273 111.82 34.8273 111.839C34.8273 112.031 35.3066 112.419 35.6278 112.573C35.5371 112.259 35.3553 111.978 35.1053 111.767C35.053 111.743 34.994 111.736 34.9375 111.748Z" fill="#407BFF"/>
<path d="M14.3578 114.404C13.9887 114.404 13.634 114.356 13.5141 114.188C13.4849 114.144 13.4692 114.093 13.4692 114.04C13.4692 113.987 13.4849 113.935 13.5141 113.891C13.5637 113.813 13.6407 113.757 13.7298 113.733C14.2092 113.604 15.2159 114.174 15.2591 114.212C15.2703 114.22 15.2793 114.231 15.2852 114.244C15.291 114.256 15.2936 114.27 15.2926 114.284C15.2894 114.298 15.2823 114.311 15.2721 114.321C15.2619 114.331 15.2491 114.339 15.2351 114.342C14.9448 114.386 14.6515 114.407 14.3578 114.404ZM13.9024 113.848C13.8594 113.843 13.816 113.843 13.773 113.848C13.7183 113.863 13.6708 113.897 13.6388 113.944C13.5908 114.03 13.61 114.073 13.6388 114.097C13.773 114.279 14.5016 114.284 15.0337 114.212C14.6844 114.017 14.2999 113.893 13.9024 113.848Z" fill="#407BFF"/>
<path d="M15.2256 114.327C14.8756 114.169 14.1901 113.551 14.2429 113.225C14.2429 113.148 14.31 113.052 14.4969 113.033C14.5646 113.026 14.633 113.032 14.6981 113.052C14.7632 113.072 14.8236 113.104 14.8756 113.148C15.1346 113.463 15.2903 113.849 15.3215 114.255C15.3218 114.267 15.3194 114.279 15.3144 114.29C15.3094 114.301 15.302 114.31 15.2927 114.318L15.2256 114.327ZM14.5257 113.162H14.4873C14.3627 113.162 14.3579 113.225 14.3531 113.239C14.3196 113.436 14.7894 113.925 15.1441 114.136C15.1114 113.808 14.9792 113.499 14.7654 113.249C14.6975 113.194 14.613 113.163 14.5257 113.162Z" fill="#407BFF"/>
<path d="M18.3893 114.26H15.5131L15.2302 107.606H18.1017L18.3893 114.26Z" fill="#FFC3BD"/>
<path d="M38.9545 112.002L36.1454 112.611L33.3267 106.413L36.1358 105.804L38.9545 112.002Z" fill="#FFC3BD"/>
<path d="M35.8769 112.328L39.0312 111.648C39.0872 111.635 39.1459 111.641 39.1974 111.667C39.2489 111.692 39.2901 111.734 39.314 111.787L40.407 114.183C40.4327 114.241 40.445 114.304 40.4432 114.367C40.4414 114.43 40.4253 114.492 40.3964 114.548C40.3674 114.604 40.3261 114.653 40.2757 114.691C40.2253 114.729 40.1669 114.756 40.105 114.768C38.9977 114.989 38.4512 115.042 37.061 115.344C36.2077 115.526 34.2806 115.995 33.1014 116.25C31.9221 116.504 31.5194 115.372 31.9748 115.161C34.0409 114.203 34.899 113.392 35.4599 112.621C35.5579 112.475 35.7065 112.371 35.8769 112.328Z" fill="#263238"/>
<path d="M15.5324 113.925H18.6723C18.7294 113.924 18.7849 113.944 18.8294 113.98C18.8739 114.015 18.9047 114.065 18.9168 114.121L19.4825 116.676C19.4971 116.738 19.4974 116.802 19.4834 116.864C19.4694 116.926 19.4414 116.984 19.4017 117.033C19.3619 117.083 19.3114 117.123 19.254 117.15C19.1965 117.177 19.1337 117.19 19.0702 117.189C17.9389 117.189 16.3042 117.103 14.8805 117.103C13.217 117.103 11.7789 117.194 9.82786 117.194C8.6486 117.194 8.32263 116 8.81639 115.89C11.0647 115.411 12.8959 115.348 14.8421 114.15C15.0468 114.012 15.2859 113.934 15.5324 113.925Z" fill="#263238"/>
<path d="M14.6455 19.4686C14.0655 20.8444 13.4423 22.0956 12.7759 23.3851C12.1096 24.6746 11.3905 25.9162 10.59 27.1482C9.78352 28.42 8.87276 29.6225 7.86713 30.7435C7.31865 31.3599 6.71181 31.9218 6.05509 32.4213C5.24934 33.0543 4.3045 33.4865 3.29869 33.6821L2.6803 33.7923L2.14339 33.5383C1.74154 33.3408 1.38178 33.0673 1.08397 32.7329C0.829032 32.4485 0.621817 32.1248 0.470375 31.7742C0.241643 31.2469 0.0961018 30.6874 0.0389407 30.1155C-0.0387483 29.2115 -8.70904e-05 28.3012 0.153986 27.4071C0.286867 26.5972 0.470994 25.7967 0.705264 25.0102C0.93892 24.2316 1.21579 23.4666 1.53459 22.7188L3.61507 23.294C3.56234 24.0083 3.48565 24.7705 3.45689 25.5039C3.42812 26.2374 3.39936 26.9421 3.42333 27.6611C3.42522 28.297 3.49919 28.9306 3.64384 29.5499C3.68219 29.7436 3.75879 29.9278 3.86914 30.0915C3.95064 30.173 3.91708 30.0484 3.76848 29.9621L2.61318 29.8135C2.96657 29.6803 3.29179 29.4819 3.57193 29.2287C3.99839 28.8532 4.39433 28.4445 4.75599 28.0063C5.55876 27.0088 6.2908 25.9564 6.94674 24.8568C7.62745 23.7255 8.2746 22.551 8.893 21.3573C9.51139 20.1637 10.1106 18.9269 10.6523 17.7524L14.6455 19.4686Z" fill="#FFC3BD"/>
<path d="M27.1475 16.1751C29.8416 16.7935 34.3621 30.1633 34.3621 30.1633L29.9615 31.6301C29.9615 31.6301 25.4697 24.9764 23.9501 21.7694C22.3538 18.409 24.3959 15.5423 27.1475 16.1751Z" fill="#407BFF"/>
<path opacity="0.3" d="M27.1475 16.1751C29.8416 16.7935 34.3621 30.1633 34.3621 30.1633L29.9615 31.6301C29.9615 31.6301 25.4697 24.9764 23.9501 21.7694C22.3538 18.409 24.3959 15.5423 27.1475 16.1751Z" fill="white"/>
<path opacity="0.3" d="M25.9682 20.7772C25.2492 19.9191 24.7746 21.0696 24.9136 23.5576C25.3498 24.3294 25.8484 25.1683 26.3517 25.9976C26.8934 23.524 26.716 21.8846 25.9682 20.7772Z" fill="black"/>
<path d="M29.6499 30.7913C31.0825 30.226 32.5726 29.8193 34.0937 29.5785C34.2168 29.5642 34.3411 29.5907 34.4476 29.6539C34.5541 29.7171 34.6369 29.8136 34.6833 29.9284C34.9662 30.6571 35.2059 31.9466 34.9662 32.3828C34.6738 32.9149 30.6518 33.6867 30.1245 33.3703C29.7506 33.1546 29.4534 32.0904 29.3048 31.4528C29.2743 31.3195 29.2923 31.1797 29.3555 31.0585C29.4188 30.9373 29.5231 30.8425 29.6499 30.7913Z" fill="#263238"/>
<path d="M11.0501 16.3239C11.0501 16.3239 7.99168 19.7802 10.8775 41.1603H26.2511C26.3565 38.8018 24.8705 27.292 27.1475 16.1753C25.4486 15.8484 23.7305 15.6306 22.0038 15.5233C19.8276 15.3985 17.6461 15.3985 15.4699 15.5233C13.978 15.6743 12.5002 15.942 11.0501 16.3239Z" fill="#407BFF"/>
<path opacity="0.3" d="M11.0501 16.3239C11.0501 16.3239 7.99168 19.7802 10.8775 41.1603H26.2511C26.3565 38.8018 24.8705 27.292 27.1475 16.1753C25.4486 15.8484 23.7305 15.6306 22.0038 15.5233C19.8276 15.3985 17.6461 15.3985 15.4699 15.5233C13.978 15.6743 12.5002 15.942 11.0501 16.3239Z" fill="white"/>
<path opacity="0.3" d="M12.9053 23.7015C12.6464 21.9758 11.0166 22.3593 9.70307 22.9824C9.58841 25.7392 9.63482 28.5003 9.84208 31.2517C10.9398 30.7435 13.2744 26.1799 12.9053 23.7015Z" fill="black"/>
<path d="M14.5783 18.4043C16.3568 21.9421 8.01086 31.7453 8.01086 31.7453L5.03394 26.8605C5.03394 26.8605 7.72803 22.5461 8.83059 19.1905C10.192 14.996 13.2265 15.7102 14.5783 18.4043Z" fill="#407BFF"/>
<path opacity="0.3" d="M14.5783 18.4043C16.3568 21.9421 8.01086 31.7453 8.01086 31.7453L5.03394 26.8605C5.03394 26.8605 7.72803 22.5461 8.83059 19.1905C10.192 14.996 13.2265 15.7102 14.5783 18.4043Z" fill="white"/>
<path d="M5.35515 26.4098C6.09818 27.2583 8.2314 29.7655 8.86418 30.9543C8.89396 31.0116 8.90705 31.0762 8.90196 31.1406C8.89688 31.205 8.87383 31.2667 8.83542 31.3186C8.39918 31.9179 7.17677 32.9197 6.58235 32.915C5.98792 32.9102 2.90555 29.4922 2.94869 28.8547C2.97745 28.3753 4.25738 26.9899 4.82783 26.3955C4.86247 26.3601 4.90405 26.3322 4.94996 26.3136C4.99587 26.295 5.04512 26.2861 5.09463 26.2875C5.14414 26.2888 5.19284 26.3004 5.23767 26.3215C5.2825 26.3425 5.32249 26.3726 5.35515 26.4098Z" fill="#263238"/>
<path d="M3.43775 23.9795L3.58636 23.4618C3.69822 23.0748 3.69719 22.6639 3.58339 22.2775C3.46959 21.8911 3.24775 21.5452 2.944 21.2806L1.0265 19.6172C1.0265 19.6172 0.130063 23.294 1.80308 24.5548L3.43775 23.9795Z" fill="#FFC3BD"/>
<path d="M2.04761 21.1559L2.49822 20.8059L2.45028 19.7944L2.76187 19.1377L3.1214 19.9574L3.60078 21.0216C3.68538 21.2115 3.72633 21.4179 3.72062 21.6257L3.68706 22.8049L2.04761 21.1559Z" fill="#FFC3BD"/>
<path opacity="0.2" d="M15.2302 107.606L15.374 111.034H18.2503L18.1017 107.606H15.2302Z" fill="black"/>
<path opacity="0.2" d="M36.1358 105.804L33.3267 106.413L34.784 109.61L37.5931 109.001L36.1358 105.804Z" fill="black"/>
<path d="M20.8198 5.38441C21.3519 8.18396 21.8025 9.79945 20.7718 11.5683C19.2138 14.2289 15.4987 13.831 14.1325 11.2472C12.9101 8.9174 12.2437 4.72766 14.6694 2.93959C15.2019 2.54483 15.8264 2.2926 16.4837 2.20681C17.141 2.12102 17.8093 2.20452 18.4253 2.44938C19.0413 2.69424 19.5846 3.09237 20.0036 3.60601C20.4227 4.11965 20.7036 4.73179 20.8198 5.38441Z" fill="#FFC3BD"/>
<path d="M15.3454 7.62327C14.4585 6.73642 12.6849 6.44401 12.4068 4.46419C12.1288 2.48437 13.3656 1.27155 15.3454 0.691508C17.3252 0.111465 21.4574 -0.267246 21.2561 1.75092C22.7326 1.75092 23.3126 3.24658 22.5552 4.96753C21.7978 6.68849 20.9685 9.45927 21.3903 10.9789C20.5562 12.2157 17.3012 12.1534 16.8219 10.4995C16.3425 8.84567 15.8631 8.14099 15.3454 7.62327Z" fill="#263238"/>
<path d="M13.1833 0.22168C13.1833 0.22168 11.4767 0.825695 11.1747 3.16025C10.8727 5.49481 12.6656 5.82558 13.6243 5.36538L13.7633 2.48913C12.5457 2.60897 13.1833 0.22168 13.1833 0.22168Z" fill="#263238"/>
<path d="M15.7049 0.00106065C15.7049 0.00106065 13.8977 -0.109196 12.7136 1.91856C11.5296 3.94632 13.0492 4.95301 14.1086 4.90027L15.3502 2.32603C14.1709 1.94253 15.7049 0.00106065 15.7049 0.00106065Z" fill="#263238"/>
<path d="M20.8582 2.0003C20.8582 2.0003 22.0902 0.61011 23.0345 1.3867C22.2761 1.44795 21.5369 1.65636 20.8582 2.0003Z" fill="#263238"/>
<path d="M16.5055 7.61355C16.6326 8.31051 16.5265 9.02994 16.2035 9.66048C15.772 10.4898 15.0338 10.2357 14.7126 9.44956C14.425 8.74487 14.3003 7.46494 14.9475 6.90408C15.5947 6.34321 16.3377 6.77464 16.5055 7.61355Z" fill="#FFC3BD"/>
<path d="M16.333 41.1602C16.333 41.1602 19.5928 63.1251 21.3808 71.3608C23.3415 80.3682 33.3316 109.231 33.3316 109.231L38.4753 108.119C38.4753 108.119 31.1217 81.0777 30.0048 72.1661C28.792 62.4875 26.2513 41.1602 26.2513 41.1602H16.333Z" fill="#263238"/>
<path d="M32.0996 107.525L33.0584 109.385L38.8492 108.134L38.3698 106.394L32.0996 107.525Z" fill="#407BFF"/>
<path opacity="0.3" d="M18.3942 49.0077C22.162 49.746 21.7498 63.806 21.3088 71.059C20.2254 65.9488 18.629 56.1073 17.5457 49.1276C17.8066 48.9921 18.1059 48.9498 18.3942 49.0077Z" fill="black"/>
<path d="M10.8776 41.1602C10.8776 41.1602 10.4845 62.6458 10.7961 71.4087C11.1221 80.5169 14.3052 110.372 14.3052 110.372H19.1708C19.1708 110.372 19.353 81.0585 19.5687 72.1086C19.8036 62.3485 21.0068 41.1602 21.0068 41.1602H10.8776Z" fill="#263238"/>
<path d="M50.0824 66.6V57.3882H56.2236V66.6H63.9V54.3176H68.5059L53.153 40.5L37.8 54.3176H42.4059V66.6H50.0824Z" fill="#407BFF"/>
<path opacity="0.2" d="M15.3167 106.873C15.3234 106.873 15.3301 106.872 15.3362 106.869C15.3424 106.866 15.3479 106.862 15.3524 106.857C15.3569 106.852 15.3604 106.846 15.3625 106.84C15.3646 106.834 15.3653 106.827 15.3647 106.82C14.5066 98.5654 12.4884 78.585 12.2247 71.4088C11.9659 64.0743 12.2247 47.6701 12.2823 42.814C12.2812 42.8017 12.2758 42.7901 12.267 42.7814C12.2583 42.7726 12.2467 42.7672 12.2343 42.7661C12.2276 42.7654 12.2209 42.7662 12.2145 42.7683C12.2081 42.7704 12.2023 42.7738 12.1973 42.7783C12.1923 42.7828 12.1883 42.7884 12.1856 42.7945C12.1829 42.8007 12.1816 42.8073 12.1816 42.814C12.1049 47.6701 11.8652 64.0743 12.1289 71.4135C12.3829 78.6042 14.4059 98.5749 15.264 106.83C15.2663 106.842 15.2728 106.853 15.2824 106.861C15.2921 106.869 15.3042 106.873 15.3167 106.873Z" fill="white"/>
<path d="M13.3703 108.45C13.3463 108.45 13.6435 110.473 13.6435 110.473H19.5638L19.7268 108.671L13.3703 108.45Z" fill="#407BFF"/>
</svg>
