<svg width="119" height="178" viewBox="0 0 119 178" fill="none" xmlns="http://www.w3.org/2000/svg">
<path d="M103.933 141.174L86.578 149.374C84.1818 144.917 79.5852 142.081 74.5266 141.938L58.5051 141.498C55.9682 141.425 53.479 140.783 51.2234 139.618L49.5931 138.773C41.2459 134.422 31.2965 134.432 22.9579 138.801L23.0596 135.107C23.0931 133.884 22.1292 132.865 20.9057 132.831L3.33715 132.348C2.11362 132.314 1.09564 133.278 1.0621 134.502L0.000849205 173.055C-0.0326867 174.279 0.931205 175.298 2.15473 175.331L19.7233 175.815H19.7839C20.9847 175.815 21.967 174.86 21.9994 173.66L22.0503 171.815L26.6144 169.372C28.4059 168.408 30.5003 168.178 32.4573 168.732L59.7124 176.382C59.76 176.396 59.8076 176.407 59.8562 176.417C61.8262 176.83 63.8341 177.036 65.8462 177.035C70.1085 177.037 74.3211 176.119 78.1951 174.34C78.2903 174.297 78.3822 174.246 78.4698 174.189L117.987 148.628C118.972 147.991 119.29 146.698 118.713 145.677C115.779 140.471 109.272 138.488 103.933 141.174ZM4.49144 170.963L5.43045 136.838L18.569 137.2L17.63 171.325L4.49144 170.963ZM76.1991 170.383C71.3862 172.555 66.0107 173.155 60.8374 172.098L33.6559 164.468C30.5966 163.603 27.3219 163.961 24.5233 165.466L22.1909 166.716L22.8151 144.027C30.206 139.111 39.6848 138.606 47.5561 142.707L49.1864 143.552C52.0358 145.023 55.1785 145.835 58.3839 145.928L74.4066 146.368C78.9069 146.498 82.7289 149.702 83.642 154.112L59.7762 153.453C58.5527 153.419 57.5347 154.384 57.5001 155.607C57.4665 156.83 58.4315 157.849 59.6539 157.883L85.9917 158.608H86.0533C87.253 158.607 88.2342 157.651 88.2667 156.453C88.2937 155.49 88.2223 154.526 88.0525 153.578L105.854 145.167C105.871 145.16 105.888 145.151 105.906 145.142C108.431 143.865 111.483 144.292 113.56 146.214L76.1991 170.383Z" fill="#055EFF"/>
<path d="M58.7238 0C36.5996 0 18.6643 19.498 18.6643 43.55C18.6643 66.9522 55.7412 115.98 57.3199 118.054C57.6658 118.509 58.1807 118.773 58.7238 118.773C59.2669 118.773 59.7817 118.509 60.1277 118.054C61.7064 115.98 98.7832 66.9522 98.7832 43.55C98.7832 19.498 80.848 0 58.7238 0ZM58.7238 113.648C51.8718 104.35 22.3061 63.0921 22.3061 43.55C22.3291 21.6948 38.6205 3.98409 58.7238 3.95909C78.8273 3.98409 95.1185 21.6948 95.1415 43.55C95.1415 63.0882 65.5758 104.348 58.7238 113.648Z" fill="#055EFF"/>
<path d="M83.5087 36.046L59.8372 16.2505C59.1824 15.7026 58.2705 15.7026 57.6157 16.2505L33.9442 36.046C33.1478 36.7133 32.9998 37.9565 33.6137 38.8223C33.9583 39.3082 34.4904 39.5931 35.0549 39.5933H40.5176V61.3683C40.5176 62.4615 41.3329 63.3479 42.3385 63.3479H75.1144C76.12 63.3479 76.9353 62.4615 76.9353 61.3683V39.5933H82.398C83.4036 39.5928 84.2184 38.706 84.218 37.6128C84.2177 36.9991 83.9557 36.4206 83.5087 36.046ZM62.3682 59.3888H55.0847V47.5115H62.3682V59.3888ZM75.1144 35.6342C74.1088 35.6342 73.2935 36.5205 73.2935 37.6138V59.3888H66.01V45.5319C66.01 44.4387 65.1947 43.5524 64.1891 43.5524H53.2638C52.2582 43.5524 51.4429 44.4387 51.4429 45.5319V59.3888H44.1593V37.6138C44.1593 36.5205 43.344 35.6342 42.3385 35.6342H40.4083L58.7264 20.3165L77.0446 35.6342H75.1144Z" fill="#055EFF"/>
</svg>
