<svg width="372" height="372" viewBox="0 0 372 372" fill="none" xmlns="http://www.w3.org/2000/svg">
<path d="M255.423 87.4275C258.257 85.2281 259.523 81.3425 258.936 77.8051C258.34 74.2678 256.056 71.1428 253.103 69.1084C251.736 68.1736 250.039 67.4314 248.444 67.8987C246.958 68.3386 245.921 69.7774 245.619 71.2986C245.316 72.8199 245.646 74.3961 246.151 75.8623C247.884 80.8843 250.489 85.4205 255.423 87.4275Z" fill="#455A64"/>
<path d="M260.073 96.0052C265.659 90.9099 273.812 88.7839 281.177 90.4884C283.057 90.9191 285.167 91.9088 285.479 93.815C285.791 95.7211 284.085 97.334 282.415 98.2962C275.473 102.319 266.062 101.559 259.853 96.4817" fill="#455A64"/>
<path d="M286.992 56.2878C283.892 55.4355 280.498 56.2053 277.756 57.8732C275.014 59.5502 272.868 62.052 271.153 64.7646C267.832 70.0065 266.658 77.0628 266.512 83.267C273.409 82.992 279.297 77.576 282.113 74.6344C286.57 70.0065 291.798 58.9179 286.992 56.2878Z" fill="#455A64"/>
<path d="M249.645 105.371C250.049 104.638 250.709 104.125 251.369 102.777C252.662 100.092 254.405 96.2617 255.249 91.7163C256.093 87.1617 255.524 82.8546 254.387 80.0504C253.836 78.6391 253.213 77.5669 252.717 76.8888C252.222 76.2015 251.892 75.8716 251.865 75.8899C251.745 75.9632 252.965 77.4111 253.919 80.2153C254.9 82.9921 255.377 87.1526 254.561 91.5972C253.736 96.0418 252.094 99.8449 250.911 102.576" fill="#263238"/>
<path d="M249.581 105.453C250.507 104.262 251.709 102.704 253.176 100.825C256.194 96.912 260.385 91.5144 265.09 85.6127C269.795 79.7201 274.124 74.4324 277.27 70.6202C278.774 68.7782 280.031 67.2569 280.984 66.0931C281.856 65.0209 282.314 64.4069 282.287 64.3794C282.25 64.3519 281.718 64.9018 280.783 65.919C279.847 66.9362 278.517 68.4391 276.903 70.3086C273.656 74.0475 269.263 79.2894 264.558 85.1911C259.853 91.0928 255.717 96.5455 252.8 100.541C251.342 102.539 250.168 104.161 249.388 105.306" fill="#263238"/>
<path d="M276.876 94.5571C276.885 94.5113 276.463 94.383 275.684 94.1906C275.289 94.0898 274.812 93.9798 274.244 93.9157C273.675 93.8423 273.033 93.7232 272.308 93.7049C270.868 93.5949 269.144 93.6499 267.246 93.8973C265.356 94.1814 263.302 94.6763 261.229 95.4644C259.175 96.28 257.322 97.3064 255.735 98.3694C254.167 99.4691 252.855 100.596 251.874 101.65C251.351 102.145 250.957 102.677 250.59 103.107C250.214 103.538 249.93 103.941 249.709 104.28C249.26 104.949 249.324 105.261 249.361 105.288C249.471 105.371 250.177 103.96 252.213 101.989C253.222 101 254.543 99.9365 256.093 98.8918C257.661 97.8746 259.477 96.894 261.477 96.1059C263.494 95.3361 265.494 94.8412 267.328 94.5297C269.172 94.2547 270.859 94.1448 272.281 94.1906C275.115 94.2731 276.848 94.6946 276.876 94.5571Z" fill="#263238"/>
<path d="M26.1805 15.7351C26.1805 15.7351 17.1923 18.4385 25.4835 37.7382C33.7746 57.0378 39.7729 66.7151 39.7729 66.7151C39.7729 66.7151 41.1761 71.1597 37.48 71.5904C33.7838 72.0211 25.832 70.2066 23.906 74.5688C21.9157 79.0867 24.9882 83.6779 31.5551 87.9576C38.122 92.2372 52.1729 102.153 53.4478 103.051C54.6951 103.94 55.8599 106.038 53.3836 106.735C50.9164 107.431 32.7016 108.119 33.5454 116.733C34.3891 125.347 54.6585 134.273 56.8505 135.29C59.0517 136.307 59.5194 137.297 59.2534 138.525C58.9875 139.753 52.8425 139.405 47.6697 139.808C42.4969 140.211 36.572 141.595 37.48 146.525C38.388 151.456 50.0084 162.453 79.6878 167.355L93.592 168.73L101.957 157.477C118.383 132.294 118.117 116.302 115.081 112.307C112.055 108.311 107.038 111.748 103.241 115.285C99.4435 118.822 95.5548 123.578 94.4725 122.946C93.3903 122.314 92.9775 121.297 93.7113 118.987C94.445 116.678 101.544 95.7196 95.7565 89.2772C89.9692 82.8348 77.1656 95.7929 74.9828 97.14C72.7999 98.4871 72.0387 96.2053 72.2221 94.6932C72.4147 93.1536 74.5884 76.0992 75.8633 68.3647C77.1381 60.6301 75.8266 55.26 71.1491 53.6837C66.6366 52.1625 62.6011 59.2464 59.7854 61.6749C56.9697 64.1033 54.6401 60.0711 54.6401 60.0711C54.6401 60.0711 51.5401 49.12 42.9004 29.9762C34.2516 10.8415 26.0063 15.7993 26.0063 15.7993" fill="#EBEBEB"/>
<path d="M94.1147 172.075C87.8229 157.99 77.0555 132.761 67.7004 111.152C58.3453 89.5521 49.8616 70.0051 43.6432 55.8831C40.534 48.8359 38.0118 43.1359 36.26 39.1678C35.3979 37.2067 34.7192 35.6763 34.2515 34.6224C34.0313 34.1092 33.8662 33.7151 33.7378 33.4402C33.6278 33.1745 33.5728 33.0278 33.5728 33.0278C33.5728 33.0278 33.6461 33.1561 33.7745 33.4219C33.9029 33.6968 34.0864 34.0909 34.3248 34.5949C34.8109 35.6396 35.508 37.1608 36.4068 39.1036C38.2044 43.0259 40.7725 48.7168 43.9184 55.764C50.2101 69.8493 58.7397 89.3872 68.0948 110.987C77.4498 132.596 88.1715 157.834 94.3898 171.956" fill="#E0E0E0"/>
<path d="M34.9395 77.5561C34.9486 77.5286 35.288 77.6478 35.8933 77.8952C36.4986 78.1335 37.3608 78.5092 38.4247 78.9766C40.5433 79.9205 43.4416 81.2951 46.615 82.8622C49.7333 84.4292 52.5582 85.8405 54.7135 86.9219C55.6857 87.4076 56.5111 87.8108 57.1715 88.1315C57.7493 88.4156 58.0703 88.5897 58.0611 88.6172C58.052 88.6447 57.7126 88.5256 57.1073 88.2873C56.502 88.049 55.6398 87.6733 54.5851 87.1968C52.4756 86.2346 49.5957 84.8233 46.4223 83.247C43.2948 81.7075 40.4608 80.3145 38.2963 79.2515C37.3149 78.775 36.4895 78.3717 35.8291 78.051C35.2421 77.7577 34.9211 77.5836 34.9395 77.5561Z" fill="#E0E0E0"/>
<path d="M59.0608 87.7926C58.9507 87.7468 61.5279 81.6526 64.8022 74.1839C68.0857 66.7151 70.8371 60.7035 70.9472 60.7493C71.0573 60.7951 68.4892 66.8892 65.2058 74.358C61.9223 81.8268 59.1708 87.8384 59.0608 87.7926Z" fill="#E0E0E0"/>
<path d="M71.9288 121.617C71.9105 121.599 72.1306 121.306 72.5525 120.793C73.0386 120.215 73.6347 119.501 74.3501 118.648C75.8634 116.834 77.9546 114.323 80.1466 111.464C82.3478 108.604 84.2555 105.956 85.622 104.022C86.264 103.115 86.8052 102.345 87.2362 101.731C87.6214 101.191 87.8507 100.907 87.8691 100.916C87.8966 100.934 87.7132 101.255 87.3738 101.823C87.0345 102.391 86.5209 103.198 85.8697 104.187C84.5673 106.167 82.6963 108.852 80.4859 111.72C78.2847 114.589 76.1569 117.081 74.5794 118.841C73.7906 119.72 73.1394 120.426 72.6717 120.903C72.2131 121.379 71.9471 121.636 71.9288 121.617Z" fill="#E0E0E0"/>
<path d="M48.064 117.164C48.0731 117.136 48.4033 117.164 49.0178 117.246C49.7149 117.347 50.5678 117.475 51.5859 117.622C53.7504 117.961 56.7312 118.447 60.0146 119.024C63.3072 119.592 66.2788 120.133 68.425 120.545C69.4247 120.747 70.2777 120.921 70.9655 121.058C71.5617 121.187 71.8919 121.278 71.8827 121.306C71.8735 121.333 71.5433 121.306 70.9288 121.223C70.2318 121.123 69.3788 120.994 68.3608 120.848C66.1963 120.509 63.2155 120.023 59.9229 119.446C56.6303 118.877 53.6587 118.337 51.5125 117.924C50.5128 117.723 49.6598 117.549 48.972 117.411C48.3941 117.274 48.064 117.191 48.064 117.164Z" fill="#E0E0E0"/>
<path d="M55.6305 148.468C55.6397 148.441 56.0708 148.477 56.8503 148.578C57.7033 148.697 58.8131 148.862 60.143 149.046C62.9128 149.458 66.7465 150.063 70.9655 150.75C75.1844 151.437 79.009 152.088 81.7697 152.583C83.0904 152.83 84.1818 153.032 85.0348 153.188C85.8052 153.344 86.2271 153.435 86.2271 153.472C86.2179 153.499 85.7868 153.463 85.0164 153.362C84.1634 153.243 83.0537 153.078 81.7238 152.895C78.954 152.482 75.1202 151.877 70.9013 151.19C66.6823 150.503 62.8578 149.852 60.0971 149.357C58.7764 149.11 57.685 148.908 56.832 148.752C56.0432 148.597 55.6213 148.496 55.6305 148.468Z" fill="#E0E0E0"/>
<path d="M85.5116 153.142C85.4841 153.124 85.7593 152.748 86.2729 152.079C86.8324 151.355 87.5753 150.411 88.4557 149.275C90.2992 146.901 92.8306 143.62 95.5179 139.918C98.2144 136.216 100.571 132.807 102.25 130.323C103.057 129.132 103.736 128.142 104.249 127.382C104.726 126.685 105.001 126.309 105.029 126.328C105.056 126.346 104.827 126.749 104.396 127.473C103.965 128.197 103.323 129.224 102.507 130.488C100.883 133.018 98.5629 136.463 95.8664 140.166C93.17 143.877 90.6019 147.13 88.6942 149.458C87.7404 150.613 86.9608 151.547 86.4013 152.18C85.851 152.821 85.5392 153.16 85.5116 153.142Z" fill="#E0E0E0"/>
<path d="M294.304 207.724C275.722 194.756 271.512 170.682 272.246 149.046C272.365 145.435 271.971 141.623 273.695 138.452C275.42 135.281 279.428 133.119 282.665 134.64C285.352 135.905 286.517 139.02 288.021 141.605C290.021 145.041 292.992 147.882 296.496 149.697C298.798 150.888 301.65 151.621 303.916 150.365C307.034 148.643 307.401 144.345 307.383 140.752C307.337 134.053 307.3 127.364 307.254 120.665C307.236 117.072 307.218 113.407 308.337 109.998C309.455 106.588 311.923 103.418 315.344 102.465C318.765 101.512 322.993 103.482 323.717 106.992C324.02 108.458 323.717 109.97 323.818 111.464C323.919 112.958 324.616 114.607 326.029 115.019C327.459 115.441 328.899 114.424 329.982 113.37C333.696 109.741 336.209 105.067 338.566 100.421C340.923 95.7748 343.207 91.0187 346.573 87.0598C349.939 83.1009 354.598 79.9667 359.744 79.6735C364.898 79.3802 370.383 82.5602 371.685 87.6096C372.987 92.6774 370.034 97.8093 366.815 101.915C362.036 108 356.396 113.379 350.104 117.833C348.967 118.639 347.738 119.501 347.307 120.839C346.527 123.231 348.793 125.613 351.168 126.401C353.846 127.29 356.754 127.015 359.56 127.345C362.367 127.675 365.402 128.912 366.457 131.561C367.934 135.236 364.852 139.084 361.835 141.605C355.781 146.654 348.866 150.64 341.483 153.344C338.841 154.315 336.053 155.158 333.925 157.019C331.788 158.879 330.504 162.105 331.798 164.634C333.091 167.163 336.393 167.979 339.162 167.466C341.932 166.953 344.409 165.45 347.05 164.451C351.993 162.59 358.368 162.93 361.541 167.191C363.623 169.995 363.807 173.899 362.752 177.244C361.697 180.589 359.569 183.466 357.304 186.124C349.389 195.407 339.245 202.885 327.78 206.853C316.316 210.803 305.695 211.884 294.304 207.724Z" fill="#F5F5F5"/>
<path d="M294.02 223.761C294.808 215.193 296.688 205.066 299.899 194.152C303.09 183.228 307.575 171.553 312.684 159.493C313.977 156.487 315.252 153.509 316.499 150.576C317.756 147.653 319.012 144.757 320.406 141.999C323.176 136.464 326.267 131.359 329.349 126.603C332.43 121.847 335.53 117.439 338.456 113.343C341.391 109.246 344.198 105.489 346.903 102.162C352.296 95.5001 357.276 90.6522 360.826 87.454C362.596 85.8502 364.017 84.6589 364.99 83.8525C365.457 83.4767 365.824 83.1743 366.099 82.9544C366.356 82.7528 366.485 82.6611 366.494 82.6611C366.503 82.6703 366.384 82.7894 366.145 83.0002C365.879 83.2385 365.531 83.5501 365.081 83.9533C364.137 84.7872 362.752 86.0152 361.009 87.6372C357.515 90.8813 352.608 95.7658 347.279 102.446C344.601 105.773 341.822 109.549 338.915 113.645C336.007 117.751 332.935 122.158 329.871 126.915C326.808 131.671 323.745 136.766 321.002 142.265C319.618 145.014 318.379 147.882 317.123 150.815C315.866 153.747 314.601 156.716 313.307 159.722C308.199 171.773 303.705 183.411 300.495 194.289C297.266 205.158 295.34 215.229 294.506 223.77" fill="#E0E0E0"/>
<path d="M320.599 141.981C320.553 141.99 320.434 141.44 320.25 140.45C320.058 139.461 319.838 138.013 319.581 136.226C319.076 132.652 318.535 127.685 317.976 122.214C317.407 116.733 316.802 111.794 316.242 108.238C315.967 106.461 315.729 105.022 315.554 104.023C315.38 103.033 315.307 102.474 315.353 102.465C315.399 102.456 315.555 102.987 315.802 103.968C316.059 104.948 316.362 106.378 316.701 108.156C317.38 111.712 318.058 116.66 318.627 122.14C319.177 127.547 319.663 132.432 320.039 136.171C320.223 137.857 320.37 139.277 320.498 140.423C320.608 141.412 320.645 141.971 320.599 141.981Z" fill="#E0E0E0"/>
<path d="M366.824 133.348C366.824 133.394 366.164 133.467 364.981 133.568C363.797 133.678 362.073 133.815 359.964 134.063C355.726 134.521 349.902 135.355 343.519 136.555C337.136 137.774 331.394 139.112 327.276 140.212C325.212 140.743 323.552 141.22 322.406 141.54C321.259 141.87 320.617 142.026 320.599 141.98C320.581 141.935 321.204 141.696 322.323 141.293C323.451 140.899 325.093 140.349 327.148 139.753C331.247 138.544 336.98 137.123 343.391 135.895C349.802 134.686 355.653 133.925 359.918 133.586C362.046 133.403 363.77 133.329 364.971 133.302C366.164 133.284 366.824 133.302 366.824 133.348Z" fill="#E0E0E0"/>
<path d="M300.458 193.309C300.44 193.318 300.33 193.125 300.137 192.75C299.926 192.301 299.66 191.751 299.348 191.082C298.67 189.625 297.743 187.499 296.624 184.85C294.396 179.562 291.543 172.149 288.507 163.938C285.472 155.717 282.693 148.294 280.574 142.97C279.538 140.377 278.685 138.251 278.052 136.665C277.777 135.978 277.557 135.41 277.373 134.942C277.226 134.548 277.153 134.337 277.181 134.319C277.199 134.31 277.309 134.502 277.502 134.887C277.712 135.336 277.978 135.886 278.29 136.555C278.969 138.012 279.895 140.138 281.014 142.787C283.243 148.074 286.095 155.488 289.131 163.699C292.167 171.92 294.946 179.333 297.065 184.667C298.101 187.26 298.954 189.386 299.587 190.972C299.862 191.659 300.082 192.227 300.265 192.695C300.412 193.079 300.486 193.29 300.458 193.309Z" fill="#E0E0E0"/>
<path d="M361.89 173.523C361.899 173.541 361.688 173.633 361.284 173.77C360.807 173.935 360.211 174.128 359.496 174.366C357.845 174.898 355.626 175.622 352.92 176.492C347.362 178.288 339.722 180.864 331.284 183.723C322.837 186.582 315.169 189.084 309.575 190.77C306.777 191.613 304.512 192.273 302.934 192.694C302.201 192.887 301.605 193.043 301.119 193.171C300.697 193.272 300.476 193.318 300.467 193.29C300.458 193.272 300.669 193.18 301.073 193.033C301.55 192.878 302.146 192.676 302.861 192.438C304.512 191.906 306.732 191.182 309.437 190.312C314.995 188.516 322.635 185.94 331.082 183.081C339.52 180.222 347.197 177.72 352.791 176.034C355.589 175.191 357.854 174.531 359.432 174.11C360.165 173.917 360.762 173.761 361.248 173.633C361.66 173.541 361.881 173.496 361.89 173.523Z" fill="#E0E0E0"/>
<path d="M89.3271 229.341C103.91 214.633 103.754 192.3 99.5443 172.954C98.8381 169.729 98.5721 166.237 96.5085 163.671C94.4449 161.105 90.4827 159.813 87.8138 161.71C85.6034 163.286 85.0623 166.283 84.1359 168.849C82.8978 172.267 80.6874 175.31 77.835 177.509C75.964 178.957 73.5152 180.084 71.2681 179.324C68.1865 178.288 67.1501 174.476 66.5723 171.241C65.5083 165.211 64.4536 159.181 63.3897 153.16C62.8211 149.925 62.2249 146.626 60.6657 143.739C59.0974 140.853 56.3642 138.415 53.1266 138.112C49.889 137.81 46.413 140.275 46.3396 143.556C46.3121 144.921 46.8257 146.241 46.9816 147.597C47.1376 148.954 46.7799 150.548 45.5784 151.162C44.3586 151.776 42.9003 151.098 41.7538 150.328C37.8192 147.671 34.7925 143.886 31.9126 140.092C29.0327 136.298 26.1987 132.394 22.5209 129.388C18.8431 126.382 14.138 124.32 9.46048 124.907C4.78295 125.484 0.371388 129.242 0.0228658 133.998C-0.316485 138.763 3.17791 142.905 6.74568 146.067C12.0377 150.759 17.9993 154.672 24.3827 157.641C25.5384 158.182 26.7765 158.759 27.391 159.886C28.4825 161.912 26.8316 164.423 24.8321 165.522C22.5667 166.76 19.907 166.989 17.4398 167.74C14.9726 168.492 12.4413 170.104 11.9276 172.661C11.2031 176.208 14.5966 179.159 17.7333 180.936C24.0067 184.483 30.8762 186.939 37.9568 188.158C40.4973 188.598 43.1387 188.9 45.3583 190.22C47.5778 191.539 49.2654 194.234 48.5225 196.717C47.7796 199.21 44.9364 200.474 42.3591 200.465C39.7819 200.456 37.3056 199.512 34.7742 199.045C30.0233 198.174 24.346 199.53 22.1999 203.883C20.7875 206.743 21.2644 210.289 22.7594 213.121C24.2543 215.953 26.6481 218.198 29.1153 220.214C37.755 227.27 48.1006 232.329 59.0607 234.024C70.0391 235.72 79.7702 234.95 89.3271 229.341Z" fill="#6CCD6C"/>
<path d="M92.2162 243.729C90.1067 236.15 86.7499 227.353 82.0816 218.06C77.4224 208.759 71.47 198.99 64.8939 188.983C63.243 186.49 61.6105 184.025 59.9963 181.596C58.3821 179.177 56.7862 176.776 55.0711 174.522C51.6684 170.004 48.0548 165.917 44.5054 162.141C40.956 158.365 37.4432 154.911 34.1414 151.703C30.8305 148.505 27.6846 145.581 24.713 143.034C18.7698 137.92 13.4961 134.374 9.78158 132.092C7.91973 130.937 6.45227 130.094 5.45257 129.535C4.96647 129.269 4.59043 129.059 4.30611 128.903C4.04931 128.765 3.91173 128.701 3.90256 128.71C3.89339 128.719 4.02179 128.802 4.26942 128.958C4.54457 129.123 4.92061 129.352 5.38836 129.636C6.36973 130.232 7.81885 131.102 9.66234 132.284C13.3402 134.63 18.5497 138.223 24.4378 143.355C27.3911 145.911 30.5095 148.844 33.8021 152.061C37.0855 155.277 40.5799 158.741 44.111 162.517C47.6421 166.292 51.2282 170.37 54.6034 174.87C56.3001 177.115 57.8868 179.498 59.501 181.926C61.106 184.355 62.7386 186.82 64.3895 189.313C70.9564 199.311 76.9088 209.052 81.5771 218.308C86.2638 227.555 89.639 236.297 91.7943 243.839" fill="#263238"/>
<path d="M54.9058 174.53C54.9425 174.53 54.97 174.017 54.97 173.092C54.9792 172.166 54.9425 170.828 54.8783 169.179C54.7499 165.88 54.4105 161.325 54.0253 156.312C53.6401 151.29 53.3649 146.754 53.2916 143.455C53.2457 141.805 53.2274 140.477 53.2182 139.551C53.209 138.625 53.1815 138.121 53.1448 138.112C53.099 138.112 53.0439 138.616 52.9889 139.542C52.9155 140.467 52.8788 141.796 52.8697 143.455C52.8422 146.763 53.0439 151.327 53.4291 156.349C53.8235 161.298 54.1812 165.779 54.4564 169.197C54.5664 170.746 54.6673 172.047 54.7407 173.092C54.8049 174.017 54.8599 174.53 54.9058 174.53Z" fill="#263238"/>
<path d="M11.9186 174.329C11.9277 174.375 12.5331 174.329 13.6153 174.229C14.6976 174.128 16.2659 173.981 18.2103 173.853C22.0899 173.569 27.4737 173.367 33.4077 173.404C39.3509 173.45 44.7255 173.725 48.6143 174.027C50.5587 174.164 52.127 174.32 53.2093 174.421C54.2915 174.531 54.8968 174.568 54.906 174.522C54.9152 174.476 54.319 174.366 53.2368 174.183C52.1545 174.009 50.5862 173.789 48.6418 173.587C44.753 173.166 39.3601 172.826 33.3985 172.781C27.437 172.744 22.044 173.019 18.1553 173.413C16.2109 173.596 14.6425 173.816 13.5695 173.981C12.5055 174.174 11.9094 174.284 11.9186 174.329Z" fill="#263238"/>
<path d="M81.4302 217.391C81.4485 217.4 81.5127 217.208 81.6228 216.832C81.742 216.392 81.8888 215.852 82.063 215.201C82.4391 213.781 82.9252 211.719 83.4938 209.153C84.6311 204.03 85.9793 196.9 87.3643 189.019C88.7492 181.129 90.0332 173.999 91.0604 168.858C91.5649 166.356 91.9868 164.303 92.2986 162.773C92.427 162.113 92.5371 161.563 92.6288 161.114C92.693 160.739 92.7205 160.528 92.7021 160.528C92.6838 160.528 92.6196 160.72 92.5095 161.087C92.3903 161.527 92.2436 162.067 92.0693 162.718C91.6933 164.138 91.2072 166.2 90.6385 168.766C89.5012 173.889 88.153 181.019 86.7681 188.9C85.3832 196.781 84.0991 203.911 83.0719 209.052C82.5583 211.554 82.1456 213.606 81.8337 215.137C81.7053 215.797 81.5953 216.346 81.5036 216.796C81.4302 217.18 81.4119 217.382 81.4302 217.391Z" fill="#263238"/>
<path d="M22.9429 209.657C22.9429 209.675 23.1446 209.721 23.5299 209.785C23.9884 209.849 24.5479 209.932 25.2358 210.033C26.8041 210.244 28.9228 210.528 31.5 210.876C36.792 211.581 44.0835 212.654 52.1454 213.836C60.2072 215.027 67.517 216.017 72.8274 216.622C75.478 216.924 77.6333 217.144 79.1191 217.263C79.807 217.318 80.3756 217.355 80.8342 217.391C81.2286 217.419 81.4304 217.419 81.4396 217.391C81.4396 217.373 81.2378 217.327 80.8526 217.263C80.394 217.199 79.8345 217.117 79.1466 217.016C77.5783 216.805 75.4597 216.521 72.8824 216.173C67.5904 215.467 60.2989 214.404 52.2371 213.213C44.1752 212.021 36.8654 211.032 31.5642 210.427C28.9136 210.124 26.7583 209.904 25.2725 209.785C24.5846 209.73 24.016 209.684 23.5574 209.657C23.1538 209.639 22.9429 209.63 22.9429 209.657Z" fill="#263238"/>
<path d="M224.242 371.523L101.461 370.955C86.6947 370.891 74.7808 358.547 74.845 343.38L76.184 27.3461C76.2482 12.1794 88.2814 -0.0729857 103.057 0.000327295L225.838 0.568503C240.604 0.632652 252.518 12.9767 252.454 28.1433L251.115 344.177C251.05 359.353 239.017 371.596 224.242 371.523Z" fill="#263238"/>
<path d="M242.714 288.698C242.714 290.192 241.503 291.401 240.008 291.401C238.513 291.401 237.302 290.192 237.302 288.698C237.302 287.204 238.513 285.995 240.008 285.995C241.503 285.995 242.714 287.204 242.714 288.698Z" fill="#E0E0E0"/>
<path d="M240.008 294.627C239.88 294.627 239.77 293.298 239.77 291.667C239.77 290.027 239.88 288.698 240.008 288.698C240.136 288.698 240.246 290.027 240.246 291.667C240.246 293.298 240.146 294.627 240.008 294.627Z" fill="#E0E0E0"/>
<path d="M228.296 11.0067L203.743 10.8968C200.451 10.8784 197.772 13.6552 197.754 17.1009L197.736 21.5546C197.727 24.9912 195.039 27.7679 191.747 27.7587L143.889 27.5388C140.596 27.5205 137.937 24.7254 137.955 21.2797L137.973 16.8259C137.992 13.3894 135.332 10.5852 132.039 10.5668L123.4 10.5302L101.911 10.4294C91.2348 10.3836 82.5492 18.9887 82.5034 29.6557L81.1918 339.302C81.146 349.96 89.7581 358.638 100.425 358.693L226.819 359.28C237.495 359.326 246.18 350.721 246.226 340.054L247.538 30.4072C247.565 19.731 238.962 11.0525 228.296 11.0067Z" fill="#FAFAFA"/>
<path d="M89.5748 255.35C90.6479 254.543 143.513 231.276 143.513 231.276L81.7698 200.502L81.5588 250.062L89.5748 255.35Z" fill="#EBEBEB"/>
<path d="M92.8031 199.549L137.836 176.676L89.4371 149.861L81.9806 151.731L81.7971 195.114L92.8031 199.549Z" fill="#2693FF"/>
<path d="M83.604 146.746L222.435 81.9553L84.8789 37.042L83.604 146.746Z" fill="#EBEBEB"/>
<path d="M81.9897 315.475L145.43 282.943L239.87 338.459L217.372 358.171H136.781L81.9897 324.713V315.475Z" fill="#EBEBEB"/>
<path d="M157.922 279.433L236.376 325.904L245.116 324.914V280.221L202.129 257.485L157.922 279.433Z" fill="#EBEBEB"/>
<path d="M170.817 235.042L244.786 276.629V222.267L218.024 210.812L170.817 235.042Z" fill="#EBEBEB"/>
<path d="M91.8127 257.952L135.204 281.742L187.858 254.488L146.026 233.228L91.8127 257.952Z" fill="#EBEBEB"/>
<path d="M156.949 176.373L218.418 206.816L246.923 192.264L247.107 171.874L205.577 151.731L156.949 176.373Z" fill="#EBEBEB"/>
<path d="M94.0779 202.922L155.555 233.365L184.061 218.812L184.244 198.413L142.715 178.279L94.0779 202.922Z" fill="#EBEBEB"/>
<path d="M102.598 148.221L152.694 173.294L199.414 148.221L151.006 126.154L102.598 148.221Z" fill="#EBEBEB"/>
<path d="M199.414 308.392C199.405 308.41 199.093 308.254 198.506 307.933C197.919 307.604 197.048 307.118 195.911 306.476C193.636 305.166 190.288 303.232 185.968 300.73C177.329 295.672 164.791 288.322 149.135 279.149L148.374 278.7L149.172 278.297C162.874 271.332 179.273 263.002 197.488 253.746L197.479 254.855C186.308 248.907 174.137 242.428 161.398 235.638L160.251 235.033L161.398 234.428C177.081 226.199 194.003 217.328 211.521 208.145L211.53 209.419C209.64 208.466 207.595 207.431 205.55 206.395C163.553 185.107 124.693 165.404 93.2891 149.486L92.2344 148.954L93.2983 148.45C118.144 136.61 138.606 126.86 152.868 120.06C160.004 116.697 165.589 114.076 169.405 112.28C171.312 111.409 172.77 110.731 173.761 110.282C174.247 110.071 174.623 109.906 174.88 109.787C175.137 109.677 175.265 109.631 175.274 109.649C175.284 109.668 175.164 109.741 174.917 109.869C174.669 109.998 174.302 110.19 173.834 110.438C172.862 110.932 171.422 111.647 169.551 112.591C165.773 114.451 160.233 117.173 153.152 120.656C138.936 127.565 118.548 137.472 93.7935 149.495L93.8027 148.45C125.243 164.304 164.14 183.915 206.183 205.121C208.228 206.157 210.273 207.192 212.163 208.145L213.401 208.769L212.172 209.41C194.645 218.574 177.714 227.436 162.021 235.638L162.031 234.428C174.752 241.246 186.904 247.762 198.057 253.746L199.121 254.314L198.038 254.855C179.778 264.019 163.333 272.267 149.594 279.149L149.621 278.297C165.176 287.626 177.65 295.104 186.234 300.254C190.499 302.847 193.801 304.854 196.048 306.22C197.149 306.907 197.992 307.439 198.57 307.796C199.139 308.172 199.423 308.373 199.414 308.392Z" fill="url(#paint0_linear)"/>
<path d="M174 180.241L173.78 169.445L201.946 183.072V194.289L174 180.241Z" fill="#F5F5F5"/>
<path d="M201.946 183.073L236.926 165.707V177.794L201.946 194.289V183.073Z" fill="#E0E0E0"/>
<path d="M173.78 169.445L208.1 152.29L236.926 165.706L201.946 183.072L173.78 169.445Z" fill="#F5F5F5"/>
<path d="M177.457 174.11V179.343L180.209 180.589V175.576L177.457 174.11Z" fill="#FAFAFA"/>
<path d="M181.86 176.053V181.285L184.611 182.523V177.519L181.86 176.053Z" fill="#FAFAFA"/>
<path d="M85.3833 112.133V98.0752L118.722 114.213V127.483L85.3833 112.133Z" fill="#E0E0E0"/>
<path d="M118.722 114.213L160.141 93.6489V107.963L118.722 127.483V114.213Z" fill="#F5F5F5"/>
<path d="M85.3833 98.0754L126.014 77.7769L160.141 93.6491L118.722 114.213L85.3833 98.0754Z" fill="#FAFAFA"/>
<path d="M89.7397 103.592V109.796L92.9957 111.263V105.343L89.7397 103.592Z" fill="#FAFAFA"/>
<path d="M94.9495 105.892V112.096L98.2054 113.562V107.633L94.9495 105.892Z" fill="#FAFAFA"/>
<path d="M185.877 229.553C185.877 230.213 185.877 240.623 185.877 240.623L197.763 246.479V235.042L185.877 229.553Z" fill="#E0E0E0"/>
<path d="M212.942 227.793L197.763 235.042V246.479L212.942 238.011V227.793Z" fill="#E0E0E0"/>
<path d="M185.877 229.553L200.927 222.267L212.942 227.793L197.763 235.042L185.877 229.553Z" fill="#F5F5F5"/>
<path d="M190.105 237.498V242.731L192.856 243.977V238.973L190.105 237.498Z" fill="#FAFAFA"/>
<path d="M89.9048 223.825C89.9048 224.485 89.9048 234.895 89.9048 234.895L101.791 240.751V229.314L89.9048 223.825Z" fill="#E0E0E0"/>
<path d="M116.97 222.065L101.782 229.323V240.751L116.97 232.283V222.065Z" fill="#E0E0E0"/>
<path d="M89.9048 223.825L104.946 216.54L116.97 222.066L101.782 229.324L89.9048 223.825Z" fill="#F5F5F5"/>
<path d="M94.1238 231.77V237.003L96.8753 238.249V233.246L94.1238 231.77Z" fill="#FAFAFA"/>
<path d="M139.166 150.759C139.166 151.419 139.166 161.83 139.166 161.83L151.043 167.685V156.249L139.166 150.759Z" fill="#F5F5F5"/>
<path d="M166.231 149L151.043 156.249V167.686L166.231 159.218V149Z" fill="#E0E0E0"/>
<path d="M139.166 150.76L154.207 143.474L166.231 149L151.043 156.249L139.166 150.76Z" fill="#F5F5F5"/>
<path d="M143.385 158.705V163.937L146.136 165.184V160.171L143.385 158.705Z" fill="#E0E0E0"/>
<path d="M125.958 245.626C125.958 246.286 125.958 256.696 125.958 256.696L137.845 262.552V251.116L125.958 245.626Z" fill="#E0E0E0"/>
<path d="M153.024 243.867L137.836 251.125V262.562L153.024 254.094V243.867Z" fill="#EBEBEB"/>
<path d="M125.958 245.626L141.009 238.35L153.024 243.867L137.836 251.125L125.958 245.626Z" fill="#F5F5F5"/>
<path d="M130.177 253.581V258.814L132.929 260.051V255.047L130.177 253.581Z" fill="#FAFAFA"/>
<path d="M175.009 272.376C175.009 273.201 175.009 286.26 175.009 286.26L200.047 300.996V286.654L175.009 272.376Z" fill="#F5F5F5"/>
<path d="M219.087 276.409L200.047 286.654V300.996L219.087 290.375V276.409Z" fill="#E0E0E0"/>
<path d="M175.009 272.377L193.875 263.24L219.087 276.409L200.047 286.654L175.009 272.377Z" fill="#FAFAFA"/>
<path d="M184.465 285.216V291.777L187.913 293.857V287.36L184.465 285.216Z" fill="#FAFAFA"/>
<path d="M114.778 300.95C114.778 301.775 114.778 314.834 114.778 314.834L139.817 329.57V315.237L114.778 300.95Z" fill="#E0E0E0"/>
<path d="M169.689 299.053L139.817 315.237V329.57L169.781 312.983L169.689 299.053Z" fill="#FAFAFA"/>
<path d="M114.778 300.95L146.384 285.665L169.781 299.108L139.817 315.237L114.778 300.95Z" fill="#F5F5F5"/>
<path d="M124.234 313.789V320.36L127.683 322.431V315.934L124.234 313.789Z" fill="#FAFAFA"/>
<path d="M209.558 249.036V304.488L225.187 312.561V256.413L209.558 249.036Z" fill="#F5F5F5"/>
<path d="M221.105 243.72L209.558 249.036L225.187 256.413L235.697 250.493L221.105 243.72Z" fill="#FAFAFA"/>
<path d="M225.187 256.413V312.561L234.697 307.448L235.697 250.493L225.187 256.413Z" fill="#E0E0E0"/>
<path d="M143.513 204.122V259.574L159.142 267.648V211.499L143.513 204.122Z" fill="#F5F5F5"/>
<path d="M155.051 198.798L143.513 204.122L159.142 211.499L169.652 205.579L155.051 198.798Z" fill="#FAFAFA"/>
<path d="M159.142 211.499V267.648L168.643 262.965L169.652 205.579L159.142 211.499Z" fill="#E0E0E0"/>
<path d="M150.603 309.574C150.603 310.399 150.603 323.458 150.603 323.458L175.641 338.193V323.861L150.603 309.574Z" fill="#E0E0E0"/>
<path d="M194.682 313.615L175.641 323.861V338.193L194.682 327.581V313.615Z" fill="#FAFAFA"/>
<path d="M150.603 309.574L169.689 299.053L194.682 313.615L175.641 323.861L150.603 309.574Z" fill="#F5F5F5"/>
<path d="M160.059 322.413V328.984L163.516 331.055V324.557L160.059 322.413Z" fill="#FAFAFA"/>
<path d="M206.293 144.043L160.692 123.506L224.196 91.2114L245.034 122.259L206.293 144.043Z" fill="#EBEBEB"/>
<path d="M246.877 242.069L247.198 219.982L211.842 232.472L246.877 242.069Z" fill="#055EFF"/>
<path d="M220.014 198.514C220.014 200.008 218.803 201.217 217.308 201.217C215.813 201.217 214.603 200.008 214.603 198.514C214.603 197.02 215.813 195.811 217.308 195.811C218.803 195.811 220.014 197.02 220.014 198.514Z" fill="#E0E0E0"/>
<path d="M217.308 204.443C217.18 204.443 217.07 203.114 217.07 201.483C217.07 199.843 217.18 198.523 217.308 198.523C217.436 198.523 217.547 199.852 217.547 201.483C217.547 203.114 217.446 204.443 217.308 204.443Z" fill="#E0E0E0"/>
<path d="M146.219 191.888C146.219 193.382 145.008 194.591 143.513 194.591C142.018 194.591 140.807 193.382 140.807 191.888C140.807 190.394 142.018 189.185 143.513 189.185C145.008 189.185 146.219 190.394 146.219 191.888Z" fill="#E0E0E0"/>
<path d="M143.513 197.817C143.385 197.817 143.275 196.488 143.275 194.857C143.275 193.216 143.385 191.888 143.513 191.888C143.642 191.888 143.752 193.216 143.752 194.857C143.752 196.488 143.642 197.817 143.513 197.817Z" fill="#E0E0E0"/>
<path d="M110.064 229.626C110.064 231.12 108.853 232.329 107.358 232.329C105.864 232.329 104.653 231.12 104.653 229.626C104.653 228.132 105.864 226.922 107.358 226.922C108.853 226.922 110.064 228.132 110.064 229.626Z" fill="#E0E0E0"/>
<path d="M107.358 235.555C107.23 235.555 107.12 234.226 107.12 232.595C107.12 230.954 107.23 229.625 107.358 229.625C107.487 229.625 107.597 230.954 107.597 232.595C107.597 234.226 107.487 235.555 107.358 235.555Z" fill="#E0E0E0"/>
<path d="M112.77 200.502C112.77 201.996 111.559 203.206 110.064 203.206C108.569 203.206 107.358 201.996 107.358 200.502C107.358 199.008 108.569 197.799 110.064 197.799C111.559 197.799 112.77 199.018 112.77 200.502Z" fill="#E0E0E0"/>
<path d="M110.064 206.432C109.936 206.432 109.825 205.103 109.825 203.472C109.825 201.831 109.936 200.502 110.064 200.502C110.192 200.502 110.302 201.831 110.302 203.472C110.302 205.112 110.192 206.432 110.064 206.432Z" fill="#E0E0E0"/>
<path d="M179.539 197.836C179.539 199.329 178.329 200.539 176.834 200.539C175.339 200.539 174.128 199.329 174.128 197.836C174.128 196.342 175.339 195.132 176.834 195.132C178.319 195.132 179.539 196.342 179.539 197.836Z" fill="#E0E0E0"/>
<path d="M176.833 203.765C176.705 203.765 176.595 202.436 176.595 200.805C176.595 199.165 176.705 197.836 176.833 197.836C176.962 197.836 177.072 199.165 177.072 200.805C177.072 202.436 176.962 203.765 176.833 203.765Z" fill="#E0E0E0"/>
<path d="M222.261 218.079C222.261 219.573 221.05 220.783 219.555 220.783C218.06 220.783 216.85 219.573 216.85 218.079C216.85 216.586 218.06 215.376 219.555 215.376C221.05 215.376 222.261 216.586 222.261 218.079Z" fill="#E0E0E0"/>
<path d="M219.564 224.009C219.436 224.009 219.326 222.68 219.326 221.049C219.326 219.408 219.436 218.08 219.564 218.08C219.693 218.08 219.803 219.408 219.803 221.049C219.803 222.68 219.693 224.009 219.564 224.009Z" fill="#E0E0E0"/>
<path d="M223.994 233.979C223.994 235.473 222.783 236.682 221.288 236.682C219.793 236.682 218.583 235.473 218.583 233.979C218.583 232.485 219.793 231.276 221.288 231.276C222.783 231.276 223.994 232.485 223.994 233.979Z" fill="#E0E0E0"/>
<path d="M221.288 239.908C221.16 239.908 221.05 238.579 221.05 236.948C221.05 235.308 221.16 233.979 221.288 233.979C221.417 233.979 221.527 235.308 221.527 236.948C221.527 238.579 221.426 239.908 221.288 239.908Z" fill="#E0E0E0"/>
<path d="M148.136 266.97C148.136 268.464 146.925 269.673 145.43 269.673C143.935 269.673 142.724 268.464 142.724 266.97C142.724 265.476 143.935 264.266 145.43 264.266C146.925 264.266 148.136 265.476 148.136 266.97Z" fill="#E0E0E0"/>
<path d="M145.43 272.899C145.301 272.899 145.191 271.57 145.191 269.939C145.191 268.299 145.301 266.97 145.43 266.97C145.558 266.97 145.668 268.299 145.668 269.939C145.668 271.57 145.558 272.899 145.43 272.899Z" fill="#E0E0E0"/>
<path d="M234.303 316.804C235.797 316.804 237.009 315.594 237.009 314.101C237.009 312.608 235.797 311.397 234.303 311.397C232.809 311.397 231.597 312.608 231.597 314.101C231.597 315.594 232.809 316.804 234.303 316.804Z" fill="#E0E0E0"/>
<path d="M234.303 320.03C234.175 320.03 234.064 318.701 234.064 317.07C234.064 315.43 234.175 314.101 234.303 314.101C234.431 314.101 234.541 315.43 234.541 317.07C234.551 318.701 234.441 320.03 234.303 320.03Z" fill="#E0E0E0"/>
<path d="M185.317 343.664C185.317 345.158 184.107 346.368 182.612 346.368C181.117 346.368 179.906 345.158 179.906 343.664C179.906 342.171 181.117 340.961 182.612 340.961C184.107 340.97 185.317 342.18 185.317 343.664Z" fill="#E0E0E0"/>
<path d="M182.612 349.594C182.483 349.594 182.373 348.265 182.373 346.634C182.373 344.993 182.483 343.674 182.612 343.674C182.74 343.674 182.85 345.002 182.85 346.634C182.85 348.274 182.74 349.594 182.612 349.594Z" fill="#E0E0E0"/>
<path d="M164.489 335.499C164.489 336.993 163.278 338.202 161.783 338.202C160.288 338.202 159.077 336.993 159.077 335.499C159.077 334.005 160.288 332.796 161.783 332.796C163.278 332.796 164.489 334.005 164.489 335.499Z" fill="#E0E0E0"/>
<path d="M161.783 341.428C161.655 341.428 161.544 340.099 161.544 338.468C161.544 336.828 161.655 335.499 161.783 335.499C161.911 335.499 162.021 336.828 162.021 338.468C162.021 340.099 161.92 341.428 161.783 341.428Z" fill="#E0E0E0"/>
<path d="M212.264 329.57C212.264 331.064 211.053 332.273 209.558 332.273C208.063 332.273 206.852 331.064 206.852 329.57C206.852 328.076 208.063 326.866 209.558 326.866C211.053 326.866 212.264 328.076 212.264 329.57Z" fill="#E0E0E0"/>
<path d="M209.558 335.499C209.43 335.499 209.32 334.17 209.32 332.539C209.32 330.899 209.43 329.579 209.558 329.579C209.686 329.579 209.797 330.908 209.797 332.539C209.797 334.17 209.696 335.499 209.558 335.499Z" fill="#E0E0E0"/>
<path d="M168.827 280.212C170.321 280.212 171.532 279.002 171.532 277.509C171.532 276.016 170.321 274.805 168.827 274.805C167.332 274.805 166.121 276.016 166.121 277.509C166.121 279.002 167.332 280.212 168.827 280.212Z" fill="#E0E0E0"/>
<path d="M168.827 283.438C168.698 283.438 168.588 282.109 168.588 280.478C168.588 278.837 168.698 277.518 168.827 277.518C168.955 277.518 169.065 278.846 169.065 280.478C169.065 282.118 168.955 283.438 168.827 283.438Z" fill="#E0E0E0"/>
<path d="M178.347 251.125C178.347 252.619 177.136 253.828 175.641 253.828C174.146 253.828 172.936 252.619 172.936 251.125C172.936 249.631 174.146 248.422 175.641 248.422C177.136 248.422 178.347 249.631 178.347 251.125Z" fill="#E0E0E0"/>
<path d="M175.642 257.054C175.513 257.054 175.403 255.725 175.403 254.094C175.403 252.454 175.513 251.125 175.642 251.125C175.77 251.125 175.88 252.454 175.88 254.094C175.88 255.725 175.779 257.054 175.642 257.054Z" fill="#E0E0E0"/>
<path d="M112.77 254.094C112.77 255.588 111.559 256.798 110.064 256.798C108.569 256.798 107.358 255.588 107.358 254.094C107.358 252.601 108.569 251.391 110.064 251.391C111.559 251.391 112.77 252.601 112.77 254.094Z" fill="#E0E0E0"/>
<path d="M110.064 260.024C109.936 260.024 109.825 258.695 109.825 257.064C109.825 255.423 109.936 254.094 110.064 254.094C110.192 254.094 110.302 255.423 110.302 257.064C110.302 258.695 110.192 260.024 110.064 260.024Z" fill="#E0E0E0"/>
<path d="M237.706 229.626C237.706 231.12 236.495 232.329 235 232.329C233.505 232.329 232.294 231.12 232.294 229.626C232.294 228.132 233.505 226.922 235 226.922C236.495 226.922 237.706 228.132 237.706 229.626Z" fill="#E0E0E0"/>
<path d="M235 235.555C234.872 235.555 234.762 234.226 234.762 232.595C234.762 230.954 234.872 229.625 235 229.625C235.129 229.625 235.239 230.954 235.239 232.595C235.239 234.226 235.129 235.555 235 235.555Z" fill="#E0E0E0"/>
<path d="M230.442 189.185C230.442 190.679 229.231 191.888 227.736 191.888C226.241 191.888 225.031 190.679 225.031 189.185C225.031 187.691 226.241 186.481 227.736 186.481C229.231 186.481 230.442 187.691 230.442 189.185Z" fill="#E0E0E0"/>
<path d="M227.736 195.114C227.608 195.114 227.498 193.785 227.498 192.154C227.498 190.513 227.608 189.185 227.736 189.185C227.864 189.185 227.974 190.513 227.974 192.154C227.974 193.785 227.874 195.114 227.736 195.114Z" fill="#E0E0E0"/>
<path d="M172.954 156.148C174.448 156.148 175.66 154.938 175.66 153.445C175.66 151.952 174.448 150.741 172.954 150.741C171.46 150.741 170.248 151.952 170.248 153.445C170.248 154.938 171.46 156.148 172.954 156.148Z" fill="#E0E0E0"/>
<path d="M172.954 159.374C172.825 159.374 172.715 158.045 172.715 156.414C172.715 154.774 172.825 153.445 172.954 153.445C173.082 153.445 173.192 154.774 173.192 156.414C173.192 158.045 173.091 159.374 172.954 159.374Z" fill="#E0E0E0"/>
<path d="M123.941 204.443C123.941 205.937 122.73 207.147 121.235 207.147C119.74 207.147 118.53 205.937 118.53 204.443C118.53 202.949 119.74 201.74 121.235 201.74C122.73 201.74 123.941 202.949 123.941 204.443Z" fill="#E0E0E0"/>
<path d="M121.235 210.373C121.107 210.373 120.997 209.044 120.997 207.413C120.997 205.772 121.107 204.443 121.235 204.443C121.364 204.443 121.474 205.772 121.474 207.413C121.474 209.044 121.373 210.373 121.235 210.373Z" fill="#E0E0E0"/>
<path d="M155.73 134.154C155.73 135.648 154.519 136.858 153.024 136.858C151.529 136.858 150.318 135.648 150.318 134.154C150.318 132.66 151.529 131.451 153.024 131.451C154.519 131.451 155.73 132.66 155.73 134.154Z" fill="#E0E0E0"/>
<path d="M153.024 140.083C152.895 140.083 152.785 138.755 152.785 137.123C152.785 135.483 152.895 134.154 153.024 134.154C153.152 134.154 153.262 135.483 153.262 137.123C153.262 138.755 153.152 140.083 153.024 140.083Z" fill="#E0E0E0"/>
<path d="M210.897 128.225C210.897 129.719 209.686 130.928 208.191 130.928C206.696 130.928 205.486 129.719 205.486 128.225C205.486 126.731 206.696 125.521 208.191 125.521C209.686 125.521 210.897 126.731 210.897 128.225Z" fill="#E0E0E0"/>
<path d="M208.192 134.154C208.063 134.154 207.953 132.825 207.953 131.194C207.953 129.554 208.063 128.225 208.192 128.225C208.32 128.225 208.43 129.554 208.43 131.194C208.43 132.825 208.329 134.154 208.192 134.154Z" fill="#E0E0E0"/>
<path d="M226.15 125.732C226.15 127.226 224.939 128.436 223.444 128.436C221.949 128.436 220.738 127.226 220.738 125.732C220.738 124.238 221.949 123.029 223.444 123.029C224.939 123.029 226.15 124.238 226.15 125.732Z" fill="#E0E0E0"/>
<path d="M223.444 131.662C223.316 131.662 223.206 130.333 223.206 128.702C223.206 127.061 223.316 125.732 223.444 125.732C223.572 125.732 223.682 127.061 223.682 128.702C223.682 130.333 223.572 131.662 223.444 131.662Z" fill="#E0E0E0"/>
<path d="M220.014 105.791C220.014 107.285 218.803 108.495 217.308 108.495C215.813 108.495 214.603 107.285 214.603 105.791C214.603 104.298 215.813 103.088 217.308 103.088C218.803 103.088 220.014 104.298 220.014 105.791Z" fill="#E0E0E0"/>
<path d="M217.308 111.72C217.18 111.72 217.07 110.391 217.07 108.76C217.07 107.12 217.18 105.791 217.308 105.791C217.436 105.791 217.547 107.12 217.547 108.76C217.547 110.391 217.446 111.72 217.308 111.72Z" fill="#E0E0E0"/>
<path d="M135.066 151.731C135.066 153.225 133.855 154.435 132.36 154.435C130.865 154.435 129.655 153.225 129.655 151.731C129.655 150.238 130.865 149.028 132.36 149.028C133.855 149.028 135.066 150.238 135.066 151.731Z" fill="#E0E0E0"/>
<path d="M132.36 157.661C132.232 157.661 132.122 156.332 132.122 154.701C132.122 153.06 132.232 151.731 132.36 151.731C132.489 151.731 132.599 153.06 132.599 154.701C132.599 156.332 132.489 157.661 132.36 157.661Z" fill="#E0E0E0"/>
<path d="M197.947 126.154C197.947 127.648 196.736 128.858 195.241 128.858C193.746 128.858 192.536 127.648 192.536 126.154C192.536 124.66 193.746 123.451 195.241 123.451C196.736 123.451 197.947 124.66 197.947 126.154Z" fill="#E0E0E0"/>
<path d="M195.241 132.083C195.113 132.083 195.003 130.754 195.003 129.123C195.003 127.483 195.113 126.154 195.241 126.154C195.37 126.154 195.48 127.483 195.48 129.123C195.48 130.754 195.37 132.083 195.241 132.083Z" fill="#E0E0E0"/>
<path d="M121.978 65.2674C121.978 66.7611 120.768 67.9708 119.273 67.9708C117.778 67.9708 116.567 66.7611 116.567 65.2674C116.567 63.7736 117.778 62.564 119.273 62.564C120.768 62.564 121.978 63.7736 121.978 65.2674Z" fill="#E0E0E0"/>
<path d="M119.273 71.1968C119.144 71.1968 119.034 69.868 119.034 68.2367C119.034 66.5964 119.144 65.2676 119.273 65.2676C119.401 65.2676 119.511 66.5964 119.511 68.2367C119.511 69.868 119.401 71.1968 119.273 71.1968Z" fill="#E0E0E0"/>
<path d="M153.024 80.0677C153.024 81.5614 151.813 82.7711 150.318 82.7711C148.823 82.7711 147.613 81.5614 147.613 80.0677C147.613 78.5739 148.823 77.3643 150.318 77.3643C151.813 77.3643 153.024 78.5739 153.024 80.0677Z" fill="#E0E0E0"/>
<path d="M150.318 85.9966C150.19 85.9966 150.08 84.6678 150.08 83.0366C150.08 81.3962 150.19 80.0674 150.318 80.0674C150.447 80.0674 150.557 81.3962 150.557 83.0366C150.557 84.677 150.447 85.9966 150.318 85.9966Z" fill="#E0E0E0"/>
<path d="M103.681 126.823C103.681 128.317 102.47 129.526 100.975 129.526C99.4802 129.526 98.2695 128.317 98.2695 126.823C98.2695 125.329 99.4802 124.12 100.975 124.12C102.47 124.12 103.681 125.329 103.681 126.823Z" fill="#E0E0E0"/>
<path d="M100.975 132.752C100.847 132.752 100.737 131.424 100.737 129.792C100.737 128.152 100.847 126.823 100.975 126.823C101.104 126.823 101.214 128.152 101.214 129.792C101.214 131.424 101.104 132.752 100.975 132.752Z" fill="#E0E0E0"/>
<path d="M106.386 82.7713C106.386 84.265 105.176 85.4747 103.681 85.4747C102.186 85.4747 100.975 84.265 100.975 82.7713C100.975 81.2775 102.186 80.0679 103.681 80.0679C105.176 80.0679 106.386 81.2775 106.386 82.7713Z" fill="#E0E0E0"/>
<path d="M103.681 88.7007C103.552 88.7007 103.442 87.3719 103.442 85.7407C103.442 84.1003 103.552 82.7715 103.681 82.7715C103.809 82.7715 103.919 84.1003 103.919 85.7407C103.919 87.3719 103.809 88.7007 103.681 88.7007Z" fill="#E0E0E0"/>
<path d="M222.82 208.823L245.117 197.011L245.034 218.317L222.82 208.823Z" fill="#EBEBEB"/>
<path d="M130.178 284.373L81.311 309.574V262.562L86.7223 260.143L130.178 284.373Z" fill="#EBEBEB"/>
<path d="M203.165 309.574C203.165 311.297 201.771 312.69 200.047 312.69C198.323 312.69 196.929 311.297 196.929 309.574C196.929 307.851 198.323 306.458 200.047 306.458C201.771 306.458 203.165 307.86 203.165 309.574Z" fill="#055EFF"/>
<path d="M231.698 87.1699L247.262 91.8986V116.403L231.698 87.1699Z" fill="#EBEBEB"/>
<path d="M247.418 54.4447L247.327 27.7038C246.052 18.3198 238.045 11.0526 228.296 11.0068L203.743 10.8969C200.45 10.8785 197.772 13.6553 197.754 17.101L197.736 21.5547C197.726 24.9913 195.039 27.768 191.747 27.7588L143.889 27.5389C140.596 27.5206 137.937 24.7255 137.955 21.2798L137.973 16.826C137.992 13.3895 135.332 10.5853 132.039 10.5669L123.4 10.5303L101.91 10.4295C96.866 10.402 92.271 12.3356 88.8225 15.4881C85.3739 18.6405 81.944 24.657 83.017 29.1841L247.308 82.7161L247.418 54.4447Z" fill="url(#paint1_linear)"/>
<path d="M188.637 80.2232C188.637 71.0774 179.025 65.2856 169.221 69.8677C167.011 70.9032 165.176 72.6536 164.067 74.8072C161.599 79.5817 162.691 85.0343 164.929 89.5522L172.559 108.87C173.66 111.656 177.613 111.638 178.686 108.843L186.17 89.4239C188.747 83.5222 188.637 80.2232 188.637 80.2232ZM179.429 88.1776C172.844 92.0082 166.158 84.9335 169.771 77.9504C170.248 77.0249 170.991 76.2459 171.862 75.7327C178.448 71.9021 185.134 78.9768 181.52 85.9599C181.043 86.8946 180.3 87.6736 179.429 88.1776Z" fill="#055EFF"/>
<path d="M228.296 11.0066C228.296 11.0066 228.516 11.0066 228.956 11.0341C229.396 11.0799 230.057 11.0341 230.91 11.1991C232.625 11.4099 235.22 11.978 238.146 13.7284C239.623 14.5715 241.118 15.772 242.539 17.3115C243.952 18.8511 245.263 20.7847 246.189 23.0849C247.134 25.3851 247.639 28.0611 247.602 30.9203C247.593 33.7703 247.584 36.8036 247.574 40.0202C247.483 65.7439 247.354 102.959 247.189 148.945C247.006 194.93 246.795 249.686 246.556 310.49C246.529 318.087 246.492 325.785 246.465 333.565C246.455 335.508 246.446 337.46 246.437 339.421C246.41 341.382 246.272 343.398 245.676 345.295C245.116 347.201 244.318 349.053 243.19 350.72C242.071 352.379 240.714 353.882 239.155 355.156C236.009 357.658 232.074 359.243 228.002 359.426C226.984 359.491 225.975 359.481 224.966 359.472L221.94 359.463C219.922 359.454 217.895 359.445 215.859 359.436C207.733 359.399 199.533 359.362 191.251 359.326C174.697 359.252 157.848 359.17 140.752 359.096C132.204 359.06 123.592 359.014 114.925 358.977C110.587 358.959 106.24 358.941 101.883 358.913C97.5082 359.115 92.9774 357.951 89.3362 355.394C85.6767 352.865 82.9803 349.043 81.7329 344.81C81.0634 342.702 80.9442 340.457 80.9534 338.285C80.9625 336.113 80.9717 333.941 80.9809 331.778C81.0176 323.118 81.0542 314.504 81.0909 305.963C81.1643 288.872 81.2377 272.037 81.311 255.496C81.4578 222.404 81.5954 190.486 81.7329 160.089C81.8705 129.682 81.9989 100.787 82.1182 73.7533C82.1824 60.2363 82.2374 47.1774 82.3016 34.6226C82.3108 33.0555 82.3199 31.4884 82.3199 29.9397C82.3383 29.1607 82.3933 28.3818 82.4392 27.6028C82.5767 26.8331 82.6409 26.0541 82.8427 25.3027C83.5581 22.2877 84.9705 19.4651 86.9333 17.1466C88.9143 14.8372 91.3907 13.0136 94.1146 11.8314C96.8386 10.6217 99.8194 10.2002 102.699 10.246C108.45 10.2735 114.072 10.301 119.538 10.3285C122.272 10.3468 124.977 10.356 127.637 10.3743C128.967 10.3835 130.297 10.3926 131.608 10.3926C132.938 10.3285 134.314 10.7042 135.396 11.4648C136.478 12.2255 137.313 13.3252 137.744 14.5623C138.23 15.7995 138.111 17.1374 138.12 18.3654C138.12 18.9977 138.111 19.6209 138.111 20.2441C138.111 20.8672 138.083 21.4904 138.166 22.086C138.313 23.2865 138.817 24.4321 139.597 25.3301C140.367 26.2374 141.422 26.8972 142.55 27.1813C143.119 27.3279 143.696 27.3737 144.293 27.3646C144.889 27.3646 145.485 27.3737 146.072 27.3737C148.438 27.3829 150.759 27.4012 153.042 27.4104C162.187 27.4562 170.689 27.502 178.521 27.5479C182.437 27.5662 186.18 27.5937 189.756 27.612C190.646 27.6028 191.545 27.6578 192.389 27.5937C193.242 27.502 194.058 27.2088 194.764 26.7689C196.186 25.8892 197.158 24.4229 197.497 22.8833C197.681 22.1135 197.653 21.3163 197.662 20.5373C197.662 19.7584 197.672 18.9886 197.672 18.228C197.681 17.4765 197.644 16.7159 197.782 15.9827C197.91 15.2496 198.167 14.5531 198.515 13.9208C199.212 12.6562 200.35 11.7031 201.606 11.2174C202.872 10.6767 204.22 10.8417 205.44 10.8233C210.393 10.8508 214.584 10.8783 217.968 10.9058C221.353 10.9333 223.939 10.9516 225.673 10.9608C227.406 10.9791 228.296 11.0066 228.296 11.0066C228.296 11.0066 227.406 11.0158 225.673 11.0158C223.93 11.0158 221.353 11.0066 217.968 11.0066C214.584 10.9975 210.393 10.9883 205.44 10.97C204.211 10.9975 202.89 10.8325 201.661 11.364C200.441 11.8406 199.341 12.7753 198.662 14.0125C198.323 14.6265 198.075 15.3046 197.947 16.0194C197.809 16.7342 197.855 17.4765 197.846 18.2371C197.846 18.9977 197.837 19.7675 197.837 20.5465C197.827 21.3254 197.864 22.1319 197.681 22.9291C197.341 24.5237 196.342 26.0358 194.874 26.943C194.14 27.4012 193.297 27.7037 192.416 27.8045C191.527 27.8778 190.655 27.8228 189.756 27.8319C186.189 27.8228 182.437 27.8045 178.521 27.7861C170.689 27.7586 162.187 27.722 153.042 27.6853C150.759 27.6762 148.429 27.667 146.072 27.6578C145.485 27.6578 144.889 27.6487 144.293 27.6487C143.706 27.6578 143.073 27.612 142.477 27.4654C141.284 27.163 140.175 26.4848 139.377 25.5318C138.56 24.5879 138.028 23.3874 137.873 22.1319C137.79 21.4995 137.817 20.8672 137.817 20.2532C137.817 19.6301 137.827 19.0069 137.827 18.3746C137.817 17.1191 137.928 15.8453 137.46 14.6723C137.056 13.4901 136.258 12.4454 135.222 11.7214C134.176 10.9975 132.911 10.6492 131.608 10.7042C130.297 10.695 128.967 10.695 127.637 10.6859C124.968 10.6767 122.272 10.6676 119.538 10.6492C114.063 10.6309 108.45 10.6034 102.699 10.5759C99.8378 10.5301 96.9303 10.9516 94.2522 12.143C91.5833 13.316 89.1528 15.103 87.2084 17.3665C85.2824 19.6484 83.8975 22.416 83.2004 25.376C82.9986 26.1091 82.9436 26.8789 82.806 27.6303C82.7602 28.391 82.7051 29.1607 82.696 29.9305C82.6868 31.4793 82.6868 33.0463 82.6776 34.6134C82.6318 47.1682 82.5767 60.2179 82.5217 73.7442C82.4116 100.787 82.3016 129.673 82.1824 160.079C82.054 190.486 81.9255 222.405 81.7971 255.487C81.7238 272.028 81.6596 288.872 81.5862 305.954C81.5495 314.495 81.5128 323.109 81.4761 331.769C81.467 333.932 81.4578 336.104 81.4486 338.276C81.4395 340.438 81.5495 342.601 82.2099 344.663C83.4297 348.787 86.0528 352.517 89.6297 354.991C93.2067 357.474 97.5632 358.62 101.911 358.418C106.276 358.437 110.624 358.455 114.953 358.482C123.62 358.519 132.232 358.565 140.78 358.602C157.876 358.684 174.724 358.757 191.279 358.84C199.552 358.877 207.76 358.913 215.886 358.959C217.913 358.968 219.94 358.977 221.967 358.987L224.994 359.005C226.003 359.014 227.012 359.023 228.002 358.959C231.983 358.785 235.826 357.227 238.898 354.789C240.421 353.543 241.75 352.077 242.842 350.455C243.942 348.833 244.722 347.018 245.272 345.158C245.859 343.288 245.988 341.346 246.024 339.403C246.034 337.442 246.043 335.499 246.052 333.547C246.089 325.767 246.116 318.069 246.153 310.472C246.428 249.668 246.676 194.912 246.887 148.927C247.116 102.941 247.299 65.7256 247.428 40.0019C247.446 36.7853 247.464 33.752 247.474 30.9019C247.519 28.0611 247.024 25.4035 246.089 23.1124C245.171 20.8214 243.878 18.9061 242.475 17.3665C241.072 15.827 239.586 14.6265 238.118 13.7834C235.22 12.0238 232.634 11.4373 230.928 11.2174C230.075 11.0433 229.415 11.0891 228.974 11.0341C228.516 11.025 228.296 11.0066 228.296 11.0066Z" fill="#263238"/>
<path d="M217.427 371.367C217.427 371.367 215.501 365.098 215.886 362.45C216.272 359.802 219.839 357.391 219.839 357.391L215.969 256.907C215.969 256.907 215.464 212.956 238.751 199.292L252.646 195.791L286.921 193.766C288.03 194.133 328.312 209.272 333.852 215.183L316.481 303.8C316.481 303.8 318.59 329.982 320.7 348.805C321.131 352.654 324.02 371.651 324.02 371.651L217.427 371.367Z" fill="#007CFF"/>
<g opacity="0.3">
<path opacity="0.3" d="M320.067 342.876C319.746 345.322 318.811 348.301 316.463 349.052C314.115 349.813 311.565 349.593 309.135 349.153C300.541 347.623 292.635 343.59 284.876 339.604C270.366 332.163 255.728 324.63 243.209 314.192C241.448 312.726 239.568 310.435 240.65 308.418C241.87 306.127 245.309 306.897 247.666 307.979C272.265 319.315 295.469 331.54 320.067 342.876Z" fill="black"/>
</g>
<path d="M233.551 202.023C233.551 202.023 218.207 207.137 213.245 221.341C207.76 237.03 204.128 267.491 204.128 267.491L219.289 269.398L233.551 202.023Z" fill="#007CFF"/>
<path d="M333.852 215.173C333.852 215.173 342.079 225.987 346.087 239.128C350.086 252.27 352.379 290.356 352.379 290.356L311.106 289.778L308.914 256.274C308.914 256.274 304.75 200.364 333.852 215.173Z" fill="#1081FA"/>
<path d="M222.453 359.215C222.453 359.197 222.628 359.215 222.949 359.27C223.325 359.334 223.783 359.426 224.343 359.527C225.618 359.774 227.351 360.095 229.46 360.498C233.78 361.305 239.769 362.349 246.41 363.275C253.059 364.2 259.094 364.833 263.478 365.236C265.615 365.428 267.367 365.584 268.669 365.694C269.238 365.749 269.706 365.795 270.082 365.832C270.403 365.868 270.577 365.896 270.568 365.914C270.568 365.932 270.394 365.932 270.073 365.932C269.696 365.923 269.229 365.905 268.66 365.887C267.431 365.841 265.652 365.731 263.46 365.575C259.067 365.263 253.013 364.677 246.355 363.751C239.705 362.826 233.716 361.726 229.405 360.837C227.25 360.388 225.508 360.003 224.315 359.71C223.765 359.573 223.306 359.463 222.939 359.371C222.618 359.279 222.453 359.233 222.453 359.215Z" fill="#263238"/>
<path d="M242.613 356.823C242.622 356.805 242.879 356.86 243.374 356.988C243.869 357.098 244.584 357.336 245.538 357.511C247.418 357.941 250.188 358.4 253.637 358.555C257.085 358.711 261.213 358.454 265.661 357.446C270.109 356.448 274.842 354.633 279.317 351.875C283.766 349.07 287.48 345.616 290.323 342.06C293.185 338.504 295.23 334.912 296.606 331.75C297.991 328.589 298.789 325.904 299.229 324.025C299.486 323.09 299.587 322.348 299.706 321.853C299.816 321.358 299.88 321.092 299.889 321.102C299.908 321.102 299.871 321.367 299.798 321.871C299.706 322.375 299.633 323.127 299.403 324.071C299.018 325.968 298.266 328.689 296.909 331.888C295.57 335.086 293.533 338.733 290.663 342.335C287.81 345.936 284.059 349.437 279.565 352.278C275.034 355.073 270.247 356.887 265.753 357.868C261.258 358.858 257.085 359.087 253.619 358.885C250.142 358.693 247.373 358.18 245.492 357.685C244.548 357.474 243.832 357.208 243.346 357.071C242.86 356.933 242.603 356.842 242.613 356.823Z" fill="#263238"/>
<path d="M250.739 195.746C250.757 195.746 250.757 195.975 250.757 196.405C250.757 196.882 250.748 197.514 250.748 198.293C250.766 199.924 250.73 202.335 251.445 205.157C251.83 206.55 252.399 208.062 253.426 209.428C254.417 210.811 255.847 211.994 257.526 212.91C259.204 213.836 261.139 214.495 263.185 214.935C265.23 215.384 267.404 215.613 269.632 215.558C274.081 215.467 278.281 214.23 281.546 212.195C284.839 210.179 287.068 207.357 288.388 204.781C289.7 202.17 290.094 199.787 290.177 198.165C290.232 196.534 290.067 195.626 290.122 195.626C290.14 195.626 290.177 195.846 290.241 196.277C290.314 196.708 290.351 197.349 290.36 198.174C290.333 199.814 289.993 202.252 288.691 204.928C287.389 207.576 285.142 210.482 281.785 212.571C278.465 214.679 274.181 215.952 269.651 216.035C267.385 216.09 265.175 215.861 263.093 215.393C261.011 214.944 259.048 214.257 257.324 213.295C255.6 212.342 254.123 211.105 253.114 209.666C252.059 208.245 251.491 206.678 251.124 205.249C250.436 202.353 250.537 199.934 250.564 198.293C250.592 197.468 250.638 196.836 250.665 196.405C250.693 195.966 250.72 195.736 250.739 195.746Z" fill="#263238"/>
<path d="M306.621 221.35L316.334 223.916L314.931 227.307L305.787 225.483L306.621 221.35Z" fill="#263238"/>
<path d="M306.832 224.603C306.777 224.548 307.318 223.916 308.199 222.972L308.364 222.798L308.492 223.009C308.868 223.595 309.263 224.209 309.666 224.851L309.354 224.768C309.703 224.567 310.061 224.365 310.427 224.154C310.813 223.943 311.18 223.742 311.537 223.54L311.739 223.43L311.849 223.632C312.216 224.31 312.564 224.951 312.904 225.565L312.656 225.492C313.793 224.915 314.536 224.585 314.564 224.649C314.601 224.713 313.931 225.162 312.83 225.813L312.675 225.904L312.574 225.74C312.216 225.135 311.84 224.512 311.436 223.852L311.748 223.943C311.39 224.145 311.024 224.356 310.648 224.567C310.272 224.777 309.914 224.97 309.565 225.171L309.364 225.281L309.254 225.089C308.868 224.429 308.501 223.797 308.153 223.201L308.446 223.238C307.52 224.127 306.887 224.658 306.832 224.603Z" fill="#11DE9A"/>
<path d="M226.975 279.588L216.391 260.078H184.198L183.18 262.021L210.429 307.291L241.283 308.776L226.975 279.588Z" fill="#455A64"/>
<path d="M349.728 290.356V324.456C349.728 330.678 346.931 336.571 342.107 340.511C336.228 345.304 328.193 346.514 321.168 343.646L246.034 310.371L253.389 285.334L313.83 305.239L313.757 289.715L349.728 290.356Z" fill="#FFBE9D"/>
<path d="M225.957 281.522L215.373 262.021H183.18L209.411 309.225L240.265 310.709L225.957 281.522Z" fill="#263238"/>
<path d="M256.352 288.01L251.261 281.696C247.905 277.535 242.851 275.125 237.504 275.125H233.056L230.02 278.534C230.02 278.534 208.247 279.478 207.449 282.163L207.43 283.034L207.421 283.538L226.039 284.793C226.039 284.793 210.2 284.748 209.246 284.775C208.201 284.812 204.826 284.509 204.899 286.37C204.954 287.9 206.761 289.101 209.503 289.504C210.631 289.669 224.352 290.86 224.352 290.86C224.352 290.86 209.943 290.723 209.246 290.723C207.549 290.713 207.77 293.426 208.769 293.765C209.567 294.031 228.91 299.676 228.91 299.676C228.91 299.676 225.654 301.857 223.004 301.665C220.344 301.472 215.795 298.063 214.85 299.676C213.905 301.289 214.089 302.233 214.658 302.618C215.226 302.993 221.49 306.219 223.572 306.787C225.654 307.355 242.695 310.05 242.695 310.05L248.84 311.039L256.352 288.01Z" fill="#FFBE9D"/>
<path d="M187.684 269.627C187.684 269.627 184.318 270.8 186.033 275.125C188.537 281.448 192.866 285.93 192.866 285.93C192.866 285.93 192.27 288.166 194.205 289.806C194.205 289.806 191.82 290.402 193.306 294.425C193.306 294.425 191.664 298.594 196.14 300.381C196.14 300.381 194.948 303.809 199.268 305.449C203.587 307.09 207.76 304.258 207.76 304.258L187.684 269.627Z" fill="#FFBE9D"/>
<path d="M194.508 285.6C197.571 286.424 200.928 287.084 203.762 288.156C204.697 288.514 205.614 288.532 206.229 289.311C206.843 290.09 206.99 291.336 206.284 292.042C205.66 292.656 204.67 292.647 203.798 292.546C200.533 292.152 197.406 291.034 194.315 289.916" fill="#FFBE9D"/>
<path d="M195.727 290.704C198.791 291.529 202.147 292.189 204.981 293.261C205.917 293.618 206.834 293.637 207.449 294.416C208.063 295.195 208.21 296.441 207.504 297.146C206.88 297.76 205.889 297.751 205.018 297.651C201.753 297.256 198.625 296.138 195.535 295.02" fill="#FFBE9D"/>
<path d="M197.47 295.955C200.533 296.78 203.89 297.44 206.724 298.512C207.66 298.869 208.577 298.888 209.191 299.667C209.806 300.446 209.953 301.692 209.246 302.398C208.623 303.012 207.632 303.002 206.761 302.902C203.496 302.508 200.368 301.39 197.277 300.272" fill="#FFBE9D"/>
<path d="M194.498 290.017C194.553 289.889 196.709 290.64 199.424 291.391C202.129 292.152 204.376 292.619 204.349 292.757C204.33 292.885 202.037 292.619 199.295 291.85C196.553 291.098 194.443 290.127 194.498 290.017Z" fill="#EB996E"/>
<path d="M193.93 294.516C193.975 294.388 196.452 295.204 199.533 296.102C202.615 297.009 205.137 297.65 205.11 297.788C205.082 297.916 202.505 297.476 199.405 296.56C196.296 295.662 193.884 294.635 193.93 294.516Z" fill="#EB996E"/>
<path d="M195.938 300.308C195.966 300.18 198.323 300.656 201.194 301.371C204.064 302.086 206.366 302.773 206.339 302.902C206.311 303.03 203.954 302.553 201.083 301.839C198.204 301.124 195.901 300.437 195.938 300.308Z" fill="#EB996E"/>
<path d="M191.967 284.977C192.013 284.848 194.728 285.765 198.139 286.635C201.551 287.524 204.358 288.028 204.339 288.166C204.33 288.23 203.615 288.184 202.459 288.01C201.313 287.836 199.735 287.533 198.011 287.094C196.296 286.654 194.764 286.15 193.682 285.746C192.6 285.343 191.949 285.032 191.967 284.977Z" fill="#EB996E"/>
<path d="M222.609 278.791C222.609 278.663 226.03 278.534 230.249 278.516C234.468 278.498 237.889 278.58 237.889 278.718C237.889 278.846 234.468 278.974 230.249 278.993C226.03 279.011 222.609 278.928 222.609 278.791Z" fill="#EB996E"/>
<path d="M199.524 270.204C200.221 270.763 201.239 270.653 201.799 269.957C202.358 269.26 202.248 268.243 201.551 267.684C200.854 267.125 199.836 267.235 199.277 267.931C198.717 268.628 198.827 269.645 199.524 270.204Z" fill="#EBEBEB"/>
<path d="M309.896 304.35C309.905 304.313 310.162 304.35 310.639 304.432C311.116 304.505 311.785 304.68 312.611 304.936C314.252 305.44 316.453 306.402 318.618 307.896C320.782 309.399 322.452 311.131 323.497 312.487C324.02 313.166 324.414 313.743 324.653 314.155C324.9 314.568 325.02 314.806 324.992 314.824C324.928 314.87 324.341 313.99 323.231 312.707C322.131 311.424 320.461 309.775 318.343 308.299C316.224 306.833 314.087 305.843 312.5 305.266C310.905 304.67 309.877 304.423 309.896 304.35Z" fill="#EB996E"/>
<path d="M268.908 214.019C258.993 213.231 251.509 204.708 252.004 194.784C252.353 187.819 252.71 181.542 252.71 181.542C252.71 181.542 237.77 179.223 237.586 164.295C237.403 149.366 239.989 115.093 239.989 115.093C257.287 107.67 277.245 110.171 292.158 121.645L294.368 123.349L288.709 197.111C287.93 207.247 279.051 214.826 268.908 214.019Z" fill="#FFBE9D"/>
<path d="M252.683 181.321C252.683 181.321 262.121 182.091 272.154 175.795C272.154 175.795 267.55 186.536 252.646 185.198L252.683 181.321Z" fill="#EB996E"/>
<path d="M243.667 138.488C243.63 139.616 244.548 140.578 245.722 140.642C246.895 140.706 247.877 139.845 247.923 138.717C247.959 137.59 247.042 136.628 245.868 136.564C244.694 136.5 243.713 137.361 243.667 138.488Z" fill="#263238"/>
<path d="M242.814 136.088C243.08 136.362 244.694 135.171 246.987 135.18C249.28 135.153 250.968 136.335 251.215 136.051C251.335 135.923 251.069 135.428 250.335 134.887C249.61 134.355 248.381 133.842 246.951 133.842C245.52 133.851 244.318 134.374 243.63 134.914C242.924 135.464 242.686 135.959 242.814 136.088Z" fill="#263238"/>
<path d="M265.321 139.02C265.285 140.147 266.202 141.11 267.376 141.174C268.55 141.238 269.531 140.376 269.577 139.249C269.614 138.122 268.697 137.16 267.523 137.096C266.349 137.031 265.358 137.893 265.321 139.02Z" fill="#263238"/>
<path d="M265.377 136.518C265.643 136.793 267.257 135.602 269.55 135.611C271.843 135.583 273.531 136.766 273.778 136.481C273.897 136.353 273.631 135.858 272.898 135.318C272.173 134.786 270.944 134.273 269.513 134.273C268.083 134.282 266.881 134.804 266.184 135.345C265.487 135.886 265.249 136.39 265.377 136.518Z" fill="#263238"/>
<path d="M257.049 153.527C257.058 153.399 255.636 153.151 253.316 152.858C252.729 152.794 252.179 152.684 252.078 152.281C251.94 151.859 252.188 151.227 252.472 150.549C253.022 149.128 253.6 147.644 254.205 146.086C256.608 139.735 258.36 134.511 258.103 134.42C257.847 134.328 255.691 139.396 253.279 145.747C252.701 147.314 252.142 148.807 251.619 150.237C251.399 150.906 251.014 151.657 251.316 152.537C251.472 152.977 251.903 153.289 252.279 153.389C252.655 153.499 252.986 153.509 253.279 153.527C255.59 153.646 257.04 153.655 257.049 153.527Z" fill="#263238"/>
<path d="M263.799 155.112C263.423 155.094 263.423 157.578 261.286 159.346C259.158 161.115 256.498 160.84 256.48 161.188C256.443 161.344 257.076 161.674 258.195 161.701C259.296 161.738 260.901 161.39 262.203 160.308C263.505 159.227 264.065 157.779 264.148 156.753C264.248 155.717 263.973 155.103 263.799 155.112Z" fill="#263238"/>
<path d="M264.78 127.528C265.01 128.151 267.303 127.858 269.99 128.179C272.686 128.444 274.86 129.233 275.218 128.674C275.374 128.408 274.998 127.821 274.117 127.216C273.246 126.612 271.861 126.043 270.237 125.86C268.623 125.686 267.137 125.943 266.156 126.337C265.184 126.74 264.689 127.226 264.78 127.528Z" fill="#B42E16"/>
<path d="M243.658 129.453C244.062 129.975 245.639 129.434 247.547 129.407C249.445 129.315 251.059 129.755 251.426 129.214C251.591 128.948 251.335 128.426 250.628 127.931C249.931 127.436 248.776 127.042 247.464 127.079C246.162 127.125 245.025 127.592 244.364 128.124C243.695 128.655 243.475 129.196 243.658 129.453Z" fill="#B42E16"/>
<path d="M292.525 138.809C292.782 138.699 302.788 135.776 302.467 145.985C302.137 156.194 291.956 153.756 291.947 153.463C291.938 153.16 292.525 138.809 292.525 138.809Z" fill="#FFBE9D"/>
<path d="M295.184 149.687C295.23 149.66 295.359 149.815 295.652 149.962C295.946 150.109 296.441 150.209 296.982 150.035C298.073 149.678 299.036 147.992 299.147 146.15C299.202 145.224 299.036 144.335 298.734 143.593C298.449 142.832 297.982 142.301 297.441 142.182C296.909 142.044 296.505 142.356 296.377 142.64C296.23 142.924 296.285 143.126 296.23 143.144C296.202 143.171 296.019 142.97 296.111 142.548C296.157 142.347 296.285 142.108 296.533 141.925C296.78 141.733 297.147 141.641 297.523 141.696C298.312 141.778 298.991 142.521 299.33 143.336C299.706 144.161 299.917 145.16 299.853 146.205C299.724 148.257 298.605 150.145 297.12 150.53C296.395 150.695 295.799 150.457 295.505 150.209C295.203 149.934 295.157 149.705 295.184 149.687Z" fill="#EB996E"/>
<path d="M234.266 102.189C236.44 97.9094 240.659 94.7203 245.373 93.8222C250.088 92.915 255.196 94.3079 258.801 97.4787C261.057 92.9883 265.643 89.735 270.632 89.0936C275.621 88.4429 280.886 90.4224 284.215 94.1888C287.077 97.4329 288.563 101.832 291.919 104.563C294.827 106.927 298.761 107.706 301.678 110.052C304.897 112.627 306.493 117.062 305.668 121.104C304.842 125.136 301.623 128.591 297.652 129.7C300.852 135.473 297.853 143.758 291.69 146.14L290.204 145.526C284.555 139.331 283.261 129.544 287.113 122.094C286.93 122.103 286.756 122.075 286.581 122.066C284.619 123.138 282.353 123.679 280.115 123.541C276.548 123.331 273.108 121.425 271.036 118.51C266.954 121.452 261.112 121.699 256.801 119.106C256.122 118.694 255.444 118.217 254.655 118.135C253.719 118.034 252.83 118.52 251.977 118.932C249.739 120.032 247.217 120.746 244.75 120.389C242.448 120.059 240.228 118.62 239.32 116.503C239.265 116.494 239.21 116.494 239.155 116.485C236.275 115.963 233.964 113.507 233.175 110.693C232.377 107.88 232.946 104.801 234.266 102.189Z" fill="#B42E16"/>
<defs>
<linearGradient id="paint0_linear" x1="152.818" y1="109.646" x2="152.818" y2="308.393" gradientUnits="userSpaceOnUse">
<stop stop-color="#2AF598"/>
<stop offset="1" stop-color="#009EFD"/>
</linearGradient>
<linearGradient id="paint1_linear" x1="88.8599" y1="17.5107" x2="270.768" y2="91.8547" gradientUnits="userSpaceOnUse">
<stop stop-color="#4FACFE"/>
<stop offset="1" stop-color="#00F2FE"/>
</linearGradient>
</defs>
</svg>
