<svg width="183" height="31" viewBox="0 0 183 31" fill="none" xmlns="http://www.w3.org/2000/svg">
<g clip-path="url(#clip0)">
<path d="M108.984 9.62134H117.02C118.219 9.62134 119.221 9.773 120.028 10.0763C120.833 10.3797 121.478 10.7791 121.968 11.2726C122.455 11.766 122.805 12.3321 123.021 12.9687C123.236 13.6053 123.343 14.2461 123.343 14.8913C123.343 15.4424 123.249 15.9657 123.061 16.4592C122.873 16.9527 122.606 17.3906 122.26 17.7708C121.914 18.151 121.502 18.4693 121.023 18.7257C120.545 18.982 120.017 19.1486 119.436 19.2234L119.492 19.2811C119.622 19.2618 119.932 19.3195 120.419 19.452C120.906 19.5844 121.416 19.8365 121.951 20.2082C122.485 20.5777 122.963 21.0925 123.384 21.7462C123.805 22.402 124.016 23.2415 124.016 24.269C124.016 25.2004 123.847 26.0164 123.51 26.7192C123.172 27.422 122.7 28.0158 122.092 28.5008C121.483 28.9857 120.748 29.3509 119.885 29.5987C119.024 29.8465 118.067 29.9683 117.018 29.9683H108.982V9.62134H108.984ZM117.02 18.8538C118.725 18.8538 119.998 18.4693 120.842 17.7003C121.686 16.9313 122.106 15.9187 122.106 14.6648C122.106 13.9236 121.965 13.3019 121.686 12.7978C121.404 12.2937 121.03 11.8857 120.562 11.5717C120.094 11.2576 119.556 11.0355 118.947 10.9009C118.338 10.7685 117.697 10.7022 117.022 10.7022H110.223V18.8517H117.02V18.8538ZM117.02 28.8853C118.819 28.8853 120.229 28.5008 121.25 27.7317C122.271 26.9627 122.781 25.8071 122.781 24.269C122.781 23.3953 122.604 22.6776 122.247 22.1179C121.891 21.5582 121.438 21.116 120.885 20.7935C120.331 20.4709 119.714 20.2466 119.03 20.1249C118.347 20.001 117.676 19.939 117.02 19.939H110.221V28.8874H117.02V28.8853Z" fill="#151515"/>
<path d="M127.558 18.5696H127.641C127.772 18.0954 128.011 17.6489 128.357 17.2303C128.703 16.8116 129.124 16.4506 129.622 16.1472C130.117 15.8439 130.67 15.611 131.279 15.4487C131.888 15.2885 132.52 15.2159 133.176 15.2351V16.3181C132.614 16.2433 131.971 16.2989 131.251 16.489C130.529 16.6791 129.842 17.0978 129.186 17.7429C128.923 18.027 128.694 18.3026 128.498 18.5696C128.301 18.8367 128.137 19.1293 128.007 19.454C127.876 19.7766 127.772 20.1376 127.697 20.537C127.622 20.9365 127.575 21.4107 127.556 21.9619V29.9703H126.488V15.3205H127.556V18.5696H127.558Z" fill="#151515"/>
<path d="M133.289 22.6453C133.289 21.6007 133.435 20.6181 133.725 19.6953C134.016 18.7746 134.441 17.9629 135.005 17.2579C135.566 16.5551 136.261 15.9997 137.083 15.5917C137.908 15.1837 138.854 14.9786 139.922 14.9786C140.99 14.9786 141.936 15.1837 142.761 15.5917C143.586 15.9997 144.278 16.5551 144.84 17.2579C145.401 17.9607 145.826 18.7725 146.119 19.6953C146.41 20.616 146.555 21.6007 146.555 22.6453C146.555 23.6899 146.41 24.679 146.119 25.6082C145.829 26.5396 145.403 27.3513 144.84 28.0455C144.278 28.7398 143.583 29.2909 142.761 29.6989C141.936 30.1069 140.99 30.312 139.922 30.312C138.854 30.312 137.908 30.1069 137.083 29.6989C136.259 29.2909 135.566 28.7398 135.005 28.0455C134.443 27.3513 134.016 26.5396 133.725 25.6082C133.435 24.6768 133.289 23.6899 133.289 22.6453ZM134.357 22.6453C134.357 23.519 134.479 24.3607 134.723 25.1681C134.966 25.9756 135.323 26.6934 135.791 27.3193C136.259 27.9473 136.84 28.445 137.534 28.8146C138.226 29.1841 139.023 29.37 139.922 29.37C140.821 29.37 141.618 29.1841 142.31 28.8146C143.002 28.445 143.583 27.9452 144.053 27.3193C144.521 26.6934 144.878 25.9756 145.122 25.1681C145.365 24.3607 145.487 23.5212 145.487 22.6453C145.487 21.7716 145.365 20.9321 145.122 20.1225C144.878 19.315 144.521 18.5973 144.053 17.9714C143.586 17.3434 143.005 16.8456 142.31 16.4761C141.616 16.1065 140.821 15.9207 139.922 15.9207C139.023 15.9207 138.226 16.1065 137.534 16.4761C136.84 16.8456 136.261 17.3455 135.791 17.9714C135.323 18.5973 134.966 19.315 134.723 20.1225C134.479 20.93 134.357 21.7716 134.357 22.6453Z" fill="#151515"/>
<path d="M149.11 9.62134H150.178V23.1005L159.086 15.3206H160.63L154.307 20.7913L161.079 29.9683H159.617L153.463 21.618L150.176 24.4399V29.9683H149.107V9.62134H149.11Z" fill="#151515"/>
<path d="M162.121 22.7863V22.9572C162.121 23.8117 162.234 24.6298 162.459 25.4074C162.683 26.1871 163.016 26.8707 163.458 27.4602C163.901 28.0498 164.454 28.5155 165.12 28.8573C165.787 29.1991 166.562 29.37 167.444 29.37C168.891 29.37 170.036 28.9855 170.882 28.2164C171.727 27.4474 172.308 26.3793 172.629 25.0101H173.697C173.379 26.719 172.691 28.0306 171.631 28.9427C170.572 29.8549 169.173 30.3099 167.429 30.3099C166.361 30.3099 165.43 30.1155 164.633 29.7267C163.836 29.3379 163.172 28.806 162.638 28.131C162.104 27.456 161.707 26.6592 161.444 25.7364C161.181 24.8157 161.051 23.8224 161.051 22.7585C161.051 21.7332 161.188 20.7506 161.459 19.8085C161.73 18.8686 162.138 18.0419 162.681 17.3284C163.223 16.6171 163.903 16.0467 164.719 15.6195C165.535 15.1923 166.494 14.9786 167.598 14.9786C168.611 14.9786 169.504 15.1688 170.281 15.549C171.059 15.9292 171.71 16.4462 172.234 17.102C172.757 17.7578 173.157 18.5183 173.428 19.3813C173.699 20.2464 173.836 21.1714 173.836 22.1604C173.836 22.2565 173.832 22.3655 173.821 22.4873C173.812 22.6111 173.806 22.7115 173.806 22.7863H162.121ZM172.742 21.8464C172.704 21.0475 172.573 20.2934 172.347 19.5799C172.121 18.8686 171.787 18.2406 171.347 17.7001C170.905 17.1597 170.371 16.726 169.741 16.4035C169.111 16.0809 168.393 15.9185 167.585 15.9185C166.722 15.9185 165.96 16.0852 165.304 16.4163C164.646 16.7495 164.093 17.1853 163.642 17.7279C163.191 18.2683 162.843 18.9006 162.6 19.6227C162.356 20.3447 162.204 21.0859 162.149 21.8464H172.742Z" fill="#151515"/>
<path d="M177.38 18.5696H177.463C177.593 18.0954 177.833 17.6489 178.179 17.2303C178.525 16.8116 178.945 16.4506 179.443 16.1472C179.939 15.8439 180.492 15.611 181.101 15.4487C181.71 15.2885 182.342 15.2159 182.998 15.2351V16.3181C182.436 16.2433 181.793 16.2989 181.073 16.489C180.351 16.6791 179.663 17.0978 179.007 17.7429C178.745 18.027 178.516 18.3026 178.32 18.5696C178.123 18.8367 177.959 19.1293 177.828 19.454C177.698 19.7766 177.593 20.1376 177.519 20.537C177.444 20.9365 177.397 21.4107 177.378 21.9619V29.9703H176.309V15.3205H177.378V18.5696H177.38Z" fill="#151515"/>
<path d="M8.26821 29.9683L0.990295 8.91211H4.68799L9.82547 25.2965L14.6895 8.91211H18.4257L23.1359 25.2965L28.3118 8.91211H32.0864L24.7316 29.9683H21.3073L16.5587 13.8936L11.6925 29.9683H9.82333H8.26821Z" fill="#151515"/>
<path d="M34.4211 1.94605C34.4211 1.40132 34.6091 0.939912 34.9851 0.563947C35.3611 0.187982 35.8096 0 36.3287 0C36.8735 0 37.3349 0.187982 37.7108 0.563947C38.0868 0.939912 38.2748 1.40132 38.2748 1.94605C38.2748 2.46513 38.0868 2.91373 37.7108 3.28969C37.3349 3.66566 36.8735 3.85364 36.3287 3.85364C35.8096 3.85364 35.3611 3.66566 34.9851 3.28969C34.6091 2.91373 34.4211 2.46513 34.4211 1.94605ZM38.0014 29.9682H34.6561V8.91208H38.0035V29.9682H38.0014Z" fill="#151515"/>
<path d="M54.8921 29.9683H50.3784H49.7162H46.136H43.5277C42.9574 29.9683 42.4703 29.7995 42.0687 29.462C41.6671 29.1245 41.4663 28.6182 41.4663 27.9432C41.4663 27.5288 41.5496 27.061 41.7184 26.5419C41.8871 26.0228 42.1905 25.4524 42.6327 24.8287L51.3888 11.986H42.7865L41.4642 8.91211H46.0185H46.9904H50.5706H52.0895C52.8414 8.91211 53.4459 9.08727 53.8988 9.43761C54.3516 9.78794 54.5802 10.3006 54.5802 10.9756C54.5802 11.3388 54.5076 11.7489 54.3666 12.2018C54.2235 12.6568 53.9714 13.1545 53.6083 13.6993L44.8906 27.0097H53.997L54.8921 29.9683Z" fill="#151515"/>
<path d="M70.8107 29.9683H66.297H65.6348H62.0546H59.4463C58.876 29.9683 58.3889 29.7995 57.9873 29.462C57.5857 29.1245 57.3849 28.6182 57.3849 27.9432C57.3849 27.5288 57.4683 27.061 57.637 26.5419C57.8058 26.0228 58.1091 25.4524 58.5513 24.8287L67.3074 11.986H58.7051L57.3849 8.91211H61.9393H62.9112H66.4914H68.0102C68.7622 8.91211 69.3667 9.08727 69.8196 9.43761C70.2724 9.78794 70.501 10.3006 70.501 10.9756C70.501 11.3388 70.4284 11.7489 70.2874 12.2018C70.1443 12.6568 69.8922 13.1545 69.529 13.6993L60.8114 27.0097H69.9178L70.8107 29.9683Z" fill="#151515"/>
<path d="M76.7259 20.2765V21.3275C76.7259 22.2353 76.7515 23.0663 76.8028 23.8182C76.8541 24.5702 77.0164 25.2324 77.2899 25.8027C77.5633 26.3731 77.9969 26.8153 78.5929 27.125C79.1889 27.4369 80.0455 27.5928 81.1627 27.5928C82.8482 27.5928 84.0038 27.2489 84.6254 26.5611C85.2492 25.8732 85.559 24.9077 85.559 23.6623C85.7149 23.6623 85.9349 23.6623 86.2212 23.6623C86.5053 23.6623 86.8043 23.6559 87.1162 23.6431C87.4281 23.6303 87.74 23.6239 88.0497 23.6239C88.3616 23.6239 88.6329 23.6239 88.8679 23.6239C88.8679 24.6364 88.7504 25.5507 88.5175 26.3667C88.2847 27.1848 87.8745 27.8855 87.2914 28.4687C86.7082 29.0518 85.9157 29.5068 84.9181 29.8315C83.9184 30.1562 82.6666 30.3186 81.1627 30.3186C79.3983 30.3186 78.0033 30.0922 76.978 29.6372C75.9526 29.1843 75.1815 28.5605 74.6624 27.768C74.1433 26.9776 73.8058 26.0356 73.6498 24.9461C73.4939 23.8567 73.417 22.6626 73.417 21.3659V17.5529C73.417 16.2562 73.4875 15.0557 73.6306 13.9534C73.7737 12.8512 74.1112 11.8985 74.6432 11.0931C75.1751 10.2899 75.9526 9.65975 76.978 9.20475C78.0033 8.75188 79.3961 8.52332 81.1627 8.52332C82.7969 8.52332 84.1213 8.74334 85.1317 9.18553C86.1443 9.62771 86.9282 10.2429 87.4858 11.0333C88.0433 11.8258 88.4193 12.785 88.6137 13.9129C88.8081 15.0408 88.9063 16.2947 88.9063 17.6682V20.2765H76.7259ZM81.1649 11.2469C80.0498 11.2469 79.1932 11.4093 78.5951 11.734C77.9991 12.0587 77.5633 12.4923 77.292 13.037C77.0207 13.5818 76.8562 14.2183 76.805 14.9446C76.7537 15.6709 76.728 16.4506 76.728 17.2795V17.6682H85.6017C85.6017 16.5788 85.5568 15.6325 85.465 14.8271C85.3731 14.0239 85.1787 13.3553 84.8818 12.8234C84.5827 12.2915 84.1427 11.8963 83.5595 11.6357C82.9742 11.3772 82.1753 11.2469 81.1649 11.2469Z" fill="#151515"/>
<path d="M92.2557 12.5906C92.4885 11.6955 92.9307 10.9756 93.5779 10.4309C94.2273 9.8862 95.101 9.49742 96.2054 9.26244C97.3077 9.0296 98.7411 8.91211 100.506 8.91211H104.242L102.84 11.6763H100.738C99.6233 11.6763 98.7069 11.734 97.9955 11.8515C97.2821 11.969 96.7181 12.1826 96.3016 12.4945C95.8871 12.8063 95.6009 13.24 95.445 13.7975C95.289 14.3551 95.2121 15.0749 95.2121 15.9572V29.9683H91.9053V15.9572C91.9053 14.6093 92.0228 13.4856 92.2557 12.5906Z" fill="#151515"/>
</g>
<defs>
<clipPath id="clip0">
<rect width="182.01" height="30.3186" fill="white" transform="translate(0.990295)"/>
</clipPath>
</defs>
</svg>
