<svg width="253" height="42" viewBox="0 0 253 42" fill="none" xmlns="http://www.w3.org/2000/svg">
<g clip-path="url(#clip0)">
<path d="M149.603 13.3284H160.735C162.395 13.3284 163.783 13.5385 164.902 13.9587C166.017 14.3789 166.911 14.9323 167.589 15.6158C168.263 16.2994 168.749 17.0836 169.048 17.9654C169.346 18.8473 169.494 19.735 169.494 20.6287C169.494 21.3922 169.364 22.1172 169.104 22.8008C168.843 23.4844 168.473 24.091 167.994 24.6177C167.515 25.1445 166.944 25.5854 166.281 25.9405C165.618 26.2956 164.887 26.5264 164.082 26.63L164.159 26.7099C164.339 26.6833 164.768 26.7632 165.443 26.9466C166.118 27.1301 166.825 27.4793 167.565 27.9942C168.305 28.5061 168.968 29.2193 169.551 30.1248C170.134 31.0333 170.426 32.1963 170.426 33.6196C170.426 34.9099 170.193 36.0403 169.725 37.0139C169.258 37.9874 168.604 38.8101 167.76 39.4818C166.917 40.1536 165.899 40.6596 164.703 41.0029C163.511 41.3461 162.185 41.5148 160.732 41.5148H149.6V13.3284H149.603ZM160.735 26.1181C163.097 26.1181 164.86 25.5854 166.029 24.5201C167.198 23.4548 167.781 22.0521 167.781 20.3151C167.781 19.2882 167.586 18.4271 167.198 17.7287C166.807 17.0303 166.29 16.4651 165.641 16.0301C164.993 15.5951 164.248 15.2874 163.404 15.1009C162.561 14.9175 161.673 14.8257 160.738 14.8257H151.319V26.1151H160.735V26.1181ZM160.735 40.0145C163.227 40.0145 165.18 39.4818 166.594 38.4165C168.009 37.3512 168.716 35.7503 168.716 33.6196C168.716 32.4093 168.47 31.415 167.976 30.6397C167.482 29.8644 166.855 29.2519 166.088 28.805C165.322 28.3582 164.467 28.0475 163.52 27.8788C162.573 27.7071 161.644 27.6213 160.735 27.6213H151.316V40.0174H160.735V40.0145Z" fill="white"/>
<path d="M175.333 25.7243H175.448C175.629 25.0674 175.96 24.4489 176.44 23.8689C176.919 23.2889 177.502 22.7888 178.191 22.3686C178.878 21.9484 179.644 21.6258 180.488 21.4009C181.331 21.179 182.207 21.0784 183.116 21.105V22.6053C182.337 22.5018 181.447 22.5787 180.449 22.8421C179.449 23.1054 178.496 23.6854 177.588 24.5791C177.224 24.9727 176.907 25.3544 176.635 25.7243C176.363 26.0942 176.135 26.4996 175.954 26.9494C175.774 27.3963 175.629 27.8964 175.525 28.4498C175.422 29.0031 175.357 29.6601 175.33 30.4236V41.5176H173.85V21.2234H175.33V25.7243H175.333Z" fill="white"/>
<path d="M183.272 31.3703C183.272 29.9233 183.474 28.5621 183.876 27.2837C184.279 26.0083 184.867 24.8838 185.649 23.9072C186.427 22.9336 187.389 22.1643 188.528 21.599C189.67 21.0338 190.981 20.7498 192.461 20.7498C193.94 20.7498 195.251 21.0338 196.394 21.599C197.536 22.1643 198.495 22.9336 199.273 23.9072C200.051 24.8808 200.64 26.0053 201.045 27.2837C201.448 28.5591 201.649 29.9233 201.649 31.3703C201.649 32.8174 201.448 34.1875 201.045 35.4748C200.643 36.765 200.054 37.8895 199.273 38.8512C198.495 39.813 197.533 40.5764 196.394 41.1416C195.251 41.7068 193.94 41.9909 192.461 41.9909C190.981 41.9909 189.67 41.7068 188.528 41.1416C187.386 40.5764 186.427 39.813 185.649 38.8512C184.87 37.8895 184.279 36.765 183.876 35.4748C183.474 34.1845 183.272 32.8174 183.272 31.3703ZM184.752 31.3703C184.752 32.5807 184.921 33.7466 185.258 34.8652C185.595 35.9837 186.09 36.978 186.738 37.8451C187.386 38.7151 188.191 39.4046 189.152 39.9165C190.111 40.4285 191.215 40.6859 192.461 40.6859C193.707 40.6859 194.81 40.4285 195.769 39.9165C196.728 39.4046 197.533 38.7121 198.184 37.8451C198.832 36.978 199.326 35.9837 199.663 34.8652C200.001 33.7466 200.17 32.5836 200.17 31.3703C200.17 30.16 200.001 28.9971 199.663 27.8755C199.326 26.7569 198.832 25.7626 198.184 24.8956C197.536 24.0256 196.731 23.3361 195.769 22.8242C194.807 22.3122 193.707 22.0548 192.461 22.0548C191.215 22.0548 190.111 22.3122 189.152 22.8242C188.191 23.3361 187.389 24.0286 186.738 24.8956C186.09 25.7626 185.595 26.7569 185.258 27.8755C184.921 28.9941 184.752 30.16 184.752 31.3703Z" fill="white"/>
<path d="M205.188 13.3284H206.668V32.001L219.008 21.2235H221.147L212.388 28.8021L221.769 41.5148H219.745L211.219 29.9473L206.665 33.8564V41.5148H205.185V13.3284H205.188Z" fill="white"/>
<path d="M223.213 31.5657V31.8024C223.213 32.9861 223.37 34.1194 223.681 35.1966C223.991 36.2767 224.453 37.2237 225.065 38.0404C225.678 38.8571 226.444 39.5022 227.368 39.9757C228.291 40.4492 229.365 40.6859 230.587 40.6859C232.591 40.6859 234.177 40.1533 235.349 39.088C236.521 38.0226 237.325 36.543 237.769 34.6462H239.249C238.808 37.0135 237.855 38.8305 236.387 40.0941C234.92 41.3577 232.981 41.988 230.567 41.988C229.087 41.988 227.797 41.7187 226.693 41.1801C225.589 40.6415 224.669 39.9047 223.929 38.9696C223.189 38.0345 222.639 36.9307 222.275 35.6523C221.911 34.3769 221.73 33.0009 221.73 31.5272C221.73 30.1068 221.92 28.7455 222.296 27.4405C222.672 26.1385 223.237 24.9933 223.988 24.0049C224.74 23.0195 225.681 22.2294 226.811 21.6375C227.942 21.0457 229.271 20.7498 230.8 20.7498C232.203 20.7498 233.44 21.0131 234.517 21.5399C235.594 22.0666 236.497 22.7827 237.222 23.6912C237.947 24.5997 238.5 25.6532 238.876 26.8487C239.252 28.0472 239.441 29.3285 239.441 30.6986C239.441 30.8318 239.435 30.9827 239.421 31.1514C239.409 31.323 239.4 31.4621 239.4 31.5657H223.213ZM237.926 30.2636C237.873 29.1569 237.692 28.1123 237.379 27.1239C237.065 26.1385 236.603 25.2685 235.994 24.5198C235.381 23.7711 234.641 23.1704 233.769 22.7235C232.896 22.2767 231.901 22.0518 230.783 22.0518C229.587 22.0518 228.531 22.2826 227.622 22.7413C226.711 23.2029 225.944 23.8066 225.32 24.5583C224.696 25.3069 224.213 26.1829 223.876 27.1831C223.539 28.1833 223.328 29.2101 223.252 30.2636H237.926Z" fill="white"/>
<path d="M244.35 25.7243H244.466C244.646 25.0674 244.978 24.4489 245.457 23.8689C245.937 23.2889 246.52 22.7888 247.209 22.3686C247.896 21.9484 248.662 21.6258 249.505 21.4009C250.349 21.179 251.225 21.0784 252.133 21.105V22.6053C251.355 22.5018 250.464 22.5787 249.467 22.8421C248.467 23.1054 247.514 23.6854 246.605 24.5791C246.241 24.9727 245.925 25.3544 245.653 25.7243C245.38 26.0942 245.152 26.4996 244.972 26.9494C244.791 27.3963 244.646 27.8964 244.543 28.4498C244.439 29.0031 244.374 29.6601 244.348 30.4236V41.5176H242.868V21.2234H244.348V25.7243H244.35Z" fill="white"/>
<path d="M10.082 41.5147L0 12.3458H5.12238L12.2393 35.0429L18.9774 12.3458H24.153L30.6781 35.0429L37.8482 12.3458H43.0772L32.8886 41.5147H28.145L21.5667 19.2467L14.8256 41.5147H12.2363H10.082Z" fill="white"/>
<path d="M46.3115 2.69584C46.3115 1.94124 46.5719 1.30205 47.0928 0.78123C47.6136 0.26041 48.235 0 48.9541 0C49.7087 0 50.3479 0.26041 50.8687 0.78123C51.3895 1.30205 51.6499 1.94124 51.6499 2.69584C51.6499 3.41492 51.3895 4.03636 50.8687 4.55718C50.3479 5.078 49.7087 5.33841 48.9541 5.33841C48.235 5.33841 47.6136 5.078 47.0928 4.55718C46.5719 4.03636 46.3115 3.41492 46.3115 2.69584ZM51.2712 41.5147H46.637V12.3458H51.2741V41.5147H51.2712Z" fill="white"/>
<path d="M74.6696 41.5147H68.4168H67.4994H62.5398H58.9266C58.1365 41.5147 57.4618 41.2809 56.9054 40.8134C56.3491 40.3458 56.071 39.6445 56.071 38.7094C56.071 38.1353 56.1864 37.4872 56.4201 36.7682C56.6539 36.0491 57.0741 35.259 57.6867 34.3949L69.8165 16.6041H57.8997L56.068 12.3458H62.377H63.7235H68.6831H70.7871C71.8287 12.3458 72.6662 12.5885 73.2935 13.0738C73.9209 13.5591 74.2375 14.2693 74.2375 15.2044C74.2375 15.7075 74.1369 16.2756 73.9416 16.903C73.7433 17.5333 73.3941 18.2228 72.8911 18.9774L60.8146 37.4162H73.4297L74.6696 41.5147Z" fill="white"/>
<path d="M96.7215 41.5147H90.4687H89.5514H84.5917H80.9786C80.1884 41.5147 79.5138 41.2809 78.9574 40.8134C78.4011 40.3458 78.1229 39.6445 78.1229 38.7094C78.1229 38.1353 78.2383 37.4872 78.4721 36.7682C78.7059 36.0491 79.1261 35.259 79.7386 34.3949L91.8684 16.6041H79.9517L78.1229 12.3458H84.432H85.7784H90.738H92.842C93.8837 12.3458 94.7211 12.5885 95.3485 13.0738C95.9758 13.5591 96.2924 14.2693 96.2924 15.2044C96.2924 15.7075 96.1918 16.2756 95.9965 16.903C95.7983 17.5333 95.4491 18.2228 94.946 18.9774L82.8695 37.4162H95.4846L96.7215 41.5147Z" fill="white"/>
<path d="M104.916 28.0888V29.5447C104.916 30.8024 104.951 31.9535 105.022 32.9952C105.093 34.0368 105.318 34.9542 105.697 35.7443C106.076 36.5344 106.676 37.1469 107.502 37.576C108.328 38.0081 109.514 38.2241 111.062 38.2241C113.397 38.2241 114.998 37.7476 115.859 36.7948C116.723 35.8419 117.152 34.5044 117.152 32.7791C117.368 32.7791 117.673 32.7791 118.069 32.7791C118.463 32.7791 118.877 32.7703 119.309 32.7525C119.741 32.7348 120.173 32.7259 120.602 32.7259C121.035 32.7259 121.41 32.7259 121.736 32.7259C121.736 34.1285 121.573 35.3951 121.251 36.5255C120.928 37.6589 120.36 38.6295 119.552 39.4374C118.744 40.2452 117.646 40.8755 116.264 41.3253C114.879 41.7751 113.145 42 111.062 42C108.618 42 106.685 41.6863 105.265 41.056C103.844 40.4287 102.776 39.5646 102.057 38.4667C101.338 37.3718 100.87 36.0668 100.654 34.5576C100.438 33.0484 100.332 31.3942 100.332 29.598V24.3158C100.332 22.5196 100.43 20.8565 100.628 19.3296C100.826 17.8026 101.294 16.4828 102.03 15.3672C102.767 14.2545 103.844 13.3815 105.265 12.7512C106.685 12.1239 108.615 11.8073 111.062 11.8073C113.326 11.8073 115.16 12.112 116.56 12.7246C117.963 13.3372 119.049 14.1894 119.821 15.2843C120.594 16.3822 121.114 17.7109 121.384 19.2733C121.653 20.8358 121.789 22.5728 121.789 24.4756V28.0888H104.916ZM111.065 15.5802C109.52 15.5802 108.334 15.8051 107.505 16.2549C106.679 16.7047 106.076 17.3055 105.7 18.0601C105.324 18.8146 105.096 19.6965 105.025 20.7026C104.954 21.7088 104.919 22.7889 104.919 23.937V24.4756H117.211C117.211 22.9664 117.149 21.6555 117.022 20.5399C116.895 19.4272 116.625 18.501 116.214 17.7641C115.8 17.0273 115.19 16.4798 114.382 16.1188C113.571 15.7607 112.465 15.5802 111.065 15.5802Z" fill="white"/>
<path d="M126.429 17.4416C126.751 16.2017 127.364 15.2044 128.261 14.4498C129.16 13.6952 130.371 13.1566 131.9 12.8311C133.427 12.5086 135.413 12.3458 137.857 12.3458H143.033L141.092 16.175H138.18C136.635 16.175 135.366 16.2549 134.38 16.4177C133.392 16.5804 132.611 16.8764 132.034 17.3084C131.46 17.7405 131.063 18.3412 130.847 19.1135C130.631 19.8859 130.524 20.8831 130.524 22.1053V41.5147H125.944V22.1053C125.944 20.238 126.106 18.6815 126.429 17.4416Z" fill="white"/>
</g>
<defs>
<clipPath id="clip0">
<rect width="252.136" height="42" fill="white"/>
</clipPath>
</defs>
</svg>
