<svg width="281" height="237" viewBox="0 0 281 237" fill="none" xmlns="http://www.w3.org/2000/svg">
<path fill-rule="evenodd" clip-rule="evenodd" d="M251.414 0.312035H238.615V19.968H222.158V53.3375H209.359V234.813H280.669V53.3375H267.87V19.968H251.414V0.312035Z" fill="#151515"/>
<path d="M143.534 63.323H214.845V234.813H143.534V63.323Z" fill="#151515"/>
<path d="M143.534 63.323V62.4087H142.62V63.323H143.534ZM214.845 63.323H215.759V62.4087H214.845V63.323ZM214.845 234.813V235.727H215.759V234.813H214.845ZM143.534 234.813H142.62V235.727H143.534V234.813ZM143.534 64.2372H214.845V62.4087H143.534V64.2372ZM213.93 63.323V234.813H215.759V63.323H213.93ZM214.845 233.898H143.534V235.727H214.845V233.898ZM144.449 234.813V63.323H142.62V234.813H144.449Z" fill="white"/>
<rect x="156.334" y="54.2517" width="45.7116" height="14.6868" fill="#151515"/>
<rect x="156.334" y="84.8785" width="9.14232" height="9.14232" fill="white"/>
<rect x="156.334" y="104.077" width="9.14232" height="9.14232" fill="white"/>
<rect x="156.334" y="123.276" width="9.14232" height="9.14232" fill="white"/>
<rect x="156.334" y="142.475" width="9.14232" height="9.14232" fill="white"/>
<rect x="192.446" y="84.8785" width="9.14232" height="9.14232" fill="white"/>
<rect x="192.446" y="104.077" width="9.14232" height="9.14232" fill="white"/>
<rect x="192.446" y="142.475" width="9.14232" height="9.14232" fill="white"/>
<rect x="156.791" y="161.674" width="9.14232" height="9.14232" fill="white"/>
<rect x="156.791" y="180.873" width="9.14232" height="9.14232" fill="white"/>
<rect x="192.903" y="161.674" width="9.14232" height="9.14232" fill="white"/>
<rect x="192.903" y="180.873" width="9.14232" height="9.14232" fill="white"/>
<rect x="192.446" y="123.276" width="9.14232" height="9.14232" fill="white"/>
<path fill-rule="evenodd" clip-rule="evenodd" d="M150.848 115.95H166.847L115.193 68.8794L63.082 115.95H79.5382V235.27H150.848V115.95Z" fill="#151515"/>
<path d="M166.847 115.95V116.865H169.208L167.463 115.275L166.847 115.95ZM150.848 115.95V115.036H149.934V115.95H150.848ZM115.193 68.8794L115.809 68.2037L115.196 67.645L114.58 68.201L115.193 68.8794ZM63.082 115.95L62.4692 115.272L60.706 116.865H63.082V115.95ZM79.5382 115.95H80.4524V115.036H79.5382V115.95ZM79.5382 235.27H78.624V236.184H79.5382V235.27ZM150.848 235.27V236.184H151.763V235.27H150.848ZM166.847 115.036H150.848V116.865H166.847V115.036ZM114.577 69.5552L166.232 116.626L167.463 115.275L115.809 68.2037L114.577 69.5552ZM63.6948 116.629L115.806 69.5579L114.58 68.201L62.4692 115.272L63.6948 116.629ZM79.5382 115.036H63.082V116.865H79.5382V115.036ZM80.4524 235.27V115.95H78.624V235.27H80.4524ZM150.848 234.355H79.5382V236.184H150.848V234.355ZM149.934 115.95V235.27H151.763V115.95H149.934Z" fill="white"/>
<rect x="92.3374" y="125.105" width="9.14232" height="9.14232" fill="white"/>
<rect x="92.3374" y="142.932" width="9.14232" height="9.14232" fill="white"/>
<rect x="92.3374" y="161.674" width="9.14232" height="9.14232" fill="white"/>
<rect x="92.3374" y="183.158" width="9.14232" height="9.14232" fill="white"/>
<rect x="128.45" y="125.105" width="9.14232" height="9.14232" fill="white"/>
<rect x="128.45" y="142.932" width="9.14232" height="9.14232" fill="white"/>
<rect x="128.45" y="183.158" width="9.14232" height="9.14232" fill="white"/>
<rect x="128.45" y="161.674" width="9.14232" height="9.14232" fill="white"/>
<path d="M94.4173 186.7H93.5168V187.6V235.745H66.6475H44.4317H17.5624V187.6V186.7H16.6619H2.18417L55.5396 133.693L108.895 186.7H94.4173Z" fill="#151515" stroke="white" stroke-width="1.80104"/>
<rect x="47.9972" y="212.876" width="12.3421" height="23.77" fill="white"/>
<rect x="108.794" y="212.419" width="12.3421" height="23.77" fill="white"/>
<rect x="172.79" y="211.047" width="12.3421" height="23.77" fill="white"/>
<rect x="238.615" y="212.876" width="12.3421" height="23.77" fill="white"/>
<rect x="32.4553" y="188.649" width="9.14232" height="9.14232" fill="white"/>
<rect x="68.5674" y="188.649" width="9.14232" height="9.14232" fill="white"/>
<rect x="219.416" y="71.165" width="50.7399" height="7.31386" fill="white"/>
<rect x="229.472" y="34.5957" width="30.6268" height="5.48539" fill="white"/>
<rect x="219.416" y="90.3639" width="50.7399" height="7.31386" fill="white"/>
<rect x="219.416" y="109.563" width="50.7399" height="7.31386" fill="white"/>
<rect x="219.416" y="128.762" width="50.7399" height="7.31386" fill="white"/>
<rect x="219.416" y="147.961" width="50.7399" height="7.31386" fill="white"/>
<rect x="219.416" y="167.159" width="50.7399" height="7.31386" fill="white"/>
<rect x="219.416" y="186.358" width="50.7399" height="7.31386" fill="white"/>
</svg>
