<svg width="26" height="26" viewBox="0 0 26 26" fill="none" xmlns="http://www.w3.org/2000/svg">
<path d="M1.72258 24.97L1.19398 25.4986L1.72258 24.97C1.70043 24.9478 1.68798 24.9178 1.68798 24.8864V9.36725C1.68798 9.33592 1.70043 9.30587 1.72258 9.28372C1.74473 9.26156 1.77478 9.24912 1.80611 9.24912H5.50783C5.53916 9.24912 5.56921 9.26156 5.59136 9.28372L6.12228 8.7528L5.59136 9.28372C5.61351 9.30587 5.62596 9.33592 5.62596 9.36725V9.36733L5.62761 24.8864C5.62761 24.8865 5.62761 24.8865 5.62761 24.8865C5.6276 24.9178 5.61516 24.9478 5.59301 24.97C5.57086 24.9921 5.54081 25.0046 5.50948 25.0046H1.80611C1.77478 25.0046 1.74473 24.9921 1.72258 24.97ZM24.9804 24.2049H24.9738V24.9557C24.9738 24.9687 24.9687 24.9811 24.9595 24.9903L25.4904 25.5212L24.9595 24.9903C24.9504 24.9994 24.9379 25.0046 24.925 25.0046H20.9528C20.9399 25.0046 20.9274 24.9994 20.9183 24.9903L20.3873 25.5212L20.9183 24.9903C20.9091 24.9811 20.9039 24.9687 20.9039 24.9557V17.6726C20.9039 17.6078 20.9056 17.5264 20.9076 17.4311C20.9199 16.8351 20.9435 15.6959 20.6371 14.6708C20.4544 14.0595 20.139 13.4234 19.5839 12.939C19.0156 12.4431 18.2612 12.1631 17.3154 12.1631C15.7683 12.1631 14.8086 12.9864 14.2615 13.938C13.7383 14.8478 13.5766 15.8869 13.5236 16.4907L13.5208 16.5235V16.5563V24.9524C13.5208 24.9654 13.5156 24.9778 13.5064 24.987C13.4973 24.9961 13.4848 25.0013 13.4719 25.0013H9.62836C9.6154 25.0013 9.60297 24.9961 9.5938 24.987C9.58464 24.9778 9.57949 24.9654 9.57949 24.9524V9.29635C9.57949 9.28338 9.58464 9.27095 9.5938 9.26179C9.60297 9.25262 9.6154 9.24747 9.62836 9.24747H13.4768C13.4898 9.24747 13.5022 9.25262 13.5114 9.26179C13.5206 9.27095 13.5257 9.28339 13.5257 9.29635V10.6501V13.1458L14.9027 11.0643C15.3785 10.3453 16.0427 9.77078 16.8228 9.40366C17.6029 9.03654 18.469 8.89091 19.3263 8.98268L19.3661 8.98695H19.4062C20.8768 8.98695 21.9122 9.3285 22.6552 9.8351C23.3994 10.3425 23.91 11.0563 24.2608 11.9012C24.9792 13.6313 24.9804 15.7758 24.9804 17.4451V24.2049ZM3.6578 6.28327C3.11069 6.28327 2.57587 6.12103 2.12097 5.81708C1.66606 5.51312 1.31151 5.08109 1.10214 4.57563C0.892772 4.07017 0.837992 3.51398 0.944727 2.97739C1.05146 2.44079 1.31492 1.9479 1.70178 1.56104C2.08865 1.17417 2.58154 0.910715 3.11813 0.80398C3.65473 0.697245 4.21092 0.752025 4.71638 0.961394C5.22184 1.17076 5.65387 1.52532 5.95782 1.98022C6.26178 2.43512 6.42402 2.96994 6.42402 3.51705C6.42402 4.25069 6.13258 4.95429 5.61381 5.47306C5.09504 5.99183 4.39144 6.28327 3.6578 6.28327Z" stroke="#151515" stroke-width="1.50165"/>
</svg>
