<svg width="245" height="35" viewBox="0 0 245 35" fill="none" xmlns="http://www.w3.org/2000/svg">
<mask id="path-1-outside-1" maskUnits="userSpaceOnUse" x="0" y="0" width="245" height="35" fill="black">
<rect fill="white" width="245" height="35"/>
<path d="M16.353 2.44621C17.9395 2.44621 19.3525 2.81805 20.592 3.56172C21.8314 4.28061 22.7982 5.28458 23.4923 6.57362C24.1864 7.83788 24.5335 9.26326 24.5335 10.8498V11.3332C24.5335 12.9197 24.1864 14.3575 23.4923 15.6465C22.7982 16.9355 21.8314 17.9519 20.592 18.6956C19.3525 19.4145 17.9395 19.7739 16.353 19.7739H10.2176V28.0287H2V2.44621H16.353ZM10.2176 13.7873H13.6014C14.469 13.7873 15.1135 13.5642 15.5349 13.118C15.9812 12.6718 16.2043 12.0644 16.2043 11.296V10.9985C16.2043 10.2053 15.9812 9.59791 15.5349 9.1765C15.1135 8.73029 14.469 8.50719 13.6014 8.50719H10.2176V13.7873Z"/>
<path d="M37.402 7.94943C40.4015 7.94943 42.8432 8.45761 44.7272 9.47397C46.6112 10.4655 47.5532 12.0892 47.5532 14.3451V22.0049C47.5532 22.4264 47.6524 22.7734 47.8507 23.0461C48.049 23.3188 48.3465 23.4551 48.7431 23.4551H50.0817V27.7313C50.0073 27.7808 49.809 27.8676 49.4868 27.9916C49.1893 28.0907 48.7555 28.1899 48.1853 28.289C47.6152 28.413 46.9583 28.4749 46.2146 28.4749C44.7768 28.4749 43.5869 28.2642 42.6449 27.8428C41.7277 27.3966 41.0956 26.7893 40.7485 26.0208C39.8065 26.7645 38.753 27.3594 37.5879 27.8056C36.4228 28.2518 35.0594 28.4749 33.4977 28.4749C28.8869 28.4749 26.5815 26.6405 26.5815 22.9717C26.5815 21.063 27.0897 19.6128 28.106 18.6212C29.1472 17.6049 30.6345 16.9108 32.5681 16.5389C34.5016 16.1671 37.0302 15.9812 40.1536 15.9812V15.0144C40.1536 14.2459 39.8809 13.6634 39.3356 13.2667C38.815 12.8701 38.1333 12.6718 37.2904 12.6718C36.522 12.6718 35.8527 12.8081 35.2825 13.0808C34.7371 13.3535 34.4645 13.7873 34.4645 14.3822V14.531H27.1764C27.1516 14.407 27.1392 14.2335 27.1392 14.0104C27.1392 12.1512 28.0192 10.6762 29.7793 9.58552C31.5641 8.49479 34.105 7.94943 37.402 7.94943ZM40.1536 19.4764C38.0465 19.4764 36.4848 19.7119 35.4684 20.1829C34.4769 20.6291 33.9811 21.2365 33.9811 22.0049C33.9811 23.2444 34.8239 23.8641 36.5096 23.8641C37.4764 23.8641 38.3192 23.6039 39.0381 23.0833C39.7818 22.5627 40.1536 21.9182 40.1536 21.1497V19.4764Z"/>
<path d="M64.4344 7.91224C65.0046 7.91224 65.5127 7.98661 65.9589 8.13535C66.4052 8.25929 66.6283 8.33366 66.6283 8.35845V14.5682H64.2485C62.7116 14.5682 61.596 14.9648 60.9019 15.758C60.2326 16.5513 59.898 17.7288 59.898 19.2905V28.0287H52.4984V8.39564H58.5593L59.0427 11.3703C59.4889 10.23 60.1954 9.37481 61.1622 8.80466C62.129 8.20971 63.2197 7.91224 64.4344 7.91224Z"/>
<path d="M79.3428 7.94943C82.3423 7.94943 84.7841 8.45761 86.6681 9.47397C88.552 10.4655 89.494 12.0892 89.494 14.3451V22.0049C89.494 22.4264 89.5932 22.7734 89.7915 23.0461C89.9898 23.3188 90.2873 23.4551 90.6839 23.4551H92.0225V27.7313C91.9482 27.7808 91.7499 27.8676 91.4276 27.9916C91.1301 28.0907 90.6963 28.1899 90.1262 28.289C89.556 28.413 88.8991 28.4749 88.1554 28.4749C86.7176 28.4749 85.5278 28.2642 84.5858 27.8428C83.6686 27.3966 83.0364 26.7893 82.6894 26.0208C81.7474 26.7645 80.6938 27.3594 79.5287 27.8056C78.3637 28.2518 77.0002 28.4749 75.4385 28.4749C70.8277 28.4749 68.5223 26.6405 68.5223 22.9717C68.5223 21.063 69.0305 19.6128 70.0469 18.6212C71.088 17.6049 72.5754 16.9108 74.5089 16.5389C76.4425 16.1671 78.971 15.9812 82.0944 15.9812V15.0144C82.0944 14.2459 81.8218 13.6634 81.2764 13.2667C80.7558 12.8701 80.0741 12.6718 79.2313 12.6718C78.4628 12.6718 77.7935 12.8081 77.2233 13.0808C76.678 13.3535 76.4053 13.7873 76.4053 14.3822V14.531H69.1172C69.0925 14.407 69.0801 14.2335 69.0801 14.0104C69.0801 12.1512 69.9601 10.6762 71.7201 9.58552C73.505 8.49479 76.0459 7.94943 79.3428 7.94943ZM82.0944 19.4764C79.9874 19.4764 78.4256 19.7119 77.4093 20.1829C76.4177 20.6291 75.9219 21.2365 75.9219 22.0049C75.9219 23.2444 76.7647 23.8641 78.4504 23.8641C79.4172 23.8641 80.26 23.6039 80.9789 23.0833C81.7226 22.5627 82.0944 21.9182 82.0944 21.1497V19.4764Z"/>
<path d="M106.264 15.2375C106.264 10.8994 107.454 7.61477 109.834 5.38374C112.238 3.12791 115.647 2 120.059 2C124.472 2 127.88 3.12791 130.285 5.38374C132.689 7.63956 133.892 10.9241 133.892 15.2375C133.892 18.113 133.346 20.5424 132.256 22.5255C131.19 24.4839 129.628 25.9712 127.57 26.9876L133.408 32.8998H123.629L119.687 28.4749C115.374 28.4006 112.052 27.2479 109.722 25.0168C107.417 22.761 106.264 19.5012 106.264 15.2375ZM125.488 14.0476C125.488 12.238 125.017 10.8002 124.075 9.73426C123.158 8.66832 121.819 8.13535 120.059 8.13535C118.299 8.13535 116.961 8.66832 116.043 9.73426C115.126 10.8002 114.668 12.238 114.668 14.0476V16.4274C114.668 18.237 115.126 19.6748 116.043 20.7407C116.961 21.8066 118.299 22.3396 120.059 22.3396C121.819 22.3396 123.158 21.8066 124.075 20.7407C125.017 19.6748 125.488 18.237 125.488 16.4274V14.0476Z"/>
<path d="M152.038 28.0287L151.554 25.054C150.786 26.12 149.769 26.9628 148.505 27.5825C147.266 28.1775 145.952 28.4749 144.564 28.4749C142.283 28.4749 140.573 27.8428 139.432 26.5786C138.292 25.3143 137.722 23.4923 137.722 21.1125V8.39564H145.121V20.2201C145.121 21.063 145.332 21.7447 145.754 22.2652C146.2 22.761 146.82 23.0089 147.613 23.0089C148.53 23.0089 149.274 22.7114 149.844 22.1165C150.414 21.5216 150.699 20.7903 150.699 19.9226V8.39564H158.099V28.0287H152.038Z"/>
<path d="M172.749 7.94943C176.343 7.94943 179.082 8.79226 180.966 10.4779C182.875 12.1636 183.83 14.7417 183.83 18.2122V19.4764H169.105C169.105 20.8894 169.415 21.9554 170.034 22.6743C170.679 23.3931 171.683 23.7526 173.046 23.7526C174.286 23.7526 175.191 23.4923 175.761 22.9717C176.356 22.4512 176.653 21.7571 176.653 20.8894H183.83C183.83 23.2692 182.925 25.1284 181.115 26.467C179.306 27.8056 176.666 28.4749 173.195 28.4749C169.551 28.4749 166.725 27.6321 164.717 25.9464C162.709 24.236 161.705 21.6579 161.705 18.2122C161.705 14.8408 162.684 12.2876 164.643 10.5523C166.601 8.81705 169.303 7.94943 172.749 7.94943ZM173.046 12.6718C170.716 12.6718 169.415 13.7749 169.142 15.9812H176.356C176.356 14.9648 176.058 14.1591 175.463 13.5642C174.893 12.9693 174.087 12.6718 173.046 12.6718Z"/>
<path d="M213.465 7.94943C215.696 7.94943 217.369 8.59395 218.485 9.88299C219.6 11.1472 220.158 12.9569 220.158 15.3118V28.0287H212.758V16.2043C212.758 15.3614 212.548 14.6921 212.126 14.1963C211.73 13.6758 211.16 13.4155 210.416 13.4155C209.548 13.4155 208.842 13.7129 208.296 14.3079C207.751 14.9028 207.478 15.6341 207.478 16.5017V28.0287H200.079V16.2043C200.079 15.3614 199.868 14.6921 199.447 14.1963C199.05 13.6758 198.48 13.4155 197.736 13.4155C196.868 13.4155 196.162 13.7129 195.617 14.3079C195.071 14.9028 194.799 15.6341 194.799 16.5017V28.0287H187.399V8.39564H193.46L193.943 11.3332C194.687 10.292 195.666 9.47397 196.881 8.87902C198.12 8.25929 199.422 7.94943 200.785 7.94943C203.735 7.94943 205.718 9.07734 206.735 11.3332C207.503 10.292 208.482 9.47397 209.672 8.87902C210.887 8.25929 212.151 7.94943 213.465 7.94943Z"/>
<path d="M233.879 2C235.763 2 237.424 2.30987 238.862 2.9296C240.299 3.54933 241.415 4.44174 242.208 5.60684C243.001 6.74715 243.398 8.07337 243.398 9.58552C243.398 10.5523 243.187 11.4199 242.766 12.1884C242.344 12.9321 241.849 13.5642 241.278 14.0848C240.708 14.6053 239.989 15.1755 239.122 15.7952C238.403 16.3406 237.87 16.7744 237.523 17.0967C237.201 17.4189 237.04 17.7536 237.04 18.1006V18.8815H230.681V17.0223C230.681 16.4274 230.867 15.8944 231.239 15.4234C231.611 14.9276 232.193 14.3079 232.986 13.5642C233.805 12.8453 234.424 12.2008 234.846 11.6306C235.292 11.0605 235.515 10.4284 235.515 9.73426C235.515 9.01537 235.292 8.40803 234.846 7.91224C234.399 7.39167 233.805 7.13138 233.061 7.13138C231.45 7.13138 230.644 8.17253 230.644 10.2548C230.644 10.701 230.656 11.0357 230.681 11.2588H223.839C223.814 11.0853 223.79 10.887 223.765 10.6639C223.74 10.4408 223.728 10.1681 223.728 9.84581C223.728 8.25929 224.161 6.88349 225.029 5.71839C225.897 4.52851 227.099 3.6113 228.636 2.96678C230.198 2.32226 231.945 2 233.879 2ZM230.235 28.0287V21.1497H237.597V28.0287H230.235Z"/>
</mask>
<path d="M16.353 2.44621C17.9395 2.44621 19.3525 2.81805 20.592 3.56172C21.8314 4.28061 22.7982 5.28458 23.4923 6.57362C24.1864 7.83788 24.5335 9.26326 24.5335 10.8498V11.3332C24.5335 12.9197 24.1864 14.3575 23.4923 15.6465C22.7982 16.9355 21.8314 17.9519 20.592 18.6956C19.3525 19.4145 17.9395 19.7739 16.353 19.7739H10.2176V28.0287H2V2.44621H16.353ZM10.2176 13.7873H13.6014C14.469 13.7873 15.1135 13.5642 15.5349 13.118C15.9812 12.6718 16.2043 12.0644 16.2043 11.296V10.9985C16.2043 10.2053 15.9812 9.59791 15.5349 9.1765C15.1135 8.73029 14.469 8.50719 13.6014 8.50719H10.2176V13.7873Z" stroke="#151515" stroke-width="2.56" mask="url(#path-1-outside-1)"/>
<path d="M37.402 7.94943C40.4015 7.94943 42.8432 8.45761 44.7272 9.47397C46.6112 10.4655 47.5532 12.0892 47.5532 14.3451V22.0049C47.5532 22.4264 47.6524 22.7734 47.8507 23.0461C48.049 23.3188 48.3465 23.4551 48.7431 23.4551H50.0817V27.7313C50.0073 27.7808 49.809 27.8676 49.4868 27.9916C49.1893 28.0907 48.7555 28.1899 48.1853 28.289C47.6152 28.413 46.9583 28.4749 46.2146 28.4749C44.7768 28.4749 43.5869 28.2642 42.6449 27.8428C41.7277 27.3966 41.0956 26.7893 40.7485 26.0208C39.8065 26.7645 38.753 27.3594 37.5879 27.8056C36.4228 28.2518 35.0594 28.4749 33.4977 28.4749C28.8869 28.4749 26.5815 26.6405 26.5815 22.9717C26.5815 21.063 27.0897 19.6128 28.106 18.6212C29.1472 17.6049 30.6345 16.9108 32.5681 16.5389C34.5016 16.1671 37.0302 15.9812 40.1536 15.9812V15.0144C40.1536 14.2459 39.8809 13.6634 39.3356 13.2667C38.815 12.8701 38.1333 12.6718 37.2904 12.6718C36.522 12.6718 35.8527 12.8081 35.2825 13.0808C34.7371 13.3535 34.4645 13.7873 34.4645 14.3822V14.531H27.1764C27.1516 14.407 27.1392 14.2335 27.1392 14.0104C27.1392 12.1512 28.0192 10.6762 29.7793 9.58552C31.5641 8.49479 34.105 7.94943 37.402 7.94943ZM40.1536 19.4764C38.0465 19.4764 36.4848 19.7119 35.4684 20.1829C34.4769 20.6291 33.9811 21.2365 33.9811 22.0049C33.9811 23.2444 34.8239 23.8641 36.5096 23.8641C37.4764 23.8641 38.3192 23.6039 39.0381 23.0833C39.7818 22.5627 40.1536 21.9182 40.1536 21.1497V19.4764Z" stroke="#151515" stroke-width="2.56" mask="url(#path-1-outside-1)"/>
<path d="M64.4344 7.91224C65.0046 7.91224 65.5127 7.98661 65.9589 8.13535C66.4052 8.25929 66.6283 8.33366 66.6283 8.35845V14.5682H64.2485C62.7116 14.5682 61.596 14.9648 60.9019 15.758C60.2326 16.5513 59.898 17.7288 59.898 19.2905V28.0287H52.4984V8.39564H58.5593L59.0427 11.3703C59.4889 10.23 60.1954 9.37481 61.1622 8.80466C62.129 8.20971 63.2197 7.91224 64.4344 7.91224Z" stroke="#151515" stroke-width="2.56" mask="url(#path-1-outside-1)"/>
<path d="M79.3428 7.94943C82.3423 7.94943 84.7841 8.45761 86.6681 9.47397C88.552 10.4655 89.494 12.0892 89.494 14.3451V22.0049C89.494 22.4264 89.5932 22.7734 89.7915 23.0461C89.9898 23.3188 90.2873 23.4551 90.6839 23.4551H92.0225V27.7313C91.9482 27.7808 91.7499 27.8676 91.4276 27.9916C91.1301 28.0907 90.6963 28.1899 90.1262 28.289C89.556 28.413 88.8991 28.4749 88.1554 28.4749C86.7176 28.4749 85.5278 28.2642 84.5858 27.8428C83.6686 27.3966 83.0364 26.7893 82.6894 26.0208C81.7474 26.7645 80.6938 27.3594 79.5287 27.8056C78.3637 28.2518 77.0002 28.4749 75.4385 28.4749C70.8277 28.4749 68.5223 26.6405 68.5223 22.9717C68.5223 21.063 69.0305 19.6128 70.0469 18.6212C71.088 17.6049 72.5754 16.9108 74.5089 16.5389C76.4425 16.1671 78.971 15.9812 82.0944 15.9812V15.0144C82.0944 14.2459 81.8218 13.6634 81.2764 13.2667C80.7558 12.8701 80.0741 12.6718 79.2313 12.6718C78.4628 12.6718 77.7935 12.8081 77.2233 13.0808C76.678 13.3535 76.4053 13.7873 76.4053 14.3822V14.531H69.1172C69.0925 14.407 69.0801 14.2335 69.0801 14.0104C69.0801 12.1512 69.9601 10.6762 71.7201 9.58552C73.505 8.49479 76.0459 7.94943 79.3428 7.94943ZM82.0944 19.4764C79.9874 19.4764 78.4256 19.7119 77.4093 20.1829C76.4177 20.6291 75.9219 21.2365 75.9219 22.0049C75.9219 23.2444 76.7647 23.8641 78.4504 23.8641C79.4172 23.8641 80.26 23.6039 80.9789 23.0833C81.7226 22.5627 82.0944 21.9182 82.0944 21.1497V19.4764Z" stroke="#151515" stroke-width="2.56" mask="url(#path-1-outside-1)"/>
<path d="M106.264 15.2375C106.264 10.8994 107.454 7.61477 109.834 5.38374C112.238 3.12791 115.647 2 120.059 2C124.472 2 127.88 3.12791 130.285 5.38374C132.689 7.63956 133.892 10.9241 133.892 15.2375C133.892 18.113 133.346 20.5424 132.256 22.5255C131.19 24.4839 129.628 25.9712 127.57 26.9876L133.408 32.8998H123.629L119.687 28.4749C115.374 28.4006 112.052 27.2479 109.722 25.0168C107.417 22.761 106.264 19.5012 106.264 15.2375ZM125.488 14.0476C125.488 12.238 125.017 10.8002 124.075 9.73426C123.158 8.66832 121.819 8.13535 120.059 8.13535C118.299 8.13535 116.961 8.66832 116.043 9.73426C115.126 10.8002 114.668 12.238 114.668 14.0476V16.4274C114.668 18.237 115.126 19.6748 116.043 20.7407C116.961 21.8066 118.299 22.3396 120.059 22.3396C121.819 22.3396 123.158 21.8066 124.075 20.7407C125.017 19.6748 125.488 18.237 125.488 16.4274V14.0476Z" stroke="#151515" stroke-width="2.56" mask="url(#path-1-outside-1)"/>
<path d="M152.038 28.0287L151.554 25.054C150.786 26.12 149.769 26.9628 148.505 27.5825C147.266 28.1775 145.952 28.4749 144.564 28.4749C142.283 28.4749 140.573 27.8428 139.432 26.5786C138.292 25.3143 137.722 23.4923 137.722 21.1125V8.39564H145.121V20.2201C145.121 21.063 145.332 21.7447 145.754 22.2652C146.2 22.761 146.82 23.0089 147.613 23.0089C148.53 23.0089 149.274 22.7114 149.844 22.1165C150.414 21.5216 150.699 20.7903 150.699 19.9226V8.39564H158.099V28.0287H152.038Z" stroke="#151515" stroke-width="2.56" mask="url(#path-1-outside-1)"/>
<path d="M172.749 7.94943C176.343 7.94943 179.082 8.79226 180.966 10.4779C182.875 12.1636 183.83 14.7417 183.83 18.2122V19.4764H169.105C169.105 20.8894 169.415 21.9554 170.034 22.6743C170.679 23.3931 171.683 23.7526 173.046 23.7526C174.286 23.7526 175.191 23.4923 175.761 22.9717C176.356 22.4512 176.653 21.7571 176.653 20.8894H183.83C183.83 23.2692 182.925 25.1284 181.115 26.467C179.306 27.8056 176.666 28.4749 173.195 28.4749C169.551 28.4749 166.725 27.6321 164.717 25.9464C162.709 24.236 161.705 21.6579 161.705 18.2122C161.705 14.8408 162.684 12.2876 164.643 10.5523C166.601 8.81705 169.303 7.94943 172.749 7.94943ZM173.046 12.6718C170.716 12.6718 169.415 13.7749 169.142 15.9812H176.356C176.356 14.9648 176.058 14.1591 175.463 13.5642C174.893 12.9693 174.087 12.6718 173.046 12.6718Z" stroke="#151515" stroke-width="2.56" mask="url(#path-1-outside-1)"/>
<path d="M213.465 7.94943C215.696 7.94943 217.369 8.59395 218.485 9.88299C219.6 11.1472 220.158 12.9569 220.158 15.3118V28.0287H212.758V16.2043C212.758 15.3614 212.548 14.6921 212.126 14.1963C211.73 13.6758 211.16 13.4155 210.416 13.4155C209.548 13.4155 208.842 13.7129 208.296 14.3079C207.751 14.9028 207.478 15.6341 207.478 16.5017V28.0287H200.079V16.2043C200.079 15.3614 199.868 14.6921 199.447 14.1963C199.05 13.6758 198.48 13.4155 197.736 13.4155C196.868 13.4155 196.162 13.7129 195.617 14.3079C195.071 14.9028 194.799 15.6341 194.799 16.5017V28.0287H187.399V8.39564H193.46L193.943 11.3332C194.687 10.292 195.666 9.47397 196.881 8.87902C198.12 8.25929 199.422 7.94943 200.785 7.94943C203.735 7.94943 205.718 9.07734 206.735 11.3332C207.503 10.292 208.482 9.47397 209.672 8.87902C210.887 8.25929 212.151 7.94943 213.465 7.94943Z" stroke="#151515" stroke-width="2.56" mask="url(#path-1-outside-1)"/>
<path d="M233.879 2C235.763 2 237.424 2.30987 238.862 2.9296C240.299 3.54933 241.415 4.44174 242.208 5.60684C243.001 6.74715 243.398 8.07337 243.398 9.58552C243.398 10.5523 243.187 11.4199 242.766 12.1884C242.344 12.9321 241.849 13.5642 241.278 14.0848C240.708 14.6053 239.989 15.1755 239.122 15.7952C238.403 16.3406 237.87 16.7744 237.523 17.0967C237.201 17.4189 237.04 17.7536 237.04 18.1006V18.8815H230.681V17.0223C230.681 16.4274 230.867 15.8944 231.239 15.4234C231.611 14.9276 232.193 14.3079 232.986 13.5642C233.805 12.8453 234.424 12.2008 234.846 11.6306C235.292 11.0605 235.515 10.4284 235.515 9.73426C235.515 9.01537 235.292 8.40803 234.846 7.91224C234.399 7.39167 233.805 7.13138 233.061 7.13138C231.45 7.13138 230.644 8.17253 230.644 10.2548C230.644 10.701 230.656 11.0357 230.681 11.2588H223.839C223.814 11.0853 223.79 10.887 223.765 10.6639C223.74 10.4408 223.728 10.1681 223.728 9.84581C223.728 8.25929 224.161 6.88349 225.029 5.71839C225.897 4.52851 227.099 3.6113 228.636 2.96678C230.198 2.32226 231.945 2 233.879 2ZM230.235 28.0287V21.1497H237.597V28.0287H230.235Z" stroke="#151515" stroke-width="2.56" mask="url(#path-1-outside-1)"/>
</svg>
