<svg width="17" height="31" viewBox="0 0 17 31" fill="none" xmlns="http://www.w3.org/2000/svg">
<mask id="path-1-inside-1" fill="white">
<path d="M15.7224 0.809374H11.875C10.9106 0.754794 9.94568 0.907733 9.04542 1.25787C8.14516 1.608 7.33048 2.14719 6.65637 2.83903C5.98226 3.53088 5.46441 4.35928 5.13777 5.26833C4.81112 6.17738 4.68329 7.14592 4.76289 8.10859V11.4727H0.895955C0.735709 11.4727 0.582028 11.5363 0.468717 11.6496C0.355406 11.7629 0.291748 11.9166 0.291748 12.0769V16.9495C0.291748 17.1098 0.355406 17.2634 0.468717 17.3768C0.582028 17.4901 0.735709 17.5537 0.895955 17.5537H4.76289V29.8562C4.76289 29.9355 4.77851 30.0141 4.80888 30.0874C4.83924 30.1607 4.88375 30.2273 4.93986 30.2834C4.99596 30.3395 5.06257 30.384 5.13587 30.4144C5.20918 30.4447 5.28775 30.4604 5.36709 30.4604H10.4132C10.4925 30.4604 10.5711 30.4447 10.6444 30.4144C10.7177 30.384 10.7843 30.3395 10.8404 30.2834C10.8965 30.2273 10.9411 30.1607 10.9714 30.0874C11.0018 30.0141 11.0174 29.9355 11.0174 29.8562V17.5576H15.5392C15.6995 17.5576 15.8532 17.494 15.9665 17.3807C16.0798 17.2673 16.1434 17.1137 16.1434 16.9534V12.0808C16.1434 11.9205 16.0798 11.7668 15.9665 11.6535C15.8532 11.5402 15.6995 11.4766 15.5392 11.4766H11.0174V8.62119C11.0174 7.25685 11.3448 6.55325 13.1302 6.55325H15.7205C15.8807 6.55325 16.0344 6.48959 16.1477 6.37628C16.261 6.26297 16.3247 6.10928 16.3247 5.94904V1.41943C16.3255 1.33976 16.3105 1.26072 16.2806 1.18686C16.2507 1.11301 16.2065 1.0458 16.1505 0.989096C16.0945 0.932395 16.0279 0.887325 15.9544 0.856481C15.8809 0.825637 15.8021 0.809627 15.7224 0.809374Z"/>
</mask>
<path d="M11.875 0.809374L11.7708 2.65107L11.8228 2.65402H11.875V0.809374ZM4.76289 8.10859H6.60753V8.03246L6.60126 7.95658L4.76289 8.10859ZM4.76289 11.4727V13.3173H6.60753V11.4727H4.76289ZM4.76289 17.5537H6.60753V15.7091H4.76289V17.5537ZM4.76289 29.8562H6.60753H4.76289ZM10.4132 30.4604V28.6157V30.4604ZM11.0174 29.8562H9.17277H11.0174ZM11.0174 17.5576V15.713H9.17277V17.5576H11.0174ZM15.5392 11.4766V9.63192V11.4766ZM11.0174 11.4766H9.17277V13.3212H11.0174V11.4766ZM15.7205 6.55325V4.7086V6.55325ZM16.3247 1.41943L14.4801 1.40157L14.48 1.4105V1.41943H16.3247ZM15.7224 -1.03527H11.875V2.65402H15.7224V-1.03527ZM11.9792 -1.03232C10.7514 -1.10181 9.52294 -0.907098 8.37678 -0.461326L9.71406 2.97706C10.3684 2.72256 11.0698 2.6114 11.7708 2.65107L11.9792 -1.03232ZM8.37678 -0.461326C7.23062 -0.0155536 6.19342 0.670904 5.33519 1.55172L7.97755 4.12635C8.46754 3.62348 9.05969 3.23156 9.71406 2.97706L8.37678 -0.461326ZM5.33519 1.55172C4.47695 2.43253 3.81765 3.4872 3.40179 4.64455L6.87374 5.89211C7.11117 5.23135 7.48757 4.62922 7.97755 4.12635L5.33519 1.55172ZM3.40179 4.64455C2.98593 5.8019 2.82317 7.03499 2.92452 8.2606L6.60126 7.95658C6.5434 7.25686 6.63632 6.55286 6.87374 5.89211L3.40179 4.64455ZM2.91824 8.10859V11.4727H6.60753V8.10859H2.91824ZM4.76289 9.62802H0.895955V13.3173H4.76289V9.62802ZM0.895955 9.62802C0.246479 9.62802 -0.376394 9.88602 -0.835642 10.3453L1.77308 12.954C1.54045 13.1866 1.22494 13.3173 0.895955 13.3173V9.62802ZM-0.835642 10.3453C-1.29489 10.8045 -1.5529 11.4274 -1.5529 12.0769H2.13639C2.13639 12.4059 2.0057 12.7214 1.77308 12.954L-0.835642 10.3453ZM-1.5529 12.0769V16.9495H2.13639V12.0769H-1.5529ZM-1.5529 16.9495C-1.5529 17.599 -1.29488 18.2219 -0.835642 18.6811L1.77308 16.0724C2.0057 16.305 2.13639 16.6205 2.13639 16.9495H-1.5529ZM-0.835642 18.6811C-0.376394 19.1404 0.246479 19.3984 0.895955 19.3984V15.7091C1.22494 15.7091 1.54045 15.8398 1.77308 16.0724L-0.835642 18.6811ZM0.895955 19.3984H4.76289V15.7091H0.895955V19.3984ZM2.91824 17.5537V29.8562H6.60753V17.5537H2.91824ZM2.91824 29.8562C2.91824 30.1778 2.98159 30.4962 3.10465 30.7933L6.51311 29.3815C6.57544 29.532 6.60753 29.6933 6.60753 29.8562H2.91824ZM3.10465 30.7933C3.22772 31.0904 3.40811 31.3604 3.6355 31.5878L6.24422 28.979C6.35939 29.0942 6.45076 29.231 6.51311 29.3815L3.10465 30.7933ZM3.6355 31.5878C3.86288 31.8152 4.13284 31.9955 4.42996 32.1186L5.84179 28.7102C5.9923 28.7725 6.12904 28.8639 6.24422 28.979L3.6355 31.5878ZM4.42996 32.1186C4.72705 32.2417 5.04549 32.305 5.36709 32.305V28.6157C5.53 28.6157 5.6913 28.6478 5.84179 28.7102L4.42996 32.1186ZM5.36709 32.305H10.4132V28.6157H5.36709V32.305ZM10.4132 32.305C10.7348 32.305 11.0532 32.2417 11.3503 32.1186L9.93851 28.7102C10.089 28.6478 10.2503 28.6157 10.4132 28.6157V32.305ZM11.3503 32.1186C11.6475 31.9955 11.9174 31.8152 12.1448 31.5878L9.53608 28.979C9.65126 28.8639 9.788 28.7725 9.93851 28.7102L11.3503 32.1186ZM12.1448 31.5878C12.3722 31.3604 12.5526 31.0904 12.6756 30.7933L9.26719 29.3815C9.32953 29.231 9.4209 29.0942 9.53608 28.979L12.1448 31.5878ZM12.6756 30.7933C12.7987 30.4962 12.8621 30.1778 12.8621 29.8562H9.17277C9.17277 29.6933 9.20485 29.532 9.26719 29.3815L12.6756 30.7933ZM12.8621 29.8562V17.5576H9.17277V29.8562H12.8621ZM11.0174 19.4023H15.5392V15.713H11.0174V19.4023ZM15.5392 19.4023C16.1887 19.4023 16.8116 19.1443 17.2708 18.685L14.6621 16.0763C14.8947 15.8437 15.2102 15.713 15.5392 15.713V19.4023ZM17.2708 18.685C17.7301 18.2257 17.9881 17.6029 17.9881 16.9534H14.2988C14.2988 16.6244 14.4295 16.3089 14.6621 16.0763L17.2708 18.685ZM17.9881 16.9534V12.0808H14.2988V16.9534H17.9881ZM17.9881 12.0808C17.9881 11.4313 17.7301 10.8084 17.2708 10.3492L14.6621 12.9579C14.4295 12.7253 14.2988 12.4097 14.2988 12.0808H17.9881ZM17.2708 10.3492C16.8116 9.88992 16.1887 9.63192 15.5392 9.63192V13.3212C15.2102 13.3212 14.8947 13.1905 14.6621 12.9579L17.2708 10.3492ZM15.5392 9.63192H11.0174V13.3212H15.5392V9.63192ZM12.8621 11.4766V8.62119H9.17277V11.4766H12.8621ZM12.8621 8.62119C12.8621 8.4856 12.8662 8.37854 12.8733 8.29328C12.8804 8.20775 12.8894 8.15683 12.8952 8.13129C12.9061 8.0835 12.8934 8.17576 12.7888 8.29457C12.7389 8.35124 12.686 8.39301 12.6413 8.42043C12.5989 8.44639 12.5774 8.45129 12.5927 8.44654C12.6094 8.44137 12.6579 8.42845 12.7499 8.41725C12.8416 8.40608 12.9659 8.39789 13.1302 8.39789V4.7086C12.0874 4.7086 10.8654 4.89623 10.0198 5.85662C9.22355 6.76099 9.17277 7.91628 9.17277 8.62119H12.8621ZM13.1302 8.39789H15.7205V4.7086H13.1302V8.39789ZM15.7205 8.39789C16.37 8.39789 16.9928 8.13989 17.4521 7.68064L14.8434 5.07192C15.076 4.83929 15.3915 4.7086 15.7205 4.7086V8.39789ZM17.4521 7.68064C17.9113 7.22137 18.1693 6.59849 18.1693 5.94904H14.48C14.48 5.62007 14.6107 5.30456 14.8434 5.07192L17.4521 7.68064ZM18.1693 5.94904V1.41943H14.48V5.94904H18.1693ZM18.1692 1.43729C18.1724 1.11437 18.1116 0.794032 17.9904 0.494702L14.5707 1.87902C14.5093 1.7274 14.4785 1.56514 14.4801 1.40157L18.1692 1.43729ZM17.9904 0.494702C17.8693 0.195391 17.6901 -0.0770248 17.4632 -0.306849L14.8378 2.28504C14.7228 2.16862 14.6321 2.03063 14.5707 1.87902L17.9904 0.494702ZM17.4632 -0.306849C17.2363 -0.536652 16.9663 -0.719322 16.6685 -0.844336L15.2403 2.5573C15.0895 2.49397 14.9527 2.40144 14.8378 2.28504L17.4632 -0.306849ZM16.6685 -0.844336C16.3708 -0.96935 16.0512 -1.03423 15.7283 -1.03526L15.7166 2.65401C15.553 2.65349 15.3911 2.62062 15.2403 2.5573L16.6685 -0.844336Z" fill="#151515" mask="url(#path-1-inside-1)"/>
</svg>
