<svg width="25" height="25" viewBox="0 0 25 25" fill="none" xmlns="http://www.w3.org/2000/svg">
<path fill-rule="evenodd" clip-rule="evenodd" d="M20.9435 4.08822C18.6544 1.79647 15.6101 0.533815 12.3669 0.532471C5.68404 0.532471 0.245135 5.97123 0.242447 12.6559C0.241551 14.7928 0.799778 16.8788 1.86083 18.7174L0.140747 25.0001L6.56813 23.3141C8.33914 24.2801 10.333 24.7892 12.362 24.7898H12.3671C19.0492 24.7898 24.4888 19.3506 24.4913 12.6656C24.4926 9.42588 23.2327 6.37982 20.9435 4.08822ZM12.3669 22.7422H12.3628C10.5546 22.7415 8.78118 22.2556 7.23373 21.3376L6.86591 21.1191L3.0518 22.1197L4.06984 18.401L3.83016 18.0197C2.82137 16.4152 2.28868 14.5607 2.28958 12.6567C2.29167 7.10053 6.81245 2.5802 12.371 2.5802C15.0627 2.5811 17.5929 3.63065 19.4955 5.53546C21.398 7.44027 22.4452 9.97216 22.4443 12.6649C22.4419 18.2215 17.9214 22.7422 12.3669 22.7422ZM17.8946 15.1948C17.5917 15.0431 16.1022 14.3104 15.8244 14.2092C15.547 14.1081 15.3448 14.0578 15.143 14.3609C14.9409 14.6641 14.3605 15.3466 14.1836 15.5486C14.0068 15.7508 13.8303 15.7762 13.5273 15.6245C13.2243 15.4729 12.2482 15.1529 11.091 14.1208C10.1905 13.3175 9.58253 12.3254 9.40571 12.0223C9.22919 11.7188 9.40422 11.5707 9.53862 11.404C9.86657 10.9968 10.195 10.5698 10.2959 10.3678C10.397 10.1656 10.3464 9.98859 10.2705 9.83701C10.195 9.68543 9.5891 8.19428 9.33672 7.58752C9.09061 6.99704 8.84106 7.07678 8.65499 7.06752C8.47847 7.05871 8.27641 7.05692 8.07436 7.05692C7.87245 7.05692 7.54421 7.13264 7.26644 7.43609C6.98882 7.7394 6.20628 8.4722 6.20628 9.96335C6.20628 11.4545 7.29182 12.895 7.44325 13.0972C7.59468 13.2994 9.57954 16.3594 12.6184 17.6715C13.3412 17.9839 13.9054 18.1701 14.3455 18.3097C15.0713 18.5403 15.7315 18.5078 16.2536 18.4298C16.8358 18.3427 18.0458 17.6968 18.2985 16.9893C18.5509 16.2816 18.5509 15.6751 18.475 15.5486C18.3995 15.4223 18.1974 15.3466 17.8946 15.1948Z" fill="#151515"/>
</svg>
