<svg width="284" height="42" viewBox="0 0 284 42" fill="none" xmlns="http://www.w3.org/2000/svg">
<path d="M10.3975 41.0001L0.582642 12.6052H5.56881L12.497 34.7018L19.0577 12.6052H24.0964L30.4472 34.7018L37.4278 12.6052H42.5189L32.5991 41.0001H27.9803L21.577 19.3234L15.0163 41.0001H10.3975Z" fill="#151515"/>
<path d="M50.5144 41.0001H46.0006V12.6052H50.5144V41.0001ZM45.6857 3.21024C45.6857 2.47543 45.9307 1.8631 46.4205 1.37323C46.9454 0.848367 47.5577 0.585938 48.2575 0.585938C48.9923 0.585938 49.6047 0.848367 50.0946 1.37323C50.6194 1.8631 50.8818 2.47543 50.8818 3.21024C50.8818 3.91005 50.6194 4.52239 50.0946 5.04724C49.6047 5.53712 48.9923 5.78205 48.2575 5.78205C47.5577 5.78205 46.9454 5.53712 46.4205 5.04724C45.9307 4.52239 45.6857 3.91005 45.6857 3.21024Z" fill="#151515"/>
<path d="M73.3048 41.0001H57.9789C57.2091 41.0001 56.5443 40.7727 55.9845 40.3178C55.4596 39.8629 55.1972 39.1806 55.1972 38.2709C55.1972 37.711 55.3021 37.0812 55.5121 36.3814C55.757 35.6816 56.1769 34.9118 56.7718 34.072L68.5811 16.7516H56.9817L55.1972 12.6052H69.5258C70.5406 12.6052 71.3454 12.8502 71.9402 13.34C72.57 13.7949 72.8849 14.4772 72.8849 15.387C72.8849 15.8769 72.78 16.4367 72.57 17.0665C72.3951 17.6614 72.0627 18.3262 71.5728 19.061L59.8159 37.0112H72.0977L73.3048 41.0001Z" fill="#151515"/>
<path d="M94.781 41.0001H79.4551C78.6853 41.0001 78.0205 40.7727 77.4607 40.3178C76.9358 39.8629 76.6734 39.1806 76.6734 38.2709C76.6734 37.711 76.7783 37.0812 76.9883 36.3814C77.2332 35.6816 77.6531 34.9118 78.248 34.072L90.0573 16.7516H78.4579L76.6734 12.6052H91.0021C92.0168 12.6052 92.8216 12.8502 93.4164 13.34C94.0462 13.7949 94.3612 14.4772 94.3612 15.387C94.3612 15.8769 94.2562 16.4367 94.0462 17.0665C93.8713 17.6614 93.5389 18.3262 93.049 19.061L81.2921 37.0112H93.5739L94.781 41.0001Z" fill="#151515"/>
<path d="M102.768 27.9311V29.3483C102.768 30.5729 102.803 31.6926 102.873 32.7074C102.943 33.7221 103.153 34.6143 103.503 35.3841C103.888 36.1539 104.483 36.7488 105.288 37.1687C106.092 37.5886 107.247 37.7985 108.752 37.7985C111.026 37.7985 112.583 37.3436 113.423 36.4339C114.263 35.4891 114.683 34.177 114.683 32.4974C114.893 32.4974 115.19 32.4974 115.575 32.4974C115.96 32.4974 116.362 32.4974 116.782 32.4974C117.202 32.4624 117.622 32.4449 118.042 32.4449C118.462 32.4449 118.829 32.4449 119.144 32.4449C119.144 33.8096 118.987 35.0517 118.672 36.1714C118.357 37.2561 117.797 38.2009 116.992 39.0057C116.222 39.7755 115.155 40.3878 113.79 40.8427C112.461 41.2626 110.781 41.4725 108.752 41.4725C106.372 41.4725 104.483 41.1751 103.083 40.5803C101.719 39.9504 100.686 39.1106 99.9866 38.0609C99.2868 36.9762 98.8319 35.6991 98.6219 34.2295C98.412 32.7598 98.307 31.1503 98.307 29.4007V24.2571C98.307 22.5076 98.3945 20.898 98.5695 19.4284C98.7794 17.9238 99.2343 16.6292 99.9341 15.5444C100.669 14.4597 101.719 13.62 103.083 13.0251C104.483 12.3953 106.372 12.0804 108.752 12.0804C110.956 12.0804 112.741 12.3778 114.105 12.9726C115.47 13.5675 116.52 14.4072 117.254 15.492C118.024 16.5417 118.532 17.8363 118.777 19.3759C119.056 20.8805 119.196 22.5601 119.196 24.4146V27.9311H102.768ZM108.752 15.7544C107.247 15.7544 106.092 15.9818 105.288 16.4367C104.483 16.8566 103.888 17.4339 103.503 18.1687C103.153 18.9035 102.943 19.7608 102.873 20.7406C102.803 21.7203 102.768 22.77 102.768 23.8897V24.4146H114.735C114.735 22.945 114.665 21.6678 114.525 20.5831C114.42 19.4984 114.158 18.6061 113.738 17.9063C113.353 17.1715 112.758 16.6292 111.953 16.2792C111.184 15.9293 110.116 15.7544 108.752 15.7544Z" fill="#151515"/>
<path d="M123.226 22.1052C123.226 20.2857 123.383 18.7811 123.698 17.5914C124.013 16.3667 124.608 15.387 125.483 14.6522C126.358 13.9174 127.53 13.3925 128.999 13.0776C130.504 12.7627 132.446 12.6052 134.825 12.6052H139.864L137.975 16.3317H135.14C133.636 16.3317 132.394 16.4192 131.414 16.5942C130.469 16.7341 129.717 17.014 129.157 17.4339C128.597 17.8538 128.212 18.4487 128.002 19.2185C127.792 19.9533 127.687 20.9155 127.687 22.1052V41.0001H123.226V22.1052Z" fill="#151515"/>
<path d="M157.523 41.0001V19.2222H155.91V41.0001H157.523ZM157.523 15.1273V10.7634H155.91V15.1273H157.523Z" fill="#151515"/>
<path d="M162.693 41.0001H164.306V28.1154C164.362 25.3303 165.134 23.2897 166.623 21.9936C168.043 20.7389 169.567 20.1116 171.193 20.1116C171.593 20.1116 172.076 20.1598 172.641 20.2563C173.179 20.3666 173.73 20.6286 174.296 21.0422C174.861 21.4145 175.337 21.9936 175.723 22.7795C176.123 23.6068 176.323 24.7098 176.323 26.0886V41.0001H177.936V28.1154C177.936 25.4957 178.584 23.5103 179.88 22.1591C181.148 20.7941 182.775 20.1116 184.761 20.1116C185.119 20.1116 185.581 20.1598 186.146 20.2563C186.712 20.3666 187.277 20.6148 187.842 21.0009C188.463 21.3732 188.973 21.9522 189.373 22.7381C189.773 23.593 189.973 24.7098 189.973 26.0886V41.0001H191.565V26.13C191.537 23.5654 190.903 21.6765 189.662 20.4632C188.421 19.305 186.788 18.7259 184.761 18.7259C181.341 18.7535 179.039 20.2908 177.853 23.3379H177.77C177.563 22.1522 176.943 21.0905 175.909 20.1529C175.371 19.7117 174.716 19.3601 173.944 19.0982C173.158 18.85 172.241 18.7259 171.193 18.7259C169.567 18.7535 168.112 19.2291 166.83 20.1529C165.561 21.0629 164.748 22.2349 164.389 23.6688H164.306V19.2222H162.693V41.0001Z" fill="#151515"/>
<path d="M195.35 30.1215C195.35 33.279 196.218 35.9469 197.956 38.1254C199.679 40.3176 202.14 41.4482 205.339 41.5172C208.579 41.4482 211.047 40.3176 212.743 38.1254C214.467 35.9469 215.328 33.279 215.328 30.1215C215.328 26.9228 214.467 24.241 212.743 22.0763C211.047 19.8979 208.579 18.781 205.339 18.7259C202.14 18.781 199.679 19.8979 197.956 22.0763C196.218 24.241 195.35 26.9228 195.35 30.1215ZM196.942 30.1215C196.942 27.4053 197.68 25.0752 199.155 23.1311C200.562 21.187 202.623 20.1805 205.339 20.1116C208.11 20.1805 210.199 21.187 211.606 23.1311C213.012 25.0752 213.715 27.4053 213.715 30.1215C213.715 32.7964 213.012 35.0989 211.606 37.0292C210.199 39.0285 208.11 40.0557 205.339 40.1108C202.623 40.0557 200.562 39.0285 199.155 37.0292C197.68 35.0989 196.942 32.7964 196.942 30.1215ZM203.188 15.9752H204.76L210.427 10.0395H208.276L203.188 15.9752Z" fill="#151515"/>
<path d="M235.617 19.2222H233.839L226.476 39.1388H226.393L218.513 19.2222H216.652L225.421 41.0001H227.407L235.617 19.2222Z" fill="#151515"/>
<path d="M256.133 30.3284C256.313 27.0744 255.623 24.3513 254.065 22.1591C252.48 19.9254 249.977 18.781 246.558 18.7259C243.318 18.781 240.891 19.9806 239.278 22.3245C237.665 24.6409 236.893 27.364 236.961 30.4938C236.934 33.5685 237.734 36.1537 239.361 38.2495C240.974 40.359 243.373 41.4482 246.558 41.5172C251.866 41.4482 255.003 38.8217 255.968 33.6374H254.355C253.431 37.8979 250.832 40.0557 246.558 40.1108C243.883 40.0833 241.884 39.0836 240.56 37.112C239.195 35.2093 238.526 32.948 238.554 30.3284H256.133ZM238.554 28.922C238.761 26.6746 239.54 24.6616 240.891 22.8829C242.242 21.1043 244.131 20.1805 246.558 20.1116C249.081 20.1805 251.032 21.0698 252.411 22.7795C253.762 24.503 254.465 26.5505 254.52 28.922H238.554Z" fill="#151515"/>
<path d="M261.924 41.0001V19.2222H260.311V41.0001H261.924ZM261.924 15.1273V10.7634H260.311V15.1273H261.924Z" fill="#151515"/>
<path d="M266.205 33.7615C266.343 36.2985 267.219 38.215 268.832 39.5111C270.431 40.8485 272.493 41.5172 275.016 41.5172C275.995 41.5172 276.994 41.4138 278.015 41.207C279.007 41.0139 279.911 40.6899 280.724 40.2349C281.606 39.7523 282.296 39.1181 282.792 38.3322C283.275 37.5739 283.516 36.6294 283.516 35.4988C283.516 34.3682 283.323 33.4237 282.937 32.6654C282.537 31.9209 281.999 31.328 281.324 30.8868C279.876 30.0043 278.042 29.4115 275.822 29.1081C275.395 28.984 274.968 28.8668 274.54 28.7565C274.113 28.6738 273.678 28.5911 273.237 28.5084C272.81 28.3705 272.41 28.2395 272.038 28.1154C271.624 28.0051 271.245 27.8672 270.9 27.7018C270.197 27.3571 269.646 26.9159 269.246 26.3781C268.791 25.8542 268.563 25.1648 268.563 24.31C268.563 23.4965 268.763 22.8209 269.163 22.2831C269.535 21.773 270.018 21.3456 270.611 21.0009C271.879 20.408 273.286 20.1116 274.83 20.1116C276.705 20.1116 278.249 20.539 279.462 21.3938C280.648 22.2625 281.255 23.6895 281.282 25.675H282.896C282.868 23.1794 282.117 21.3869 280.641 20.2977C279.152 19.2498 277.215 18.7259 274.83 18.7259C272.913 18.6983 271.155 19.0775 269.556 19.8634C268.784 20.2908 268.17 20.8561 267.715 21.5593C267.219 22.29 266.971 23.2069 266.971 24.31C266.971 25.413 267.191 26.3161 267.633 27.0193C268.032 27.7225 268.598 28.3015 269.328 28.7565C270.073 29.184 270.88 29.5218 271.748 29.7699C272.617 30.0595 273.52 30.3008 274.457 30.4938C275.395 30.6593 276.312 30.8454 277.208 31.0522C278.118 31.2452 278.911 31.5141 279.587 31.8588C280.317 32.1621 280.896 32.6102 281.324 33.2031C281.71 33.796 281.903 34.5612 281.903 35.4988C281.903 36.395 281.682 37.1395 281.241 37.7324C280.814 38.3529 280.248 38.8355 279.545 39.1801C278.87 39.5248 278.132 39.7523 277.332 39.8626C276.519 40.0281 275.747 40.1108 275.016 40.1108C273.03 40.1108 271.376 39.5455 270.052 38.4149C268.729 37.3119 267.984 35.7608 267.819 33.7615H266.205Z" fill="#151515"/>
</svg>
