<svg width="26" height="26" viewBox="0 0 26 26" fill="none" xmlns="http://www.w3.org/2000/svg">
<g clip-path="url(#clip0)">
<path d="M15.6974 25.1295C15.6974 25.533 15.3686 25.8611 14.9652 25.8611L10.8965 25.8611C10.493 25.8611 10.1647 25.533 10.1647 25.1295L10.1647 23.0813L15.6974 23.0813L15.6974 25.1295Z" fill="#055EFF"/>
<path d="M25.0821 13.7188L22.9069 13.7188C22.4765 13.7188 22.1279 13.3701 22.1279 12.9398C22.1279 12.5097 22.4765 12.1608 22.9069 12.1608L25.0821 12.1608C25.5123 12.1608 25.8611 12.5097 25.8611 12.9398C25.8611 13.3701 25.5123 13.7188 25.0821 13.7188Z" fill="#055EFF"/>
<path d="M2.95424 13.7188L0.778958 13.7188C0.348834 13.7188 3.04788e-08 13.3701 6.80987e-08 12.9398C1.05701e-07 12.5097 0.348835 12.1608 0.778958 12.1608L2.95424 12.1608C3.38456 12.1608 3.7332 12.5097 3.7332 12.9398C3.7332 13.3701 3.38456 13.7188 2.95424 13.7188Z" fill="#055EFF"/>
<path d="M20.5357 6.43646C20.2314 6.7405 19.7384 6.7405 19.4341 6.43645C19.1299 6.13221 19.1299 5.63895 19.4341 5.33471L20.9723 3.79672C21.2763 3.49247 21.7696 3.49247 22.0739 3.79672C22.3781 4.10076 22.3781 4.59402 22.0739 4.89827L20.5357 6.43646Z" fill="#055EFF"/>
<path d="M12.9306 3.74243C12.5004 3.74243 12.1516 3.39379 12.1516 2.96347L12.1516 0.788187C12.1516 0.358062 12.5004 0.00922754 12.9306 0.00922758C13.3607 0.00922762 13.7095 0.358062 13.7095 0.788187L13.7095 2.96347C13.7095 3.39379 13.3607 3.74243 12.9306 3.74243Z" fill="#055EFF"/>
<path d="M5.32545 6.43646L3.78726 4.89827C3.48302 4.59403 3.48302 4.10076 3.78727 3.79672C4.09151 3.49247 4.58477 3.49247 4.88882 3.79672L6.427 5.33471C6.73125 5.63895 6.73125 6.13221 6.427 6.43646C6.12276 6.7405 5.62969 6.7405 5.32545 6.43646Z" fill="#055EFF"/>
<path d="M16.8721 18.5255C16.1362 19.0578 15.6973 19.9259 15.6973 20.8487L15.6973 21.5233L13.7095 21.5233L13.7095 16.4836C15.0514 16.1367 16.0458 14.9152 16.0458 13.4664L16.0458 11.152C16.0458 10.7329 15.7238 10.3721 15.3051 10.3519C14.8578 10.3306 14.4879 10.6869 14.4879 11.1301C14.4879 12.4512 14.4881 12.896 14.4883 13.4762C14.4885 14.3367 13.7912 15.0344 12.9307 15.0344C12.0705 15.0344 11.3732 14.3371 11.3732 13.4768L11.3732 11.1301C11.3732 10.6869 11.0035 10.3306 10.556 10.3521C10.1373 10.3721 9.8153 10.7329 9.8153 11.1522L9.8153 13.4664C9.8153 14.9152 10.8097 16.1367 12.1516 16.4836L12.1516 21.5233L10.1647 21.5233L10.1647 20.8487C10.1647 19.9265 9.72494 19.0578 8.9886 18.5249C7.24067 17.2604 6.19733 15.22 6.19733 13.0666C6.19733 9.37981 9.21688 6.33283 12.9321 6.33283C16.6426 6.33283 19.6415 9.2928 19.6638 13.025C19.6768 15.1958 18.633 17.2517 16.8721 18.5255Z" fill="#055EFF"/>
</g>
<defs>
<clipPath id="clip0">
<rect width="25.8611" height="25.8611" transform="matrix(1 8.74228e-08 8.74228e-08 -1 0 25.8611)" fill="white"/>
</clipPath>
</defs>
</svg>
