<svg width="13" height="24" viewBox="0 0 13 24" fill="none" xmlns="http://www.w3.org/2000/svg">
<path d="M12.0508 0.914049H9.06317C8.31427 0.871666 7.56499 0.990428 6.8659 1.26232C6.16682 1.53421 5.53419 1.95291 5.01072 2.49015C4.48725 3.02739 4.08512 3.67068 3.83147 4.37659C3.57782 5.0825 3.47855 5.83461 3.54036 6.58216V9.19448H0.537548C0.413111 9.19448 0.293773 9.24391 0.205783 9.3319C0.117792 9.41989 0.0683594 9.53923 0.0683594 9.66367V13.4475C0.0683594 13.5719 0.117792 13.6912 0.205783 13.7792C0.293773 13.8672 0.413111 13.9166 0.537548 13.9166H3.54036V23.4699C3.54036 23.5316 3.5525 23.5926 3.57608 23.6495C3.59965 23.7064 3.63422 23.7581 3.67778 23.8017C3.72135 23.8453 3.77307 23.8798 3.83 23.9034C3.88692 23.927 3.94793 23.9391 4.00955 23.9391H7.92804C7.98965 23.9391 8.05066 23.927 8.10759 23.9034C8.16451 23.8798 8.21623 23.8453 8.2598 23.8017C8.30337 23.7581 8.33793 23.7064 8.36151 23.6495C8.38509 23.5926 8.39723 23.5316 8.39723 23.4699V13.9197H11.9086C12.033 13.9197 12.1524 13.8702 12.2403 13.7822C12.3283 13.6943 12.3778 13.5749 12.3778 13.4505V9.6667C12.3778 9.54226 12.3283 9.42292 12.2403 9.33493C12.1524 9.24694 12.033 9.19751 11.9086 9.19751H8.39723V6.98021C8.39723 5.92075 8.65149 5.37437 10.0379 5.37437H12.0493C12.1738 5.37437 12.2931 5.32494 12.3811 5.23695C12.4691 5.14896 12.5185 5.02962 12.5185 4.90518V1.38778C12.5191 1.32591 12.5075 1.26453 12.4843 1.20718C12.461 1.14983 12.4267 1.09764 12.3832 1.05361C12.3398 1.00958 12.288 0.974581 12.231 0.950629C12.1739 0.926678 12.1127 0.914246 12.0508 0.914049Z" fill="#151515"/>
</svg>
