<svg width="59" height="111" viewBox="0 0 59 111" fill="none" xmlns="http://www.w3.org/2000/svg">
<path d="M34.3065 26.0231C37.5652 22.7643 37.5652 17.4808 34.3065 14.2221C31.0477 10.9633 25.7642 10.9633 22.5055 14.2221C19.2467 17.4808 19.2467 22.7643 22.5055 26.0231C25.7642 29.2818 31.0477 29.2818 34.3065 26.0231Z" fill="#E67E33"/>
<path d="M34.0641 14.363C33.9141 14.3633 33.7642 14.3528 33.6157 14.3315L33.6613 13.9812C35.5845 14.2439 38.5832 12.5799 40.2017 10.3379C40.4084 10.0541 40.6011 9.76685 40.7972 9.47959C42.1985 7.40221 43.6663 5.25476 48.5042 5.25476C53.8431 5.25476 57.8332 2.13694 58.5513 0L58.8841 0.108598C58.1309 2.36114 54.0042 5.61909 48.5042 5.61909C43.8625 5.61909 42.5208 7.59488 41.0985 9.68978C40.9023 9.98055 40.7026 10.2713 40.496 10.5551C38.923 12.713 36.096 14.363 34.0641 14.363Z" fill="#E67E33"/>
<path d="M36.8001 20.4586C36.82 20.4468 36.8374 20.431 36.8511 20.4123C36.8647 20.3936 36.8745 20.3723 36.8797 20.3497C36.885 20.3271 36.8856 20.3037 36.8815 20.2809C36.8775 20.258 36.8688 20.2363 36.8561 20.2169C36.831 20.1779 36.7914 20.1505 36.7461 20.1406C36.7008 20.1308 36.6534 20.1393 36.6144 20.1643C36.0816 20.5002 35.5308 20.8066 34.9644 21.0822C34.9644 20.9911 34.9644 20.8965 34.9399 20.8019C35.5634 20.5006 36.1835 20.1713 36.7896 19.814C36.8287 19.79 36.8569 19.7516 36.8681 19.7071C36.8792 19.6625 36.8724 19.6154 36.8491 19.5758C36.8379 19.5557 36.8227 19.5382 36.8045 19.5241C36.7864 19.51 36.7656 19.4997 36.7433 19.4939C36.7211 19.488 36.698 19.4866 36.6752 19.4899C36.6525 19.4931 36.6306 19.5009 36.6109 19.5127C36.0504 19.8455 35.4794 20.1433 34.9048 20.4236C34.8347 19.8157 34.7306 19.2122 34.5931 18.6159C35.0739 17.8427 35.5034 17.0388 35.8787 16.2092C35.8886 16.1884 35.8942 16.1657 35.8951 16.1427C35.896 16.1196 35.8923 16.0966 35.8841 16.075C35.8759 16.0534 35.8635 16.0337 35.8475 16.0171C35.8315 16.0004 35.8124 15.9871 35.7912 15.978C35.7489 15.9591 35.7008 15.9576 35.6575 15.9741C35.6141 15.9905 35.5791 16.0234 35.5599 16.0656C35.2397 16.7769 34.8771 17.4682 34.474 18.136C34.4074 17.8767 34.3303 17.6175 34.2462 17.3548C34.6417 16.6837 34.9928 15.9874 35.2972 15.2704C35.3148 15.2271 35.3147 15.1787 35.297 15.1355C35.2794 15.0923 35.2455 15.0577 35.2026 15.0392C35.1599 15.0217 35.1119 15.0219 35.0693 15.0396C35.0267 15.0573 34.9927 15.0912 34.9749 15.1338C34.7169 15.7419 34.4245 16.3349 34.0991 16.9099C33.7646 15.9477 33.3363 15.0208 32.8205 14.1424C33.3634 13.9076 33.6822 13.792 33.6998 13.792C33.7213 13.7843 33.7411 13.7722 33.758 13.7567C33.7749 13.7411 33.7884 13.7223 33.7979 13.7014C33.8074 13.6805 33.8126 13.6579 33.8132 13.635C33.8137 13.612 33.8097 13.5892 33.8013 13.5678C33.7855 13.5242 33.753 13.4886 33.711 13.4689C33.669 13.4492 33.6208 13.447 33.5771 13.4627C33.5771 13.4627 33.2268 13.5994 32.6348 13.8516C32.5624 13.7278 32.4853 13.611 32.4036 13.5013C32.7539 13.3261 32.9536 13.235 32.9641 13.228C32.9853 13.2189 33.0045 13.2057 33.0204 13.189C33.0364 13.1723 33.0489 13.1526 33.057 13.131C33.0652 13.1095 33.0689 13.0865 33.068 13.0634C33.0671 13.0403 33.0615 13.0177 33.0517 12.9968C33.0325 12.9546 32.9975 12.9217 32.9542 12.9053C32.9108 12.8889 32.8627 12.8903 32.8205 12.9092C32.8205 12.9092 32.5857 13.0178 32.2039 13.2105C31.9622 12.8602 31.7029 12.5099 31.4227 12.1806C31.4082 12.1628 31.3902 12.1482 31.3699 12.1375C31.3496 12.1268 31.3274 12.1202 31.3045 12.1183C31.2817 12.1163 31.2586 12.119 31.2368 12.1261C31.215 12.1331 31.1948 12.1445 31.1775 12.1596C31.1588 12.1751 31.1435 12.1943 31.1327 12.216C31.1218 12.2377 31.1156 12.2614 31.1144 12.2857C31.0373 12.1876 30.9568 12.093 30.8762 11.9984C30.8617 11.9807 30.8437 11.966 30.8234 11.9553C30.8031 11.9446 30.7809 11.9381 30.758 11.9361C30.7352 11.9342 30.7121 11.9368 30.6903 11.9439C30.6685 11.951 30.6483 11.9624 30.631 11.9774C30.5957 12.0079 30.5738 12.051 30.5698 12.0975C30.5659 12.144 30.5803 12.1901 30.61 12.2261C30.9671 12.638 31.2993 13.0708 31.6049 13.5223L31.4332 13.6134C31.0127 12.9706 30.5443 12.3605 30.0319 11.7882C30.0156 11.7718 29.9963 11.7588 29.9749 11.7499C29.9536 11.741 29.9307 11.7364 29.9076 11.7364C29.8844 11.7364 29.8616 11.741 29.8402 11.7499C29.8189 11.7588 29.7995 11.7718 29.7832 11.7882C29.7605 11.8072 29.7445 11.833 29.7377 11.8618C29.7135 11.8293 29.6912 11.7954 29.6711 11.7602C29.6584 11.7407 29.6419 11.7239 29.6226 11.7109C29.6033 11.6978 29.5816 11.6888 29.5588 11.6842C29.536 11.6796 29.5124 11.6797 29.4896 11.6843C29.4668 11.6889 29.4451 11.6981 29.4259 11.7112C29.3879 11.7362 29.3615 11.7752 29.3523 11.8198L29.3033 11.7287C29.2804 11.6884 29.2428 11.6586 29.1983 11.6455C29.1539 11.6324 29.1061 11.6371 29.065 11.6586C29.0247 11.6814 28.995 11.7193 28.9825 11.764C28.9701 11.8086 28.9758 11.8564 28.9985 11.8968C29.4504 12.7131 29.8638 13.5118 30.2386 14.3035L30.144 14.3596C29.7508 13.4318 29.2821 12.5378 28.7428 11.6866C28.731 11.666 28.7151 11.6479 28.6961 11.6336C28.6771 11.6193 28.6554 11.609 28.6323 11.6033C28.6092 11.5976 28.5852 11.5967 28.5618 11.6007C28.5383 11.6046 28.5159 11.6132 28.4959 11.6261C28.4759 11.6389 28.4587 11.6557 28.4454 11.6755C28.4321 11.6952 28.423 11.7174 28.4185 11.7408C28.4141 11.7641 28.4145 11.7882 28.4196 11.8114C28.4248 11.8346 28.4346 11.8565 28.4485 11.8758C28.984 12.7239 29.4469 13.6157 29.8322 14.5417L29.5975 14.6819C29.1633 13.6565 28.6625 12.6606 28.0982 11.7006C28.0869 11.6806 28.0718 11.663 28.0536 11.649C28.0354 11.6349 28.0146 11.6246 27.9924 11.6187C27.9702 11.6128 27.947 11.6115 27.9243 11.6147C27.9015 11.618 27.8797 11.6257 27.86 11.6376C27.82 11.6617 27.7909 11.7004 27.7792 11.7456C27.7674 11.7908 27.7737 11.8388 27.7969 11.8793C28.364 12.8402 28.865 13.8385 29.2963 14.8675C28.9705 15.0707 28.6272 15.2879 28.2733 15.5226C27.7408 14.2798 27.0934 13.0894 26.3396 11.9669C26.3269 11.9478 26.3105 11.9314 26.2914 11.9187C26.2723 11.9061 26.2509 11.8974 26.2283 11.8931C26.2058 11.8889 26.1826 11.8892 26.1602 11.894C26.1378 11.8989 26.1166 11.9082 26.0979 11.9214C26.0595 11.947 26.0328 11.9868 26.0236 12.0321C26.0144 12.0774 26.0235 12.1245 26.0488 12.1631C26.8017 13.2856 27.4479 14.476 27.9791 15.7188C27.6743 15.922 27.366 16.1322 27.0472 16.3599C26.4013 15.0336 25.6772 13.7468 24.8788 12.5064C24.8532 12.4674 24.8132 12.4401 24.7675 12.4306C24.7219 12.421 24.6743 12.43 24.6353 12.4556C24.5963 12.4811 24.569 12.5211 24.5595 12.5668C24.5499 12.6125 24.5589 12.66 24.5845 12.6991C25.3848 13.9396 26.1112 15.2264 26.76 16.5525L26.2485 16.9239C25.681 15.5506 25.0854 14.1213 24.4969 12.7201C24.4878 12.6989 24.4745 12.6797 24.4579 12.6636C24.4413 12.6475 24.4217 12.6349 24.4003 12.6264C24.3788 12.618 24.3558 12.6138 24.3327 12.6143C24.3096 12.6147 24.2869 12.6197 24.2657 12.629C24.2237 12.6475 24.1907 12.6817 24.1737 12.7242C24.1566 12.7668 24.157 12.8144 24.1746 12.8567C24.7842 14.286 25.3902 15.7258 25.9717 17.1236L25.6495 17.3653C25.0854 15.964 24.5389 14.5032 24.0485 13.0038C24.041 12.9819 24.0293 12.9617 24.0139 12.9443C23.9986 12.927 23.9799 12.9128 23.9591 12.9027C23.9382 12.8926 23.9156 12.8868 23.8924 12.8855C23.8693 12.8842 23.8461 12.8875 23.8243 12.8952C23.7909 12.9054 23.7615 12.9257 23.7402 12.9533C23.7188 12.9809 23.7066 13.0145 23.7052 13.0494C23.6752 13.0424 23.6441 13.0424 23.6141 13.0494C23.5916 13.054 23.5701 13.063 23.5511 13.0758C23.532 13.0887 23.5157 13.1052 23.503 13.1244C23.4903 13.1436 23.4815 13.1651 23.4771 13.1877C23.4728 13.2103 23.4729 13.2335 23.4775 13.2561C23.81 14.8785 24.2572 16.4753 24.8157 18.0344C24.1956 18.5353 23.5686 19.0853 22.945 19.6494C22.6969 17.6513 22.8156 15.6248 23.2953 13.6694C23.3006 13.6464 23.3013 13.6226 23.2974 13.5993C23.2935 13.5761 23.285 13.5538 23.2725 13.5338C23.2472 13.4934 23.2069 13.4647 23.1605 13.454C23.114 13.4433 23.0652 13.4515 23.0248 13.4768C22.9844 13.5021 22.9557 13.5424 22.945 13.5889C22.4432 15.6701 22.3398 17.8275 22.6402 19.9471L22.409 20.1608C22.1058 18.1815 22.1651 16.1635 22.5842 14.2054C22.5893 14.1831 22.5899 14.16 22.586 14.1374C22.582 14.1148 22.5736 14.0933 22.5612 14.074C22.5488 14.0547 22.5327 14.0382 22.5137 14.0252C22.4948 14.0123 22.4735 14.0033 22.4511 13.9987C22.4283 13.9936 22.4047 13.9931 22.3817 13.9972C22.3587 14.0014 22.3368 14.01 22.3172 14.0228C22.2976 14.0355 22.2808 14.052 22.2677 14.0714C22.2545 14.0907 22.2454 14.1124 22.2409 14.1354C21.795 16.2154 21.7486 18.3612 22.1042 20.4586L21.9326 20.6267C21.607 18.7168 21.657 16.7618 22.0797 14.871C22.0882 14.8252 22.0787 14.7778 22.0533 14.7387C22.0279 14.6996 21.9884 14.6717 21.9431 14.6608C21.8977 14.6525 21.8508 14.662 21.8122 14.6875C21.7737 14.713 21.7465 14.7524 21.7364 14.7975C21.2837 16.8147 21.2467 18.903 21.6278 20.935L21.4562 21.1102C21.0455 19.31 21.0695 17.4378 21.5262 15.6487C21.5388 15.6023 21.5323 15.5527 21.5084 15.511C21.4844 15.4693 21.4448 15.4388 21.3984 15.4263C21.3519 15.4137 21.3024 15.4202 21.2606 15.4441C21.2189 15.4681 21.1884 15.5077 21.1759 15.5541C20.6869 17.4751 20.6796 19.4871 21.1549 21.4115L20.9307 21.6532C20.4927 20.2115 20.4241 18.6828 20.731 17.2076C20.7416 17.1621 20.734 17.1143 20.7098 17.0744C20.6855 17.0344 20.6466 17.0055 20.6014 16.9939C20.5563 16.9834 20.5089 16.9911 20.4696 17.0154C20.4302 17.0397 20.402 17.0786 20.3912 17.1236C20.0596 18.7295 20.1502 20.394 20.6539 21.9544C20.5208 22.1016 20.3877 22.2487 20.2581 22.3994C20.228 22.4349 20.213 22.4808 20.2163 22.5273C20.2195 22.5737 20.2408 22.6171 20.2756 22.6481C20.2865 22.6563 20.2982 22.6634 20.3106 22.6691C20.2927 22.704 20.2867 22.7438 20.2937 22.7825C20.3007 22.8211 20.3201 22.8563 20.3492 22.8828C20.3813 22.9103 20.4224 22.9253 20.4648 22.9248C20.4894 22.925 20.5138 22.9198 20.5362 22.9095C20.5586 22.8992 20.5785 22.8841 20.5944 22.8653L20.8536 22.578C20.9027 22.7205 20.9552 22.8641 21.0113 23.0089C20.8851 22.9914 20.752 22.9774 20.6294 22.9564C20.6064 22.9527 20.5829 22.9536 20.5602 22.959C20.5376 22.9644 20.5162 22.9742 20.4973 22.9878C20.4785 23.0015 20.4625 23.0187 20.4503 23.0386C20.4381 23.0584 20.4299 23.0805 20.4262 23.1035C20.4225 23.1265 20.4234 23.15 20.4288 23.1727C20.4342 23.1953 20.444 23.2167 20.4577 23.2356C20.4714 23.2544 20.4886 23.2704 20.5085 23.2826C20.5283 23.2948 20.5504 23.303 20.5734 23.3067C20.5594 23.327 20.5487 23.3495 20.5418 23.3732C20.5338 23.4153 20.5415 23.4589 20.5635 23.4957C20.5854 23.5325 20.6201 23.56 20.6609 23.5729C20.659 23.5822 20.659 23.5917 20.6609 23.6009C20.6558 23.6235 20.6551 23.6468 20.659 23.6696C20.6629 23.6924 20.6713 23.7142 20.6837 23.7338C20.6961 23.7533 20.7122 23.7702 20.7311 23.7835C20.7501 23.7968 20.7715 23.8062 20.7941 23.8111L21.4211 23.9442C21.4456 24.0003 21.4737 24.0564 21.5017 24.1124L21.1689 24.0493C21.1463 24.0442 21.123 24.0435 21.1002 24.0474C21.0774 24.0513 21.0556 24.0597 21.0361 24.0721C21.0165 24.0845 20.9996 24.1006 20.9863 24.1195C20.9731 24.1385 20.9637 24.1599 20.9587 24.1825C20.9493 24.2284 20.9584 24.2762 20.984 24.3155C21.0095 24.3549 21.0495 24.3826 21.0953 24.3927C21.302 24.4347 21.4982 24.4662 21.7014 24.5013L21.7504 24.5993L21.4737 24.5468C21.4507 24.5422 21.427 24.5422 21.404 24.5467C21.381 24.5513 21.3591 24.5603 21.3396 24.5733C21.32 24.5863 21.3033 24.6031 21.2902 24.6226C21.2772 24.6421 21.2681 24.6639 21.2635 24.6869C21.2589 24.7099 21.2589 24.7336 21.2634 24.7566C21.268 24.7796 21.277 24.8015 21.29 24.821C21.303 24.8406 21.3198 24.8573 21.3392 24.8704C21.3587 24.8834 21.3806 24.8925 21.4036 24.8971C21.5963 24.9391 21.7819 24.9672 21.9746 25.0022L22.0692 25.1669L21.8941 25.1038C21.8724 25.0954 21.8494 25.0913 21.8262 25.0918C21.803 25.0924 21.7801 25.0975 21.759 25.107C21.7378 25.1164 21.7187 25.13 21.7028 25.1469C21.6869 25.1638 21.6745 25.1837 21.6663 25.2054C21.6504 25.2486 21.6521 25.2964 21.6711 25.3384C21.6901 25.3803 21.7249 25.4131 21.7679 25.4296C21.9606 25.5032 22.1603 25.5697 22.3635 25.6328C22.3845 25.6608 22.402 25.6888 22.4195 25.7169C22.3785 25.7036 22.334 25.7059 22.2946 25.7233C22.2552 25.7408 22.2236 25.7721 22.2058 25.8114C22.1966 25.8326 22.1916 25.8554 22.1911 25.8785C22.1907 25.9016 22.1948 25.9245 22.2033 25.946C22.2117 25.9675 22.2244 25.9871 22.2404 26.0037C22.2565 26.0203 22.2757 26.0335 22.2969 26.0427C22.444 26.1092 22.6087 26.1688 22.7804 26.2283C22.98 26.5016 23.1867 26.7643 23.4109 27.0165C23.4109 27.0165 23.4109 27.0165 23.4109 27.0341H23.4284C23.453 27.048 23.4808 27.0552 23.509 27.0551C23.5264 27.0585 23.5442 27.0585 23.5616 27.0551L23.8103 26.978C23.9749 27.1847 24.1606 27.3879 24.3218 27.584C24.3381 27.6023 24.3581 27.6171 24.3804 27.6273C24.4027 27.6376 24.4268 27.6431 24.4514 27.6436C24.4951 27.6424 24.5371 27.6263 24.5705 27.5981C24.5869 27.5818 24.5999 27.5624 24.6088 27.5411C24.6177 27.5197 24.6223 27.4968 24.6223 27.4737C24.6223 27.4506 24.6177 27.4277 24.6088 27.4063C24.5999 27.385 24.5869 27.3656 24.5705 27.3493C24.4304 27.1917 24.2937 27.0235 24.1571 26.8589L24.2692 26.8204C24.6195 27.3073 25.0189 27.7872 25.4463 28.2602C25.4625 28.2786 25.4824 28.2935 25.5047 28.3037C25.5271 28.314 25.5513 28.3194 25.5759 28.3197C25.6186 28.3189 25.6596 28.3027 25.6915 28.2742C25.7109 28.2552 25.7264 28.2326 25.737 28.2076C25.7574 28.1913 25.7738 28.1705 25.7847 28.1467C25.7956 28.123 25.8009 28.0971 25.8001 28.071C25.8386 28.12 25.8737 28.1726 25.9087 28.2216C25.9256 28.2437 25.9473 28.2615 25.9722 28.2736C25.9972 28.2858 26.0246 28.292 26.0523 28.2917C26.0892 28.292 26.1251 28.2796 26.1539 28.2567C26.1726 28.2431 26.1884 28.226 26.2004 28.2064C26.2125 28.1867 26.2205 28.1648 26.2241 28.142C26.2277 28.1193 26.2267 28.096 26.2213 28.0736C26.2159 28.0512 26.2061 28.0301 26.1925 28.0114C25.8796 27.5874 25.5885 27.1477 25.3202 26.6942C25.6249 26.7153 25.9367 26.7293 26.2625 26.7293C27.1637 26.7242 28.0627 26.6409 28.9494 26.4805C29.7096 27.6821 30.2351 28.3723 30.2491 28.3933C30.2658 28.4144 30.2871 28.4314 30.3114 28.4429C30.3357 28.4545 30.3623 28.4603 30.3892 28.4598C30.4273 28.4607 30.4644 28.4483 30.4944 28.4248C30.5155 28.4081 30.5324 28.3868 30.544 28.3625C30.5555 28.3382 30.5613 28.3116 30.5609 28.2847C30.5725 28.2867 30.5844 28.2867 30.5959 28.2847C30.6168 28.288 30.6381 28.288 30.659 28.2847H30.6765L30.701 28.2637L30.7221 28.2356V28.2041C30.7221 28.2041 30.7221 28.1831 30.7221 28.1726V28.1936L30.7571 28.2146H30.7746C30.7955 28.2179 30.8168 28.2179 30.8377 28.2146H30.8727H30.8902H30.9252L30.9498 28.1936L30.9743 28.1726C30.9814 28.1641 30.9872 28.1546 30.9918 28.1446C30.9931 28.1341 30.9931 28.1235 30.9918 28.113C30.9937 28.1014 30.9937 28.0896 30.9918 28.078C30.9933 28.0711 30.9933 28.0639 30.9918 28.057C30.9918 28.0325 30.9638 27.2688 30.8307 26.0462C30.9988 25.9971 31.1635 25.9446 31.3281 25.8885C31.306 26.5479 31.244 27.2054 31.1424 27.8573C31.1384 27.8801 31.139 27.9034 31.144 27.926C31.1491 27.9486 31.1585 27.9699 31.1719 27.9888C31.1853 28.0077 31.2022 28.0238 31.2218 28.0361C31.2414 28.0484 31.2633 28.0567 31.2861 28.0605H31.4017C31.4427 28.061 31.4826 28.0468 31.5141 28.0205C31.5456 27.9941 31.5666 27.9574 31.5733 27.9169C31.5931 27.9311 31.6159 27.9407 31.6399 27.9449H31.6749C31.7112 27.9441 31.7464 27.9323 31.7758 27.911C31.8052 27.8897 31.8275 27.86 31.8396 27.8258H31.8676H31.9061C31.9459 27.8253 31.9843 27.8116 32.0154 27.7869C32.0465 27.7622 32.0684 27.7278 32.0778 27.6891C32.2494 26.9184 32.3791 26.1828 32.4736 25.4681L32.6418 25.3946C32.5612 26.0111 32.4526 26.6487 32.316 27.3143C32.3114 27.3368 32.3113 27.3601 32.3157 27.3827C32.32 27.4053 32.3288 27.4268 32.3415 27.446C32.3542 27.4651 32.3705 27.4817 32.3896 27.4945C32.4087 27.5074 32.4301 27.5164 32.4526 27.521H32.4877C32.528 27.521 32.5672 27.5071 32.5985 27.4815C32.6297 27.456 32.6512 27.4204 32.6593 27.3809C32.8134 26.6312 32.9326 25.913 33.0096 25.2194L33.1322 25.1634C33.0412 25.7624 32.9396 26.372 32.8064 27.0025C32.8018 27.0251 32.8017 27.0483 32.8061 27.0709C32.8105 27.0935 32.8192 27.115 32.8319 27.1342C32.8446 27.1534 32.861 27.1699 32.88 27.1827C32.8991 27.1956 32.9205 27.2046 32.9431 27.2092H32.9781C33.0183 27.2086 33.0571 27.1944 33.0883 27.169C33.1194 27.1435 33.1411 27.1083 33.1498 27.0691C33.3004 26.3474 33.416 25.6468 33.5001 24.9672L33.8504 24.785C33.7297 25.3952 33.561 25.995 33.3459 26.5786C33.3375 26.6 33.3335 26.6228 33.3341 26.6458C33.3347 26.6687 33.3399 26.6913 33.3494 26.7122C33.3588 26.7331 33.3724 26.7519 33.3893 26.7675C33.4061 26.783 33.4259 26.7951 33.4475 26.8028C33.4683 26.8078 33.4898 26.8078 33.5106 26.8028C33.5463 26.8019 33.581 26.7904 33.6103 26.7698C33.6396 26.7493 33.6622 26.7205 33.6752 26.6872C33.9303 25.9912 34.1226 25.2737 34.2498 24.5433C34.3128 24.5048 34.3759 24.4732 34.4354 24.4347C34.3375 24.9781 34.1801 25.5091 33.966 26.0181C33.9546 26.0448 33.9499 26.0738 33.9522 26.1027C33.9545 26.1316 33.9639 26.1595 33.9794 26.184C33.9949 26.2084 34.0161 26.2288 34.0413 26.2432C34.0664 26.2577 34.0947 26.2658 34.1236 26.2669C34.1578 26.267 34.1913 26.2571 34.2199 26.2384C34.2486 26.2197 34.2711 26.1931 34.2848 26.1618C34.5508 25.5278 34.7356 24.8628 34.8348 24.1825C35.3357 23.8602 35.8176 23.5093 36.2781 23.1315C36.2959 23.117 36.3105 23.099 36.3212 23.0787C36.3319 23.0584 36.3384 23.0362 36.3404 23.0133C36.3424 22.9905 36.3397 22.9675 36.3326 22.9456C36.3255 22.9238 36.3141 22.9036 36.2991 22.8863C36.2838 22.8675 36.2646 22.8521 36.2428 22.8412C36.2211 22.8303 36.1973 22.8242 36.173 22.8232C36.2676 22.7427 36.3692 22.6691 36.4638 22.585C36.4813 22.5702 36.4956 22.5521 36.506 22.5317C36.5164 22.5112 36.5226 22.489 36.5242 22.4661C36.5259 22.4432 36.5229 22.4203 36.5155 22.3986C36.5081 22.3769 36.4965 22.3569 36.4813 22.3398C36.4508 22.3045 36.4077 22.2826 36.3612 22.2786C36.3147 22.2747 36.2686 22.2891 36.2326 22.3188C35.8213 22.6767 35.3884 23.009 34.9364 23.3137L34.9574 23.0755C35.5604 22.6681 36.1329 22.2173 36.6705 21.7267C36.6868 21.7108 36.6997 21.6917 36.7086 21.6706C36.7174 21.6496 36.722 21.627 36.722 21.6041C36.722 21.5813 36.7174 21.5587 36.7086 21.5376C36.6997 21.5166 36.6868 21.4975 36.6705 21.4815C36.6501 21.4587 36.6232 21.4428 36.5934 21.436L36.6985 21.3659C36.7369 21.3402 36.7636 21.3004 36.7728 21.2551C36.7819 21.2099 36.7729 21.1628 36.7475 21.1242C36.7213 21.0875 36.6827 21.0614 36.6389 21.0506L36.73 21.0016C36.7709 20.9788 36.801 20.9408 36.8139 20.8957C36.8267 20.8507 36.8211 20.8025 36.7983 20.7616C36.7756 20.7207 36.7375 20.6906 36.6925 20.6778C36.6475 20.665 36.5992 20.6705 36.5583 20.6933C36.0189 20.9946 35.4864 21.2748 34.9574 21.5446C34.9592 21.5131 34.9592 21.4815 34.9574 21.45C35.5908 21.1565 36.2061 20.8255 36.8001 20.4586ZM34.6281 21.2398L34.481 21.3064C34.481 21.2118 34.481 21.1172 34.481 21.0226L34.6246 20.956C34.6176 21.0506 34.6246 21.1452 34.6281 21.2258V21.2398ZM34.6596 22.1121V22.2277L34.488 22.3223C34.488 22.2767 34.488 22.2347 34.488 22.1892L34.6596 22.1121ZM31.773 24.3261C31.773 24.1965 31.773 24.0634 31.752 23.9302L31.8115 23.9092C31.8115 24.0458 31.8115 24.1755 31.8115 24.3121L31.773 24.3261ZM31.8115 24.6554C31.8115 24.75 31.8115 24.8411 31.8115 24.9321H31.787V24.6624L31.8115 24.6554ZM29.9163 25.9376L29.8813 25.85L30.1861 25.7799L30.2071 25.864C30.109 25.8885 30.0004 25.9165 29.9163 25.9376ZM30.2947 26.1968C30.5154 27.0586 30.645 27.6646 30.701 27.9239L30.0459 26.2598L30.2947 26.1968ZM26.7635 25.1283L27.1383 24.8621L27.7374 24.8165L27.2014 25.1248L26.7635 25.1283ZM32.7189 20.5742C32.6593 20.6478 32.5963 20.7213 32.5332 20.7914C32.5052 20.5076 32.4701 20.2274 32.4246 19.9506C32.4877 19.8771 32.5472 19.8 32.6068 19.7229C32.6628 20.0137 32.6978 20.2974 32.7294 20.5882L32.7189 20.5742ZM32.901 19.3446C32.9956 19.222 33.0867 19.0959 33.1778 18.9662C33.2268 19.257 33.2654 19.5478 33.3004 19.8455C33.2093 19.9646 33.1217 20.0802 33.0306 20.1959C33.0061 19.9191 32.9606 19.6353 32.9115 19.3586L32.901 19.3446ZM24.4934 26.0707H24.5635L24.5144 26.0952L24.4934 26.0707ZM24.2762 25.6853C24.2062 25.5627 24.1361 25.4331 24.0695 25.3035H24.1991C24.2622 25.4366 24.3218 25.5662 24.3883 25.6923L24.2762 25.6853ZM23.8804 24.9321C23.8593 24.8831 23.8348 24.8341 23.8103 24.785H23.9644C23.989 24.8341 24.01 24.8831 24.031 24.9321H23.8804ZM23.6421 24.4207C23.6176 24.3646 23.5896 24.3086 23.5651 24.249L23.7472 24.27C23.7682 24.3261 23.7893 24.3821 23.8138 24.4382L23.6421 24.4207ZM23.4565 23.4888V23.5099H23.2533H23.453L23.4565 23.4888ZM23.4004 23.8567H23.5896V23.8917H23.3934L23.4004 23.8567ZM29.4329 23.2927C29.4644 23.3872 29.4959 23.4818 29.524 23.5729C29.3488 23.615 29.1737 23.65 28.9985 23.685L28.9109 23.4678L29.016 23.3767L29.4329 23.2927ZM28.7918 24.1159L28.6937 24.1825L28.6552 24.1089L28.7813 24.0879L28.7918 24.1159ZM28.5431 23.7656L28.6272 23.699C28.6309 23.7161 28.6368 23.7325 28.6447 23.7481L28.5431 23.7656ZM28.2944 24.1649C28.3259 24.235 28.3609 24.2981 28.3924 24.3646L28.0947 24.4067L27.9861 24.2105L28.2944 24.1649ZM30.5049 23.2576C30.6275 23.156 30.7501 23.0544 30.8552 22.9458L31.2861 22.8232L31.3071 23.0755C31.0408 23.163 30.7711 23.2471 30.5014 23.3207L30.5049 23.2576ZM31.5943 22.2837C31.6294 22.2522 31.6609 22.2172 31.6924 22.1857C31.6924 22.2382 31.6924 22.2872 31.6924 22.3398L31.5908 22.3678L31.5943 22.2837ZM31.6399 22.7286L31.738 22.6971V22.9318L31.6504 22.9599C31.6784 22.8968 31.6749 22.8197 31.6644 22.7427L31.6399 22.7286ZM32.0778 22.5885L32.274 22.5255V22.7392L32.0918 22.8092C32.1023 22.7497 32.1023 22.6761 32.1023 22.6025L32.0778 22.5885ZM32.0463 22.2382C32.0463 22.1506 32.0463 22.0665 32.0217 21.979L32.2564 21.9019C32.2564 21.986 32.2564 22.0736 32.2564 22.1611L32.0463 22.2382ZM30.701 22.6341L30.4033 22.7076C30.4033 22.6376 30.3787 22.5675 30.3647 22.4974L31.0829 22.2872C30.9813 22.4169 30.8552 22.5325 30.7256 22.6446L30.701 22.6341ZM29.8217 23.3627C29.8217 23.3172 29.7937 23.2681 29.7762 23.2191L30.0985 23.1455L29.8217 23.3627ZM28.0701 23.713L27.8565 23.8777H27.8039L27.6603 23.6114L28.0106 23.5589L28.0701 23.713ZM27.4291 23.9302C26.286 24.0374 25.1355 24.0374 23.9925 23.9302C23.9925 23.9092 23.9925 23.8882 23.9679 23.8637H24.1361C25.1906 23.8607 26.2437 23.7893 27.2889 23.65L27.4291 23.9302ZM24.1396 24.3121C24.6546 24.3506 25.1555 24.3751 25.646 24.3751C26.21 24.3751 26.76 24.3471 27.2995 24.2981L26.9982 24.5153C26.0644 24.5702 25.1278 24.5585 24.1956 24.4802L24.1396 24.3121ZM27.7058 24.4312V24.4592H27.6428L27.7058 24.4312ZM29.6396 23.9513C29.6606 24.0178 29.6781 24.0809 29.6991 24.1439L29.2472 24.235C29.4014 24.1474 29.531 24.0528 29.6501 23.9548L29.6396 23.9513ZM29.9899 23.8462L30.2526 23.7761C30.2526 23.8532 30.2771 23.9302 30.2912 24.0038L30.0529 24.0634L29.9899 23.8462ZM30.5924 23.685C30.8552 23.6114 31.1144 23.5344 31.3737 23.4503V23.678C31.1284 23.7621 30.8762 23.8392 30.6205 23.9127C30.624 23.8427 30.6135 23.7656 30.5994 23.678L30.5924 23.685ZM31.7135 23.3347L31.7835 23.3102V23.5379L31.717 23.5624C31.731 23.4888 31.724 23.4153 31.7205 23.3277L31.7135 23.3347ZM32.1268 23.1876L32.295 23.1245C32.295 23.1981 32.295 23.2786 32.295 23.3522L32.1478 23.4083L32.1268 23.1876ZM32.6453 22.9914L32.824 22.9213C32.824 22.9914 32.824 23.0615 32.824 23.1315L32.6523 23.2051L32.6453 22.9914ZM32.6453 22.613V22.4169L32.831 22.3503V22.5395L32.6453 22.613ZM32.6453 22.0455C32.6453 21.9579 32.6453 21.8704 32.6278 21.7828L32.8205 21.7092C32.8205 21.8003 32.8205 21.8914 32.8205 21.9825L32.6453 22.0455ZM32.6033 21.415C32.6033 21.3694 32.6033 21.3239 32.6033 21.2783L32.7854 21.0716L32.8064 21.3414L32.6033 21.415ZM32.2354 21.1592L31.9902 21.4185C31.9587 21.1522 31.9271 20.8825 31.8851 20.6162C31.9692 20.5216 32.0533 20.4271 32.1338 20.329C32.1689 20.6057 32.2039 20.8755 32.2319 21.1627L32.2354 21.1592ZM31.6819 21.7408L31.5628 21.7793C31.5313 21.5516 31.4963 21.3239 31.4577 21.0787L31.5838 20.942C31.6119 21.2258 31.6504 21.485 31.6784 21.7443L31.6819 21.7408ZM31.2195 21.8984C30.9638 21.979 30.7045 22.0525 30.4488 22.1261C30.687 21.8949 30.9217 21.6567 31.1494 21.4255C31.1775 21.5761 31.195 21.7407 31.216 21.9019L31.2195 21.8984ZM30.0529 22.599C30.0529 22.6691 30.081 22.7392 30.0915 22.8057L29.6991 22.8968C29.6917 22.8786 29.6859 22.8599 29.6816 22.8407L29.8988 22.6446L30.0529 22.599ZM28.8864 23.0685L28.7778 23.0895C28.7568 23.0334 28.7358 22.9739 28.7112 22.9178C28.8654 22.8863 29.023 22.8548 29.1772 22.8162L28.8864 23.0685ZM28.4275 23.149L28.2243 23.1841L28.1507 23.0334L28.3644 22.9914L28.4275 23.149ZM27.8635 23.2471L27.5131 23.2927L27.4431 23.1595C27.5622 23.142 27.6778 23.1175 27.7934 23.0965C27.8144 23.149 27.8389 23.1946 27.86 23.2471H27.8635ZM27.1418 23.3417C26.0545 23.48 24.9589 23.5432 23.8628 23.5309V23.4993C24.9422 23.4749 26.0188 23.3801 27.0858 23.2156L27.1418 23.3417ZM23.7297 23.149C23.4243 22.2438 23.1901 21.3162 23.0291 20.3745C23.6982 19.779 24.3743 19.222 25.0469 18.707C25.5888 20.1331 26.2062 21.5294 26.8966 22.8898C25.8465 23.0444 24.7875 23.131 23.7262 23.149H23.7297ZM23.3794 23.149H23.1692C22.9018 22.4005 22.6887 21.6336 22.5316 20.8544L22.7488 20.6478C22.8947 21.4959 23.0996 22.3329 23.3619 23.1525L23.3794 23.149ZM22.7909 23.149H22.6437C22.4069 22.5523 22.2149 21.9387 22.0692 21.3134L22.2304 21.1522C22.3711 21.8258 22.5524 22.4903 22.7733 23.142L22.7909 23.149ZM23.2077 24.228C23.2323 24.2806 23.2533 24.3401 23.2778 24.3927H23.2007L23.1097 24.221L23.2077 24.228ZM23.446 24.764L23.509 24.8936H23.4705C23.446 24.8516 23.4214 24.8095 23.4004 24.764H23.446ZM24.8472 25.7764C24.7772 25.6433 24.7106 25.5102 24.644 25.37C24.9944 25.4051 25.3447 25.4296 25.695 25.4471L25.117 25.7974L24.8472 25.7764ZM24.4724 25.0127L24.3988 24.8516C24.9173 24.8901 25.4288 24.9146 25.9157 24.9146C26.1154 24.9146 26.3046 24.9146 26.4972 24.9146L26.1469 25.1423C25.6004 25.1073 25.0364 25.0793 24.4584 25.0057L24.4724 25.0127ZM28.0772 25.0372L28.1087 25.0863H27.9791L28.0772 25.0372ZM28.3749 24.8516C28.445 24.8095 28.5151 24.7675 28.5816 24.722L28.7358 25.0232L28.4765 25.0513L28.3749 24.8516ZM28.96 24.6624H29.037C29.0791 24.771 29.1211 24.8796 29.1631 24.9812H29.1211L28.96 24.6624ZM29.2893 25.279C29.3068 25.321 29.3208 25.3595 29.3348 25.4016C29.3171 25.3608 29.2972 25.3211 29.2752 25.2825L29.2893 25.279ZM29.7657 25.5312C29.7271 25.4296 29.6851 25.328 29.6431 25.2229L30.0249 25.1528C30.053 25.2509 30.081 25.356 30.109 25.4506L29.7657 25.5312ZM29.517 24.9076L29.3873 24.5818C29.538 24.5538 29.6886 24.5258 29.8358 24.4907C29.8708 24.6099 29.9023 24.7255 29.9338 24.8411C29.7832 24.8586 29.6501 24.8796 29.5029 24.9006L29.517 24.9076ZM30.1756 24.4102L30.3647 24.3611C30.3822 24.4837 30.4033 24.6063 30.4173 24.7114L30.2772 24.7465C30.2316 24.6379 30.1966 24.5223 30.1615 24.4032L30.1756 24.4102ZM30.7045 24.2735C30.9498 24.207 31.188 24.1334 31.4052 24.0564C31.4052 24.1825 31.4227 24.3156 31.4262 24.4417C31.1985 24.5153 30.9743 24.5853 30.7431 24.6449C30.7291 24.5188 30.701 24.3786 30.701 24.2665L30.7045 24.2735ZM32.1759 23.7901L32.288 23.7446C32.288 23.8777 32.288 24.0108 32.2705 24.1439L32.1759 24.1825C32.1584 24.0283 32.1619 23.9162 32.1619 23.7831L32.1759 23.7901ZM32.6488 23.6044L32.8275 23.5274C32.8275 23.657 32.8275 23.7901 32.8029 23.9197C32.7434 23.9478 32.6873 23.9793 32.6278 24.0038C32.6243 23.8637 32.6278 23.7306 32.6348 23.5974L32.6488 23.6044ZM33.1848 23.3732L33.3635 23.2927C33.3635 23.4188 33.3459 23.5414 33.3354 23.6675L33.1638 23.7481L33.1848 23.3732ZM33.1848 22.9844C33.1848 22.9178 33.1848 22.8513 33.1848 22.7847C33.2513 22.7567 33.3179 22.7322 33.3845 22.7006V22.8933L33.1848 22.9844ZM33.1848 22.4029V22.2347L33.4055 22.1506C33.4055 22.2032 33.4055 22.2522 33.4055 22.3083L33.1848 22.4029ZM33.1848 21.8634C33.1848 21.7688 33.1848 21.6777 33.1848 21.5866L33.4335 21.4885C33.4335 21.5831 33.4335 21.6777 33.4335 21.7688L33.1848 21.8634ZM33.1533 21.2258C33.1533 21.0541 33.1252 20.8755 33.1077 20.7108L33.374 20.385C33.374 20.6267 33.3985 20.879 33.409 21.1277L33.1533 21.2258ZM33.6647 20.0067L33.973 19.5793C34.0361 19.9962 34.0816 20.4095 34.1131 20.8194L33.7348 20.9841C33.7103 20.6373 33.6857 20.308 33.6542 19.9892L33.6647 20.0067ZM33.6087 19.4882C33.5701 19.1939 33.5211 18.9067 33.465 18.6194L33.7103 18.2691C33.7768 18.5424 33.8364 18.8191 33.8889 19.0959L33.6087 19.4882ZM33.3669 18.1465C33.0869 16.8838 32.6281 15.6676 32.0042 14.5347L32.1969 14.4436C32.8017 15.4997 33.2724 16.6271 33.5982 17.7997L33.3669 18.1465ZM33.1182 18.4968C33.0236 18.6299 32.9291 18.7631 32.831 18.8927C32.5341 17.474 32.0635 16.0974 31.4297 14.794L31.6959 14.6643C32.362 15.8599 32.8382 17.1516 33.1077 18.4933L33.1182 18.4968ZM31.2791 14.4787L31.1179 14.1669L31.3351 14.0478L31.5278 14.3596L31.2791 14.4787ZM30.9638 14.6363L30.8236 14.7064C30.7816 14.6083 30.7396 14.5067 30.694 14.4086L30.8131 14.342C30.8517 14.4331 30.9042 14.5312 30.9533 14.6328L30.9638 14.6363ZM31.1179 14.9481C31.7845 16.3203 32.2651 17.7753 32.5472 19.2745L32.365 19.5127C32.0679 17.969 31.5978 16.4637 30.9638 15.0252L31.1179 14.9481ZM32.0708 19.8736L31.8186 20.1783C31.5381 18.5042 31.0982 16.8608 30.5049 15.2704L30.6415 15.2003C31.3006 16.6941 31.777 18.2621 32.0603 19.8701L32.0708 19.8736ZM31.5138 20.5252L31.3771 20.6758C31.0668 18.9299 30.5918 17.2174 29.9584 15.5612L30.1931 15.4315C30.8031 17.0808 31.2455 18.7873 31.5138 20.5252ZM31.0794 21.0016C30.8061 21.2923 30.5294 21.5726 30.2526 21.8423C29.8568 19.959 29.3037 18.1122 28.5991 16.3213C28.9494 16.1111 29.2998 15.915 29.6501 15.7293C30.2985 17.4307 30.7772 19.192 31.0794 20.9876V21.0016ZM29.9514 22.1261L29.7342 22.3328L29.5205 22.3853C28.914 20.5768 28.2064 18.8037 27.401 17.0745C27.7093 16.8783 28.0141 16.6857 28.3119 16.507C29.0175 18.3251 29.566 20.2003 29.9514 22.1121V22.1261ZM29.1807 22.4764L28.5746 22.606C27.9756 21.1207 27.2854 19.4287 26.5463 17.6455L27.1033 17.2707C27.8913 18.9603 28.5849 20.6924 29.1807 22.4589V22.4764ZM28.2278 22.6796L27.9931 22.7286C27.3345 21.3519 26.6233 19.779 25.9227 18.0834L26.252 17.8487C26.9702 19.5653 27.6393 21.2258 28.2278 22.6621V22.6796ZM27.6323 22.7882L27.2819 22.8513C26.5604 21.439 25.9183 19.9876 25.3587 18.5038L25.646 18.2936C26.3081 19.9121 26.9982 21.4325 27.6323 22.7707V22.7882ZM25.2221 18.1605L25.4918 17.9503V17.9713L25.2221 18.1605ZM21.7574 21.6111C21.8878 22.1295 22.0492 22.6396 22.2409 23.1385H22.0272C21.859 22.6936 21.7119 22.2487 21.5893 21.7933L21.7574 21.6111ZM22.6788 24.1685C22.7068 24.2245 22.7278 24.2806 22.7558 24.3366L22.5421 24.3051L22.4581 24.1334L22.6788 24.1685ZM22.952 24.7114L23.0186 24.8341L22.7944 24.799C22.7733 24.7605 22.7488 24.722 22.7278 24.6799L22.952 24.7114ZM23.2218 25.2159C23.2883 25.3315 23.3619 25.4436 23.4319 25.5662L23.2042 25.5102C23.1377 25.4051 23.0781 25.3 23.0151 25.1914L23.2218 25.2159ZM23.6807 25.9621C23.7227 26.0286 23.7683 26.0882 23.8103 26.1512L23.5966 26.1057C23.5546 26.0462 23.516 25.9831 23.4775 25.9235L23.6807 25.9621ZM25.681 25.857C25.8737 25.7379 26.0698 25.6118 26.2765 25.4751H26.5533C26.28 25.6153 26.0173 25.7414 25.7616 25.857H25.681ZM27.324 25.4716C27.6498 25.4716 27.9651 25.4401 28.2768 25.4121C28.3469 25.5312 28.4135 25.6433 28.4835 25.7624C27.8388 25.8455 27.1894 25.8876 26.5393 25.8885C26.795 25.7379 27.0577 25.6013 27.324 25.4541V25.4716ZM28.6622 25.3735L28.8969 25.3455L29.0616 25.6713L28.8584 25.7028L28.6622 25.3735ZM29.2297 25.9936L29.2823 26.0952L29.1211 26.1267L29.058 26.0251L29.2297 25.9936ZM30.5259 25.7134C30.5259 25.7134 30.5259 25.7414 30.5259 25.7554V25.7134ZM30.4348 25.363C30.4068 25.2684 30.3823 25.1704 30.3542 25.0758L30.4488 25.0513C30.4488 25.1528 30.4768 25.2509 30.4873 25.349L30.4348 25.363ZM30.7851 24.9707C30.9988 24.9146 31.2125 24.8516 31.4227 24.7885C31.4227 24.8796 31.4227 24.9742 31.4227 25.0653C31.223 25.1318 31.0198 25.1949 30.8166 25.2544C30.8166 25.1563 30.8026 25.0793 30.7921 24.9672L30.7851 24.9707ZM32.1303 25.2334C32.1286 25.2195 32.1286 25.2053 32.1303 25.1914C32.132 25.2053 32.132 25.2195 32.1303 25.2334ZM32.1478 24.813C32.1478 24.7255 32.1478 24.6379 32.1478 24.5503L32.2109 24.5258C32.2109 24.6134 32.2109 24.7079 32.1829 24.799L32.1478 24.813ZM32.5787 24.3786L32.7504 24.3086C32.7504 24.3962 32.7329 24.4802 32.7259 24.5678L32.5542 24.6449C32.5717 24.5433 32.5822 24.4522 32.5893 24.3786H32.5787ZM33.1182 24.1404L33.2689 24.0704C33.2689 24.1579 33.2513 24.242 33.2408 24.3261L33.0937 24.3997C33.1112 24.3016 33.1217 24.214 33.1287 24.1264L33.1182 24.1404ZM33.6332 23.8882C33.7698 23.8181 33.9029 23.7446 34.0361 23.671L34.0045 23.9232C33.8749 23.9968 33.7418 24.0704 33.6052 24.1404C33.6262 24.0283 33.6367 23.9583 33.6437 23.8742L33.6332 23.8882ZM33.6717 23.4818C33.6717 23.3627 33.6717 23.2506 33.6892 23.1315L34.1061 22.9283C34.1061 23.0369 34.0886 23.1455 34.0781 23.2506C33.9555 23.3277 33.8189 23.3907 33.6822 23.4678L33.6717 23.4818ZM34.4634 22.7427L34.6421 22.6446C34.6421 22.7322 34.6421 22.8162 34.6421 22.9038L34.4599 23.0229C34.4635 22.9143 34.4669 22.8232 34.474 22.7286L34.4634 22.7427ZM34.1131 22.522C33.98 22.5955 33.8399 22.6656 33.7033 22.7322V22.5535L34.1061 22.3713C34.1377 22.4064 34.1376 22.4589 34.1341 22.5079L34.1131 22.522ZM33.7208 22.1716V22.0245L34.1236 21.8599V21.9825L33.7208 22.1716ZM33.7208 21.6462C33.7208 21.5516 33.7208 21.4535 33.7208 21.3589L34.1061 21.1943V21.4815L33.7208 21.6462ZM34.5545 20.5952L34.4214 20.6583C34.3794 20.1608 34.3163 19.6599 34.2252 19.1554L34.3093 19.0293C34.4424 19.5548 34.5195 20.0767 34.5755 20.5882L34.5545 20.5952ZM34.2042 18.5529C34.1832 18.5914 34.1587 18.6264 34.1341 18.665C34.0781 18.3917 34.0115 18.122 33.938 17.8487L33.9905 17.7646C34.0886 18.0204 34.1587 18.2831 34.2217 18.5459L34.2042 18.5529ZM33.8259 17.3723C33.5354 16.4017 33.1481 15.4628 32.6698 14.5698C33.1567 15.4384 33.5579 16.3524 33.8679 17.2987L33.8259 17.3723ZM31.7975 13.778L32.0077 14.1284L31.8221 14.2124L31.6259 13.8831L31.7975 13.778ZM31.1319 13.7395L30.9428 13.8446C30.6625 13.3261 30.3647 12.8217 30.06 12.3347C30.4454 12.7845 30.8033 13.2572 31.1319 13.75V13.7395ZM29.6711 12.3768C30.0214 12.9057 30.3332 13.4487 30.638 14.0162L30.5329 14.0793C30.2631 13.5188 29.9794 12.9583 29.6711 12.3873V12.3768ZM30.3717 14.5733C30.4138 14.6643 30.4523 14.7589 30.4944 14.8535L30.3682 14.9166C30.3297 14.8255 30.2947 14.7309 30.2561 14.6398L30.3717 14.5733ZM29.9514 14.822C29.9899 14.9061 30.0214 14.9936 30.0565 15.0812L29.8217 15.2073C29.7902 15.1233 29.7622 15.0392 29.7272 14.9586L29.9514 14.822ZM29.4259 15.1443C29.4539 15.2213 29.4819 15.2984 29.5135 15.3755C29.1807 15.5612 28.8338 15.7573 28.4625 15.971C28.4415 15.9115 28.417 15.8554 28.396 15.7994C28.7638 15.5752 29.1071 15.358 29.4329 15.1548L29.4259 15.1443ZM28.1087 15.9955L28.1717 16.1532C27.867 16.3354 27.5587 16.5315 27.2434 16.7347L27.1909 16.6296C27.5131 16.4159 27.8179 16.2057 28.1157 16.0061L28.1087 15.9955ZM26.9036 16.8363L26.9456 16.9239C26.767 17.043 26.5953 17.1621 26.4026 17.2742L26.3781 17.2076C26.5603 17.099 26.7354 16.9729 26.9106 16.8468L26.9036 16.8363ZM26.0874 17.4389L26.1084 17.4914L25.7966 17.7226C25.7966 17.7226 25.7966 17.6981 25.7966 17.6841L26.0874 17.4389ZM23.9504 13.8656C24.3883 15.1373 24.8612 16.3809 25.3517 17.572L25.096 17.7752C24.6397 16.4967 24.2596 15.1924 23.9574 13.8691L23.9504 13.8656ZM21.1023 22.2732C21.1689 22.1997 21.239 22.1296 21.3055 22.0595C21.4036 22.4099 21.5157 22.7392 21.6558 23.079L21.4036 23.0579C21.2915 22.7917 21.1934 22.5325 21.1093 22.2767L21.1023 22.2732ZM21.803 24.0248L22.0237 24.0669L22.1007 24.235L21.8941 24.2C21.88 24.1229 21.8485 24.0669 21.8205 24.0073L21.803 24.0248ZM22.0972 24.5853L22.2934 24.6239C22.2934 24.6554 22.3249 24.6904 22.3425 24.722L22.1533 24.6869L22.0972 24.5853ZM22.3845 25.0828L22.5562 25.1143C22.6052 25.2054 22.6542 25.293 22.7033 25.3771L22.5456 25.3315L22.3845 25.0828ZM22.9941 25.7799C23.0291 25.8325 23.0641 25.885 23.0956 25.9376L22.9835 25.9025L22.8714 25.7519L22.9941 25.7799ZM23.3969 26.3825L23.5896 26.6417C23.509 26.5506 23.4319 26.456 23.3549 26.3614L23.3969 26.3825ZM25.3692 27.3704C25.2116 27.1497 25.0434 26.9079 24.8718 26.6382H24.9243C25.0574 26.9044 25.2081 27.1462 25.3587 27.3809L25.3692 27.3704ZM25.4848 26.3439L25.8351 26.1898C26.0593 26.1898 26.2835 26.1898 26.5112 26.1898C27.2391 26.1879 27.9659 26.1364 28.6867 26.0356C28.7112 26.0742 28.7323 26.1127 28.7568 26.1477C27.6737 26.3384 26.5727 26.4077 25.4743 26.3544L25.4848 26.3439ZM29.4609 26.3825C29.7131 26.8659 29.9268 27.2583 30.0915 27.556C29.8883 27.2688 29.6326 26.8834 29.3313 26.4105L29.4609 26.3825ZM30.8902 25.6608C30.8902 25.6398 30.8902 25.6153 30.8902 25.5907C31.0759 25.5382 31.2651 25.4786 31.4507 25.4191C31.4507 25.4401 31.4507 25.4576 31.4507 25.4786C31.2475 25.5557 31.0514 25.6153 30.8797 25.6713L30.8902 25.6608ZM32.5297 25.0513C32.5314 25.0385 32.5314 25.0255 32.5297 25.0127L32.7013 24.9427V24.9742L32.5297 25.0513ZM33.0762 24.799V24.7745L33.2128 24.7114V24.729L33.0762 24.799ZM33.5842 24.5328L33.9345 24.3506L33.5842 24.5398V24.5328ZM34.5966 23.5554L34.4039 23.6745C34.4039 23.5904 34.4249 23.5099 34.4319 23.4258L34.6211 23.3137C34.6036 23.4048 34.5931 23.4853 34.5861 23.5659L34.5966 23.5554ZM35.0064 22.6411C35.0064 22.571 35.0064 22.5009 35.0064 22.4274C35.3848 22.2137 35.7526 21.993 36.1134 21.7653C35.7421 22.0876 35.3743 22.3853 34.9959 22.6516L35.0064 22.6411ZM36.0574 21.3939C35.7164 21.6088 35.3661 21.819 35.0064 22.0245C35.0082 21.993 35.0082 21.9614 35.0064 21.9299C35.3463 21.7688 35.6931 21.5761 36.0434 21.4044L36.0574 21.3939ZM34.6561 21.7127L34.495 21.7898V21.6777L34.6526 21.6076C34.6491 21.6532 34.6526 21.6882 34.6526 21.7232L34.6561 21.7127Z" fill="#E67E33"/>
<path opacity="0.2" d="M36.8001 20.4586C36.82 20.4468 36.8374 20.431 36.8511 20.4123C36.8647 20.3936 36.8745 20.3723 36.8797 20.3497C36.885 20.3271 36.8856 20.3037 36.8815 20.2809C36.8775 20.258 36.8688 20.2363 36.8561 20.2169C36.831 20.1779 36.7914 20.1505 36.7461 20.1406C36.7008 20.1308 36.6534 20.1393 36.6144 20.1643C36.0816 20.5002 35.5308 20.8066 34.9644 21.0822C34.9644 20.9911 34.9644 20.8965 34.9399 20.8019C35.5634 20.5006 36.1835 20.1713 36.7896 19.814C36.8287 19.79 36.8569 19.7516 36.8681 19.7071C36.8792 19.6625 36.8724 19.6154 36.8491 19.5758C36.8379 19.5557 36.8227 19.5382 36.8045 19.5241C36.7864 19.51 36.7656 19.4997 36.7433 19.4939C36.7211 19.488 36.698 19.4866 36.6752 19.4899C36.6525 19.4931 36.6306 19.5009 36.6109 19.5127C36.0504 19.8455 35.4794 20.1433 34.9048 20.4236C34.8347 19.8157 34.7306 19.2122 34.5931 18.6159C35.0739 17.8427 35.5034 17.0388 35.8787 16.2092C35.8886 16.1884 35.8942 16.1657 35.8951 16.1427C35.896 16.1196 35.8923 16.0966 35.8841 16.075C35.8759 16.0534 35.8635 16.0337 35.8475 16.0171C35.8315 16.0004 35.8124 15.9871 35.7912 15.978C35.7489 15.9591 35.7008 15.9576 35.6575 15.9741C35.6141 15.9905 35.5791 16.0234 35.5599 16.0656C35.2397 16.7769 34.8771 17.4682 34.474 18.136C34.4074 17.8767 34.3303 17.6175 34.2462 17.3548C34.6417 16.6837 34.9928 15.9874 35.2972 15.2704C35.3148 15.2271 35.3147 15.1787 35.297 15.1355C35.2794 15.0923 35.2455 15.0577 35.2026 15.0392C35.1599 15.0217 35.1119 15.0219 35.0693 15.0396C35.0267 15.0573 34.9927 15.0912 34.9749 15.1338C34.7169 15.7419 34.4245 16.3349 34.0991 16.9099C33.7646 15.9477 33.3363 15.0208 32.8205 14.1424C33.3634 13.9076 33.6822 13.792 33.6998 13.792C33.7213 13.7843 33.7411 13.7722 33.758 13.7567C33.7749 13.7411 33.7884 13.7223 33.7979 13.7014C33.8074 13.6805 33.8126 13.6579 33.8132 13.635C33.8137 13.612 33.8097 13.5892 33.8013 13.5678C33.7855 13.5242 33.753 13.4886 33.711 13.4689C33.669 13.4492 33.6208 13.447 33.5771 13.4627C33.5771 13.4627 33.2268 13.5994 32.6348 13.8516C32.5624 13.7278 32.4853 13.611 32.4036 13.5013C32.7539 13.3261 32.9536 13.235 32.9641 13.228C32.9853 13.2189 33.0045 13.2057 33.0204 13.189C33.0364 13.1723 33.0489 13.1526 33.057 13.131C33.0652 13.1095 33.0689 13.0865 33.068 13.0634C33.0671 13.0403 33.0615 13.0177 33.0517 12.9968C33.0325 12.9546 32.9975 12.9217 32.9542 12.9053C32.9108 12.8889 32.8627 12.8903 32.8205 12.9092C32.8205 12.9092 32.5857 13.0178 32.2039 13.2105C31.9622 12.8602 31.7029 12.5099 31.4227 12.1806C31.4082 12.1628 31.3902 12.1482 31.3699 12.1375C31.3496 12.1268 31.3274 12.1202 31.3045 12.1183C31.2817 12.1163 31.2586 12.119 31.2368 12.1261C31.215 12.1331 31.1948 12.1445 31.1775 12.1596C31.1588 12.1751 31.1435 12.1943 31.1327 12.216C31.1218 12.2377 31.1156 12.2614 31.1144 12.2857C31.0373 12.1876 30.9568 12.093 30.8762 11.9984C30.8617 11.9807 30.8437 11.966 30.8234 11.9553C30.8031 11.9446 30.7809 11.9381 30.758 11.9361C30.7352 11.9342 30.7121 11.9368 30.6903 11.9439C30.6685 11.951 30.6483 11.9624 30.631 11.9774C30.5957 12.0079 30.5738 12.051 30.5698 12.0975C30.5659 12.144 30.5803 12.1901 30.61 12.2261C30.9671 12.638 31.2993 13.0708 31.6049 13.5223L31.4332 13.6134C31.0127 12.9706 30.5443 12.3605 30.0319 11.7882C30.0156 11.7718 29.9963 11.7588 29.9749 11.7499C29.9536 11.741 29.9307 11.7364 29.9076 11.7364C29.8844 11.7364 29.8616 11.741 29.8402 11.7499C29.8189 11.7588 29.7995 11.7718 29.7832 11.7882C29.7605 11.8072 29.7445 11.833 29.7377 11.8618C29.7135 11.8293 29.6912 11.7954 29.6711 11.7602C29.6584 11.7407 29.6419 11.7239 29.6226 11.7109C29.6033 11.6978 29.5816 11.6888 29.5588 11.6842C29.536 11.6796 29.5124 11.6797 29.4896 11.6843C29.4668 11.6889 29.4451 11.6981 29.4259 11.7112C29.3879 11.7362 29.3615 11.7752 29.3523 11.8198L29.3033 11.7287C29.2804 11.6884 29.2428 11.6586 29.1983 11.6455C29.1539 11.6324 29.1061 11.6371 29.065 11.6586C29.0247 11.6814 28.995 11.7193 28.9825 11.764C28.9701 11.8086 28.9758 11.8564 28.9985 11.8968C29.4504 12.7131 29.8638 13.5118 30.2386 14.3035L30.144 14.3596C29.7508 13.4318 29.2821 12.5378 28.7428 11.6866C28.731 11.666 28.7151 11.6479 28.6961 11.6336C28.6771 11.6193 28.6554 11.609 28.6323 11.6033C28.6092 11.5976 28.5852 11.5967 28.5618 11.6007C28.5383 11.6046 28.5159 11.6132 28.4959 11.6261C28.4759 11.6389 28.4587 11.6557 28.4454 11.6755C28.4321 11.6952 28.423 11.7174 28.4185 11.7408C28.4141 11.7641 28.4145 11.7882 28.4196 11.8114C28.4248 11.8346 28.4346 11.8565 28.4485 11.8758C28.984 12.7239 29.4469 13.6157 29.8322 14.5417L29.5975 14.6819C29.1633 13.6565 28.6625 12.6606 28.0982 11.7006C28.0869 11.6806 28.0718 11.663 28.0536 11.649C28.0354 11.6349 28.0146 11.6246 27.9924 11.6187C27.9702 11.6128 27.947 11.6115 27.9243 11.6147C27.9015 11.618 27.8797 11.6257 27.86 11.6376C27.82 11.6617 27.7909 11.7004 27.7792 11.7456C27.7674 11.7908 27.7737 11.8388 27.7969 11.8793C28.364 12.8402 28.865 13.8385 29.2963 14.8675C28.9705 15.0707 28.6272 15.2879 28.2733 15.5226C27.7408 14.2798 27.0934 13.0894 26.3396 11.9669C26.3269 11.9478 26.3105 11.9314 26.2914 11.9187C26.2723 11.9061 26.2509 11.8974 26.2283 11.8931C26.2058 11.8889 26.1826 11.8892 26.1602 11.894C26.1378 11.8989 26.1166 11.9082 26.0979 11.9214C26.0595 11.947 26.0328 11.9868 26.0236 12.0321C26.0144 12.0774 26.0235 12.1245 26.0488 12.1631C26.8017 13.2856 27.4479 14.476 27.9791 15.7188C27.6743 15.922 27.366 16.1322 27.0472 16.3599C26.4013 15.0336 25.6772 13.7468 24.8788 12.5064C24.8532 12.4674 24.8132 12.4401 24.7675 12.4306C24.7219 12.421 24.6743 12.43 24.6353 12.4556C24.5963 12.4811 24.569 12.5211 24.5595 12.5668C24.5499 12.6125 24.5589 12.66 24.5845 12.6991C25.3848 13.9396 26.1112 15.2264 26.76 16.5525L26.2485 16.9239C25.681 15.5506 25.0854 14.1213 24.4969 12.7201C24.4878 12.6989 24.4745 12.6797 24.4579 12.6636C24.4413 12.6475 24.4217 12.6349 24.4003 12.6264C24.3788 12.618 24.3558 12.6138 24.3327 12.6143C24.3096 12.6147 24.2869 12.6197 24.2657 12.629C24.2237 12.6475 24.1907 12.6817 24.1737 12.7242C24.1566 12.7668 24.157 12.8144 24.1746 12.8567C24.7842 14.286 25.3902 15.7258 25.9717 17.1236L25.6495 17.3653C25.0854 15.964 24.5389 14.5032 24.0485 13.0038C24.041 12.9819 24.0293 12.9617 24.0139 12.9443C23.9986 12.927 23.9799 12.9128 23.9591 12.9027C23.9382 12.8926 23.9156 12.8868 23.8924 12.8855C23.8693 12.8842 23.8461 12.8875 23.8243 12.8952C23.7909 12.9054 23.7615 12.9257 23.7402 12.9533C23.7188 12.9809 23.7066 13.0145 23.7052 13.0494C23.6752 13.0424 23.6441 13.0424 23.6141 13.0494C23.5916 13.054 23.5701 13.063 23.5511 13.0758C23.532 13.0887 23.5157 13.1052 23.503 13.1244C23.4903 13.1436 23.4815 13.1651 23.4771 13.1877C23.4728 13.2103 23.4729 13.2335 23.4775 13.2561C23.81 14.8785 24.2572 16.4753 24.8157 18.0344C24.1956 18.5353 23.5686 19.0853 22.945 19.6494C22.6969 17.6513 22.8156 15.6248 23.2953 13.6694C23.3006 13.6464 23.3013 13.6226 23.2974 13.5993C23.2935 13.5761 23.285 13.5538 23.2725 13.5338C23.2472 13.4934 23.2069 13.4647 23.1605 13.454C23.114 13.4433 23.0652 13.4515 23.0248 13.4768C22.9844 13.5021 22.9557 13.5424 22.945 13.5889C22.4432 15.6701 22.3398 17.8275 22.6402 19.9471L22.409 20.1608C22.1058 18.1815 22.1651 16.1635 22.5842 14.2054C22.5893 14.1831 22.5899 14.16 22.586 14.1374C22.582 14.1148 22.5736 14.0933 22.5612 14.074C22.5488 14.0547 22.5327 14.0382 22.5137 14.0252C22.4948 14.0123 22.4735 14.0033 22.4511 13.9987C22.4283 13.9936 22.4047 13.9931 22.3817 13.9972C22.3587 14.0014 22.3368 14.01 22.3172 14.0228C22.2976 14.0355 22.2808 14.052 22.2677 14.0714C22.2545 14.0907 22.2454 14.1124 22.2409 14.1354C21.795 16.2154 21.7486 18.3612 22.1042 20.4586L21.9326 20.6267C21.607 18.7168 21.657 16.7618 22.0797 14.871C22.0882 14.8252 22.0787 14.7778 22.0533 14.7387C22.0279 14.6996 21.9884 14.6717 21.9431 14.6608C21.8977 14.6525 21.8508 14.662 21.8122 14.6875C21.7737 14.713 21.7465 14.7524 21.7364 14.7975C21.2837 16.8147 21.2467 18.903 21.6278 20.935L21.4562 21.1102C21.0455 19.31 21.0695 17.4378 21.5262 15.6487C21.5388 15.6023 21.5323 15.5527 21.5084 15.511C21.4844 15.4693 21.4448 15.4388 21.3984 15.4263C21.3519 15.4137 21.3024 15.4202 21.2606 15.4441C21.2189 15.4681 21.1884 15.5077 21.1759 15.5541C20.6869 17.4751 20.6796 19.4871 21.1549 21.4115L20.9307 21.6532C20.4927 20.2115 20.4241 18.6828 20.731 17.2076C20.7416 17.1621 20.734 17.1143 20.7098 17.0744C20.6855 17.0344 20.6466 17.0055 20.6014 16.9939C20.5563 16.9834 20.5089 16.9911 20.4696 17.0154C20.4302 17.0397 20.402 17.0786 20.3912 17.1236C20.0596 18.7295 20.1502 20.394 20.6539 21.9544C20.5208 22.1016 20.3877 22.2487 20.2581 22.3994C20.228 22.4349 20.213 22.4808 20.2163 22.5273C20.2195 22.5737 20.2408 22.6171 20.2756 22.6481C20.2865 22.6563 20.2982 22.6634 20.3106 22.6691C20.2927 22.704 20.2867 22.7438 20.2937 22.7825C20.3007 22.8211 20.3201 22.8563 20.3492 22.8828C20.3813 22.9103 20.4224 22.9253 20.4648 22.9248C20.4894 22.925 20.5138 22.9198 20.5362 22.9095C20.5586 22.8992 20.5785 22.8841 20.5944 22.8653L20.8536 22.578C20.9027 22.7205 20.9552 22.8641 21.0113 23.0089C20.8851 22.9914 20.752 22.9774 20.6294 22.9564C20.6064 22.9527 20.5829 22.9536 20.5602 22.959C20.5376 22.9644 20.5162 22.9742 20.4973 22.9878C20.4785 23.0015 20.4625 23.0187 20.4503 23.0386C20.4381 23.0584 20.4299 23.0805 20.4262 23.1035C20.4225 23.1265 20.4234 23.15 20.4288 23.1727C20.4342 23.1953 20.444 23.2167 20.4577 23.2356C20.4714 23.2544 20.4886 23.2704 20.5085 23.2826C20.5283 23.2948 20.5504 23.303 20.5734 23.3067C20.5594 23.327 20.5487 23.3495 20.5418 23.3732C20.5338 23.4153 20.5415 23.4589 20.5635 23.4957C20.5854 23.5325 20.6201 23.56 20.6609 23.5729C20.659 23.5822 20.659 23.5917 20.6609 23.6009C20.6558 23.6235 20.6551 23.6468 20.659 23.6696C20.6629 23.6924 20.6713 23.7142 20.6837 23.7338C20.6961 23.7533 20.7122 23.7702 20.7311 23.7835C20.7501 23.7968 20.7715 23.8062 20.7941 23.8111L21.4211 23.9442C21.4456 24.0003 21.4737 24.0564 21.5017 24.1124L21.1689 24.0493C21.1463 24.0442 21.123 24.0435 21.1002 24.0474C21.0774 24.0513 21.0556 24.0597 21.0361 24.0721C21.0165 24.0845 20.9996 24.1006 20.9863 24.1195C20.9731 24.1385 20.9637 24.1599 20.9587 24.1825C20.9493 24.2284 20.9584 24.2762 20.984 24.3155C21.0095 24.3549 21.0495 24.3826 21.0953 24.3927C21.302 24.4347 21.4982 24.4662 21.7014 24.5013L21.7504 24.5993L21.4737 24.5468C21.4507 24.5422 21.427 24.5422 21.404 24.5467C21.381 24.5513 21.3591 24.5603 21.3396 24.5733C21.32 24.5863 21.3033 24.6031 21.2902 24.6226C21.2772 24.6421 21.2681 24.6639 21.2635 24.6869C21.2589 24.7099 21.2589 24.7336 21.2634 24.7566C21.268 24.7796 21.277 24.8015 21.29 24.821C21.303 24.8406 21.3198 24.8573 21.3392 24.8704C21.3587 24.8834 21.3806 24.8925 21.4036 24.8971C21.5963 24.9391 21.7819 24.9672 21.9746 25.0022L22.0692 25.1669L21.8941 25.1038C21.8724 25.0954 21.8494 25.0913 21.8262 25.0918C21.803 25.0924 21.7801 25.0975 21.759 25.107C21.7378 25.1164 21.7187 25.13 21.7028 25.1469C21.6869 25.1638 21.6745 25.1837 21.6663 25.2054C21.6504 25.2486 21.6521 25.2964 21.6711 25.3384C21.6901 25.3803 21.7249 25.4131 21.7679 25.4296C21.9606 25.5032 22.1603 25.5697 22.3635 25.6328C22.3845 25.6608 22.402 25.6888 22.4195 25.7169C22.3785 25.7036 22.334 25.7059 22.2946 25.7233C22.2552 25.7408 22.2236 25.7721 22.2058 25.8114C22.1966 25.8326 22.1916 25.8554 22.1911 25.8785C22.1907 25.9016 22.1948 25.9245 22.2033 25.946C22.2117 25.9675 22.2244 25.9871 22.2404 26.0037C22.2565 26.0203 22.2757 26.0335 22.2969 26.0427C22.444 26.1092 22.6087 26.1688 22.7804 26.2283C22.98 26.5016 23.1867 26.7643 23.4109 27.0165C23.4109 27.0165 23.4109 27.0165 23.4109 27.0341H23.4284C23.453 27.048 23.4808 27.0552 23.509 27.0551C23.5264 27.0585 23.5442 27.0585 23.5616 27.0551L23.8103 26.978C23.9749 27.1847 24.1606 27.3879 24.3218 27.584C24.3381 27.6023 24.3581 27.6171 24.3804 27.6273C24.4027 27.6376 24.4268 27.6431 24.4514 27.6436C24.4951 27.6424 24.5371 27.6263 24.5705 27.5981C24.5869 27.5818 24.5999 27.5624 24.6088 27.5411C24.6177 27.5197 24.6223 27.4968 24.6223 27.4737C24.6223 27.4506 24.6177 27.4277 24.6088 27.4063C24.5999 27.385 24.5869 27.3656 24.5705 27.3493C24.4304 27.1917 24.2937 27.0235 24.1571 26.8589L24.2692 26.8204C24.6195 27.3073 25.0189 27.7872 25.4463 28.2602C25.4625 28.2786 25.4824 28.2935 25.5047 28.3037C25.5271 28.314 25.5513 28.3194 25.5759 28.3197C25.6186 28.3189 25.6596 28.3027 25.6915 28.2742C25.7109 28.2552 25.7264 28.2326 25.737 28.2076C25.7574 28.1913 25.7738 28.1705 25.7847 28.1467C25.7956 28.123 25.8009 28.0971 25.8001 28.071C25.8386 28.12 25.8737 28.1726 25.9087 28.2216C25.9256 28.2437 25.9473 28.2615 25.9722 28.2736C25.9972 28.2858 26.0246 28.292 26.0523 28.2917C26.0892 28.292 26.1251 28.2796 26.1539 28.2567C26.1726 28.2431 26.1884 28.226 26.2004 28.2064C26.2125 28.1867 26.2205 28.1648 26.2241 28.142C26.2277 28.1193 26.2267 28.096 26.2213 28.0736C26.2159 28.0512 26.2061 28.0301 26.1925 28.0114C25.8796 27.5874 25.5885 27.1477 25.3202 26.6942C25.6249 26.7153 25.9367 26.7293 26.2625 26.7293C27.1637 26.7242 28.0627 26.6409 28.9494 26.4805C29.7096 27.6821 30.2351 28.3723 30.2491 28.3933C30.2658 28.4144 30.2871 28.4314 30.3114 28.4429C30.3357 28.4545 30.3623 28.4603 30.3892 28.4598C30.4273 28.4607 30.4644 28.4483 30.4944 28.4248C30.5155 28.4081 30.5324 28.3868 30.544 28.3625C30.5555 28.3382 30.5613 28.3116 30.5609 28.2847C30.5725 28.2867 30.5844 28.2867 30.5959 28.2847C30.6168 28.288 30.6381 28.288 30.659 28.2847H30.6765L30.701 28.2637L30.7221 28.2356V28.2041C30.7221 28.2041 30.7221 28.1831 30.7221 28.1726V28.1936L30.7571 28.2146H30.7746C30.7955 28.2179 30.8168 28.2179 30.8377 28.2146H30.8727H30.8902H30.9252L30.9498 28.1936L30.9743 28.1726C30.9814 28.1641 30.9872 28.1546 30.9918 28.1446C30.9931 28.1341 30.9931 28.1235 30.9918 28.113C30.9937 28.1014 30.9937 28.0896 30.9918 28.078C30.9933 28.0711 30.9933 28.0639 30.9918 28.057C30.9918 28.0325 30.9638 27.2688 30.8307 26.0462C30.9988 25.9971 31.1635 25.9446 31.3281 25.8885C31.306 26.5479 31.244 27.2054 31.1424 27.8573C31.1384 27.8801 31.139 27.9034 31.144 27.926C31.1491 27.9486 31.1585 27.9699 31.1719 27.9888C31.1853 28.0077 31.2022 28.0238 31.2218 28.0361C31.2414 28.0484 31.2633 28.0567 31.2861 28.0605H31.4017C31.4427 28.061 31.4826 28.0468 31.5141 28.0205C31.5456 27.9941 31.5666 27.9574 31.5733 27.9169C31.5931 27.9311 31.6159 27.9407 31.6399 27.9449H31.6749C31.7112 27.9441 31.7464 27.9323 31.7758 27.911C31.8052 27.8897 31.8275 27.86 31.8396 27.8258H31.8676H31.9061C31.9459 27.8253 31.9843 27.8116 32.0154 27.7869C32.0465 27.7622 32.0684 27.7278 32.0778 27.6891C32.2494 26.9184 32.3791 26.1828 32.4736 25.4681L32.6418 25.3946C32.5612 26.0111 32.4526 26.6487 32.316 27.3143C32.3114 27.3368 32.3113 27.3601 32.3157 27.3827C32.32 27.4053 32.3288 27.4268 32.3415 27.446C32.3542 27.4651 32.3705 27.4817 32.3896 27.4945C32.4087 27.5074 32.4301 27.5164 32.4526 27.521H32.4877C32.528 27.521 32.5672 27.5071 32.5985 27.4815C32.6297 27.456 32.6512 27.4204 32.6593 27.3809C32.8134 26.6312 32.9326 25.913 33.0096 25.2194L33.1322 25.1634C33.0412 25.7624 32.9396 26.372 32.8064 27.0025C32.8018 27.0251 32.8017 27.0483 32.8061 27.0709C32.8105 27.0935 32.8192 27.115 32.8319 27.1342C32.8446 27.1534 32.861 27.1699 32.88 27.1827C32.8991 27.1956 32.9205 27.2046 32.9431 27.2092H32.9781C33.0183 27.2086 33.0571 27.1944 33.0883 27.169C33.1194 27.1435 33.1411 27.1083 33.1498 27.0691C33.3004 26.3474 33.416 25.6468 33.5001 24.9672L33.8504 24.785C33.7297 25.3952 33.561 25.995 33.3459 26.5786C33.3375 26.6 33.3335 26.6228 33.3341 26.6458C33.3347 26.6687 33.3399 26.6913 33.3494 26.7122C33.3588 26.7331 33.3724 26.7519 33.3893 26.7675C33.4061 26.783 33.4259 26.7951 33.4475 26.8028C33.4683 26.8078 33.4898 26.8078 33.5106 26.8028C33.5463 26.8019 33.581 26.7904 33.6103 26.7698C33.6396 26.7493 33.6622 26.7205 33.6752 26.6872C33.9303 25.9912 34.1226 25.2737 34.2498 24.5433C34.3128 24.5048 34.3759 24.4732 34.4354 24.4347C34.3375 24.9781 34.1801 25.5091 33.966 26.0181C33.9546 26.0448 33.9499 26.0738 33.9522 26.1027C33.9545 26.1316 33.9639 26.1595 33.9794 26.184C33.9949 26.2084 34.0161 26.2288 34.0413 26.2432C34.0664 26.2577 34.0947 26.2658 34.1236 26.2669C34.1578 26.267 34.1913 26.2571 34.2199 26.2384C34.2486 26.2197 34.2711 26.1931 34.2848 26.1618C34.5508 25.5278 34.7356 24.8628 34.8348 24.1825C35.3357 23.8602 35.8176 23.5093 36.2781 23.1315C36.2959 23.117 36.3105 23.099 36.3212 23.0787C36.3319 23.0584 36.3384 23.0362 36.3404 23.0133C36.3424 22.9905 36.3397 22.9675 36.3326 22.9456C36.3255 22.9238 36.3141 22.9036 36.2991 22.8863C36.2838 22.8675 36.2646 22.8521 36.2428 22.8412C36.2211 22.8303 36.1973 22.8242 36.173 22.8232C36.2676 22.7427 36.3692 22.6691 36.4638 22.585C36.4813 22.5702 36.4956 22.5521 36.506 22.5317C36.5164 22.5112 36.5226 22.489 36.5242 22.4661C36.5259 22.4432 36.5229 22.4203 36.5155 22.3986C36.5081 22.3769 36.4965 22.3569 36.4813 22.3398C36.4508 22.3045 36.4077 22.2826 36.3612 22.2786C36.3147 22.2747 36.2686 22.2891 36.2326 22.3188C35.8213 22.6767 35.3884 23.009 34.9364 23.3137L34.9574 23.0755C35.5604 22.6681 36.1329 22.2173 36.6705 21.7267C36.6868 21.7108 36.6997 21.6917 36.7086 21.6706C36.7174 21.6496 36.722 21.627 36.722 21.6041C36.722 21.5813 36.7174 21.5587 36.7086 21.5376C36.6997 21.5166 36.6868 21.4975 36.6705 21.4815C36.6501 21.4587 36.6232 21.4428 36.5934 21.436L36.6985 21.3659C36.7369 21.3402 36.7636 21.3004 36.7728 21.2551C36.7819 21.2099 36.7729 21.1628 36.7475 21.1242C36.7213 21.0875 36.6827 21.0614 36.6389 21.0506L36.73 21.0016C36.7709 20.9788 36.801 20.9408 36.8139 20.8957C36.8267 20.8507 36.8211 20.8025 36.7983 20.7616C36.7756 20.7207 36.7375 20.6906 36.6925 20.6778C36.6475 20.665 36.5992 20.6705 36.5583 20.6933C36.0189 20.9946 35.4864 21.2748 34.9574 21.5446C34.9592 21.5131 34.9592 21.4815 34.9574 21.45C35.5908 21.1565 36.2061 20.8255 36.8001 20.4586ZM34.6281 21.2398L34.481 21.3064C34.481 21.2118 34.481 21.1172 34.481 21.0226L34.6246 20.956C34.6176 21.0506 34.6246 21.1452 34.6281 21.2258V21.2398ZM34.6596 22.1121V22.2277L34.488 22.3223C34.488 22.2767 34.488 22.2347 34.488 22.1892L34.6596 22.1121ZM31.773 24.3261C31.773 24.1965 31.773 24.0634 31.752 23.9302L31.8115 23.9092C31.8115 24.0458 31.8115 24.1755 31.8115 24.3121L31.773 24.3261ZM31.8115 24.6554C31.8115 24.75 31.8115 24.8411 31.8115 24.9321H31.787V24.6624L31.8115 24.6554ZM29.9163 25.9376L29.8813 25.85L30.1861 25.7799L30.2071 25.864C30.109 25.8885 30.0004 25.9165 29.9163 25.9376ZM30.2947 26.1968C30.5154 27.0586 30.645 27.6646 30.701 27.9239L30.0459 26.2598L30.2947 26.1968ZM26.7635 25.1283L27.1383 24.8621L27.7374 24.8165L27.2014 25.1248L26.7635 25.1283ZM32.7189 20.5742C32.6593 20.6478 32.5963 20.7213 32.5332 20.7914C32.5052 20.5076 32.4701 20.2274 32.4246 19.9506C32.4877 19.8771 32.5472 19.8 32.6068 19.7229C32.6628 20.0137 32.6978 20.2974 32.7294 20.5882L32.7189 20.5742ZM32.901 19.3446C32.9956 19.222 33.0867 19.0959 33.1778 18.9662C33.2268 19.257 33.2654 19.5478 33.3004 19.8455C33.2093 19.9646 33.1217 20.0802 33.0306 20.1959C33.0061 19.9191 32.9606 19.6353 32.9115 19.3586L32.901 19.3446ZM24.4934 26.0707H24.5635L24.5144 26.0952L24.4934 26.0707ZM24.2762 25.6853C24.2062 25.5627 24.1361 25.4331 24.0695 25.3035H24.1991C24.2622 25.4366 24.3218 25.5662 24.3883 25.6923L24.2762 25.6853ZM23.8804 24.9321C23.8593 24.8831 23.8348 24.8341 23.8103 24.785H23.9644C23.989 24.8341 24.01 24.8831 24.031 24.9321H23.8804ZM23.6421 24.4207C23.6176 24.3646 23.5896 24.3086 23.5651 24.249L23.7472 24.27C23.7682 24.3261 23.7893 24.3821 23.8138 24.4382L23.6421 24.4207ZM23.4565 23.4888V23.5099H23.2533H23.453L23.4565 23.4888ZM23.4004 23.8567H23.5896V23.8917H23.3934L23.4004 23.8567ZM29.4329 23.2927C29.4644 23.3872 29.4959 23.4818 29.524 23.5729C29.3488 23.615 29.1737 23.65 28.9985 23.685L28.9109 23.4678L29.016 23.3767L29.4329 23.2927ZM28.7918 24.1159L28.6937 24.1825L28.6552 24.1089L28.7813 24.0879L28.7918 24.1159ZM28.5431 23.7656L28.6272 23.699C28.6309 23.7161 28.6368 23.7325 28.6447 23.7481L28.5431 23.7656ZM28.2944 24.1649C28.3259 24.235 28.3609 24.2981 28.3924 24.3646L28.0947 24.4067L27.9861 24.2105L28.2944 24.1649ZM30.5049 23.2576C30.6275 23.156 30.7501 23.0544 30.8552 22.9458L31.2861 22.8232L31.3071 23.0755C31.0408 23.163 30.7711 23.2471 30.5014 23.3207L30.5049 23.2576ZM31.5943 22.2837C31.6294 22.2522 31.6609 22.2172 31.6924 22.1857C31.6924 22.2382 31.6924 22.2872 31.6924 22.3398L31.5908 22.3678L31.5943 22.2837ZM31.6399 22.7286L31.738 22.6971V22.9318L31.6504 22.9599C31.6784 22.8968 31.6749 22.8197 31.6644 22.7427L31.6399 22.7286ZM32.0778 22.5885L32.274 22.5255V22.7392L32.0918 22.8092C32.1023 22.7497 32.1023 22.6761 32.1023 22.6025L32.0778 22.5885ZM32.0463 22.2382C32.0463 22.1506 32.0463 22.0665 32.0217 21.979L32.2564 21.9019C32.2564 21.986 32.2564 22.0736 32.2564 22.1611L32.0463 22.2382ZM30.701 22.6341L30.4033 22.7076C30.4033 22.6376 30.3787 22.5675 30.3647 22.4974L31.0829 22.2872C30.9813 22.4169 30.8552 22.5325 30.7256 22.6446L30.701 22.6341ZM29.8217 23.3627C29.8217 23.3172 29.7937 23.2681 29.7762 23.2191L30.0985 23.1455L29.8217 23.3627ZM28.0701 23.713L27.8565 23.8777H27.8039L27.6603 23.6114L28.0106 23.5589L28.0701 23.713ZM27.4291 23.9302C26.286 24.0374 25.1355 24.0374 23.9925 23.9302C23.9925 23.9092 23.9925 23.8882 23.9679 23.8637H24.1361C25.1906 23.8607 26.2437 23.7893 27.2889 23.65L27.4291 23.9302ZM24.1396 24.3121C24.6546 24.3506 25.1555 24.3751 25.646 24.3751C26.21 24.3751 26.76 24.3471 27.2995 24.2981L26.9982 24.5153C26.0644 24.5702 25.1278 24.5585 24.1956 24.4802L24.1396 24.3121ZM27.7058 24.4312V24.4592H27.6428L27.7058 24.4312ZM29.6396 23.9513C29.6606 24.0178 29.6781 24.0809 29.6991 24.1439L29.2472 24.235C29.4014 24.1474 29.531 24.0528 29.6501 23.9548L29.6396 23.9513ZM29.9899 23.8462L30.2526 23.7761C30.2526 23.8532 30.2771 23.9302 30.2912 24.0038L30.0529 24.0634L29.9899 23.8462ZM30.5924 23.685C30.8552 23.6114 31.1144 23.5344 31.3737 23.4503V23.678C31.1284 23.7621 30.8762 23.8392 30.6205 23.9127C30.624 23.8427 30.6135 23.7656 30.5994 23.678L30.5924 23.685ZM31.7135 23.3347L31.7835 23.3102V23.5379L31.717 23.5624C31.731 23.4888 31.724 23.4153 31.7205 23.3277L31.7135 23.3347ZM32.1268 23.1876L32.295 23.1245C32.295 23.1981 32.295 23.2786 32.295 23.3522L32.1478 23.4083L32.1268 23.1876ZM32.6453 22.9914L32.824 22.9213C32.824 22.9914 32.824 23.0615 32.824 23.1315L32.6523 23.2051L32.6453 22.9914ZM32.6453 22.613V22.4169L32.831 22.3503V22.5395L32.6453 22.613ZM32.6453 22.0455C32.6453 21.9579 32.6453 21.8704 32.6278 21.7828L32.8205 21.7092C32.8205 21.8003 32.8205 21.8914 32.8205 21.9825L32.6453 22.0455ZM32.6033 21.415C32.6033 21.3694 32.6033 21.3239 32.6033 21.2783L32.7854 21.0716L32.8064 21.3414L32.6033 21.415ZM32.2354 21.1592L31.9902 21.4185C31.9587 21.1522 31.9271 20.8825 31.8851 20.6162C31.9692 20.5216 32.0533 20.4271 32.1338 20.329C32.1689 20.6057 32.2039 20.8755 32.2319 21.1627L32.2354 21.1592ZM31.6819 21.7408L31.5628 21.7793C31.5313 21.5516 31.4963 21.3239 31.4577 21.0787L31.5838 20.942C31.6119 21.2258 31.6504 21.485 31.6784 21.7443L31.6819 21.7408ZM31.2195 21.8984C30.9638 21.979 30.7045 22.0525 30.4488 22.1261C30.687 21.8949 30.9217 21.6567 31.1494 21.4255C31.1775 21.5761 31.195 21.7407 31.216 21.9019L31.2195 21.8984ZM30.0529 22.599C30.0529 22.6691 30.081 22.7392 30.0915 22.8057L29.6991 22.8968C29.6917 22.8786 29.6859 22.8599 29.6816 22.8407L29.8988 22.6446L30.0529 22.599ZM28.8864 23.0685L28.7778 23.0895C28.7568 23.0334 28.7358 22.9739 28.7112 22.9178C28.8654 22.8863 29.023 22.8548 29.1772 22.8162L28.8864 23.0685ZM28.4275 23.149L28.2243 23.1841L28.1507 23.0334L28.3644 22.9914L28.4275 23.149ZM27.8635 23.2471L27.5131 23.2927L27.4431 23.1595C27.5622 23.142 27.6778 23.1175 27.7934 23.0965C27.8144 23.149 27.8389 23.1946 27.86 23.2471H27.8635ZM27.1418 23.3417C26.0545 23.48 24.9589 23.5432 23.8628 23.5309V23.4993C24.9422 23.4749 26.0188 23.3801 27.0858 23.2156L27.1418 23.3417ZM23.7297 23.149C23.4243 22.2438 23.1901 21.3162 23.0291 20.3745C23.6982 19.779 24.3743 19.222 25.0469 18.707C25.5888 20.1331 26.2062 21.5294 26.8966 22.8898C25.8465 23.0444 24.7875 23.131 23.7262 23.149H23.7297ZM23.3794 23.149H23.1692C22.9018 22.4005 22.6887 21.6336 22.5316 20.8544L22.7488 20.6478C22.8947 21.4959 23.0996 22.3329 23.3619 23.1525L23.3794 23.149ZM22.7909 23.149H22.6437C22.4069 22.5523 22.2149 21.9387 22.0692 21.3134L22.2304 21.1522C22.3711 21.8258 22.5524 22.4903 22.7733 23.142L22.7909 23.149ZM23.2077 24.228C23.2323 24.2806 23.2533 24.3401 23.2778 24.3927H23.2007L23.1097 24.221L23.2077 24.228ZM23.446 24.764L23.509 24.8936H23.4705C23.446 24.8516 23.4214 24.8095 23.4004 24.764H23.446ZM24.8472 25.7764C24.7772 25.6433 24.7106 25.5102 24.644 25.37C24.9944 25.4051 25.3447 25.4296 25.695 25.4471L25.117 25.7974L24.8472 25.7764ZM24.4724 25.0127L24.3988 24.8516C24.9173 24.8901 25.4288 24.9146 25.9157 24.9146C26.1154 24.9146 26.3046 24.9146 26.4972 24.9146L26.1469 25.1423C25.6004 25.1073 25.0364 25.0793 24.4584 25.0057L24.4724 25.0127ZM28.0772 25.0372L28.1087 25.0863H27.9791L28.0772 25.0372ZM28.3749 24.8516C28.445 24.8095 28.5151 24.7675 28.5816 24.722L28.7358 25.0232L28.4765 25.0513L28.3749 24.8516ZM28.96 24.6624H29.037C29.0791 24.771 29.1211 24.8796 29.1631 24.9812H29.1211L28.96 24.6624ZM29.2893 25.279C29.3068 25.321 29.3208 25.3595 29.3348 25.4016C29.3171 25.3608 29.2972 25.3211 29.2752 25.2825L29.2893 25.279ZM29.7657 25.5312C29.7271 25.4296 29.6851 25.328 29.6431 25.2229L30.0249 25.1528C30.053 25.2509 30.081 25.356 30.109 25.4506L29.7657 25.5312ZM29.517 24.9076L29.3873 24.5818C29.538 24.5538 29.6886 24.5258 29.8358 24.4907C29.8708 24.6099 29.9023 24.7255 29.9338 24.8411C29.7832 24.8586 29.6501 24.8796 29.5029 24.9006L29.517 24.9076ZM30.1756 24.4102L30.3647 24.3611C30.3822 24.4837 30.4033 24.6063 30.4173 24.7114L30.2772 24.7465C30.2316 24.6379 30.1966 24.5223 30.1615 24.4032L30.1756 24.4102ZM30.7045 24.2735C30.9498 24.207 31.188 24.1334 31.4052 24.0564C31.4052 24.1825 31.4227 24.3156 31.4262 24.4417C31.1985 24.5153 30.9743 24.5853 30.7431 24.6449C30.7291 24.5188 30.701 24.3786 30.701 24.2665L30.7045 24.2735ZM32.1759 23.7901L32.288 23.7446C32.288 23.8777 32.288 24.0108 32.2705 24.1439L32.1759 24.1825C32.1584 24.0283 32.1619 23.9162 32.1619 23.7831L32.1759 23.7901ZM32.6488 23.6044L32.8275 23.5274C32.8275 23.657 32.8275 23.7901 32.8029 23.9197C32.7434 23.9478 32.6873 23.9793 32.6278 24.0038C32.6243 23.8637 32.6278 23.7306 32.6348 23.5974L32.6488 23.6044ZM33.1848 23.3732L33.3635 23.2927C33.3635 23.4188 33.3459 23.5414 33.3354 23.6675L33.1638 23.7481L33.1848 23.3732ZM33.1848 22.9844C33.1848 22.9178 33.1848 22.8513 33.1848 22.7847C33.2513 22.7567 33.3179 22.7322 33.3845 22.7006V22.8933L33.1848 22.9844ZM33.1848 22.4029V22.2347L33.4055 22.1506C33.4055 22.2032 33.4055 22.2522 33.4055 22.3083L33.1848 22.4029ZM33.1848 21.8634C33.1848 21.7688 33.1848 21.6777 33.1848 21.5866L33.4335 21.4885C33.4335 21.5831 33.4335 21.6777 33.4335 21.7688L33.1848 21.8634ZM33.1533 21.2258C33.1533 21.0541 33.1252 20.8755 33.1077 20.7108L33.374 20.385C33.374 20.6267 33.3985 20.879 33.409 21.1277L33.1533 21.2258ZM33.6647 20.0067L33.973 19.5793C34.0361 19.9962 34.0816 20.4095 34.1131 20.8194L33.7348 20.9841C33.7103 20.6373 33.6857 20.308 33.6542 19.9892L33.6647 20.0067ZM33.6087 19.4882C33.5701 19.1939 33.5211 18.9067 33.465 18.6194L33.7103 18.2691C33.7768 18.5424 33.8364 18.8191 33.8889 19.0959L33.6087 19.4882ZM33.3669 18.1465C33.0869 16.8838 32.6281 15.6676 32.0042 14.5347L32.1969 14.4436C32.8017 15.4997 33.2724 16.6271 33.5982 17.7997L33.3669 18.1465ZM33.1182 18.4968C33.0236 18.6299 32.9291 18.7631 32.831 18.8927C32.5341 17.474 32.0635 16.0974 31.4297 14.794L31.6959 14.6643C32.362 15.8599 32.8382 17.1516 33.1077 18.4933L33.1182 18.4968ZM31.2791 14.4787L31.1179 14.1669L31.3351 14.0478L31.5278 14.3596L31.2791 14.4787ZM30.9638 14.6363L30.8236 14.7064C30.7816 14.6083 30.7396 14.5067 30.694 14.4086L30.8131 14.342C30.8517 14.4331 30.9042 14.5312 30.9533 14.6328L30.9638 14.6363ZM31.1179 14.9481C31.7845 16.3203 32.2651 17.7753 32.5472 19.2745L32.365 19.5127C32.0679 17.969 31.5978 16.4637 30.9638 15.0252L31.1179 14.9481ZM32.0708 19.8736L31.8186 20.1783C31.5381 18.5042 31.0982 16.8608 30.5049 15.2704L30.6415 15.2003C31.3006 16.6941 31.777 18.2621 32.0603 19.8701L32.0708 19.8736ZM31.5138 20.5252L31.3771 20.6758C31.0668 18.9299 30.5918 17.2174 29.9584 15.5612L30.1931 15.4315C30.8031 17.0808 31.2455 18.7873 31.5138 20.5252ZM31.0794 21.0016C30.8061 21.2923 30.5294 21.5726 30.2526 21.8423C29.8568 19.959 29.3037 18.1122 28.5991 16.3213C28.9494 16.1111 29.2998 15.915 29.6501 15.7293C30.2985 17.4307 30.7772 19.192 31.0794 20.9876V21.0016ZM29.9514 22.1261L29.7342 22.3328L29.5205 22.3853C28.914 20.5768 28.2064 18.8037 27.401 17.0745C27.7093 16.8783 28.0141 16.6857 28.3119 16.507C29.0175 18.3251 29.566 20.2003 29.9514 22.1121V22.1261ZM29.1807 22.4764L28.5746 22.606C27.9756 21.1207 27.2854 19.4287 26.5463 17.6455L27.1033 17.2707C27.8913 18.9603 28.5849 20.6924 29.1807 22.4589V22.4764ZM28.2278 22.6796L27.9931 22.7286C27.3345 21.3519 26.6233 19.779 25.9227 18.0834L26.252 17.8487C26.9702 19.5653 27.6393 21.2258 28.2278 22.6621V22.6796ZM27.6323 22.7882L27.2819 22.8513C26.5604 21.439 25.9183 19.9876 25.3587 18.5038L25.646 18.2936C26.3081 19.9121 26.9982 21.4325 27.6323 22.7707V22.7882ZM25.2221 18.1605L25.4918 17.9503V17.9713L25.2221 18.1605ZM21.7574 21.6111C21.8878 22.1295 22.0492 22.6396 22.2409 23.1385H22.0272C21.859 22.6936 21.7119 22.2487 21.5893 21.7933L21.7574 21.6111ZM22.6788 24.1685C22.7068 24.2245 22.7278 24.2806 22.7558 24.3366L22.5421 24.3051L22.4581 24.1334L22.6788 24.1685ZM22.952 24.7114L23.0186 24.8341L22.7944 24.799C22.7733 24.7605 22.7488 24.722 22.7278 24.6799L22.952 24.7114ZM23.2218 25.2159C23.2883 25.3315 23.3619 25.4436 23.4319 25.5662L23.2042 25.5102C23.1377 25.4051 23.0781 25.3 23.0151 25.1914L23.2218 25.2159ZM23.6807 25.9621C23.7227 26.0286 23.7683 26.0882 23.8103 26.1512L23.5966 26.1057C23.5546 26.0462 23.516 25.9831 23.4775 25.9235L23.6807 25.9621ZM25.681 25.857C25.8737 25.7379 26.0698 25.6118 26.2765 25.4751H26.5533C26.28 25.6153 26.0173 25.7414 25.7616 25.857H25.681ZM27.324 25.4716C27.6498 25.4716 27.9651 25.4401 28.2768 25.4121C28.3469 25.5312 28.4135 25.6433 28.4835 25.7624C27.8388 25.8455 27.1894 25.8876 26.5393 25.8885C26.795 25.7379 27.0577 25.6013 27.324 25.4541V25.4716ZM28.6622 25.3735L28.8969 25.3455L29.0616 25.6713L28.8584 25.7028L28.6622 25.3735ZM29.2297 25.9936L29.2823 26.0952L29.1211 26.1267L29.058 26.0251L29.2297 25.9936ZM30.5259 25.7134C30.5259 25.7134 30.5259 25.7414 30.5259 25.7554V25.7134ZM30.4348 25.363C30.4068 25.2684 30.3823 25.1704 30.3542 25.0758L30.4488 25.0513C30.4488 25.1528 30.4768 25.2509 30.4873 25.349L30.4348 25.363ZM30.7851 24.9707C30.9988 24.9146 31.2125 24.8516 31.4227 24.7885C31.4227 24.8796 31.4227 24.9742 31.4227 25.0653C31.223 25.1318 31.0198 25.1949 30.8166 25.2544C30.8166 25.1563 30.8026 25.0793 30.7921 24.9672L30.7851 24.9707ZM32.1303 25.2334C32.1286 25.2195 32.1286 25.2053 32.1303 25.1914C32.132 25.2053 32.132 25.2195 32.1303 25.2334ZM32.1478 24.813C32.1478 24.7255 32.1478 24.6379 32.1478 24.5503L32.2109 24.5258C32.2109 24.6134 32.2109 24.7079 32.1829 24.799L32.1478 24.813ZM32.5787 24.3786L32.7504 24.3086C32.7504 24.3962 32.7329 24.4802 32.7259 24.5678L32.5542 24.6449C32.5717 24.5433 32.5822 24.4522 32.5893 24.3786H32.5787ZM33.1182 24.1404L33.2689 24.0704C33.2689 24.1579 33.2513 24.242 33.2408 24.3261L33.0937 24.3997C33.1112 24.3016 33.1217 24.214 33.1287 24.1264L33.1182 24.1404ZM33.6332 23.8882C33.7698 23.8181 33.9029 23.7446 34.0361 23.671L34.0045 23.9232C33.8749 23.9968 33.7418 24.0704 33.6052 24.1404C33.6262 24.0283 33.6367 23.9583 33.6437 23.8742L33.6332 23.8882ZM33.6717 23.4818C33.6717 23.3627 33.6717 23.2506 33.6892 23.1315L34.1061 22.9283C34.1061 23.0369 34.0886 23.1455 34.0781 23.2506C33.9555 23.3277 33.8189 23.3907 33.6822 23.4678L33.6717 23.4818ZM34.4634 22.7427L34.6421 22.6446C34.6421 22.7322 34.6421 22.8162 34.6421 22.9038L34.4599 23.0229C34.4635 22.9143 34.4669 22.8232 34.474 22.7286L34.4634 22.7427ZM34.1131 22.522C33.98 22.5955 33.8399 22.6656 33.7033 22.7322V22.5535L34.1061 22.3713C34.1377 22.4064 34.1376 22.4589 34.1341 22.5079L34.1131 22.522ZM33.7208 22.1716V22.0245L34.1236 21.8599V21.9825L33.7208 22.1716ZM33.7208 21.6462C33.7208 21.5516 33.7208 21.4535 33.7208 21.3589L34.1061 21.1943V21.4815L33.7208 21.6462ZM34.5545 20.5952L34.4214 20.6583C34.3794 20.1608 34.3163 19.6599 34.2252 19.1554L34.3093 19.0293C34.4424 19.5548 34.5195 20.0767 34.5755 20.5882L34.5545 20.5952ZM34.2042 18.5529C34.1832 18.5914 34.1587 18.6264 34.1341 18.665C34.0781 18.3917 34.0115 18.122 33.938 17.8487L33.9905 17.7646C34.0886 18.0204 34.1587 18.2831 34.2217 18.5459L34.2042 18.5529ZM33.8259 17.3723C33.5354 16.4017 33.1481 15.4628 32.6698 14.5698C33.1567 15.4384 33.5579 16.3524 33.8679 17.2987L33.8259 17.3723ZM31.7975 13.778L32.0077 14.1284L31.8221 14.2124L31.6259 13.8831L31.7975 13.778ZM31.1319 13.7395L30.9428 13.8446C30.6625 13.3261 30.3647 12.8217 30.06 12.3347C30.4454 12.7845 30.8033 13.2572 31.1319 13.75V13.7395ZM29.6711 12.3768C30.0214 12.9057 30.3332 13.4487 30.638 14.0162L30.5329 14.0793C30.2631 13.5188 29.9794 12.9583 29.6711 12.3873V12.3768ZM30.3717 14.5733C30.4138 14.6643 30.4523 14.7589 30.4944 14.8535L30.3682 14.9166C30.3297 14.8255 30.2947 14.7309 30.2561 14.6398L30.3717 14.5733ZM29.9514 14.822C29.9899 14.9061 30.0214 14.9936 30.0565 15.0812L29.8217 15.2073C29.7902 15.1233 29.7622 15.0392 29.7272 14.9586L29.9514 14.822ZM29.4259 15.1443C29.4539 15.2213 29.4819 15.2984 29.5135 15.3755C29.1807 15.5612 28.8338 15.7573 28.4625 15.971C28.4415 15.9115 28.417 15.8554 28.396 15.7994C28.7638 15.5752 29.1071 15.358 29.4329 15.1548L29.4259 15.1443ZM28.1087 15.9955L28.1717 16.1532C27.867 16.3354 27.5587 16.5315 27.2434 16.7347L27.1909 16.6296C27.5131 16.4159 27.8179 16.2057 28.1157 16.0061L28.1087 15.9955ZM26.9036 16.8363L26.9456 16.9239C26.767 17.043 26.5953 17.1621 26.4026 17.2742L26.3781 17.2076C26.5603 17.099 26.7354 16.9729 26.9106 16.8468L26.9036 16.8363ZM26.0874 17.4389L26.1084 17.4914L25.7966 17.7226C25.7966 17.7226 25.7966 17.6981 25.7966 17.6841L26.0874 17.4389ZM23.9504 13.8656C24.3883 15.1373 24.8612 16.3809 25.3517 17.572L25.096 17.7752C24.6397 16.4967 24.2596 15.1924 23.9574 13.8691L23.9504 13.8656ZM21.1023 22.2732C21.1689 22.1997 21.239 22.1296 21.3055 22.0595C21.4036 22.4099 21.5157 22.7392 21.6558 23.079L21.4036 23.0579C21.2915 22.7917 21.1934 22.5325 21.1093 22.2767L21.1023 22.2732ZM21.803 24.0248L22.0237 24.0669L22.1007 24.235L21.8941 24.2C21.88 24.1229 21.8485 24.0669 21.8205 24.0073L21.803 24.0248ZM22.0972 24.5853L22.2934 24.6239C22.2934 24.6554 22.3249 24.6904 22.3425 24.722L22.1533 24.6869L22.0972 24.5853ZM22.3845 25.0828L22.5562 25.1143C22.6052 25.2054 22.6542 25.293 22.7033 25.3771L22.5456 25.3315L22.3845 25.0828ZM22.9941 25.7799C23.0291 25.8325 23.0641 25.885 23.0956 25.9376L22.9835 25.9025L22.8714 25.7519L22.9941 25.7799ZM23.3969 26.3825L23.5896 26.6417C23.509 26.5506 23.4319 26.456 23.3549 26.3614L23.3969 26.3825ZM25.3692 27.3704C25.2116 27.1497 25.0434 26.9079 24.8718 26.6382H24.9243C25.0574 26.9044 25.2081 27.1462 25.3587 27.3809L25.3692 27.3704ZM25.4848 26.3439L25.8351 26.1898C26.0593 26.1898 26.2835 26.1898 26.5112 26.1898C27.2391 26.1879 27.9659 26.1364 28.6867 26.0356C28.7112 26.0742 28.7323 26.1127 28.7568 26.1477C27.6737 26.3384 26.5727 26.4077 25.4743 26.3544L25.4848 26.3439ZM29.4609 26.3825C29.7131 26.8659 29.9268 27.2583 30.0915 27.556C29.8883 27.2688 29.6326 26.8834 29.3313 26.4105L29.4609 26.3825ZM30.8902 25.6608C30.8902 25.6398 30.8902 25.6153 30.8902 25.5907C31.0759 25.5382 31.2651 25.4786 31.4507 25.4191C31.4507 25.4401 31.4507 25.4576 31.4507 25.4786C31.2475 25.5557 31.0514 25.6153 30.8797 25.6713L30.8902 25.6608ZM32.5297 25.0513C32.5314 25.0385 32.5314 25.0255 32.5297 25.0127L32.7013 24.9427V24.9742L32.5297 25.0513ZM33.0762 24.799V24.7745L33.2128 24.7114V24.729L33.0762 24.799ZM33.5842 24.5328L33.9345 24.3506L33.5842 24.5398V24.5328ZM34.5966 23.5554L34.4039 23.6745C34.4039 23.5904 34.4249 23.5099 34.4319 23.4258L34.6211 23.3137C34.6036 23.4048 34.5931 23.4853 34.5861 23.5659L34.5966 23.5554ZM35.0064 22.6411C35.0064 22.571 35.0064 22.5009 35.0064 22.4274C35.3848 22.2137 35.7526 21.993 36.1134 21.7653C35.7421 22.0876 35.3743 22.3853 34.9959 22.6516L35.0064 22.6411ZM36.0574 21.3939C35.7164 21.6088 35.3661 21.819 35.0064 22.0245C35.0082 21.993 35.0082 21.9614 35.0064 21.9299C35.3463 21.7688 35.6931 21.5761 36.0434 21.4044L36.0574 21.3939ZM34.6561 21.7127L34.495 21.7898V21.6777L34.6526 21.6076C34.6491 21.6532 34.6526 21.6882 34.6526 21.7232L34.6561 21.7127Z" fill="black"/>
<path d="M13.8541 41.835C14.5722 40.0204 16.0611 36.9551 18.4468 35.1229C18.6745 34.9478 19.0913 35.2841 19.0318 35.5994C18.5729 38.0726 19.2455 41.6458 19.5187 42.914C19.5748 43.1802 19.4311 43.3834 19.1929 43.3799L14.9366 43.3274C14.257 43.3204 13.6124 42.4446 13.8541 41.835Z" fill="#E67E33"/>
<path opacity="0.3" d="M13.8541 41.835C14.5722 40.0204 16.0611 36.9551 18.4468 35.1229C18.6745 34.9478 19.0913 35.2841 19.0318 35.5994C18.5729 38.0726 19.2455 41.6458 19.5187 42.914C19.5748 43.1802 19.4311 43.3834 19.1929 43.3799L14.9366 43.3274C14.257 43.3204 13.6124 42.4446 13.8541 41.835Z" fill="black"/>
<path d="M18.6956 53.9524C22.1988 52.411 24.6265 51.0693 24.8472 49.598C25.0679 48.1267 24.9383 45.9021 24.658 45.4643C24.7701 45.5286 24.8873 45.5837 25.0084 45.6289C24.7932 44.9379 24.3236 44.3544 23.6947 43.9964C22.6222 43.3809 21.6441 42.614 20.7905 41.7194C19.7396 40.6124 17.7007 39.5053 15.5358 40.0063C13.3708 40.5073 8.20713 41.8244 7.32784 45.6639C6.44854 49.5034 7.87083 51.9696 9.20904 53.2658C10.5473 54.562 14.3937 55.8407 18.6956 53.9524Z" fill="#E67E33"/>
<path d="M7.68515 47.5486C7.0826 45.5938 6.23133 42.0101 6.63419 38.2967C6.67273 37.9464 7.11763 37.7292 7.26126 37.999C8.39629 40.1009 10.845 41.7719 11.7348 42.3219C11.8276 42.4009 11.8866 42.5125 11.8997 42.6337C11.9127 42.7549 11.8788 42.8765 11.8049 42.9735L9.20202 47.3875C8.77814 48.1056 7.88483 48.2002 7.68515 47.5486Z" fill="#E67E33"/>
<path opacity="0.3" d="M7.68515 47.5486C7.0826 45.5938 6.23133 42.0101 6.63419 38.2967C6.67273 37.9464 7.11763 37.7292 7.26126 37.999C8.39629 40.1009 10.845 41.7719 11.7348 42.3219C11.8276 42.4009 11.8866 42.5125 11.8997 42.6337C11.9127 42.7549 11.8788 42.8765 11.8049 42.9735L9.20202 47.3875C8.77814 48.1056 7.88483 48.2002 7.68515 47.5486Z" fill="black"/>
<path d="M26.308 101.242C30.0354 103.077 33.5421 106.377 43.5577 106.342C50.4729 106.321 56.8697 102.398 58.25 103.214C59.6302 104.03 54.9955 107.505 48.5392 108.795C40.2822 110.441 31.2055 109.471 28.5325 108.182C25.8596 106.892 21.2424 106.864 21.2424 106.864L26.308 101.242Z" fill="#E67E33"/>
<path opacity="0.3" d="M26.308 101.242C30.0354 103.077 33.5421 106.377 43.5577 106.342C50.4729 106.321 56.8697 102.398 58.25 103.214C59.6302 104.03 54.9955 107.505 48.5392 108.795C40.2822 110.441 31.2055 109.471 28.5325 108.182C25.8596 106.892 21.2424 106.864 21.2424 106.864L26.308 101.242Z" fill="black"/>
<path d="M23.9363 49.9518C24.3287 50.6525 26.1293 51.2375 26.6933 52.4286C27.2573 53.6197 29.5449 61.7295 29.3242 63.8279C29.1035 65.9263 28.2733 73.311 29.1386 75.8999C30.0038 78.4887 30.8901 82.9062 30.7675 86.0906C30.6449 89.275 33.8573 99.203 33.4405 102.377C33.0236 105.551 35.8611 107.057 35.735 109.187C35.6089 111.317 31.7239 110.981 30.3261 110.981C28.9284 110.981 26.6303 110.063 26.7144 108.665C26.7235 107.74 26.4308 106.837 25.8806 106.094C25.8806 106.094 23.7787 109.352 18.6536 109.352H8.75708C7.33479 109.352 5.83193 106.598 10.5927 105.887C7.50294 104.384 4.20295 101.627 6.08415 97.6161C7.96536 93.6049 9.04784 90.3084 8.75708 88.6795C8.46632 87.0505 8.37874 84.0027 9.34211 82.1215C10.3055 80.2403 12.2217 75.7317 10.887 73.4371C9.5523 71.1426 9.83606 59.8623 9.96567 57.1894C10.0953 54.5165 9.10039 53.5881 8.76759 53.1678C8.80502 53.517 8.87063 53.8626 8.96377 54.2012C8.96377 54.2012 7.06505 51.4582 7.69212 49.8187C8.31918 48.1792 23.9363 49.9518 23.9363 49.9518Z" fill="#E67E33"/>
<path d="M27.9474 62.0447C28.5429 63.3374 28.5009 65.0084 29.3487 63.6737C30.1964 62.339 32.6382 57.7638 33.2652 56.8845C33.8923 56.0053 35.9802 53.2307 36.6283 51.7279C37.2764 50.225 38.3799 43.5374 38.9088 42.4234C39.4378 41.3094 40.72 40.9731 40.2611 39.3652C39.8022 37.7572 38.0681 36.1072 36.2709 37.0461C34.4738 37.9849 34.2882 40.9521 33.7031 42.5601C33.1181 44.168 32.3019 47.5661 31.7203 47.9865C31.1388 48.4069 28.0035 49.5139 26.9595 49.4298C25.9156 49.3457 23.9713 48.4699 23.8662 49.661C23.7611 50.8521 27.0891 60.1845 27.9474 62.0447Z" fill="#E67E33"/>
<path d="M39.8337 38.8713C40.5554 38.1706 41.5258 38.041 41.8691 38.8713C42.2124 39.7015 39.8337 40.9732 39.8337 40.9732V38.8713Z" fill="#E67E33"/>
<path d="M38.5024 37.7502C38.9088 36.6993 40.7655 35.5082 41.5572 36.461C42.1843 37.2212 39.9037 39.2285 39.9037 39.2285L38.5024 37.7502Z" fill="#E67E33"/>
<path d="M37.49 36.99C37.49 35.8515 38.8142 34.0929 39.8932 34.706C40.7479 35.1964 39.3221 37.8588 39.3221 37.8588L37.49 36.99Z" fill="#E67E33"/>
<path d="M35.6055 37.7748C35.1641 36.4261 35.7036 34.3171 36.9402 34.3171C38.1138 34.3171 37.9912 37.449 37.9912 37.449L35.6055 37.7748Z" fill="#E67E33"/>
<path d="M34.5089 40.3321C33.7487 39.3336 33.584 37.4209 34.6175 37.0601C35.5948 36.7098 36.3901 39.3722 36.3901 39.3722L34.5089 40.3321Z" fill="#E67E33"/>
<path d="M15.5603 73.2373C15.3081 74.4038 15.6479 75.7596 14.7231 74.8207C13.7982 73.8819 11.7138 69.3242 10.1024 69.7236C8.70111 70.0739 7.60812 68.0176 6.5992 66.3886C5.87755 65.2255 3.67755 60.0128 3.03997 59.2036C2.4024 58.3943 1.28839 58.3453 1.37597 56.9475C1.46355 55.5498 2.48297 52.2883 4.09093 52.8348C5.69888 53.3813 6.8164 55.6794 7.50652 56.9335C8.19665 58.1876 8.96035 58.1106 10.5928 57.7007C11.7788 57.4113 12.9123 56.9386 13.9524 56.2994C14.653 55.7775 15.9001 55.6724 16.5027 56.4711C17.1052 57.2698 15.9212 71.5628 15.5603 73.2373Z" fill="#E67E33"/>
<path d="M1.94343 56.4081C1.21477 55.7075 0.191843 55.0839 0.125283 55.9807C0.0201877 57.2734 2.52846 58.6362 2.52846 58.6362L1.94343 56.4081Z" fill="#E67E33"/>
<path d="M3.30954 55.2345C2.68247 54.2851 0.615596 53.539 0.0515851 54.6425C-0.400325 55.5218 2.26559 56.9826 2.26559 56.9826L3.30954 55.2345Z" fill="#E67E33"/>
<path d="M3.86667 54.2747C3.61444 53.1607 1.94342 51.7349 1.02559 52.5686C0.296932 53.2307 2.27273 55.5393 2.27273 55.5393L3.86667 54.2747Z" fill="#E67E33"/>
<path d="M5.19431 54.8947C5.33094 53.4934 4.34654 51.5457 3.13795 51.8154C1.99241 52.0677 2.81215 55.0944 2.81215 55.0944L5.19431 54.8947Z" fill="#E67E33"/>
<path d="M6.39595 56.3627C6.91792 55.2276 6.66219 53.3219 5.57621 53.2098C4.54628 53.0907 4.3501 55.8512 4.3501 55.8512L6.39595 56.3627Z" fill="#E67E33"/>
<path opacity="0.7" d="M39.3151 39.768C39.6058 38.7171 39.0558 37.9114 38.0539 37.512C36.9749 37.0811 35.7839 37.7222 35.952 38.3808C36.1167 38.9763 36.8453 38.8888 37.3953 39.2181C37.7947 39.4423 38.695 42.0206 39.3151 39.768Z" fill="#FAFAFA"/>
<path opacity="0.7" d="M41.1123 38.9167C41.1649 38.4333 40.5168 38.4683 40.1875 38.7696C39.8582 39.0708 39.8371 39.5963 40.2715 39.5017C40.7059 39.4072 41.0703 39.3021 41.1123 38.9167Z" fill="#FAFAFA"/>
<path opacity="0.7" d="M34.7925 37.8134C35.0728 37.4946 35.4336 37.936 35.4301 38.3248C35.4266 38.7137 35.1008 39.0255 34.9081 38.7032C34.7154 38.3809 34.5543 38.0691 34.7925 37.8134Z" fill="#FAFAFA"/>
<path opacity="0.7" d="M40.6432 37.0881C40.6432 36.5627 39.9425 36.6888 39.6307 37.0601C39.3189 37.4314 39.375 37.992 39.8164 37.8343C40.2578 37.6767 40.6537 37.512 40.6432 37.0881Z" fill="#FAFAFA"/>
<path opacity="0.7" d="M36.8317 35.4137C36.3657 35.172 36.131 35.8411 36.3237 36.2895C36.5164 36.7379 37.0243 36.9621 37.0944 36.4962C37.1645 36.0303 37.2065 35.6064 36.8317 35.4137Z" fill="#FAFAFA"/>
<path opacity="0.7" d="M39.3714 35.4872C39.0806 34.9477 38.429 35.4451 38.3029 35.9951C38.1768 36.5451 38.5341 37.0986 38.909 36.6958C39.2838 36.2929 39.6026 35.9391 39.3714 35.4872Z" fill="#FAFAFA"/>
<path opacity="0.7" d="M2.52149 56.9966C2.42683 56.7977 2.37333 56.5817 2.3642 56.3615C2.35507 56.1414 2.3905 55.9217 2.46836 55.7156C2.54622 55.5095 2.66492 55.3212 2.81732 55.1621C2.96972 55.003 3.15269 54.8763 3.35525 54.7896C4.26257 54.3167 5.4011 54.8492 5.32403 55.4903C5.25397 56.0613 4.59537 56.0263 4.14697 56.3696C3.83168 56.6078 3.37627 59.088 2.52149 56.9966Z" fill="#FAFAFA"/>
<path opacity="0.7" d="M0.808324 56.233C0.755776 55.8091 1.32679 55.8266 1.61756 56.0893C1.90832 56.3521 1.93284 56.8075 1.558 56.7304C1.18316 56.6534 0.850362 56.5728 0.808324 56.233Z" fill="#FAFAFA"/>
<path opacity="0.7" d="M5.79681 53.9069C5.37993 53.6722 5.20477 54.1417 5.37292 54.492C5.54107 54.8423 6.00699 55.07 6.07356 54.7337C6.14012 54.3974 6.13311 54.0926 5.79681 53.9069Z" fill="#FAFAFA"/>
<path opacity="0.7" d="M0.997566 54.7127C0.959031 54.2537 1.57909 54.2993 1.88387 54.597C2.18865 54.8948 2.19215 55.3888 1.78928 55.2977C1.38642 55.2066 1.02909 55.084 0.997566 54.7127Z" fill="#FAFAFA"/>
<path opacity="0.7" d="M3.56879 52.4391C3.88057 52.0887 4.26942 52.5827 4.26942 53.0066C4.26942 53.4305 3.89808 53.7738 3.6984 53.4094C3.49872 53.0451 3.32006 52.7123 3.56879 52.4391Z" fill="#FAFAFA"/>
<path opacity="0.7" d="M1.87671 53.0661C2.07989 52.5687 2.69645 52.947 2.85409 53.4164C3.01173 53.8859 2.7525 54.4008 2.38817 54.0856C2.02384 53.7703 1.71206 53.455 1.87671 53.0661Z" fill="#FAFAFA"/>
<path opacity="0.2" d="M13.609 76.3902C13.399 73.6513 13.7311 70.8979 14.5864 68.2874C15.6373 64.9874 13.3427 60.5069 18.1596 58.6362C22.4195 56.9827 24.8156 67.846 23.3688 71.2476C21.922 74.6492 21.9676 81.1511 22.5771 83.9536C23.1867 86.7561 24.115 89.7128 23.9188 93.251C23.7226 96.7892 23.3758 99.823 22.5526 102.58C21.7293 105.337 19.1335 105.957 18.1246 104.773C16.5797 102.955 13.3147 97.1921 14.8876 91.9268C16.436 86.7772 13.7911 79.1578 13.609 76.3902Z" fill="#FAFAFA"/>
<path opacity="0.1" d="M13.1571 46.9672C10.0568 47.871 12.5195 42.5672 15.0734 42.3745C17.6272 42.1818 21.9606 44.3958 13.1571 46.9672Z" fill="black"/>
<path opacity="0.3" d="M15.3502 44.7566C15.1961 44.0104 15.4413 43.0681 16.5273 43.0856C16.8846 43.0891 18.1352 44.8617 15.3502 44.7566Z" fill="black"/>
<path d="M20.6957 43.1276C20.4085 42.525 20.4155 41.8664 21.3158 42.1012C21.6101 42.1817 22.9938 43.7792 20.6957 43.1276Z" fill="#E67E33"/>
<path opacity="0.3" d="M20.6957 43.1276C20.4085 42.525 20.4155 41.8664 21.3158 42.1012C21.6101 42.1817 22.9938 43.7792 20.6957 43.1276Z" fill="black"/>
<path opacity="0.7" d="M21.2005 43.6986C20.4788 43.6986 20.104 43.8247 20.0655 44.2626C20.0269 44.7005 21.1164 44.9633 21.3371 44.7145C21.5578 44.4658 21.8696 43.7091 21.2005 43.6986Z" fill="#FAFAFA"/>
</svg>
