<svg width="24" height="25" viewBox="0 0 24 25" fill="none" xmlns="http://www.w3.org/2000/svg">
<path d="M5.86136 23.216C5.86136 23.4275 5.77733 23.6304 5.62775 23.78C5.47816 23.9296 5.27529 24.0136 5.06374 24.0136H1.66439C1.45285 24.0136 1.24997 23.9296 1.10039 23.78C0.950806 23.6304 0.866771 23.4275 0.866771 23.216V8.9708C0.866771 8.75926 0.950806 8.55638 1.10039 8.4068C1.24997 8.25721 1.45285 8.17318 1.66439 8.17318H5.06223C5.27377 8.17318 5.47665 8.25721 5.62623 8.4068C5.77582 8.55638 5.85985 8.75926 5.85985 8.9708L5.86136 23.216ZM3.36407 6.82918C2.72557 6.82918 2.1014 6.63984 1.57051 6.28511C1.03961 5.93037 0.62583 5.42618 0.381485 4.83628C0.137141 4.24638 0.0732093 3.59727 0.197775 2.97104C0.322341 2.34481 0.629809 1.76957 1.0813 1.31808C1.53279 0.866595 2.10802 0.559126 2.73425 0.434561C3.36049 0.309995 4.0096 0.373927 4.59949 0.618271C5.18939 0.862615 5.69359 1.2764 6.04832 1.80729C6.40305 2.33819 6.59239 2.96235 6.59239 3.60085C6.59239 4.45706 6.25227 5.2782 5.64684 5.88362C5.04141 6.48905 4.22027 6.82918 3.36407 6.82918ZM23.6194 23.2796C23.6194 23.4742 23.5421 23.661 23.4044 23.7986C23.2668 23.9363 23.08 24.0136 22.8854 24.0136H19.2393C19.0446 24.0136 18.8579 23.9363 18.7203 23.7986C18.5826 23.661 18.5053 23.4742 18.5053 23.2796V16.5944C18.5053 15.597 18.7974 12.2264 15.9005 12.2264C13.6529 12.2264 13.1974 14.5345 13.1066 15.5697V23.2765C13.1066 23.4712 13.0292 23.6579 12.8916 23.7956C12.7539 23.9332 12.5672 24.0106 12.3725 24.0106H8.8445C8.64982 24.0106 8.46311 23.9332 8.32545 23.7956C8.18778 23.6579 8.11045 23.4712 8.11045 23.2765V8.90572C8.11045 8.71104 8.18778 8.52433 8.32545 8.38666C8.46311 8.249 8.64982 8.17167 8.8445 8.17167H12.377C12.5717 8.17167 12.7584 8.249 12.8961 8.38666C13.0338 8.52433 13.1111 8.71104 13.1111 8.90572V10.1483C13.6175 9.38291 14.3245 8.77141 15.1549 8.38063C15.9853 7.98986 16.9071 7.83484 17.8196 7.93253C23.6588 7.93253 23.6255 13.3812 23.6255 16.3855V23.2796H23.6194Z" fill="#151515"/>
</svg>
