<svg width="96" height="104" viewBox="0 0 96 104" fill="none" xmlns="http://www.w3.org/2000/svg">
<path d="M32.307 44.8148L30.3892 44.6261V2.38818L32.307 2.57398V44.8148Z" fill="#E0E0E0"/>
<path d="M25.3008 17.4584L18.0069 34.902L13.2123 31.0273C13.0408 30.8891 12.8216 30.8245 12.6026 30.8475C12.3836 30.8706 12.1826 30.9794 12.0436 31.1501C12.0014 31.205 11.9652 31.2643 11.9357 31.3269L1.12378 55.0485V58.2429C1.12378 58.6265 1.39348 58.7823 1.72311 58.5905L5.95739 56.1453L29.7898 42.3876C29.9638 42.273 30.1087 42.1193 30.2127 41.9387C30.3168 41.7582 30.3772 41.5558 30.3891 41.3478V22.5587L26.7512 17.3086C26.6263 17.1275 26.4347 17.0034 26.2183 16.9635C26.002 16.9236 25.7787 16.9712 25.5975 17.0958C25.4649 17.1847 25.3616 17.3109 25.3008 17.4584Z" fill="#E0E0E0"/>
<path d="M3.37427 20.6259V28.8218C4.29424 29.1574 5.47193 28.9986 6.7515 28.2584C9.70321 26.5533 12.0975 22.409 12.0975 18.9988C12.0975 17.4225 11.5881 16.2838 10.746 15.6785L3.9736 19.5741C3.7973 19.6892 3.65096 19.8446 3.54673 20.0276C3.44251 20.2105 3.38338 20.4156 3.37427 20.6259Z" fill="#E0E0E0"/>
<path d="M28.693 18.3123L26.4785 17.0537V19.5919L28.693 18.3123Z" fill="#E0E0E0"/>
<path d="M15.3398 32.2199L13.0924 30.9463L13.0564 33.4695L15.3398 32.2199Z" fill="#E0E0E0"/>
<path d="M33.7619 1.684C33.765 1.65912 33.765 1.63396 33.7619 1.60908C33.7285 1.43331 33.6601 1.26606 33.5608 1.11727C33.4614 0.968491 33.3331 0.841223 33.1835 0.743048L32.1287 0.143717C31.9431 0.0492445 31.7377 0 31.5294 0C31.3211 0 31.1157 0.0492445 30.9301 0.143717L0.609897 17.6352C0.431752 17.7469 0.284427 17.9014 0.181375 18.0847C0.0729508 18.2662 0.0130937 18.4726 0.00756836 18.684V64.0804C0.0194845 64.2884 0.0798847 64.4908 0.183947 64.6713C0.288009 64.8519 0.43285 65.0056 0.6069 65.1202L1.65573 65.7195C1.81879 65.8022 1.99711 65.8504 2.1796 65.8612C2.36209 65.8721 2.54485 65.8453 2.71655 65.7825L2.7585 65.7675L2.85739 65.7195L16.1925 58.0451L33.1805 48.24C33.3549 48.1258 33.5 47.9722 33.6041 47.7915C33.7082 47.6109 33.7684 47.4084 33.7799 47.2002V1.77989C33.7687 1.74912 33.7626 1.71673 33.7619 1.684ZM32.3085 42.8221C32.2966 43.0301 32.2362 43.2325 32.1321 43.4131C32.0281 43.5936 31.8832 43.7473 31.7092 43.8619L16.2075 52.8159L3.97514 59.8761C3.64551 60.0678 3.37581 59.912 3.37581 59.5285V20.6259C3.38773 20.4178 3.44813 20.2154 3.55219 20.0349C3.65625 19.8543 3.80109 19.7006 3.97514 19.586L31.7062 3.57189C32.0388 3.37711 32.3055 3.53294 32.3055 3.91651L32.3085 42.8221Z" fill="#F5F5F5"/>
<path d="M16.2059 52.816C16.2059 54.6529 16.1879 56.412 16.1789 58.0301L2.84982 65.7315L2.75093 65.7795L2.70898 65.7945C2.53729 65.8573 2.35452 65.8841 2.17203 65.8732C1.98954 65.8624 1.81123 65.8142 1.64816 65.7315L0.599331 65.1322C0.425282 65.0176 0.280443 64.8639 0.176381 64.6834C0.0723187 64.5028 0.0119161 64.3004 0 64.0924V18.684C0.00552531 18.4727 0.0653825 18.2663 0.173807 18.0847L2.4243 19.3883L3.55403 20.0385C3.44315 20.2192 3.38214 20.426 3.37723 20.6379V59.5435C3.37723 59.927 3.64693 60.0829 3.97656 59.8911L16.2059 52.816Z" fill="#E0E0E0"/>
<path d="M27.5511 18.7351L20.2573 36.1697L15.4626 32.295C15.3776 32.2259 15.2797 32.1743 15.1747 32.1433C15.0696 32.1122 14.9595 32.1022 14.8505 32.1139C14.7416 32.1256 14.6361 32.1588 14.54 32.2114C14.444 32.2641 14.3593 32.3353 14.2909 32.4208C14.2481 32.4742 14.2118 32.5326 14.183 32.5946L3.37109 56.3222V62.5402C3.37109 62.9208 3.64079 63.0766 3.97042 62.8848L8.2047 60.4426L31.7075 46.8677C31.8815 46.7531 32.0264 46.5994 32.1304 46.4188C32.2345 46.2383 32.2949 46.0359 32.3068 45.8279V24.0182L29.0105 18.5823C28.8865 18.3995 28.6949 18.2735 28.478 18.2319C28.2611 18.1904 28.0366 18.2366 27.8538 18.3605C27.7186 18.4533 27.6134 18.5834 27.5511 18.7351Z" fill="#F5F5F5"/>
<path d="M33.7603 1.68397C33.7635 1.65909 33.7635 1.63392 33.7603 1.60905C33.6884 1.35733 33.4607 1.27342 33.182 1.43524L2.84982 18.9387C2.67357 19.051 2.52705 19.2041 2.4227 19.3852C2.31836 19.5662 2.25928 19.7698 2.25049 19.9786V65.3779C2.25049 65.7045 2.44827 65.8663 2.70898 65.7884H2.75093L2.84982 65.7405L16.1909 58.0451L33.179 48.24C33.3534 48.1258 33.4984 47.9721 33.6026 47.7915C33.7067 47.6109 33.7669 47.4083 33.7783 47.2002V1.77986C33.7671 1.74909 33.761 1.7167 33.7603 1.68397ZM32.3069 45.8187C32.295 46.0268 32.2346 46.2291 32.1306 46.4097C32.0265 46.5902 31.8817 46.744 31.7076 46.8586L16.2059 55.8126L3.97357 62.8727C3.64393 63.0645 3.37423 62.9087 3.37423 62.5251V20.6258C3.38615 20.4178 3.44655 20.2154 3.55062 20.0349C3.65468 19.8543 3.79952 19.7006 3.97357 19.586L31.7046 3.57186C32.0373 3.37708 32.304 3.5329 32.304 3.91648L32.3069 45.8187Z" fill="#F0F0F0"/>
<path d="M40.1911 49.3639L38.2732 49.1751V6.93726L40.1911 7.12305V49.3639Z" fill="#E0E0E0"/>
<path d="M33.1848 22.0072L25.891 39.4657L21.0963 35.591C20.9245 35.4532 20.705 35.3891 20.486 35.4127C20.267 35.4363 20.0662 35.5457 19.9276 35.7169C19.8854 35.7707 19.8493 35.829 19.8197 35.8907L9.00781 59.5943V62.7887C9.00781 63.1723 9.27751 63.3281 9.60714 63.1363L13.8414 60.691L37.6738 46.9334C37.8482 46.8191 37.9933 46.6655 38.0974 46.4849C38.2015 46.3043 38.2617 46.1017 38.2732 45.8935V27.1045L34.6352 21.8544C34.5505 21.7314 34.4343 21.6336 34.2986 21.5712C34.163 21.5087 34.0131 21.484 33.8646 21.4997C33.7161 21.5153 33.5746 21.5707 33.455 21.66C33.3354 21.7494 33.242 21.8693 33.1848 22.0072Z" fill="#E0E0E0"/>
<path d="M11.2583 25.1748V33.3706C12.1783 33.7063 13.356 33.5474 14.6355 32.8073C17.5782 31.1022 19.9756 26.9578 19.9756 23.5476C19.9756 21.9713 19.4661 20.8326 18.6241 20.2273L11.8516 24.1229C11.677 24.2392 11.5322 24.3951 11.4291 24.5778C11.326 24.7606 11.2675 24.9651 11.2583 25.1748Z" fill="#E0E0E0"/>
<path d="M36.5771 22.8614L34.3625 21.6028V24.141L36.5771 22.8614Z" fill="#E0E0E0"/>
<path d="M23.2241 36.7689L20.9766 35.4954L20.9407 38.0185L23.2241 36.7689Z" fill="#E0E0E0"/>
<path d="M41.6415 6.2328C41.6446 6.20793 41.6446 6.18276 41.6415 6.15789C41.606 5.98449 41.5366 5.81979 41.4374 5.67324C41.3381 5.52669 41.211 5.40116 41.0631 5.30384L40.0083 4.70451C39.8226 4.61004 39.6173 4.56079 39.409 4.56079C39.2007 4.56079 38.9953 4.61004 38.8096 4.70451L8.49247 22.184C8.31496 22.2965 8.1678 22.4508 8.06394 22.6335C7.95638 22.8154 7.89658 23.0216 7.89014 23.2328V68.6292C7.90159 68.8373 7.96179 69.0399 8.0659 69.2205C8.17 69.4011 8.31509 69.5548 8.48947 69.669L9.5383 70.2683C9.70113 70.3517 9.8795 70.4003 10.0621 70.4111C10.2447 70.422 10.4276 70.3948 10.5991 70.3313L10.6411 70.3163L10.74 70.2683L24.0751 62.5789L41.0631 52.7739C41.2375 52.6596 41.3826 52.506 41.4867 52.3254C41.5908 52.1447 41.651 51.9422 41.6624 51.734V6.32869C41.6502 6.2981 41.6432 6.2657 41.6415 6.2328ZM40.1911 47.3709C40.1796 47.5791 40.1194 47.7816 40.0153 47.9622C39.9112 48.1428 39.7661 48.2965 39.5918 48.4107L24.0901 57.3647L11.8577 64.4249C11.5281 64.6166 11.2584 64.4608 11.2584 64.0772V25.1747C11.2705 24.9667 11.331 24.7644 11.4351 24.5839C11.5391 24.4034 11.6838 24.2496 11.8577 24.1348L39.5888 8.1207C39.9214 7.92591 40.1881 8.08174 40.1881 8.46531L40.1911 47.3709Z" fill="#F5F5F5"/>
<path d="M24.0899 57.3648C24.0899 59.2017 24.072 60.9608 24.063 62.579L10.7339 70.2804L10.635 70.3283L10.593 70.3433C10.4215 70.4068 10.2386 70.434 10.056 70.4232C9.8734 70.4123 9.69503 70.3637 9.53219 70.2804L8.48336 69.681C8.30899 69.5668 8.16389 69.4132 8.05979 69.2325C7.95569 69.0519 7.89548 68.8494 7.88403 68.6412V23.2329C7.89048 23.0216 7.95027 22.8155 8.05784 22.6335L10.3083 23.9341L11.4381 24.5844C11.3282 24.7655 11.2673 24.972 11.2613 25.1837V64.0773C11.2613 64.4609 11.531 64.6167 11.8606 64.4249L24.0899 57.3648Z" fill="#E0E0E0"/>
<path d="M35.4354 23.2838L28.1415 40.7274L23.3469 36.8527C23.1745 36.7147 22.9546 36.6505 22.7351 36.6741C22.5156 36.6977 22.3143 36.8071 22.1752 36.9786C22.1336 37.0328 22.0975 37.0911 22.0673 37.1524L11.2554 60.8709V67.074C11.2554 67.4546 11.5251 67.6104 11.8547 67.4186L16.08 64.9763L39.5828 51.4015C39.7571 51.2872 39.9022 51.1336 40.0063 50.953C40.1104 50.7723 40.1706 50.5698 40.1821 50.3616V28.5669L36.8858 23.131C36.7613 22.9488 36.5695 22.8234 36.3527 22.7823C36.1358 22.7413 35.9115 22.788 35.7291 22.9123C35.598 23.0058 35.4961 23.1347 35.4354 23.2838Z" fill="#F5F5F5"/>
<path d="M41.6414 6.23304C41.6445 6.20816 41.6445 6.183 41.6414 6.15812C41.5694 5.9064 41.3417 5.8225 41.063 5.98432L10.7339 23.4878C10.5581 23.6006 10.412 23.7539 10.3077 23.9348C10.2034 24.1157 10.1441 24.319 10.1345 24.5276V69.927C10.1345 70.2536 10.3323 70.4154 10.593 70.3375H10.635L10.7339 70.2896L24.075 62.5941L41.063 52.7891C41.2374 52.6748 41.3825 52.5212 41.4866 52.3406C41.5907 52.16 41.6509 51.9574 41.6623 51.7492V6.32893C41.6501 6.29834 41.643 6.26594 41.6414 6.23304ZM40.191 50.3678C40.1795 50.576 40.1193 50.7785 40.0152 50.9591C39.9111 51.1397 39.766 51.2934 39.5917 51.4076L24.0899 60.3616L11.8576 67.4218C11.528 67.6135 11.2583 67.4577 11.2583 67.0741V25.1749C11.2704 24.9669 11.3309 24.7646 11.435 24.5841C11.539 24.4036 11.6837 24.2498 11.8576 24.1351L39.5887 8.12093C39.9213 7.92615 40.188 8.08198 40.188 8.46555L40.191 50.3678Z" fill="#F0F0F0"/>
<path d="M48.0783 53.9098L46.1604 53.721V11.4832L48.0783 11.6689V53.9098Z" fill="#3D3F40"/>
<path d="M41.072 26.5533L33.7782 43.9969L28.9835 40.1222C28.812 39.9841 28.5928 39.9194 28.3738 39.9425C28.1548 39.9655 27.9538 40.0743 27.8148 40.2451C27.7726 40.2999 27.7364 40.3592 27.707 40.4219L16.895 64.1404V67.3348C16.895 67.7184 17.1647 67.8742 17.4944 67.6824L21.7286 65.2372L45.561 51.4795C45.7354 51.3653 45.8805 51.2116 45.9846 51.031C46.0887 50.8504 46.1489 50.6478 46.1604 50.4397V31.6507L42.5224 26.4005C42.4377 26.2776 42.3215 26.1797 42.1858 26.1173C42.0502 26.0549 41.9003 26.0302 41.7518 26.0458C41.6033 26.0615 41.4618 26.1169 41.3422 26.2062C41.2226 26.2955 41.1292 26.4154 41.072 26.5533Z" fill="#055EFF"/>
<path d="M19.1455 29.7207V37.9165C20.0655 38.2522 21.2432 38.0933 22.5227 37.3532C25.4744 35.6481 27.8688 31.5037 27.8688 28.0935C27.8688 26.5172 27.3593 25.3785 26.5173 24.7732L19.7448 28.6688C19.5687 28.7841 19.4225 28.9396 19.3183 29.1225C19.2141 29.3053 19.1549 29.5104 19.1455 29.7207Z" fill="#055EFF"/>
<path opacity="0.5" d="M41.072 26.5533L33.7782 43.9969L28.9835 40.1222C28.812 39.9841 28.5928 39.9194 28.3738 39.9425C28.1548 39.9655 27.9538 40.0743 27.8148 40.2451C27.7726 40.2999 27.7364 40.3592 27.707 40.4219L16.895 64.1404V67.3348C16.895 67.7184 17.1647 67.8742 17.4944 67.6824L21.7286 65.2372L45.561 51.4795C45.7354 51.3653 45.8805 51.2116 45.9846 51.031C46.0887 50.8504 46.1489 50.6478 46.1604 50.4397V31.6507L42.5224 26.4005C42.4377 26.2776 42.3215 26.1797 42.1858 26.1173C42.0502 26.0549 41.9003 26.0302 41.7518 26.0458C41.6033 26.0615 41.4618 26.1169 41.3422 26.2062C41.2226 26.2955 41.1292 26.4154 41.072 26.5533Z" fill="white"/>
<path d="M44.4643 27.4073L42.2498 26.1487V28.6868L44.4643 27.4073Z" fill="#055EFF"/>
<path d="M31.1113 41.3148L28.8638 40.0413L28.8279 42.5644L31.1113 41.3148Z" fill="#055EFF"/>
<path opacity="0.5" d="M44.4643 27.4073L42.2498 26.1487V28.6868L44.4643 27.4073Z" fill="white"/>
<path opacity="0.5" d="M31.1113 41.3148L28.8638 40.0413L28.8279 42.5644L31.1113 41.3148Z" fill="white"/>
<path d="M49.5287 10.7787C49.5318 10.7539 49.5318 10.7287 49.5287 10.7038C49.4947 10.5283 49.426 10.3613 49.3267 10.2126C49.2274 10.0639 49.0994 9.93646 48.9503 9.83777L47.8955 9.23844C47.7098 9.14397 47.5045 9.09473 47.2962 9.09473C47.0879 9.09473 46.8825 9.14397 46.6968 9.23844L16.3797 26.7299C16.2015 26.8416 16.0542 26.9962 15.9512 27.1794C15.8432 27.3612 15.7834 27.5675 15.7773 27.7788V73.1751C15.7888 73.3833 15.849 73.5858 15.9531 73.7664C16.0572 73.9471 16.2023 74.1007 16.3767 74.215L17.4255 74.8143C17.5886 74.8969 17.7669 74.9452 17.9494 74.956C18.1319 74.9668 18.3146 74.94 18.4863 74.8772L18.5283 74.8622L18.6272 74.8143L31.9623 67.1249L48.9503 57.3198C49.1247 57.2055 49.2698 57.0519 49.3739 56.8713C49.478 56.6907 49.5382 56.4881 49.5497 56.28V10.8746C49.5374 10.844 49.5303 10.8116 49.5287 10.7787ZM48.0783 51.9168C48.0668 52.125 48.0066 52.3275 47.9025 52.5082C47.7984 52.6888 47.6533 52.8424 47.479 52.9567L31.9773 61.9107L19.7449 68.9708C19.4153 69.1626 19.1456 69.0068 19.1456 68.6232V29.7206C19.1575 29.5125 19.2179 29.3102 19.322 29.1296C19.426 28.9491 19.5709 28.7954 19.7449 28.6807L47.476 12.6666C47.8086 12.4718 48.0753 12.6277 48.0753 13.0112L48.0783 51.9168Z" fill="#455A64"/>
<path d="M31.9772 61.9107C31.9772 63.7476 31.9592 65.5067 31.9502 67.1249L18.6211 74.8263L18.5222 74.8742H18.4802C18.3085 74.937 18.1258 74.9638 17.9433 74.953C17.7608 74.9422 17.5825 74.8939 17.4194 74.8113L16.3706 74.212C16.1962 74.0977 16.0511 73.9441 15.947 73.7635C15.8429 73.5828 15.7827 73.3803 15.7712 73.1721V27.7788C15.7773 27.5675 15.8371 27.3612 15.945 27.1794L18.1955 28.48L19.3253 29.1303C19.2144 29.3109 19.1534 29.5177 19.1485 29.7296V68.6232C19.1485 69.0068 19.4182 69.1626 19.7478 68.9708L31.9772 61.9107Z" fill="#3D3F40"/>
<path opacity="0.7" d="M19.1455 29.7207V37.9165C20.0655 38.2522 21.2432 38.0933 22.5227 37.3532C25.4744 35.6481 27.8688 31.5037 27.8688 28.0935C27.8688 26.5172 27.3593 25.3785 26.5173 24.7732L19.7448 28.6688C19.5687 28.7841 19.4225 28.9396 19.3183 29.1225C19.2141 29.3053 19.1549 29.5104 19.1455 29.7207Z" fill="white"/>
<path d="M43.3226 27.8298L36.0287 45.2733L31.2341 41.3986C31.1489 41.3299 31.051 41.2787 30.946 41.2478C30.841 41.217 30.731 41.2071 30.6222 41.2188C30.5134 41.2305 30.4079 41.2635 30.3119 41.3159C30.2158 41.3684 30.131 41.4393 30.0624 41.5245C30.0202 41.5783 29.984 41.6366 29.9545 41.6983L19.1426 65.4168V71.6199C19.1426 72.0005 19.4123 72.1563 19.7419 71.9645L23.9762 69.5222L47.479 55.9474C47.653 55.8328 47.7978 55.6791 47.9019 55.4985C48.006 55.318 48.0664 55.1156 48.0783 54.9075V33.1129L44.782 27.6769C44.6973 27.5525 44.5804 27.4534 44.4439 27.3901C44.3074 27.3268 44.1563 27.3016 44.0066 27.3173C43.8569 27.3329 43.7143 27.3889 43.5939 27.4791C43.4734 27.5693 43.3797 27.6905 43.3226 27.8298Z" fill="#055EFF"/>
<path d="M49.5286 10.7787C49.5317 10.7538 49.5317 10.7286 49.5286 10.7038C49.4566 10.4521 49.2289 10.3682 48.9502 10.53L18.6211 28.0334C18.4452 28.1461 18.2989 28.2993 18.1946 28.4803C18.0903 28.6612 18.031 28.8646 18.0217 29.0733V74.4726C18.0217 74.7993 18.2195 74.9611 18.4802 74.8832L18.5222 74.8682L18.6211 74.8202L31.9622 67.1248L48.9502 57.3198C49.1246 57.2055 49.2697 57.0519 49.3738 56.8713C49.4779 56.6906 49.5381 56.4881 49.5495 56.2799V10.8746C49.5373 10.844 49.5302 10.8116 49.5286 10.7787ZM48.0782 54.9134C48.0667 55.1216 48.0065 55.3242 47.9024 55.5048C47.7983 55.6854 47.6532 55.839 47.4789 55.9533L31.9772 64.9073L19.7448 71.9674C19.4152 72.1592 19.1455 72.0034 19.1455 71.6198V29.7206C19.1574 29.5125 19.2178 29.3101 19.3219 29.1296C19.4259 28.949 19.5708 28.7953 19.7448 28.6807L47.4759 12.6666C47.8085 12.4718 48.0752 12.6276 48.0752 13.0112L48.0782 54.9134Z" fill="#37474F"/>
<path d="M26.2687 83.7475V103.295C26.2687 103.789 26.5684 104.017 26.9849 103.864C26.7312 103.964 26.4591 104.01 26.1865 103.998C25.9138 103.986 25.6468 103.917 25.4027 103.795L24.6985 103.388C24.4472 103.223 24.2381 103.002 24.0882 102.741C23.9383 102.481 23.8517 102.189 23.8354 101.889V82.3421C23.8472 82.0409 23.9337 81.7474 24.0872 81.488L26.5235 82.8935C26.3664 83.1515 26.2786 83.4456 26.2687 83.7475Z" fill="#3D3F40"/>
<path d="M59.4717 60.7572C59.7397 60.6213 60.0359 60.5505 60.3363 60.5505C60.6367 60.5505 60.9329 60.6213 61.2008 60.7572L61.908 61.1647C62.136 61.315 62.3296 61.5117 62.4763 61.7421C62.623 61.9724 62.7193 62.2311 62.7591 62.5012C62.6901 62.0697 62.3335 61.9169 61.908 62.1626L27.1198 82.2402C26.8689 82.4009 26.6627 82.6226 26.5205 82.8845L24.0842 81.4791C24.2283 81.2185 24.4341 80.9972 24.6836 80.8348L59.4717 60.7572Z" fill="#455A64"/>
<path d="M26.2688 83.7475V103.295C26.2688 103.846 26.6554 104.071 27.1348 103.795L61.923 83.7175C62.1743 83.553 62.3834 83.3316 62.5333 83.0713C62.6832 82.811 62.7698 82.5191 62.786 82.2192V62.663C62.786 62.1116 62.3995 61.8899 61.923 62.1656L27.1348 82.2432C26.8817 82.4074 26.6712 82.6295 26.5206 82.891C26.3701 83.1525 26.2837 83.4461 26.2688 83.7475Z" fill="#37474F"/>
<path d="M57.383 65.7136C57.6826 65.5457 57.9014 65.6806 57.9014 66.0132V84.4906C57.8919 84.6707 57.84 84.846 57.7499 85.0022C57.6598 85.1585 57.5341 85.2912 57.383 85.3896L31.6417 100.253C31.342 100.418 31.1233 100.283 31.1233 99.9534V81.473C31.1328 81.2929 31.1847 81.1176 31.2748 80.9613C31.3649 80.8051 31.4906 80.6724 31.6417 80.574L57.383 65.7136Z" fill="#F5F5F5"/>
<path d="M27.5723 92.7615C27.5782 92.6564 27.6084 92.5542 27.6604 92.4627C27.7123 92.3712 27.7847 92.293 27.8719 92.2341C28.0397 92.1382 28.1716 92.2161 28.1716 92.4109C28.1656 92.5159 28.1355 92.6182 28.0835 92.7097C28.0315 92.8012 27.9591 92.8794 27.8719 92.9383C27.7101 93.0342 27.5723 92.9563 27.5723 92.7615Z" fill="#3D3F40"/>
<path d="M59.1392 74.5267C59.1588 74.1072 59.2777 73.6983 59.4861 73.3336C59.6944 72.969 59.9864 72.659 60.3378 72.429C61.0001 72.0455 61.5365 72.3571 61.5365 73.1243C61.5138 73.5406 61.3935 73.9458 61.1853 74.3071C60.977 74.6684 60.6867 74.9756 60.3378 75.2039C59.6756 75.6145 59.1392 75.3028 59.1392 74.5267Z" fill="#3D3F40"/>
<path d="M28.813 88.728C28.8233 88.5175 28.8829 88.3124 28.987 88.1292C29.0911 87.946 29.2368 87.7898 29.4123 87.6732C29.7479 87.4784 30.0117 87.6372 30.0117 88.0238C30.0013 88.2342 29.9417 88.4393 29.8376 88.6226C29.7335 88.8058 29.5878 88.962 29.4123 89.0786C29.0857 89.2734 28.813 89.1146 28.813 88.728Z" fill="#3D3F40"/>
<path d="M29.4451 90.0825C29.6669 89.9506 29.8497 90.0825 29.8497 90.3462V94.97C29.8436 95.1154 29.8039 95.2573 29.7337 95.3847C29.6635 95.512 29.5647 95.6214 29.4451 95.7042C29.2204 95.8331 29.0376 95.7042 29.0376 95.4375V90.8167C29.0421 90.6707 29.0815 90.5279 29.1524 90.4002C29.2233 90.2725 29.3237 90.1636 29.4451 90.0825Z" fill="#3D3F40"/>
<path d="M31.1233 81.4731V85.4766C31.6807 85.8662 32.4838 85.8512 33.3768 85.3327C35.0579 84.3648 36.4214 82.0035 36.4214 80.0616C36.4214 79.2076 36.1547 78.5633 35.7172 78.2217L31.6417 80.5741C31.4904 80.6723 31.3646 80.805 31.2745 80.9613C31.1843 81.1175 31.1325 81.2929 31.1233 81.4731Z" fill="#055EFF"/>
<path opacity="0.7" d="M31.1233 81.4731V85.4766C31.6807 85.8662 32.4838 85.8512 33.3768 85.3327C35.0579 84.3648 36.4214 82.0035 36.4214 80.0616C36.4214 79.2076 36.1547 78.5633 35.7172 78.2217L31.6417 80.5741C31.4904 80.6723 31.3646 80.805 31.2745 80.9613C31.1843 81.1175 31.1325 81.2929 31.1233 81.4731Z" fill="white"/>
<path d="M57.9014 77.8889L53.5113 72.5579C53.4826 72.5079 53.4441 72.4642 53.3981 72.4293C53.3522 72.3945 53.2998 72.3692 53.2439 72.3549C53.188 72.3407 53.1299 72.3378 53.0729 72.3464C53.0159 72.355 52.9612 72.3749 52.912 72.405C52.8154 72.4624 52.7446 72.5546 52.7142 72.6628L46.9456 85.3326L41.5067 82.1951C41.3291 82.0965 41.1215 82.0665 40.9233 82.1107C40.725 82.1548 40.5498 82.2702 40.4309 82.4349L31.1233 95.8659V99.9503C31.1233 100.283 31.354 100.418 31.6417 100.25L57.383 85.3866C57.5341 85.2881 57.6598 85.1554 57.7499 84.9992C57.84 84.8429 57.8919 84.6676 57.9014 84.4876V77.8949V77.8889Z" fill="#055EFF"/>
<path d="M32.8254 84.6316V81.8207L35.2587 80.4153" stroke="white" stroke-width="0.449498" stroke-linecap="round" stroke-linejoin="round"/>
<path d="M32.8254 95.0239V97.8348L35.2587 96.4294" stroke="white" stroke-width="0.449498" stroke-linecap="round" stroke-linejoin="round"/>
<path d="M53.8259 69.7621L56.2592 68.3567V71.1676" stroke="white" stroke-width="0.449498" stroke-linecap="round" stroke-linejoin="round"/>
<path d="M56.2592 81.53V84.3409L53.8259 85.7463" stroke="white" stroke-width="0.449498" stroke-linecap="round" stroke-linejoin="round"/>
<path d="M68.923 35.6961C68.923 39.5558 66.226 44.2455 62.8757 46.1844C61.4853 46.9875 60.2087 47.1853 59.1898 46.8646C58.3987 46.1424 57.9282 44.9318 57.9282 43.3256C57.9282 39.4719 60.6252 34.7791 63.9785 32.8373C65.3659 32.0372 66.6455 31.8394 67.6674 32.16C68.4555 32.8882 68.923 34.0929 68.923 35.6961Z" fill="#055EFF"/>
<path d="M70.0196 36.3341C70.0196 40.1908 67.3226 44.8776 63.9724 46.8075C62.3242 47.7574 60.8319 47.8623 59.7411 47.2599L59.6512 47.209C59.4834 47.1067 59.3268 46.9871 59.1837 46.8524C58.3926 46.1302 57.9221 44.9196 57.9221 43.3133C57.9221 39.4596 60.6191 34.7669 63.9724 32.8251C65.3598 32.0249 66.6394 31.8272 67.6613 32.1478C67.8316 32.1988 67.9962 32.2671 68.1527 32.3516L68.1797 32.3666L68.3505 32.4655C69.3903 33.1367 70.0196 34.4642 70.0196 36.3341Z" fill="#055EFF"/>
<path d="M67.2327 31.8332L67.0499 31.7283C65.9681 31.1589 64.4968 31.2728 62.8786 32.2078C59.5313 34.1346 56.8343 38.8244 56.8343 42.6811C56.8258 43.3231 56.9147 43.9626 57.098 44.578C57.2917 45.2439 57.6686 45.842 58.1858 46.304C58.3019 46.4033 58.4262 46.4925 58.5574 46.5707H58.5784L58.6053 46.5887L58.7072 46.6457L59.6542 47.194C59.4864 47.0917 59.3297 46.9722 59.1867 46.8374C58.3956 46.1152 57.9251 44.9046 57.9251 43.2984C57.9251 39.4447 60.6221 34.7519 63.9753 32.8101C65.3628 32.01 66.6424 31.8122 67.6642 32.1328C67.8345 32.1839 67.9992 32.2522 68.1557 32.3366L67.2327 31.8332Z" fill="#455A64"/>
<path d="M58.1799 46.304C58.296 46.4033 58.4203 46.4925 58.5515 46.5707L56.4089 45.3331H56.3849C55.3091 44.6948 54.6409 43.3463 54.6409 41.4374C54.6409 37.5837 57.3379 32.891 60.6881 30.9491C61.4998 30.4439 62.4296 30.1598 63.3851 30.1251C63.9377 30.1175 64.4825 30.256 64.9644 30.5266L67.062 31.7253C65.9802 31.1559 64.5089 31.2698 62.8907 32.2047C59.5314 34.1346 56.8344 38.8243 56.8344 42.681C56.8259 43.323 56.9148 43.9626 57.0981 44.5779C57.2858 45.2451 57.6613 45.8443 58.1799 46.304Z" fill="#3D3F40"/>
<path d="M76.6124 40.143C76.6124 43.9996 73.9154 48.6864 70.5651 50.6312C69.7536 51.1374 68.8239 51.4225 67.8681 51.4583C67.3199 51.464 66.7798 51.3266 66.3009 51.0598L59.7472 47.257L59.6573 47.2061C59.4895 47.1037 59.3329 46.9842 59.1898 46.8495C58.3987 46.1273 57.9282 44.9166 57.9282 43.3104C57.9282 39.4567 60.6252 34.764 63.9785 32.8221C65.3659 32.022 66.6455 31.8242 67.6674 32.1449C67.8377 32.1959 68.0024 32.2642 68.1588 32.3487L68.1858 32.3636L68.3566 32.4625L74.8443 36.2053C75.9411 36.8526 76.6124 38.2101 76.6124 40.143Z" fill="#3D3F40"/>
<path d="M73.0612 60.5683C71.7666 61.1137 69.9446 61.0448 68.7789 60.3735L64.6705 58.0031C63.9884 57.558 63.4208 56.9584 63.0136 56.2529C62.6065 55.5475 62.3713 54.756 62.3271 53.9427V42.8551C62.3291 42.5633 62.3643 42.2728 62.432 41.989C62.453 41.8901 62.48 41.7942 62.5099 41.6894V41.6624C62.5369 41.5725 62.5669 41.4856 62.5998 41.3957C62.6328 41.3058 62.6897 41.1649 62.7407 41.0511L62.8516 40.8173L62.9774 40.5896L63.0044 40.5356L71.8026 45.63C71.3791 46.3285 71.1417 47.124 71.1133 47.9404V59.028C71.1223 60.3555 71.9614 60.9818 73.0612 60.5683Z" fill="#3D3F40"/>
<path d="M95.3146 33.9609V45.0486C95.2716 45.8622 95.0369 46.6541 94.6297 47.3597C94.2224 48.0654 93.6541 48.6648 92.9712 49.109L73.4689 60.3705L73.418 60.3974C73.3797 60.4214 73.3396 60.4424 73.2981 60.4604L73.1663 60.5233L73.0614 60.5652C71.9616 60.9788 71.1226 60.3525 71.1226 59.019V47.9313C71.1682 47.118 71.4044 46.3268 71.8119 45.6215C72.2195 44.9162 72.7871 44.3166 73.4689 43.8709C74.5758 43.2078 75.5219 42.3076 76.2391 41.235C76.9563 40.1624 77.4266 38.944 77.6163 37.6678C77.6901 37.2592 77.8395 36.8679 78.0568 36.5141C78.2629 36.1623 78.5494 35.8645 78.8929 35.645L83.1451 33.1878C83.2711 33.1008 83.4178 33.0486 83.5704 33.0365C83.723 33.0244 83.8761 33.0528 84.0142 33.1189L84.0981 33.1668C84.3261 33.3331 84.5051 33.5577 84.6165 33.8171C84.7882 34.1621 85.0262 34.4698 85.3169 34.7228C85.6076 34.9758 85.9453 35.169 86.3107 35.2914C86.676 35.4139 87.062 35.4631 87.4464 35.4364C87.8308 35.4097 88.2062 35.3075 88.5511 35.1356L88.7099 35.0487L92.9682 32.5944C94.2028 31.8812 95.2127 32.3967 95.3056 33.7422C95.3116 33.8261 95.3146 33.895 95.3146 33.9609Z" fill="#37474F"/>
<path d="M73.3161 33.7932L69.2526 31.4468C69.034 31.8 68.8845 32.1915 68.8121 32.6005C68.6203 33.8741 68.149 35.0894 67.4319 36.1593C66.7148 37.2292 65.7698 38.1271 64.6647 38.7886C63.9727 39.2205 63.4023 39.8218 63.0076 40.5356L71.8057 45.63C72.198 44.9135 72.7689 44.3106 73.4629 43.8799C74.5718 43.2164 75.5197 42.315 76.2379 41.2408C76.9562 40.1665 77.4269 38.9462 77.6163 37.6678C77.6901 37.2592 77.8395 36.8679 78.0568 36.5141L73.3161 33.7932Z" fill="#37474F"/>
<path d="M92.9711 29.9004L88.8626 27.5301C88.1368 27.1606 87.3338 26.968 86.5193 26.968C85.7047 26.968 84.9018 27.1606 84.1759 27.5301L79.9086 29.9813C79.6576 30.1282 79.3858 30.2363 79.1025 30.302L79.2314 30.3739L84.0021 33.1308L84.086 33.1788C84.314 33.3451 84.4931 33.5697 84.6044 33.829C84.7761 34.174 85.0141 34.4818 85.3048 34.7347C85.5955 34.9877 85.9332 35.1809 86.2986 35.3034C86.6639 35.4258 87.0499 35.4751 87.4343 35.4484C87.8187 35.4216 88.1941 35.3194 88.539 35.1476L88.6978 35.0607L92.9561 32.6064C94.1907 31.8932 95.2006 32.4086 95.2935 33.7541C95.222 32.9782 94.976 32.2285 94.5738 31.5612C94.1717 30.8938 93.6237 30.3261 92.9711 29.9004Z" fill="#37474F"/>
<path d="M79.2434 30.3739L79.1146 30.302L75.2908 28.0934L75.2159 28.0515C75.0783 27.9854 74.9257 27.9569 74.7736 27.969C74.6214 27.9811 74.4752 28.0334 74.3499 28.1204L70.0946 30.5747C69.7503 30.7945 69.4636 31.0935 69.2585 31.4467L73.316 33.7931L78.0477 36.526C78.2538 36.1743 78.5403 35.8765 78.8838 35.657L83.1361 33.1997C83.262 33.1127 83.4087 33.0605 83.5613 33.0484C83.7139 33.0363 83.867 33.0647 84.0051 33.1308L79.2434 30.3739Z" fill="#455A64"/>
<path d="M79.7019 36.451L82.9263 34.5901C83.2499 34.4013 83.5256 34.5541 83.5256 34.9257V36.7477C83.5135 36.9524 83.4529 37.1514 83.3487 37.328C83.2445 37.5047 83.0997 37.654 82.9263 37.7636L79.7019 39.6245C79.3782 39.8133 79.1025 39.6604 79.1025 39.2888V37.4669C79.1158 37.2624 79.1769 37.0639 79.2811 36.8875C79.3852 36.711 79.5293 36.5615 79.7019 36.451Z" fill="#E0E0E0"/>
<path d="M67.5504 39.6664C67.0949 39.9271 67.1459 40.3826 67.6613 40.6823L69.0847 41.5034C69.3525 41.6524 69.6516 41.736 69.9578 41.7475C70.264 41.7589 70.5686 41.6979 70.8468 41.5693C71.3052 41.3086 71.2543 40.8531 70.7359 40.5534L69.3125 39.7293C69.0443 39.5815 68.745 39.4987 68.439 39.4878C68.1329 39.4769 67.8285 39.5381 67.5504 39.6664Z" fill="#3D3F40"/>
<path d="M67.5504 39.328C67.0949 39.5887 67.1459 40.0472 67.6613 40.3439L69.0847 41.1679C69.3529 41.3158 69.6522 41.3985 69.9582 41.4095C70.2643 41.4204 70.5687 41.3592 70.8468 41.2309C71.3052 40.9702 71.2543 40.5147 70.7359 40.215L69.3125 39.3939C69.0447 39.2449 68.7456 39.1613 68.4394 39.1498C68.1332 39.1383 67.8286 39.1994 67.5504 39.328Z" fill="#455A64"/>
<path d="M86.8969 32.4414L86.4744 32.3336L85.5035 31.7732C85.3015 31.6619 85.0762 31.5993 84.8457 31.5904C84.6152 31.5816 84.3859 31.6267 84.1759 31.7223H84.158L83.9392 31.6653V32.0549C83.9521 32.1472 83.9883 32.2347 84.0444 32.3092C84.1005 32.3837 84.1746 32.4426 84.2598 32.4804L85.3327 33.0977C85.5355 33.2082 85.7611 33.2703 85.9919 33.2791C86.2227 33.2879 86.4525 33.2433 86.6632 33.1487C86.7285 33.1189 86.7844 33.0719 86.8251 33.0128C86.8657 32.9537 86.8895 32.8846 86.8939 32.813V32.4414H86.8969Z" fill="#3D3F40"/>
<path d="M84.1759 31.3477C83.8313 31.5485 83.8762 31.8901 84.2598 32.1149L85.3326 32.7352C85.5349 32.8472 85.7607 32.9102 85.9918 32.9191C86.2229 32.9279 86.4528 32.8824 86.6631 32.7861C87.0047 32.5884 86.9628 32.2437 86.5762 32.019L85.5034 31.3987C85.3014 31.2874 85.0762 31.2248 84.8457 31.2159C84.6152 31.2071 84.3858 31.2522 84.1759 31.3477Z" fill="#455A64"/>
<path d="M90.6576 29.2291C90.0552 28.9277 89.3909 28.7708 88.7173 28.7708C88.0437 28.7708 87.3794 28.9277 86.777 29.2291H85.9529V30.3648C85.9529 30.7754 86.2226 31.1829 86.762 31.4946C87.368 31.8018 88.0379 31.9619 88.7173 31.9619C89.3967 31.9619 90.0666 31.8018 90.6726 31.4946C91.212 31.1949 91.4817 30.7754 91.4817 30.3648V29.2291H90.6576Z" fill="#3D3F40"/>
<path d="M86.762 28.1023C85.6832 28.7257 85.6832 29.7355 86.762 30.3588C87.368 30.6661 88.0379 30.8262 88.7173 30.8262C89.3967 30.8262 90.0666 30.6661 90.6726 30.3588C91.7514 29.7355 91.7514 28.7257 90.6726 28.1023C90.0666 27.7951 89.3967 27.635 88.7173 27.635C88.0379 27.635 87.368 27.7951 86.762 28.1023Z" fill="#455A64"/>
<path d="M82.6506 30.6197C82.4852 30.5398 82.3039 30.4983 82.1202 30.4983C81.9365 30.4983 81.7552 30.5398 81.5898 30.6197H81.3411V30.9433C81.3469 31.0122 81.3711 31.0784 81.4111 31.1348C81.4512 31.1912 81.5056 31.2358 81.5688 31.2639C81.7395 31.3496 81.9278 31.3942 82.1187 31.3942C82.3096 31.3942 82.4979 31.3496 82.6686 31.2639C82.7315 31.2363 82.7859 31.1922 82.8259 31.1363C82.866 31.0804 82.8903 31.0148 82.8963 30.9463V30.6197H82.6506Z" fill="#3D3F40"/>
<path d="M85.0958 29.6755V29.3489H84.8501C84.6847 29.269 84.5033 29.2275 84.3197 29.2275C84.136 29.2275 83.9547 29.269 83.7893 29.3489H83.5405V29.6755C83.5462 29.7441 83.5704 29.8099 83.6105 29.8658C83.6506 29.9218 83.7051 29.9658 83.7683 29.9932C83.9389 30.0789 84.1272 30.1235 84.3182 30.1235C84.5091 30.1235 84.6974 30.0789 84.868 29.9932C84.9312 29.9658 84.9857 29.9218 85.0258 29.8658C85.0659 29.8099 85.0901 29.7441 85.0958 29.6755Z" fill="#3D3F40"/>
<path d="M81.5688 30.3018C81.5025 30.3244 81.445 30.3672 81.4042 30.4242C81.3635 30.4811 81.3416 30.5494 81.3416 30.6194C81.3416 30.6895 81.3635 30.7578 81.4042 30.8147C81.445 30.8717 81.5025 30.9145 81.5688 30.9371C81.7394 31.0227 81.9277 31.0674 82.1187 31.0674C82.3096 31.0674 82.4979 31.0227 82.6686 30.9371C82.7349 30.9145 82.7924 30.8717 82.8332 30.8147C82.8739 30.7578 82.8958 30.6895 82.8958 30.6194C82.8958 30.5494 82.8739 30.4811 82.8332 30.4242C82.7924 30.3672 82.7349 30.3244 82.6686 30.3018C82.4986 30.214 82.31 30.1682 82.1187 30.1682C81.9274 30.1682 81.7388 30.214 81.5688 30.3018Z" fill="#455A64"/>
<path d="M83.7683 29.0314C83.702 29.054 83.6444 29.0968 83.6037 29.1538C83.5629 29.2107 83.541 29.279 83.541 29.349C83.541 29.4191 83.5629 29.4874 83.6037 29.5443C83.6444 29.6013 83.702 29.6441 83.7683 29.6667C83.9389 29.7524 84.1272 29.797 84.3181 29.797C84.5091 29.797 84.6974 29.7524 84.868 29.6667C84.9343 29.6441 84.9919 29.6013 85.0326 29.5443C85.0734 29.4874 85.0953 29.4191 85.0953 29.349C85.0953 29.279 85.0734 29.2107 85.0326 29.1538C84.9919 29.0968 84.9343 29.054 84.868 29.0314C84.6974 28.9457 84.5091 28.9011 84.3181 28.9011C84.1272 28.9011 83.9389 28.9457 83.7683 29.0314Z" fill="#455A64"/>
<path d="M92.3627 42.3036C92.5695 41.9273 92.6836 41.5071 92.6953 41.0779C92.7068 40.9152 92.6824 40.752 92.6238 40.5998C92.5653 40.4476 92.4741 40.3101 92.3567 40.1969L93.2557 38.6506C93.6602 38.9503 93.882 39.5047 93.882 40.2389C93.8536 41.1263 93.6065 41.993 93.1628 42.762L92.3627 42.3036Z" fill="#3D3F40"/>
<path d="M90.0372 45.2402C89.8551 45.2417 89.6747 45.206 89.5068 45.1353L90.4058 43.592C90.4967 43.6219 90.5918 43.6371 90.6875 43.637C90.9166 43.63 91.1399 43.5628 91.3348 43.4422C91.7008 43.2171 92.0087 42.9092 92.2338 42.5432L93.0249 43.0017C92.5804 43.7702 91.9537 44.4175 91.1999 44.8866C90.8499 45.104 90.449 45.2259 90.0372 45.2402Z" fill="#3D3F40"/>
<path d="M89.2733 45.0006C88.8687 44.7009 88.647 44.1465 88.647 43.4153C88.6758 42.5266 88.9239 41.6588 89.3692 40.8892L90.1633 41.3476C89.9542 41.7242 89.839 42.1457 89.8277 42.5763C89.8162 42.739 89.8406 42.9022 89.8991 43.0544C89.9576 43.2066 90.0488 43.3442 90.1663 43.4573L89.2733 45.0006Z" fill="#3D3F40"/>
<path d="M92.4376 41.1499C92.4152 41.5571 92.2971 41.9532 92.0931 42.3062C91.889 42.6592 91.6046 42.9591 91.2629 43.1817C91.1506 43.2814 91.0098 43.3434 90.8603 43.3587C90.7109 43.374 90.5604 43.342 90.4302 43.2671C90.3 43.1922 90.1966 43.0783 90.1347 42.9414C90.0728 42.8045 90.0555 42.6517 90.0852 42.5044C90.1092 42.0969 90.2281 41.7006 90.4326 41.3473C90.6371 40.994 90.9215 40.6935 91.2629 40.4697C91.3755 40.3707 91.5164 40.3096 91.6656 40.2949C91.8148 40.2803 91.9648 40.3128 92.0946 40.3879C92.2243 40.4631 92.3272 40.577 92.3887 40.7137C92.4503 40.8504 92.4674 41.003 92.4376 41.1499Z" fill="#3D3F40"/>
<path d="M89.498 40.6643C89.941 39.8946 90.568 39.247 91.323 38.7794C91.6723 38.562 92.0717 38.4382 92.4827 38.4198C92.6639 38.4172 92.8437 38.4529 93.0101 38.5247L92.1111 40.071C92.0218 40.0386 91.9274 40.0224 91.8324 40.023C91.603 40.0307 91.3797 40.0989 91.1852 40.2208C90.8166 40.4426 90.5079 40.7512 90.2862 41.1198L89.498 40.6643Z" fill="#3D3F40"/>
<path d="M88.7457 47.5028L89.378 47.1402C89.5069 47.0652 89.6117 47.1252 89.6117 47.275V48.0032C89.6074 48.0847 89.584 48.164 89.5434 48.2348C89.5028 48.3056 89.4461 48.3658 89.378 48.4107L88.7457 48.7733C88.6168 48.8483 88.512 48.7883 88.512 48.6385V47.9103C88.5163 47.8288 88.5397 47.7495 88.5803 47.6787C88.6209 47.6079 88.6776 47.5477 88.7457 47.5028Z" fill="#3D3F40"/>
<path d="M93.145 44.9647L93.7773 44.5991C93.8005 44.5817 93.8283 44.5715 93.8573 44.5698C93.8863 44.5682 93.9152 44.5752 93.9402 44.5899C93.9652 44.6047 93.9853 44.6265 93.9979 44.6527C94.0105 44.6789 94.0151 44.7082 94.011 44.737V45.4592C94.0067 45.5403 93.9832 45.6192 93.9426 45.6895C93.902 45.7598 93.8453 45.8195 93.7773 45.8637L93.145 46.2293C93.1224 46.2481 93.0945 46.2595 93.0653 46.262C93.036 46.2645 93.0066 46.258 92.9811 46.2433C92.9557 46.2286 92.9353 46.2065 92.9228 46.1799C92.9103 46.1532 92.9063 46.1234 92.9112 46.0945V45.3693C92.9156 45.2882 92.939 45.2093 92.9796 45.139C93.0203 45.0687 93.0769 45.009 93.145 44.9647Z" fill="#3D3F40"/>
<path d="M88.7457 37.35L89.378 36.9844C89.4006 36.9656 89.4284 36.9542 89.4577 36.9517C89.487 36.9492 89.5164 36.9557 89.5418 36.9704C89.5673 36.9851 89.5877 37.0073 89.6002 37.0339C89.6127 37.0605 89.6167 37.0903 89.6117 37.1193V37.8474C89.6074 37.9289 89.584 38.0082 89.5434 38.079C89.5028 38.1498 89.4461 38.2101 89.378 38.255L88.7457 38.6176C88.6168 38.6955 88.512 38.6326 88.512 38.4827V37.7545C88.5163 37.6735 88.5397 37.5946 88.5804 37.5243C88.621 37.454 88.6776 37.3943 88.7457 37.35Z" fill="#3D3F40"/>
<path d="M93.1449 34.8089L93.7772 34.4463C93.906 34.3714 94.0109 34.4313 94.0109 34.5812V35.3094C94.0065 35.3908 93.9831 35.4702 93.9425 35.5409C93.9019 35.6117 93.8453 35.672 93.7772 35.7169L93.1449 36.0795C93.016 36.1544 92.9111 36.0945 92.9111 35.9446V35.2165C92.9155 35.135 92.9389 35.0556 92.9795 34.9849C93.0201 34.9141 93.0767 34.8538 93.1449 34.8089Z" fill="#3D3F40"/>
<path d="M86.5193 39.6845V49.4866C86.5061 49.7309 86.4355 49.9687 86.3131 50.1807C86.1908 50.3926 86.0201 50.5726 85.8151 50.7062L74.0262 57.5116C73.6367 57.7364 73.322 57.5536 73.322 57.1071V47.302C73.3352 47.058 73.4058 46.8207 73.5282 46.6092C73.6506 46.3978 73.8212 46.2183 74.0262 46.0854L85.8151 39.277C86.2016 39.0552 86.5193 39.235 86.5193 39.6845Z" fill="#F0F0F0"/>
<path d="M74.6795 49.4865C75.2209 49.1337 75.6713 48.658 75.9941 48.0983C76.317 47.5385 76.5031 46.9104 76.5374 46.2651C76.5374 45.6119 76.2857 45.1743 75.8842 45.0095L74.0262 46.0853C73.8212 46.2182 73.6506 46.3977 73.5282 46.6092C73.4058 46.8206 73.3352 47.058 73.322 47.302V49.5854C73.6606 49.8102 74.1431 49.7952 74.6795 49.4865Z" fill="#055EFF"/>
<path opacity="0.7" d="M74.6795 49.4865C75.2209 49.1337 75.6713 48.658 75.9941 48.0983C76.317 47.5385 76.5031 46.9104 76.5374 46.2651C76.5374 45.6119 76.2857 45.1743 75.8842 45.0095L74.0262 46.0853C73.8212 46.2182 73.6506 46.3977 73.5282 46.6092C73.4058 46.8206 73.3352 47.058 73.322 47.302V49.5854C73.6606 49.8102 74.1431 49.7952 74.6795 49.4865Z" fill="white"/>
<path d="M84.6343 43.757C84.6065 43.7054 84.5643 43.6631 84.5127 43.6353C84.4612 43.6075 84.4027 43.5954 84.3443 43.6005C84.286 43.6056 84.2304 43.6277 84.1845 43.664C84.1386 43.7004 84.1043 43.7494 84.0859 43.805L81.0203 50.2987L78.3233 48.6745C78.2015 48.6014 78.0558 48.5792 77.9178 48.6129C77.7798 48.6465 77.6606 48.7333 77.5862 48.8543L73.3159 56.0133V57.1071C73.3159 57.5536 73.6306 57.7364 74.0201 57.5117L85.809 50.7062C86.0128 50.5721 86.1826 50.3923 86.3048 50.1811C86.4271 49.9699 86.4984 49.7332 86.5132 49.4896V46.3881L84.6343 43.757Z" fill="#055EFF"/>
<path d="M75.5216 46.49L74.4219 47.1253V48.3959" stroke="white" stroke-width="0.299666" stroke-linecap="round" stroke-linejoin="round"/>
<path d="M74.4219 54.7427V56.0133L75.5216 55.378" stroke="white" stroke-width="0.299666" stroke-linecap="round" stroke-linejoin="round"/>
<path d="M84.3196 41.4104L85.4194 40.7751V42.0457" stroke="white" stroke-width="0.299666" stroke-linecap="round" stroke-linejoin="round"/>
<path d="M85.4194 48.3958V49.6633L84.3196 50.2986" stroke="white" stroke-width="0.299666" stroke-linecap="round" stroke-linejoin="round"/>
<path d="M92.5665 42.4264C92.7739 42.0492 92.8879 41.6279 92.8992 41.1977C92.9106 41.0351 92.8862 40.8718 92.8277 40.7196C92.7692 40.5674 92.678 40.4299 92.5605 40.3167L93.4595 38.7734C93.8641 39.0731 94.0858 39.6275 94.0858 40.3587C94.0563 41.2469 93.8094 42.1143 93.3666 42.8849L92.5665 42.4264Z" fill="#455A64"/>
<path d="M90.241 45.3601C90.0601 45.3622 89.8807 45.3276 89.7136 45.2582L90.6126 43.7119C90.7023 43.7429 90.7964 43.759 90.8913 43.7599C91.1219 43.7536 91.3466 43.6853 91.5416 43.5621C91.9075 43.337 92.2155 43.029 92.4406 42.6631L93.2347 43.1216C92.7918 43.8912 92.1647 44.5389 91.4097 45.0065C91.0572 45.2232 90.6546 45.3451 90.241 45.3601Z" fill="#455A64"/>
<path d="M89.4771 45.1234C89.0725 44.8237 88.8538 44.2663 88.8538 43.5351C88.8822 42.6477 89.1292 41.781 89.573 41.012L90.3671 41.4675C90.1579 41.844 90.0428 42.2655 90.0314 42.6961C90.02 42.8588 90.0444 43.022 90.1029 43.1742C90.1614 43.3264 90.2526 43.464 90.3701 43.5771L89.4771 45.1234Z" fill="#455A64"/>
<path d="M92.6414 41.2636C92.619 41.6712 92.501 42.0677 92.2969 42.4212C92.0929 42.7747 91.8085 43.0752 91.4668 43.2984C91.324 43.4234 91.1375 43.4867 90.9482 43.4743C90.7588 43.462 90.5821 43.375 90.4569 43.2325C90.3856 43.1517 90.3337 43.0557 90.3051 42.9519C90.2765 42.848 90.2721 42.739 90.2921 42.6331C90.3064 42.2245 90.425 41.8263 90.6367 41.4764C90.8325 41.1175 91.1186 40.8159 91.4668 40.6014C91.5792 40.5028 91.7197 40.442 91.8685 40.4273C92.0173 40.4126 92.167 40.4449 92.2965 40.5196C92.426 40.5942 92.529 40.7076 92.5908 40.8437C92.6527 40.9799 92.6704 41.1319 92.6414 41.2786V41.2636Z" fill="#455A64"/>
<path d="M89.7107 40.7753C90.1536 40.0056 90.7807 39.358 91.5357 38.8904C91.8855 38.6747 92.2847 38.5519 92.6954 38.5338C92.8753 38.5314 93.0538 38.5661 93.2198 38.6357L92.3208 40.182C92.2309 40.152 92.1368 40.1368 92.0421 40.137C91.813 40.144 91.5898 40.2112 91.3948 40.3318C91.0289 40.5569 90.7209 40.8648 90.4958 41.2308L89.7107 40.7753Z" fill="#455A64"/>
<path d="M88.9526 47.6256L89.5819 47.26C89.6045 47.2412 89.6323 47.2298 89.6616 47.2273C89.6909 47.2248 89.7203 47.2314 89.7457 47.2461C89.7712 47.2607 89.7915 47.2829 89.804 47.3095C89.8165 47.3361 89.8206 47.3659 89.8156 47.3949V48.1231C89.8113 48.2046 89.7879 48.2839 89.7473 48.3547C89.7067 48.4255 89.65 48.4857 89.5819 48.5306L88.9526 48.8932C88.93 48.912 88.9022 48.9234 88.8729 48.9259C88.8436 48.9284 88.8142 48.9219 88.7888 48.9072C88.7633 48.8925 88.7429 48.8704 88.7304 48.8438C88.7179 48.8171 88.7139 48.7873 88.7189 48.7584V48.0302C88.7232 47.9491 88.7466 47.8702 88.7873 47.7999C88.8279 47.7296 88.8845 47.6699 88.9526 47.6256Z" fill="#455A64"/>
<path d="M93.3516 45.0843L93.9809 44.7217C94.0035 44.7029 94.0313 44.6915 94.0606 44.689C94.0899 44.6865 94.1193 44.693 94.1447 44.7077C94.1702 44.7224 94.1906 44.7446 94.203 44.7712C94.2155 44.7978 94.2196 44.8276 94.2146 44.8566V45.5847C94.2103 45.6658 94.1869 45.7447 94.1462 45.815C94.1056 45.8853 94.049 45.945 93.9809 45.9893L93.3516 46.3549C93.3286 46.3731 93.3008 46.384 93.2716 46.3862C93.2423 46.3885 93.2131 46.3819 93.1877 46.3674C93.1622 46.3529 93.1417 46.3311 93.1287 46.3049C93.1157 46.2786 93.1109 46.2491 93.1149 46.22V45.4919C93.1191 45.41 93.1427 45.3303 93.1839 45.2594C93.2251 45.1886 93.2826 45.1285 93.3516 45.0843Z" fill="#455A64"/>
<path d="M88.9526 37.47L89.5819 37.1075C89.6045 37.0887 89.6323 37.0772 89.6616 37.0747C89.6909 37.0722 89.7203 37.0788 89.7457 37.0935C89.7712 37.1082 89.7915 37.1303 89.804 37.1569C89.8165 37.1835 89.8206 37.2133 89.8156 37.2423V37.9675C89.8113 38.0486 89.7879 38.1275 89.7472 38.1978C89.7066 38.2681 89.65 38.3278 89.5819 38.372L88.9526 38.7376C88.93 38.7564 88.9022 38.7678 88.8729 38.7703C88.8436 38.7728 88.8142 38.7663 88.7888 38.7516C88.7633 38.7369 88.7429 38.7148 88.7304 38.6882C88.7179 38.6616 88.7139 38.6318 88.7189 38.6028V37.8776C88.7232 37.7961 88.7466 37.7168 88.7872 37.646C88.8278 37.5752 88.8845 37.5149 88.9526 37.47Z" fill="#455A64"/>
<path d="M93.3517 34.9318L93.981 34.5662C94.1099 34.4913 94.2148 34.5512 94.2148 34.701V35.4292C94.2104 35.5107 94.187 35.59 94.1464 35.6608C94.1058 35.7316 94.0492 35.7919 93.981 35.8368L93.3517 36.1994C93.2199 36.2743 93.115 36.2143 93.115 36.0645V35.3363C93.1194 35.2549 93.1432 35.1758 93.1844 35.1054C93.2256 35.035 93.2829 34.9755 93.3517 34.9318Z" fill="#455A64"/>
</svg>
