<svg width="619" height="416" viewBox="0 0 619 416" fill="none" xmlns="http://www.w3.org/2000/svg">
<g clip-path="url(#clip0)">
<path d="M156.567 374.661C173.215 363.648 177.441 342.569 177.257 323.526C177.257 320.344 177.658 317.001 176.215 314.178C174.773 311.355 171.28 309.365 168.395 310.638C166.002 311.69 164.903 314.409 163.517 316.642C161.67 319.637 159.023 322.044 155.88 323.584C153.83 324.578 151.3 325.168 149.319 324.012C146.617 322.438 146.376 318.643 146.479 315.485C146.662 309.6 146.842 303.712 147.017 297.819C147.281 294.664 147.033 291.487 146.285 288.413C145.38 285.394 143.262 282.559 140.273 281.645C137.285 280.731 133.506 282.374 132.796 285.451C132.649 286.757 132.587 288.071 132.613 289.385C132.617 290.044 132.426 290.688 132.065 291.236C131.704 291.785 131.189 292.211 130.586 292.462C129.315 292.798 128.067 291.872 127.151 290.924C123.968 287.661 121.839 283.496 119.869 279.355C117.9 275.213 115.987 270.99 113.102 267.438C110.217 263.887 106.232 261.029 101.652 260.67C97.0718 260.312 92.217 262.984 90.9574 267.392C89.6979 271.8 92.2055 276.393 94.9535 280.118C99.0367 285.576 103.881 290.409 109.335 294.464C110.399 295.083 111.238 296.033 111.728 297.171C112.369 299.288 110.32 301.336 108.213 301.972C105.831 302.701 103.278 302.4 100.805 302.632C98.3314 302.863 95.6176 303.881 94.6329 306.183C93.2589 309.388 95.881 312.836 98.4916 315.115C103.732 319.694 109.712 323.329 116.171 325.863C118.461 326.777 120.911 327.575 122.755 329.252C124.598 330.93 125.663 333.799 124.472 335.997C123.281 338.195 120.35 338.843 117.923 338.311C115.495 337.779 113.343 336.425 111.052 335.488C106.736 333.753 101.114 333.915 98.2283 337.594C97.3502 338.861 96.7771 340.318 96.5544 341.848C96.3318 343.379 96.4658 344.941 96.9459 346.41C97.9336 349.334 99.4909 352.028 101.526 354.334C108.254 362.788 117.075 369.294 127.094 373.192C137.113 376.929 146.445 378.098 156.567 374.685" fill="#6CCD6C"/>
<path d="M95.6751 263.169L95.9842 263.47L96.9002 264.338C97.7132 265.09 98.9155 266.201 100.415 267.658C104.662 271.798 108.6 276.248 112.198 280.974C114.488 283.959 116.858 287.337 119.331 291.005C121.804 294.672 124.415 298.629 127.014 302.875C129.756 307.295 132.256 311.864 134.503 316.561C135.648 319.002 136.69 321.559 137.743 324.162C138.796 326.765 139.838 329.403 140.915 332.076C144.993 342.092 148.514 352.331 151.46 362.745C153.825 371.261 155.382 379.985 156.109 388.799C156.581 394.742 156.539 400.715 155.983 406.651C155.766 408.745 155.559 410.376 155.388 411.475C155.308 412.007 155.25 412.424 155.204 412.736C155.189 412.878 155.189 413.022 155.204 413.164C155.204 413.164 155.205 413.025 155.296 412.736L155.537 411.498C155.743 410.399 155.983 408.779 156.235 406.674C156.886 400.73 156.993 394.739 156.556 388.776C155.876 379.923 154.342 371.158 151.976 362.607C149.059 352.159 145.546 341.892 141.453 331.856C140.377 329.179 139.319 326.542 138.281 323.942C137.228 321.339 136.186 318.771 135.018 316.318C132.757 311.602 130.238 307.018 127.472 302.586C124.85 298.34 122.217 294.395 119.732 290.727C117.247 287.06 114.831 283.705 112.518 280.72C108.89 275.996 104.892 271.574 100.564 267.496C99.0414 266.05 97.8162 264.974 96.9804 264.245L96.0185 263.424C95.9144 263.326 95.7991 263.24 95.6751 263.169Z" fill="#263238"/>
<path d="M134.801 316.283C134.97 315.852 135.085 315.401 135.144 314.941C135.339 314.073 135.568 312.812 135.82 311.239C136.346 308.104 136.965 303.754 137.537 298.953C138.11 294.151 138.797 289.813 139.369 286.701C139.644 285.139 139.884 283.878 140.068 283.01C140.185 282.564 140.254 282.106 140.274 281.645C140.081 282.063 139.935 282.502 139.839 282.952C139.598 283.808 139.289 285.058 138.957 286.62C138.281 289.72 137.583 294.07 136.965 298.872L135.419 311.181C135.224 312.662 135.052 313.912 134.926 314.906C134.84 315.36 134.798 315.821 134.801 316.283Z" fill="#263238"/>
<path d="M94.2555 307.711C94.7877 307.846 95.3328 307.924 95.8814 307.942C96.9233 308.069 98.4348 308.231 100.29 308.486C104.011 308.983 109.129 309.839 114.728 311.031C120.328 312.223 125.354 313.541 128.961 314.583C130.77 315.103 132.224 315.555 133.22 315.855C133.731 316.052 134.261 316.195 134.801 316.283C134.322 316.024 133.819 315.811 133.301 315.647C132.316 315.265 130.873 314.756 129.075 314.189C125.492 313.032 120.465 311.667 114.854 310.452C109.244 309.238 104.08 308.463 100.336 308.069C98.4691 307.861 96.9004 307.768 95.8928 307.722C95.3484 307.67 94.8006 307.666 94.2555 307.711Z" fill="#263238"/>
<path d="M151.449 361.854C151.567 361.701 151.667 361.534 151.747 361.357L152.479 359.911C153.109 358.65 153.968 356.787 155.01 354.485C157.082 349.857 159.75 343.436 162.601 336.275C165.452 329.113 168.063 322.646 170.044 317.995C171.006 315.739 171.807 313.888 172.403 312.512L173.032 311.008C173.121 310.837 173.183 310.654 173.216 310.464C173.105 310.62 173.009 310.787 172.929 310.961C172.723 311.355 172.483 311.829 172.197 312.407C171.567 313.68 170.697 315.531 169.666 317.833C167.582 322.461 164.914 328.894 162.063 336.055C159.212 343.216 156.613 349.672 154.632 354.323C153.659 356.579 152.857 358.43 152.273 359.806L151.632 361.31C151.55 361.484 151.489 361.666 151.449 361.854Z" fill="#263238"/>
<path d="M97.7475 343.147C97.9148 343.25 98.0961 343.328 98.2856 343.378L99.8429 343.945L105.568 345.958C110.423 347.659 117.098 350.089 124.472 352.773C131.846 355.457 138.567 357.828 143.457 359.436C145.907 360.235 147.888 360.859 149.273 361.276L150.865 361.727C151.047 361.79 151.235 361.833 151.426 361.854C151.426 361.854 151.254 361.75 150.899 361.611L149.342 361.056L143.617 359.043C138.762 357.342 132.087 354.913 124.713 352.217C117.339 349.522 110.629 347.161 105.728 345.565C103.289 344.767 101.297 344.13 99.923 343.725L98.3314 343.274C98.1446 343.201 97.9475 343.158 97.7475 343.147Z" fill="#263238"/>
<path d="M136.587 306.066L135.037 392.661L0.206655 392.974L0 305.221L136.587 306.066Z" fill="#EFB282"/>
<path d="M57.14 392.731C56.9678 392.731 57.14 373.399 57.5878 349.566C58.0355 325.733 58.5063 306.401 58.7359 306.401C58.9655 306.401 58.7359 325.733 58.2766 349.578C57.8174 373.422 57.3123 392.731 57.14 392.731Z" fill="#C1916A"/>
<path d="M0.206421 392.974C0.361177 392.658 0.541664 392.356 0.746019 392.071L2.42222 389.526L8.67927 380.271L29.4825 349.844C37.6224 337.962 44.9357 327.168 50.148 319.313C52.7541 315.379 54.8207 312.174 56.2558 309.953L57.8746 307.385C58.046 307.077 58.2459 306.787 58.4716 306.517C58.3335 306.843 58.1684 307.156 57.9779 307.454C57.6029 308.102 57.0977 308.981 56.4624 310.092C55.0962 312.348 53.0871 315.599 50.5154 319.556C45.3949 327.492 38.1391 338.321 30.0106 350.202C21.8822 362.084 14.4426 372.785 9.04665 380.525L2.61739 389.665L0.860828 392.141C0.660554 392.432 0.441972 392.71 0.206421 392.974Z" fill="#C1916A"/>
<path d="M57.1393 392.73C56.9088 392.467 56.7013 392.185 56.5194 391.886L54.8432 389.364C53.3736 387.119 51.3071 383.972 48.7583 380.108L28.5176 349.67C20.5844 337.788 13.4663 326.983 8.42621 319.104C5.90043 315.159 3.83388 311.966 2.50211 309.733L0.929235 307.222C0.735194 306.927 0.562535 306.617 0.412598 306.297C0.645488 306.562 0.853061 306.849 1.03256 307.153L2.70876 309.652L8.7936 318.907L29.0458 349.311C36.9675 361.181 44.0856 371.987 49.1257 379.865C51.6515 383.81 53.7181 387.015 55.0498 389.236C55.7157 390.312 56.1979 391.168 56.6227 391.816C56.8205 392.106 56.9933 392.411 57.1393 392.73Z" fill="#C1916A"/>
<path d="M71.0679 382.929L92.7173 383.321L92.7969 378.856L71.1476 378.464L71.0679 382.929Z" fill="white"/>
<path d="M72.1572 374.833C75.6789 374.495 79.2174 374.368 82.754 374.451C86.2882 374.326 89.8266 374.411 93.3508 374.706C89.8296 375.051 86.2907 375.178 82.754 375.088C79.2199 375.213 75.6815 375.128 72.1572 374.833Z" fill="white"/>
<path d="M100.939 305.568L100.342 339.003L95.6698 335.266L89.6194 338.806L90.2164 305.383L100.939 305.568Z" fill="#E93434"/>
<path d="M120.411 240.492L119.228 306.575L16.3256 306.818L16.1764 239.844L120.411 240.492Z" fill="#FFBC88"/>
<path d="M59.7808 306.621C59.6431 306.621 59.7808 291.87 60.1252 273.684C60.4697 255.497 60.8256 240.735 60.9519 240.746C61.0782 240.758 60.9519 255.497 60.6074 273.695C60.263 291.894 59.9186 306.633 59.7808 306.621Z" fill="#C1916A"/>
<path d="M16.3258 306.818C16.45 306.576 16.592 306.344 16.7506 306.124C17.0568 305.638 17.4815 304.99 18.025 304.18C19.173 302.468 20.8033 300.073 22.7895 297.111C26.8767 291.142 32.4908 282.951 38.679 273.892C44.8671 264.833 50.5157 256.596 54.4421 250.592C56.4398 247.595 58.0127 245.154 59.1033 243.453C59.62 242.632 60.0333 241.973 60.3433 241.498C60.4725 241.259 60.6264 241.034 60.8025 240.827C60.6954 241.076 60.5687 241.316 60.4236 241.544L59.2756 243.557C58.2308 245.281 56.6924 247.757 54.7406 250.788C50.8257 256.839 45.2919 265.099 39.0923 274.17C32.8926 283.24 27.2096 291.408 23.088 297.308L18.1857 304.249L16.8424 306.135C16.5095 306.598 16.3373 306.818 16.3258 306.818Z" fill="#C1916A"/>
<path d="M59.7806 306.621C59.6063 306.418 59.4488 306.202 59.3099 305.973L58.0355 304.064C56.8875 302.352 55.3261 299.957 53.4432 296.995C49.3675 291.026 43.96 282.811 37.8867 273.764C31.8133 264.717 26.4059 256.411 22.5598 250.441C20.631 247.433 19.1156 244.98 18.0364 243.28C17.5312 242.458 17.1294 241.81 16.8883 241.324C16.7308 241.106 16.5998 240.869 16.4979 240.619C16.6686 240.824 16.8258 241.041 16.9686 241.267L18.243 243.187C19.3911 244.888 20.941 247.294 22.8927 250.244L38.3344 273.487C44.3848 282.545 49.8153 290.841 53.6728 296.81C55.6016 299.818 57.1171 302.259 58.1848 303.96L59.3329 305.927C59.7003 306.378 59.7921 306.621 59.7806 306.621Z" fill="#C1916A"/>
<path d="M71.0825 298.899L87.6034 299.232L87.6711 295.819L71.1502 295.486L71.0825 298.899Z" fill="white"/>
<path d="M71.2501 292.969C73.9207 292.709 76.6045 292.612 79.2867 292.68C81.967 292.578 84.651 292.643 87.3233 292.877C84.6522 293.13 81.9688 293.227 79.2867 293.166C76.6063 293.255 73.9231 293.189 71.2501 292.969Z" fill="white"/>
<path d="M99.5962 240.11L99.1485 265.62L95.5779 262.762L90.9512 265.47L91.4104 239.959L99.5962 240.11Z" fill="#E93434"/>
<path d="M131.57 386.738C130.364 383.135 128.106 379.983 125.093 377.694C122.08 375.405 118.452 374.085 114.682 373.908L111.525 198.819H126.714V201.434H129.584V195.164H105.957C105.957 195.164 108.77 324.357 110.825 374.139C106.356 374.832 102.291 377.142 99.3902 380.636C96.4891 384.13 94.9502 388.57 95.0615 393.124L41.2279 392.395L42.7663 399.522L95.8307 398.053C95.9111 398.307 95.957 398.55 96.0373 398.793C97.6731 403.478 101.074 407.325 105.503 409.502C109.932 411.679 115.034 412.012 119.705 410.427C124.375 408.843 128.239 405.469 130.46 401.035C132.68 396.602 133.079 391.466 131.57 386.738Z" fill="#E0E0E0"/>
<path d="M51.5376 409.911H54.3963L59.8842 399.047L55.3378 399.175L51.5376 409.911Z" fill="#E0E0E0"/>
<path d="M141.249 51.0806H87.3347V66.0974H141.249V51.0806Z" fill="#EBEBEB"/>
<path d="M539.185 269.923H485.271V284.94H539.185V269.923Z" fill="#EBEBEB"/>
<path d="M118.54 68.5039H64.6256V83.5207H118.54V68.5039Z" fill="#F5F5F5"/>
<path d="M504.881 285.415H466.144V300.431H504.881V285.415Z" fill="#F5F5F5"/>
<path d="M277.411 2.01562H161.271V241.348H277.411V2.01562Z" fill="#EBEBEB"/>
<path d="M219.353 2.01562C219.353 2.01562 195.53 110.546 161.271 118.008C161.271 118.008 175.117 194.157 176.368 241.348H161.271V2.01562H219.353Z" fill="#E0E0E0"/>
<path d="M219.743 2.01562C219.743 2.01562 243.554 110.546 277.836 118.008C277.836 118.008 263.99 194.157 262.739 241.348H277.836V2.01562H219.743Z" fill="#E0E0E0"/>
<path d="M221.465 1.56445H217.229V241.359H221.465V1.56445Z" fill="#FAFAFA"/>
<path d="M189.181 1.56445H188.136V241.359H189.181V1.56445Z" fill="#FAFAFA"/>
<path d="M251.878 1.56445H250.833V241.359H251.878V1.56445Z" fill="#FAFAFA"/>
<path d="M277.423 61.0186V61.9788L161.271 62.4647V61.5045L277.423 61.0186Z" fill="#FAFAFA"/>
<path d="M277.423 180.1V181.037L161.271 181.512V180.563L277.423 180.1Z" fill="#FAFAFA"/>
<path d="M277.411 119.281H161.271V123.273H277.411V119.281Z" fill="#FAFAFA"/>
<path d="M279.145 243.083H159.584V0.280273H279.145V243.083ZM162.993 239.612H275.701V3.75103H163.028L162.993 239.612Z" fill="#F5F5F5"/>
<path d="M617.278 2.01562H501.138V241.348H617.278V2.01562Z" fill="#EBEBEB"/>
<path d="M559.208 2.01562C559.208 2.01562 535.397 110.546 501.138 118.008C501.138 118.008 514.984 194.157 516.235 241.348H501.138V2.01562H559.208Z" fill="#E0E0E0"/>
<path d="M559.598 2.01562C559.598 2.01562 583.409 110.546 617.668 118.008C617.668 118.008 603.822 194.157 602.571 241.348H617.668V2.01562H559.598Z" fill="#E0E0E0"/>
<path d="M561.332 1.56445H557.095V241.359H561.332V1.56445Z" fill="#FAFAFA"/>
<path d="M529.047 1.56445H528.003V241.359H529.047V1.56445Z" fill="#FAFAFA"/>
<path d="M591.745 1.56445H590.7V241.359H591.745V1.56445Z" fill="#FAFAFA"/>
<path d="M617.278 61.0186V61.9788L501.138 62.4647V61.5045L617.278 61.0186Z" fill="#FAFAFA"/>
<path d="M617.278 180.1V181.037L501.138 181.512V180.563L617.278 180.1Z" fill="#FAFAFA"/>
<path d="M617.278 119.281H501.138V123.273H617.278V119.281Z" fill="#FAFAFA"/>
<path d="M619 243.083H499.416V0.280273H619V243.083ZM502.86 239.612H615.556V3.75103H502.86V239.612Z" fill="#F5F5F5"/>
<path d="M256.148 375.62C251.99 373.65 247.313 373.078 242.808 373.988C240.385 374.382 237.86 375.145 236.218 376.95C234.576 378.755 234.255 382.006 236.149 383.579C237.37 384.409 238.839 384.785 240.305 384.644C243.83 384.644 247.745 383.973 250.557 386.113C252.165 387.328 253.232 389.352 255.15 389.954C256.111 390.169 257.115 390.066 258.014 389.662C258.914 389.258 259.66 388.574 260.144 387.709C261.066 385.927 261.268 383.854 260.706 381.925C260.481 380.591 259.952 379.327 259.161 378.233C258.371 377.14 257.339 376.245 256.148 375.62Z" fill="#EBEBEB"/>
<path d="M265.436 357.537C262.957 361.1 258.135 359.92 255.907 357.745C253.68 355.57 252.727 352.412 251.866 349.392C249.891 342.509 247.917 335.289 249.375 328.278C249.722 326.139 250.647 324.138 252.05 322.494C252.757 321.696 253.658 321.098 254.665 320.759C255.672 320.42 256.749 320.352 257.79 320.562C260.224 321.21 261.728 323.616 262.83 325.895C266.042 332.638 267.725 340.016 267.755 347.495C267.755 350.966 267.365 354.622 265.459 357.491" fill="#EBEBEB"/>
<path d="M272.256 362.662C270.983 360.982 270.134 359.015 269.784 356.931C269.434 354.847 269.593 352.708 270.247 350.699C271.606 346.688 274.038 343.133 277.273 340.426C280.958 337.127 285.248 334.588 289.902 332.952C291.697 332.22 293.628 331.888 295.562 331.98C296.528 332.037 297.466 332.329 298.294 332.833C299.123 333.337 299.816 334.037 300.315 334.873C301.636 337.418 300.315 340.507 298.995 343.029C296.572 347.481 293.808 351.736 290.729 355.755C288.249 358.971 285.413 362.153 281.636 363.599C277.859 365.045 273.944 364.883 271.935 362.245" fill="#EBEBEB"/>
<path d="M265.609 411.345C265.473 410.816 265.396 410.272 265.379 409.726C265.264 408.569 265.127 407.065 264.954 405.294C264.736 403.115 264.407 400.949 263.967 398.804C263.405 396.19 262.637 393.625 261.671 391.134C260.707 388.648 259.401 386.311 257.79 384.192C256.473 382.472 254.795 381.066 252.877 380.074C251.573 379.43 250.179 378.993 248.744 378.778C248.201 378.759 247.662 378.681 247.136 378.547C247.678 378.484 248.225 378.484 248.767 378.547C250.262 378.671 251.724 379.062 253.083 379.703C255.1 380.674 256.87 382.094 258.261 383.857C259.943 386.004 261.301 388.39 262.291 390.937C263.28 393.46 264.048 396.065 264.587 398.723C265.007 400.898 265.295 403.096 265.448 405.306C265.586 407.18 265.643 408.707 265.666 409.76C265.703 410.289 265.684 410.82 265.609 411.345Z" fill="#E0E0E0"/>
<path d="M265.31 407.99C265.276 407.74 265.276 407.487 265.31 407.238V405.086C265.31 403.212 265.31 400.458 265.219 397.173C265.058 390.497 264.484 381.277 263.382 371.142C262.28 361.008 260.753 351.891 259.467 345.401C259.157 343.758 258.835 342.289 258.537 340.993C258.238 339.697 258.009 338.586 257.768 337.684C257.526 336.782 257.4 336.134 257.274 335.59C257.198 335.35 257.151 335.101 257.136 334.85C257.256 335.071 257.345 335.309 257.4 335.555L258.02 337.615C258.296 338.505 258.571 339.616 258.893 340.912C259.214 342.208 259.582 343.665 259.926 345.308C261.764 353.83 263.144 362.447 264.059 371.119C265.207 381.277 265.655 390.521 265.701 397.208C265.701 400.551 265.701 403.27 265.586 405.132C265.529 406.012 265.483 406.717 265.448 407.284C265.427 407.524 265.38 407.76 265.31 407.99Z" fill="#E0E0E0"/>
<path d="M265.264 390.162C265.202 389.411 265.202 388.657 265.264 387.906C265.39 385.867 265.619 383.836 265.953 381.821C267.052 375.155 268.949 368.648 271.602 362.442C274.156 356.165 277.825 350.41 282.428 345.459C283.226 344.61 284.078 343.814 284.977 343.075C285.367 342.751 285.712 342.416 286.056 342.15L287.043 341.467C287.641 341.016 288.27 340.61 288.926 340.252C286.764 341.97 284.709 343.821 282.773 345.794C278.316 350.796 274.747 356.533 272.222 362.755C270.758 366.139 269.519 369.617 268.513 373.167C267.671 376.06 266.973 378.995 266.424 381.959C265.965 384.493 265.701 386.587 265.54 387.987C265.5 388.718 265.408 389.445 265.264 390.162Z" fill="#E0E0E0"/>
<path d="M408.878 66.0161V396.672L469.497 412.271L469.703 66.0161H408.878Z" fill="#455A64"/>
<path d="M416.352 226.318C416.478 228.898 415.365 231.047 413.872 231.098C412.38 231.15 411.071 229.051 410.956 226.513C410.841 223.974 411.944 221.784 413.436 221.723C414.929 221.661 416.237 223.729 416.352 226.318Z" fill="white"/>
<path d="M413.562 224.384L425.491 225.807C425.8 225.845 426.084 225.978 426.294 226.184C426.503 226.39 426.625 226.655 426.639 226.932C426.647 227.107 426.611 227.282 426.533 227.443C426.456 227.604 426.339 227.747 426.192 227.863C426.045 227.979 425.87 228.064 425.681 228.112C425.492 228.16 425.294 228.169 425.1 228.14L413.619 226.41L413.562 224.384Z" fill="white"/>
<path d="M310.958 51V62.4231V66.0159V412.271H330.843V66.0159H447.614V412.271H469.497V66.0159V62.4231V51H310.958Z" fill="#263238"/>
<path d="M330.843 66.0161H320.901V412.271H330.843V66.0161Z" fill="#263238"/>
<path opacity="0.5" d="M330.843 66.0161H320.901V412.271H330.843V66.0161Z" fill="black"/>
<path d="M469.692 51H459.75V412.271H469.692V51Z" fill="#263238"/>
<path opacity="0.5" d="M469.692 51H459.75V412.271H469.692V51Z" fill="black"/>
</g>
<g clip-path="url(#clip1)">
<path d="M363.206 142.252C360.393 139.754 356.726 138.437 352.967 138.574C350.549 133.726 345.583 130.881 340.33 131.842C332.807 133.22 330.507 142.272 335.731 145.584C337.465 146.675 339.338 147.525 341.301 148.112C341.296 148.191 341.296 148.27 341.301 148.35C338.222 149.457 335.529 151.429 333.544 154.03C331.559 156.631 330.367 159.751 330.111 163.013C329.338 174.246 341.39 180.8 347.952 174.563C348.856 173.698 349.713 172.785 350.519 171.827C351.788 173.612 353.155 175.436 354.632 177.339C371.066 169.795 373.841 151.403 363.206 142.252Z" fill="#263238"/>
<path d="M330.279 185.886C330.18 187.274 330.051 188.473 329.883 189.752C329.714 191.031 329.526 192.251 329.328 193.49C328.911 195.969 328.337 198.447 327.742 200.876C326.539 205.818 324.852 210.63 322.707 215.242L322.509 215.678C322.429 215.847 322.409 215.906 322.261 216.204C322.015 216.692 321.719 217.154 321.379 217.582C320.741 218.368 319.973 219.039 319.109 219.565C317.681 220.42 316.103 220.995 314.46 221.26C311.76 221.679 309.014 221.719 306.303 221.379C301.288 220.759 296.36 219.568 291.614 217.83L292.694 213.864C294.994 214.211 297.383 214.538 299.712 214.746C302.016 214.994 304.333 215.11 306.65 215.093C308.781 215.138 310.909 214.911 312.984 214.419C313.731 214.246 314.438 213.929 315.065 213.487C315.222 213.374 315.354 213.229 315.452 213.061C315.483 213.009 315.506 212.952 315.521 212.892L315.789 212.189C316.215 211.128 316.611 210.057 316.968 208.956C317.325 207.856 317.682 206.765 318.029 205.665C318.653 203.434 319.267 201.203 319.763 198.923C320.259 196.643 320.695 194.353 321.081 192.052C321.468 189.752 321.775 187.383 322.003 185.241L330.279 185.886Z" fill="#FFB570"/>
<path d="M324.629 175.952C321.289 176.804 318.95 190.575 318.95 190.575L328.168 196.841C328.168 196.841 336.999 182.961 334.432 179.273C331.746 175.495 329.506 174.712 324.629 175.952Z" fill="#263238"/>
<path opacity="0.2" d="M324.937 179.025L322.36 192.905L327.544 196.415L324.937 179.025Z" fill="black"/>
<path d="M289.255 214.052L282.991 216.491L290.058 220.755C290.058 220.755 294.568 218.147 294.459 214.806L293.765 214.409C293.087 214.018 292.33 213.783 291.55 213.721C290.77 213.66 289.986 213.773 289.255 214.052Z" fill="#FFB570"/>
<path opacity="0.1" d="M288.789 214.359L285.687 215.42C285.083 215.628 284.49 215.87 283.913 216.144C283.913 216.144 285.955 216.997 286.966 216.422C288.517 216.539 290.078 216.445 291.604 216.144L288.789 214.359Z" fill="black"/>
<path d="M279.106 221.101L284.418 225.533L290.058 220.754L282.991 216.491L279.106 221.101Z" fill="#FFB570"/>
<path d="M342.728 407.68H334.61L334.065 388.883H342.183L342.728 407.68Z" fill="#FFB570"/>
<path d="M334.333 406.738H343.452C343.609 406.735 343.762 406.79 343.881 406.892C344 406.995 344.076 407.138 344.096 407.294L345.137 414.501C345.156 414.684 345.137 414.868 345.081 415.043C345.024 415.217 344.932 415.378 344.81 415.514C344.687 415.651 344.537 415.76 344.37 415.835C344.203 415.91 344.022 415.949 343.838 415.949C340.657 415.889 339.13 415.711 335.116 415.711C332.648 415.711 325.561 415.969 322.162 415.969C318.762 415.969 318.574 412.598 319.991 412.291C326.354 410.922 330.834 409.039 332.975 407.234C333.355 406.914 333.836 406.738 334.333 406.738Z" fill="#263238"/>
<g opacity="0.2">
<path opacity="0.2" d="M334.075 388.883L334.353 398.569H342.471L342.193 388.883H334.075Z" fill="black"/>
</g>
<path d="M324.63 175.951C324.63 175.951 320.764 177.319 328.515 224.948H361.471C360.916 211.524 360.896 203.255 367.309 175.723C362.688 174.767 358.004 174.147 353.294 173.869C348.311 173.512 343.31 173.512 338.327 173.869C331.924 174.504 324.63 175.951 324.63 175.951Z" fill="#263238"/>
<path d="M347.347 189.018C344.628 188.936 341.986 188.098 339.715 186.599C339.688 186.581 339.664 186.558 339.645 186.53C339.627 186.503 339.614 186.472 339.608 186.44C339.601 186.408 339.601 186.375 339.608 186.342C339.614 186.31 339.627 186.279 339.646 186.252C339.665 186.225 339.689 186.202 339.716 186.185C339.744 186.167 339.775 186.156 339.807 186.15C339.839 186.145 339.872 186.145 339.904 186.153C339.936 186.16 339.966 186.174 339.993 186.193C342.426 187.785 345.293 188.585 348.2 188.483C349.28 187.809 356.753 182.812 357.318 174.186C357.323 174.122 357.353 174.063 357.401 174.02C357.449 173.978 357.512 173.955 357.576 173.958C357.608 173.96 357.64 173.967 357.67 173.981C357.7 173.994 357.726 174.014 357.748 174.038C357.77 174.062 357.788 174.09 357.799 174.12C357.81 174.151 357.815 174.183 357.814 174.216C357.229 183.06 349.885 188.037 348.408 188.939H348.299C347.962 189.008 347.645 189.018 347.347 189.018Z" fill="white"/>
<path d="M333.312 187.492C333.267 187.506 333.219 187.506 333.173 187.492C332.816 187.207 332.523 186.849 332.315 186.442C332.106 186.035 331.987 185.589 331.964 185.132C331.498 182.098 332.618 176.824 334.938 174.078C334.984 174.032 335.046 174.007 335.111 174.007C335.176 174.007 335.238 174.032 335.285 174.078C335.308 174.1 335.327 174.127 335.34 174.157C335.353 174.187 335.36 174.219 335.36 174.251C335.36 174.284 335.353 174.316 335.34 174.346C335.327 174.376 335.308 174.402 335.285 174.425C333.084 176.983 331.935 182.158 332.39 185.073C332.426 185.829 332.757 186.541 333.312 187.056C334.683 186.809 336.015 186.386 337.277 185.797C337.337 185.769 337.406 185.766 337.469 185.79C337.531 185.813 337.581 185.86 337.609 185.92C337.636 185.981 337.639 186.05 337.616 186.112C337.592 186.174 337.545 186.225 337.485 186.253C336.16 186.861 334.755 187.279 333.312 187.492Z" fill="white"/>
<path d="M351.837 157.015C350.846 161.833 349.944 170.657 353.314 173.869C353.314 173.869 351.996 178.757 343.055 178.757C333.213 178.757 338.347 173.879 338.347 173.879C343.719 172.59 343.581 168.605 342.649 164.867L351.837 157.015Z" fill="#FFB570"/>
<path d="M353.294 173.879C348.312 173.512 343.31 173.512 338.328 173.879L337.336 173.968C336.137 176.239 335.83 179.719 338.694 184.824C338.694 184.824 351.827 179.54 355.247 174.008C354.632 173.948 353.968 173.909 353.294 173.879Z" fill="#FFB570"/>
<path opacity="0.2" d="M348.091 160.217L342.649 164.857C342.879 165.728 343.035 166.616 343.115 167.514C345.167 167.216 347.982 164.966 348.2 162.824C348.318 161.956 348.281 161.073 348.091 160.217Z" fill="black"/>
<path d="M357.021 148.667C355.187 156.519 354.582 159.87 349.884 163.261C342.827 168.357 333.59 164.381 333.035 156.152C332.549 148.736 335.632 137.156 343.937 135.332C345.763 134.92 347.663 134.981 349.458 135.51C351.253 136.039 352.883 137.017 354.193 138.353C355.504 139.689 356.452 141.338 356.947 143.143C357.441 144.948 357.467 146.849 357.021 148.667Z" fill="#FFB570"/>
<path d="M328.515 224.948C328.515 224.948 322.112 287.468 322.637 312.195C323.192 337.972 332.628 396.665 332.628 396.665H343.6C343.6 396.665 341.866 339.449 342.837 314.158C343.888 286.596 352.64 224.928 352.64 224.928L328.515 224.948Z" fill="#007CFF"/>
<path opacity="0.3" d="M328.515 224.948C328.515 224.948 322.112 287.468 322.637 312.195C323.192 337.972 332.628 396.665 332.628 396.665H343.6C343.6 396.665 341.866 339.449 342.837 314.158C343.888 286.596 352.64 224.928 352.64 224.928L328.515 224.948Z" fill="white"/>
<path d="M344.552 397.092H331.677L330.735 392.977L345.147 392.481L344.552 397.092Z" fill="#263238"/>
<path opacity="0.2" d="M342.728 240.504C334.63 256.793 341.103 286.507 343.967 297.561C345.434 280.955 347.932 260.66 349.835 245.759C348.606 237.322 346.455 232.999 342.728 240.504Z" fill="black"/>
<path d="M380.66 407.68H372.542L369.559 388.883H377.677L380.66 407.68Z" fill="#FFB570"/>
<path d="M372.126 406.738H381.235C381.4 406.739 381.56 406.794 381.69 406.894C381.821 406.994 381.915 407.135 381.959 407.293L383.941 414.501C383.991 414.672 384 414.852 383.967 415.026C383.935 415.201 383.861 415.366 383.753 415.507C383.645 415.648 383.505 415.761 383.345 415.838C383.185 415.915 383.008 415.953 382.831 415.949C379.639 415.889 378.083 415.711 374.079 415.711C371.611 415.711 364.564 415.969 361.194 415.969C357.824 415.969 357.17 412.598 358.547 412.29C364.732 410.922 368.974 409.038 370.877 407.234C371.219 406.921 371.663 406.744 372.126 406.738Z" fill="#263238"/>
<g opacity="0.2">
<path opacity="0.2" d="M369.559 388.883L371.095 398.569H379.213L377.677 388.883H369.559Z" fill="black"/>
</g>
<path d="M337.624 224.948C337.624 224.948 344.443 287.468 348.189 312.195C352.085 337.972 369.133 396.665 369.133 396.665H380.105C380.105 396.665 370.946 339.449 368.637 314.158C366.11 286.596 361.758 224.928 361.758 224.928L337.624 224.948Z" fill="#007CFF"/>
<path opacity="0.3" d="M337.624 224.948C337.624 224.948 344.443 287.468 348.189 312.195C352.085 337.972 369.133 396.665 369.133 396.665H380.105C380.105 396.665 370.946 339.449 368.637 314.158C366.11 286.596 361.758 224.928 361.758 224.928L337.624 224.948Z" fill="white"/>
<path d="M381.106 397.092H368.231L366.754 392.977L381.106 392.481V397.092Z" fill="#263238"/>
<path d="M369.281 408.156C368.584 408.201 367.89 408.024 367.299 407.65C367.156 407.54 367.039 407.399 366.956 407.238C366.874 407.077 366.829 406.899 366.823 406.718C366.815 406.616 366.836 406.513 366.883 406.422C366.93 406.331 367.002 406.255 367.091 406.203C368.013 405.658 371.462 407.313 371.849 407.502C371.886 407.52 371.918 407.548 371.941 407.583C371.963 407.618 371.976 407.658 371.977 407.7C371.977 407.738 371.964 407.775 371.941 407.805C371.918 407.836 371.885 407.858 371.849 407.869C371.004 408.043 370.144 408.14 369.281 408.156ZM367.616 406.471C367.497 406.467 367.378 406.491 367.269 406.54C367.233 406.561 367.204 406.591 367.184 406.628C367.165 406.665 367.157 406.707 367.16 406.748C367.16 406.869 367.188 406.988 367.241 407.097C367.294 407.205 367.372 407.299 367.468 407.373C368.013 407.809 369.361 407.888 371.125 407.591C370.02 407.046 368.836 406.678 367.616 406.5V406.471Z" fill="#007CFF"/>
<path d="M371.759 407.869H371.68C370.689 407.433 368.508 405.688 368.538 404.766C368.538 404.547 368.667 404.27 369.192 404.22C369.592 404.182 369.991 404.303 370.302 404.557C371.136 405.417 371.698 406.503 371.918 407.68C371.935 407.705 371.944 407.735 371.944 407.765C371.944 407.795 371.935 407.824 371.918 407.849C371.896 407.867 371.869 407.879 371.841 407.882C371.813 407.886 371.785 407.881 371.759 407.869ZM369.4 404.577H369.281C368.934 404.577 368.934 404.746 368.934 404.795C368.934 405.351 370.391 406.729 371.452 407.323C371.242 406.377 370.771 405.508 370.094 404.815C369.895 404.662 369.651 404.578 369.4 404.577Z" fill="#007CFF"/>
<path d="M344.027 148.627C343.918 149.272 343.491 149.738 343.036 149.619C342.58 149.5 342.362 148.974 342.471 148.32C342.58 147.666 343.016 147.209 343.462 147.328C343.908 147.447 344.136 147.983 344.027 148.627Z" fill="#263238"/>
<path d="M336.731 147.378C336.622 148.032 336.196 148.488 335.74 148.419C335.284 148.35 335.066 147.765 335.175 147.12C335.284 146.476 335.721 146.01 336.167 146.079C336.613 146.149 336.85 146.743 336.731 147.378Z" fill="#263238"/>
<path d="M336.355 146.149L334.878 145.445C334.878 145.445 335.453 146.744 336.355 146.149Z" fill="#263238"/>
<path d="M338.783 148.925C337.968 150.298 336.967 151.552 335.81 152.653C336.097 152.944 336.445 153.169 336.829 153.311C337.212 153.453 337.622 153.509 338.03 153.476L338.783 148.925Z" fill="#FF8935"/>
<path d="M341.103 156.658C340.771 156.648 340.44 156.618 340.112 156.569C340.061 156.559 340.015 156.53 339.986 156.487C339.956 156.445 339.944 156.392 339.953 156.341C339.965 156.293 339.993 156.25 340.033 156.221C340.073 156.192 340.122 156.178 340.171 156.182C340.971 156.339 341.797 156.305 342.581 156.081C343.365 155.857 344.085 155.45 344.681 154.893C344.717 154.86 344.765 154.841 344.815 154.841C344.864 154.841 344.912 154.86 344.948 154.893C344.968 154.911 344.983 154.932 344.994 154.956C345.004 154.98 345.009 155.006 345.009 155.032C345.009 155.058 345.004 155.084 344.994 155.108C344.983 155.132 344.968 155.153 344.948 155.171C344.438 155.661 343.835 156.044 343.175 156.3C342.514 156.555 341.81 156.677 341.103 156.658Z" fill="#263238"/>
<path d="M360.847 136.462C359.918 135.805 358.861 135.352 357.744 135.133C356.842 127.4 350.648 122.483 343.749 124.029C335.909 125.794 333.183 135.52 338.427 138.812C341.523 140.702 345.02 141.84 348.636 142.133C348.764 148.538 352.769 154.03 355.574 154.318C363.612 151.155 365.684 139.853 360.847 136.462Z" fill="#263238"/>
<path d="M357.933 156.301C357.548 156.969 357.034 157.554 356.422 158.022C355.809 158.49 355.11 158.832 354.364 159.028C352.382 159.543 351.391 157.749 351.996 155.885C352.531 154.199 354.216 151.919 356.198 152.226C356.632 152.302 357.04 152.484 357.385 152.758C357.73 153.031 358.001 153.387 358.174 153.792C358.346 154.197 358.414 154.639 358.372 155.077C358.33 155.515 358.179 155.936 357.933 156.301Z" fill="#FFB570"/>
<path d="M347.208 147.636C347.128 147.635 347.05 147.609 346.986 147.56C346.922 147.512 346.875 147.445 346.852 147.368C346.326 145.663 344.156 144.939 344.126 144.929C344.078 144.915 344.034 144.891 343.996 144.858C343.958 144.826 343.927 144.787 343.905 144.742C343.883 144.698 343.87 144.649 343.867 144.599C343.864 144.55 343.871 144.5 343.888 144.453C343.903 144.404 343.927 144.359 343.96 144.32C343.992 144.281 344.032 144.248 344.078 144.225C344.123 144.202 344.173 144.188 344.224 144.185C344.275 144.182 344.326 144.188 344.374 144.205C344.473 144.205 346.941 145.058 347.585 147.18C347.6 147.228 347.605 147.279 347.601 147.329C347.596 147.379 347.581 147.428 347.557 147.472C347.533 147.517 347.5 147.556 347.461 147.587C347.421 147.619 347.376 147.642 347.327 147.656C347.287 147.659 347.246 147.652 347.208 147.636Z" fill="#263238"/>
<path d="M335.116 143.64C335.049 143.639 334.983 143.62 334.925 143.586C334.868 143.551 334.821 143.501 334.789 143.442C334.738 143.354 334.725 143.249 334.75 143.151C334.776 143.052 334.84 142.968 334.928 142.916C335.452 142.6 336.044 142.415 336.654 142.375C337.265 142.336 337.876 142.443 338.436 142.688C338.527 142.735 338.595 142.815 338.626 142.912C338.658 143.008 338.65 143.113 338.605 143.204C338.558 143.294 338.478 143.362 338.382 143.394C338.285 143.425 338.18 143.418 338.09 143.372C337.644 143.179 337.159 143.098 336.675 143.137C336.191 143.175 335.724 143.33 335.314 143.591C335.253 143.622 335.185 143.639 335.116 143.64Z" fill="#263238"/>
<path d="M371.135 185.171C372.126 189.831 372.77 194.431 373.335 199.121C373.917 203.829 374.247 208.565 374.326 213.308C374.326 213.546 374.326 214.032 374.326 214.478C374.326 214.924 374.257 215.271 374.197 215.638C374.098 216.306 373.962 216.968 373.791 217.621C373.474 218.9 373.097 220.08 372.691 221.24C371.898 223.55 370.966 225.731 370.015 227.902C368.078 232.187 365.925 236.369 363.562 240.434L359.835 238.699L362.036 232.185C362.789 230.017 363.499 227.846 364.167 225.672C364.851 223.51 365.475 221.339 366.02 219.227C366.288 218.166 366.516 217.116 366.684 216.124C366.764 215.628 366.823 215.133 366.853 214.736C366.853 214.528 366.853 214.34 366.853 214.161V213.606C366.674 211.385 366.407 209.144 366.149 206.904L365.188 200.212C364.494 195.73 363.741 191.18 362.968 186.758L371.135 185.171Z" fill="#FFB570"/>
<path d="M367.309 175.723C370.609 176.715 374.574 188.097 374.574 188.097L361.768 197.307C361.768 197.307 357.1 187.809 358.487 183.546C359.925 179.045 363.542 174.573 367.309 175.723Z" fill="#263238"/>
<path d="M331.29 408.156C330.591 408.222 329.89 408.044 329.308 407.65C329.178 407.535 329.079 407.39 329.019 407.228C328.958 407.065 328.938 406.89 328.961 406.718C328.969 406.612 329.003 406.509 329.06 406.419C329.117 406.33 329.195 406.255 329.288 406.203C330.279 405.658 333.52 407.313 333.887 407.502C333.922 407.522 333.95 407.552 333.968 407.588C333.985 407.625 333.991 407.666 333.985 407.706C333.978 407.746 333.96 407.783 333.932 407.812C333.904 407.841 333.867 407.861 333.828 407.869C332.992 408.039 332.143 408.135 331.29 408.156ZM329.843 406.471C329.721 406.468 329.599 406.492 329.486 406.54C329.449 406.561 329.417 406.591 329.394 406.627C329.372 406.664 329.359 406.705 329.358 406.748C329.339 406.862 329.349 406.979 329.387 407.088C329.425 407.197 329.49 407.295 329.576 407.373C330.071 407.809 331.399 407.888 333.203 407.591C332.153 407.04 331.017 406.671 329.843 406.5V406.471Z" fill="#007CFF"/>
<path d="M333.808 407.869H333.728C332.737 407.433 330.844 405.688 330.993 404.766C330.993 404.547 331.181 404.27 331.716 404.22C331.907 404.198 332.1 404.216 332.283 404.274C332.466 404.332 332.634 404.429 332.777 404.557C333.768 405.4 333.986 407.591 333.996 407.68C333.999 407.713 333.993 407.746 333.979 407.775C333.965 407.805 333.943 407.83 333.917 407.849C333.884 407.869 333.845 407.876 333.808 407.869ZM331.825 404.577H331.707C331.36 404.577 331.33 404.746 331.32 404.795C331.231 405.351 332.529 406.729 333.52 407.323C333.45 406.407 333.105 405.532 332.529 404.815C332.347 404.659 332.115 404.575 331.875 404.577H331.825Z" fill="#007CFF"/>
<path d="M343.64 147.398L342.173 146.684C342.173 146.684 342.758 148.032 343.64 147.398Z" fill="#263238"/>
<path d="M361.957 223.015L362.809 225.989C362.918 226.217 362.65 226.455 362.264 226.455H328.346C328.049 226.455 327.801 226.307 327.781 226.118L327.484 223.144C327.484 222.936 327.722 222.767 328.049 222.767H361.421C361.525 222.757 361.629 222.775 361.723 222.819C361.817 222.862 361.897 222.93 361.957 223.015Z" fill="#007CFF"/>
<path d="M357.477 226.742H358.369C358.547 226.742 358.686 226.653 358.676 226.534L358.26 222.707C358.26 222.588 358.091 222.499 357.913 222.499H357.011C356.842 222.499 356.703 222.588 356.713 222.707L357.13 226.534C357.15 226.653 357.259 226.742 357.477 226.742Z" fill="#007CFF"/>
<g opacity="0.3">
<path opacity="0.3" d="M357.477 226.742H358.369C358.547 226.742 358.686 226.653 358.676 226.534L358.26 222.707C358.26 222.588 358.091 222.499 357.913 222.499H357.011C356.842 222.499 356.703 222.588 356.713 222.707L357.13 226.534C357.15 226.653 357.259 226.742 357.477 226.742Z" fill="white"/>
</g>
<path d="M330.864 226.742H331.756C331.934 226.742 332.063 226.653 332.053 226.534L331.637 222.707C331.637 222.588 331.468 222.499 331.29 222.499H330.398C330.22 222.499 330.081 222.588 330.091 222.707L330.517 226.534C330.497 226.653 330.685 226.742 330.864 226.742Z" fill="#007CFF"/>
<path opacity="0.3" d="M330.864 226.742H331.756C331.934 226.742 332.063 226.653 332.053 226.534L331.637 222.707C331.637 222.588 331.468 222.499 331.29 222.499H330.398C330.22 222.499 330.081 222.588 330.091 222.707L330.517 226.534C330.497 226.653 330.685 226.742 330.864 226.742Z" fill="white"/>
<path d="M344.165 226.742H345.067C345.246 226.742 345.375 226.653 345.365 226.534L344.948 222.707C344.948 222.588 344.78 222.499 344.601 222.499H343.709C343.531 222.499 343.392 222.588 343.402 222.707L343.818 226.534C343.838 226.653 343.987 226.742 344.165 226.742Z" fill="#007CFF"/>
<path opacity="0.3" d="M344.165 226.742H345.067C345.246 226.742 345.375 226.653 345.365 226.534L344.948 222.707C344.948 222.588 344.78 222.499 344.601 222.499H343.709C343.531 222.499 343.392 222.588 343.402 222.707L343.818 226.534C343.838 226.653 343.987 226.742 344.165 226.742Z" fill="white"/>
<path d="M359.945 237.956L353.651 244.063L361.867 244.886C361.867 244.886 364.841 240.593 363.275 237.589L359.945 237.956Z" fill="#FFB570"/>
<path d="M352.729 250.835L359.637 251.152L361.868 244.896L353.651 244.073L352.729 250.835Z" fill="#FFB570"/>
<path d="M192.28 408.9C193.062 408.991 193.85 408.798 194.5 408.355C194.591 408.253 194.648 408.128 194.666 407.993C194.684 407.859 194.66 407.722 194.599 407.601C194.552 407.501 194.483 407.412 194.398 407.342C194.312 407.271 194.211 407.221 194.104 407.195C192.944 406.867 190.189 408.315 190.07 408.374C190.037 408.392 190.01 408.418 189.991 408.449C189.972 408.48 189.962 408.516 189.961 408.553C189.96 408.585 189.97 408.617 189.99 408.642C190.01 408.667 190.038 408.685 190.07 408.692C190.798 408.831 191.538 408.901 192.28 408.9ZM193.638 407.492C193.746 407.476 193.857 407.476 193.965 407.492C194.032 407.503 194.095 407.53 194.149 407.572C194.203 407.613 194.245 407.668 194.272 407.73C194.361 407.948 194.272 408.047 194.272 408.107C193.856 408.583 192.012 408.593 190.694 408.404C191.614 407.929 192.611 407.621 193.638 407.492Z" fill="#007CFF"/>
<path d="M190.109 408.702H190.179C191.12 408.305 193.093 406.719 193.073 405.916C193.073 405.717 192.974 405.479 192.508 405.43C192.152 405.396 191.796 405.503 191.517 405.727C190.751 406.482 190.212 407.437 189.961 408.484C189.956 408.512 189.957 408.541 189.966 408.569C189.975 408.597 189.99 408.622 190.01 408.642C190.035 408.673 190.07 408.694 190.109 408.702ZM192.32 405.727H192.419C192.726 405.727 192.726 405.876 192.726 405.916C192.726 406.411 191.368 407.651 190.397 408.186C190.611 407.334 191.057 406.558 191.685 405.945C191.868 405.808 192.092 405.738 192.32 405.747V405.727Z" fill="#007CFF"/>
<path d="M182.13 408.523H189.406L192.617 391.659H185.332L182.13 408.523Z" fill="#CD5B51"/>
<path d="M189.485 407.68H181.556C181.403 407.685 181.255 407.736 181.131 407.826C181.007 407.916 180.914 408.042 180.862 408.186L178.473 414.66C178.409 414.801 178.382 414.955 178.395 415.109C178.407 415.263 178.458 415.411 178.543 415.54C178.628 415.669 178.745 415.774 178.882 415.845C179.019 415.917 179.171 415.952 179.326 415.949C182.2 415.949 186.373 415.731 189.981 415.731C194.193 415.731 193.807 415.969 198.752 415.969C201.726 415.969 203.014 412.945 201.805 412.667C196.294 411.418 195.65 411.289 191.17 408.255C190.682 407.892 190.093 407.691 189.485 407.68Z" fill="#263238"/>
<path opacity="0.2" d="M192.607 391.668L190.962 400.363H183.677L185.322 391.668H192.607Z" fill="black"/>
<path d="M193.162 226.812L197.92 231.769L190.238 234.456C190.238 234.456 187.433 230.371 189.594 227.575L193.162 226.812Z" fill="#CD5B51"/>
<path d="M199.357 238.818L191.745 239.929L190.238 234.506L197.92 231.819L199.357 238.818Z" fill="#CD5B51"/>
<path d="M164.587 268.363L201.736 269.999C202.607 270.01 203.456 269.721 204.138 269.179C204.821 268.637 205.295 267.876 205.482 267.025L209.933 244.321C210.025 243.936 210.029 243.536 209.946 243.149C209.862 242.763 209.693 242.4 209.45 242.087C209.208 241.775 208.898 241.521 208.544 241.345C208.19 241.169 207.801 241.075 207.405 241.069L170.257 239.423C169.384 239.41 168.533 239.699 167.848 240.241C167.164 240.783 166.687 241.545 166.5 242.398L162.06 265.111C161.967 265.496 161.963 265.897 162.046 266.283C162.13 266.67 162.299 267.033 162.542 267.345C162.785 267.657 163.095 267.911 163.449 268.087C163.803 268.264 164.192 268.358 164.587 268.363Z" fill="#263238"/>
<path d="M167.134 275.343L213.015 277.326C214.053 277.364 215.067 277.005 215.849 276.321C216.632 275.638 217.125 274.682 217.227 273.648L219.656 245.471C219.705 244.97 219.651 244.464 219.497 243.985C219.343 243.505 219.093 243.062 218.761 242.683C218.43 242.304 218.024 241.997 217.569 241.781C217.115 241.565 216.62 241.444 216.117 241.426L170.227 239.443C169.187 239.408 168.173 239.772 167.392 240.459C166.611 241.146 166.122 242.105 166.024 243.141L163.586 271.298C163.538 271.8 163.594 272.306 163.749 272.786C163.904 273.265 164.155 273.708 164.487 274.087C164.82 274.465 165.226 274.772 165.681 274.988C166.136 275.204 166.631 275.325 167.134 275.343Z" fill="#007CFF"/>
<path opacity="0.2" d="M167.134 275.343L213.015 277.326C214.053 277.364 215.067 277.005 215.849 276.321C216.632 275.638 217.125 274.682 217.227 273.648L219.656 245.471C219.705 244.97 219.651 244.464 219.497 243.985C219.343 243.505 219.093 243.062 218.761 242.683C218.43 242.304 218.024 241.997 217.569 241.781C217.115 241.565 216.62 241.444 216.117 241.426L170.227 239.443C169.187 239.408 168.173 239.772 167.392 240.459C166.611 241.146 166.122 242.105 166.024 243.141L163.586 271.298C163.538 271.8 163.594 272.306 163.749 272.786C163.904 273.265 164.155 273.708 164.487 274.087C164.82 274.465 165.226 274.772 165.681 274.988C166.136 275.204 166.631 275.325 167.134 275.343Z" fill="black"/>
<path d="M200.794 248.862H200.655L187.324 248.277C186.979 248.261 186.64 248.175 186.329 248.025C186.018 247.875 185.74 247.664 185.512 247.403C185.284 247.143 185.112 246.84 185.004 246.511C184.896 246.183 184.856 245.836 184.886 245.491L185.411 239.414C185.543 238.168 186.142 237.018 187.087 236.196C188.033 235.373 189.254 234.94 190.506 234.982L199.426 235.378C200.07 235.405 200.702 235.563 201.284 235.841C201.866 236.119 202.385 236.513 202.81 236.997C203.235 237.482 203.558 238.048 203.758 238.661C203.959 239.274 204.033 239.921 203.976 240.564L203.46 246.453C203.392 247.113 203.081 247.724 202.589 248.169C202.097 248.614 201.457 248.861 200.794 248.862ZM187.909 245.323L200.517 245.878L201.002 240.286C201.023 240.044 200.995 239.799 200.92 239.568C200.846 239.336 200.725 239.122 200.566 238.938C200.405 238.756 200.208 238.609 199.989 238.505C199.769 238.401 199.53 238.342 199.288 238.333L190.367 237.936C189.882 237.932 189.412 238.107 189.046 238.427C188.681 238.747 188.445 239.189 188.385 239.671L187.909 245.323Z" fill="#007CFF"/>
<path d="M217.931 277.613L172.05 275.631C171.003 275.572 170.015 275.123 169.281 274.373C168.548 273.622 168.121 272.625 168.086 271.576L167.461 243.27C167.443 242.77 167.529 242.271 167.714 241.806C167.899 241.342 168.179 240.921 168.537 240.57C168.894 240.22 169.321 239.949 169.789 239.773C170.258 239.598 170.758 239.523 171.258 239.552L217.138 241.535C218.185 241.596 219.172 242.045 219.905 242.795C220.638 243.545 221.065 244.542 221.103 245.59L221.717 273.905C221.735 274.404 221.648 274.9 221.463 275.363C221.278 275.826 220.998 276.246 220.642 276.595C220.286 276.943 219.861 277.214 219.394 277.39C218.927 277.565 218.429 277.641 217.931 277.613Z" fill="#007CFF"/>
<path d="M172.159 248.312L170.969 244.871H171.573L172.413 247.549L173.208 244.871H173.819L174.589 247.549L175.435 244.871H176.052L174.849 248.312H174.29L173.514 245.685L172.718 248.312H172.413H172.159ZM177.021 248.312H176.474V244.871H177.021V248.312ZM176.435 243.733C176.435 243.644 176.465 243.569 176.524 243.51C176.588 243.446 176.662 243.415 176.747 243.415C176.836 243.415 176.91 243.446 176.97 243.51C177.033 243.569 177.065 243.644 177.065 243.733C177.065 243.817 177.033 243.892 176.97 243.955C176.91 244.015 176.836 244.044 176.747 244.044C176.662 244.044 176.588 244.015 176.524 243.955C176.465 243.892 176.435 243.817 176.435 243.733ZM179.783 248.312H179.045H178.937H178.351H177.925C177.832 248.312 177.751 248.285 177.684 248.23C177.62 248.175 177.588 248.092 177.588 247.982C177.588 247.914 177.601 247.838 177.626 247.753C177.656 247.668 177.707 247.575 177.779 247.473L179.21 245.374H177.804L177.588 244.871H178.332H178.491H179.077H179.325C179.448 244.871 179.545 244.901 179.617 244.96C179.694 245.015 179.732 245.098 179.732 245.208C179.732 245.268 179.719 245.336 179.694 245.412C179.672 245.484 179.632 245.565 179.573 245.654L178.148 247.829H179.636L179.783 248.312ZM183.354 246.729V246.9C183.354 247.049 183.358 247.184 183.366 247.307C183.375 247.43 183.4 247.539 183.443 247.632C183.489 247.725 183.561 247.797 183.659 247.848C183.756 247.899 183.896 247.924 184.079 247.924C184.354 247.924 184.543 247.869 184.645 247.759C184.747 247.645 184.797 247.486 184.797 247.282C184.823 247.282 184.859 247.282 184.906 247.282C184.952 247.282 185.001 247.282 185.052 247.282C185.103 247.278 185.154 247.276 185.205 247.276C185.255 247.276 185.3 247.276 185.338 247.276C185.338 247.441 185.319 247.592 185.281 247.727C185.243 247.859 185.175 247.973 185.077 248.071C184.984 248.164 184.855 248.238 184.689 248.293C184.528 248.344 184.325 248.37 184.079 248.37C183.79 248.37 183.561 248.334 183.392 248.262C183.226 248.185 183.101 248.084 183.016 247.956C182.932 247.825 182.876 247.67 182.851 247.492C182.826 247.314 182.813 247.119 182.813 246.907V246.283C182.813 246.071 182.823 245.876 182.845 245.698C182.87 245.516 182.925 245.359 183.01 245.227C183.099 245.096 183.226 244.994 183.392 244.922C183.561 244.846 183.79 244.808 184.079 244.808C184.346 244.808 184.562 244.844 184.727 244.916C184.893 244.988 185.02 245.09 185.109 245.221C185.202 245.348 185.264 245.505 185.294 245.692C185.328 245.874 185.345 246.078 185.345 246.302V246.729H183.354ZM184.079 245.253C183.896 245.253 183.756 245.28 183.659 245.336C183.561 245.386 183.489 245.456 183.443 245.545C183.4 245.635 183.375 245.738 183.366 245.857C183.358 245.976 183.354 246.103 183.354 246.239V246.302H184.804C184.804 246.124 184.795 245.97 184.778 245.838C184.766 245.707 184.734 245.598 184.683 245.514C184.636 245.425 184.564 245.359 184.467 245.316C184.373 245.274 184.244 245.253 184.079 245.253ZM185.833 246.023C185.833 245.802 185.852 245.62 185.89 245.475C185.928 245.327 186 245.208 186.106 245.119C186.212 245.03 186.354 244.967 186.533 244.928C186.715 244.89 186.95 244.871 187.239 244.871H187.849L187.62 245.323H187.277C187.094 245.323 186.944 245.333 186.825 245.355C186.711 245.372 186.62 245.406 186.552 245.456C186.484 245.507 186.437 245.579 186.412 245.673C186.386 245.762 186.374 245.878 186.374 246.023V248.312H185.833V246.023Z" fill="white"/>
<path d="M182.385 248.312H181.648H181.539H180.954H180.528C180.435 248.312 180.354 248.285 180.286 248.23C180.223 248.175 180.191 248.092 180.191 247.982C180.191 247.914 180.204 247.838 180.229 247.753C180.259 247.668 180.31 247.575 180.382 247.473L181.813 245.374H180.407L180.191 244.871H180.935H181.094H181.679H181.927C182.05 244.871 182.148 244.901 182.22 244.96C182.296 245.015 182.335 245.098 182.335 245.208C182.335 245.268 182.322 245.336 182.296 245.412C182.275 245.484 182.235 245.565 182.176 245.654L180.751 247.829H182.239L182.385 248.312Z" fill="#ECECEC"/>
<path d="M204.342 171.361C203.857 172.352 203.282 173.473 202.767 174.563C202.251 175.654 201.726 176.784 201.22 177.914C200.229 180.155 199.238 182.415 198.396 184.696C197.553 186.976 196.75 189.256 196.037 191.527C195.709 192.657 195.382 193.797 195.125 194.917C194.976 195.483 194.857 196.048 194.758 196.593L194.589 197.426C194.54 197.703 194.471 198.001 194.461 198.189C194.387 198.659 194.341 199.132 194.322 199.607C194.322 200.152 194.243 200.678 194.243 201.282C194.243 202.433 194.243 203.662 194.243 204.881C194.302 207.35 194.441 209.839 194.589 212.396C194.887 217.463 195.313 222.608 195.709 227.684L186.621 229.152C185.401 223.986 184.43 218.861 183.558 213.626C183.142 211.008 182.785 208.361 182.477 205.694C182.349 204.326 182.21 202.968 182.131 201.53C182.081 200.836 182.061 200.073 182.061 199.319C182.049 198.499 182.079 197.678 182.15 196.861C182.15 196.405 182.22 196.058 182.259 195.691L182.398 194.61C182.484 193.876 182.593 193.163 182.725 192.469C182.953 191.041 183.251 189.663 183.558 188.285C184.192 185.548 184.936 182.871 185.808 180.274C186.68 177.676 187.602 175.099 188.623 172.58C189.148 171.321 189.673 170.062 190.228 168.823C190.783 167.583 191.338 166.374 192.022 165.016L204.342 171.361Z" fill="#007CFF"/>
<path d="M224.195 223.263C224.195 223.263 217.198 277.713 213.134 299.931C208.922 323.031 193.925 398.678 193.925 398.678H181.585C181.585 398.678 187.859 324.38 190.655 301.695C193.688 276.959 198.584 223.263 198.584 223.263H224.195Z" fill="#263238"/>
<path d="M197.018 393.761C197.077 393.761 195.571 398.887 195.571 398.887H180.564L180.832 394.316L197.018 393.761Z" fill="#007CFF"/>
<path d="M230.172 132.863C230.172 133.478 230.499 133.984 230.896 133.984C231.292 133.984 231.629 133.478 231.629 132.863C231.629 132.249 231.302 131.743 230.896 131.743C230.489 131.743 230.172 132.209 230.172 132.863Z" fill="#263238"/>
<path d="M230.44 133.944C231.184 135.83 232.185 137.605 233.413 139.218C232.988 139.521 232.501 139.727 231.987 139.822C231.473 139.916 230.945 139.896 230.44 139.764V133.944Z" fill="#BA221F"/>
<path d="M227.982 129.403C228.06 129.405 228.136 129.38 228.2 129.334C228.562 129.062 228.984 128.881 229.43 128.805C229.877 128.729 230.335 128.761 230.767 128.898C230.857 128.933 230.958 128.931 231.048 128.892C231.137 128.853 231.207 128.78 231.242 128.689C231.278 128.599 231.276 128.498 231.237 128.408C231.198 128.319 231.125 128.249 231.034 128.214C230.485 128.043 229.903 128.005 229.336 128.104C228.769 128.202 228.234 128.433 227.773 128.779C227.697 128.836 227.646 128.921 227.631 129.015C227.616 129.11 227.639 129.206 227.694 129.284C227.729 129.325 227.774 129.357 227.824 129.378C227.874 129.399 227.928 129.407 227.982 129.403Z" fill="#263238"/>
<path d="M210.646 139.635C211.697 144.969 212.738 154.724 209.011 158.284C209.011 158.284 210.468 163.687 220.36 163.687C231.262 163.687 225.563 158.284 225.563 158.284C219.616 156.866 219.775 152.454 220.815 148.369L210.646 139.635Z" fill="#CD5B51"/>
<path d="M207.594 160.138C206.811 158.433 205.948 156.469 207.732 155.855C209.715 155.181 220.38 154.497 224.077 155.756C224.563 155.89 225.017 156.12 225.414 156.433C225.81 156.745 226.141 157.132 226.386 157.573C226.632 158.014 226.787 158.5 226.843 159.001C226.899 159.503 226.855 160.01 226.713 160.495L207.594 160.138Z" fill="#263238"/>
<path d="M194.708 160.376C188.335 163.271 184.361 185.221 184.361 185.221L196.859 189.187C199.32 183.392 201.364 177.428 202.975 171.341C205.205 162.17 201.191 157.421 194.708 160.376Z" fill="#007CFF"/>
<path d="M272.227 214.727H279.909L278.561 223.927C278.561 223.927 272.544 223.709 269.809 219.158L272.227 214.727Z" fill="#CD5B51"/>
<path d="M287.194 217.929L283.328 225.037L278.57 223.947L279.908 214.746L287.194 217.929Z" fill="#CD5B51"/>
<path d="M209.576 131.515C210.042 139.09 209.923 143.551 213.749 147.438C219.507 153.287 228.854 149.817 230.658 142.252C232.283 135.451 231.252 124.198 223.839 121.184C222.207 120.512 220.431 120.268 218.678 120.475C216.926 120.683 215.256 121.335 213.827 122.37C212.397 123.406 211.256 124.789 210.512 126.39C209.768 127.99 209.446 129.755 209.576 131.515Z" fill="#CD5B51"/>
<path d="M208.733 141.786C208.733 141.786 201.864 131.525 203.351 124.813C204.719 118.666 218.566 116.485 224.314 117.099C230.39 117.754 232.799 120.391 229.399 125.685C227.421 126.618 225.343 127.32 223.204 127.777C223.204 127.777 226.614 131.961 226.643 134.717C225.652 135.233 222.59 136.462 222.59 136.462C222.59 136.462 218.248 147.17 218.119 147.16C216.435 146.952 212.569 146.892 211.181 147.418C210.208 145.613 209.389 143.729 208.733 141.786Z" fill="#263238"/>
<path d="M219.616 135.362C220.126 137.172 221.207 138.768 222.699 139.913C224.681 141.4 226.158 139.982 226.009 137.761C225.88 135.778 224.691 132.576 222.51 131.951C220.33 131.327 219.051 133.181 219.616 135.362Z" fill="#CD5B51"/>
<path opacity="0.3" d="M218.952 243.617C209.199 245.878 211.023 281.133 212.896 301.23C212.975 300.774 213.055 300.347 213.134 299.931C215.552 286.705 219.011 262.058 221.42 244.272C220.67 243.838 219.818 243.612 218.952 243.617Z" fill="black"/>
<path d="M228.408 408.9C229.34 408.9 230.241 408.771 230.549 408.355C230.625 408.244 230.666 408.112 230.666 407.978C230.666 407.843 230.625 407.712 230.549 407.601C230.49 407.5 230.412 407.412 230.318 407.342C230.224 407.272 230.117 407.222 230.004 407.195C228.794 406.867 226.247 408.315 226.138 408.374C226.108 408.392 226.084 408.419 226.07 408.451C226.056 408.483 226.052 408.519 226.059 408.553C226.062 408.587 226.077 408.619 226.1 408.644C226.123 408.669 226.154 408.685 226.188 408.692C226.92 408.829 227.663 408.898 228.408 408.9ZM229.528 407.492C229.64 407.476 229.753 407.476 229.865 407.492C229.935 407.506 230.001 407.534 230.059 407.575C230.117 407.616 230.166 407.669 230.202 407.73C230.321 407.948 230.281 408.047 230.202 408.107C229.865 408.583 228.021 408.593 226.673 408.404C227.556 407.917 228.526 407.607 229.528 407.492Z" fill="#007CFF"/>
<path d="M226.178 408.701H226.247C227.129 408.305 228.864 406.718 228.735 405.915C228.735 405.717 228.566 405.479 228.091 405.429C227.914 405.405 227.734 405.418 227.562 405.47C227.391 405.521 227.233 405.609 227.099 405.727C226.178 406.49 225.979 408.443 225.969 408.533C225.97 408.563 225.978 408.593 225.991 408.621C226.005 408.648 226.025 408.672 226.049 408.691C226.069 408.701 226.09 408.707 226.112 408.709C226.134 408.711 226.157 408.708 226.178 408.701ZM227.952 405.727H228.051C228.368 405.727 228.388 405.876 228.388 405.915C228.467 406.411 227.288 407.65 226.406 408.186C226.491 407.353 226.838 406.569 227.397 405.945C227.553 405.816 227.749 405.746 227.952 405.747V405.727Z" fill="#007CFF"/>
<path d="M218.169 408.523H225.454L226.178 391.659H218.893L218.169 408.523Z" fill="#CD5B51"/>
<path d="M225.434 407.68H217.505C217.36 407.68 217.219 407.73 217.107 407.822C216.995 407.915 216.918 408.043 216.89 408.186L215.453 414.66C215.417 414.815 215.417 414.977 215.452 415.133C215.488 415.289 215.559 415.434 215.659 415.558C215.76 415.683 215.887 415.782 216.031 415.85C216.176 415.918 216.334 415.951 216.494 415.949C219.368 415.949 223.511 415.731 227.119 415.731C231.332 415.731 234.969 415.969 239.915 415.969C242.889 415.969 243.741 412.945 242.482 412.667C236.793 411.418 232.134 411.289 227.218 408.255C226.691 407.897 226.072 407.697 225.434 407.68Z" fill="#263238"/>
<path opacity="0.2" d="M226.178 391.668L225.801 400.363H218.516L218.893 391.668H226.178Z" fill="black"/>
<path d="M237.199 223.263C237.199 223.263 238.191 277.713 237.408 299.931C236.585 323.031 228.487 398.678 228.487 398.678H216.177C216.177 398.678 215.731 324.38 215.186 301.695C214.591 276.959 211.608 223.263 211.608 223.263H237.199Z" fill="#263238"/>
<path d="M230.886 393.761C230.945 393.761 230.192 398.887 230.192 398.887H215.186L214.779 394.316L230.886 393.761Z" fill="#007CFF"/>
<path d="M236.763 160.307C236.763 160.307 245.495 173.631 238.181 227.833H197.048C196.77 221.885 201.736 188.106 195.967 159.93C200.275 159.101 204.632 158.551 209.011 158.284C214.524 157.967 220.05 157.967 225.563 158.284C229.344 158.665 233.088 159.341 236.763 160.307Z" fill="#007CFF"/>
<path opacity="0.2" d="M241.095 188.037L232.472 173.74C232.472 173.74 235.713 194.005 240.678 203.146C241.015 197.426 241.134 192.409 241.095 188.037Z" fill="black"/>
<path d="M244.782 170.736C246.199 175.257 247.755 179.907 249.341 184.438C250.927 188.969 252.612 193.5 254.436 197.822L255.13 199.438C255.278 199.805 255.268 199.726 255.278 199.805C255.288 199.885 255.377 199.984 255.417 200.073C255.864 200.727 256.379 201.332 256.953 201.877C258.509 203.34 260.187 204.666 261.969 205.843C263.842 207.132 265.814 208.391 267.846 209.571C269.878 210.751 272.019 211.97 274.001 213.001L270.146 222.014C265.259 220.225 260.517 218.064 255.962 215.549C253.524 214.195 251.204 212.639 249.024 210.9C247.721 209.85 246.54 208.656 245.505 207.34C245.208 206.924 244.921 206.547 244.633 206.071C244.346 205.595 244.019 205 243.929 204.802L243.057 203.067C240.787 198.447 238.756 193.827 236.892 189.187C235.029 184.547 233.265 179.877 231.589 175.059L244.782 170.736Z" fill="#007CFF"/>
<path d="M227.05 163.598C224.503 170.082 239.994 196.187 239.994 196.187L250.075 186.55C250.075 186.55 247.864 178.341 244.93 168.476C242.046 158.76 229.478 157.391 227.05 163.598Z" fill="#007CFF"/>
</g>
<defs>
<clipPath id="clip0">
<rect width="619" height="413" fill="white"/>
</clipPath>
<clipPath id="clip1">
<rect x="162" y="117" width="222" height="298.968" fill="white"/>
</clipPath>
</defs>
</svg>
