<svg width="41" height="41" viewBox="0 0 41 41" fill="none" xmlns="http://www.w3.org/2000/svg">
<g clip-path="url(#clip0)">
<path d="M24.8864 39.8401C24.8864 40.4798 24.3652 41 23.7255 41L17.2752 41C16.6355 41 16.115 40.4798 16.115 39.8401L16.115 36.5929L24.8864 36.5929L24.8864 39.8401Z" fill="#055EFF"/>
<path d="M39.7649 21.7495L36.3163 21.7495C35.634 21.7495 35.0813 21.1968 35.0813 20.5146C35.0813 19.8326 35.634 19.2796 36.3163 19.2796L39.7649 19.2796C40.4468 19.2796 40.9999 19.8326 40.9999 20.5146C40.9999 21.1968 40.4468 21.7495 39.7649 21.7495Z" fill="#055EFF"/>
<path d="M4.68363 21.7495L1.23496 21.7495C0.55304 21.7495 4.83209e-08 21.1968 1.07963e-07 20.5146C1.67578e-07 19.8326 0.55304 19.2796 1.23496 19.2796L4.68363 19.2796C5.36586 19.2796 5.91859 19.8326 5.91859 20.5146C5.91859 21.1968 5.36586 21.7495 4.68363 21.7495Z" fill="#055EFF"/>
<path d="M32.5569 10.2044C32.0745 10.6864 31.2928 10.6864 30.8105 10.2044C30.3281 9.72205 30.3281 8.94003 30.8105 8.45769L33.2491 6.01937C33.7312 5.53702 34.5132 5.53702 34.9955 6.01937C35.4779 6.5014 35.4779 7.28342 34.9955 7.76576L32.5569 10.2044Z" fill="#055EFF"/>
<path d="M20.4999 5.93335C19.8179 5.93335 19.2649 5.38062 19.2649 4.69839L19.2649 1.24971C19.2649 0.567794 19.8179 0.0147543 20.4999 0.0147544C21.1818 0.0147545 21.7348 0.567795 21.7348 1.24971L21.7348 4.69839C21.7348 5.38062 21.1818 5.93335 20.4999 5.93335Z" fill="#055EFF"/>
<path d="M8.44272 10.2044L6.00409 7.76576C5.52175 7.28342 5.52175 6.50141 6.00409 6.01937C6.48644 5.53703 7.26845 5.53703 7.75049 6.01937L10.1891 8.45769C10.6715 8.94004 10.6715 9.72205 10.1891 10.2044C9.70677 10.6864 8.92507 10.6864 8.44272 10.2044Z" fill="#055EFF"/>
<path d="M26.7487 29.3703C25.5819 30.2142 24.8862 31.5906 24.8862 33.0536L24.8862 34.123L21.7347 34.123L21.7347 26.1331C23.8621 25.5831 25.4386 23.6466 25.4386 21.3496L25.4386 17.6804C25.4386 17.016 24.9281 16.4439 24.2644 16.412C23.5552 16.3782 22.9687 16.9431 22.9687 17.6457C22.9687 19.7403 22.969 20.4453 22.9693 21.3653C22.9697 22.7294 21.8642 23.8355 20.5001 23.8355C19.1362 23.8355 18.0308 22.73 18.0308 21.3662L18.0308 17.6457C18.0308 16.9431 17.4446 16.3782 16.7351 16.4123C16.0714 16.4439 15.5609 17.016 15.5609 17.6807L15.5609 21.3496C15.5609 23.6466 17.1374 25.5831 19.2648 26.1331L19.2648 34.123L16.1148 34.123L16.1148 33.0536C16.1148 31.5915 15.4176 30.2142 14.2502 29.3693C11.4791 27.3646 9.82495 24.1299 9.82495 20.7159C9.82495 14.8708 14.6121 10.0402 20.5023 10.0402C26.3849 10.0402 31.1392 14.7329 31.1745 20.6499C31.1952 24.0914 29.5404 27.3508 26.7487 29.3703Z" fill="#055EFF"/>
</g>
<defs>
<clipPath id="clip0">
<rect width="41" height="41" transform="matrix(1 8.74228e-08 8.74228e-08 -1 0 41)" fill="white"/>
</clipPath>
</defs>
</svg>
