<svg width="70" height="22" viewBox="0 0 70 22" fill="none" xmlns="http://www.w3.org/2000/svg">
<path d="M5.122 21L0.26 6.934H2.73L6.162 17.88L9.412 6.934H11.908L15.054 17.88L18.512 6.934H21.034L16.12 21H13.832L10.66 10.262L7.41 21H6.162H5.122ZM24.9947 21H22.7587V6.934H24.9947V21ZM22.6027 2.28C22.6027 1.916 22.7241 1.61267 22.9667 1.37C23.2267 1.11 23.5301 0.979999 23.8767 0.979999C24.2407 0.979999 24.5441 1.11 24.7867 1.37C25.0467 1.61267 25.1767 1.916 25.1767 2.28C25.1767 2.62667 25.0467 2.93 24.7867 3.19C24.5441 3.43267 24.2407 3.554 23.8767 3.554C23.5301 3.554 23.2267 3.43267 22.9667 3.19C22.7241 2.93 22.6027 2.62667 22.6027 2.28ZM46.9231 21H43.9071H43.4651H41.0731H39.3311C38.9498 21 38.6204 20.8873 38.3431 20.662C38.0831 20.4367 37.9531 20.0987 37.9531 19.648C37.9531 19.3707 38.0051 19.0587 38.1091 18.712C38.2304 18.3653 38.4384 17.984 38.7331 17.568L44.5831 8.988H38.8371L37.9531 6.934H40.9951H41.6451H44.0371H45.0511C45.5538 6.934 45.9524 7.05533 46.2471 7.298C46.5591 7.52333 46.7151 7.86133 46.7151 8.312C46.7151 8.55467 46.6631 8.832 46.5591 9.144C46.4724 9.43867 46.3078 9.768 46.0651 10.132L40.2411 19.024H46.3251L46.9231 21ZM50.8798 14.526V15.228C50.8798 15.8347 50.8971 16.3893 50.9318 16.892C50.9664 17.3947 51.0704 17.8367 51.2438 18.218C51.4344 18.5993 51.7291 18.894 52.1278 19.102C52.5264 19.31 53.0984 19.414 53.8438 19.414C54.9704 19.414 55.7418 19.1887 56.1578 18.738C56.5738 18.27 56.7818 17.62 56.7818 16.788C56.8858 16.788 57.0331 16.788 57.2238 16.788C57.4144 16.788 57.6138 16.788 57.8218 16.788C58.0298 16.7707 58.2378 16.762 58.4458 16.762C58.6538 16.762 58.8358 16.762 58.9918 16.762C58.9918 17.438 58.9138 18.0533 58.7578 18.608C58.6018 19.1453 58.3244 19.6133 57.9258 20.012C57.5444 20.3933 57.0158 20.6967 56.3398 20.922C55.6811 21.13 54.8491 21.234 53.8438 21.234C52.6651 21.234 51.7291 21.0867 51.0358 20.792C50.3598 20.48 49.8484 20.064 49.5018 19.544C49.1551 19.0067 48.9298 18.374 48.8258 17.646C48.7218 16.918 48.6698 16.1207 48.6698 15.254V12.706C48.6698 11.8393 48.7131 11.042 48.7998 10.314C48.9038 9.56867 49.1291 8.92733 49.4758 8.39C49.8398 7.85267 50.3598 7.43667 51.0358 7.142C51.7291 6.83 52.6651 6.674 53.8438 6.674C54.9358 6.674 55.8198 6.82133 56.4958 7.116C57.1718 7.41067 57.6918 7.82667 58.0558 8.364C58.4371 8.884 58.6884 9.52533 58.8098 10.288C58.9484 11.0333 59.0178 11.8653 59.0178 12.784V14.526H50.8798ZM53.8438 8.494C53.0984 8.494 52.5264 8.60667 52.1278 8.832C51.7291 9.04 51.4344 9.326 51.2438 9.69C51.0704 10.054 50.9664 10.4787 50.9318 10.964C50.8971 11.4493 50.8798 11.9693 50.8798 12.524V12.784H56.8078C56.8078 12.056 56.7731 11.4233 56.7038 10.886C56.6518 10.3487 56.5218 9.90667 56.3138 9.56C56.1231 9.196 55.8284 8.92733 55.4298 8.754C55.0484 8.58067 54.5198 8.494 53.8438 8.494ZM61.0139 11.64C61.0139 10.7387 61.0919 9.99333 61.2479 9.404C61.4039 8.79733 61.6985 8.312 62.1319 7.948C62.5652 7.584 63.1459 7.324 63.8739 7.168C64.6192 7.012 65.5812 6.934 66.7599 6.934H69.2559L68.3199 8.78H66.9159C66.1705 8.78 65.5552 8.82333 65.0699 8.91C64.6019 8.97933 64.2292 9.118 63.9519 9.326C63.6745 9.534 63.4839 9.82867 63.3799 10.21C63.2759 10.574 63.2239 11.0507 63.2239 11.64V21H61.0139V11.64Z" fill="#055EFF"/>
<path d="M36.2844 21H33.2684H32.8264H30.4344H28.6924C28.3111 21 27.9818 20.8873 27.7044 20.662C27.4444 20.4367 27.3144 20.0987 27.3144 19.648C27.3144 19.3707 27.3664 19.0587 27.4704 18.712C27.5918 18.3653 27.7998 17.984 28.0944 17.568L33.9444 8.988H28.1984L27.3144 6.934H30.3564H31.0064H33.3984H34.4124C34.9151 6.934 35.3138 7.05533 35.6084 7.298C35.9204 7.52333 36.0764 7.86133 36.0764 8.312C36.0764 8.55467 36.0244 8.832 35.9204 9.144C35.8338 9.43867 35.6691 9.768 35.4264 10.132L29.6024 19.024H35.6864L36.2844 21Z" fill="#11DE9A"/>
</svg>
