<svg width="110" height="81" viewBox="0 0 110 81" fill="none" xmlns="http://www.w3.org/2000/svg">
<path d="M103.821 77.9086H19.1205C18.8565 77.9106 18.5951 77.8578 18.3525 77.7536C18.11 77.6494 17.8917 77.496 17.7115 77.3032C17.5312 77.1104 17.3929 76.8823 17.3053 76.6333C17.2177 76.3843 17.1826 76.1199 17.2024 75.8567L20.6907 20.5034C20.7348 19.9517 20.9826 19.4361 21.3857 19.0569C21.7888 18.6777 22.3186 18.4619 22.872 18.4515H107.568C107.832 18.4495 108.093 18.5023 108.336 18.6065C108.578 18.7107 108.797 18.864 108.977 19.0568C109.157 19.2497 109.295 19.4778 109.383 19.7268C109.471 19.9757 109.506 20.2402 109.486 20.5034L105.998 75.8567C105.954 76.4076 105.707 76.9226 105.304 77.3017C104.902 77.6808 104.374 77.8971 103.821 77.9086Z" fill="#263238"/>
<path opacity="0.6" d="M103.821 77.9086H19.1205C18.8565 77.9106 18.5951 77.8578 18.3525 77.7536C18.11 77.6494 17.8917 77.496 17.7115 77.3032C17.5312 77.1104 17.3929 76.8823 17.3053 76.6333C17.2177 76.3843 17.1826 76.1199 17.2024 75.8567L20.6907 20.5034C20.7348 19.9517 20.9826 19.4361 21.3857 19.0569C21.7888 18.6777 22.3186 18.4619 22.872 18.4515H107.568C107.832 18.4495 108.093 18.5023 108.336 18.6065C108.578 18.7107 108.797 18.864 108.977 19.0568C109.157 19.2497 109.295 19.4778 109.383 19.7268C109.471 19.9757 109.506 20.2402 109.486 20.5034L105.998 75.8567C105.954 76.4076 105.707 76.9226 105.304 77.3017C104.902 77.6808 104.374 77.8971 103.821 77.9086Z" fill="black"/>
<path d="M103.187 77.9086H18.4914C18.2271 77.9112 17.9651 77.8589 17.7221 77.755C17.479 77.651 17.2602 77.4978 17.0795 77.3049C16.8987 77.112 16.76 76.8837 16.6721 76.6344C16.5842 76.3851 16.5491 76.1203 16.5688 75.8567L20.0571 20.5034C20.1013 19.9517 20.349 19.4362 20.7522 19.0569C21.1553 18.6777 21.685 18.4619 22.2384 18.4515H106.934C107.199 18.4489 107.46 18.5012 107.703 18.6052C107.946 18.7091 108.165 18.8625 108.345 19.0554C108.525 19.2484 108.664 19.4768 108.751 19.7261C108.838 19.9754 108.873 20.2401 108.852 20.5034L105.364 75.8567C105.32 76.4076 105.073 76.9226 104.671 77.3017C104.269 77.6808 103.74 77.8971 103.187 77.9086Z" fill="#263238"/>
<path d="M103.08 78.6134H2.29902C1.83506 78.6092 1.37939 78.7364 0.984699 78.9803C0.590007 79.2243 0.272416 79.5749 0.0686541 79.9917C0.0170251 80.1 -0.00612975 80.2196 0.00138504 80.3393C0.00889982 80.459 0.0468341 80.5748 0.111597 80.6757C0.176359 80.7767 0.265807 80.8594 0.371477 80.9162C0.477147 80.9729 0.595543 81.0017 0.715459 80.9999H104.642C104.762 81.0017 104.88 80.9729 104.986 80.9162C105.091 80.8594 105.181 80.7767 105.245 80.6757C105.31 80.5748 105.348 80.459 105.356 80.3393C105.363 80.2196 105.34 80.1 105.288 79.9917C105.087 79.5777 104.773 79.2287 104.383 78.9849C103.992 78.7411 103.541 78.6123 103.08 78.6134Z" fill="#263238"/>
<path opacity="0.6" d="M103.08 78.6133H88.7481C88.2876 78.6117 87.836 78.7403 87.4454 78.9841C87.0547 79.228 86.7409 79.5772 86.5401 79.9917C86.4886 80.0996 86.4654 80.2188 86.4728 80.3381C86.4801 80.4574 86.5176 80.5729 86.5818 80.6737C86.6461 80.7746 86.7349 80.8574 86.84 80.9144C86.945 80.9715 87.0629 81.0008 87.1824 80.9998H104.642C104.762 81.0016 104.88 80.9728 104.986 80.9161C105.091 80.8594 105.181 80.7766 105.246 80.6757C105.31 80.5747 105.348 80.4589 105.356 80.3392C105.363 80.2195 105.34 80.0999 105.289 79.9917C105.087 79.5776 104.773 79.2286 104.383 78.9848C103.992 78.741 103.541 78.6123 103.08 78.6133Z" fill="black"/>
<path d="M94.1945 80.3532H90.4921C90.4065 80.352 90.3248 80.3172 90.2647 80.2562C90.2046 80.1953 90.1709 80.1131 90.1709 80.0275C90.1709 79.9419 90.2046 79.8598 90.2647 79.7988C90.3248 79.7379 90.4065 79.7031 90.4921 79.7019H94.1945C94.2372 79.7019 94.2796 79.7103 94.3191 79.7267C94.3586 79.7431 94.3945 79.767 94.4247 79.7973C94.455 79.8275 94.479 79.8634 94.4953 79.9029C94.5117 79.9424 94.5201 79.9848 94.5201 80.0275C94.5201 80.0703 94.5117 80.1126 94.4953 80.1522C94.479 80.1917 94.455 80.2276 94.4247 80.2578C94.3945 80.288 94.3586 80.312 94.3191 80.3284C94.2796 80.3447 94.2372 80.3532 94.1945 80.3532Z" fill="#055EFF"/>
<path opacity="0.7" d="M46.5851 80.3532H42.8872C42.8008 80.3532 42.718 80.3189 42.6569 80.2578C42.5958 80.1967 42.5615 80.1139 42.5615 80.0275C42.5615 79.9848 42.5699 79.9424 42.5863 79.9029C42.6027 79.8634 42.6267 79.8275 42.6569 79.7973C42.6871 79.767 42.723 79.7431 42.7625 79.7267C42.8021 79.7103 42.8444 79.7019 42.8872 79.7019H46.5851C46.6279 79.7019 46.6702 79.7103 46.7097 79.7267C46.7492 79.7431 46.7851 79.767 46.8154 79.7973C46.8456 79.8275 46.8696 79.8634 46.886 79.9029C46.9023 79.9424 46.9107 79.9848 46.9107 80.0275C46.9107 80.1139 46.8764 80.1967 46.8154 80.2578C46.7543 80.3189 46.6715 80.3532 46.5851 80.3532Z" fill="white"/>
<path d="M98.0262 79.7019H95.6041C95.4563 79.7019 95.3364 79.8217 95.3364 79.9696V80.0855C95.3364 80.2333 95.4563 80.3532 95.6041 80.3532H98.0262C98.1741 80.3532 98.2939 80.2333 98.2939 80.0855V79.9696C98.2939 79.8217 98.1741 79.7019 98.0262 79.7019Z" fill="#055EFF"/>
<path d="M18.4779 73.8583L21.7164 22.5019C21.7331 22.2876 21.8293 22.0874 21.9862 21.9404C22.143 21.7935 22.3491 21.7105 22.564 21.7078H106.198C106.301 21.7063 106.402 21.7262 106.497 21.7662C106.591 21.8062 106.676 21.8654 106.746 21.9402C106.816 22.0149 106.87 22.1035 106.904 22.2002C106.938 22.2969 106.951 22.3997 106.943 22.5019L103.709 73.8583C103.691 74.0729 103.594 74.2732 103.437 74.4201C103.279 74.5669 103.073 74.6497 102.857 74.6523H19.2273C19.1249 74.6531 19.0233 74.6328 18.9291 74.5926C18.8348 74.5524 18.7498 74.4932 18.6795 74.4187C18.6092 74.3442 18.555 74.2559 18.5203 74.1595C18.4856 74.0631 18.4712 73.9605 18.4779 73.8583Z" fill="white"/>
<path opacity="0.1" d="M66.0563 20.1243L38.199 73.0732H17.6484C17.5453 73.0747 17.4431 73.0548 17.3482 73.0145C17.2533 72.9743 17.1678 72.9147 17.0973 72.8395C17.0267 72.7644 16.9727 72.6753 16.9385 72.578C16.9044 72.4808 16.8909 72.3775 16.899 72.2747L20.1375 20.9227C20.1541 20.7081 20.2502 20.5073 20.4069 20.3596C20.5636 20.212 20.7698 20.1281 20.985 20.1243H66.0563Z" fill="#055EFF"/>
<path opacity="0.1" d="M90.452 20.1243L62.5947 73.0732H56.0999L83.9571 20.1243H90.452Z" fill="#055EFF"/>
<path opacity="0.1" d="M105.364 20.9228L102.126 72.2747C102.11 72.4898 102.014 72.6911 101.857 72.839C101.7 72.9868 101.494 73.0704 101.278 73.0732H69.6069L97.4642 20.1243H104.601C104.705 20.1215 104.809 20.1406 104.905 20.1802C105.001 20.2198 105.088 20.2792 105.16 20.3544C105.232 20.4296 105.287 20.519 105.322 20.6169C105.357 20.7148 105.372 20.819 105.364 20.9228Z" fill="#055EFF"/>
<path opacity="0.4" d="M65.0794 20.1777C65.0672 20.3395 64.9951 20.4909 64.8771 20.6023C64.7591 20.7137 64.6038 20.777 64.4415 20.7799C64.364 20.7807 64.2872 20.7654 64.2159 20.7349C64.1447 20.7045 64.0805 20.6594 64.0276 20.6028C63.9748 20.5461 63.9343 20.479 63.9088 20.4058C63.8832 20.3327 63.8733 20.2549 63.8795 20.1777C63.8907 20.0155 63.9625 19.8635 64.0807 19.7519C64.1989 19.6403 64.3548 19.5773 64.5174 19.5755C64.5949 19.5746 64.6717 19.5899 64.743 19.6204C64.8142 19.6509 64.8783 19.6959 64.9312 19.7526C64.9841 19.8092 65.0246 19.8763 65.0501 19.9495C65.0756 20.0227 65.0856 20.1004 65.0794 20.1777Z" fill="white"/>
<path d="M51.2601 7.86173C48.8201 10.6541 47.4105 19.2143 49.2171 23.4252C51.0237 27.6362 30.0627 31.8515 47.357 38.6943C64.6513 45.5371 78.484 37.6014 73.479 30.5133C68.4741 23.4252 74.0188 11.6221 68.2243 8.65574C62.9874 5.95253 56.1491 2.2635 51.2601 7.86173Z" fill="#263238"/>
<path d="M46.09 42.3298C45.1755 45.4523 44.2031 48.5748 43.1949 51.6974C42.1868 54.8199 41.1385 57.9067 40.0278 61.0069L39.6041 62.1756L39.3899 62.76L39.323 62.934L39.216 63.1971C39.1491 63.3666 39.0465 63.5495 38.9572 63.7235C38.5212 64.52 37.8706 65.1783 37.0793 65.6238C36.3609 66.0138 35.5591 66.225 34.7418 66.2394C33.5956 66.2449 32.4598 66.022 31.4008 65.5836C30.5338 65.2318 29.6944 64.8158 28.8894 64.3391C25.9647 62.5406 23.284 60.3727 20.9136 57.8889L22.8361 55.6228C23.483 56.0376 24.1744 56.4793 24.8435 56.8941C25.5126 57.309 26.2129 57.7104 26.891 58.1074C28.2195 58.885 29.5912 59.5864 30.9993 60.2084C31.6409 60.4914 32.303 60.7255 32.9799 60.9088C33.4479 61.064 33.9428 61.1217 34.4341 61.0783C34.559 61.0783 34.5367 61.0069 34.4341 61.0471C34.3315 61.0872 34.2199 61.2032 34.2155 61.1898C34.211 61.1764 34.2155 61.1898 34.2155 61.163C34.2176 61.1542 34.2176 61.1451 34.2155 61.1363L34.2512 61.0248L34.4207 60.4493L34.7642 59.2895L37.4897 49.922C38.4175 46.7995 39.3721 43.677 40.3535 40.5544L46.09 42.3298Z" fill="#B65B52"/>
<path d="M22.698 55.5514L17.5146 53.6333L19.571 59.1111C19.571 59.1111 23.2289 59.6374 24.6474 57.7149L23.492 56.167C23.2918 55.89 23.0162 55.6763 22.698 55.5514Z" fill="#B55B52"/>
<path d="M12.9424 55.2259L14.914 59.7179L19.5933 59.1023L17.5325 53.6245L12.9424 55.2259Z" fill="#B55B52"/>
<path d="M42.3074 34.2514C39.9343 34.8536 38.2927 44.6092 38.2927 44.6092L44.8277 49.0699C44.8277 49.0699 51.0727 39.2295 49.2661 36.6245C47.348 33.8901 45.7645 33.3726 42.3074 34.2514Z" fill="#055EFF"/>
<path opacity="0.5" d="M42.3074 34.2514C39.9343 34.8536 38.2927 44.6092 38.2927 44.6092L44.8277 49.0699C44.8277 49.0699 51.0727 39.2295 49.2661 36.6245C47.348 33.8901 45.7645 33.3726 42.3074 34.2514Z" fill="white"/>
<path opacity="0.2" d="M42.0932 37.7976L47.1651 38.9708L47.6513 43.9356C46.792 45.6884 45.8436 47.3961 44.8098 49.052L40.8442 46.3756C41.0182 44.0783 41.4464 39.3589 42.0932 37.7976Z" fill="black"/>
<path d="M42.3074 34.2515C42.3074 34.2515 39.564 35.215 45.0552 68.9649H68.4116C68.019 59.4591 68.0101 53.5932 72.5511 34.0864C69.2819 33.4104 65.9677 32.9736 62.6349 32.7794C58.705 32.5876 55.4977 32.4627 52.0273 32.7794C47.4729 33.1943 42.3074 34.2515 42.3074 34.2515Z" fill="#055EFF"/>
<path opacity="0.5" d="M42.3074 34.2515C42.3074 34.2515 39.564 35.215 45.0552 68.9649H68.4116C68.019 59.4591 68.0101 53.5932 72.5511 34.0864C69.2819 33.4104 65.9677 32.9736 62.6349 32.7794C58.705 32.5876 55.4977 32.4627 52.0273 32.7794C47.4729 33.1943 42.3074 34.2515 42.3074 34.2515Z" fill="white"/>
<path opacity="0.2" d="M67.0555 43.1416L70.071 45.711C69.4286 49.1234 68.9959 51.956 68.7327 54.4942C68.1573 51.9605 66.721 45.082 67.0555 43.1416Z" fill="black"/>
<path d="M61.5821 20.8335C60.9129 24.246 60.2438 30.4999 62.6348 32.7793C62.6348 32.7793 60.4044 37.8913 54.4939 37.8913C48.5835 37.8913 52.0272 32.7793 52.0272 32.7793C55.8322 31.8872 55.734 29.0457 55.0738 26.396L61.5821 20.8335Z" fill="#B55B52"/>
<path d="M61.8767 31.5035C61.3146 32.641 59.5035 35.2416 54.4451 36.1695C54.3045 36.1953 54.1593 36.1666 54.0391 36.0892C53.0935 35.429 52.5046 34.0328 52.9195 32.4135C52.947 32.314 52.9461 32.2088 52.917 32.1098C52.8878 32.0108 52.8315 31.922 52.7545 31.8533C52.6774 31.7846 52.5827 31.7388 52.481 31.7212C52.3793 31.7035 52.2747 31.7146 52.179 31.7533C51.7905 31.9159 51.4172 32.113 51.0638 32.3422C50.9862 32.3936 50.9232 32.4643 50.8809 32.5473C50.5107 33.2432 49.0119 36.6512 53.5351 38.7522C53.6072 38.7831 53.6842 38.8012 53.7626 38.8058C56.439 38.8593 61.1183 38.3329 64.0758 33.0068C64.1286 32.9106 64.1521 32.8011 64.1434 32.6917C64.1346 32.5823 64.0941 32.4778 64.0267 32.3912C63.6293 31.9561 63.1674 31.5845 62.6573 31.2894C62.593 31.2482 62.5208 31.2209 62.4454 31.2094C62.3699 31.1978 62.2929 31.2023 62.2192 31.2225C62.1456 31.2427 62.0771 31.2782 62.0181 31.3266C61.959 31.375 61.9109 31.4353 61.8767 31.5035Z" fill="#FAFAFA"/>
<path d="M63.1165 45.546L57.0945 45.372C57.0316 45.3724 56.9693 45.3595 56.9117 45.3341C56.8541 45.3086 56.8025 45.2713 56.7604 45.2245C56.7183 45.1778 56.6865 45.1226 56.6672 45.0627C56.6479 45.0028 56.6415 44.9395 56.6485 44.8769L56.7064 44.1319C56.7239 44.0067 56.7866 43.8921 56.8828 43.8099C56.9789 43.7277 57.1019 43.6836 57.2284 43.6859L63.2503 43.8598C63.3137 43.8594 63.3764 43.8724 63.4344 43.8981C63.4923 43.9238 63.5441 43.9615 63.5863 44.0088C63.6285 44.0561 63.6602 44.1118 63.6792 44.1723C63.6981 44.2327 63.704 44.2965 63.6964 44.3595L63.6384 45.0999C63.621 45.2252 63.5583 45.3398 63.4621 45.422C63.3659 45.5042 63.243 45.5483 63.1165 45.546Z" fill="#FAFAFA"/>
<path opacity="0.2" d="M58.928 23.104L55.074 26.3916C55.2393 27.0081 55.3498 27.638 55.4041 28.274C56.8538 28.0643 58.8522 26.4674 59.0083 24.9463C59.0937 24.3324 59.0665 23.7081 58.928 23.104Z" fill="black"/>
<path d="M66.0786 14.379C65.0036 19.9861 64.669 22.3815 61.4395 24.9108C56.5817 28.7202 49.9308 26.1687 49.3152 20.3563C48.7576 15.1239 50.6088 6.83587 56.4524 5.30137C57.7329 4.96109 59.0791 4.95331 60.3635 5.27875C61.6478 5.6042 62.8279 6.25212 63.7918 7.16114C64.7558 8.07016 65.4718 9.21019 65.8719 10.4733C66.2721 11.7364 66.3433 13.0807 66.0786 14.379Z" fill="#B55B52"/>
<path d="M62.889 10.2303C62.1932 13.7409 62.0281 18.3934 65.2443 18.3934C68.4605 18.3934 70.9808 12.9201 68.2062 8.63335C65.4316 4.34658 63.295 8.16051 62.889 10.2303Z" fill="#263238"/>
<path d="M68.4472 10.6631C68.4472 14.4814 63.6386 12.5946 61.5108 10.9485C59.383 9.30254 59.2804 9.48097 55.3371 9.4765C51.3939 9.47204 50.6043 9.19994 49.4401 7.31751C48.2758 5.43508 48.3829 4.195 51.0058 4.592C53.6287 4.98901 51.4251 2.31257 53.3789 0.827142C55.3327 -0.658282 57.6478 -0.28358 60.3198 3.10658C62.9918 6.49674 68.4472 4.04779 68.4472 10.6631Z" fill="#263238"/>
<path d="M67.0354 19.3678C67.5413 17.642 67.045 15.9772 65.9268 15.6494C64.8086 15.3216 63.4919 16.4548 62.9859 18.1806C62.48 19.9064 62.9763 21.5712 64.0945 21.899C65.2127 22.2269 66.5294 21.0936 67.0354 19.3678Z" fill="white"/>
<path d="M58.1073 23.684C57.0719 23.6838 56.0474 23.4729 55.0963 23.064C55.0759 23.0557 55.0574 23.0434 55.0418 23.0279C55.0263 23.0123 55.014 22.9938 55.0056 22.9735C54.9973 22.9531 54.9932 22.9313 54.9934 22.9093C54.9937 22.8873 54.9983 22.8656 55.007 22.8454C55.0256 22.8047 55.0592 22.7727 55.1007 22.7561C55.1422 22.7395 55.1886 22.7395 55.2301 22.7562C56.1264 23.1409 57.0908 23.3418 58.0662 23.3472C59.0415 23.3525 60.0081 23.1622 60.9086 22.7874C61.7844 22.429 62.5797 21.8991 63.2478 21.2288C63.9158 20.5585 64.443 19.7614 64.7984 18.8843C66.1366 15.0525 67.5016 10.2706 65.9225 7.28638C65.6048 6.70555 65.1653 6.20031 64.634 5.80532C64.1027 5.41033 63.4923 5.13493 62.8446 4.99802C62.8016 4.98649 62.7648 4.9585 62.7423 4.92011C62.7198 4.88171 62.7132 4.83599 62.7241 4.79282C62.7356 4.74983 62.7636 4.71309 62.802 4.69056C62.8404 4.66802 62.8861 4.6615 62.9293 4.67239C63.6213 4.82129 64.2731 5.1175 64.8404 5.54085C65.4077 5.9642 65.8772 6.50478 66.2169 7.12579C67.8584 10.2082 66.489 15.0837 65.1106 18.9869C64.7367 19.908 64.1821 20.7448 63.4796 21.4481C62.7771 22.1514 61.9408 22.7069 61.0201 23.0818C60.0974 23.4696 59.1081 23.6741 58.1073 23.684Z" fill="white"/>
<path opacity="0.6" d="M66.8727 19.3837C66.4757 20.7219 65.5657 21.6631 64.8386 21.4535C64.1115 21.2438 63.8439 19.968 64.2409 18.612C64.6379 17.2559 65.5479 16.3281 66.275 16.5422C67.0021 16.7563 67.2697 18.0276 66.8727 19.3837Z" fill="#055EFF"/>
<path d="M55.5592 22.3258L53.8116 21.9887C53.5044 21.9294 53.2073 22.1304 53.1481 22.4376L53.1286 22.5383C53.0693 22.8456 53.2703 23.1426 53.5776 23.2019L55.3252 23.5391C55.6324 23.5984 55.9295 23.3974 55.9887 23.0901L56.0082 22.9894C56.0674 22.6822 55.8664 22.3851 55.5592 22.3258Z" fill="white"/>
<path d="M53.2763 14.8472C53.2763 14.8472 52.2414 16.7251 51.26 17.5682C51.7908 18.215 52.8614 18.0901 52.8614 18.0901L53.2763 14.8472Z" fill="#A02724"/>
<path d="M54.2622 20.4901H54.3023C55.3136 20.5699 56.3177 20.264 57.1126 19.6337C57.1289 19.617 57.1381 19.5946 57.1381 19.5712C57.1381 19.5479 57.1289 19.5254 57.1126 19.5088C57.1047 19.5008 57.0953 19.4945 57.085 19.4902C57.0746 19.4859 57.0635 19.4836 57.0523 19.4836C57.0411 19.4836 57.0301 19.4859 57.0197 19.4902C57.0094 19.4945 57 19.5008 56.9921 19.5088C56.2331 20.1054 55.2784 20.3966 54.3157 20.3251C54.3042 20.3232 54.2925 20.3237 54.2812 20.3265C54.2699 20.3294 54.2593 20.3345 54.2501 20.3416C54.2409 20.3488 54.2333 20.3577 54.2277 20.3679C54.2221 20.3781 54.2186 20.3893 54.2175 20.4009C54.2152 20.4185 54.2183 20.4364 54.2262 20.4523C54.2342 20.4682 54.2467 20.4814 54.2622 20.4901Z" fill="#263238"/>
<path d="M59.3652 12.6391C59.3905 12.6531 59.4189 12.6605 59.4478 12.6605C59.4766 12.6605 59.505 12.6531 59.5303 12.6391C59.5685 12.6136 59.5954 12.5743 59.6054 12.5294C59.6154 12.4845 59.6076 12.4375 59.5838 12.3982C59.3705 12.041 59.0751 11.7397 58.7221 11.5194C58.3692 11.2991 57.9688 11.1661 57.5542 11.1313C57.5076 11.1313 57.4629 11.1495 57.4295 11.182C57.3962 11.2145 57.3769 11.2588 57.3757 11.3053C57.3757 11.3507 57.3934 11.3943 57.4251 11.4268C57.4568 11.4593 57.4999 11.4781 57.5452 11.4793C57.9025 11.5133 58.2467 11.6313 58.5498 11.8235C58.8529 12.0158 59.1063 12.2769 59.2894 12.5855C59.3094 12.6099 59.3356 12.6284 59.3652 12.6391Z" fill="#263238"/>
<path d="M56.8093 14.9232C56.7334 15.3693 56.4256 15.7127 56.1223 15.6637C55.819 15.6146 55.645 15.2176 55.7208 14.7358C55.7967 14.2541 56.1089 13.9463 56.4078 13.9954C56.7067 14.0444 56.8895 14.4637 56.8093 14.9232Z" fill="#263238"/>
<path d="M51.6078 14.0399C51.532 14.486 51.2242 14.8295 50.9209 14.7804C50.6176 14.7313 50.4436 14.312 50.5194 13.8526C50.5953 13.3931 50.9075 13.0585 51.2064 13.1121C51.5052 13.1656 51.6881 13.576 51.6078 14.0399Z" fill="#263238"/>
<path d="M51.3359 13.1611L50.2832 12.6526C50.2832 12.6526 50.7025 13.6116 51.3359 13.1611Z" fill="#263238"/>
<path d="M56.5371 14.0443L55.4844 13.5403C55.4844 13.5403 55.9037 14.4993 56.5371 14.0443Z" fill="#263238"/>
<path d="M49.8415 10.9308C49.8685 10.9469 49.8993 10.9554 49.9307 10.9554C49.9622 10.9554 49.993 10.9469 50.02 10.9308C50.2952 10.6994 50.6223 10.538 50.9733 10.4603C51.3244 10.3827 51.6891 10.391 52.0362 10.4847C52.08 10.5001 52.1281 10.4974 52.1699 10.4774C52.2117 10.4573 52.2439 10.4214 52.2592 10.3776C52.2746 10.3339 52.272 10.2858 52.2519 10.2439C52.2318 10.2021 52.196 10.17 52.1522 10.1546C51.7519 10.0406 51.33 10.0249 50.9223 10.1087C50.5146 10.1926 50.1331 10.3736 49.8103 10.6364C49.7917 10.6495 49.7759 10.6664 49.7642 10.686C49.7524 10.7055 49.7448 10.7273 49.7418 10.7499C49.7389 10.7726 49.7407 10.7956 49.7471 10.8175C49.7535 10.8394 49.7644 10.8597 49.7791 10.8772C49.794 10.901 49.8158 10.9197 49.8415 10.9308Z" fill="#263238"/>
<path d="M44.1673 74.6523C44.1673 74.6523 44.1049 71.4584 45.0595 68.9648H68.4114C68.4114 68.9648 70.5124 72.355 71.0566 74.6523H44.1673Z" fill="#055EFF"/>
<path d="M68.764 67.5955L68.9469 69.6831C69.0316 69.8482 68.8398 70.0132 68.5677 70.0132H44.9258C44.7162 70.0132 44.5422 69.9106 44.5288 69.7768L44.3147 67.6847C44.3147 67.542 44.4842 67.4171 44.7162 67.4171H68.3581C68.4354 67.4088 68.5135 67.421 68.5848 67.4523C68.656 67.4836 68.7178 67.5329 68.764 67.5955Z" fill="#055EFF"/>
<path opacity="0.3" d="M68.764 67.5955L68.9469 69.6831C69.0316 69.8482 68.8398 70.0132 68.5677 70.0132H44.9258C44.7162 70.0132 44.5422 69.9106 44.5288 69.7768L44.3147 67.6847C44.3147 67.542 44.4842 67.4171 44.7162 67.4171H68.3581C68.4354 67.4088 68.5135 67.421 68.5848 67.4523C68.656 67.4836 68.7178 67.5329 68.764 67.5955Z" fill="#FAFAFA"/>
<path d="M65.5835 70.2362H66.2169C66.3463 70.2362 66.44 70.1738 66.431 70.0935L66.1366 67.3769C66.1366 67.2966 66.0162 67.2341 65.8913 67.2341H65.2445C65.1151 67.2341 65.0215 67.2966 65.0304 67.3769L65.3248 70.0935C65.3471 70.1738 65.4586 70.2362 65.5835 70.2362Z" fill="#055EFF"/>
<path d="M46.7191 70.2362H47.3525C47.4774 70.2362 47.5755 70.1738 47.5666 70.0935L47.2678 67.3769C47.2678 67.2966 47.1518 67.2341 47.0224 67.2341H46.389C46.2641 67.2341 46.166 67.2966 46.1749 67.3769L46.4737 70.0935C46.4827 70.1738 46.5942 70.2362 46.7191 70.2362Z" fill="#055EFF"/>
<path d="M56.1534 70.2362H56.769C56.8939 70.2362 56.9921 70.1738 56.9831 70.0935L56.6843 67.3769C56.6843 67.2966 56.5638 67.2341 56.4389 67.2341H55.8055C55.6806 67.2341 55.5825 67.2966 55.5914 67.3769L55.8903 70.0935C55.917 70.1738 56.0241 70.2362 56.1534 70.2362Z" fill="#055EFF"/>
<path d="M74.5496 40.6973C75.5755 44.0279 76.5614 47.3765 77.507 50.7428L78.93 55.7656L79.6393 58.2636L79.8177 58.8792L79.9069 59.187L79.9292 59.2584L79.8579 59.1469C79.7451 58.9854 79.6065 58.8437 79.4475 58.7276C79.0984 58.4736 78.6831 58.3264 78.252 58.3038C77.9262 58.2883 77.6016 58.3526 77.3063 58.4911C76.9851 58.6651 77.0164 58.7052 77.0431 58.674C77.1187 58.6083 77.1875 58.5351 77.2483 58.4554C77.4586 58.1927 77.6523 57.9171 77.8282 57.6302C78.2208 56.9879 78.6088 56.2652 78.9746 55.5247C79.7329 54.0438 80.4154 52.4736 81.1069 50.8945C81.7983 49.3154 82.4451 47.7185 83.1142 46.1081C83.7833 44.4978 84.4212 42.8786 85.0814 41.2816L87.9318 42.1292C87.1913 45.6085 86.3259 49.0255 85.2553 52.429C84.729 54.1375 84.1446 55.8281 83.471 57.541C83.1231 58.3975 82.7529 59.2539 82.2934 60.1416C82.0484 60.6218 81.7743 61.0866 81.4726 61.5333C81.2851 61.8136 81.0763 62.0791 80.8481 62.3274C80.4861 62.738 80.0465 63.0731 79.5545 63.3132C79.0635 63.552 78.521 63.6654 77.9754 63.6433C77.3286 63.6073 76.7073 63.379 76.1911 62.9876C75.8621 62.7395 75.5771 62.4379 75.348 62.0954C75.2031 61.8756 75.0763 61.6444 74.9689 61.404C74.9287 61.3059 74.8841 61.2033 74.8529 61.114L74.7682 60.8955L74.6522 60.5788L74.4202 59.9498C74.1169 59.1156 73.8091 58.2815 73.5281 57.4473C72.9571 55.779 72.3861 54.1152 71.8508 52.4424C70.7565 49.0998 69.7364 45.7409 68.7908 42.3656L74.5496 40.6973Z" fill="#B65B52"/>
<path d="M72.5511 34.0862C74.8929 34.7955 78.4749 43.9801 78.4749 43.9801L69.3973 50.4705C69.3973 50.4705 65.3157 42.6196 66.2971 39.5952C67.3231 36.4459 69.8835 33.2744 72.5511 34.0862Z" fill="#055EFF"/>
<path opacity="0.5" d="M72.5511 34.0862C74.8929 34.7955 78.4749 43.9801 78.4749 43.9801L69.3973 50.4705C69.3973 50.4705 65.3157 42.6196 66.2971 39.5952C67.3231 36.4459 69.8835 33.2744 72.5511 34.0862Z" fill="white"/>
<path d="M85.184 42.5038L83.9395 37.0171L89.1139 39.7471C89.1139 39.7471 89.1764 43.4405 87.0887 44.6048L85.184 42.5038Z" fill="#B55B52"/>
<path d="M86.1074 32.6633L89.4083 35.0052L89.1139 39.747L83.9395 37.017L86.1074 32.6633Z" fill="#B55B52"/>
</svg>
