<svg width="512" height="240" viewBox="0 0 512 240" fill="none" xmlns="http://www.w3.org/2000/svg">
<path d="M32.855 133L0.718529 40.0276H17.0446L39.7291 112.378L61.2107 40.0276H77.7086L98.5028 112.378L121.359 40.0276H138.029L105.549 133H90.4257L69.4597 62.0248L47.9781 133H39.7291H32.855ZM164.208 133H149.429V40.0276H164.208V133ZM148.398 9.26593C148.398 6.85998 149.2 4.85503 150.804 3.25107C152.522 1.53254 154.527 0.673279 156.819 0.673279C159.225 0.673279 161.23 1.53254 162.834 3.25107C164.552 4.85503 165.411 6.85998 165.411 9.26593C165.411 11.5573 164.552 13.5622 162.834 15.2808C161.23 16.8847 159.225 17.6867 156.819 17.6867C154.527 17.6867 152.522 16.8847 150.804 15.2808C149.2 13.5622 148.398 11.5573 148.398 9.26593ZM309.149 133H289.214H286.292H270.482H258.968C256.447 133 254.27 132.255 252.437 130.766C250.719 129.277 249.86 127.042 249.86 124.064C249.86 122.231 250.203 120.168 250.891 117.877C251.693 115.586 253.067 113.065 255.015 110.315L293.682 53.604H255.703L249.86 40.0276H269.966H274.263H290.073H296.775C300.098 40.0276 302.733 40.8296 304.681 42.4335C306.743 43.9229 307.774 46.157 307.774 49.1358C307.774 50.7398 307.43 52.5728 306.743 54.6351C306.17 56.5828 305.082 58.7596 303.478 61.1655L264.983 119.939H305.196L309.149 133ZM335.301 90.2086V94.8487C335.301 98.8586 335.416 102.525 335.645 105.847C335.874 109.17 336.562 112.091 337.707 114.612C338.967 117.132 340.915 119.08 343.55 120.455C346.185 121.83 349.966 122.517 354.893 122.517C362.339 122.517 367.438 121.028 370.187 118.049C372.937 114.955 374.312 110.659 374.312 105.16C374.999 105.16 375.973 105.16 377.233 105.16C378.494 105.16 379.811 105.16 381.186 105.16C382.561 105.045 383.936 104.988 385.31 104.988C386.685 104.988 387.888 104.988 388.919 104.988C388.919 109.456 388.404 113.523 387.373 117.19C386.342 120.741 384.509 123.835 381.873 126.47C379.353 128.99 375.859 130.995 371.39 132.484C367.037 133.859 361.538 134.547 354.893 134.547C347.102 134.547 340.915 133.573 336.332 131.625C331.864 129.563 328.484 126.813 326.193 123.376C323.902 119.825 322.412 115.643 321.725 110.831C321.038 106.019 320.694 100.749 320.694 95.0205V78.1789C320.694 72.4505 320.98 67.1803 321.553 62.3685C322.24 57.442 323.73 53.203 326.021 49.6514C328.427 46.0997 331.864 43.3501 336.332 41.4024C340.915 39.3402 347.102 38.3091 354.893 38.3091C362.11 38.3091 367.953 39.2829 372.422 41.2306C376.89 43.1782 380.327 45.9279 382.733 49.4795C385.253 52.9166 386.914 57.1556 387.716 62.1966C388.633 67.1231 389.091 72.6224 389.091 78.6945V90.2086H335.301ZM354.893 50.3388C349.966 50.3388 346.185 51.0835 343.55 52.5729C340.915 53.9477 338.967 55.8381 337.707 58.244C336.562 60.6499 335.874 63.4569 335.645 66.6648C335.416 69.8727 335.301 73.3098 335.301 76.976V78.6945H374.484C374.484 73.8826 374.255 69.7009 373.796 66.1492C373.453 62.5976 372.593 59.6761 371.219 57.3847C369.958 54.9788 368.011 53.203 365.376 52.0573C362.855 50.9116 359.361 50.3388 354.893 50.3388ZM402.285 71.133C402.285 65.1754 402.801 60.2489 403.832 56.3536C404.863 52.3437 406.81 49.1358 409.675 46.7299C412.539 44.3239 416.377 42.6054 421.189 41.5743C426.115 40.5432 432.474 40.0276 440.264 40.0276H456.762L450.576 52.2291H441.296C436.369 52.2291 432.302 52.5156 429.094 53.0884C426.001 53.5467 423.537 54.4632 421.704 55.8381C419.871 57.2129 418.611 59.1605 417.924 61.6811C417.236 64.087 416.892 67.2376 416.892 71.133V133H402.285V71.133ZM185.015 238H176.515V190H185.015V238ZM186.315 176.3C186.315 177.833 185.781 179.167 184.715 180.3C183.648 181.367 182.348 181.9 180.815 181.9C179.281 181.9 177.948 181.367 176.815 180.3C175.748 179.167 175.215 177.833 175.215 176.3C175.215 174.767 175.748 173.467 176.815 172.4C177.948 171.333 179.281 170.8 180.815 170.8C182.348 170.8 183.648 171.333 184.715 172.4C185.781 173.467 186.315 174.767 186.315 176.3ZM246.826 188.2C250.16 187.933 253.16 188.4 255.826 189.6C256.96 190.133 258.06 190.833 259.126 191.7C260.26 192.5 261.226 193.567 262.026 194.9C262.893 196.233 263.593 197.833 264.126 199.7C264.66 201.567 264.926 203.767 264.926 206.3V238H256.426V206.1C256.426 203.767 256.093 201.967 255.426 200.7C254.76 199.367 253.926 198.4 252.926 197.8C251.993 197.2 250.96 196.833 249.826 196.7C248.693 196.567 247.693 196.5 246.826 196.5C244.16 196.5 241.893 197.433 240.026 199.3C238.16 201.167 237.226 203.433 237.226 206.1V206.3V238H228.726V206.1C228.726 203.767 228.393 201.967 227.726 200.7C227.06 199.367 226.226 198.4 225.226 197.8C224.293 197.2 223.26 196.833 222.126 196.7C220.993 196.567 219.993 196.5 219.126 196.5C216.46 196.5 214.193 197.433 212.326 199.3C210.526 201.167 209.626 203.433 209.626 206.1V238H201.026V190.1H209.226H209.626V193.9C210.426 192.633 211.56 191.5 213.026 190.5C213.693 190.033 214.36 189.633 215.026 189.3C215.76 188.9 216.493 188.633 217.226 188.5C217.826 188.3 218.46 188.2 219.126 188.2C221.06 188.067 222.926 188.167 224.726 188.5C226.26 188.833 227.893 189.433 229.626 190.3C231.36 191.167 232.893 192.567 234.226 194.5C234.36 194.633 234.46 194.8 234.526 195C234.593 195.2 234.693 195.367 234.826 195.5C235.493 194.5 236.293 193.567 237.226 192.7C238.16 191.767 239.16 191 240.226 190.4C241.293 189.733 242.393 189.2 243.526 188.8C244.66 188.4 245.76 188.2 246.826 188.2ZM327.033 211.1C327.033 219.967 324.766 226.833 320.233 231.7C315.766 236.567 309.699 239 302.033 239C297.299 239 293.066 237.933 289.333 235.8C285.666 233.6 282.766 230.433 280.633 226.3C278.499 222.1 277.433 217.033 277.433 211.1C277.433 202.233 279.666 195.4 284.133 190.6C288.599 185.8 294.666 183.4 302.333 183.4C307.199 183.4 311.466 184.5 315.133 186.7C318.866 188.833 321.766 191.967 323.833 196.1C325.966 200.167 327.033 205.167 327.033 211.1ZM286.533 211.1C286.533 217.433 287.766 222.467 290.233 226.2C292.766 229.867 296.766 231.7 302.233 231.7C307.633 231.7 311.599 229.867 314.133 226.2C316.666 222.467 317.933 217.433 317.933 211.1C317.933 204.767 316.666 199.8 314.133 196.2C311.599 192.6 307.599 190.8 302.133 190.8C296.666 190.8 292.699 192.6 290.233 196.2C287.766 199.8 286.533 204.767 286.533 211.1ZM316.333 161.4V162.4C315.533 163.6 314.299 165.167 312.633 167.1C310.966 168.967 309.166 170.867 307.233 172.8C305.366 174.667 303.633 176.2 302.033 177.4H296.233V176.2C297.233 174.933 298.299 173.433 299.433 171.7C300.633 169.967 301.799 168.2 302.933 166.4C304.066 164.533 304.999 162.867 305.733 161.4H316.333ZM396.64 216.3C396.906 218.433 397.473 220.433 398.34 222.3C399.273 224.167 400.406 225.767 401.74 227.1C403.14 228.433 404.706 229.5 406.44 230.3C408.24 231.1 410.14 231.5 412.14 231.5C415.206 231.5 417.973 230.767 420.44 229.3C422.973 227.833 425.006 225.867 426.54 223.4L433.54 227.9C431.273 231.5 428.273 234.4 424.54 236.6C420.806 238.733 416.673 239.8 412.14 239.8C409.006 239.8 406.04 239.2 403.24 238C400.506 236.8 398.073 235.167 395.94 233.1C393.806 230.967 392.04 228.467 390.64 225.6C389.306 222.733 388.506 219.633 388.24 216.3C388.24 215.967 388.206 215.6 388.14 215.2C388.14 214.8 388.14 214.4 388.14 214C388.14 211.867 388.373 209.867 388.84 208C389.44 205.2 390.473 202.6 391.94 200.2C393.406 197.733 395.14 195.633 397.14 193.9C399.206 192.1 401.506 190.7 404.04 189.7C406.64 188.7 409.34 188.2 412.14 188.2C414.94 188.2 417.606 188.7 420.14 189.7C422.74 190.7 425.04 192.1 427.04 193.9C429.106 195.633 430.873 197.733 432.34 200.2C433.806 202.6 434.84 205.2 435.44 208C435.906 209.867 436.14 211.867 436.14 214C436.14 214.4 436.14 214.8 436.14 215.2C436.14 215.6 436.106 215.967 436.04 216.3H396.64ZM426.84 208C425.706 204.6 423.806 201.833 421.14 199.7C418.54 197.567 415.54 196.5 412.14 196.5C408.74 196.5 405.706 197.567 403.04 199.7C400.44 201.833 398.573 204.6 397.44 208H426.84ZM456.597 238H448.097V190H456.597V238ZM457.897 176.3C457.897 177.833 457.363 179.167 456.297 180.3C455.23 181.367 453.93 181.9 452.397 181.9C450.863 181.9 449.53 181.367 448.397 180.3C447.33 179.167 446.797 177.833 446.797 176.3C446.797 174.767 447.33 173.467 448.397 172.4C449.53 171.333 450.863 170.8 452.397 170.8C453.93 170.8 455.23 171.333 456.297 172.4C457.363 173.467 457.897 174.767 457.897 176.3ZM491.008 208.7C492.808 209.1 494.875 209.6 497.208 210.2C499.542 210.8 501.742 211.7 503.808 212.9C505.942 214.033 507.742 215.567 509.208 217.5C510.675 219.433 511.408 221.9 511.408 224.9C511.408 229.567 509.508 233.233 505.708 235.9C501.975 238.5 496.775 239.8 490.108 239.8C487.708 239.8 485.442 239.533 483.308 239C481.175 238.533 479.242 237.833 477.508 236.9C475.775 235.967 474.242 234.9 472.908 233.7C471.575 232.433 470.575 231.033 469.908 229.5L477.508 226.8C478.442 228.067 480.042 229.167 482.308 230.1C484.575 231.033 487.175 231.5 490.108 231.5C491.108 231.5 492.308 231.433 493.708 231.3C495.108 231.167 496.442 230.867 497.708 230.4C499.042 229.933 500.175 229.267 501.108 228.4C502.042 227.533 502.508 226.367 502.508 224.9C502.508 224.233 502.408 223.567 502.208 222.9C502.008 222.233 501.475 221.567 500.608 220.9C499.808 220.233 498.508 219.567 496.708 218.9C494.975 218.233 492.508 217.567 489.308 216.9C487.108 216.433 484.875 215.933 482.608 215.4C480.408 214.8 478.408 213.967 476.608 212.9C474.875 211.833 473.442 210.5 472.308 208.9C471.175 207.233 470.608 205.133 470.608 202.6C470.608 198.333 472.275 194.867 475.608 192.2C478.942 189.533 483.542 188.2 489.408 188.2C491.675 188.2 493.842 188.433 495.908 188.9C498.042 189.367 499.975 190.067 501.708 191C503.442 191.867 504.942 192.933 506.208 194.2C507.542 195.4 508.508 196.767 509.108 198.3L501.508 201C500.708 199.667 499.275 198.6 497.208 197.8C495.208 196.933 492.908 196.5 490.308 196.5C486.908 196.5 484.242 197.067 482.308 198.2C480.442 199.333 479.508 200.8 479.508 202.6C479.508 203.2 479.575 203.767 479.708 204.3C479.908 204.767 480.375 205.233 481.108 205.7C481.842 206.167 482.975 206.667 484.508 207.2C486.108 207.667 488.275 208.167 491.008 208.7Z" fill="#555555"/>
<path d="M238.83 133H218.895H215.974H200.163H188.649C186.129 133 183.952 132.255 182.119 130.766C180.4 129.277 179.541 127.042 179.541 124.064C179.541 122.231 179.885 120.168 180.572 117.877C181.374 115.586 182.749 113.065 184.696 110.315L223.363 53.604H185.384L179.541 40.0276H199.648H203.944H219.754H226.457C229.779 40.0276 232.414 40.8296 234.362 42.4335C236.424 43.9229 237.455 46.157 237.455 49.1358C237.455 50.7398 237.112 52.5728 236.424 54.6351C235.851 56.5828 234.763 58.7596 233.159 61.1655L194.664 119.939H234.877L238.83 133ZM374.179 190H383.179L362.479 238H354.179L333.479 190H342.579L358.379 226.6L374.179 190Z" fill="#999999"/>
</svg>
