<svg width="150" height="139" viewBox="0 0 150 139" fill="none" xmlns="http://www.w3.org/2000/svg">
<g clip-path="url(#clip0)">
<path d="M106.991 45.0348H91.043V68.1502H106.991V45.0348Z" fill="#E0E0E0"/>
<path d="M106.192 45.0348H90.2445V68.1502H106.192V45.0348Z" fill="#F5F5F5"/>
<path d="M104.211 47.5378H92.226V65.6479H104.211V47.5378Z" fill="white"/>
<path d="M104.208 65.6445C104.208 65.6445 104.208 65.6159 104.208 65.5586V65.3011C104.208 65.0721 104.208 64.7414 104.208 64.3089C104.208 63.4408 104.208 62.1751 104.208 60.5756C104.208 57.3956 104.208 52.8609 104.189 47.5376L104.227 47.5757H92.245L92.2895 47.5312C92.2895 54.3619 92.2895 60.6614 92.2895 65.6381L92.2546 65.6063H100.98H103.388H104.208H103.998H103.362H100.958H92.2132H92.1783V65.5714C92.1783 60.5947 92.1783 54.2951 92.1783 47.4644V47.4199H104.246V47.4613C104.246 52.7973 104.23 57.3193 104.227 60.5279C104.227 62.1179 104.227 63.3899 104.227 64.2485C104.227 64.6778 104.227 65.0085 104.227 65.2343V65.4855C104.227 65.539 104.22 65.5923 104.208 65.6445Z" fill="#E0E0E0"/>
<path d="M106.237 45.0348C106.155 45.1808 106.06 45.3191 105.954 45.4482C105.769 45.6931 105.505 46.0301 105.207 46.4022C104.908 46.7743 104.625 47.0891 104.418 47.318C104.31 47.4474 104.192 47.5675 104.065 47.6774C104.161 47.5372 104.267 47.4043 104.383 47.2799L105.153 46.3481L105.919 45.4164C106.013 45.2801 106.12 45.1524 106.237 45.0348Z" fill="#E0E0E0"/>
<path d="M104.272 65.5873C104.869 66.5342 105.571 67.411 106.364 68.2012L104.272 65.5873Z" fill="white"/>
<path d="M106.364 68.2011C106.231 68.1087 106.108 68.0021 105.998 67.8831C105.721 67.5998 105.457 67.3026 105.21 66.9927C104.962 66.6872 104.731 66.3687 104.517 66.0387C104.42 65.9046 104.338 65.7607 104.272 65.6094C104.382 65.7319 104.481 65.8638 104.567 66.0037C104.742 66.2517 104.99 66.5888 105.277 66.9577C105.563 67.3266 105.843 67.635 106.043 67.8608C106.158 67.9662 106.266 68.0799 106.364 68.2011Z" fill="#E0E0E0"/>
<path d="M90.2445 68.1311L92.3306 65.5553L90.2445 68.1311Z" fill="white"/>
<path d="M92.3306 65.5553C92.0176 66.0103 91.6812 66.4487 91.3226 66.8686C90.7438 67.581 90.2604 68.1406 90.2445 68.1406C90.557 67.6842 90.8935 67.2448 91.2526 66.8241C91.5903 66.3833 91.9501 65.9598 92.3306 65.5553Z" fill="#E0E0E0"/>
<path d="M90.2445 45.0348C90.6052 45.4193 90.9439 45.8238 91.259 46.2464C91.5988 46.6536 91.9172 47.0781 92.213 47.5184C91.8523 47.1339 91.5136 46.7294 91.1985 46.3068C90.8571 45.9009 90.5387 45.4762 90.2445 45.0348Z" fill="#E0E0E0"/>
<path d="M100.478 51.2137H96.4646V62.6077H100.478V51.2137Z" fill="#E0E0E0"/>
<path d="M134.66 60.849C134.66 60.849 134.66 60.9031 134.644 61.0112L134.577 61.485C134.513 61.9079 134.421 62.5217 134.307 63.304C134.068 64.894 133.709 67.1708 133.254 69.982C132.345 75.6265 131.028 83.4111 129.537 92.0066C128.045 100.602 126.706 108.384 125.768 114.022C125.301 116.836 124.923 119.11 124.662 120.7C124.531 121.482 124.43 122.093 124.344 122.516C124.309 122.716 124.283 122.872 124.261 122.986C124.239 123.101 124.226 123.145 124.226 123.145C124.226 123.145 124.226 123.091 124.245 122.983C124.264 122.875 124.283 122.713 124.309 122.509C124.372 122.086 124.465 121.473 124.579 120.69C124.818 119.1 125.177 116.823 125.632 114.012C126.541 108.368 127.858 100.58 129.352 91.9844C130.847 83.3888 132.192 75.6106 133.146 69.9597C133.61 67.1454 133.989 64.8717 134.253 63.2817L134.555 61.4659L134.637 60.9953C134.642 60.9462 134.65 60.8973 134.66 60.849Z" fill="#E0E0E0"/>
<path d="M126.042 74.9269C126.129 75.0166 126.206 75.1158 126.271 75.2226C126.411 75.4198 126.589 75.7092 126.837 76.0685C127.305 76.7904 127.925 77.8016 128.586 78.9305L130.268 81.8338L130.78 82.7083C130.853 82.8058 130.912 82.9128 130.955 83.0263C130.867 82.9382 130.789 82.84 130.723 82.7338C130.586 82.5366 130.405 82.2472 130.163 81.8847C129.702 81.1565 129.095 80.1357 128.433 79.0068L126.732 76.1162C126.529 75.7728 126.354 75.4802 126.214 75.2417C126.143 75.1448 126.085 75.0389 126.042 74.9269Z" fill="#E0E0E0"/>
<path d="M131.438 82.9978C131.41 82.9564 133.442 81.589 135.976 79.9386C138.511 78.2882 140.581 76.9876 140.609 77.0257C140.638 77.0639 138.603 78.4376 136.072 80.0849C133.54 81.7321 131.464 83.0327 131.438 82.9978Z" fill="#E0E0E0"/>
<path d="M128.557 96.0867C128.672 96.0302 128.792 95.9865 128.916 95.9564L129.908 95.6543C130.745 95.3967 131.902 95.0405 133.162 94.5985C134.421 94.1565 135.553 93.7272 136.37 93.406L137.324 93.0276C137.44 92.9711 137.563 92.9305 137.69 92.9067C137.584 92.9791 137.471 93.0399 137.353 93.088C137.13 93.1961 136.809 93.3456 136.399 93.5205C135.598 93.8703 134.472 94.325 133.219 94.7639C131.966 95.2027 130.789 95.5461 129.943 95.7719C129.517 95.8832 129.174 95.9691 128.932 96.0231C128.81 96.0593 128.684 96.0806 128.557 96.0867Z" fill="#E0E0E0"/>
<path d="M122.07 89.8665C122.172 89.9269 122.266 89.9995 122.35 90.0827C122.522 90.229 122.77 90.4452 123.069 90.7187C123.673 91.2625 124.496 92.0193 125.4 92.862C126.303 93.7047 127.114 94.4775 127.695 95.0435C127.985 95.3233 128.217 95.5555 128.376 95.7177C128.464 95.7968 128.543 95.8853 128.611 95.9816C128.508 95.9242 128.414 95.8524 128.331 95.7685C128.157 95.6223 127.912 95.4028 127.61 95.1325C127.009 94.5919 126.182 93.8351 125.279 92.9892C124.376 92.1433 123.565 91.3738 122.986 90.8109C122.693 90.5279 122.461 90.2989 122.302 90.1336C122.214 90.055 122.136 89.9652 122.07 89.8665Z" fill="#E0E0E0"/>
<path d="M118.057 101.105C118.185 101.185 118.305 101.279 118.413 101.384L119.338 102.195C120.114 102.885 121.177 103.846 122.347 104.917C123.517 105.989 124.573 106.965 125.32 107.678L126.207 108.53C126.324 108.625 126.43 108.732 126.525 108.848C126.398 108.765 126.279 108.672 126.169 108.568L125.244 107.757C124.468 107.067 123.406 106.104 122.235 105.035C121.065 103.967 120.009 102.987 119.265 102.275L118.369 101.442C118.253 101.341 118.149 101.228 118.057 101.105Z" fill="#E0E0E0"/>
<path d="M126.366 108.616C126.51 108.544 126.66 108.486 126.815 108.441L128.061 108.012C129.111 107.649 130.561 107.143 132.147 106.542C133.734 105.941 135.156 105.363 136.18 104.936L137.398 104.431C137.544 104.362 137.696 104.307 137.852 104.266C137.719 104.357 137.576 104.433 137.426 104.494C137.146 104.631 136.739 104.812 136.231 105.048C135.216 105.506 133.798 106.104 132.208 106.705C130.618 107.306 129.161 107.802 128.099 108.12C127.568 108.285 127.145 108.412 126.827 108.495C126.678 108.55 126.523 108.591 126.366 108.616Z" fill="#E0E0E0"/>
<path d="M16.4943 96.5732C16.5788 96.3961 16.6407 96.2092 16.6788 96.0167C16.7837 95.6542 16.9141 95.1263 17.0699 94.4681C17.3879 93.1547 17.7472 91.3294 18.1447 89.3133C18.5422 87.2971 18.9334 85.4814 19.2641 84.1776C19.4263 83.5416 19.563 82.9978 19.6648 82.6353C19.7269 82.4494 19.7695 82.2576 19.792 82.0629C19.6977 82.2349 19.6241 82.4174 19.5726 82.6066C19.4454 82.9628 19.28 83.4843 19.0956 84.133C18.7203 85.4273 18.3006 87.2463 17.9031 89.2656L16.8982 94.4458C16.7742 95.0659 16.6692 95.5906 16.5802 96.0104C16.5339 96.1948 16.5051 96.3833 16.4943 96.5732Z" fill="#E0E0E0"/>
<path d="M-0.379135 91.7938C-0.157906 91.861 0.0687189 91.9088 0.298205 91.9369C0.737045 92.0164 1.36986 92.1277 2.14578 92.2931C3.70398 92.6111 5.83777 93.1135 8.1687 93.7781C10.4996 94.4427 12.5825 95.1423 14.0771 95.6861C14.8244 95.9532 15.4255 96.1854 15.8389 96.3444C16.0493 96.4408 16.2687 96.5164 16.4939 96.5702C16.2993 96.4441 16.0926 96.3376 15.877 96.2522C15.4732 96.0645 14.8817 95.807 14.1376 95.5176C12.6557 94.9261 10.576 94.2042 8.23549 93.5333C6.24198 92.9555 4.21999 92.4811 2.17759 92.1118C1.39531 91.9719 0.756125 91.886 0.314105 91.8351C0.085025 91.7979 -0.147251 91.784 -0.379135 91.7938Z" fill="#E0E0E0"/>
<path d="M22.2246 116.337C22.2799 116.277 22.326 116.21 22.3613 116.136L22.7143 115.542C23.0323 115.027 23.433 114.27 23.9354 113.316C24.9435 111.427 26.2568 108.772 27.6624 105.821C29.068 102.869 30.3527 100.205 31.3226 98.2967L32.4737 96.0389L32.7917 95.4219C32.8309 95.3515 32.8618 95.2768 32.884 95.1993C32.8303 95.259 32.7843 95.3253 32.7472 95.3965L32.3974 95.9912C32.0953 96.5095 31.6787 97.2632 31.1731 98.2172C30.1651 100.109 28.8549 102.765 27.4462 105.716C26.0374 108.667 24.7559 111.328 23.7892 113.239L22.6348 115.497L22.3168 116.114C22.2759 116.184 22.2449 116.259 22.2246 116.337Z" fill="#E0E0E0"/>
<path d="M0.0849762 106.892C0.152204 106.941 0.226112 106.979 0.304396 107.007L0.940396 107.29L3.3095 108.307C5.3129 109.163 8.0795 110.381 11.1005 111.729C14.1215 113.077 16.9008 114.273 18.9233 115.087C19.9314 115.497 20.7518 115.819 21.3242 116.041L21.9825 116.283C22.0581 116.314 22.137 116.336 22.2178 116.35C22.1521 116.301 22.0791 116.262 22.0015 116.235L21.3655 115.952L18.9837 114.925C16.9803 114.066 14.2137 112.848 11.1927 111.5C8.17172 110.152 5.38922 108.956 3.36992 108.142C2.36186 107.735 1.54142 107.411 0.969016 107.188L0.310757 106.95C0.237996 106.922 0.162217 106.903 0.0849762 106.892Z" fill="#E0E0E0"/>
<path d="M46.5993 25.9801V52.2278H8.9036L7.54256 26.1645L46.5993 25.9801Z" fill="#E0E0E0"/>
<path d="M7.54256 26.1679L7.54256 52.174H45.2383V26.1679L7.54256 26.1679Z" fill="white"/>
<path d="M45.4194 52.3521H7.36438V25.9867H45.4194V52.3521ZM7.72372 51.9927H45.0601V26.3429H7.72372V51.9927Z" fill="#E0E0E0"/>
<path d="M41.1548 29.3956H11.6253V48.9399H41.1548V29.3956Z" fill="white"/>
<path d="M41.1585 29.3956H41.0122H40.6084H38.9866L32.9 29.4179L11.6417 29.4592L11.7276 29.3733C11.7276 35.3454 11.7276 41.963 11.7276 48.9176L11.6322 48.8254L41.1649 48.8445L41.0885 48.9176C41.1076 42.971 41.1203 38.1056 41.1299 34.6998C41.1299 33.0017 41.1299 31.6757 41.149 30.7662C41.149 30.3178 41.149 29.9712 41.149 29.7327C41.149 29.4942 41.149 29.3733 41.149 29.3733C41.149 29.3733 41.149 29.4878 41.149 29.7168C41.149 29.9457 41.149 30.2924 41.149 30.7376C41.149 31.6407 41.149 32.9636 41.168 34.6521C41.168 38.0579 41.1903 42.9519 41.2062 48.9176V48.9939H41.1331L11.6004 49.013H11.5082V48.9176C11.5082 41.963 11.5082 35.3454 11.5082 29.3733V29.2875H11.5909L32.8969 29.332L38.9643 29.3543H40.5543H40.9645L41.1585 29.3956Z" fill="#E0E0E0"/>
<path d="M7.53588 26.0914C7.76337 26.2063 7.9768 26.3472 8.17188 26.5112C8.55984 26.791 9.08454 27.1853 9.65058 27.6401C10.2166 28.0948 10.7159 28.5209 11.0689 28.8421C11.2709 29.0028 11.4515 29.1888 11.6063 29.3955C11.5713 29.4368 10.6523 28.6895 9.53292 27.7832C8.41356 26.8769 7.51044 26.136 7.53588 26.0914Z" fill="#E0E0E0"/>
<path d="M45.2415 26.1648C44.6214 26.7744 43.9582 27.3387 43.2572 27.8534C42.5956 28.4172 41.8942 28.9327 41.1584 29.3957C41.7827 28.7869 42.449 28.2226 43.1523 27.7071C43.8112 27.144 44.5094 26.6286 45.2415 26.1648Z" fill="#E0E0E0"/>
<path d="M45.2094 52.1774L41.0087 48.7684L45.2094 52.1774Z" fill="white"/>
<path d="M41.0086 48.7684C41.7633 49.2643 42.4846 49.8093 43.1678 50.3998C43.8888 50.9442 44.571 51.5381 45.2094 52.1774C44.4538 51.6828 43.7324 51.1378 43.0501 50.5461C41.8799 49.608 40.9736 48.8098 41.0086 48.7684Z" fill="#E0E0E0"/>
<path d="M7.53598 52.1743C8.15025 51.5705 8.80701 51.0115 9.50122 50.5016C10.1565 49.9445 10.8505 49.4344 11.5778 48.9752C10.9651 49.5795 10.3093 50.1385 9.6157 50.6479C8.95935 51.2051 8.26437 51.7152 7.53598 52.1743Z" fill="#E0E0E0"/>
<path d="M17.623 35.4884V42.0328H36.2038V35.4884H17.623Z" fill="#E0E0E0"/>
<path d="M133.642 19.8811H113.488V49.0958H133.642V19.8811Z" fill="#E0E0E0"/>
<path d="M132.634 19.8811H112.479V49.0958H132.634V19.8811Z" fill="#F5F5F5"/>
<path d="M130.128 23.0452H114.982V45.9316H130.128V23.0452Z" fill="white"/>
<path d="M130.131 45.9316C130.131 45.9316 130.131 45.8934 130.131 45.8203V45.5023C130.131 45.2129 130.131 44.7932 130.131 44.2462C130.131 43.1491 130.131 41.5527 130.131 39.5334C130.131 35.498 130.115 29.7804 130.106 23.0515L130.157 23.1024H114.982L115.039 23.0483C115.039 31.682 115.039 39.6416 115.039 45.9443L114.995 45.8998L126.02 45.9252H129.066H129.867H130.144H129.877H129.085H126.048L114.995 45.9475H114.953V45.903C114.953 39.6098 114.953 31.6502 114.953 23.007V22.9911H130.217V23.042C130.217 29.7867 130.201 35.5107 130.195 39.5557C130.195 41.5686 130.195 43.165 130.179 44.2589C130.179 44.7995 130.179 45.2129 130.179 45.5023V45.8203C130.131 45.8966 130.131 45.9316 130.131 45.9316Z" fill="#E0E0E0"/>
<path d="M132.691 19.8811C132.589 20.0663 132.469 20.241 132.332 20.4026C132.097 20.7206 131.766 21.1436 131.378 21.6047C130.99 22.0658 130.643 22.4728 130.38 22.7622C130.249 22.9251 130.104 23.0762 129.947 23.2137C130.06 23.0353 130.189 22.8672 130.332 22.7113L131.302 21.5347C131.667 21.0863 132.001 20.6825 132.272 20.3549C132.398 20.1854 132.538 20.0268 132.691 19.8811Z" fill="#E0E0E0"/>
<path d="M130.208 45.8586C130.962 47.0555 131.849 48.1638 132.85 49.1627L130.208 45.8586Z" fill="white"/>
<path d="M132.85 49.1627C132.682 49.039 132.528 48.8983 132.389 48.7429C132.119 48.4694 131.753 48.0783 131.39 47.6204C131.079 47.2282 130.787 46.8206 130.516 46.3992C130.392 46.2303 130.285 46.0492 130.198 45.8586C130.335 46.0151 130.459 46.182 130.57 46.3579C130.793 46.6759 131.104 47.0957 131.467 47.5504C131.829 48.0051 132.179 48.4058 132.437 48.6888C132.586 48.8366 132.724 48.995 132.85 49.1627Z" fill="#E0E0E0"/>
<path d="M112.476 49.0735L115.115 45.8171L112.476 49.0735Z" fill="white"/>
<path d="M115.115 45.8171C114.721 46.3939 114.297 46.949 113.843 47.4803C113.112 48.377 112.501 49.0925 112.479 49.0703C112.874 48.4941 113.298 47.939 113.751 47.4071C114.178 46.8539 114.633 46.3231 115.115 45.8171Z" fill="#E0E0E0"/>
<path d="M112.476 19.8811C112.927 20.3688 113.352 20.8805 113.748 21.4139C114.174 21.9223 114.574 22.453 114.944 23.0039C114.491 22.5171 114.067 22.0054 113.672 21.4711C113.245 20.9627 112.846 20.4319 112.476 19.8811Z" fill="#E0E0E0"/>
<path d="M125.412 27.691H120.34V42.0901H125.412V27.691Z" fill="#E0E0E0"/>
<path d="M137.894 138.966C137.894 139.014 106.914 139.049 68.7129 139.049C30.5116 139.049 -0.474365 139.026 -0.474365 138.966C-0.474365 138.906 30.4957 138.883 68.7129 138.883C106.93 138.883 137.894 138.934 137.894 138.966Z" fill="#263238"/>
<path d="M99.0245 83.952C99.2607 84.9123 99.2332 85.9185 98.9449 86.8644C98.6567 87.8103 98.1184 88.6609 97.3868 89.3262C96.4169 90.1848 95.1608 90.6809 94.2704 91.6254C93.7193 92.2534 93.3403 93.0136 93.1703 93.8317C93.0003 94.6498 93.0452 95.498 93.3005 96.2936C93.5707 97.0834 93.9984 97.8102 94.5575 98.4301C95.1167 99.0499 95.7958 99.5499 96.5537 99.8997C97.5858 100.382 98.7173 100.613 99.8558 100.574C100.994 100.536 102.108 100.228 103.104 99.6771C105.563 98.2875 106.994 95.4986 107.356 92.697C107.719 89.8954 107.149 87.0589 106.402 84.3336" fill="#263238"/>
<path d="M130.027 133.353C132.571 132.937 134.956 133.712 137.474 134.269C138.144 134.467 138.851 134.506 139.538 134.38C140.629 134.1 141.405 133.038 141.573 131.925C141.709 130.95 141.483 129.959 140.937 129.14C140.718 128.786 140.42 128.489 140.066 128.271C139.687 128.081 139.272 127.973 138.848 127.953C137.305 127.829 135.756 128.121 134.364 128.799C132.976 129.474 131.717 130.387 130.643 131.496C130.109 132.03 130.268 132.644 130.033 133.363" fill="#263238"/>
<path d="M78.4499 92.293C78.042 89.8672 78.0916 87.3865 78.5962 84.979C78.8095 83.8017 79.2409 82.6747 79.8682 81.6559C80.082 81.2759 80.4072 80.9707 80.7999 80.7814C81.0852 80.6867 81.3912 80.6731 81.6838 80.7421C81.9763 80.8112 82.2439 80.9602 82.4567 81.1725C82.7284 81.4554 82.937 81.7927 83.0685 82.1622C83.2001 82.5317 83.2517 82.9249 83.2199 83.3159C83.1632 84.0976 82.9717 84.8636 82.6539 85.58C81.6712 88.0922 80.1099 90.1783 78.4404 92.2898" fill="#263238"/>
<path d="M127.74 101.487C128.315 101.897 141.096 129.426 141.096 129.426C140.068 128.987 138.929 128.876 137.836 129.108L137.143 129.293C135.902 129.626 134.725 130.163 133.661 130.883L130.013 133.35C129.869 133.267 129.747 133.151 129.656 133.011C129.566 132.871 129.511 132.711 129.495 132.546V132.441L119.586 115.434L127.74 101.487Z" fill="#007CFF"/>
<path d="M79.7504 57.6599L83.1594 77.0356C84.2564 79.6432 97.0496 95.4415 97.0496 95.4415L92.8202 109.033L76.0171 86.0573C74.4568 84.389 73.6081 82.1783 73.6512 79.8945L74.3062 59.1927L79.7504 57.6599Z" fill="#FFBE9D"/>
<path d="M97.8926 92.4043L106.666 93.0689L114.317 94.2551C114.317 94.2551 127.74 97.7817 127.74 99.2508C127.74 99.7406 124.077 111.408 122.016 118.398C121.511 120.095 121.099 121.819 120.782 123.562L127.74 138.966H94.7221V124.843C94.7221 124.843 92.4961 106.295 92.8872 103.76C93.2784 101.226 97.8926 92.4043 97.8926 92.4043Z" fill="#007CFF"/>
<path d="M75.588 49.8307C75.6396 47.8572 75.8415 45.8905 76.1922 43.9477C76.2399 43.671 76.3543 43.3371 76.631 43.3117C76.9744 43.2672 77.1493 43.7092 77.1939 44.0526C77.4988 46.3957 77.4009 48.7736 76.9045 51.0836" fill="#EB996E"/>
<path d="M79.4993 90.8588C83.2644 87.4944 83.3916 81.6654 83.0704 77.0258C83.0076 76.687 83.059 76.3369 83.2167 76.0305C83.5761 75.5185 84.4506 75.7125 84.8067 76.2276C85.1629 76.7428 85.1247 77.4201 85.1056 78.0434C85.2996 77.5155 86.1264 77.5187 86.5144 77.9258C86.9023 78.3328 86.9691 78.9465 87.0136 79.5158L87.1377 81.0676L98.1373 91.5616C98.1373 91.5616 98.4394 90.6076 99.2471 91.1577C100.055 91.7079 100.576 92.8686 100.576 92.8686L92.8267 109.783L78.4436 92.293C78.7201 91.7638 79.0762 91.2801 79.4993 90.8588Z" fill="#007CFF"/>
<path d="M94.4265 102.564C93.2789 104.028 92.4218 105.698 91.9016 107.484C91.3831 109.281 91.4399 111.196 92.0638 112.96C92.5465 114.18 93.3371 115.255 94.3587 116.078C95.3803 116.902 96.5979 117.447 97.8927 117.66" fill="#007CFF"/>
<path d="M130.026 133.353L129.61 138.966H137.76L139.668 129.028C137.185 128.89 134.737 129.657 132.777 131.188L130.026 133.353Z" fill="#FFBE9D"/>
<path d="M83.3313 89.6156C83.3773 89.4612 83.4369 89.3111 83.5093 89.1672C83.6365 88.8874 83.8083 88.474 84.0022 87.9588C84.1962 87.4437 84.4029 86.8204 84.5969 86.1208C84.7985 85.3572 84.9588 84.5834 85.0771 83.8025C85.1869 83.0213 85.2538 82.2347 85.2774 81.4462C85.2774 80.7179 85.2774 80.0629 85.2329 79.5127C85.1884 78.9626 85.147 78.5206 85.1057 78.2153C85.0783 78.0566 85.0634 77.8961 85.0612 77.7351C85.1129 77.888 85.1491 78.0456 85.1693 78.2057C85.2518 78.6349 85.3123 79.0679 85.3506 79.5032C85.4127 80.15 85.4392 80.7997 85.4301 81.4494C85.4059 83.0423 85.175 84.6254 84.7432 86.1589C84.5656 86.784 84.3533 87.3987 84.1072 88.0002C83.8973 88.5153 83.7097 88.9223 83.5634 89.1958C83.4967 89.3414 83.4191 89.4817 83.3313 89.6156Z" fill="#263238"/>
<path d="M85.7259 86.6613C85.8296 86.3878 85.9485 86.1202 86.0821 85.8599C86.6388 84.5693 86.9618 83.19 87.0361 81.7864C87.0356 81.4942 87.0515 81.2022 87.0838 80.9119C87.1463 81.2 87.1698 81.4952 87.1537 81.7895C87.1428 83.2157 86.817 84.6219 86.1997 85.9076C86.0783 86.18 85.9188 86.4338 85.7259 86.6613Z" fill="#263238"/>
<path d="M98.6431 95.4572C98.6177 95.4413 98.7512 95.2346 98.8276 94.8594C98.9167 94.369 98.8884 93.8644 98.7449 93.3871C98.5938 92.9065 98.41 92.4369 98.1947 91.9815C98.0943 91.793 98.0195 91.592 97.9722 91.3837C98.098 91.5537 98.2047 91.7371 98.2902 91.9306C98.5418 92.3785 98.7454 92.8518 98.8975 93.3425C99.0496 93.8449 99.0617 94.3793 98.9325 94.888C98.8925 95.1016 98.7921 95.2991 98.6431 95.4572Z" fill="#263238"/>
<path d="M96.7319 117.857C96.6822 117.836 96.6352 117.81 96.592 117.777L96.2167 117.529C95.8987 117.31 95.4249 116.989 94.8716 116.553C94.2175 116.049 93.6194 115.477 93.0876 114.845C92.4332 114.064 91.9616 113.146 91.7075 112.158C91.4647 111.171 91.4022 110.147 91.523 109.137C91.6206 108.318 91.8028 107.512 92.0668 106.73C92.2418 106.204 92.4446 105.687 92.6742 105.181C92.7569 105.003 92.8205 104.863 92.8682 104.774C92.8892 104.725 92.9159 104.678 92.9477 104.635C92.8875 104.829 92.8164 105.02 92.7346 105.207C92.5915 105.569 92.3848 106.097 92.1781 106.765C91.9339 107.543 91.7657 108.343 91.6757 109.153C91.5649 110.145 91.6295 111.148 91.8665 112.117C92.114 113.082 92.5711 113.981 93.2053 114.75C93.7259 115.378 94.3087 115.951 94.9447 116.461C95.4853 116.906 95.9401 117.24 96.2549 117.479L96.611 117.752C96.6937 117.816 96.7351 117.851 96.7319 117.857Z" fill="#263238"/>
<path d="M114.747 121.002C114.703 121.025 114.655 121.043 114.607 121.053C114.511 121.078 114.375 121.126 114.193 121.161C113.681 121.272 113.159 121.335 112.635 121.349C110.888 121.402 109.164 120.932 107.687 119.997C106.209 119.062 105.045 117.707 104.345 116.105C104.131 115.626 103.964 115.128 103.846 114.617C103.801 114.435 103.785 114.299 103.766 114.197C103.755 114.148 103.75 114.098 103.75 114.047C103.815 114.227 103.868 114.411 103.909 114.598C104.415 116.518 105.549 118.213 107.129 119.415C108.71 120.617 110.647 121.256 112.632 121.231C113.151 121.229 113.669 121.184 114.181 121.098C114.367 121.056 114.556 121.024 114.747 121.002Z" fill="#263238"/>
<path d="M119.806 127.2C119.761 127.2 120.181 125.428 120.76 123.272C121.339 121.116 121.816 119.377 121.857 119.39C121.898 119.402 121.482 121.158 120.919 123.314C120.356 125.47 119.85 127.2 119.806 127.2Z" fill="#263238"/>
<path d="M124.242 123.451C124.204 123.473 122.925 121.384 121.38 118.782C119.834 116.181 118.626 114.054 118.667 114.032C118.709 114.009 119.984 116.095 121.529 118.697C123.075 121.298 124.296 123.425 124.242 123.451Z" fill="#263238"/>
<path d="M136.45 128.599C136.45 128.631 135.986 128.669 135.261 128.853C134.837 128.961 134.422 129.098 134.017 129.264C133.524 129.472 133.048 129.719 132.593 130.001C132.144 130.29 131.718 130.615 131.321 130.971C130.996 131.268 130.694 131.586 130.414 131.925C129.937 132.501 129.702 132.905 129.673 132.879C129.712 132.776 129.762 132.678 129.823 132.587C129.97 132.326 130.137 132.078 130.322 131.843C130.594 131.491 130.893 131.162 131.216 130.857C131.616 130.486 132.048 130.152 132.507 129.858C132.97 129.57 133.457 129.324 133.963 129.121C134.376 128.958 134.801 128.829 135.235 128.736C135.526 128.668 135.822 128.624 136.119 128.602C136.229 128.585 136.34 128.584 136.45 128.599Z" fill="#263238"/>
<path d="M138.008 126.685C138.008 126.72 137.496 126.656 136.679 126.726C136.202 126.769 135.73 126.852 135.267 126.974C134.132 127.276 133.072 127.807 132.151 128.536C131.776 128.834 131.427 129.162 131.108 129.518C130.564 130.129 130.31 130.574 130.281 130.558C130.324 130.446 130.38 130.339 130.449 130.24C130.518 130.117 130.594 129.999 130.678 129.887C130.784 129.733 130.898 129.585 131.019 129.442C131.331 129.069 131.678 128.726 132.055 128.418C132.522 128.044 133.025 127.718 133.556 127.445C134.091 127.183 134.652 126.976 135.229 126.828C135.702 126.709 136.186 126.636 136.673 126.609C136.858 126.599 137.044 126.599 137.229 126.609C137.371 126.609 137.512 126.618 137.652 126.634C137.773 126.636 137.892 126.653 138.008 126.685Z" fill="#263238"/>
<g opacity="0.3">
<path opacity="0.3" d="M104.09 114.725C103.343 116.143 103.966 117.873 104.65 119.326C105.181 120.452 105.773 121.594 106.739 122.379C107.214 122.767 107.764 123.053 108.355 123.219C108.946 123.385 109.565 123.426 110.172 123.341C110.78 123.257 111.363 123.047 111.886 122.726C112.409 122.405 112.86 121.98 113.211 121.476C111.183 121.446 109.213 120.803 107.558 119.632C105.903 118.461 104.641 116.817 103.938 114.916" fill="black"/>
</g>
<g opacity="0.3">
<path opacity="0.3" d="M118.69 114.032C118.117 115.396 118.55 117.262 119.148 118.614C119.745 119.965 120.381 121.476 119.901 122.878C119.777 123.127 119.713 123.402 119.714 123.68C119.745 123.953 120.032 124.217 120.289 124.09C120.422 123.996 120.515 123.855 120.547 123.696C120.998 122.335 121.451 120.975 121.905 119.616" fill="black"/>
</g>
<path d="M88.607 96.0679C88.6582 95.214 88.7644 94.3642 88.925 93.5239C89.033 92.679 89.1955 91.842 89.4115 91.0181C89.3635 91.8723 89.2572 92.7223 89.0935 93.5621C88.9865 94.4071 88.8239 95.2442 88.607 96.0679Z" fill="#FAFAFA"/>
<path d="M85.2583 95.365C85.217 95.3904 84.67 94.6272 83.9132 93.7495C83.1564 92.8718 82.4886 92.2136 82.5204 92.1786C83.0906 92.5956 83.6019 93.0876 84.0404 93.6414C84.5194 94.1607 84.9288 94.74 85.2583 95.365Z" fill="#FAFAFA"/>
<path d="M88.1331 87.1734C88.0374 87.3783 87.9167 87.5705 87.7737 87.7458C87.532 88.086 87.1791 88.5408 86.7688 89.0178C86.3586 89.4948 85.9643 89.9241 85.6686 90.2167C85.5203 90.3866 85.3503 90.5363 85.1629 90.6618C85.128 90.63 85.8244 89.8764 86.6416 88.9097C87.4589 87.9429 88.0949 87.132 88.1331 87.1734Z" fill="#FAFAFA"/>
<path d="M87.0106 83.1697C86.9629 83.1888 86.7816 82.7849 86.4318 82.3811C86.082 81.9772 85.7068 81.7451 85.7322 81.6974C86.063 81.7926 86.3527 81.9951 86.5559 82.273C86.8004 82.5148 86.96 82.8295 87.0106 83.1697Z" fill="#FAFAFA"/>
<path d="M84.1105 85.6374C83.8507 85.7598 83.5702 85.8321 83.2837 85.8505C83.0057 85.9231 82.7161 85.9404 82.4314 85.9014C82.969 85.7064 83.5391 85.6168 84.1105 85.6374Z" fill="#FAFAFA"/>
<path d="M91.4274 89.1702C91.4346 88.6752 91.3995 88.1805 91.3225 87.6915C91.1908 87.214 91.0173 86.749 90.8041 86.3019C91.1647 86.6724 91.4014 87.1457 91.4815 87.6566C91.6175 88.1549 91.5987 88.6829 91.4274 89.1702Z" fill="#FAFAFA"/>
<path d="M95.3359 93.3744C94.7493 92.4381 93.9618 91.6441 93.0303 91.0498C93.5562 91.2538 94.0333 91.5662 94.4305 91.9667C94.8277 92.3672 95.1362 92.8468 95.3359 93.3744Z" fill="#FAFAFA"/>
<path d="M89.0615 100.669C88.1148 101.024 87.0661 100.989 86.1455 100.571C86.1614 100.523 86.7815 100.723 87.5987 100.746C88.416 100.768 89.0488 100.622 89.0615 100.669Z" fill="#FAFAFA"/>
<path d="M92.0064 102.18C91.9618 102.161 92.2099 101.429 92.4166 100.501C92.6233 99.5721 92.7155 98.8025 92.7632 98.8089C92.7959 99.3907 92.7336 99.9739 92.5788 100.536C92.4777 101.111 92.2844 101.666 92.0064 102.18Z" fill="#FAFAFA"/>
<path d="M98.4396 102.424C97.9366 101.999 97.4716 101.531 97.05 101.025C96.5846 100.557 96.1592 100.05 95.778 99.5114C96.2791 99.9386 96.7429 100.408 97.1644 100.914C97.6294 101.382 98.0558 101.887 98.4396 102.424Z" fill="#FAFAFA"/>
<path d="M101.435 109.856C101.054 109.579 100.706 109.259 100.399 108.902C100.054 108.582 99.7465 108.223 99.4827 107.834C99.8641 108.11 100.212 108.431 100.519 108.788C100.867 109.105 101.175 109.464 101.435 109.856Z" fill="#FAFAFA"/>
<path d="M95.867 110.565C95.5013 110.955 95.0709 111.277 94.595 111.519C94.1472 111.818 93.6496 112.033 93.1258 112.155C93.1258 112.111 93.7618 111.837 94.5123 111.389C95.2628 110.941 95.8352 110.527 95.867 110.565Z" fill="#FAFAFA"/>
<path d="M98.43 117.634C98.3823 117.634 98.5731 116.789 98.6685 115.742C98.7639 114.696 98.7353 113.834 98.783 113.834C98.8998 114.464 98.917 115.108 98.8339 115.742C98.8022 116.391 98.6658 117.03 98.43 117.634Z" fill="#FAFAFA"/>
<path d="M108.069 111.888C107.543 111.566 107.077 111.157 106.692 110.676C106.266 110.232 105.923 109.717 105.677 109.153C105.719 109.125 106.154 109.815 106.816 110.568C107.477 111.322 108.1 111.847 108.069 111.888Z" fill="#FAFAFA"/>
<path d="M111.588 114.887C111.55 114.858 112.034 114.197 112.574 113.347C113.115 112.498 113.512 111.786 113.554 111.808C113.347 112.387 113.064 112.934 112.711 113.437C112.406 113.97 112.028 114.458 111.588 114.887Z" fill="#FAFAFA"/>
<path d="M111.074 107.547C109.988 107.367 108.923 107.079 107.894 106.689C108.442 106.754 108.983 106.871 109.509 107.039C110.046 107.155 110.571 107.325 111.074 107.547Z" fill="#FAFAFA"/>
<path d="M108.507 120.465C108.451 119.964 108.451 119.458 108.507 118.957C108.512 118.453 108.569 117.951 108.679 117.459C108.736 117.96 108.736 118.466 108.679 118.967C108.676 119.471 108.618 119.973 108.507 120.465Z" fill="#FAFAFA"/>
<path d="M110.727 124.888C110.894 124.374 111.027 123.851 111.128 123.32C111.172 122.782 111.18 122.241 111.153 121.702C111.317 122.231 111.364 122.789 111.291 123.339C111.217 123.888 111.025 124.414 110.727 124.882V124.888Z" fill="#FAFAFA"/>
<path d="M104.974 123.912C104.812 122.813 105.027 121.692 105.585 120.732C105.629 120.751 105.337 121.422 105.171 122.303C105.006 123.183 105.022 123.909 104.974 123.912Z" fill="#FAFAFA"/>
<path d="M99.7275 126.154C99.209 125.793 98.7101 125.406 98.2329 124.993C97.7221 124.623 97.2307 124.227 96.7605 123.807C97.3321 124.092 97.8662 124.446 98.3505 124.863C98.8584 125.238 99.3205 125.671 99.7275 126.154Z" fill="#FAFAFA"/>
<path d="M103.28 119.915C102.063 120.687 100.787 121.362 99.4636 121.934C100.062 121.522 100.692 121.156 101.346 120.84C101.966 120.482 102.612 120.173 103.28 119.915Z" fill="#FAFAFA"/>
<path d="M114.317 133.916C114.25 133.938 114.18 133.955 114.11 133.967C113.974 133.992 113.773 134.043 113.513 134.078C112.776 134.191 112.031 134.239 111.287 134.221C109.363 134.193 107.467 133.758 105.724 132.943C103.98 132.129 102.43 130.954 101.174 129.496C100.445 128.657 99.8201 127.732 99.3138 126.742C98.9688 126.079 98.6836 125.386 98.4616 124.672C98.3758 124.421 98.3344 124.22 98.2963 124.087C98.275 124.018 98.2612 123.948 98.2549 123.877C98.2854 123.941 98.3099 124.008 98.3281 124.077C98.3758 124.208 98.4266 124.395 98.522 124.653C99.1318 126.396 100.071 128.006 101.289 129.394C102.547 130.818 104.084 131.971 105.803 132.781C107.523 133.59 109.39 134.041 111.29 134.104C112.033 134.131 112.777 134.102 113.516 134.015C113.78 133.989 113.98 133.948 114.117 133.935C114.183 133.921 114.25 133.915 114.317 133.916Z" fill="#263238"/>
<path d="M104.816 132.269C104.707 131.764 104.759 131.238 104.965 130.765C105.12 130.272 105.427 129.841 105.843 129.534C105.562 129.941 105.32 130.373 105.121 130.825C104.975 131.296 104.873 131.779 104.816 132.269Z" fill="#FAFAFA"/>
<path d="M102.198 131.175C101.896 131.409 101.619 131.673 101.371 131.964C101.165 132.284 100.99 132.624 100.85 132.978C100.86 132.575 100.996 132.185 101.237 131.862C101.479 131.539 101.814 131.299 102.198 131.175Z" fill="#FAFAFA"/>
<path d="M112.263 137.166C111.742 137.124 111.24 136.958 110.797 136.681C110.354 136.405 109.984 136.025 109.719 135.576C110.41 136.323 111.289 136.872 112.263 137.166Z" fill="#FAFAFA"/>
<path d="M113.828 128.357C113.761 128.825 113.563 129.264 113.258 129.624C112.952 129.984 112.551 130.251 112.101 130.393C112.473 130.136 112.818 129.843 113.131 129.518C113.403 129.156 113.636 128.767 113.828 128.357Z" fill="#FAFAFA"/>
<path d="M118.276 134.924C118.238 134.893 118.658 134.362 119.046 133.63C119.434 132.899 119.64 132.253 119.682 132.269C119.502 133.281 119.008 134.21 118.27 134.924H118.276Z" fill="#FAFAFA"/>
<path d="M124.156 135.786C124.175 135.834 123.597 136.063 123.015 136.543C122.433 137.023 122.083 137.538 122.042 137.497C122.224 137.058 122.525 136.678 122.91 136.4C123.26 136.083 123.692 135.871 124.156 135.786Z" fill="#FAFAFA"/>
<path d="M119.673 128.259C119.622 128.275 119.355 127.346 118.76 126.316C118.165 125.286 117.529 124.56 117.571 124.529C117.745 124.652 117.899 124.802 118.025 124.974C118.695 125.756 119.204 126.661 119.526 127.639C119.606 127.837 119.656 128.046 119.673 128.259Z" fill="#FAFAFA"/>
<path d="M120.55 118.792C119.56 119.134 118.537 119.369 117.497 119.495C118.487 119.154 119.51 118.918 120.55 118.792Z" fill="#FAFAFA"/>
<path d="M117.844 115.962C117.481 115.624 117.154 115.249 116.871 114.842C116.547 114.468 116.264 114.06 116.028 113.625C116.395 113.958 116.721 114.332 117.001 114.741C117.328 115.114 117.611 115.524 117.844 115.962Z" fill="#FAFAFA"/>
<path d="M124.56 114.264C123.53 114.238 122.516 113.998 121.584 113.558C122.087 113.644 122.585 113.76 123.075 113.904C123.577 113.994 124.073 114.114 124.56 114.264Z" fill="#FAFAFA"/>
<path d="M129.33 114.178C129.467 113.728 129.629 113.286 129.817 112.855C129.951 112.403 130.113 111.96 130.303 111.529C130.277 112.005 130.17 112.473 129.985 112.912C129.843 113.369 129.621 113.798 129.33 114.178Z" fill="#FAFAFA"/>
<path d="M128.242 120.64C127.256 120.419 126.365 119.891 125.698 119.132C125.73 119.094 126.233 119.533 126.929 119.943C127.626 120.353 128.258 120.592 128.242 120.64Z" fill="#FAFAFA"/>
<path d="M131.34 120.442C131.404 119.804 131.521 119.172 131.69 118.553C131.805 117.924 131.973 117.306 132.192 116.706C132.014 117.975 131.725 119.226 131.33 120.445L131.34 120.442Z" fill="#FAFAFA"/>
<path d="M128.755 127.667C127.961 126.769 127.252 125.799 126.637 124.771C127.053 125.202 127.43 125.67 127.762 126.17C128.138 126.637 128.471 127.139 128.755 127.667Z" fill="#FAFAFA"/>
<path d="M133.168 124.904C133.124 124.926 132.834 124.351 132.376 123.708C131.919 123.066 131.476 122.599 131.511 122.564C131.911 122.844 132.252 123.2 132.513 123.613C132.817 123.994 133.04 124.434 133.168 124.904Z" fill="#FAFAFA"/>
<path d="M137.309 124.284C136.946 123.858 136.606 123.413 136.291 122.951C135.93 122.526 135.59 122.082 135.273 121.622C136.119 122.368 136.811 123.272 137.309 124.284Z" fill="#FAFAFA"/>
<path d="M136.326 127.028C136.27 126.646 136.141 126.278 135.948 125.944C135.715 125.635 135.427 125.372 135.099 125.168C135.099 125.149 135.245 125.168 135.445 125.266C135.704 125.404 135.923 125.606 136.081 125.852C136.243 126.097 136.341 126.379 136.364 126.672C136.396 126.882 136.355 127.028 136.326 127.028Z" fill="#FAFAFA"/>
<path d="M133.108 130.79C133.082 130.79 133.092 130.704 133.066 130.593C133.036 130.45 132.959 130.321 132.847 130.227C132.729 130.141 132.586 130.097 132.44 130.103C132.325 130.103 132.252 130.132 132.239 130.103C132.227 130.075 132.287 130.018 132.424 129.979C132.514 129.956 132.608 129.954 132.699 129.972C132.79 129.991 132.875 130.031 132.949 130.088C133.022 130.145 133.081 130.219 133.121 130.302C133.161 130.386 133.182 130.478 133.181 130.571C133.177 130.724 133.127 130.797 133.108 130.79Z" fill="#FAFAFA"/>
<path d="M100.023 136.803C99.4292 136.574 98.8895 136.224 98.4384 135.775C97.9872 135.326 97.6345 134.788 97.4028 134.196C98.0514 135.268 98.9506 136.167 100.023 136.816V136.803Z" fill="#FAFAFA"/>
<path d="M79.7824 57.8758C79.2704 53.039 78.345 48.4884 78.0938 43.747C78.1037 43.6281 78.0888 43.5085 78.0499 43.3957C78.0111 43.2829 77.9491 43.1795 77.868 43.0919C77.7988 43.0515 77.722 43.0255 77.6424 43.0156C77.5628 43.0057 77.4821 43.0121 77.405 43.0345C77.328 43.0568 77.2563 43.0945 77.1943 43.1454C77.1323 43.1963 77.0813 43.2592 77.0444 43.3304C76.9057 43.6281 76.8507 43.9579 76.8854 44.2844C76.8909 46.8059 76.4605 49.3094 75.6134 51.6843C75.0696 53.2266 74.3414 54.7053 73.9344 56.2858C73.5273 57.8662 74.2937 58.4036 75.006 59.876" fill="#FFBE9D"/>
<path d="M75.0155 59.8697C74.3855 59.3864 73.8969 58.7427 73.601 58.0059C73.305 57.2692 73.2126 56.4664 73.3332 55.6816C73.4954 54.7276 73.9692 53.8626 74.3445 52.9722C74.7197 52.0818 75.0091 51.0929 74.7801 50.1548C74.6535 49.8066 74.5682 49.4448 74.5257 49.0767C74.5257 48.7079 74.7642 48.2945 75.1331 48.2786C75.2725 48.2898 75.4074 48.3333 75.5272 48.4056C75.6469 48.4779 75.7483 48.577 75.8232 48.6951C76.4433 49.4615 76.9393 51.7002 76.6277 53.3729" fill="#FFBE9D"/>
<path d="M76.6279 53.3727C76.6279 53.3727 76.6597 53.1151 76.6788 52.6509C76.6988 51.996 76.6444 51.3409 76.5166 50.6983C76.431 50.2557 76.3032 49.8223 76.135 49.4041C76.0465 49.1765 75.9266 48.9624 75.7789 48.7681C75.7125 48.6638 75.6256 48.5741 75.5233 48.5047C75.421 48.4352 75.3056 48.3874 75.1842 48.3642C75.0592 48.3702 74.9396 48.4169 74.8437 48.4973C74.7477 48.5777 74.6808 48.6874 74.6532 48.8094C74.585 49.0805 74.6028 49.3661 74.704 49.6267C74.8109 49.9176 74.8856 50.2194 74.9266 50.5266C74.9573 50.8448 74.9456 51.1656 74.8917 51.4806C74.6691 52.7717 73.9822 53.8147 73.6197 54.8482C73.441 55.3311 73.3453 55.8407 73.3366 56.3556C73.3347 56.804 73.4012 57.2501 73.5338 57.6784C73.7264 58.3035 74.0518 58.8795 74.4878 59.367C74.8058 59.7073 75.0125 59.8567 75.003 59.8726C74.9461 59.8438 74.8928 59.8086 74.844 59.7677C74.7004 59.6584 74.5654 59.5383 74.4401 59.4084C73.9753 58.929 73.6271 58.349 73.4225 57.7134C73.2776 57.2753 73.2024 56.817 73.1999 56.3556C73.2026 55.8242 73.2962 55.2972 73.4765 54.7974C73.8263 53.7416 74.5037 52.6986 74.7136 51.4552C74.7678 51.153 74.7796 50.8447 74.7485 50.5393C74.7104 50.2408 74.6389 49.9475 74.5355 49.6648C74.4255 49.3728 74.41 49.0536 74.491 48.7522C74.5383 48.6017 74.6251 48.4667 74.7422 48.361C74.8008 48.3064 74.87 48.2644 74.9454 48.2376C75.0209 48.2108 75.1011 48.1998 75.181 48.2052C75.3267 48.2245 75.4666 48.2744 75.5916 48.3517C75.7166 48.429 75.8238 48.5319 75.9061 48.6536C76.0607 48.8641 76.1849 49.0953 76.275 49.3405C76.4431 49.7676 76.5667 50.2109 76.6438 50.6634C76.7643 51.3153 76.8017 51.9799 76.7551 52.6413C76.744 52.8208 76.7206 52.9993 76.6852 53.1756C76.6756 53.2437 76.6563 53.3101 76.6279 53.3727Z" fill="#EB996E"/>
<path d="M118.2 79.1977C118.304 79.6526 118.55 80.0625 118.903 80.3679C119.256 80.6733 119.697 80.8582 120.162 80.8958C120.628 80.9187 121.092 80.8227 121.511 80.6169C121.93 80.4111 122.29 80.1022 122.557 79.7192C123.085 78.9405 123.297 77.9903 123.151 77.0608C122.97 75.722 122.08 74.4341 120.788 74.0366C119.497 73.6391 117.891 74.3546 117.535 75.652L116.047 77.7286L118.2 79.1977Z" fill="#263238"/>
<path d="M116.441 75.1178C116.586 73.967 116.497 72.7989 116.182 71.683C115.866 70.567 115.329 69.5258 114.604 68.6211C113.878 67.7165 112.978 66.9669 111.957 66.4168C110.936 65.8667 109.815 65.5273 108.66 65.4188C104.046 64.9799 99.9403 68.4175 99.2503 73.0031C98.6429 77.0226 98.1214 81.0803 98.1405 82.5431C98.1977 86.9951 100.796 88.7186 101.852 89.2211C102.231 89.3577 102.623 89.4547 103.022 89.5104C103.026 89.5112 103.029 89.5127 103.032 89.5149C103.036 89.5171 103.038 89.5199 103.04 89.5231C103.042 89.5264 103.044 89.5301 103.044 89.5339C103.045 89.5377 103.045 89.5416 103.044 89.5454L102.058 94.6334C101.61 97.9756 103.476 100.958 106.812 101.445C110.148 101.932 112.778 99.3653 113.29 96.0199L116.441 75.1178Z" fill="#FFBE9D"/>
<path d="M100.016 75.6012C100.09 75.7061 100.675 75.3913 101.428 75.5026C102.182 75.6139 102.675 76.0718 102.77 75.9891C102.818 75.9542 102.751 75.7793 102.538 75.5694C102.246 75.2959 101.876 75.1193 101.479 75.0638C101.088 75.0069 100.688 75.0747 100.338 75.2577C100.074 75.4008 99.9782 75.5535 100.016 75.6012Z" fill="#263238"/>
<path d="M106.708 77.0514C106.781 77.1563 107.369 76.8415 108.12 76.9528C108.87 77.0641 109.369 77.522 109.465 77.4393C109.509 77.4044 109.446 77.2294 109.229 77.0164C108.937 76.7445 108.569 76.5691 108.174 76.5139C107.782 76.4568 107.383 76.5247 107.032 76.7079C106.774 76.851 106.673 77.0037 106.708 77.0514Z" fill="#263238"/>
<path d="M104.106 80.6065C103.728 80.4253 103.328 80.2917 102.917 80.209C102.726 80.1613 102.551 80.0945 102.538 79.961C102.551 79.7605 102.624 79.5686 102.748 79.4108L103.531 78.0307C104.621 76.0623 105.439 74.4341 105.362 74.3896C105.286 74.3451 104.332 75.9065 103.241 77.8876L102.481 79.2773C102.329 79.4932 102.255 79.7545 102.271 80.0182C102.291 80.0882 102.327 80.1529 102.374 80.2078C102.422 80.2628 102.482 80.3066 102.548 80.3362C102.65 80.3797 102.757 80.4106 102.866 80.4284C103.27 80.5401 103.687 80.5999 104.106 80.6065Z" fill="#263238"/>
<path d="M103.05 89.5421C103.05 89.5421 105.912 90.2035 109.872 88.5499C109.872 88.5499 108.167 92.2228 102.786 90.9158L103.05 89.5421Z" fill="#EB996E"/>
<path d="M104.16 82.467C104.329 82.3119 104.534 82.2016 104.756 82.146C104.978 82.0905 105.211 82.0915 105.432 82.149C105.596 82.1894 105.75 82.2619 105.885 82.3624C106.021 82.4628 106.135 82.5892 106.221 82.7341C106.303 82.8738 106.341 83.0356 106.328 83.1973C106.315 83.359 106.252 83.5127 106.148 83.6372C106.008 83.7554 105.836 83.8287 105.654 83.8474C105.471 83.8661 105.288 83.8295 105.127 83.7422C104.789 83.5663 104.491 83.324 104.249 83.0299C104.172 82.958 104.109 82.8716 104.065 82.7755C104.043 82.7298 104.035 82.6786 104.043 82.6286C104.051 82.5785 104.074 82.5321 104.109 82.4956" fill="#EB996E"/>
<path d="M106.243 81.4493C106.122 81.4239 106.002 82.2411 105.219 82.7213C104.437 83.2015 103.578 82.9821 103.556 83.0965C103.537 83.1474 103.728 83.2842 104.094 83.3478C104.571 83.4232 105.059 83.3287 105.474 83.0807C105.871 82.8414 106.161 82.4573 106.281 82.009C106.361 81.6687 106.3 81.4525 106.243 81.4493Z" fill="#263238"/>
<path d="M107.225 74.6027C107.27 74.8189 108.036 74.8317 108.901 75.067C109.766 75.3023 110.45 75.6457 110.593 75.4804C110.657 75.4009 110.561 75.191 110.304 74.9493C109.955 74.6506 109.542 74.4352 109.098 74.3195C108.653 74.2038 108.188 74.1908 107.737 74.2815C107.388 74.3642 107.21 74.5009 107.225 74.6027Z" fill="#263238"/>
<path d="M100.777 73.2829C100.882 73.4737 101.429 73.372 102.049 73.4547C102.669 73.5373 103.184 73.7345 103.321 73.5755C103.388 73.496 103.321 73.3116 103.121 73.1176C102.839 72.8778 102.493 72.7274 102.126 72.6855C101.759 72.6435 101.388 72.7121 101.06 72.8823C100.828 73.0254 100.729 73.1907 100.777 73.2829Z" fill="#263238"/>
<path d="M98.3792 72.0077C99.2983 73.4101 102.217 72.542 103.979 71.5784C104.899 72.1654 106.012 72.3703 107.081 72.1493C108.15 71.9284 109.091 71.2992 109.703 70.3955C110.711 71.6675 112.762 71.2541 113.519 69.8072C114.276 68.3603 113.837 66.3664 112.82 65.1008C111.802 63.8351 110.295 63.1928 108.813 62.9225C105.299 62.2865 101.473 63.6348 99.3714 66.8116C98.4015 68.2776 97.8196 70.2524 98.3951 72.0077" fill="#263238"/>
<path d="M108.091 63.4217C108.091 63.4853 107.261 63.3263 105.957 63.5425C104.263 63.8242 102.711 64.6597 101.543 65.918C100.444 67.2355 99.7168 68.8232 99.4379 70.5163C99.3412 71.2221 99.304 71.9348 99.3266 72.6469C99.2588 72.4631 99.2192 72.2701 99.2089 72.0745C99.1533 71.5454 99.1619 71.0115 99.2344 70.4845C99.4649 68.7257 100.196 67.0701 101.34 65.7145C102.549 64.4052 104.178 63.5604 105.944 63.3263C106.471 63.2554 107.005 63.2469 107.534 63.3009C107.725 63.3124 107.912 63.3532 108.091 63.4217Z" fill="#455A64"/>
<path d="M103.34 69.9599C103.287 69.7989 103.264 69.6299 103.27 69.4606C103.253 68.9993 103.301 68.538 103.413 68.09C103.583 67.3388 103.905 66.6304 104.359 66.0083C104.814 65.3863 105.39 64.8638 106.054 64.4729C106.718 64.0821 107.454 63.8312 108.219 63.7358C108.983 63.6403 109.759 63.7023 110.498 63.9179C110.944 64.0402 111.372 64.2221 111.77 64.4585C111.923 64.5383 112.06 64.6461 112.174 64.7765C111.619 64.514 111.043 64.3012 110.45 64.1405C109.01 63.7736 107.483 63.9909 106.203 64.745C104.922 65.4992 103.991 66.729 103.613 68.1664C103.302 69.2285 103.4 69.9599 103.34 69.9599Z" fill="#455A64"/>
<path d="M111.77 68.4332C111.425 69.6779 111.227 70.9586 111.179 72.2492C111.131 73.5471 111.534 74.8214 112.32 75.8554C113.548 77.3341 115.596 77.7856 117.485 78.145C118.495 75.6242 118.8 72.8758 118.365 70.195C118.149 68.8944 117.729 67.5683 116.814 66.6207C116.133 65.9489 115.248 65.5221 114.299 65.407C113.349 65.2919 112.388 65.4951 111.567 65.9847" fill="#263238"/>
<path d="M112.819 74.5898C112.323 75.6647 112.358 76.9081 112.53 78.0878C112.702 79.2676 113.001 80.422 112.988 81.6049C112.975 82.7879 112.6 84.044 111.671 84.7849C111.39 84.9726 111.126 85.1855 110.883 85.4209C110.763 85.5404 110.683 85.6939 110.653 85.8607C110.623 86.0274 110.646 86.1992 110.717 86.3527C110.896 86.6389 111.433 86.6325 111.509 86.305L111.462 86.3876C111.415 86.4669 111.39 86.557 111.389 86.649C111.387 86.7411 111.411 86.8317 111.456 86.912C111.501 86.9922 111.566 87.0591 111.645 87.1061C111.725 87.153 111.815 87.1783 111.907 87.1795C112.232 87.1639 112.55 87.082 112.842 86.9387C113.134 86.7954 113.394 86.5938 113.605 86.3463C114.212 85.6435 114.454 84.6991 114.613 83.8023C115.103 80.9944 115.007 78.0783 115.783 75.3403" fill="#263238"/>
<path d="M102.036 93.0308C102.255 93.9873 102.677 94.8856 103.274 95.6645C103.871 96.4434 104.629 97.0848 105.495 97.5451C106.362 98.0055 107.317 98.2739 108.297 98.3323C109.277 98.3907 110.257 98.2376 111.172 97.8835C112.82 97.2475 114.149 96.0073 115.43 94.7957C115.66 96.1749 115.597 97.587 115.245 98.9403C114.894 100.294 114.261 101.558 113.39 102.651C112.518 103.744 111.426 104.642 110.185 105.286C108.944 105.93 107.582 106.306 106.186 106.39C104.078 106.517 101.814 105.875 100.488 104.231C99.5622 103.086 99.1901 101.569 99.2156 100.097C99.2798 98.6221 99.5606 97.1649 100.049 95.7719C100.424 94.5699 101.019 93.2279 102.233 92.894" fill="#007CFF"/>
<path d="M117.122 78.228C118.394 78.9117 119.074 80.3427 119.319 81.7546C119.564 83.1665 119.44 84.6166 119.501 86.0444C119.561 87.4722 119.834 88.9732 120.741 90.083C121.695 91.266 123.205 91.8257 124.557 92.5475C127.521 94.1375 129.963 96.8501 130.853 100.1C131.744 103.35 130.936 107.096 128.503 109.433C126.277 111.551 123.065 112.295 120 112.295C117.815 112.295 115.414 111.825 114.05 110.117C112.686 108.409 112.778 106.015 113.255 103.91C113.732 101.804 114.607 99.7598 114.642 97.6005C114.315 98.9373 113.746 100.203 112.963 101.334C112.737 101.652 112.352 102.002 112.009 101.817C111.665 101.633 111.77 101.038 111.948 100.641C114.581 94.7799 113.665 82.9662 115.227 76.4949" fill="#263238"/>
<path d="M114.953 77.5631C115.033 77.5376 118.108 76.9557 117.711 79.9958C117.313 83.0359 114.346 82.0119 114.352 81.926C114.359 81.8402 114.953 77.5631 114.953 77.5631Z" fill="#FFBE9D"/>
<path d="M115.43 80.8959C115.43 80.8959 115.478 80.9372 115.564 80.9913C115.683 81.0613 115.824 81.0829 115.958 81.0517C116.295 80.9754 116.632 80.4984 116.718 79.9546C116.758 79.6943 116.741 79.4284 116.667 79.1755C116.651 79.0767 116.611 78.9833 116.551 78.9035C116.49 78.8237 116.411 78.7598 116.321 78.7176C116.263 78.6973 116.201 78.6967 116.144 78.7157C116.086 78.7347 116.037 78.7723 116.003 78.8225C115.952 78.902 115.961 78.9656 115.945 78.9688C115.929 78.972 115.888 78.9084 115.926 78.7875C115.954 78.7141 116.005 78.6524 116.073 78.6126C116.12 78.5842 116.173 78.5659 116.227 78.5588C116.282 78.5517 116.338 78.5559 116.391 78.5713C116.512 78.6124 116.621 78.684 116.708 78.7791C116.794 78.8743 116.854 78.9899 116.883 79.1151C116.978 79.3954 117.003 79.6943 116.957 79.9864C116.858 80.597 116.47 81.128 116.003 81.198C115.918 81.2116 115.831 81.2057 115.749 81.181C115.667 81.1562 115.592 81.1131 115.529 81.0549C115.427 80.969 115.421 80.8991 115.43 80.8959Z" fill="#EB996E"/>
<path d="M98.8942 99.5817C99.0434 99.2571 99.2156 98.9437 99.4094 98.6436C99.8526 97.91 100.22 97.1333 100.507 96.3254C100.785 95.5168 100.878 94.6562 100.78 93.8068C100.718 93.4582 100.637 93.1132 100.538 92.7733C100.598 92.8507 100.644 92.9379 100.675 93.0309C100.779 93.2746 100.854 93.5297 100.898 93.7909C101.031 94.6588 100.952 95.5461 100.666 96.3763C100.377 97.1963 99.9893 97.978 99.5112 98.704C99.3331 98.9839 99.1932 99.2065 99.0755 99.3559C98.9578 99.5054 98.9038 99.5881 98.8942 99.5817Z" fill="#263238"/>
<path d="M100.443 96.0744C100.398 96.0744 100.312 95.8137 100.039 95.6324C99.7655 95.4511 99.492 95.4511 99.4856 95.4034C99.4792 95.3557 99.5524 95.3494 99.6764 95.3462C99.8408 95.3477 100.001 95.3999 100.134 95.4957C100.269 95.5897 100.373 95.7213 100.433 95.8741C100.475 95.9917 100.465 96.0681 100.443 96.0744Z" fill="#FAFAFA"/>
<path d="M102.408 96.0678C102.17 95.8001 101.908 95.5542 101.626 95.3333C101.313 95.158 100.982 95.0152 100.64 94.9071C100.829 94.8809 101.022 94.8931 101.207 94.9428C101.391 94.9925 101.564 95.0788 101.715 95.1965C102.051 95.3853 102.3 95.698 102.408 96.0678Z" fill="#FAFAFA"/>
<path d="M103.642 102.52C103.649 102.082 103.711 101.646 103.826 101.223C103.888 100.786 104.004 100.358 104.173 99.9507C104.166 100.39 104.104 100.827 103.989 101.251C103.927 101.687 103.81 102.113 103.642 102.52Z" fill="#FAFAFA"/>
<path d="M108.603 103.493C108.523 102.58 108.552 101.661 108.689 100.755C108.772 101.668 108.744 102.588 108.603 103.493Z" fill="#FAFAFA"/>
<path d="M7.31637 117.625L2.41281 138.979L12.7828 139.01L17.5719 120.232L7.31637 117.625Z" fill="#B78876"/>
<path d="M58.2407 91.3898C57.2549 90.0701 56.1228 88.8013 55.6045 87.2367C55.3533 86.4799 55.2547 85.6785 54.9876 84.9281C54.7205 84.1776 54.2339 83.4462 53.4898 83.1632C52.7457 82.8801 52.1796 83.1632 51.6963 83.6974L48.1379 94.1055L50.189 102.1C52.2369 101.639 54.8 101.092 56.7143 100.23C58.6287 99.3684 59.8943 97.9883 60.0279 95.8927C60.1201 94.2486 59.2265 92.7127 58.2407 91.3898Z" fill="#263238"/>
<path d="M25.8589 89.5522C25.8589 89.5522 13.4887 94.936 11.9432 97.3655C10.3978 99.795 5.30977 117.116 5.30977 117.116L18.3478 120.932L18.1252 138.966H50.0842L49.8202 107.166L45.8134 89.5936C45.8134 89.5936 38.757 89.1388 38.1019 88.8176C37.4469 88.4965 25.8589 89.5522 25.8589 89.5522Z" fill="#055EFF"/>
<path d="M69.8191 45.4738C69.9209 44.7455 69.4089 43.9442 69.7778 43.305C70.0217 42.9756 70.3705 42.739 70.7667 42.634C70.9587 42.5463 71.1663 42.4976 71.3773 42.4909C71.4825 42.4892 71.5859 42.5185 71.6747 42.575C71.7634 42.6315 71.8336 42.7129 71.8766 42.8089C71.8995 42.9305 71.8887 43.0561 71.8456 43.1721C71.8025 43.2881 71.7285 43.3901 71.6317 43.4672C71.4379 43.6194 71.275 43.8072 71.1515 44.0205C71.0652 44.5439 71.1055 45.0804 71.2692 45.5851C71.6928 46.6955 72.0444 47.832 72.3218 48.9877" fill="#B78876"/>
<path d="M67.2085 45.7219C67.253 44.6185 68.1625 40.2714 68.1943 39.168C68.9416 39.3969 69.3741 40.1919 69.514 40.9615C69.6539 41.731 69.5808 42.5229 69.7143 43.2924C69.8924 44.3259 70.4298 45.2577 70.9704 46.1544C71.511 47.0512 72.0771 47.9638 72.3219 48.9814C72.5668 49.999 73.489 52.6448 72.7703 53.408" fill="#B78876"/>
<path d="M67.0016 53.163L62.5782 74.1764C62.4224 75.1304 45.8132 89.6153 45.8132 89.6153L49.0918 102.714L70.7158 81.5572C72.2771 79.888 73.1269 77.6764 73.0849 75.3912L72.716 55.6752L67.0016 53.163Z" fill="#B78876"/>
<path d="M66.2449 45.8555L67.0017 53.1695L72.7257 55.6881C72.7257 55.6881 72.7957 55.1697 73.0437 52.6353C73.314 49.8432 70.3121 48.6444 68.9733 46.5933C68.4009 45.7124 68.5504 44.0906 68.1083 42.0808C68.0575 41.8487 67.7395 40.4431 67.5677 39.6895C67.4774 39.2707 67.232 38.9015 66.8809 38.656C66.6201 38.4843 66.3276 38.3984 66.1145 38.656C65.9014 38.9136 66.2449 45.8555 66.2449 45.8555Z" fill="#B78876"/>
<path d="M69.8194 54.3779C70.4554 53.8278 70.608 52.842 70.3695 52.0247C70.0775 51.22 69.6167 50.487 69.018 49.8751C68.4201 49.2646 67.9174 48.5679 67.5266 47.8081C67.2849 47.2611 67.1704 46.6569 66.8906 46.1195C66.6108 45.5821 66.1369 45.0892 65.5391 45.0669C66.0193 48.0911 66.0066 49.8369 66.9892 53.1505" fill="#B78876"/>
<path d="M66.1337 48.52C66.1337 48.52 66.1114 48.4374 66.0764 48.2784C66.0415 48.1194 65.981 47.8554 65.9238 47.5851C65.7871 46.9491 65.6058 46.1382 65.4182 45.2065L65.3991 45.1174H65.4913C65.6871 45.1103 65.8823 45.142 66.0657 45.2108C66.2491 45.2796 66.417 45.384 66.5598 45.5181C66.9964 45.9336 67.3072 46.4637 67.4565 47.0477C67.5834 47.5016 67.7505 47.9432 67.9558 48.3674C68.1114 48.646 68.2993 48.9054 68.5155 49.1401C68.5944 49.2303 68.6588 49.3322 68.7063 49.4422C68.6192 49.3616 68.5385 49.2744 68.4646 49.1815C68.2279 48.9579 68.0225 48.7033 67.854 48.4246C67.6294 47.9991 67.4462 47.5529 67.3071 47.0922C67.1592 46.5375 66.8623 46.0338 66.4485 45.6358C66.1906 45.3937 65.8481 45.2625 65.4945 45.2701L65.5708 45.1747C65.9556 47.089 66.2036 48.5232 66.1337 48.52Z" fill="#7C5142"/>
<path d="M68.7062 46.6598C68.4754 45.676 68.2992 44.6802 68.1783 43.677C68.0017 42.6816 67.8796 41.6774 67.8126 40.6687C68.0451 41.6532 68.2213 42.6502 68.3405 43.6547C68.5171 44.649 68.6391 45.6522 68.7062 46.6598Z" fill="#7C5142"/>
<path d="M70.5286 46.908C70.5286 46.908 70.5509 46.9398 70.5699 47.0193H70.5223C70.2858 46.3389 70.0925 45.6443 69.9435 44.9396C69.8067 44.3258 69.7082 43.7661 69.6478 43.3496C69.5986 43.1316 69.5794 42.908 69.5905 42.6849C69.6382 42.6849 69.8322 43.6739 70.1057 44.9109C70.3251 45.8999 70.5286 46.7331 70.5699 47.0129H70.5223C70.5191 46.9461 70.5191 46.908 70.5286 46.908Z" fill="#7C5142"/>
<path d="M71.6572 50.9368C71.6317 50.9368 71.5173 50.7714 71.2883 50.5266C70.6834 49.8839 69.8623 49.4875 68.9828 49.4136C68.7988 49.4152 68.615 49.4035 68.4327 49.3786C68.6087 49.3103 68.7977 49.2821 68.986 49.2959C69.4443 49.3017 69.8958 49.408 70.3084 49.6075C70.7211 49.807 71.0849 50.0947 71.3742 50.4502C71.5044 50.5887 71.6012 50.7551 71.6572 50.9368Z" fill="#7C5142"/>
<path d="M67.5198 53.7418C67.3625 53.4682 67.2356 53.1781 67.1414 52.8769C66.88 52.1633 66.6613 51.4349 66.4863 50.6954C66.3084 49.9621 66.1746 49.2187 66.0857 48.4694C66.0336 48.1542 66.0145 47.8345 66.0284 47.5154C66.1082 47.8192 66.1656 48.1285 66.2001 48.4408C66.2955 49.01 66.4418 49.7986 66.6453 50.6668C66.8489 51.5349 67.0778 52.2949 67.2527 52.8482C67.3624 53.1395 67.4517 53.4381 67.5198 53.7418Z" fill="#7C5142"/>
<path d="M41.9305 89.9939C42.2139 89.56 42.6534 89.2519 43.1579 89.1335C43.6624 89.015 44.1931 89.0954 44.6399 89.3579C46.974 87.4499 49.3622 85.5991 51.6963 83.7007C50.9331 87.5167 50.4243 92.8368 52.132 96.3285C52.132 96.3285 54.2848 100.329 57.7129 99.7183L54.6537 102.714L49.8297 107.188" fill="#055EFF"/>
<path d="M41.1737 91.7745C41.1773 91.2625 41.3334 90.7632 41.6221 90.3403C41.8658 89.8887 42.2375 89.5192 42.6905 89.2782C41.972 89.9607 41.4484 90.8224 41.1737 91.7745Z" fill="#263238"/>
<path d="M43.6955 94.1276C43.5631 93.9156 43.4725 93.6803 43.4284 93.4343C43.2911 92.8446 43.2747 92.2331 43.3802 91.6368C43.4857 91.0406 43.7109 90.4718 44.0421 89.965C44.1684 89.7481 44.3346 89.5572 44.5318 89.4021C44.5541 89.4212 44.3697 89.6374 44.1439 90.0381C43.8502 90.5451 43.6468 91.0992 43.5429 91.6758C43.4433 92.2535 43.4433 92.8439 43.5429 93.4216C43.6224 93.835 43.721 94.1021 43.6955 94.1276Z" fill="#263238"/>
<path d="M55.3791 102.294C55.1444 102.44 54.8878 102.548 54.6191 102.612C53.8844 102.789 53.1157 102.766 52.3931 102.545C51.3227 102.206 50.3862 101.538 49.7155 100.637C48.9099 99.5329 48.3662 98.2595 48.1255 96.9137C47.6764 94.4903 47.5481 92.0184 47.7439 89.5616C47.817 88.6076 47.922 87.8634 48.011 87.3356C48.0524 87.0748 48.0905 86.8745 48.1191 86.7377C48.129 86.6673 48.1461 86.598 48.17 86.531C48.1722 86.6025 48.1658 86.6741 48.1509 86.7441L48.0746 87.3451C48.0078 87.8666 47.9188 88.6171 47.8616 89.5711C47.6989 92.0173 47.842 94.4743 48.2877 96.8851C48.5258 98.1961 49.0526 99.4377 49.83 100.52C50.473 101.411 51.3794 102.079 52.4217 102.428C53.1254 102.655 53.8759 102.695 54.6 102.545C54.865 102.479 55.1253 102.395 55.3791 102.294Z" fill="#FAFAFA"/>
<path d="M18.408 126.3C18.3635 126.3 18.3254 121.778 18.3254 116.203C18.3254 110.629 18.3635 106.107 18.408 106.107C18.4526 106.107 18.4907 110.626 18.4907 116.203C18.4907 121.781 18.4557 126.3 18.408 126.3Z" fill="#263238"/>
<path d="M18.1534 102.618C18.1184 102.618 18.128 102.167 17.9721 101.464C17.8793 101.053 17.7462 100.653 17.5746 100.268C17.3609 99.8004 17.0976 99.3569 16.7892 98.9453C16.4722 98.5395 16.113 98.1686 15.7175 97.8387C15.392 97.5726 15.0416 97.3383 14.6713 97.1391C14.0353 96.8052 13.5933 96.6939 13.6028 96.6621C13.7114 96.6677 13.8185 96.6891 13.9208 96.7257C14.0414 96.7557 14.1594 96.7951 14.2738 96.8434C14.4298 96.8971 14.5818 96.962 14.7285 97.0373C15.1106 97.2243 15.471 97.4525 15.8034 97.7179C16.2116 98.0512 16.5817 98.4288 16.9068 98.8436C17.2242 99.2657 17.491 99.7236 17.7018 100.208C17.875 100.604 18.0041 101.017 18.0866 101.442C18.1193 101.603 18.1416 101.767 18.1534 101.931C18.1683 102.055 18.1746 102.179 18.1725 102.303C18.1783 102.409 18.1719 102.514 18.1534 102.618Z" fill="#263238"/>
<path d="M39.9337 89.4119C39.9601 89.5001 39.9782 89.5906 39.9878 89.6822C40.0307 89.94 40.0583 90.2002 40.0705 90.4613C40.1085 91.4261 39.9739 92.3899 39.673 93.3074C39.2249 94.6755 38.4307 95.9046 37.3675 96.8753C36.0339 98.0407 34.3592 98.7435 32.5934 98.8788C30.8276 99.014 29.0654 98.5745 27.5699 97.6258C26.3744 96.8258 25.4061 95.7304 24.7588 94.4458C24.3252 93.5836 24.0485 92.6511 23.9415 91.6919C23.9157 91.432 23.904 91.1708 23.9065 90.9096C23.8989 90.8186 23.8989 90.7272 23.9065 90.6362C23.9215 90.7255 23.9289 90.8159 23.9288 90.9065C23.937 91.166 23.9582 91.425 23.9924 91.6824C24.1227 92.6277 24.413 93.5439 24.851 94.3917C25.4998 95.6504 26.4599 96.7221 27.6399 97.505C29.1083 98.4283 30.834 98.8564 32.5637 98.7265C34.2934 98.5965 35.9358 97.9154 37.2498 96.7831C38.3014 95.8324 39.0919 94.6281 39.5458 93.2851C39.8505 92.3807 40.001 91.4315 39.991 90.4772C39.991 90.1401 39.9624 89.8793 39.9369 89.7012C39.9115 89.5232 39.9306 89.415 39.9337 89.4119Z" fill="#263238"/>
<path d="M18.1348 117.002C18.1348 117.046 15.4922 116.216 12.2677 115.151C9.04318 114.086 6.43876 113.186 6.45466 113.141C6.47056 113.097 9.09406 113.927 12.3218 114.992C15.5495 116.057 18.1475 116.957 18.1348 117.002Z" fill="#FAFAFA"/>
<path d="M49.5115 112.588C49.5115 112.635 42.4996 112.702 33.85 112.737C25.2004 112.772 18.1854 112.766 18.1854 112.737C18.1854 112.708 25.1973 112.623 33.85 112.588C42.5028 112.553 49.5115 112.543 49.5115 112.588Z" fill="#FAFAFA"/>
<path d="M49.6705 115.357C49.6705 115.402 42.6205 115.44 33.9295 115.44C25.2386 115.44 18.1854 115.402 18.1854 115.357C18.1854 115.313 25.2322 115.275 33.9295 115.275C42.6268 115.275 49.6705 115.31 49.6705 115.357Z" fill="#FAFAFA"/>
<path d="M45.3522 118.722C45.3307 118.81 45.3009 118.897 45.2632 118.979C45.1932 119.157 45.0978 119.399 44.9801 119.704L44.7703 120.226C44.6876 120.417 44.589 120.617 44.4872 120.836C44.2774 121.269 44.0611 121.771 43.759 122.299L43.3011 123.132C43.1421 123.422 42.9513 123.708 42.7669 124.013C42.4043 124.627 41.9591 125.244 41.4949 125.902C40.4623 127.301 39.3248 128.619 38.0923 129.845C36.8422 131.055 35.5016 132.167 34.0823 133.172C33.4145 133.617 32.788 134.053 32.1743 134.402C31.8563 134.58 31.5764 134.765 31.2839 134.921L30.4316 135.36C29.9006 135.649 29.3918 135.859 28.9561 136.059C28.7367 136.155 28.5332 136.25 28.3424 136.329L27.8145 136.53L27.0863 136.8C27.0023 136.836 26.9149 136.864 26.8255 136.883C26.9049 136.838 26.9879 136.8 27.0736 136.768L27.7922 136.469L28.3106 136.256C28.5014 136.174 28.7017 136.075 28.918 135.973C29.3504 135.767 29.8529 135.55 30.3776 135.255L31.2139 134.809C31.5033 134.65 31.7927 134.463 32.098 134.285C32.7117 133.932 33.3318 133.493 34.006 133.048C36.8385 131.049 39.3298 128.606 41.3836 125.813C41.8447 125.161 42.293 124.541 42.6556 123.94C42.8432 123.638 43.0372 123.355 43.1993 123.069L43.6605 122.242C43.9785 121.724 44.1915 121.224 44.4077 120.795C44.5127 120.579 44.6176 120.382 44.7035 120.194C44.7894 120.007 44.8593 119.835 44.9261 119.679C45.0565 119.38 45.1614 119.145 45.2441 118.967C45.2759 118.883 45.312 118.802 45.3522 118.722Z" fill="#263238"/>
<g opacity="0.3">
<path opacity="0.3" d="M44.0612 121.476C41.9242 124.077 39.6855 125.963 36.5468 127.178C35.0427 127.756 33.4686 128.154 32.0121 128.844C30.5557 129.534 29.1819 130.574 28.5141 132.046C28.0085 133.185 28.2534 134.908 29.4681 135.156C29.9401 135.214 30.4188 135.14 30.8514 134.943C37.0683 132.689 41.1546 126.993 44.0421 121.476" fill="black"/>
</g>
<path d="M21.8232 64.8973C20.4812 65.9499 20.3922 67.9183 20.459 69.6228C20.5257 71.3273 20.5448 73.2671 19.3014 74.4437C18.2838 75.4136 16.503 75.7729 16.2105 77.1499C16.1364 77.4743 16.166 77.8138 16.2951 78.1205C16.4242 78.4272 16.6463 78.6857 16.93 78.8595C17.2138 79.0333 17.5449 79.1137 17.8768 79.0894C18.2087 79.0651 18.5245 78.9373 18.7799 78.724C18.3474 79.802 18.5446 81.1821 19.4636 81.904C20.3826 82.6258 21.9885 82.2824 22.3256 81.1758C22.2735 81.3588 22.2592 81.5506 22.2834 81.7394C22.3076 81.9282 22.3699 82.1101 22.4666 82.2741C22.5632 82.4381 22.6922 82.5807 22.8456 82.6934C22.999 82.8061 23.1737 82.8864 23.3591 82.9295C23.5445 82.9726 23.7368 82.9776 23.9242 82.9442C24.1116 82.9108 24.2902 82.8397 24.4493 82.7352C24.6084 82.6307 24.7446 82.4949 24.8496 82.3362C24.9547 82.1775 25.0264 81.999 25.0604 81.8118" fill="#263238"/>
<path d="M41.2978 77.2389C41.3617 77.4623 41.4709 77.6701 41.6186 77.8495C41.7663 78.0289 41.9492 78.176 42.1562 78.2817C42.3631 78.3874 42.5895 78.4494 42.8214 78.4639C43.0533 78.4785 43.2857 78.4451 43.5041 78.366C43.7226 78.287 43.9225 78.1638 44.0914 78.0042C44.2602 77.8446 44.3945 77.652 44.4858 77.4384C44.5771 77.2247 44.6235 76.9946 44.6221 76.7622C44.6207 76.5299 44.5716 76.3003 44.4778 76.0878C44.2138 75.4263 43.5238 74.9271 43.5079 74.2179C43.4665 73.3593 44.3697 72.7901 45.1615 72.4562C45.9533 72.1223 46.8818 71.6771 47.0059 70.828C47.1299 69.979 46.4208 69.3271 45.8293 68.7451C45.2378 68.1632 44.6686 67.2792 45.0852 66.5605C45.2982 66.1948 45.7212 65.9976 45.9946 65.6764C46.6116 64.9641 46.3635 63.7684 45.6512 63.1611C44.9389 62.5537 43.9181 62.4138 42.9864 62.5251C42.0546 62.6364 41.1642 62.9862 40.2516 63.2119C38.7381 63.5772 37.1654 63.6245 35.6328 63.3508C34.1002 63.0771 32.641 62.4884 31.3475 61.6219" fill="#263238"/>
<path d="M22.7361 71.4544L26.0083 90.4199C26.1439 91.2137 26.4352 91.9728 26.8656 92.6534C27.2959 93.3341 27.8566 93.9228 28.5155 94.3857C29.1745 94.8487 29.9185 95.1766 30.7047 95.3506C31.4909 95.5247 32.3038 95.5414 33.0965 95.3998C34.5985 95.1308 35.9453 94.3092 36.8718 93.0967C37.7982 91.8843 38.237 90.3689 38.1019 88.849C37.9524 87.1668 37.8252 85.774 37.8252 85.774C37.8252 85.774 42.5761 84.5528 42.1659 79.7319C41.9656 77.3978 41.1674 72.6247 40.3915 68.3126C39.9892 66.0807 38.7614 64.0822 36.9524 62.7145C35.1434 61.3469 32.8858 60.7104 30.6289 60.9318L30.1646 60.9763C28.9818 61.1617 27.8482 61.5821 26.8306 62.2127C25.813 62.8433 24.9319 63.6714 24.2396 64.648C23.5472 65.6247 23.0574 66.7301 22.7992 67.8991C22.541 69.0681 22.5195 70.277 22.7361 71.4544Z" fill="#B78876"/>
<path d="M39.3769 71.4256C39.3976 71.6051 39.3469 71.7854 39.2356 71.9277C39.1243 72.0699 38.9614 72.1626 38.7823 72.1857C38.6955 72.2016 38.6063 72.1998 38.5202 72.1806C38.4341 72.1614 38.3527 72.125 38.2809 72.0737C38.2091 72.0223 38.1484 71.9571 38.1023 71.8818C38.0562 71.8066 38.0258 71.7228 38.0127 71.6355C37.992 71.4561 38.0428 71.2757 38.1541 71.1335C38.2654 70.9913 38.4282 70.8986 38.6074 70.8755C38.6942 70.8596 38.7833 70.8613 38.8694 70.8806C38.9556 70.8998 39.0369 70.9362 39.1087 70.9875C39.1805 71.0388 39.2413 71.1041 39.2873 71.1793C39.3334 71.2546 39.3639 71.3384 39.3769 71.4256Z" fill="#263238"/>
<path d="M39.587 70.7675C39.5107 70.8629 38.951 70.529 38.21 70.6022C37.4691 70.6753 36.9603 71.1014 36.8713 71.0187C36.8299 70.9806 36.8999 70.812 37.1193 70.6149C37.4188 70.3607 37.79 70.2062 38.1814 70.1729C38.5666 70.1345 38.954 70.2191 39.2881 70.4145C39.5329 70.5672 39.6251 70.723 39.587 70.7675Z" fill="#263238"/>
<path d="M32.1264 72.275C32.1445 72.4541 32.0922 72.6332 31.9807 72.7745C31.8691 72.9157 31.7069 73.008 31.5285 73.0319C31.4418 73.0473 31.3528 73.0453 31.2668 73.0258C31.1809 73.0064 31.0997 72.97 31.028 72.9188C30.9563 72.8675 30.8956 72.8025 30.8494 72.7274C30.8032 72.6524 30.7724 72.5688 30.759 72.4817C30.7399 72.3026 30.7914 72.1231 30.9024 71.9813C31.0134 71.8394 31.1752 71.7463 31.3536 71.7217C31.4408 71.7063 31.5302 71.7084 31.6166 71.728C31.7029 71.7476 31.7845 71.7843 31.8564 71.8358C31.9284 71.8873 31.9894 71.9527 32.0357 72.0282C32.0821 72.1036 32.1129 72.1875 32.1264 72.275Z" fill="#263238"/>
<path d="M32.3141 71.6132C32.2378 71.7118 31.6781 71.3779 30.9372 71.451C30.1963 71.5242 29.6906 71.9503 29.5984 71.8676C29.5571 71.8295 29.627 71.6609 29.8465 71.4638C30.1466 71.2107 30.5175 71.0563 30.9086 71.0217C31.2938 70.9818 31.6817 71.0665 32.0152 71.2634C32.2601 71.4161 32.3396 71.5719 32.3141 71.6132Z" fill="#263238"/>
<path d="M35.542 76.8509C35.542 76.8063 35.9872 76.6823 36.7217 76.5138C36.9094 76.4756 37.0874 76.4216 37.1065 76.288C37.1012 76.0918 37.0381 75.9016 36.9253 75.741L36.2225 74.3546C35.2462 72.3766 34.5212 70.7453 34.6007 70.7071C34.6802 70.6689 35.5356 72.2399 36.5087 74.2051L37.186 75.6043C37.3269 75.8205 37.3867 76.0796 37.3546 76.3357C37.3355 76.4071 37.2999 76.4731 37.2508 76.5283C37.2016 76.5835 37.1402 76.6264 37.0715 76.6537C36.9688 76.6913 36.8621 76.7169 36.7535 76.73C36.3561 76.8194 35.9492 76.8599 35.542 76.8509Z" fill="#263238"/>
<path d="M32.2222 68.688C32.1681 68.8979 31.4208 68.8724 30.5622 69.0632C29.7036 69.254 29.0199 69.5593 28.8895 69.3812C28.8291 69.3017 28.9309 69.0982 29.2075 68.8756C29.5607 68.5966 29.9747 68.4049 30.4159 68.316C30.856 68.219 31.3128 68.2289 31.7483 68.3446C32.0695 68.4495 32.2444 68.5926 32.2222 68.688Z" fill="#263238"/>
<path d="M39.1069 68.6464C38.9924 68.8277 38.4709 68.7037 37.8349 68.7545C37.1989 68.8054 36.7123 68.9803 36.5629 68.8149C36.5024 68.7354 36.5629 68.5574 36.7791 68.3761C37.064 68.1509 37.4118 68.0198 37.7744 68.0009C38.1357 67.9714 38.4972 68.0559 38.8079 68.2426C39.0655 68.3952 39.1546 68.5605 39.1069 68.6464Z" fill="#263238"/>
<path d="M27.4552 65.6542L27.4297 65.6796C26.7211 66.3597 26.3019 67.2868 26.2595 68.2681C26.2595 68.3031 26.2595 68.3381 26.2595 68.3667C26.2054 69.7627 26.374 71.1587 26.3072 72.5516C26.2404 73.9444 25.9001 75.3881 24.9748 76.4344C24.5963 76.8637 23.884 77.2039 23.4961 76.781C23.3611 76.6028 23.2795 76.39 23.2607 76.1672C22.682 72.8728 21.4863 70.0139 21.1556 66.5382C21.1081 66.0734 21.1726 65.604 21.3435 65.1692C21.5144 64.7344 21.7869 64.3468 22.1382 64.0387C22.8124 63.4441 23.6487 62.8176 24.4946 63.1229C25.3405 63.4282 26.533 64.8369 27.223 65.4157" fill="#263238"/>
<path d="M24.574 73.4771C24.4881 73.4517 21.165 72.822 21.5912 76.107C22.0173 79.3919 25.2291 78.2884 25.2227 78.193C25.2164 78.0976 24.574 73.4771 24.574 73.4771Z" fill="#B78876"/>
<path d="M24.0717 77.0798C24.0717 77.0798 24.0208 77.1275 23.9286 77.1816C23.8655 77.2202 23.7953 77.246 23.7222 77.2574C23.6491 77.2689 23.5744 77.2658 23.5025 77.2484C23.14 77.1657 22.7743 76.6505 22.6821 76.0622C22.6369 75.7808 22.6554 75.4929 22.7361 75.2195C22.7542 75.1128 22.7978 75.012 22.8631 74.9256C22.9284 74.8393 23.0136 74.7699 23.1114 74.7235C23.1748 74.6986 23.2449 74.6964 23.3098 74.7172C23.3747 74.7381 23.4304 74.7807 23.4675 74.8379C23.5248 74.9238 23.512 74.9938 23.5311 74.9969C23.5502 75.0001 23.5947 74.9333 23.5502 74.7998C23.5214 74.7203 23.4665 74.653 23.3944 74.609C23.2974 74.5556 23.1838 74.5408 23.0764 74.5676C22.9446 74.6122 22.8264 74.6895 22.7329 74.7925C22.6394 74.8954 22.5738 75.0205 22.5421 75.1559C22.4388 75.4628 22.4115 75.7902 22.4626 76.1099C22.5708 76.7682 22.9905 77.3438 23.4834 77.4201C23.575 77.435 23.6687 77.4286 23.7575 77.4016C23.8462 77.3746 23.9276 77.3276 23.9954 77.2643C24.0717 77.1593 24.0717 77.083 24.0717 77.0798Z" fill="#7C5142"/>
<path d="M24.4278 63.644C23.4738 62.4038 25.528 60.2923 27.1053 59.6213C28.6826 58.9504 30.9054 59.5323 32.5781 59.9107C33.6307 60.1524 34.696 60.5245 35.7581 60.375C36.4703 60.2327 37.1573 59.9851 37.7965 59.6404C38.435 59.29 39.1384 59.0736 39.8635 59.0044C40.2267 58.9768 40.5905 59.049 40.9156 59.2132C41.2407 59.3774 41.5146 59.6274 41.7079 59.9362C42.045 60.5722 41.7429 61.5262 41.0369 61.7011C41.254 61.5517 41.5042 61.4572 41.7659 61.4258C42.0275 61.3944 42.2929 61.427 42.5392 61.5208C42.7856 61.6146 43.0054 61.7668 43.1799 61.9643C43.3544 62.1618 43.4784 62.3987 43.5412 62.6547C43.6039 62.9107 43.6036 63.1781 43.5402 63.4339C43.4768 63.6897 43.3523 63.9263 43.1773 64.1234C43.0023 64.3205 42.7821 64.4721 42.5356 64.5653C42.289 64.6585 42.0236 64.6905 41.7619 64.6585C42.1976 64.2578 42.9735 64.7761 42.9735 65.3644C42.9735 65.9527 42.4806 66.4361 41.9655 66.7255C40.6489 67.4632 39.0271 67.4251 37.558 67.0848C36.0888 66.7445 34.696 66.1308 33.2332 65.7492C31.7704 65.3676 29.3186 64.6807 27.9512 65.3199C26.9463 65.7874 26.3421 67.1134 25.7252 66.9099C25.4333 66.7887 25.1739 66.6007 24.9679 66.361C24.7618 66.1213 24.615 65.8366 24.5391 65.5298C24.397 64.913 24.3562 64.2771 24.4182 63.6472" fill="#263238"/>
<path d="M24.6156 74.0397C24.6566 75.7863 24.8567 77.5256 25.2135 79.2358C25.57 80.9521 26.3842 82.5399 27.5699 83.8309C29.1599 85.4623 31.2459 87.0109 33.5037 87.3957C35.9682 87.8028 38.9829 87.2876 40.9894 85.8057C41.9434 85.1029 42.6335 83.5797 42.3378 82.4286C42.7417 82.238 43.0873 81.9429 43.3389 81.5739C43.5905 81.2049 43.7389 80.7754 43.7688 80.3298C43.8196 79.4394 43.2759 78.3264 42.5731 78.2087C43.101 78.1197 43.2536 77.2801 43.0533 76.8063C42.8529 76.3325 42.1565 76.1894 41.6286 76.2912C41.1069 76.4277 40.6216 76.6775 40.2072 77.0226C39.7951 77.3681 39.3302 77.6451 38.8302 77.843C37.1258 78.3963 35.399 76.889 33.6087 76.9621C31.9901 77.0257 30.5495 78.3709 28.9436 78.1451C28.4978 78.0601 28.0749 77.8823 27.7023 77.6232C27.3298 77.364 27.0159 77.0294 26.7812 76.641C26.2851 75.8809 26.5014 73.073 26.3074 72.189" fill="#263238"/>
<g opacity="0.6">
<path opacity="0.6" d="M37.6058 81.6113C37.4718 81.58 37.34 81.5396 37.2115 81.4904C36.9 81.4014 36.5723 81.3851 36.2535 81.443C35.9348 81.5009 35.6337 81.6314 35.3735 81.8243C35.1699 81.9706 35.0555 82.0883 35.0555 82.0724C35.0555 82.0565 35.1191 81.9165 35.313 81.7544C35.5742 81.5244 35.8933 81.3703 36.2358 81.3086C36.5782 81.247 36.931 81.2802 37.256 81.4046C37.4913 81.4841 37.6154 81.5954 37.6058 81.6113Z" fill="#455A64"/>
</g>
<path d="M34.1239 77.9571C34.2447 77.938 34.3242 78.7426 35.0779 79.2291C35.8315 79.7157 36.6679 79.563 36.687 79.6743C36.7029 79.722 36.5121 79.8492 36.1495 79.8937C35.6798 79.9489 35.2056 79.8362 34.8108 79.5757C34.4326 79.3232 34.1679 78.933 34.073 78.4882C33.9999 78.1638 34.0698 77.9571 34.1239 77.9571Z" fill="white"/>
<path d="M31.7325 86.8581C31.8045 86.8745 31.8739 86.9002 31.9392 86.9344C32.076 86.9853 32.2763 87.0553 32.5403 87.1284C33.2882 87.3306 34.0559 87.4511 34.8299 87.4877C35.3599 87.519 35.8915 87.5083 36.4199 87.4559C37.0292 87.4014 37.6313 87.2842 38.2166 87.1062C38.8628 86.9132 39.4792 86.6317 40.0482 86.2698C40.6671 85.8965 41.2071 85.4061 41.6382 84.8261C42.1504 84.1431 42.3783 83.2884 42.2742 82.4411V82.3743L42.3315 82.3489C42.727 82.165 43.0695 81.8838 43.3268 81.5316C43.4516 81.3654 43.5583 81.1863 43.6448 80.9974C43.7208 80.8139 43.768 80.6197 43.7847 80.4218C43.8194 80.0635 43.7682 79.7022 43.6355 79.3677C43.5028 79.0331 43.2923 78.735 43.0215 78.4979L42.9738 78.4597L43.012 78.412C43.1554 78.23 43.249 78.0138 43.2836 77.7846C43.3182 77.5555 43.2925 77.3213 43.2092 77.105C43.1438 76.9411 43.045 76.7925 42.9191 76.6687C42.7932 76.545 42.6429 76.4488 42.4778 76.3864C42.267 76.3022 42.0389 76.2705 41.8131 76.2941C41.6573 76.3132 41.581 76.3418 41.5778 76.3323C41.6512 76.2974 41.7295 76.2738 41.81 76.2623C42.112 76.2134 42.4218 76.2658 42.691 76.4113C42.9602 76.5568 43.1737 76.7873 43.2982 77.0669C43.3924 77.3 43.4243 77.5537 43.3908 77.8029C43.3574 78.0521 43.2597 78.2883 43.1074 78.4883V78.4025C43.3979 78.6505 43.625 78.9642 43.7699 79.3177C43.9149 79.6711 43.9733 80.054 43.9406 80.4345C43.9243 80.653 43.8739 80.8676 43.7911 81.0705C43.6989 81.2698 43.587 81.4594 43.4572 81.6365C43.1865 82.0141 42.8228 82.3154 42.4014 82.511L42.4491 82.4157C42.5768 83.3062 42.3483 84.2111 41.8131 84.9342C41.3693 85.5313 40.813 86.0358 40.1754 86.4193C39.5949 86.7887 38.964 87.0726 38.3024 87.262C37.7068 87.441 37.0939 87.5561 36.4739 87.6054C35.9352 87.6481 35.394 87.6481 34.8553 87.6054C34.0753 87.5566 33.3037 87.4168 32.5562 87.1888C32.3535 87.1258 32.1549 87.0504 31.9615 86.963C31.8816 86.9364 31.8049 86.9012 31.7325 86.8581Z" fill="#455A64"/>
<path d="M17.3172 78.466C17.2563 78.4493 17.1991 78.4213 17.1486 78.3834C17.0053 78.2761 16.8951 78.1306 16.8306 77.9636C16.7232 77.6949 16.6999 77.3999 16.7638 77.1177C16.8642 76.7441 17.0884 76.4155 17.3998 76.186C17.7657 75.9102 18.1738 75.6954 18.6082 75.55C19.0951 75.397 19.5659 75.1967 20.0138 74.9521C20.4851 74.6538 20.8545 74.219 21.0727 73.7056C21.3121 73.1531 21.4397 72.5586 21.448 71.9566C21.4734 70.7132 21.1872 69.5334 21.1554 68.4363C21.1236 67.3392 21.3144 66.3153 21.8137 65.6284C22.1876 65.0777 22.7554 64.6883 23.4037 64.5376C23.5795 64.5026 23.7596 64.494 23.9379 64.5122C24.0002 64.5194 24.0618 64.5311 24.1224 64.5472C23.8868 64.5359 23.6507 64.5541 23.4196 64.6012C22.7947 64.7663 22.2524 65.1557 21.8964 65.6952C21.4321 66.363 21.2381 67.3551 21.2953 68.43C21.3526 69.5048 21.6133 70.6846 21.6133 71.9629C21.6001 72.5879 21.4628 73.2041 21.2095 73.7755C20.9757 74.3172 20.5818 74.7744 20.0806 75.0857C19.6204 75.3348 19.1355 75.5352 18.6337 75.6835C18.2116 75.817 17.8134 76.0167 17.4539 76.275C17.1586 76.4841 16.9424 76.7866 16.8402 77.1336C16.7709 77.3982 16.7831 77.6775 16.8751 77.935C16.959 78.1564 17.1146 78.3434 17.3172 78.466Z" fill="#455A64"/>
<path d="M41.1578 61.6474C41.2029 61.62 41.2509 61.5976 41.3009 61.5806C41.3613 61.5537 41.4241 61.5324 41.4885 61.517C41.5748 61.4916 41.6631 61.4735 41.7524 61.463C42.0492 61.4307 42.3494 61.4663 42.6304 61.5671C42.9113 61.6679 43.1657 61.8313 43.3742 62.0449C43.5827 62.3246 43.7337 62.6429 43.8183 62.9813C43.9029 63.3198 43.9195 63.6716 43.8671 64.0165C43.8047 64.4443 43.6572 64.8552 43.4332 65.225C43.2093 65.5948 42.9135 65.9159 42.5633 66.1694C41.757 66.7564 40.7935 67.0887 39.7967 67.1234C38.7162 67.1659 37.6352 67.0502 36.5881 66.78C34.9248 66.3717 33.3466 65.6731 31.9262 64.7161C31.319 64.2987 30.6812 63.9277 30.0182 63.6063C29.4375 63.3376 28.8123 63.1781 28.1738 63.1357C27.2438 63.0714 26.3126 63.2443 25.4676 63.6381C24.873 63.9179 24.59 64.1596 24.5772 64.1405C24.8384 63.9157 25.1282 63.7265 25.439 63.5777C26.289 63.1573 27.2334 62.9645 28.1802 63.018C28.8393 63.0518 29.4864 63.2082 30.0882 63.4791C30.7607 63.7998 31.4081 64.1708 32.0248 64.5889C33.4351 65.5269 34.9974 66.2134 36.6422 66.6178C37.6731 66.8884 38.7378 67.0083 39.8031 66.9739C40.7695 66.9401 41.7043 66.6215 42.4902 66.0581C42.8275 65.8168 43.1137 65.511 43.332 65.1584C43.5503 64.8058 43.6966 64.4133 43.7622 64.0038C43.8182 63.6723 43.808 63.3331 43.7321 63.0056C43.6563 62.6781 43.5162 62.3689 43.3202 62.0958C43.1229 61.889 42.8823 61.7285 42.6156 61.6257C42.349 61.5229 42.0629 61.4803 41.7779 61.5011C41.5677 61.5339 41.3604 61.5828 41.1578 61.6474Z" fill="#455A64"/>
<path d="M39.4725 58.8457C39.4721 59.096 39.4213 59.3437 39.323 59.5739C39.0473 60.2066 38.5683 60.7292 37.962 61.059C37.5526 61.2972 37.1032 61.4589 36.6359 61.536C36.1003 61.6141 35.5561 61.6141 35.0205 61.536C33.8852 61.3929 32.7118 60.9477 31.4779 60.5629C30.2441 60.1781 29.0007 59.9492 27.9068 60.1845C26.9375 60.3962 26.0596 60.9081 25.3978 61.6473C24.947 62.1404 24.6018 62.7204 24.3834 63.3518C24.2371 63.8033 24.2085 64.0673 24.1894 64.0641C24.1816 64.0007 24.1816 63.9366 24.1894 63.8733C24.2148 63.6904 24.2542 63.5096 24.307 63.3327C24.5046 62.6795 24.8421 62.0773 25.296 61.5678C25.9643 60.7957 26.8627 60.2584 27.8591 60.035C28.9912 59.7838 30.2695 60.0159 31.5097 60.4039C32.7499 60.7919 33.9138 61.2371 35.0236 61.3833C35.5456 61.4596 36.0758 61.4596 36.5977 61.3833C37.0512 61.3148 37.4885 61.165 37.8888 60.9413C38.4815 60.6304 38.9578 60.1363 39.2467 59.5326C39.3401 59.31 39.4156 59.0803 39.4725 58.8457Z" fill="#455A64"/>
<path d="M63.5421 38.7198C63.5135 38.7548 61.7263 37.3015 59.548 35.473C57.3697 33.6445 55.6303 32.1181 55.6621 32.0958C55.6939 32.0736 57.4778 33.5141 59.6561 35.3458C61.8344 37.1775 63.5739 38.6848 63.5421 38.7198Z" fill="#263238"/>
<path d="M72.6114 36.5411C72.5668 36.5411 72.3856 33.7173 72.2107 30.2288C72.0358 26.7404 71.9277 23.9102 71.9722 23.907C72.0167 23.9038 72.198 26.7308 72.376 30.2225C72.5541 33.7141 72.6559 36.5411 72.6114 36.5411Z" fill="#263238"/>
<path d="M66.8362 34.5222C66.7917 34.5222 66.2352 32.9322 65.5897 30.9193C64.9441 28.9063 64.4576 27.2813 64.5021 27.2686C64.5466 27.2559 65.1031 28.8586 65.7487 30.8684C66.3942 32.8781 66.8776 34.5095 66.8362 34.5222Z" fill="#263238"/>
<path d="M61.6882 41.7028C60.8508 41.4082 60.032 41.0631 59.2364 40.6693C58.4175 40.324 57.6209 39.9279 56.8514 39.4832C57.6888 39.7777 58.5076 40.1229 59.3032 40.5167C60.1218 40.8626 60.9183 41.2588 61.6882 41.7028Z" fill="#263238"/>
<path d="M53.3277 38.0487C53.3277 38.0932 53.0574 38.0996 52.7363 38.0487C52.4151 37.9978 52.1607 37.9406 52.167 37.896C52.1734 37.8515 52.4373 37.8452 52.7553 37.896C53.0733 37.9469 53.3277 38.0042 53.3277 38.0487Z" fill="#263238"/>
<path d="M64.709 25.214C64.6613 25.214 64.6263 24.9565 64.6263 24.6353C64.6263 24.3141 64.6613 24.0533 64.709 24.0533C64.7567 24.0533 64.7917 24.3141 64.7917 24.6353C64.7917 24.9565 64.7535 25.214 64.709 25.214Z" fill="#263238"/>
<path d="M83.856 29.7045C83.891 29.7363 82.4219 31.4185 80.5806 33.4632C78.7394 35.508 77.2194 37.1425 77.178 37.1107C77.1367 37.0789 78.6122 35.3999 80.4534 33.3519C82.2946 31.304 83.8242 29.6759 83.856 29.7045Z" fill="#263238"/>
<path d="M86.1932 27.3926C86.225 27.4244 86.0564 27.647 85.8148 27.8887C85.5731 28.1304 85.3537 28.2958 85.3219 28.264C85.2901 28.2322 85.4586 28.0096 85.7003 27.7711C85.942 27.5326 86.1614 27.3481 86.1932 27.3926Z" fill="#263238"/>
<path d="M91.8601 35.5334C91.7236 35.6317 91.5789 35.7179 91.4276 35.791C91.1446 35.9468 90.7312 36.1663 90.216 36.427C89.1825 36.9485 87.7356 37.6291 86.1074 38.3064C84.4793 38.9837 82.9751 39.5243 81.8749 39.8964C81.3279 40.0777 80.8827 40.2144 80.5711 40.3066C80.4134 40.3639 80.2504 40.4055 80.0845 40.4306C80.2349 40.3562 80.3913 40.2945 80.552 40.2462L81.824 39.7851C82.9115 39.394 84.403 38.8311 86.0311 38.1633C87.6593 37.4955 89.1062 36.8245 90.1651 36.3316L91.399 35.7465C91.5472 35.6642 91.7013 35.593 91.8601 35.5334Z" fill="#263238"/>
<path d="M87.2109 43.3622C86.9392 43.4832 86.6558 43.5759 86.3651 43.6388C85.8372 43.7851 85.0931 43.9568 84.2726 44.0999C83.4522 44.243 82.6826 44.3225 82.1452 44.3607C81.8509 44.3982 81.5534 44.4035 81.258 44.3766C81.5468 44.3101 81.8402 44.2654 82.1357 44.243C82.6763 44.1763 83.4236 44.0745 84.244 43.925C85.0645 43.7756 85.8054 43.6325 86.3396 43.518C86.6247 43.4393 86.9163 43.3872 87.2109 43.3622Z" fill="#263238"/>
<path d="M91.4369 42.5802C90.8313 42.6905 90.2108 42.6905 89.6052 42.5802C90.2108 42.47 90.8313 42.47 91.4369 42.5802Z" fill="#263238"/>
</g>
<defs>
<clipPath id="clip0">
<rect width="150" height="139" fill="white"/>
</clipPath>
</defs>
</svg>
