<svg width="372" height="372" viewBox="0 0 372 372" fill="none" xmlns="http://www.w3.org/2000/svg">
<path d="M255.423 87.4273C258.257 85.2279 259.523 81.3424 258.936 77.805C258.34 74.2677 256.056 71.1427 253.103 69.1083C251.736 68.1735 250.039 67.4312 248.444 67.8986C246.958 68.3385 245.921 69.7772 245.619 71.2985C245.316 72.8197 245.646 74.396 246.151 75.8622C247.884 80.8842 250.489 85.4204 255.423 87.4273Z" fill="#455A64"/>
<path d="M260.073 96.0051C265.659 90.9098 273.812 88.7837 281.177 90.4883C283.057 90.919 285.167 91.9087 285.479 93.8148C285.79 95.721 284.085 97.3339 282.415 98.2961C275.472 102.319 266.062 101.559 259.853 96.4816" fill="#455A64"/>
<path d="M286.992 56.2877C283.892 55.4354 280.498 56.2052 277.756 57.8731C275.014 59.5501 272.868 62.0519 271.153 64.7645C267.832 70.0064 266.658 77.0627 266.512 83.2668C273.409 82.9919 279.297 77.5759 282.113 74.6342C286.57 70.0064 291.798 58.9178 286.992 56.2877Z" fill="#455A64"/>
<path d="M249.645 105.371C250.049 104.638 250.709 104.124 251.369 102.777C252.662 100.092 254.405 96.2616 255.249 91.7162C256.093 87.1616 255.524 82.8545 254.387 80.0503C253.836 78.639 253.213 77.5668 252.717 76.8887C252.222 76.2013 251.892 75.8714 251.865 75.8898C251.745 75.9631 252.965 77.411 253.919 80.2152C254.9 82.992 255.377 87.1525 254.561 91.5971C253.736 96.0417 252.094 99.8448 250.911 102.576" fill="#263238"/>
<path d="M249.581 105.453C250.507 104.262 251.709 102.704 253.176 100.825C256.194 96.9122 260.385 91.5145 265.09 85.6128C269.795 79.7203 274.124 74.4326 277.27 70.6203C278.774 68.7783 280.031 67.2571 280.985 66.0932C281.856 65.021 282.314 64.407 282.287 64.3795C282.25 64.352 281.718 64.9019 280.783 65.9191C279.847 66.9363 278.517 68.4392 276.903 70.3087C273.656 74.0477 269.263 79.2896 264.558 85.1912C259.853 91.0929 255.717 96.5456 252.8 100.541C251.342 102.539 250.168 104.161 249.388 105.306" fill="#263238"/>
<path d="M276.876 94.557C276.885 94.5112 276.463 94.3829 275.683 94.1905C275.289 94.0897 274.812 93.9797 274.243 93.9155C273.675 93.8422 273.033 93.7231 272.308 93.7048C270.868 93.5948 269.144 93.6498 267.245 93.8972C265.356 94.1813 263.302 94.6762 261.229 95.4643C259.174 96.2799 257.322 97.3063 255.735 98.3693C254.167 99.469 252.855 100.596 251.874 101.65C251.351 102.145 250.957 102.676 250.59 103.107C250.214 103.538 249.929 103.941 249.709 104.28C249.26 104.949 249.324 105.261 249.361 105.288C249.471 105.371 250.177 103.959 252.213 101.989C253.222 100.999 254.543 99.9364 256.093 98.8917C257.661 97.8744 259.477 96.8939 261.477 96.1058C263.494 95.336 265.494 94.8411 267.328 94.5295C269.172 94.2546 270.859 94.1446 272.281 94.1905C275.115 94.2729 276.848 94.6945 276.876 94.557Z" fill="#263238"/>
<path d="M26.1805 15.735C26.1805 15.735 17.1923 18.4384 25.4835 37.7381C33.7746 57.0377 39.7729 66.715 39.7729 66.715C39.7729 66.715 41.1761 71.1596 37.48 71.5903C33.7838 72.021 25.832 70.2065 23.906 74.5686C21.9157 79.0866 24.9882 83.6778 31.5551 87.9574C38.122 92.2371 52.1729 102.153 53.4478 103.051C54.6951 103.94 55.8599 106.038 53.3836 106.735C50.9164 107.431 32.7016 108.118 33.5454 116.733C34.3891 125.347 54.6585 134.273 56.8505 135.29C59.0517 136.307 59.5194 137.297 59.2534 138.525C58.9875 139.753 52.8425 139.405 47.6697 139.808C42.4969 140.211 36.572 141.595 37.48 146.525C38.388 151.456 50.0084 162.453 79.6878 167.355L93.592 168.73L101.957 157.476C118.383 132.293 118.117 116.302 115.081 112.306C112.055 108.311 107.038 111.747 103.241 115.285C99.4435 118.822 95.5548 123.578 94.4725 122.946C93.3903 122.314 92.9775 121.296 93.7113 118.987C94.445 116.678 101.544 95.7194 95.7565 89.2771C89.9692 82.8347 77.1656 95.7927 74.9828 97.1399C72.7999 98.487 72.0387 96.2051 72.2221 94.693C72.4147 93.1535 74.5884 76.0991 75.8633 68.3645C77.1381 60.63 75.8266 55.2598 71.1491 53.6836C66.6366 52.1624 62.6011 59.2462 59.7854 61.6747C56.9697 64.1032 54.6401 60.071 54.6401 60.071C54.6401 60.071 51.5401 49.1199 42.9004 29.976C34.2516 10.8414 26.0063 15.7992 26.0063 15.7992" fill="#EBEBEB"/>
<path d="M94.1147 172.075C87.8229 157.99 77.0555 132.761 67.7004 111.152C58.3453 89.552 49.8616 70.0049 43.6432 55.883C40.534 48.8358 38.0118 43.1357 36.26 39.1677C35.3979 37.2065 34.7192 35.6761 34.2515 34.6223C34.0313 34.1091 33.8662 33.715 33.7378 33.4401C33.6278 33.1743 33.5728 33.0277 33.5728 33.0277C33.5728 33.0277 33.6461 33.156 33.7745 33.4218C33.9029 33.6967 34.0864 34.0907 34.3248 34.5948C34.8109 35.6395 35.508 37.1607 36.4068 39.1035C38.2044 43.0258 40.7725 48.7167 43.9184 55.7639C50.2101 69.8491 58.7397 89.387 68.0948 110.987C77.4498 132.596 88.1715 157.834 94.3898 171.956" fill="#E0E0E0"/>
<path d="M34.9395 77.5561C34.9486 77.5286 35.288 77.6478 35.8933 77.8952C36.4986 78.1335 37.3608 78.5092 38.4247 78.9766C40.5433 79.9205 43.4416 81.2951 46.615 82.8622C49.7333 84.4292 52.5582 85.8405 54.7135 86.9219C55.6857 87.4076 56.5111 87.8108 57.1715 88.1315C57.7493 88.4156 58.0703 88.5897 58.0611 88.6172C58.052 88.6447 57.7126 88.5256 57.1073 88.2873C56.502 88.049 55.6398 87.6733 54.5851 87.1968C52.4756 86.2346 49.5957 84.8233 46.4223 83.247C43.2948 81.7075 40.4608 80.3145 38.2963 79.2515C37.3149 78.775 36.4895 78.3717 35.8291 78.051C35.2421 77.7577 34.9211 77.5836 34.9395 77.5561Z" fill="#E0E0E0"/>
<path d="M59.0609 87.7926C58.9508 87.7468 61.5281 81.6526 64.8023 74.1839C68.0858 66.7151 70.8373 60.7035 70.9473 60.7493C71.0574 60.7951 68.4893 66.8892 65.2059 74.358C61.9224 81.8268 59.171 87.8384 59.0609 87.7926Z" fill="#E0E0E0"/>
<path d="M71.9287 121.617C71.9103 121.599 72.1304 121.306 72.5523 120.792C73.0384 120.215 73.6346 119.5 74.35 118.648C75.8633 116.833 77.9544 114.322 80.1465 111.463C82.3476 108.604 84.2553 105.956 85.6219 104.022C86.2639 103.115 86.805 102.345 87.2361 101.731C87.6213 101.19 87.8506 100.906 87.869 100.915C87.8965 100.934 87.713 101.254 87.3737 101.823C87.0343 102.391 86.5207 103.197 85.8695 104.187C84.5672 106.166 82.6962 108.852 80.4858 111.72C78.2846 114.588 76.1568 117.081 74.5793 118.84C73.7905 119.72 73.1393 120.426 72.6716 120.902C72.213 121.379 71.947 121.635 71.9287 121.617Z" fill="#E0E0E0"/>
<path d="M48.0641 117.163C48.0733 117.136 48.4034 117.163 49.0179 117.246C49.715 117.347 50.5679 117.475 51.586 117.622C53.7505 117.961 56.7313 118.446 60.0147 119.024C63.3073 119.592 66.279 120.133 68.4251 120.545C69.4248 120.747 70.2778 120.921 70.9657 121.058C71.5618 121.186 71.892 121.278 71.8828 121.306C71.8736 121.333 71.5435 121.306 70.929 121.223C70.2319 121.122 69.379 120.994 68.3609 120.847C66.1964 120.508 63.2156 120.023 59.923 119.445C56.6304 118.877 53.6588 118.336 51.5126 117.924C50.5129 117.722 49.66 117.548 48.9721 117.411C48.3943 117.273 48.0641 117.191 48.0641 117.163Z" fill="#E0E0E0"/>
<path d="M55.6306 148.468C55.6398 148.441 56.0709 148.477 56.8505 148.578C57.7034 148.697 58.8132 148.862 60.1431 149.045C62.9129 149.458 66.7467 150.063 70.9656 150.75C75.1845 151.437 79.0091 152.088 81.7698 152.583C83.0905 152.83 84.1819 153.032 85.0349 153.188C85.8053 153.343 86.2272 153.435 86.2272 153.472C86.218 153.499 85.7869 153.462 85.0165 153.362C84.1636 153.243 83.0538 153.078 81.7239 152.894C78.9541 152.482 75.1203 151.877 70.9014 151.19C66.6825 150.502 62.8579 149.852 60.0972 149.357C58.7765 149.11 57.6851 148.908 56.8321 148.752C56.0434 148.596 55.6215 148.496 55.6306 148.468Z" fill="#E0E0E0"/>
<path d="M85.5118 153.142C85.4843 153.124 85.7594 152.748 86.273 152.079C86.8325 151.355 87.5754 150.411 88.4559 149.275C90.2994 146.901 92.8307 143.62 95.518 139.918C98.2145 136.216 100.572 132.807 102.25 130.323C103.057 129.132 103.736 128.142 104.249 127.382C104.726 126.685 105.001 126.309 105.029 126.328C105.057 126.346 104.827 126.749 104.396 127.473C103.965 128.197 103.323 129.224 102.507 130.488C100.883 133.017 98.563 136.463 95.8665 140.165C93.1701 143.877 90.602 147.13 88.6943 149.458C87.7405 150.613 86.9609 151.547 86.4014 152.18C85.8511 152.821 85.5393 153.16 85.5118 153.142Z" fill="#E0E0E0"/>
<path d="M294.304 207.723C275.722 194.756 271.512 170.682 272.246 149.046C272.365 145.435 271.971 141.623 273.695 138.452C275.42 135.281 279.428 133.118 282.665 134.64C285.352 135.904 286.517 139.02 288.021 141.604C290.021 145.041 292.992 147.882 296.496 149.696C298.798 150.888 301.65 151.621 303.916 150.365C307.034 148.642 307.401 144.344 307.383 140.752C307.337 134.053 307.3 127.363 307.254 120.664C307.236 117.072 307.218 113.406 308.337 109.997C309.455 106.588 311.923 103.417 315.344 102.464C318.765 101.511 322.993 103.482 323.717 106.991C324.02 108.458 323.717 109.97 323.818 111.464C323.919 112.957 324.616 114.607 326.029 115.019C327.459 115.441 328.899 114.424 329.982 113.37C333.696 109.741 336.209 105.067 338.566 100.421C340.923 95.7746 343.207 91.0184 346.573 87.0595C349.939 83.1006 354.598 79.9665 359.744 79.6732C364.898 79.38 370.383 82.5599 371.685 87.6094C372.987 92.6771 370.034 97.809 366.815 101.915C362.036 108 356.396 113.379 350.104 117.833C348.967 118.639 347.738 119.5 347.307 120.838C346.527 123.23 348.793 125.613 351.168 126.401C353.846 127.29 356.754 127.015 359.56 127.345C362.367 127.675 365.402 128.912 366.457 131.56C367.934 135.235 364.852 139.084 361.835 141.604C355.781 146.654 348.866 150.64 341.483 153.344C338.841 154.315 336.053 155.158 333.925 157.018C331.788 158.879 330.504 162.104 331.798 164.634C333.091 167.163 336.393 167.979 339.162 167.465C341.932 166.952 344.409 165.449 347.05 164.451C351.993 162.59 358.368 162.929 361.541 167.191C363.623 169.995 363.807 173.899 362.752 177.244C361.697 180.589 359.569 183.466 357.304 186.124C349.389 195.407 339.245 202.885 327.78 206.853C316.316 210.803 305.695 211.884 294.304 207.723Z" fill="#F5F5F5"/>
<path d="M294.02 223.761C294.808 215.192 296.689 205.066 299.899 194.151C303.09 183.228 307.575 171.553 312.684 159.493C313.977 156.487 315.252 153.509 316.499 150.576C317.756 147.653 319.012 144.757 320.406 141.998C323.176 136.463 326.267 131.359 329.349 126.603C332.43 121.847 335.53 117.439 338.456 113.342C341.391 109.246 344.198 105.489 346.903 102.162C352.296 95.4997 357.276 90.6519 360.826 87.4536C362.596 85.8499 364.018 84.6585 364.99 83.8521C365.458 83.4764 365.824 83.174 366.1 82.954C366.356 82.7524 366.485 82.6608 366.494 82.6608C366.503 82.6699 366.384 82.7891 366.145 82.9998C365.879 83.2381 365.531 83.5497 365.081 83.9529C364.137 84.7868 362.752 86.0148 361.009 87.6369C357.515 90.881 352.608 95.7655 347.279 102.446C344.601 105.773 341.822 109.548 338.915 113.645C336.007 117.75 332.935 122.158 329.872 126.914C326.808 131.67 323.745 136.766 321.003 142.264C319.618 145.013 318.38 147.882 317.123 150.814C315.866 153.747 314.601 156.716 313.308 159.722C308.199 171.773 303.705 183.411 300.495 194.289C297.266 205.158 295.34 215.229 294.506 223.77" fill="#E0E0E0"/>
<path d="M320.599 141.98C320.553 141.989 320.434 141.439 320.25 140.45C320.058 139.46 319.838 138.012 319.581 136.225C319.076 132.651 318.535 127.684 317.976 122.213C317.407 116.733 316.802 111.794 316.242 108.238C315.967 106.46 315.729 105.021 315.554 104.022C315.38 103.033 315.307 102.474 315.353 102.464C315.399 102.455 315.555 102.987 315.802 103.967C316.059 104.948 316.362 106.378 316.701 108.155C317.38 111.711 318.058 116.66 318.627 122.14C319.177 127.547 319.663 132.431 320.039 136.17C320.223 137.856 320.37 139.277 320.498 140.422C320.608 141.412 320.645 141.971 320.599 141.98Z" fill="#E0E0E0"/>
<path d="M366.824 133.348C366.824 133.393 366.164 133.467 364.981 133.567C363.797 133.677 362.073 133.815 359.964 134.062C355.726 134.521 349.902 135.354 343.519 136.555C337.136 137.774 331.394 139.112 327.276 140.211C325.212 140.743 323.552 141.219 322.406 141.54C321.259 141.87 320.617 142.026 320.599 141.98C320.581 141.934 321.204 141.696 322.323 141.293C323.451 140.899 325.093 140.349 327.148 139.753C331.247 138.544 336.98 137.123 343.391 135.895C349.802 134.685 355.653 133.925 359.918 133.586C362.046 133.403 363.77 133.329 364.971 133.302C366.164 133.283 366.824 133.302 366.824 133.348Z" fill="#E0E0E0"/>
<path d="M300.458 193.308C300.44 193.318 300.33 193.125 300.137 192.749C299.926 192.3 299.66 191.75 299.348 191.081C298.67 189.624 297.743 187.498 296.624 184.85C294.396 179.562 291.543 172.148 288.507 163.937C285.472 155.717 282.693 148.294 280.574 142.97C279.538 140.376 278.685 138.25 278.052 136.665C277.777 135.978 277.557 135.409 277.373 134.942C277.226 134.548 277.153 134.337 277.181 134.319C277.199 134.31 277.309 134.502 277.502 134.887C277.712 135.336 277.978 135.886 278.29 136.555C278.969 138.012 279.895 140.138 281.014 142.787C283.243 148.074 286.095 155.488 289.131 163.699C292.167 171.919 294.946 179.333 297.065 184.667C298.101 187.26 298.954 189.386 299.587 190.971C299.862 191.659 300.082 192.227 300.265 192.694C300.412 193.079 300.486 193.29 300.458 193.308Z" fill="#E0E0E0"/>
<path d="M361.89 173.523C361.899 173.541 361.688 173.633 361.284 173.77C360.807 173.935 360.211 174.128 359.496 174.366C357.845 174.898 355.626 175.622 352.92 176.492C347.362 178.288 339.722 180.863 331.284 183.723C322.837 186.582 315.169 189.084 309.575 190.77C306.777 191.613 304.512 192.273 302.934 192.694C302.201 192.887 301.605 193.042 301.119 193.171C300.697 193.272 300.476 193.317 300.467 193.29C300.458 193.272 300.669 193.18 301.073 193.033C301.55 192.878 302.146 192.676 302.861 192.438C304.512 191.906 306.732 191.182 309.437 190.312C314.995 188.515 322.635 185.94 331.082 183.081C339.52 180.222 347.197 177.72 352.791 176.034C355.589 175.191 357.854 174.531 359.432 174.109C360.165 173.917 360.762 173.761 361.248 173.633C361.66 173.541 361.881 173.495 361.89 173.523Z" fill="#E0E0E0"/>
<path d="M89.3271 229.341C103.91 214.633 103.754 192.3 99.5443 172.955C98.8381 169.729 98.5721 166.237 96.5085 163.671C94.4449 161.105 90.4827 159.813 87.8138 161.71C85.6034 163.286 85.0623 166.283 84.1359 168.849C82.8978 172.267 80.6874 175.31 77.835 177.509C75.964 178.957 73.5152 180.084 71.2681 179.324C68.1865 178.288 67.1501 174.476 66.5723 171.241C65.5083 165.211 64.4536 159.181 63.3897 153.16C62.8211 149.925 62.2249 146.626 60.6657 143.739C59.0974 140.853 56.3642 138.415 53.1266 138.113C49.889 137.81 46.413 140.275 46.3396 143.556C46.3121 144.922 46.8257 146.241 46.9816 147.597C47.1376 148.954 46.7799 150.548 45.5784 151.162C44.3586 151.776 42.9003 151.098 41.7538 150.328C37.8192 147.671 34.7925 143.886 31.9126 140.092C29.0327 136.298 26.1987 132.394 22.5209 129.388C18.8431 126.383 14.138 124.321 9.46048 124.907C4.78295 125.484 0.371388 129.242 0.0228658 133.998C-0.316485 138.763 3.17791 142.905 6.74568 146.067C12.0377 150.759 17.9993 154.672 24.3827 157.641C25.5384 158.182 26.7765 158.759 27.391 159.887C28.4825 161.912 26.8316 164.423 24.8321 165.522C22.5667 166.76 19.907 166.989 17.4398 167.74C14.9726 168.492 12.4413 170.105 11.9276 172.661C11.2031 176.208 14.5966 179.159 17.7333 180.937C24.0067 184.483 30.8762 186.939 37.9568 188.158C40.4973 188.598 43.1387 188.9 45.3583 190.22C47.5778 191.539 49.2654 194.234 48.5225 196.717C47.7796 199.21 44.9364 200.474 42.3591 200.465C39.7819 200.456 37.3056 199.512 34.7742 199.045C30.0233 198.174 24.346 199.531 22.1999 203.883C20.7875 206.743 21.2644 210.289 22.7594 213.121C24.2543 215.953 26.6481 218.198 29.1153 220.214C37.755 227.27 48.1006 232.329 59.0607 234.024C70.0391 235.72 79.7702 234.95 89.3271 229.341Z" fill="#6CCD6C"/>
<path d="M92.2162 243.729C90.1067 236.15 86.7499 227.353 82.0816 218.06C77.4224 208.759 71.47 198.99 64.8939 188.983C63.243 186.49 61.6105 184.025 59.9963 181.596C58.3821 179.177 56.7862 176.776 55.0711 174.522C51.6684 170.004 48.0548 165.917 44.5054 162.141C40.956 158.365 37.4432 154.911 34.1414 151.703C30.8305 148.505 27.6846 145.581 24.713 143.034C18.7698 137.92 13.4961 134.374 9.78158 132.092C7.91973 130.937 6.45227 130.094 5.45257 129.535C4.96647 129.269 4.59043 129.059 4.30611 128.903C4.04931 128.765 3.91173 128.701 3.90256 128.71C3.89339 128.719 4.02179 128.802 4.26942 128.958C4.54457 129.123 4.92061 129.352 5.38836 129.636C6.36973 130.232 7.81885 131.102 9.66234 132.284C13.3402 134.63 18.5497 138.223 24.4378 143.355C27.3911 145.911 30.5095 148.844 33.8021 152.061C37.0855 155.277 40.5799 158.741 44.111 162.517C47.6421 166.292 51.2282 170.37 54.6034 174.87C56.3001 177.115 57.8868 179.498 59.501 181.926C61.106 184.355 62.7386 186.82 64.3895 189.313C70.9564 199.311 76.9088 209.052 81.5771 218.308C86.2638 227.555 89.639 236.297 91.7943 243.839" fill="#263238"/>
<path d="M54.9059 174.531C54.9426 174.531 54.9701 174.018 54.9701 173.092C54.9793 172.167 54.9426 170.829 54.8784 169.179C54.75 165.88 54.4106 161.325 54.0254 156.313C53.6402 151.291 53.3651 146.754 53.2917 143.455C53.2458 141.806 53.2275 140.477 53.2183 139.551C53.2091 138.626 53.1816 138.122 53.1449 138.113C53.0991 138.113 53.0441 138.617 52.989 139.542C52.9157 140.468 52.879 141.797 52.8698 143.455C52.8423 146.764 53.0441 151.327 53.4293 156.349C53.8237 161.298 54.1813 165.779 54.4565 169.197C54.5666 170.746 54.6674 172.047 54.7408 173.092C54.805 174.018 54.86 174.531 54.9059 174.531Z" fill="#263238"/>
<path d="M11.9184 174.329C11.9276 174.375 12.5329 174.329 13.6152 174.228C14.6974 174.128 16.2658 173.981 18.2102 173.853C22.0898 173.569 27.4735 173.367 33.4076 173.404C39.3508 173.449 44.7254 173.724 48.6142 174.027C50.5585 174.164 52.1269 174.32 53.2091 174.421C54.2914 174.531 54.8967 174.568 54.9059 174.522C54.9151 174.476 54.3189 174.366 53.2366 174.183C52.1544 174.009 50.5861 173.789 48.6417 173.587C44.7529 173.165 39.36 172.826 33.3984 172.78C27.4368 172.744 22.0439 173.019 18.1551 173.413C16.2108 173.596 14.6424 173.816 13.5693 173.981C12.5054 174.173 11.9093 174.283 11.9184 174.329Z" fill="#263238"/>
<path d="M81.4302 217.392C81.4485 217.401 81.5127 217.208 81.6228 216.833C81.742 216.393 81.8888 215.852 82.063 215.201C82.4391 213.781 82.9252 211.719 83.4938 209.153C84.6311 204.03 85.9793 196.901 87.3643 189.019C88.7492 181.129 90.0332 173.999 91.0604 168.858C91.5649 166.357 91.9868 164.304 92.2986 162.773C92.427 162.114 92.5371 161.564 92.6288 161.115C92.693 160.739 92.7205 160.528 92.7021 160.528C92.6838 160.528 92.6196 160.721 92.5095 161.087C92.3903 161.527 92.2436 162.068 92.0693 162.718C91.6933 164.139 91.2072 166.201 90.6385 168.767C89.5012 173.889 88.153 181.019 86.7681 188.9C85.3832 196.781 84.0991 203.911 83.0719 209.052C82.5583 211.554 82.1456 213.607 81.8337 215.137C81.7053 215.797 81.5953 216.347 81.5036 216.796C81.4302 217.181 81.4119 217.382 81.4302 217.392Z" fill="#263238"/>
<path d="M22.9427 209.657C22.9427 209.675 23.1445 209.721 23.5297 209.785C23.9883 209.849 24.5478 209.932 25.2357 210.033C26.804 210.243 28.9227 210.527 31.4999 210.876C36.7919 211.581 44.0834 212.654 52.1452 213.836C60.2071 215.027 67.5169 216.017 72.8273 216.622C75.4779 216.924 77.6332 217.144 79.119 217.263C79.8069 217.318 80.3755 217.355 80.8341 217.391C81.2285 217.419 81.4303 217.419 81.4394 217.391C81.4394 217.373 81.2377 217.327 80.8524 217.263C80.3939 217.199 79.8344 217.116 79.1465 217.016C77.5782 216.805 75.4595 216.521 72.8823 216.173C67.5903 215.467 60.2988 214.404 52.237 213.213C44.1751 212.021 36.8653 211.031 31.5641 210.427C28.9135 210.124 26.7581 209.904 25.2723 209.785C24.5845 209.73 24.0158 209.684 23.5573 209.657C23.1537 209.639 22.9427 209.629 22.9427 209.657Z" fill="#263238"/>
<path d="M224.242 371.523L101.461 370.955C86.6947 370.891 74.7808 358.547 74.845 343.38L76.184 27.3461C76.2482 12.1794 88.2814 -0.0729857 103.057 0.000327295L225.838 0.568503C240.604 0.632652 252.518 12.9767 252.454 28.1433L251.115 344.177C251.05 359.353 239.017 371.596 224.242 371.523Z" fill="#263238"/>
<path d="M242.714 288.698C242.714 290.191 241.503 291.401 240.008 291.401C238.513 291.401 237.302 290.191 237.302 288.698C237.302 287.204 238.513 285.994 240.008 285.994C241.503 285.994 242.714 287.204 242.714 288.698Z" fill="#E0E0E0"/>
<path d="M240.008 294.627C239.879 294.627 239.769 293.298 239.769 291.667C239.769 290.026 239.879 288.698 240.008 288.698C240.136 288.698 240.246 290.026 240.246 291.667C240.246 293.298 240.145 294.627 240.008 294.627Z" fill="#E0E0E0"/>
<path d="M228.296 11.0064L203.743 10.8964C200.451 10.8781 197.772 13.6548 197.754 17.1005L197.736 21.5543C197.727 24.9908 195.039 27.7675 191.747 27.7584L143.889 27.5384C140.596 27.5201 137.937 24.725 137.955 21.2793L137.973 16.8256C137.992 13.389 135.332 10.5848 132.039 10.5665L123.4 10.5298L101.911 10.429C91.2348 10.3832 82.5492 18.9883 82.5034 29.6553L81.1918 339.302C81.146 349.96 89.7581 358.638 100.425 358.693L226.819 359.28C237.495 359.325 246.18 350.72 246.226 340.053L247.538 30.4068C247.565 19.7306 238.962 11.0522 228.296 11.0064Z" fill="#FAFAFA"/>
<path d="M89.5747 255.349C90.6478 254.543 143.513 231.275 143.513 231.275L81.7697 200.502L81.5587 250.062L89.5747 255.349Z" fill="#EBEBEB"/>
<path d="M92.8032 199.549L137.836 176.675L89.4372 149.861L81.9807 151.731L81.7972 195.114L92.8032 199.549Z" fill="#2693FF"/>
<path d="M83.604 146.745L222.435 81.9551L84.8789 37.0417L83.604 146.745Z" fill="#EBEBEB"/>
<path d="M81.9899 315.475L145.43 282.943L239.87 338.459L217.372 358.171H136.781L81.9899 324.713V315.475Z" fill="#EBEBEB"/>
<path d="M157.922 279.433L236.376 325.904L245.116 324.914V280.221L202.129 257.485L157.922 279.433Z" fill="#EBEBEB"/>
<path d="M170.817 235.042L244.786 276.628V222.267L218.023 210.812L170.817 235.042Z" fill="#EBEBEB"/>
<path d="M91.8126 257.952L135.204 281.742L187.858 254.488L146.026 233.227L91.8126 257.952Z" fill="#EBEBEB"/>
<path d="M156.949 176.373L218.418 206.816L246.923 192.264L247.107 171.873L205.577 151.731L156.949 176.373Z" fill="#EBEBEB"/>
<path d="M94.0779 202.921L155.555 233.365L184.061 218.812L184.244 198.413L142.715 178.279L94.0779 202.921Z" fill="#EBEBEB"/>
<path d="M102.599 148.221L152.694 173.294L199.414 148.221L151.006 126.154L102.599 148.221Z" fill="#EBEBEB"/>
<path d="M199.414 308.391C199.405 308.409 199.093 308.254 198.506 307.933C197.919 307.603 197.048 307.117 195.911 306.476C193.636 305.165 190.288 303.232 185.969 300.73C177.329 295.671 164.791 288.322 149.135 279.148L148.374 278.699L149.172 278.296C162.874 271.331 179.273 263.001 197.488 253.746L197.479 254.854C186.308 248.907 174.137 242.428 161.398 235.637L160.251 235.032L161.398 234.428C177.081 226.198 194.003 217.327 211.521 208.145L211.53 209.419C209.641 208.466 207.595 207.43 205.55 206.395C163.553 185.106 124.693 165.403 93.2892 149.485L92.2345 148.954L93.2984 148.45C118.144 136.61 138.606 126.859 152.868 120.059C160.004 116.696 165.589 114.075 169.405 112.279C171.312 111.408 172.771 110.73 173.761 110.281C174.247 110.07 174.623 109.906 174.88 109.786C175.137 109.676 175.265 109.631 175.274 109.649C175.284 109.667 175.164 109.741 174.917 109.869C174.669 109.997 174.302 110.19 173.835 110.437C172.862 110.932 171.422 111.647 169.551 112.591C165.773 114.451 160.233 117.173 153.152 120.655C138.936 127.565 118.548 137.471 93.7937 149.495L93.8028 148.45C125.243 164.304 164.14 183.915 206.183 205.121C208.228 206.156 210.273 207.192 212.163 208.145L213.401 208.768L212.172 209.41C194.645 218.574 177.714 227.435 162.021 235.637L162.031 234.428C174.752 241.246 186.904 247.761 198.057 253.746L199.121 254.314L198.038 254.854C179.778 264.019 163.333 272.266 149.594 279.148L149.621 278.296C165.176 287.625 177.65 295.103 186.235 300.253C190.499 302.847 193.801 304.854 196.048 306.219C197.149 306.907 197.993 307.438 198.57 307.795C199.139 308.171 199.423 308.373 199.414 308.391Z" fill="url(#paint0_linear)"/>
<path d="M174 180.24L173.779 169.445L201.946 183.072V194.289L174 180.24Z" fill="#F5F5F5"/>
<path d="M201.946 183.072L236.926 165.706V177.794L201.946 194.289V183.072Z" fill="#E0E0E0"/>
<path d="M173.779 169.445L208.1 152.29L236.926 165.706L201.945 183.072L173.779 169.445Z" fill="#F5F5F5"/>
<path d="M177.457 174.109V179.342L180.209 180.589V175.576L177.457 174.109Z" fill="#FAFAFA"/>
<path d="M181.86 176.052V181.285L184.611 182.522V177.519L181.86 176.052Z" fill="#FAFAFA"/>
<path d="M85.3832 112.132V98.0747L118.722 114.213V127.482L85.3832 112.132Z" fill="#E0E0E0"/>
<path d="M118.722 114.213L160.141 93.6486V107.963L118.722 127.482V114.213Z" fill="#F5F5F5"/>
<path d="M85.3832 98.0749L126.014 77.7764L160.141 93.6486L118.722 114.213L85.3832 98.0749Z" fill="#FAFAFA"/>
<path d="M89.7397 103.592V109.796L92.9957 111.262V105.342L89.7397 103.592Z" fill="#FAFAFA"/>
<path d="M94.9492 105.892V112.096L98.2052 113.562V107.633L94.9492 105.892Z" fill="#FAFAFA"/>
<path d="M185.877 229.552C185.877 230.212 185.877 240.623 185.877 240.623L197.763 246.479V235.042L185.877 229.552Z" fill="#E0E0E0"/>
<path d="M212.942 227.793L197.763 235.042V246.478L212.942 238.011V227.793Z" fill="#E0E0E0"/>
<path d="M185.877 229.552L200.927 222.267L212.942 227.793L197.763 235.042L185.877 229.552Z" fill="#F5F5F5"/>
<path d="M190.105 237.498V242.73L192.856 243.977V238.973L190.105 237.498Z" fill="#FAFAFA"/>
<path d="M89.9048 223.825C89.9048 224.485 89.9048 234.895 89.9048 234.895L101.791 240.751V229.314L89.9048 223.825Z" fill="#E0E0E0"/>
<path d="M116.97 222.065L101.782 229.323V240.751L116.97 232.283V222.065Z" fill="#E0E0E0"/>
<path d="M89.9048 223.825L104.946 216.539L116.97 222.065L101.782 229.323L89.9048 223.825Z" fill="#F5F5F5"/>
<path d="M94.1237 231.77V237.003L96.8751 238.249V233.246L94.1237 231.77Z" fill="#FAFAFA"/>
<path d="M139.166 150.759C139.166 151.419 139.166 161.829 139.166 161.829L151.043 167.685V156.248L139.166 150.759Z" fill="#F5F5F5"/>
<path d="M166.231 149L151.043 156.249V167.685L166.231 159.218V149Z" fill="#E0E0E0"/>
<path d="M139.166 150.759L154.207 143.474L166.231 149L151.043 156.249L139.166 150.759Z" fill="#F5F5F5"/>
<path d="M143.385 158.704V163.937L146.136 165.183V160.171L143.385 158.704Z" fill="#E0E0E0"/>
<path d="M125.959 245.626C125.959 246.286 125.959 256.696 125.959 256.696L137.845 262.552V251.115L125.959 245.626Z" fill="#E0E0E0"/>
<path d="M153.024 243.867L137.836 251.125V262.561L153.024 254.094V243.867Z" fill="#EBEBEB"/>
<path d="M125.959 245.626L141.009 238.35L153.024 243.867L137.836 251.125L125.959 245.626Z" fill="#F5F5F5"/>
<path d="M130.178 253.58V258.813L132.929 260.05V255.047L130.178 253.58Z" fill="#FAFAFA"/>
<path d="M175.009 272.376C175.009 273.201 175.009 286.26 175.009 286.26L200.047 300.996V286.654L175.009 272.376Z" fill="#F5F5F5"/>
<path d="M219.087 276.408L200.047 286.654V300.996L219.087 290.375V276.408Z" fill="#E0E0E0"/>
<path d="M175.009 272.376L193.875 263.24L219.087 276.408L200.047 286.654L175.009 272.376Z" fill="#FAFAFA"/>
<path d="M184.464 285.215V291.777L187.913 293.857V287.36L184.464 285.215Z" fill="#FAFAFA"/>
<path d="M114.778 300.95C114.778 301.775 114.778 314.834 114.778 314.834L139.817 329.57V315.237L114.778 300.95Z" fill="#E0E0E0"/>
<path d="M169.689 299.053L139.817 315.237V329.569L169.781 312.982L169.689 299.053Z" fill="#FAFAFA"/>
<path d="M114.778 300.95L146.384 285.664L169.781 299.108L139.817 315.237L114.778 300.95Z" fill="#F5F5F5"/>
<path d="M124.234 313.789V320.36L127.683 322.431V315.933L124.234 313.789Z" fill="#FAFAFA"/>
<path d="M209.558 249.035V304.487L225.187 312.561V256.413L209.558 249.035Z" fill="#F5F5F5"/>
<path d="M221.105 243.72L209.558 249.035L225.186 256.412L235.697 250.492L221.105 243.72Z" fill="#FAFAFA"/>
<path d="M225.187 256.412V312.561L234.697 307.447L235.697 250.492L225.187 256.412Z" fill="#E0E0E0"/>
<path d="M143.513 204.122V259.574L159.142 267.647V211.499L143.513 204.122Z" fill="#F5F5F5"/>
<path d="M155.051 198.798L143.513 204.122L159.142 211.499L169.652 205.579L155.051 198.798Z" fill="#FAFAFA"/>
<path d="M159.141 211.499V267.648L168.643 262.965L169.652 205.579L159.141 211.499Z" fill="#E0E0E0"/>
<path d="M150.603 309.573C150.603 310.398 150.603 323.457 150.603 323.457L175.641 338.193V323.86L150.603 309.573Z" fill="#E0E0E0"/>
<path d="M194.682 313.615L175.641 323.86V338.193L194.682 327.581V313.615Z" fill="#FAFAFA"/>
<path d="M150.603 309.573L169.689 299.053L194.682 313.615L175.641 323.86L150.603 309.573Z" fill="#F5F5F5"/>
<path d="M160.059 322.412V328.983L163.516 331.054V324.557L160.059 322.412Z" fill="#FAFAFA"/>
<path d="M206.293 144.042L160.692 123.505L224.196 91.2108L245.034 122.259L206.293 144.042Z" fill="#EBEBEB"/>
<path d="M246.877 242.069L247.198 219.982L211.842 232.472L246.877 242.069Z" fill="#055EFF"/>
<path d="M220.014 198.514C220.014 200.007 218.803 201.217 217.308 201.217C215.813 201.217 214.603 200.007 214.603 198.514C214.603 197.02 215.813 195.81 217.308 195.81C218.803 195.81 220.014 197.02 220.014 198.514Z" fill="#E0E0E0"/>
<path d="M217.308 204.443C217.18 204.443 217.07 203.114 217.07 201.483C217.07 199.842 217.18 198.523 217.308 198.523C217.437 198.523 217.547 199.851 217.547 201.483C217.547 203.114 217.446 204.443 217.308 204.443Z" fill="#E0E0E0"/>
<path d="M146.219 191.888C146.219 193.382 145.008 194.591 143.513 194.591C142.018 194.591 140.807 193.382 140.807 191.888C140.807 190.394 142.018 189.184 143.513 189.184C145.008 189.184 146.219 190.394 146.219 191.888Z" fill="#E0E0E0"/>
<path d="M143.513 197.817C143.385 197.817 143.275 196.488 143.275 194.857C143.275 193.216 143.385 191.888 143.513 191.888C143.641 191.888 143.751 193.216 143.751 194.857C143.751 196.488 143.641 197.817 143.513 197.817Z" fill="#E0E0E0"/>
<path d="M110.064 229.626C110.064 231.119 108.854 232.329 107.359 232.329C105.864 232.329 104.653 231.119 104.653 229.626C104.653 228.132 105.864 226.922 107.359 226.922C108.854 226.922 110.064 228.132 110.064 229.626Z" fill="#E0E0E0"/>
<path d="M107.359 235.555C107.23 235.555 107.12 234.226 107.12 232.595C107.12 230.954 107.23 229.626 107.359 229.626C107.487 229.626 107.597 230.954 107.597 232.595C107.597 234.226 107.487 235.555 107.359 235.555Z" fill="#E0E0E0"/>
<path d="M112.77 200.502C112.77 201.996 111.559 203.205 110.064 203.205C108.569 203.205 107.359 201.996 107.359 200.502C107.359 199.008 108.569 197.799 110.064 197.799C111.559 197.799 112.77 199.017 112.77 200.502Z" fill="#E0E0E0"/>
<path d="M110.064 206.431C109.936 206.431 109.826 205.103 109.826 203.471C109.826 201.831 109.936 200.502 110.064 200.502C110.193 200.502 110.303 201.831 110.303 203.471C110.303 205.112 110.193 206.431 110.064 206.431Z" fill="#E0E0E0"/>
<path d="M179.539 197.835C179.539 199.329 178.329 200.539 176.834 200.539C175.339 200.539 174.128 199.329 174.128 197.835C174.128 196.342 175.339 195.132 176.834 195.132C178.319 195.132 179.539 196.342 179.539 197.835Z" fill="#E0E0E0"/>
<path d="M176.834 203.764C176.705 203.764 176.595 202.436 176.595 200.804C176.595 199.164 176.705 197.835 176.834 197.835C176.962 197.835 177.072 199.164 177.072 200.804C177.072 202.436 176.962 203.764 176.834 203.764Z" fill="#E0E0E0"/>
<path d="M222.261 218.079C222.261 219.573 221.05 220.782 219.555 220.782C218.06 220.782 216.849 219.573 216.849 218.079C216.849 216.585 218.06 215.375 219.555 215.375C221.05 215.375 222.261 216.585 222.261 218.079Z" fill="#E0E0E0"/>
<path d="M219.564 224.008C219.436 224.008 219.326 222.679 219.326 221.048C219.326 219.408 219.436 218.079 219.564 218.079C219.693 218.079 219.803 219.408 219.803 221.048C219.803 222.679 219.693 224.008 219.564 224.008Z" fill="#E0E0E0"/>
<path d="M223.994 233.979C223.994 235.472 222.784 236.682 221.289 236.682C219.794 236.682 218.583 235.472 218.583 233.979C218.583 232.485 219.794 231.275 221.289 231.275C222.784 231.275 223.994 232.485 223.994 233.979Z" fill="#E0E0E0"/>
<path d="M221.289 239.908C221.16 239.908 221.05 238.579 221.05 236.948C221.05 235.307 221.16 233.979 221.289 233.979C221.417 233.979 221.527 235.307 221.527 236.948C221.527 238.579 221.426 239.908 221.289 239.908Z" fill="#E0E0E0"/>
<path d="M148.136 266.969C148.136 268.463 146.925 269.673 145.43 269.673C143.935 269.673 142.724 268.463 142.724 266.969C142.724 265.476 143.935 264.266 145.43 264.266C146.925 264.266 148.136 265.476 148.136 266.969Z" fill="#E0E0E0"/>
<path d="M145.43 272.899C145.302 272.899 145.192 271.57 145.192 269.939C145.192 268.298 145.302 266.969 145.43 266.969C145.558 266.969 145.668 268.298 145.668 269.939C145.668 271.57 145.558 272.899 145.43 272.899Z" fill="#E0E0E0"/>
<path d="M234.303 316.804C235.797 316.804 237.009 315.594 237.009 314.101C237.009 312.608 235.797 311.397 234.303 311.397C232.809 311.397 231.597 312.608 231.597 314.101C231.597 315.594 232.809 316.804 234.303 316.804Z" fill="#E0E0E0"/>
<path d="M234.303 320.03C234.175 320.03 234.065 318.701 234.065 317.07C234.065 315.429 234.175 314.101 234.303 314.101C234.431 314.101 234.542 315.429 234.542 317.07C234.551 318.701 234.441 320.03 234.303 320.03Z" fill="#E0E0E0"/>
<path d="M185.317 343.664C185.317 345.158 184.107 346.367 182.612 346.367C181.117 346.367 179.906 345.158 179.906 343.664C179.906 342.17 181.117 340.96 182.612 340.96C184.107 340.97 185.317 342.179 185.317 343.664Z" fill="#E0E0E0"/>
<path d="M182.612 349.593C182.483 349.593 182.373 348.264 182.373 346.633C182.373 344.993 182.483 343.673 182.612 343.673C182.74 343.673 182.85 345.002 182.85 346.633C182.85 348.274 182.74 349.593 182.612 349.593Z" fill="#E0E0E0"/>
<path d="M164.489 335.499C164.489 336.992 163.278 338.202 161.783 338.202C160.288 338.202 159.077 336.992 159.077 335.499C159.077 334.005 160.288 332.795 161.783 332.795C163.278 332.795 164.489 334.005 164.489 335.499Z" fill="#E0E0E0"/>
<path d="M161.783 341.428C161.655 341.428 161.545 340.099 161.545 338.468C161.545 336.827 161.655 335.499 161.783 335.499C161.911 335.499 162.021 336.827 162.021 338.468C162.021 340.099 161.921 341.428 161.783 341.428Z" fill="#E0E0E0"/>
<path d="M212.264 329.57C212.264 331.063 211.053 332.273 209.558 332.273C208.063 332.273 206.852 331.063 206.852 329.57C206.852 328.076 208.063 326.866 209.558 326.866C211.053 326.866 212.264 328.076 212.264 329.57Z" fill="#E0E0E0"/>
<path d="M209.558 335.499C209.43 335.499 209.32 334.17 209.32 332.539C209.32 330.898 209.43 329.579 209.558 329.579C209.686 329.579 209.797 330.907 209.797 332.539C209.797 334.17 209.696 335.499 209.558 335.499Z" fill="#E0E0E0"/>
<path d="M168.827 280.212C170.321 280.212 171.532 279.001 171.532 277.508C171.532 276.015 170.321 274.805 168.827 274.805C167.332 274.805 166.121 276.015 166.121 277.508C166.121 279.001 167.332 280.212 168.827 280.212Z" fill="#E0E0E0"/>
<path d="M168.827 283.437C168.698 283.437 168.588 282.108 168.588 280.477C168.588 278.837 168.698 277.517 168.827 277.517C168.955 277.517 169.065 278.846 169.065 280.477C169.065 282.118 168.955 283.437 168.827 283.437Z" fill="#E0E0E0"/>
<path d="M178.347 251.125C178.347 252.618 177.136 253.828 175.641 253.828C174.146 253.828 172.936 252.618 172.936 251.125C172.936 249.631 174.146 248.421 175.641 248.421C177.136 248.421 178.347 249.631 178.347 251.125Z" fill="#E0E0E0"/>
<path d="M175.641 257.054C175.513 257.054 175.403 255.725 175.403 254.094C175.403 252.453 175.513 251.125 175.641 251.125C175.77 251.125 175.88 252.453 175.88 254.094C175.88 255.725 175.779 257.054 175.641 257.054Z" fill="#E0E0E0"/>
<path d="M112.77 254.094C112.77 255.588 111.559 256.797 110.064 256.797C108.569 256.797 107.359 255.588 107.359 254.094C107.359 252.6 108.569 251.39 110.064 251.39C111.559 251.39 112.77 252.6 112.77 254.094Z" fill="#E0E0E0"/>
<path d="M110.064 260.023C109.936 260.023 109.826 258.694 109.826 257.063C109.826 255.423 109.936 254.094 110.064 254.094C110.193 254.094 110.303 255.423 110.303 257.063C110.303 258.694 110.193 260.023 110.064 260.023Z" fill="#E0E0E0"/>
<path d="M237.706 229.626C237.706 231.119 236.495 232.329 235 232.329C233.505 232.329 232.294 231.119 232.294 229.626C232.294 228.132 233.505 226.922 235 226.922C236.495 226.922 237.706 228.132 237.706 229.626Z" fill="#E0E0E0"/>
<path d="M235 235.555C234.872 235.555 234.762 234.226 234.762 232.595C234.762 230.954 234.872 229.626 235 229.626C235.128 229.626 235.239 230.954 235.239 232.595C235.239 234.226 235.128 235.555 235 235.555Z" fill="#E0E0E0"/>
<path d="M230.442 189.184C230.442 190.678 229.231 191.888 227.736 191.888C226.241 191.888 225.031 190.678 225.031 189.184C225.031 187.691 226.241 186.481 227.736 186.481C229.231 186.481 230.442 187.691 230.442 189.184Z" fill="#E0E0E0"/>
<path d="M227.736 195.114C227.608 195.114 227.498 193.785 227.498 192.153C227.498 190.513 227.608 189.184 227.736 189.184C227.865 189.184 227.975 190.513 227.975 192.153C227.975 193.785 227.874 195.114 227.736 195.114Z" fill="#E0E0E0"/>
<path d="M172.954 156.148C174.448 156.148 175.66 154.937 175.66 153.444C175.66 151.951 174.448 150.741 172.954 150.741C171.46 150.741 170.248 151.951 170.248 153.444C170.248 154.937 171.46 156.148 172.954 156.148Z" fill="#E0E0E0"/>
<path d="M172.954 159.373C172.826 159.373 172.716 158.045 172.716 156.413C172.716 154.773 172.826 153.444 172.954 153.444C173.082 153.444 173.193 154.773 173.193 156.413C173.193 158.045 173.092 159.373 172.954 159.373Z" fill="#E0E0E0"/>
<path d="M123.941 204.443C123.941 205.936 122.73 207.146 121.235 207.146C119.74 207.146 118.53 205.936 118.53 204.443C118.53 202.949 119.74 201.739 121.235 201.739C122.73 201.739 123.941 202.949 123.941 204.443Z" fill="#E0E0E0"/>
<path d="M121.235 210.372C121.107 210.372 120.997 209.043 120.997 207.412C120.997 205.771 121.107 204.443 121.235 204.443C121.364 204.443 121.474 205.771 121.474 207.412C121.474 209.043 121.373 210.372 121.235 210.372Z" fill="#E0E0E0"/>
<path d="M155.73 134.154C155.73 135.648 154.519 136.857 153.024 136.857C151.529 136.857 150.318 135.648 150.318 134.154C150.318 132.66 151.529 131.45 153.024 131.45C154.519 131.45 155.73 132.66 155.73 134.154Z" fill="#E0E0E0"/>
<path d="M153.024 140.083C152.896 140.083 152.786 138.754 152.786 137.123C152.786 135.483 152.896 134.154 153.024 134.154C153.152 134.154 153.262 135.483 153.262 137.123C153.262 138.754 153.152 140.083 153.024 140.083Z" fill="#E0E0E0"/>
<path d="M210.897 128.225C210.897 129.718 209.686 130.928 208.191 130.928C206.696 130.928 205.486 129.718 205.486 128.225C205.486 126.731 206.696 125.521 208.191 125.521C209.686 125.521 210.897 126.731 210.897 128.225Z" fill="#E0E0E0"/>
<path d="M208.191 134.154C208.063 134.154 207.953 132.825 207.953 131.194C207.953 129.553 208.063 128.225 208.191 128.225C208.32 128.225 208.43 129.553 208.43 131.194C208.43 132.825 208.329 134.154 208.191 134.154Z" fill="#E0E0E0"/>
<path d="M226.15 125.732C226.15 127.226 224.939 128.435 223.444 128.435C221.949 128.435 220.738 127.226 220.738 125.732C220.738 124.238 221.949 123.029 223.444 123.029C224.939 123.029 226.15 124.238 226.15 125.732Z" fill="#E0E0E0"/>
<path d="M223.444 131.661C223.316 131.661 223.206 130.332 223.206 128.701C223.206 127.061 223.316 125.732 223.444 125.732C223.572 125.732 223.682 127.061 223.682 128.701C223.682 130.332 223.572 131.661 223.444 131.661Z" fill="#E0E0E0"/>
<path d="M220.014 105.791C220.014 107.285 218.803 108.494 217.308 108.494C215.813 108.494 214.603 107.285 214.603 105.791C214.603 104.297 215.813 103.088 217.308 103.088C218.803 103.088 220.014 104.297 220.014 105.791Z" fill="#E0E0E0"/>
<path d="M217.308 111.72C217.18 111.72 217.07 110.391 217.07 108.76C217.07 107.12 217.18 105.791 217.308 105.791C217.437 105.791 217.547 107.12 217.547 108.76C217.547 110.391 217.446 111.72 217.308 111.72Z" fill="#E0E0E0"/>
<path d="M135.066 151.731C135.066 153.224 133.855 154.434 132.36 154.434C130.865 154.434 129.655 153.224 129.655 151.731C129.655 150.237 130.865 149.027 132.36 149.027C133.855 149.027 135.066 150.237 135.066 151.731Z" fill="#E0E0E0"/>
<path d="M132.36 157.66C132.232 157.66 132.122 156.331 132.122 154.7C132.122 153.059 132.232 151.731 132.36 151.731C132.489 151.731 132.599 153.059 132.599 154.7C132.599 156.331 132.489 157.66 132.36 157.66Z" fill="#E0E0E0"/>
<path d="M197.947 126.154C197.947 127.647 196.736 128.857 195.241 128.857C193.746 128.857 192.536 127.647 192.536 126.154C192.536 124.66 193.746 123.45 195.241 123.45C196.736 123.45 197.947 124.66 197.947 126.154Z" fill="#E0E0E0"/>
<path d="M195.241 132.083C195.113 132.083 195.003 130.754 195.003 129.123C195.003 127.482 195.113 126.154 195.241 126.154C195.37 126.154 195.48 127.482 195.48 129.123C195.48 130.754 195.37 132.083 195.241 132.083Z" fill="#E0E0E0"/>
<path d="M121.978 65.2673C121.978 66.761 120.767 67.9707 119.272 67.9707C117.777 67.9707 116.567 66.761 116.567 65.2673C116.567 63.7735 117.777 62.5638 119.272 62.5638C120.767 62.5638 121.978 63.7735 121.978 65.2673Z" fill="#E0E0E0"/>
<path d="M119.272 71.1965C119.144 71.1965 119.034 69.8677 119.034 68.2365C119.034 66.5961 119.144 65.2673 119.272 65.2673C119.401 65.2673 119.511 66.5961 119.511 68.2365C119.511 69.8677 119.401 71.1965 119.272 71.1965Z" fill="#E0E0E0"/>
<path d="M153.024 80.0674C153.024 81.5612 151.813 82.7708 150.318 82.7708C148.823 82.7708 147.613 81.5612 147.613 80.0674C147.613 78.5737 148.823 77.364 150.318 77.364C151.813 77.364 153.024 78.5737 153.024 80.0674Z" fill="#E0E0E0"/>
<path d="M150.318 85.9966C150.19 85.9966 150.08 84.6678 150.08 83.0366C150.08 81.3962 150.19 80.0674 150.318 80.0674C150.447 80.0674 150.557 81.3962 150.557 83.0366C150.557 84.677 150.447 85.9966 150.318 85.9966Z" fill="#E0E0E0"/>
<path d="M103.681 126.823C103.681 128.316 102.47 129.526 100.975 129.526C99.4802 129.526 98.2695 128.316 98.2695 126.823C98.2695 125.329 99.4802 124.119 100.975 124.119C102.47 124.119 103.681 125.329 103.681 126.823Z" fill="#E0E0E0"/>
<path d="M100.975 132.752C100.847 132.752 100.737 131.423 100.737 129.792C100.737 128.151 100.847 126.823 100.975 126.823C101.104 126.823 101.214 128.151 101.214 129.792C101.214 131.423 101.104 132.752 100.975 132.752Z" fill="#E0E0E0"/>
<path d="M106.386 82.7708C106.386 84.2646 105.176 85.4742 103.681 85.4742C102.186 85.4742 100.975 84.2646 100.975 82.7708C100.975 81.277 102.186 80.0674 103.681 80.0674C105.176 80.0674 106.386 81.277 106.386 82.7708Z" fill="#E0E0E0"/>
<path d="M103.681 88.6999C103.552 88.6999 103.442 87.3711 103.442 85.7399C103.442 84.0995 103.552 82.7708 103.681 82.7708C103.809 82.7708 103.919 84.0995 103.919 85.7399C103.919 87.3711 103.809 88.6999 103.681 88.6999Z" fill="#E0E0E0"/>
<path d="M222.82 208.823L245.116 197.01L245.034 218.317L222.82 208.823Z" fill="#EBEBEB"/>
<path d="M130.178 284.372L81.311 309.573V262.562L86.7223 260.142L130.178 284.372Z" fill="#EBEBEB"/>
<path d="M203.165 309.574C203.165 311.296 201.771 312.689 200.047 312.689C198.323 312.689 196.929 311.296 196.929 309.574C196.929 307.851 198.323 306.458 200.047 306.458C201.771 306.458 203.165 307.86 203.165 309.574Z" fill="#055EFF"/>
<path d="M231.698 87.1696L247.262 91.8982V116.403L231.698 87.1696Z" fill="#EBEBEB"/>
<path d="M247.418 54.4444L247.327 27.7035C246.052 18.3194 238.045 11.0523 228.296 11.0065L203.743 10.8965C200.451 10.8782 197.772 13.6549 197.754 17.1006L197.736 21.5544C197.727 24.9909 195.039 27.7676 191.747 27.7585L143.889 27.5385C140.596 27.5202 137.937 24.7251 137.955 21.2794L137.973 16.8257C137.992 13.3891 135.332 10.5849 132.039 10.5666L123.4 10.5299L101.911 10.4291C96.8661 10.4016 92.2711 12.3353 88.8226 15.4877C85.374 18.6402 81.9441 24.6566 83.0172 29.1837L247.308 82.7157L247.418 54.4444Z" fill="url(#paint1_linear)"/>
<path d="M188.637 80.2229C188.637 71.0771 179.026 65.2854 169.221 69.8675C167.011 70.903 165.176 72.6533 164.067 74.8069C161.599 79.5814 162.691 85.0341 164.929 89.552L172.56 108.87C173.66 111.656 177.613 111.638 178.686 108.842L186.17 89.4237C188.748 83.522 188.637 80.2229 188.637 80.2229ZM179.429 88.1774C172.844 92.008 166.158 84.9333 169.771 77.9502C170.248 77.0246 170.991 76.2457 171.863 75.7325C178.448 71.9019 185.134 78.9766 181.52 85.9597C181.043 86.8944 180.3 87.6733 179.429 88.1774Z" fill="#055EFF"/>
<path d="M228.296 11.0064C228.296 11.0064 228.516 11.0064 228.956 11.0339C229.396 11.0797 230.057 11.0339 230.91 11.1988C232.625 11.4096 235.22 11.9778 238.146 13.7281C239.623 14.5712 241.118 15.7717 242.539 17.3113C243.952 18.8509 245.263 20.7845 246.189 23.0847C247.134 25.3849 247.639 28.0608 247.602 30.92C247.593 33.7701 247.584 36.8034 247.574 40.02C247.483 65.7437 247.354 102.959 247.189 148.945C247.006 194.93 246.795 249.686 246.556 310.49C246.529 318.087 246.492 325.785 246.465 333.565C246.455 335.508 246.446 337.46 246.437 339.421C246.41 341.382 246.272 343.398 245.676 345.295C245.116 347.201 244.318 349.052 243.19 350.72C242.071 352.379 240.714 353.882 239.155 355.156C236.009 357.657 232.074 359.243 228.002 359.426C226.984 359.49 225.975 359.481 224.966 359.472L221.94 359.463C219.922 359.454 217.895 359.444 215.859 359.435C207.733 359.399 199.533 359.362 191.251 359.325C174.697 359.252 157.848 359.17 140.752 359.096C132.204 359.06 123.592 359.014 114.925 358.977C110.587 358.959 106.24 358.94 101.883 358.913C97.5082 359.115 92.9774 357.951 89.3362 355.394C85.6767 352.865 82.9803 349.043 81.7329 344.809C81.0634 342.702 80.9442 340.456 80.9534 338.285C80.9625 336.113 80.9717 333.941 80.9809 331.778C81.0176 323.118 81.0542 314.504 81.0909 305.963C81.1643 288.872 81.2377 272.037 81.311 255.496C81.4578 222.404 81.5954 190.486 81.7329 160.088C81.8705 129.682 81.9989 100.787 82.1182 73.7531C82.1824 60.236 82.2374 47.1772 82.3016 34.6223C82.3108 33.0553 82.3199 31.4882 82.3199 29.9394C82.3383 29.1605 82.3933 28.3816 82.4392 27.6026C82.5767 26.8328 82.6409 26.0539 82.8427 25.3024C83.5581 22.2874 84.9705 19.4649 86.9333 17.1463C88.9143 14.837 91.3907 13.0133 94.1146 11.8312C96.8386 10.6215 99.8194 10.1999 102.699 10.2458C108.45 10.2733 114.072 10.3007 119.538 10.3282C122.272 10.3466 124.977 10.3557 127.637 10.3741C128.967 10.3832 130.297 10.3924 131.608 10.3924C132.938 10.3282 134.314 10.704 135.396 11.4646C136.478 12.2252 137.313 13.3249 137.744 14.5621C138.23 15.7992 138.111 17.1372 138.12 18.3652C138.12 18.9975 138.111 19.6207 138.111 20.2438C138.111 20.867 138.083 21.4901 138.166 22.0858C138.313 23.2863 138.817 24.4318 139.597 25.3299C140.367 26.2371 141.422 26.897 142.55 27.1811C143.119 27.3277 143.696 27.3735 144.293 27.3643C144.889 27.3643 145.485 27.3735 146.072 27.3735C148.438 27.3827 150.759 27.401 153.042 27.4102C162.187 27.456 170.689 27.5018 178.521 27.5476C182.437 27.5659 186.18 27.5934 189.756 27.6118C190.646 27.6026 191.545 27.6576 192.389 27.5934C193.242 27.5018 194.058 27.2085 194.764 26.7687C196.186 25.8889 197.158 24.4227 197.497 22.8831C197.681 22.1133 197.653 21.316 197.662 20.5371C197.662 19.7581 197.672 18.9883 197.672 18.2277C197.681 17.4763 197.644 16.7156 197.782 15.9825C197.91 15.2494 198.167 14.5529 198.515 13.9206C199.212 12.6559 200.35 11.7029 201.606 11.2172C202.872 10.6765 204.22 10.8414 205.44 10.8231C210.393 10.8506 214.584 10.8781 217.968 10.9056C221.353 10.9331 223.939 10.9514 225.673 10.9606C227.406 10.9789 228.296 11.0064 228.296 11.0064C228.296 11.0064 227.406 11.0155 225.673 11.0155C223.93 11.0155 221.353 11.0064 217.968 11.0064C214.584 10.9972 210.393 10.9881 205.44 10.9697C204.211 10.9972 202.89 10.8323 201.661 11.3638C200.441 11.8403 199.341 12.7751 198.662 14.0122C198.323 14.6262 198.075 15.3044 197.947 16.0192C197.809 16.734 197.855 17.4763 197.846 18.2369C197.846 18.9975 197.837 19.7673 197.837 20.5462C197.827 21.3252 197.864 22.1316 197.681 22.9289C197.341 24.5235 196.342 26.0355 194.874 26.9428C194.14 27.401 193.297 27.7034 192.416 27.8042C191.527 27.8775 190.655 27.8225 189.756 27.8317C186.189 27.8225 182.437 27.8042 178.521 27.7859C170.689 27.7584 162.187 27.7217 153.042 27.6851C150.759 27.6759 148.429 27.6667 146.072 27.6576C145.485 27.6576 144.889 27.6484 144.293 27.6484C143.706 27.6576 143.073 27.6118 142.477 27.4651C141.284 27.1627 140.175 26.4846 139.377 25.5315C138.56 24.5876 138.028 23.3871 137.873 22.1316C137.79 21.4993 137.817 20.867 137.817 20.253C137.817 19.6298 137.827 19.0067 137.827 18.3743C137.817 17.1189 137.928 15.845 137.46 14.672C137.056 13.4899 136.258 12.4452 135.222 11.7212C134.176 10.9972 132.911 10.649 131.608 10.704C130.297 10.6948 128.967 10.6948 127.637 10.6856C124.968 10.6765 122.272 10.6673 119.538 10.649C114.063 10.6307 108.45 10.6032 102.699 10.5757C99.8378 10.5299 96.9303 10.9514 94.2522 12.1427C91.5833 13.3157 89.1528 15.1027 87.2084 17.3663C85.2824 19.6481 83.8975 22.4157 83.2004 25.3757C82.9986 26.1089 82.9436 26.8786 82.806 27.6301C82.7602 28.3907 82.7051 29.1605 82.696 29.9303C82.6868 31.479 82.6868 33.0461 82.6776 34.6132C82.6318 47.168 82.5767 60.2177 82.5217 73.7439C82.4116 100.787 82.3016 129.673 82.1824 160.079C82.054 190.486 81.9255 222.404 81.7971 255.487C81.7238 272.028 81.6596 288.872 81.5862 305.953C81.5495 314.494 81.5128 323.109 81.4761 331.769C81.467 333.932 81.4578 336.103 81.4486 338.275C81.4395 340.438 81.5495 342.601 82.2099 344.663C83.4297 348.787 86.0528 352.516 89.6297 354.991C93.2067 357.474 97.5632 358.62 101.911 358.418C106.276 358.436 110.624 358.455 114.953 358.482C123.62 358.519 132.232 358.565 140.78 358.601C157.876 358.684 174.724 358.757 191.279 358.84C199.552 358.876 207.76 358.913 215.886 358.959C217.913 358.968 219.94 358.977 221.967 358.986L224.994 359.005C226.003 359.014 227.012 359.023 228.002 358.959C231.983 358.785 235.826 357.227 238.898 354.789C240.421 353.543 241.75 352.077 242.842 350.454C243.942 348.832 244.722 347.018 245.272 345.158C245.859 343.288 245.988 341.345 246.024 339.403C246.034 337.441 246.043 335.499 246.052 333.547C246.089 325.766 246.116 318.068 246.153 310.471C246.428 249.668 246.676 194.912 246.887 148.926C247.116 102.941 247.299 65.7253 247.428 40.0017C247.446 36.785 247.464 33.7517 247.474 30.9017C247.519 28.0608 247.024 25.4032 246.089 23.1122C245.171 20.8212 243.878 18.9059 242.475 17.3663C241.072 15.8267 239.586 14.6262 238.118 13.7831C235.22 12.0236 232.634 11.4371 230.928 11.2172C230.075 11.043 229.415 11.0889 228.974 11.0339C228.516 11.0247 228.296 11.0064 228.296 11.0064Z" fill="#263238"/>
<path d="M217.427 371.367C217.427 371.367 215.501 365.099 215.887 362.45C216.272 359.802 219.84 357.392 219.84 357.392L215.969 256.907C215.969 256.907 215.465 212.956 238.752 199.292L252.647 195.792L286.921 193.766C288.031 194.133 328.313 209.272 333.852 215.183L316.481 303.8C316.481 303.8 318.591 329.982 320.7 348.805C321.131 352.654 324.02 371.651 324.02 371.651L217.427 371.367Z" fill="#007CFF"/>
<g opacity="0.3">
<path opacity="0.3" d="M320.067 342.876C319.746 345.323 318.811 348.301 316.463 349.052C314.115 349.813 311.565 349.593 309.135 349.153C300.541 347.623 292.635 343.591 284.876 339.604C270.366 332.163 255.728 324.63 243.209 314.192C241.448 312.726 239.568 310.435 240.65 308.419C241.87 306.128 245.309 306.897 247.666 307.979C272.265 319.315 295.469 331.54 320.067 342.876Z" fill="black"/>
</g>
<path d="M233.551 202.023C233.551 202.023 218.207 207.137 213.245 221.341C207.761 237.03 204.129 267.492 204.129 267.492L219.289 269.398L233.551 202.023Z" fill="#007CFF"/>
<path d="M333.852 215.174C333.852 215.174 342.079 225.987 346.087 239.129C350.086 252.27 352.379 290.356 352.379 290.356L311.106 289.779L308.914 256.275C308.914 256.275 304.75 200.365 333.852 215.174Z" fill="#1081FA"/>
<path d="M222.453 359.215C222.453 359.197 222.628 359.215 222.949 359.27C223.325 359.334 223.783 359.426 224.343 359.527C225.618 359.774 227.351 360.095 229.461 360.498C233.78 361.305 239.77 362.349 246.41 363.275C253.059 364.201 259.094 364.833 263.478 365.236C265.615 365.429 267.367 365.584 268.669 365.694C269.238 365.749 269.706 365.795 270.082 365.832C270.403 365.868 270.577 365.896 270.568 365.914C270.568 365.933 270.394 365.933 270.073 365.933C269.697 365.923 269.229 365.905 268.66 365.887C267.431 365.841 265.652 365.731 263.46 365.575C259.067 365.264 253.013 364.677 246.355 363.751C239.705 362.826 233.716 361.726 229.406 360.837C227.25 360.388 225.508 360.003 224.315 359.71C223.765 359.573 223.306 359.463 222.94 359.371C222.619 359.279 222.453 359.234 222.453 359.215Z" fill="#263238"/>
<path d="M242.613 356.824C242.622 356.805 242.879 356.86 243.374 356.988C243.869 357.098 244.585 357.337 245.539 357.511C247.419 357.942 250.189 358.4 253.637 358.556C257.086 358.711 261.213 358.455 265.661 357.447C270.109 356.448 274.842 354.633 279.318 351.875C283.766 349.071 287.48 345.616 290.324 342.06C293.185 338.504 295.23 334.912 296.606 331.75C297.991 328.589 298.789 325.904 299.229 324.025C299.486 323.09 299.587 322.348 299.706 321.853C299.816 321.358 299.88 321.093 299.89 321.102C299.908 321.102 299.871 321.368 299.798 321.872C299.706 322.376 299.633 323.127 299.404 324.071C299.018 325.968 298.266 328.69 296.909 331.888C295.57 335.086 293.534 338.734 290.663 342.335C287.811 345.937 284.059 349.437 279.565 352.278C275.035 355.073 270.247 356.888 265.753 357.868C261.259 358.858 257.086 359.087 253.619 358.885C250.143 358.693 247.373 358.18 245.493 357.685C244.548 357.474 243.833 357.208 243.347 357.071C242.86 356.933 242.604 356.842 242.613 356.824Z" fill="#263238"/>
<path d="M250.739 195.746C250.757 195.746 250.757 195.975 250.757 196.406C250.757 196.882 250.748 197.515 250.748 198.293C250.766 199.925 250.73 202.335 251.445 205.157C251.83 206.55 252.399 208.062 253.426 209.428C254.417 210.812 255.847 211.994 257.526 212.91C259.204 213.836 261.139 214.496 263.185 214.935C265.23 215.385 267.404 215.614 269.632 215.559C274.081 215.467 278.281 214.23 281.546 212.195C284.839 210.179 287.068 207.357 288.388 204.782C289.7 202.17 290.094 199.787 290.177 198.165C290.232 196.534 290.067 195.627 290.122 195.627C290.14 195.627 290.177 195.847 290.241 196.277C290.314 196.708 290.351 197.35 290.36 198.174C290.333 199.815 289.993 202.252 288.691 204.928C287.389 207.577 285.142 210.482 281.785 212.571C278.465 214.679 274.182 215.953 269.651 216.035C267.385 216.09 265.175 215.861 263.093 215.394C261.011 214.945 259.048 214.257 257.324 213.295C255.6 212.342 254.123 211.105 253.114 209.666C252.06 208.246 251.491 206.679 251.124 205.249C250.436 202.353 250.537 199.934 250.565 198.293C250.592 197.469 250.638 196.836 250.665 196.406C250.693 195.966 250.72 195.737 250.739 195.746Z" fill="#263238"/>
<path d="M306.621 221.35L316.334 223.916L314.931 227.307L305.787 225.483L306.621 221.35Z" fill="#263238"/>
<path d="M306.832 224.603C306.777 224.548 307.318 223.916 308.199 222.972L308.364 222.798L308.492 223.009C308.868 223.595 309.263 224.209 309.666 224.851L309.355 224.768C309.703 224.567 310.061 224.365 310.428 224.154C310.813 223.944 311.18 223.742 311.537 223.54L311.739 223.43L311.849 223.632C312.216 224.31 312.565 224.952 312.904 225.566L312.656 225.492C313.794 224.915 314.537 224.585 314.564 224.649C314.601 224.713 313.931 225.162 312.831 225.813L312.675 225.905L312.574 225.74C312.216 225.135 311.84 224.512 311.436 223.852L311.748 223.944C311.391 224.145 311.024 224.356 310.648 224.567C310.272 224.778 309.914 224.97 309.565 225.172L309.364 225.282L309.254 225.089C308.868 224.429 308.502 223.797 308.153 223.201L308.447 223.238C307.52 224.127 306.887 224.658 306.832 224.603Z" fill="#11DE9A"/>
<path d="M226.975 279.588L216.391 260.078H184.198L183.18 262.021L210.429 307.292L241.283 308.776L226.975 279.588Z" fill="#455A64"/>
<path d="M349.728 290.356V324.456C349.728 330.678 346.931 336.571 342.106 340.511C336.227 345.304 328.193 346.514 321.168 343.646L246.034 310.371L253.389 285.334L313.83 305.239L313.757 289.715L349.728 290.356Z" fill="#FFBE9D"/>
<path d="M225.957 281.522L215.373 262.021H183.18L209.411 309.225L240.265 310.71L225.957 281.522Z" fill="#263238"/>
<path d="M256.352 288.01L251.261 281.696C247.905 277.536 242.851 275.125 237.504 275.125H233.056L230.02 278.535C230.02 278.535 208.247 279.478 207.449 282.164L207.43 283.034L207.421 283.538L226.039 284.794C226.039 284.794 210.2 284.748 209.246 284.775C208.201 284.812 204.826 284.51 204.899 286.37C204.954 287.9 206.761 289.101 209.503 289.504C210.631 289.669 224.352 290.86 224.352 290.86C224.352 290.86 209.943 290.723 209.246 290.723C207.549 290.714 207.77 293.426 208.769 293.765C209.567 294.031 228.91 299.676 228.91 299.676C228.91 299.676 225.654 301.857 223.004 301.665C220.344 301.472 215.795 298.063 214.85 299.676C213.905 301.289 214.089 302.233 214.658 302.618C215.226 302.994 221.49 306.219 223.572 306.788C225.654 307.356 242.695 310.05 242.695 310.05L248.84 311.04L256.352 288.01Z" fill="#FFBE9D"/>
<path d="M187.684 269.627C187.684 269.627 184.318 270.8 186.033 275.125C188.537 281.449 192.866 285.93 192.866 285.93C192.866 285.93 192.269 288.166 194.205 289.806C194.205 289.806 191.82 290.402 193.306 294.425C193.306 294.425 191.664 298.595 196.14 300.382C196.14 300.382 194.948 303.809 199.267 305.449C203.587 307.09 207.76 304.258 207.76 304.258L187.684 269.627Z" fill="#FFBE9D"/>
<path d="M194.507 285.6C197.571 286.425 200.927 287.085 203.762 288.157C204.697 288.514 205.614 288.533 206.229 289.311C206.843 290.09 206.99 291.337 206.284 292.042C205.66 292.656 204.669 292.647 203.798 292.546C200.533 292.152 197.406 291.034 194.315 289.916" fill="#FFBE9D"/>
<path d="M195.727 290.704C198.791 291.529 202.147 292.189 204.981 293.261C205.917 293.619 206.834 293.637 207.449 294.416C208.063 295.195 208.21 296.441 207.504 297.147C206.88 297.761 205.889 297.752 205.018 297.651C201.753 297.257 198.625 296.139 195.535 295.021" fill="#FFBE9D"/>
<path d="M197.47 295.955C200.533 296.78 203.89 297.44 206.724 298.512C207.659 298.87 208.577 298.888 209.191 299.667C209.806 300.446 209.952 301.692 209.246 302.398C208.622 303.012 207.632 303.003 206.761 302.902C203.495 302.508 200.368 301.39 197.277 300.272" fill="#FFBE9D"/>
<path d="M194.498 290.017C194.553 289.889 196.708 290.64 199.423 291.392C202.129 292.152 204.376 292.62 204.348 292.757C204.33 292.885 202.037 292.62 199.295 291.85C196.553 291.098 194.443 290.127 194.498 290.017Z" fill="#EB996E"/>
<path d="M193.93 294.517C193.975 294.388 196.452 295.204 199.533 296.102C202.615 297.009 205.137 297.651 205.11 297.788C205.082 297.917 202.505 297.477 199.405 296.56C196.296 295.662 193.884 294.636 193.93 294.517Z" fill="#EB996E"/>
<path d="M195.938 300.308C195.966 300.18 198.323 300.657 201.193 301.371C204.064 302.086 206.366 302.774 206.339 302.902C206.311 303.03 203.954 302.554 201.083 301.839C198.203 301.124 195.901 300.437 195.938 300.308Z" fill="#EB996E"/>
<path d="M191.967 284.977C192.013 284.849 194.727 285.765 198.139 286.635C201.551 287.524 204.358 288.028 204.339 288.166C204.33 288.23 203.615 288.184 202.459 288.01C201.313 287.836 199.735 287.534 198.011 287.094C196.296 286.654 194.764 286.15 193.682 285.747C192.6 285.343 191.948 285.032 191.967 284.977Z" fill="#EB996E"/>
<path d="M222.609 278.791C222.609 278.663 226.03 278.534 230.249 278.516C234.468 278.498 237.889 278.58 237.889 278.718C237.889 278.846 234.468 278.974 230.249 278.993C226.03 279.011 222.609 278.928 222.609 278.791Z" fill="#EB996E"/>
<path d="M199.524 270.204C200.221 270.763 201.239 270.653 201.799 269.957C202.358 269.26 202.248 268.243 201.551 267.684C200.854 267.125 199.836 267.235 199.277 267.932C198.717 268.628 198.827 269.645 199.524 270.204Z" fill="#EBEBEB"/>
<path d="M309.896 304.35C309.905 304.313 310.162 304.35 310.639 304.432C311.115 304.505 311.785 304.68 312.61 304.936C314.252 305.44 316.453 306.402 318.618 307.896C320.782 309.399 322.452 311.131 323.497 312.487C324.02 313.166 324.414 313.743 324.653 314.155C324.9 314.568 325.02 314.806 324.992 314.824C324.928 314.87 324.341 313.99 323.231 312.707C322.131 311.424 320.461 309.775 318.343 308.299C316.224 306.833 314.087 305.843 312.5 305.266C310.905 304.67 309.877 304.423 309.896 304.35Z" fill="#EB996E"/>
<path d="M268.908 214.019C258.993 213.231 251.509 204.708 252.004 194.784C252.353 187.819 252.711 181.541 252.711 181.541C252.711 181.541 237.77 179.223 237.587 164.295C237.403 149.366 239.99 115.092 239.99 115.092C257.287 107.669 277.245 110.171 292.158 121.645L294.368 123.349L288.709 197.111C287.93 207.247 279.052 214.825 268.908 214.019Z" fill="#FFBE9D"/>
<path d="M252.683 181.322C252.683 181.322 262.121 182.091 272.154 175.796C272.154 175.796 267.55 186.536 252.646 185.198L252.683 181.322Z" fill="#EB996E"/>
<path d="M243.667 138.488C243.631 139.616 244.548 140.578 245.722 140.642C246.896 140.706 247.877 139.845 247.923 138.717C247.96 137.59 247.043 136.628 245.869 136.564C244.695 136.5 243.713 137.361 243.667 138.488Z" fill="#263238"/>
<path d="M242.814 136.087C243.08 136.362 244.695 135.171 246.988 135.18C249.28 135.153 250.968 136.335 251.216 136.051C251.335 135.922 251.069 135.428 250.335 134.887C249.611 134.355 248.382 133.842 246.951 133.842C245.52 133.851 244.319 134.374 243.631 134.914C242.925 135.464 242.686 135.959 242.814 136.087Z" fill="#263238"/>
<path d="M265.322 139.02C265.285 140.147 266.202 141.109 267.376 141.173C268.55 141.237 269.531 140.376 269.577 139.249C269.614 138.122 268.697 137.159 267.523 137.095C266.349 137.031 265.358 137.893 265.322 139.02Z" fill="#263238"/>
<path d="M265.377 136.518C265.643 136.793 267.258 135.601 269.55 135.611C271.843 135.583 273.531 136.765 273.779 136.481C273.898 136.353 273.632 135.858 272.898 135.317C272.174 134.786 270.945 134.273 269.514 134.273C268.083 134.282 266.882 134.804 266.184 135.345C265.487 135.886 265.249 136.39 265.377 136.518Z" fill="#263238"/>
<path d="M257.049 153.527C257.058 153.398 255.636 153.151 253.316 152.858C252.729 152.794 252.179 152.684 252.078 152.28C251.94 151.859 252.188 151.226 252.472 150.548C253.022 149.128 253.6 147.643 254.206 146.085C256.609 139.735 258.36 134.511 258.104 134.419C257.847 134.328 255.691 139.396 253.279 145.746C252.701 147.313 252.142 148.807 251.619 150.237C251.399 150.906 251.014 151.657 251.317 152.537C251.472 152.977 251.904 153.288 252.28 153.389C252.656 153.499 252.986 153.508 253.279 153.527C255.591 153.646 257.04 153.655 257.049 153.527Z" fill="#263238"/>
<path d="M263.799 155.112C263.423 155.094 263.423 157.577 261.286 159.346C259.158 161.115 256.498 160.84 256.48 161.188C256.443 161.344 257.076 161.674 258.195 161.701C259.296 161.738 260.901 161.389 262.203 160.308C263.506 159.227 264.065 157.779 264.148 156.752C264.249 155.717 263.973 155.103 263.799 155.112Z" fill="#263238"/>
<path d="M264.78 127.528C265.01 128.151 267.303 127.858 269.99 128.179C272.686 128.444 274.86 129.233 275.218 128.674C275.374 128.408 274.998 127.821 274.117 127.216C273.246 126.612 271.861 126.043 270.238 125.86C268.623 125.686 267.138 125.943 266.156 126.337C265.184 126.74 264.689 127.226 264.78 127.528Z" fill="#B42E16"/>
<path d="M243.658 129.453C244.062 129.975 245.639 129.434 247.547 129.407C249.446 129.315 251.06 129.755 251.427 129.214C251.592 128.948 251.335 128.426 250.629 127.931C249.932 127.436 248.776 127.042 247.465 127.079C246.162 127.125 245.025 127.592 244.365 128.124C243.695 128.655 243.475 129.196 243.658 129.453Z" fill="#B42E16"/>
<path d="M292.525 138.809C292.782 138.699 302.788 135.776 302.467 145.985C302.137 156.194 291.956 153.756 291.947 153.463C291.938 153.16 292.525 138.809 292.525 138.809Z" fill="#FFBE9D"/>
<path d="M295.184 149.687C295.23 149.659 295.359 149.815 295.652 149.962C295.946 150.108 296.441 150.209 296.982 150.035C298.074 149.678 299.037 147.991 299.147 146.149C299.202 145.224 299.037 144.335 298.734 143.593C298.45 142.832 297.982 142.301 297.441 142.181C296.909 142.044 296.505 142.356 296.377 142.64C296.23 142.924 296.285 143.125 296.23 143.144C296.203 143.171 296.019 142.97 296.111 142.548C296.157 142.346 296.285 142.108 296.533 141.925C296.78 141.732 297.147 141.641 297.523 141.696C298.312 141.778 298.991 142.52 299.33 143.336C299.706 144.161 299.917 145.16 299.853 146.204C299.724 148.257 298.605 150.145 297.12 150.53C296.395 150.695 295.799 150.457 295.505 150.209C295.203 149.934 295.157 149.705 295.184 149.687Z" fill="#EB996E"/>
<path d="M234.266 102.189C236.44 97.9096 240.659 94.7204 245.373 93.8224C250.088 92.9151 255.196 94.3081 258.801 97.4788C261.057 92.9884 265.643 89.7352 270.632 89.0937C275.621 88.443 280.886 90.4225 284.215 94.1889C287.077 97.433 288.563 101.832 291.919 104.563C294.827 106.927 298.761 107.706 301.678 110.052C304.897 112.627 306.493 117.063 305.668 121.104C304.842 125.136 301.623 128.591 297.652 129.7C300.852 135.473 297.853 143.758 291.69 146.14L290.204 145.526C284.555 139.331 283.261 129.544 287.113 122.094C286.93 122.103 286.756 122.075 286.581 122.066C284.619 123.138 282.353 123.679 280.115 123.542C276.548 123.331 273.108 121.425 271.036 118.51C266.954 121.452 261.112 121.7 256.801 119.106C256.122 118.694 255.444 118.217 254.655 118.135C253.719 118.034 252.83 118.52 251.977 118.932C249.739 120.032 247.217 120.747 244.75 120.389C242.448 120.059 240.228 118.62 239.32 116.504C239.265 116.494 239.21 116.494 239.155 116.485C236.275 115.963 233.964 113.507 233.175 110.694C232.377 107.88 232.946 104.801 234.266 102.189Z" fill="#B42E16"/>
<defs>
<linearGradient id="paint0_linear" x1="152.818" y1="109.645" x2="152.818" y2="308.393" gradientUnits="userSpaceOnUse">
<stop stop-color="#2AF598"/>
<stop offset="1" stop-color="#009EFD"/>
</linearGradient>
<linearGradient id="paint1_linear" x1="88.86" y1="17.5103" x2="270.768" y2="91.8543" gradientUnits="userSpaceOnUse">
<stop stop-color="#4FACFE"/>
<stop offset="1" stop-color="#00F2FE"/>
</linearGradient>
</defs>
</svg>
