<svg width="195" height="180" viewBox="0 0 195 180" fill="none" xmlns="http://www.w3.org/2000/svg">
<g clip-path="url(#clip0)">
<path d="M10.1525 90.4008C8.25049 91.3025 7.0754 93.5243 7.38909 95.6066C9.37579 94.7498 11.5318 94.2915 13.6977 94.2566" fill="#E0E0E0"/>
<path d="M8.77826 91.4022C7.76749 92.3487 9.94837 89.8579 10.8396 89.579C11.7309 89.3 12.6919 89.4943 13.6031 89.6935C17.7856 90.6052 22.0777 91.5567 25.6328 93.9329C29.3373 96.4037 31.9166 100.19 34.4062 103.886C34.8692 104.569 35.3422 105.291 35.4418 106.108C35.5414 106.93 35.1381 107.871 34.3464 108.101C33.958 108.21 33.5497 108.14 33.1514 108.071C31.1996 107.717 29.2477 107.368 27.3008 107.015C24.632 106.536 21.8536 106.003 19.7076 104.344C17.2479 102.441 16.0379 99.3827 14.9375 96.4735C14.096 94.2467 11.9251 93.081 10.7102 91.0286C10.7102 91.0286 9.84879 90.4009 8.77826 91.4022Z" fill="#EBEBEB"/>
<path d="M45.7239 113.934C45.7189 113.944 45.5845 113.879 45.3256 113.75C45.0517 113.61 44.6783 113.421 44.2102 113.182C43.2443 112.678 41.8551 111.951 40.1622 110.995C38.4742 110.033 36.4825 108.848 34.3913 107.343C33.3456 106.591 32.2801 105.759 31.2295 104.832C30.1789 103.906 29.1482 102.885 27.998 101.973C27.4204 101.515 26.8279 101.096 26.2055 100.748C25.5831 100.394 24.9358 100.13 24.2785 99.9007C23.6213 99.6666 22.964 99.4524 22.3466 99.1684C21.7242 98.8894 21.1566 98.5158 20.6587 98.0974C19.6628 97.2505 18.9309 96.2442 18.2786 95.3077C17.6313 94.3661 17.0637 93.4645 16.4712 92.7023C15.2961 91.168 14.0164 90.1966 13.0156 89.798C12.0148 89.3895 11.3874 89.4394 11.3924 89.3995C11.3924 89.3895 11.5418 89.3945 11.8306 89.4095C12.1144 89.4493 12.5426 89.5041 13.0505 89.7084C14.0812 90.082 15.4106 91.0534 16.6106 92.5927C17.218 93.3599 17.7956 94.2566 18.4479 95.1881C19.1052 96.1147 19.8321 97.101 20.8031 97.918C21.291 98.3215 21.8338 98.6752 22.4412 98.9442C23.0437 99.2182 23.696 99.4274 24.3582 99.6616C25.0204 99.8907 25.6926 100.165 26.33 100.523C26.9673 100.882 27.5698 101.31 28.1573 101.774C29.3274 102.7 30.3531 103.727 31.3988 104.648C32.4394 105.57 33.5 106.402 34.5357 107.159C36.607 108.663 38.5837 109.869 40.2568 110.845C41.9347 111.822 43.314 112.574 44.26 113.102C44.7181 113.361 45.0816 113.56 45.3505 113.715C45.5994 113.849 45.7289 113.924 45.7239 113.934Z" fill="#E0E0E0"/>
<path d="M164.015 31.1817C164.9 31.1817 165.618 30.4635 165.618 29.5776C165.618 28.6917 164.9 27.9736 164.015 27.9736C163.129 27.9736 162.411 28.6917 162.411 29.5776C162.411 30.4635 163.129 31.1817 164.015 31.1817Z" fill="white"/>
<path d="M171.424 31.1051C172.309 31.1051 173.027 30.3869 173.027 29.501C173.027 28.6151 172.309 27.8969 171.424 27.8969C170.538 27.8969 169.82 28.6151 169.82 29.501C169.82 30.3869 170.538 31.1051 171.424 31.1051Z" fill="white"/>
<path d="M178.828 31.1051C179.713 31.1051 180.431 30.3869 180.431 29.501C180.431 28.6151 179.713 27.8969 178.828 27.8969C177.942 27.8969 177.224 28.6151 177.224 29.501C177.224 30.3869 177.942 31.1051 178.828 31.1051Z" fill="white"/>
<path d="M24.0395 63.8291C25.6876 65.9015 28.476 67.1319 28.1722 68.7808C27.8984 70.2454 26.5938 74.674 26.7133 76.1585C26.8677 78.0914 28.6403 79.4314 30.2735 80.4726C31.9066 81.5137 33.724 82.7392 34.0577 84.6472C34.3464 86.2961 33.4004 87.9848 33.724 89.6288C34.1323 91.7111 36.3182 92.8668 38.275 93.6788C41.6161 95.0687 45.0168 96.324 48.4624 97.4399C49.2442 93.9329 47.9894 90.0472 45.3007 87.661C44.0359 86.5402 42.4675 85.7033 41.5712 84.2735C40.5007 82.5649 40.6252 80.4128 40.4858 78.4003C40.3464 76.3927 39.6891 74.1161 37.8468 73.3041C36.8211 72.8508 35.5365 72.9155 34.7298 72.1334C33.734 71.172 34.0377 69.543 33.734 68.193C33.3158 66.3099 31.6178 64.9201 29.7805 64.3173C27.9482 63.7195 25.9714 63.7693 24.0395 63.8291Z" fill="#11DE9A"/>
<path d="M53.6359 102.058C51.3455 98.3416 52.3015 93.8631 54.2135 89.9376C56.1255 86.0121 59.3221 82.8787 62.5486 79.9346C65.8349 76.9357 69.7535 73.8571 74.18 74.2656C71.6406 75.5458 70.595 78.5995 70.0622 81.3942C69.5295 84.1889 69.1809 87.2177 67.3038 89.3598C66.3627 90.4358 65.0233 91.3175 64.7295 92.7174C64.4656 93.9877 65.1627 95.3227 64.8291 96.5781C64.2864 98.6106 61.4632 99.1835 60.5918 101.096C60.1686 102.023 60.2582 103.159 59.6657 103.981C58.9138 105.027 57.3105 105.117 56.1653 104.529C55.0201 103.941 54.2234 102.86 53.4666 101.819" fill="#11DE9A"/>
<path d="M54.4873 112.554C54.4873 112.554 53.9943 111.862 53.3321 110.487C52.6649 109.112 51.8533 107.059 50.9072 104.504C50.4292 103.228 49.9213 101.829 49.3338 100.339C48.7462 98.8546 48.1089 97.2605 47.2674 95.6814C46.8542 94.8893 46.3513 94.1171 45.7388 93.4247C45.0965 92.7572 44.3197 92.1893 43.5032 91.6612C42.6866 91.1282 41.8252 90.625 40.9986 90.0173C40.1771 89.4145 39.3904 88.7121 38.7978 87.8254C38.1953 86.9437 37.9215 85.8826 37.8568 84.8663C37.7771 83.8451 37.8418 82.8438 37.7622 81.8824C37.6825 80.9209 37.4584 79.9744 36.9555 79.2122C36.6966 78.8386 36.3779 78.5148 35.9945 78.2856C35.6111 78.0515 35.1929 77.8921 34.7697 77.7427C33.9332 77.4487 33.0369 77.2046 32.3797 76.577C31.7124 75.9443 31.5431 75.0177 31.5382 74.2257C31.5282 73.4137 31.6228 72.6465 31.5979 71.9092C31.578 71.1769 31.4087 70.4845 31.1598 69.8618C30.6519 68.6114 29.8602 67.64 29.0934 66.8977C28.3166 66.1505 27.5548 65.6125 26.9324 65.1841C26.305 64.7606 25.8021 64.4468 25.4636 64.2326C25.3042 64.133 25.1797 64.0483 25.0802 63.9885C24.9955 63.9337 24.9507 63.8988 24.9557 63.8988C24.9557 63.8938 25.0055 63.9187 25.0951 63.9686C25.1947 64.0283 25.3291 64.0981 25.4934 64.1927C25.842 64.392 26.3499 64.6909 26.9922 65.1044C27.6295 65.5228 28.4013 66.0558 29.198 66.7981C29.9847 67.5404 30.8013 68.5168 31.334 69.797C31.5929 70.4347 31.7772 71.147 31.8021 71.9042C31.8319 72.6564 31.7373 73.4336 31.7573 74.2207C31.7672 74.9978 31.9365 75.8447 32.539 76.4126C33.1365 76.9855 33.9979 77.2246 34.8444 77.5135C35.2726 77.663 35.7058 77.8273 36.114 78.0714C36.5273 78.3106 36.8808 78.6642 37.1547 79.0678C37.6974 79.8847 37.9265 80.8711 38.0111 81.8575C38.0958 82.8488 38.036 83.8451 38.1107 84.8464C38.1754 85.8427 38.4343 86.839 39.007 87.6859C39.5696 88.5328 40.3364 89.2202 41.143 89.813C41.9497 90.4059 42.8111 90.909 43.6326 91.452C44.4542 91.99 45.2459 92.5679 45.9081 93.2603C46.5454 93.9826 47.0483 94.7697 47.4666 95.5718C48.3131 97.1709 48.9454 98.7699 49.523 100.264C50.1006 101.759 50.5985 103.164 51.0665 104.444C51.9927 107.005 52.7744 109.062 53.4117 110.447C53.7404 111.134 53.9893 111.667 54.1935 112.011C54.2831 112.175 54.3528 112.31 54.4126 112.41C54.4673 112.504 54.4922 112.549 54.4873 112.554Z" fill="#263238"/>
<path d="M74.0754 74.2157C74.0804 74.2256 73.9459 74.2954 73.682 74.4299C73.4231 74.5594 73.0397 74.7587 72.5667 75.0426C71.6206 75.6055 70.2862 76.5271 68.9369 77.9668C68.2647 78.6891 67.5925 79.541 66.98 80.5224C66.6813 81.0205 66.3875 81.5436 66.1236 82.1015C65.8597 82.6595 65.6008 83.2473 65.307 83.8351C65.0083 84.4229 64.6647 85.0158 64.2066 85.5538C63.7535 86.0918 63.151 86.5202 62.5137 86.854C61.8814 87.1977 61.2141 87.4817 60.6316 87.9051C60.049 88.3186 59.6059 88.9163 59.4067 89.6287C58.9884 91.0485 59.2175 92.5878 58.7345 93.9876C58.2515 95.3775 57.3403 96.4585 56.7279 97.5943C56.1005 98.7301 55.7818 99.9406 55.6623 101.091C55.5379 102.242 55.5976 103.328 55.7271 104.304C56.0059 106.262 56.5138 107.792 56.8374 108.853C57.0017 109.366 57.1312 109.769 57.2258 110.068C57.3154 110.347 57.3553 110.497 57.3453 110.497C57.3403 110.497 57.3254 110.462 57.2955 110.392C57.2607 110.307 57.2208 110.208 57.176 110.083C57.0715 109.809 56.9221 109.406 56.7428 108.883C56.3893 107.831 55.8515 106.307 55.5478 104.329C55.4034 103.343 55.3337 102.242 55.4482 101.071C55.5628 99.9007 55.8814 98.6504 56.5188 97.4847C57.1461 96.319 58.0374 95.238 58.4955 93.9079C58.9586 92.5828 58.7295 91.0584 59.1627 89.554C59.3718 88.8018 59.8648 88.1293 60.4872 87.6959C61.0996 87.2475 61.7768 86.9636 62.3992 86.6248C63.0266 86.301 63.5892 85.9025 64.0224 85.3894C64.4606 84.8813 64.7992 84.3034 65.0979 83.7255C65.3917 83.1477 65.6506 82.5598 65.9244 81.9969C66.1933 81.434 66.4971 80.9059 66.8008 80.4028C67.4282 79.4115 68.1153 78.5546 68.8074 77.8323C70.1916 76.3877 71.5509 75.486 72.5169 74.948C72.9999 74.674 73.3932 74.4897 73.6621 74.3751C73.931 74.2655 74.0754 74.2107 74.0754 74.2157Z" fill="#263238"/>
<path d="M129.793 91.731C134.463 91.3275 139.213 90.924 143.854 91.4819C148.494 92.0398 153.105 93.7037 155.62 96.6129C157.736 99.0639 158.154 102.073 158.512 104.962C159.538 113.207 160.564 121.451 161.59 129.691C161.849 131.793 162.102 133.965 161.161 135.963C159.11 140.321 151.557 142.379 145.537 141.014C139.517 139.654 135.16 135.654 133.014 131.32C130.868 126.986 130.594 122.293 130.34 117.69C129.882 109.336 129.429 100.987 128.971 92.6327C129.175 92.5031 129.379 92.3686 129.578 92.2391" fill="#263238"/>
<path d="M0 134.468L1.44894 139.564L139.811 179.766L187.407 148.342V144.058L0 134.468Z" fill="#263238"/>
<path d="M49.6375 111.403L187.407 144.058L139.811 175.128L0 134.468L49.6375 111.403Z" fill="#3D3F40"/>
<path d="M122.324 139.44L95.9739 152.183L47.6608 139.001L71.3767 126.039L122.324 139.44Z" fill="#263238"/>
<path d="M93.2652 138.902L100.266 141.213L106.739 137.691L95.959 134.229L89.6653 137.492L93.2652 138.902Z" fill="#455A64"/>
<path d="M41.5165 103.408C41.7356 104.285 47.6658 138.996 47.6658 138.996L95.9739 152.178L89.6055 115.05L41.5165 103.408Z" fill="#263238"/>
<path d="M92.4586 131.683C92.5283 131.673 93.3747 136.251 94.3457 141.911C95.3166 147.575 96.0486 152.173 95.9739 152.183C95.9042 152.193 95.0577 147.614 94.0868 141.955C93.1158 136.296 92.3839 131.693 92.4586 131.683Z" fill="#455A64"/>
<path d="M70.0373 126.881C70.6248 128.401 70.0423 130.039 68.7377 130.548C67.4332 131.056 65.8946 130.234 65.307 128.714C64.7195 127.195 65.3021 125.556 66.6066 125.048C67.9112 124.54 69.4497 125.362 70.0373 126.881Z" fill="#455A64"/>
<path d="M89.9519 115.478C91.9818 112.892 92.4204 95.8897 92.4204 95.8897L108.431 96.92C108.431 96.92 107.328 121.814 100.194 125.138C93.0598 128.461 93.0598 128.461 93.0598 128.461" fill="#FFBE9D"/>
<path d="M142.131 120.33C142.131 120.33 149.186 128.231 148.758 134.817L136.246 131.853L141.07 120.33" fill="#055EFF"/>
<path d="M152.179 98.2021C151.875 84.3582 146.408 77.5882 146.179 76.7065C139.248 69.1644 130.266 69.7024 130.266 69.7024L115.413 69.9415C115.413 69.9415 109.756 70.4546 104.414 73.1397L104.045 73.2443L104.05 73.319C99.8526 75.5159 95.3365 78.9333 94.6245 84.697L92.832 95.9205L103.159 96.4137C102.108 100.17 100.948 100.653 102.158 104.364L106.092 110.89C106.092 116.101 105.743 112.948 104.145 124.236L144.043 133.691C146.358 131.409 144.596 125.232 138.421 113.979C137.5 112.3 142.285 95.3576 142.285 95.3576L151.213 98.486" fill="#055EFF"/>
<path d="M105.479 92.1544C105.494 92.1644 105.365 92.4134 105.121 92.8618C104.877 93.3101 104.513 93.9478 104.095 94.7548C103.273 96.3489 102.138 98.6703 102.029 101.435C101.969 102.805 102.228 104.115 102.716 105.196C103.199 106.282 103.841 107.159 104.404 107.861C104.971 108.564 105.474 109.107 105.813 109.485C106.151 109.864 106.341 110.073 106.326 110.088C106.316 110.098 106.102 109.914 105.738 109.555C105.375 109.196 104.857 108.673 104.264 107.981C103.677 107.283 103.004 106.407 102.497 105.296C101.984 104.19 101.71 102.835 101.77 101.43C101.819 100.02 102.158 98.7102 102.571 97.5793C102.995 96.4435 103.492 95.4721 103.936 94.6751C104.379 93.878 104.767 93.2503 105.036 92.8219C105.31 92.3786 105.464 92.1444 105.479 92.1544Z" fill="#263238"/>
<path d="M150.74 86.2263C150.745 86.2313 150.705 86.2662 150.625 86.326C150.546 86.3857 150.431 86.4854 150.272 86.5999C149.943 86.8191 149.44 87.118 148.723 87.3522C147.304 87.8404 145.039 87.9251 142.465 87.1479C141.18 86.7693 139.826 86.2114 138.362 85.6584C136.903 85.1154 135.309 84.5475 133.567 84.418C131.829 84.2486 129.982 84.4828 128.139 84.971C126.292 85.4542 124.44 86.1715 122.538 86.8939C120.636 87.6162 118.764 88.3136 116.882 88.747C115.004 89.1854 113.112 89.3299 111.345 89.0708C109.582 88.7968 107.999 88.1642 106.56 87.5564C105.116 86.9437 103.786 86.3409 102.527 85.9274C101.267 85.514 100.077 85.2998 99.0261 85.245C97.9755 85.2001 97.0693 85.3147 96.3573 85.514C94.9233 85.9274 94.3059 86.5402 94.2859 86.4953C94.281 86.4904 94.3208 86.4605 94.4005 86.3957C94.4801 86.3359 94.5996 86.2413 94.7639 86.1317C95.0975 85.9225 95.6104 85.6335 96.3274 85.4143C97.0444 85.1951 97.9656 85.0656 99.0311 85.0955C100.097 85.1354 101.302 85.3396 102.581 85.7481C103.861 86.1516 105.2 86.7494 106.644 87.3522C108.088 87.95 109.652 88.5627 111.384 88.8267C113.117 89.0758 114.974 88.9313 116.827 88.493C118.684 88.0596 120.546 87.3721 122.448 86.6448C124.345 85.9225 126.208 85.2051 128.075 84.7169C129.937 84.2287 131.819 83.9946 133.592 84.1739C135.374 84.3134 136.982 84.9012 138.441 85.4542C139.905 86.0171 141.25 86.585 142.519 86.9686C145.059 87.7557 147.289 87.7009 148.699 87.2525C150.113 86.8142 150.715 86.1865 150.74 86.2263Z" fill="#263238"/>
<path d="M138.491 110.98C138.496 110.99 138.382 111.03 138.172 111.104C137.933 111.179 137.62 111.279 137.236 111.403C136.42 111.647 135.23 112.011 133.711 112.245C132.954 112.365 132.108 112.429 131.202 112.395C130.295 112.355 129.334 112.18 128.359 111.891C126.402 111.319 124.42 110.277 122.254 109.455C121.169 109.057 120.078 108.743 119.008 108.524C117.937 108.315 116.886 108.19 115.886 108.13C113.879 108.036 112.062 108.2 110.573 108.494C109.079 108.783 107.899 109.152 107.102 109.45C106.699 109.585 106.4 109.724 106.186 109.804C105.977 109.884 105.863 109.924 105.863 109.914C105.858 109.904 105.962 109.849 106.166 109.754C106.37 109.665 106.664 109.505 107.067 109.356C107.859 109.027 109.039 108.628 110.538 108.31C112.037 107.991 113.869 107.807 115.901 107.886C116.916 107.941 117.977 108.061 119.062 108.27C120.148 108.484 121.248 108.803 122.349 109.206C124.539 110.038 126.506 111.079 128.433 111.657C129.394 111.946 130.33 112.126 131.217 112.17C132.103 112.215 132.934 112.16 133.686 112.056C135.19 111.842 136.385 111.513 137.207 111.299C137.6 111.194 137.914 111.109 138.158 111.045C138.372 110.995 138.486 110.97 138.491 110.98Z" fill="#263238"/>
<path d="M120.402 125.596C120.402 125.611 120.163 125.596 119.74 125.526C119.316 125.456 118.709 125.322 117.967 125.108C116.483 124.699 114.531 123.852 112.301 123.195C110.07 122.542 107.914 122.487 106.45 122.876C104.971 123.245 104.229 123.902 104.199 123.842C104.195 123.837 104.239 123.793 104.324 123.723C104.414 123.658 104.538 123.538 104.727 123.434C105.086 123.195 105.653 122.911 106.4 122.697C107.894 122.253 110.105 122.283 112.37 122.946C114.626 123.613 116.558 124.485 118.017 124.933C118.744 125.167 119.336 125.332 119.754 125.431C120.173 125.526 120.407 125.576 120.402 125.596Z" fill="#263238"/>
<g opacity="0.1">
<path opacity="0.1" d="M138.815 95.1485C138.815 95.1485 132.312 109.485 137.983 118.866L140.642 117.874L138.416 113.989C138.416 113.989 138.177 113.222 138.342 112.185C138.67 110.143 139.303 106.81 140.149 103.448L138.815 95.1485Z" fill="black"/>
</g>
<path d="M127.815 43.4145C131.057 46.1675 132.543 50.5574 132.703 54.81C132.862 59.0626 132.551 63.8941 132.708 68.3311L139.209 68.1176C143.512 68.1915 148.37 67.6754 152.479 67.3035C153.16 67.2399 153.876 67.1659 154.439 66.775C155.377 66.1202 155.574 64.8373 155.684 63.7C155.865 61.9091 156.04 60.0585 155.5 58.3417C154.965 56.6248 153.521 55.0542 151.727 54.9529C151.094 54.9162 150.433 55.0543 149.843 54.8228C149.147 54.5527 148.729 53.8258 148.556 53.1007C148.382 52.3755 148.397 51.6181 148.278 50.8823C147.921 48.6898 146.263 46.7583 144.148 46.0732C142.808 45.6421 141.199 45.5981 140.308 44.5086C139.225 43.1824 139.897 41.2358 139.935 39.5264C139.979 37.1744 138.565 34.8511 136.45 33.8172C134.335 32.7834 131.636 33.0923 129.807 34.5756" fill="#986C43"/>
<path d="M122.407 78.0783C118.33 77.9762 115.055 74.6752 114.983 70.5971C114.926 67.3168 114.889 64.2064 114.889 64.2064C114.889 64.2064 108.662 63.4724 108.359 57.2758C108.055 51.0841 108.607 36.8162 108.607 36.8162C115.664 33.4698 123.973 34.211 130.329 38.7453L131.274 39.4167L130.206 70.7191C130.067 74.9014 126.588 78.183 122.407 78.0783Z" fill="#FFBE9D"/>
<path d="M110.717 48.9672C111.074 48.6224 111.078 48.0494 110.734 47.692C110.389 47.3345 109.816 47.3302 109.459 47.675C109.102 48.0199 109.097 48.5928 109.442 48.9503C109.792 49.3079 110.359 49.3171 110.717 48.9672Z" fill="#263238"/>
<path d="M108.564 47.0197C108.666 47.1219 109.256 46.6333 110.109 46.5999C110.962 46.5515 111.598 46.981 111.686 46.8686C111.732 46.8199 111.627 46.6279 111.348 46.4316C111.074 46.2354 110.615 46.0544 110.082 46.081C109.548 46.1075 109.109 46.3307 108.855 46.5535C108.6 46.7764 108.515 46.9736 108.564 47.0197Z" fill="#263238"/>
<path d="M118.407 47.441C117.992 47.7147 117.883 48.275 118.157 48.6905C118.43 49.106 118.99 49.2147 119.406 48.941C119.821 48.6674 119.93 48.107 119.656 47.6915C119.378 47.276 118.818 47.1672 118.407 47.441Z" fill="#263238"/>
<path d="M117.853 47.0882C117.955 47.1904 118.545 46.7019 119.398 46.6684C120.251 46.62 120.888 47.0495 120.975 46.9371C121.021 46.8884 120.916 46.6965 120.637 46.5001C120.363 46.3039 119.905 46.123 119.371 46.1495C118.837 46.176 118.398 46.3992 118.144 46.6221C117.889 46.8449 117.805 47.0421 117.853 47.0882Z" fill="#263238"/>
<path d="M114.759 53.8476C114.76 53.7828 114.23 53.6948 113.37 53.6035C113.147 53.588 112.968 53.5436 112.947 53.4235C112.9 53.2878 112.981 53.0506 113.082 52.7791C113.281 52.206 113.485 51.6281 113.694 51.0204C114.534 48.5149 115.113 46.4515 114.985 46.4084C114.856 46.3653 114.074 48.3589 113.23 50.8642C113.03 51.4772 112.841 52.0604 112.652 52.6338C112.581 52.8961 112.434 53.2014 112.564 53.5684C112.635 53.7495 112.811 53.8785 112.964 53.9123C113.113 53.9509 113.237 53.949 113.347 53.9468C114.218 53.9487 114.757 53.9173 114.759 53.8476Z" fill="#263238"/>
<path d="M117.78 54.6175C118.651 54.0562 115.38 56.0075 113.642 55.9889C113.642 55.9889 114.694 57.545 116.455 56.8267C118.282 56.0751 117.78 54.6175 117.78 54.6175Z" fill="white"/>
<path d="M115.174 64.2901C115.174 64.2901 119.103 64.3138 123.059 61.3977C123.059 61.3977 121.485 65.9916 115.279 65.8929L115.174 64.2901Z" fill="#EB996E"/>
<path d="M129.995 51.8051C127.709 53.5518 125.123 48.8179 123.997 45.8646C122.871 42.9063 122.578 39.6649 122.484 36.4733C122.455 35.4262 122.474 34.2805 123.102 33.474C123.766 32.6235 123.96 33.63 124.745 32.8972C126.097 31.6255 124.842 31.5891 126.158 31.7815C128.406 32.1118 133.226 36.1442 133.575 38.52C133.928 40.8958 133.534 43.3177 133.141 45.6898C132.96 46.7716 132.783 47.8535 132.601 48.9403C132.473 49.7045 132.333 50.5033 131.904 51.1254C131.465 51.7523 130.648 52.1454 129.995 51.8051Z" fill="#986C43"/>
<path d="M130.481 46.5585C130.499 46.0606 130.897 45.647 131.396 45.6445C132.551 45.6436 134.426 46.149 134.521 49.3356C134.661 53.8937 130.314 52.6487 130.302 52.5188C130.295 52.419 130.422 48.326 130.481 46.5585Z" fill="#FFBE9D"/>
<path d="M131.352 50.7561C131.373 50.7417 131.436 50.808 131.569 50.8662C131.702 50.9243 131.925 50.9548 132.162 50.8611C132.64 50.6687 133.018 49.8908 133.018 49.0686C133.019 48.6551 132.919 48.2589 132.763 47.941C132.611 47.6133 132.393 47.3836 132.15 47.3477C131.907 47.3017 131.739 47.452 131.686 47.5802C131.628 47.7083 131.66 47.7988 131.635 47.8082C131.625 47.8179 131.537 47.736 131.567 47.5473C131.584 47.4581 131.632 47.3496 131.739 47.2576C131.846 47.1656 132.006 47.1148 132.175 47.129C132.529 47.1429 132.854 47.455 133.025 47.8081C133.215 48.1617 133.339 48.6033 133.337 49.0716C133.334 49.9885 132.894 50.8644 132.241 51.0773C131.925 51.1691 131.653 51.0825 131.511 50.9793C131.365 50.866 131.337 50.7657 131.352 50.7561Z" fill="#EB996E"/>
<path d="M122.887 33.8988C121.513 38.0553 118.13 41.4937 113.999 42.935C113.648 43.0608 113.217 43.1546 112.929 42.9182C112.558 42.6099 112.718 41.9861 113.046 41.6305C113.373 41.2749 113.823 41.032 114.067 40.6146C113.285 41.0335 112.502 41.4525 111.72 41.8664C111.336 42.0711 110.943 42.2805 110.513 42.3395C110.083 42.3985 109.598 42.2817 109.337 41.9363C109.072 41.5908 109.137 41.0044 109.525 40.8098C108.981 41.6533 107.635 41.6994 106.885 41.0378C106.134 40.3761 105.949 39.2254 106.232 38.2607C106.51 37.296 107.182 36.4956 107.917 35.8114C111.196 32.774 115.878 31.765 120.34 31.5677C121.717 31.5075 123.116 31.5176 124.452 31.8501C125.789 32.1825 127.872 32.125 130.23 34.8451" fill="#986C43"/>
<path d="M111.948 44.7786C111.895 44.9168 111.083 44.7171 110.082 44.722C109.081 44.7119 108.269 44.9058 108.218 44.765C108.161 44.639 108.974 44.1959 110.085 44.2038C111.196 44.2017 112.006 44.6555 111.948 44.7786Z" fill="#263238"/>
<path d="M121.038 44.7627C120.985 44.9009 120.203 44.7119 119.238 44.6429C118.274 44.5639 117.475 44.6336 117.439 44.4882C117.402 44.3577 118.222 44.0394 119.276 44.1256C120.335 44.1969 121.096 44.6346 121.038 44.7627Z" fill="#263238"/>
<path d="M132.775 41.9018C132.706 41.8603 132.962 41.4132 133.155 40.6357C133.354 39.8683 133.442 38.7393 133.067 37.5987C132.687 36.458 131.936 35.6071 131.321 35.1083C130.701 34.6044 130.233 34.3984 130.26 34.3193C130.277 34.2599 130.812 34.3481 131.538 34.8097C132.254 35.2612 133.133 36.1602 133.559 37.4316C133.981 38.7029 133.81 39.9494 133.506 40.7391C133.202 41.5488 132.824 41.933 132.775 41.9018Z" fill="#455A64"/>
<path d="M139.29 94.9032L141.386 117.17L112.211 125.956L116.197 135.761L146.784 128.345C151.778 127.133 155.091 122.392 154.517 117.283L152.08 95.7374L139.29 94.9032Z" fill="#FFBE9D"/>
<path d="M112.39 125.902C112.39 125.902 107.198 123.866 104.697 123.049C103.725 122.731 99.3351 124.696 96.2824 126.364C96.2824 126.364 92.0916 128.497 92.3665 129.254C92.6714 130.088 94.1727 130.021 96.6157 129.057C96.6157 129.057 95.629 131.409 97.262 131.465C97.262 131.465 96.2875 134.013 97.7904 134.38C99.2982 134.748 99.8722 131.456 101.225 131.364C102.584 131.273 105.373 131.275 105.373 131.275C105.373 131.275 107.438 135.259 109.209 135.644C110.986 136.03 116.366 135.772 116.366 135.772L112.39 125.902Z" fill="#FFBE9D"/>
<path d="M101.589 126.251C101.625 126.313 100.679 126.891 99.4839 127.542C98.2888 128.193 97.2898 128.667 97.254 128.604C97.2181 128.542 98.1639 127.965 99.359 127.314C100.554 126.668 101.553 126.189 101.589 126.251Z" fill="#EB996E"/>
<path d="M101.944 127.762C101.97 127.829 100.84 128.329 99.4168 128.875C97.9941 129.421 96.8211 129.809 96.7955 129.743C96.7699 129.676 97.9 129.181 99.3231 128.629C100.746 128.083 101.919 127.696 101.944 127.762Z" fill="#EB996E"/>
<path d="M100.891 131.293C100.896 131.363 100.125 131.477 99.1679 131.545C98.2104 131.612 97.4321 131.611 97.4267 131.541C97.4213 131.471 98.1922 131.356 99.1496 131.289C100.107 131.217 100.886 131.217 100.891 131.293Z" fill="#EB996E"/>
</g>
<defs>
<clipPath id="clip0">
<rect width="195" height="179.766" fill="white"/>
</clipPath>
</defs>
</svg>
