<svg width="188" height="180" viewBox="0 0 188 200" fill="none" xmlns="http://www.w3.org/2000/svg">
<path d="M0.158691 90.3029V113.207C0.158691 115.197 0.949454 117.106 2.35702 118.513C3.76459 119.921 5.67367 120.712 7.66427 120.712H89.7929C91.7826 120.71 93.6905 119.919 95.097 118.512C96.5035 117.104 97.2936 115.196 97.2936 113.207V93.8558L107.521 83.1154L7.69312 82.8029C6.70545 82.7991 5.72674 82.9902 4.81311 83.3654C3.89947 83.7405 3.06887 84.2923 2.36891 84.9891C1.66896 85.6858 1.11342 86.5139 0.734148 87.4257C0.354872 88.3376 0.159317 89.3153 0.158691 90.3029V90.3029Z" fill="#F5F5F5"/>
<path d="M85.1866 96.6779L10.6646 96.3317L10.6694 94.0433L85.1962 94.3846L85.1866 96.6779Z" fill="#E0E0E0"/>
<path d="M85.1866 104.212L10.6646 103.87L10.6694 101.577L85.1962 101.923L85.1866 104.212Z" fill="#E0E0E0"/>
<path d="M55.7048 109.12L55.6936 111.409L85.1819 111.553L85.193 109.264L55.7048 109.12Z" fill="#E0E0E0"/>
<path d="M76.2578 169.437V192.341C76.2578 194.332 77.0486 196.241 78.4561 197.648C79.8637 199.055 81.7728 199.846 83.7634 199.846H165.882C167.872 199.845 169.78 199.054 171.187 197.646C172.593 196.239 173.383 194.331 173.383 192.341V172.99L183.61 162.25L83.7778 161.937C82.7914 161.936 81.8142 162.128 80.9022 162.504C79.9903 162.88 79.1614 163.432 78.4629 164.129C77.7645 164.825 77.2103 165.653 76.8319 166.564C76.4535 167.475 76.2584 168.451 76.2578 169.437V169.437Z" fill="#F5F5F5"/>
<path d="M161.646 175.216L87.1195 174.875L87.1243 172.582L161.651 172.928L161.646 175.216Z" fill="#E0E0E0"/>
<path d="M161.646 182.75L87.1195 182.409L87.1243 180.115L161.651 180.462L161.646 182.75Z" fill="#E0E0E0"/>
<path d="M132.157 187.654L132.146 189.942L161.634 190.087L161.645 187.798L132.157 187.654Z" fill="#E0E0E0"/>
<path d="M44.0574 4.03365H92.495C93.6427 4.03365 94.7434 4.48952 95.5549 5.30098C96.3665 6.11244 96.8224 7.213 96.8224 8.36058V32.0481C96.8224 33.1956 96.3665 34.2962 95.5549 35.1077C94.7434 35.9191 93.6427 36.375 92.495 36.375H51.3947C50.247 36.375 49.1463 35.9191 48.3347 35.1077C47.5232 34.2962 47.0673 33.1956 47.0673 32.0481V7.02884L44.0574 4.03365Z" fill="#F5F5F5"/>
<path d="M72.1228 27.0625V42.2548C72.1228 43.5745 71.5985 44.8402 70.6653 45.7733C69.732 46.7065 68.4662 47.2308 67.1464 47.2308H12.6889C12.0339 47.2327 11.385 47.1054 10.7793 46.8562C10.1736 46.6071 9.62297 46.2409 9.15895 45.7787C8.69493 45.3166 8.32662 44.7674 8.0751 44.1627C7.82359 43.558 7.6938 42.9097 7.69317 42.2548V29.4183L0.932861 22.2933L67.1464 22.0865C68.4662 22.0865 69.732 22.6108 70.6653 23.544C71.5985 24.4771 72.1228 25.7428 72.1228 27.0625V27.0625Z" fill="#E0E0E0"/>
<path d="M15.7421 31.2885L65.1703 31.0625L65.1654 29.5433L15.7373 29.774L15.7421 31.2885Z" fill="#F5F5F5"/>
<path d="M15.7421 36.2885L65.1703 36.0577L65.1654 34.5433L15.7373 34.7692L15.7421 36.2885Z" fill="#F5F5F5"/>
<path d="M35.0181 39.8413H15.4584V41.3606H35.0181V39.8413Z" fill="#F5F5F5"/>
<path d="M175.326 97.5V112.692C175.326 114.012 174.801 115.278 173.868 116.211C172.935 117.144 171.669 117.668 170.349 117.668H115.877C114.557 117.668 113.291 117.144 112.357 116.211C111.423 115.278 110.897 114.012 110.896 112.692V99.8558L104.116 92.7308L170.33 92.524C170.985 92.5221 171.634 92.6494 172.24 92.8986C172.845 93.1477 173.396 93.5139 173.86 93.9761C174.324 94.4383 174.692 94.9874 174.944 95.5921C175.195 96.1968 175.325 96.8451 175.326 97.5Z" fill="#E0E0E0"/>
<path d="M118.93 101.731L168.363 101.5L168.354 99.9808L118.926 100.212L118.93 101.731Z" fill="#F5F5F5"/>
<path d="M118.93 106.726L168.363 106.5L168.354 104.981L118.926 105.207L118.93 106.726Z" fill="#F5F5F5"/>
<path d="M137.86 110.788H118.301V112.308H137.86V110.788Z" fill="#F5F5F5"/>
<path d="M47.7837 64.8029C47.0588 64.1985 46.5067 63.4133 46.1833 62.5267C45.8599 61.6402 45.7767 60.6839 45.9422 59.7548C46.1247 58.8305 46.4891 57.9517 47.014 57.1693C47.5389 56.3869 48.2141 55.7165 49.0002 55.1971C49.7166 54.7163 50.6061 54.3125 51.4427 54.5577C51.8262 54.6975 52.1654 54.9368 52.4257 55.2512C52.686 55.5655 52.8578 55.9434 52.9237 56.3462C53.0452 57.158 52.949 57.9875 52.6448 58.75C51.7312 61.3846 50.3657 63.7692 47.7837 64.8173" fill="#455A64"/>
<path d="M45.346 69.3029C43.8647 67.9776 42.0888 67.0246 40.1655 66.523C38.2422 66.0213 36.2271 65.9854 34.2871 66.4183C33.3255 66.6442 32.1956 67.1635 32.0369 68.1586C31.8782 69.1538 32.7629 70.0048 33.638 70.5144C35.4851 71.5397 37.5944 71.9956 39.7 71.8245C41.8057 71.6534 43.8137 70.863 45.471 69.5529" fill="#455A64"/>
<path d="M31.2531 48.4663C32.0699 48.2779 32.916 48.2548 33.7418 48.3984C34.5676 48.5421 35.3563 48.8496 36.0613 49.3029C37.4774 50.2265 38.6619 51.4636 39.5232 52.9183C41.2638 55.6683 41.8792 59.3702 41.9562 62.625C38.3404 62.4808 35.2535 59.6394 33.7822 58.0961C31.4455 55.6635 28.7048 49.851 31.2243 48.4808" fill="#455A64"/>
<path d="M50.8128 74.2212C50.4837 73.785 50.1819 73.329 49.9089 72.8558C48.9732 71.0216 48.2891 69.0698 47.875 67.0529C47.4672 65.0096 47.6234 62.8939 48.327 60.9327C48.5467 60.3457 48.8391 59.7885 49.1972 59.274C49.3189 59.0777 49.4696 58.901 49.6444 58.75C49.2265 59.4771 48.8664 60.2358 48.5674 61.0192C47.9575 62.9501 47.8418 65.0032 48.2308 66.9904C48.6501 68.9804 49.2954 70.916 50.1541 72.7596" fill="#263238"/>
<path d="M50.8464 74.2644L48.9616 71.8365C47.3797 69.7837 45.1824 66.9519 42.711 63.8558C40.2396 60.7596 37.9749 57.9904 36.3305 55.9904L34.4072 53.5865C34.154 53.3072 33.9255 53.0064 33.7245 52.6875C34.0081 52.9356 34.2718 53.2057 34.513 53.4952C34.9938 54.0337 35.7007 54.8173 36.5517 55.7981C38.249 57.7596 40.5521 60.5096 43.0235 63.6058C45.4949 66.7019 47.6538 69.5625 49.1876 71.6587C49.9569 72.7067 50.5676 73.5817 50.9811 74.1538" fill="#263238"/>
<path d="M36.5421 68.5481C36.7388 68.4508 36.9498 68.3858 37.1672 68.3558C37.4146 68.2876 37.667 68.2394 37.9221 68.2115C38.2579 68.156 38.5966 68.1191 38.9366 68.101C39.824 68.045 40.7149 68.0789 41.5955 68.2019C42.6717 68.3624 43.7276 68.638 44.7449 69.024C45.7576 69.4288 46.7246 69.9397 47.6298 70.5481C48.3607 71.0522 49.0389 71.6289 49.654 72.2692C49.8943 72.511 50.1206 72.7663 50.332 73.0336C50.5057 73.2279 50.6664 73.4335 50.8128 73.649C51.0484 74 51.0147 74.1634 50.9955 74.1779C50.5266 73.5763 50.0258 73.0001 49.4954 72.4519C48.868 71.8518 48.189 71.308 47.4663 70.8269C46.5755 70.254 45.6301 69.7708 44.6439 69.3846C43.6495 69.0075 42.6204 68.7289 41.5715 68.5529C40.7131 68.4161 39.844 68.3582 38.9751 68.3798C37.4557 68.3942 36.5421 68.6154 36.5421 68.5481Z" fill="#263238"/>
<path d="M117.195 191.221L61.6602 190.962C58.4564 190.942 55.3911 189.653 53.1374 187.376C50.8836 185.099 49.6257 182.021 49.6398 178.817L50.2264 39.601C50.2404 36.3954 51.5264 33.3264 53.8019 31.0683C56.0774 28.8101 59.1563 27.5475 62.3622 27.5577L117.897 27.8125C121.101 27.8341 124.165 29.1252 126.418 31.4026C128.672 33.68 129.93 36.7579 129.917 39.9615L129.34 179.173C129.326 182.381 128.039 185.452 125.762 187.711C123.484 189.97 120.403 191.233 117.195 191.221V191.221Z" fill="#263238"/>
<path d="M117.801 32.6202L107.03 32.5673C106.679 32.5736 106.333 32.6489 106.011 32.7891C105.689 32.9292 105.398 33.1314 105.154 33.3841C104.91 33.6368 104.719 33.935 104.59 34.2618C104.462 34.5885 104.399 34.9374 104.405 35.2885V37.2404C104.411 37.5914 104.349 37.9403 104.22 38.267C104.092 38.5938 103.9 38.892 103.656 39.1447C103.412 39.3974 103.121 39.5996 102.799 39.7398C102.477 39.8799 102.131 39.9553 101.78 39.9615L80.7921 39.8654C80.0834 39.8452 79.4116 39.545 78.924 39.0304C78.4364 38.5158 78.1727 37.8288 78.1908 37.1202V35.1683C78.2089 34.4588 77.9446 33.7712 77.456 33.2564C76.9673 32.7417 76.2943 32.442 75.5848 32.4231H71.8008L62.3767 32.3798C60.1289 32.3709 57.9695 33.2545 56.3728 34.8365C54.7761 36.4186 53.8729 38.5697 53.8614 40.8173L53.2893 176.697C53.2803 178.943 54.1635 181.101 55.7448 182.697C57.3262 184.293 59.4763 185.195 61.7228 185.207L117.147 185.462C118.259 185.467 119.362 185.252 120.392 184.831C121.422 184.41 122.358 183.791 123.149 183.008C123.939 182.225 124.567 181.294 124.998 180.268C125.428 179.242 125.652 178.141 125.657 177.029L126.229 41.1442C126.238 40.0306 126.026 38.9263 125.606 37.8947C125.187 36.8631 124.568 35.9244 123.785 35.1325C123.002 34.3406 122.07 33.711 121.043 33.2799C120.016 32.8488 118.914 32.6246 117.801 32.6202Z" fill="#FAFAFA"/>
<path d="M86.4512 172.433C86.4865 172.667 86.4493 172.906 86.3444 173.119C86.2396 173.331 86.0722 173.506 85.8648 173.62C85.6574 173.735 85.4199 173.783 85.1843 173.758C84.9488 173.733 84.7264 173.637 84.5473 173.482C84.3682 173.327 84.2408 173.121 84.1824 172.892C84.124 172.662 84.1373 172.42 84.2206 172.198C84.3039 171.977 84.4531 171.786 84.6481 171.651C84.8432 171.517 85.0748 171.446 85.3116 171.447C85.5927 171.43 85.8694 171.523 86.0824 171.708C86.2954 171.892 86.4278 172.152 86.4512 172.433V172.433Z" fill="#455A64"/>
<path d="M89.9948 172.452C90.0292 172.686 89.9911 172.925 89.8855 173.137C89.7799 173.349 89.612 173.523 89.4044 173.637C89.1968 173.75 88.9593 173.798 88.724 173.772C88.4887 173.747 88.2668 173.65 88.0882 173.495C87.9095 173.339 87.7827 173.133 87.7248 172.904C87.6669 172.674 87.6806 172.433 87.7642 172.211C87.8477 171.99 87.9971 171.799 88.1921 171.665C88.3872 171.531 88.6186 171.46 88.8553 171.462C89.1372 171.444 89.4146 171.538 89.6277 171.724C89.8408 171.909 89.9727 172.17 89.9948 172.452V172.452Z" fill="#455A64"/>
<path d="M93.5384 172.466C93.5738 172.701 93.5366 172.94 93.4317 173.152C93.3269 173.365 93.1595 173.54 92.9521 173.654C92.7446 173.768 92.5072 173.816 92.2716 173.792C92.036 173.767 91.8137 173.671 91.6346 173.516C91.4555 173.361 91.3281 173.155 91.2697 172.925C91.2113 172.696 91.2246 172.454 91.3079 172.232C91.3911 172.01 91.5403 171.819 91.7354 171.685C91.9305 171.551 92.162 171.479 92.3989 171.481C92.6803 171.462 92.9577 171.555 93.171 171.74C93.3843 171.924 93.5163 172.185 93.5384 172.466Z" fill="#455A64"/>
<path d="M70.4496 98.125C71.3535 98.2548 125.83 108.938 125.83 108.938V98.125H70.4496Z" fill="#EBEBEB"/>
<path d="M53.3083 166.779C53.3083 166.779 112.574 158.394 112.055 158.654C111.535 158.913 53.3083 158.654 53.3083 158.654V166.779Z" fill="#EBEBEB"/>
<path d="M122.128 8.12981C122.195 8.12981 122.253 11.125 122.253 14.8173C122.253 18.5096 122.195 21.5096 122.128 21.5096C122.061 21.5096 122.003 18.5144 122.003 14.8173C122.003 11.1202 122.061 8.12981 122.128 8.12981Z" fill="#263238"/>
<path d="M145.847 23.5288C145.875 23.5913 143.154 24.851 139.774 26.3413C136.394 27.8317 133.629 28.9952 133.6 28.9279C133.571 28.8606 136.293 27.6058 139.673 26.1154C143.053 24.625 145.818 23.4615 145.847 23.5288Z" fill="#263238"/>
<path d="M145.246 0.173077C145.217 0.265402 145.175 0.352924 145.121 0.432692C145.01 0.615385 144.875 0.85096 144.707 1.13942C144.347 1.75481 143.813 2.63462 143.14 3.71154C141.793 5.875 139.856 8.80769 137.658 12.0096C135.461 15.2115 133.509 18.1298 132.124 20.2644C131.446 21.3077 130.893 22.1875 130.489 22.7933L130.037 23.476C129.989 23.5597 129.931 23.6372 129.864 23.7067C129.9 23.6166 129.943 23.5297 129.994 23.4471C130.105 23.2644 130.239 23.0288 130.408 22.7404C130.763 22.125 131.302 21.25 131.975 20.1683C133.321 18.0048 135.259 15.0721 137.452 11.8702C139.644 8.66827 141.606 5.76923 142.991 3.62019L144.625 1.08654L145.077 0.403846C145.127 0.32243 145.183 0.245246 145.246 0.173077V0.173077Z" fill="#263238"/>
<path d="M178.494 56.774H70.0937C69.537 56.774 68.9858 56.8838 68.4715 57.0969C67.9573 57.3101 67.4901 57.6225 67.0967 58.0163C66.7032 58.4101 66.3913 58.8776 66.1787 59.3921C65.9661 59.9065 65.857 60.4578 65.8577 61.0144V94.6346C65.857 95.1912 65.9661 95.7425 66.1787 96.257C66.3913 96.7714 66.7032 97.2389 67.0967 97.6327C67.4901 98.0266 67.9573 98.339 68.4715 98.5521C68.9858 98.7653 69.537 98.875 70.0937 98.875H78.1714C78.8205 102.385 79.5802 106.813 79.5802 106.813L86.8887 98.875H178.494C179.051 98.875 179.602 98.7653 180.116 98.5521C180.631 98.339 181.098 98.0266 181.491 97.6327C181.885 97.2389 182.197 96.7714 182.409 96.257C182.622 95.7425 182.731 95.1912 182.73 94.6346V61.0144C182.731 60.4578 182.622 59.9065 182.409 59.3921C182.197 58.8776 181.885 58.4101 181.491 58.0163C181.098 57.6225 180.631 57.3101 180.116 57.0969C179.602 56.8838 179.051 56.774 178.494 56.774V56.774Z" fill="#055EFF"/>
<path d="M133.768 75C133.768 75.0673 120.868 75.125 104.958 75.125C89.0475 75.125 76.1423 75.0673 76.1423 75C76.1423 74.9327 89.0427 74.8702 104.958 74.8702C120.873 74.8702 133.768 74.9423 133.768 75Z" fill="#F5F5F5"/>
<path d="M133.768 69.8462C133.768 69.9135 120.868 69.9712 104.958 69.9712C89.0475 69.9712 76.1423 69.9135 76.1423 69.8462C76.1423 69.7788 89.0427 69.7212 104.958 69.7212C120.873 69.7212 133.768 69.774 133.768 69.8462Z" fill="#F5F5F5"/>
<path d="M133.768 80.125C133.768 80.1923 120.868 80.25 104.958 80.25C89.0475 80.25 76.1423 80.1923 76.1423 80.125C76.1423 80.0577 89.0427 80 104.958 80C120.873 80 133.768 80.0529 133.768 80.125Z" fill="#F5F5F5"/>
<path d="M113.887 85.4183C113.887 85.4856 105.439 85.5433 95.0145 85.5433C84.5903 85.5433 76.1423 85.4856 76.1423 85.4183C76.1423 85.351 84.5903 85.2933 95.0145 85.2933C105.439 85.2933 113.887 85.3462 113.887 85.4183Z" fill="#F5F5F5"/>
<path d="M129.513 117.221H20.228C19.8378 117.221 19.4514 117.297 19.0909 117.446C18.7303 117.595 18.4028 117.814 18.1272 118.09C17.8515 118.366 17.6331 118.694 17.4845 119.055C17.3359 119.416 17.2601 119.802 17.2614 120.192V155.769C17.2614 156.556 17.5739 157.31 18.1303 157.867C18.6866 158.423 19.4412 158.736 20.228 158.736H99.6015L106.814 166.587C106.814 166.587 107.569 162.173 108.208 158.736H129.499C130.286 158.736 131.04 158.423 131.597 157.867C132.153 157.31 132.465 156.556 132.465 155.769V120.192C132.467 119.803 132.391 119.418 132.244 119.058C132.096 118.698 131.879 118.371 131.605 118.095C131.331 117.819 131.005 117.6 130.646 117.45C130.287 117.3 129.902 117.222 129.513 117.221V117.221Z" fill="#455A64"/>
<path d="M125.229 135.577C125.229 135.644 112.329 135.702 96.4137 135.702C80.4986 135.702 67.5983 135.644 67.5983 135.577C67.5983 135.51 80.4986 135.452 96.4137 135.452C112.329 135.452 125.229 135.49 125.229 135.577Z" fill="#F5F5F5"/>
<path d="M125.229 130.394C125.229 130.462 112.329 130.519 96.4137 130.519C80.4986 130.519 67.5983 130.462 67.5983 130.394C67.5983 130.327 80.4986 130.269 96.4137 130.269C112.329 130.269 125.229 130.322 125.229 130.394Z" fill="#F5F5F5"/>
<path d="M125.229 140.673C125.229 140.74 112.329 140.798 96.4137 140.798C80.4986 140.798 67.5983 140.74 67.5983 140.673C67.5983 140.606 80.4986 140.548 96.4137 140.548C112.329 140.548 125.229 140.606 125.229 140.673Z" fill="#F5F5F5"/>
<path d="M105.347 145.966C105.347 146.038 96.8993 146.091 86.4752 146.091C76.0511 146.091 67.5983 146.038 67.5983 145.966C67.5983 145.894 76.0511 145.841 86.4752 145.841C96.8993 145.841 105.347 145.899 105.347 145.966Z" fill="#F5F5F5"/>
<path d="M151.241 42.5144C151.309 41.6298 150.52 40.4135 149.799 39.7115C149.381 39.335 149.082 38.8444 148.94 38.3003C148.797 37.7562 148.817 37.1822 148.996 36.649C149.289 35.5577 149.982 35.6394 150.256 34.9952C150.389 34.4971 150.443 33.9811 150.414 33.4664C150.472 33.0315 150.618 32.613 150.844 32.2371C151.07 31.8612 151.371 31.5359 151.728 31.2814C152.085 31.027 152.491 30.8489 152.92 30.7583C153.35 30.6677 153.793 30.6665 154.223 30.7548C154.461 29.9016 154.951 29.1399 155.628 28.5686C156.306 27.9973 157.139 27.6427 158.02 27.551C158.901 27.4592 159.79 27.6345 160.57 28.0541C161.351 28.4737 161.987 29.1181 162.396 29.9038C162.894 29.651 163.447 29.5246 164.005 29.5358C164.563 29.5471 165.11 29.6957 165.597 29.9685C166.084 30.2413 166.497 30.6299 166.798 31.0999C167.099 31.5699 167.28 32.1069 167.325 32.6635C167.829 32.3415 168.433 32.2129 169.026 32.3012C169.618 32.3896 170.158 32.689 170.546 33.1442C170.911 33.6205 171.128 34.1936 171.169 34.7922C171.21 35.3907 171.074 35.9881 170.777 36.5096C170.472 37.0269 170.055 37.4686 169.555 37.8017C169.055 38.1347 168.487 38.3504 167.892 38.4327C166.699 38.5842 165.489 38.3643 164.426 37.8029C163.367 37.2453 162.405 36.5195 161.579 35.6539" fill="#263238"/>
<path d="M159.103 97.7644C170.598 97.7644 179.917 88.6638 179.917 77.4375C179.917 66.2113 170.598 57.1106 159.103 57.1106C147.607 57.1106 138.288 66.2113 138.288 77.4375C138.288 88.6638 147.607 97.7644 159.103 97.7644Z" fill="#E0E0E0"/>
<path d="M180.004 77.4519L177.701 71.5481L169.445 76.7356L176.802 88.0769C176.802 88.0769 179.792 84.1923 180.004 77.4519Z" fill="#EB996E"/>
<path d="M157.228 64.6635C158.65 64.6718 160.021 64.1328 161.056 63.1581C162.092 62.1834 162.713 60.8478 162.791 59.4279C162.911 56.9808 163.017 54.6202 163.017 54.6202C163.017 54.6202 167.556 54.2933 167.974 49.851C168.392 45.4086 168.455 35.1442 168.455 35.1442C165.992 33.8518 163.231 33.2345 160.452 33.3553C157.674 33.4761 154.977 34.3305 152.636 35.8317L152.203 36.1058L151.679 59.0865C151.674 59.8179 151.814 60.543 152.09 61.2201C152.367 61.8971 152.775 62.5126 153.291 63.0311C153.807 63.5496 154.42 63.9608 155.096 64.241C155.772 64.5212 156.496 64.6647 157.228 64.6635V64.6635Z" fill="#FFBE9D"/>
<path d="M159.814 41.9808C159.934 42.0229 160.038 42.0994 160.115 42.2005C160.191 42.3017 160.236 42.4232 160.243 42.5497C160.251 42.6762 160.221 42.8021 160.157 42.9117C160.094 43.0214 159.999 43.1098 159.886 43.1659C159.772 43.2221 159.644 43.2434 159.519 43.2274C159.393 43.2114 159.275 43.1586 159.179 43.0757C159.083 42.9928 159.014 42.8835 158.98 42.7614C158.946 42.6394 158.948 42.51 158.987 42.3894C159.043 42.2258 159.162 42.091 159.317 42.0144C159.472 41.9379 159.651 41.9258 159.814 41.9808V41.9808Z" fill="#263238"/>
<path d="M161.074 42.2115C160.997 42.2837 160.593 41.9183 159.959 41.8798C159.324 41.8413 158.872 42.1298 158.809 42.0481C158.747 41.9663 158.858 41.875 159.059 41.7404C159.336 41.5659 159.661 41.485 159.987 41.5096C160.312 41.5316 160.621 41.6581 160.867 41.8702C161.036 42.0337 161.098 42.1779 161.074 42.2115Z" fill="#263238"/>
<path d="M166.594 41.9808C166.714 42.0229 166.818 42.0994 166.894 42.2005C166.971 42.3017 167.015 42.4232 167.023 42.5497C167.031 42.6762 167.001 42.8021 166.937 42.9117C166.873 43.0214 166.779 43.1098 166.665 43.1659C166.552 43.2221 166.424 43.2434 166.298 43.2274C166.172 43.2114 166.054 43.1586 165.958 43.0757C165.863 42.9928 165.793 42.8835 165.759 42.7614C165.725 42.6394 165.728 42.51 165.767 42.3894C165.823 42.2258 165.941 42.091 166.096 42.0144C166.251 41.9379 166.43 41.9258 166.594 41.9808V41.9808Z" fill="#263238"/>
<path d="M167.921 42.2212C167.849 42.2981 167.44 41.9327 166.805 41.8942C166.171 41.8558 165.719 42.1442 165.656 42.0625C165.594 41.9808 165.704 41.8894 165.911 41.7548C166.186 41.5797 166.51 41.4987 166.834 41.524C167.16 41.547 167.47 41.6733 167.719 41.8846C167.902 42.0481 167.959 42.1923 167.921 42.2212Z" fill="#263238"/>
<path d="M163.257 47.024C163.585 46.9227 163.928 46.8788 164.272 46.8942C164.435 46.8942 164.565 46.8654 164.584 46.7788C164.607 46.6145 164.58 46.4472 164.507 46.2981C164.382 45.8798 164.252 45.4567 164.118 45.0144C163.589 43.1875 163.238 41.6875 163.329 41.649C163.421 41.6106 163.93 43.0913 164.459 44.9087C164.584 45.351 164.7 45.7788 164.82 46.1971C164.907 46.4112 164.919 46.6485 164.853 46.8702C164.824 46.9301 164.782 46.9825 164.729 47.0234C164.677 47.0642 164.616 47.0924 164.55 47.1058C164.458 47.1172 164.364 47.1172 164.272 47.1058C163.931 47.1364 163.588 47.1088 163.257 47.024Z" fill="#263238"/>
<path d="M162.997 54.5625C160.926 54.4344 158.939 53.6967 157.285 52.4423C157.285 52.4423 158.406 55.7548 162.916 55.7164L162.997 54.5625Z" fill="#EB996E"/>
<path d="M152.068 42.6346C152.072 42.4601 152.009 42.2908 151.89 42.1626C151.772 42.0343 151.608 41.957 151.434 41.9471C150.597 41.9086 149.222 42.2115 149.03 44.5C148.78 47.7692 151.972 47.0144 151.987 46.9038C152.001 46.7933 152.054 43.9086 152.068 42.6346Z" fill="#FFBE9D"/>
<path d="M151.304 45.6202C151.304 45.6202 151.241 45.6586 151.14 45.6923C151.073 45.7205 151 45.735 150.926 45.735C150.853 45.735 150.78 45.7205 150.712 45.6923C150.509 45.5431 150.35 45.3422 150.251 45.1105C150.152 44.8788 150.117 44.6248 150.15 44.375C150.162 44.0941 150.238 43.8196 150.371 43.5721C150.412 43.4708 150.478 43.3811 150.561 43.3107C150.645 43.2403 150.745 43.1914 150.852 43.1683C150.919 43.1548 150.989 43.1659 151.049 43.1994C151.109 43.2328 151.155 43.2866 151.179 43.351C151.217 43.4423 151.179 43.5096 151.208 43.5144C151.237 43.5192 151.285 43.4663 151.265 43.3269C151.254 43.2449 151.213 43.1698 151.15 43.1154C151.066 43.0401 150.955 43.0005 150.842 43.0048C150.703 43.0225 150.571 43.0762 150.459 43.1605C150.347 43.2448 150.258 43.3568 150.203 43.4856C150.038 43.7557 149.945 44.0636 149.934 44.3798C149.896 44.6705 149.946 44.9657 150.076 45.2283C150.206 45.491 150.411 45.7093 150.664 45.8558C150.751 45.8872 150.844 45.8991 150.937 45.8908C151.029 45.8825 151.118 45.8541 151.198 45.8077C151.289 45.7019 151.313 45.6298 151.304 45.6202Z" fill="#EB996E"/>
<path d="M158.131 40.4663C158.295 40.6779 158.862 40.5817 159.603 40.5481C160.343 40.5144 160.915 40.5192 161.045 40.2885C161.175 40.0577 160.487 39.5048 159.535 39.5865C158.583 39.6683 157.949 40.25 158.131 40.4663Z" fill="#263238"/>
<path d="M165.334 40.25C165.421 40.5337 165.964 40.6202 166.565 40.6154C167.166 40.6106 167.705 40.5048 167.786 40.2163C167.868 39.9279 167.306 39.5385 166.551 39.5481C165.796 39.5577 165.243 39.9712 165.334 40.25Z" fill="#263238"/>
<path d="M169.065 36.5385C169.065 36.5385 166.368 37.8462 162.863 36.0962C160.56 34.9471 157.881 34.3846 157.29 34.8462C156.699 35.3077 156.574 37.6827 154.295 38.375C154.295 38.375 154.448 42.8942 152.645 42.7356C150.842 42.5769 151.967 35.5769 151.967 35.5769L156.381 33.4231L161.189 32.5144L165.724 33.1539L169.234 34.1154L169.065 36.5385Z" fill="#263238"/>
<path d="M138.865 62.7308C143.582 57.8798 151.881 58.4038 151.881 58.4038L158.761 63.3317L162.661 58.7885C165.426 59.1649 168.109 59.995 170.604 61.2452L170.868 61.3269V61.3798C173.888 63.0192 178.158 66.9519 182.23 70.7644L177.359 75.2837L171.965 80.0913C171.977 80.1222 171.977 80.1566 171.965 80.1875C171.912 80.4808 172.715 87.0625 173.542 92.0625C171.194 94.378 168.317 96.0868 165.16 97.0409C162.004 97.995 158.662 98.1658 155.425 97.5385C153.218 97.149 152.15 96.6154 150.107 96.0961C148.634 95.7059 147.318 94.8709 146.338 93.705C145.358 92.5391 144.761 91.0992 144.63 89.5817V89.5817C144.265 85.3894 143.986 80.1971 143.986 80.1971" fill="#455A64"/>
<path d="M166.974 59.6394C167.094 59.8888 167.194 60.1477 167.272 60.4135C167.45 60.8942 167.685 61.649 167.969 62.5577C168.536 64.375 169.262 66.8846 169.945 69.7356C170.628 72.5865 171.142 75.149 171.465 77.024C171.628 77.9856 171.748 78.726 171.82 79.2548C171.872 79.5261 171.902 79.8009 171.912 80.0769C171.827 79.8134 171.764 79.5432 171.724 79.2692C171.614 78.7067 171.469 77.9615 171.291 77.0577C170.921 75.1923 170.383 72.6202 169.7 69.7933C169.017 66.9663 168.325 64.4231 167.806 62.6106L167.181 60.4423C167.093 60.1798 167.024 59.9115 166.974 59.6394V59.6394Z" fill="#263238"/>
<path d="M171.402 76.9712C171.359 76.9183 173.417 75.1683 175.999 73.0673C178.581 70.9663 180.706 69.3029 180.749 69.3558C180.793 69.4086 178.739 71.1587 176.157 73.2596C173.575 75.3606 171.45 77.024 171.402 76.9712Z" fill="#263238"/>
<path opacity="0.2" d="M145.092 69.3846L140.88 83.2644L142.452 84.0817L144 80.1587C144 80.1587 145.577 71.9087 145.092 69.3846Z" fill="black"/>
<g opacity="0.2">
<path opacity="0.2" d="M166.517 59.649C168.791 60.8462 163.089 63.7308 160.516 63.6538L162.387 58.7212C162.387 58.7212 165.752 59.2452 166.517 59.649Z" fill="black"/>
</g>
<path d="M151.203 58.7211V55.0433C151.203 55.0433 158.382 56.8942 158.641 61.1875C158.641 61.1875 159.555 56.4375 163.257 56.2115L163.781 62.8894L159.454 66.6394H155.112L151.655 63.6538L151.203 59.0192" fill="#455A64"/>
<path d="M160.262 81.7933C160.237 81.531 160.237 81.2671 160.262 81.0048C160.262 80.4952 160.262 79.7596 160.286 78.851C160.286 77.0385 160.233 74.524 160.007 71.7692C159.781 69.0144 159.415 66.524 159.112 64.7356C158.959 63.875 158.829 63.1635 158.733 62.6202C158.67 62.3631 158.632 62.1007 158.617 61.8365C158.707 62.0855 158.778 62.3411 158.829 62.601C158.954 63.0817 159.112 63.8125 159.286 64.7067C159.73 67.0358 160.051 69.3869 160.247 71.75C160.442 74.1133 160.509 76.4853 160.449 78.8558C160.425 79.7644 160.391 80.5 160.348 81.0096C160.338 81.2725 160.309 81.5344 160.262 81.7933V81.7933Z" fill="#263238"/>
<path d="M158.314 59.9519C158.171 59.9277 158.023 59.941 157.886 59.9904C157.534 60.189 157.274 60.5192 157.165 60.9087C156.572 62.1907 156.11 63.5292 155.785 64.9038L155.747 65.0673L155.602 64.9808C155.174 64.7212 154.732 64.4423 154.29 64.1442C153.484 63.5955 152.707 63.0049 151.963 62.375C151.624 62.0923 151.353 61.7375 151.169 61.3365C151.025 60.9833 150.943 60.6074 150.929 60.226C150.914 59.6862 150.968 59.1467 151.088 58.6202C151.116 58.4236 151.17 58.2314 151.246 58.0481C151.24 58.2449 151.219 58.441 151.184 58.6346C151.102 59.1577 151.076 59.6879 151.107 60.2163C151.13 60.5733 151.216 60.9233 151.362 61.25C151.538 61.6232 151.796 61.9518 152.116 62.2115C152.794 62.7788 153.583 63.3654 154.429 63.9423C154.872 64.2404 155.304 64.524 155.732 64.7837L155.55 64.8606C155.871 63.4796 156.355 62.1417 156.992 60.875C157.09 60.653 157.216 60.4446 157.367 60.2548C157.485 60.1081 157.644 59.9995 157.824 59.9423C158.189 59.8269 158.324 59.9471 158.314 59.9519Z" fill="#263238"/>
<path d="M163.257 56.2115C163.301 56.3991 163.323 56.591 163.324 56.7836L163.44 58.3509C163.493 59.0096 163.574 59.7933 163.709 60.6538C163.825 61.1157 163.854 61.5948 163.796 62.0673C163.614 62.5627 163.276 62.986 162.834 63.274C162.272 63.6229 161.744 64.0237 161.257 64.4712L161.065 64.6875V64.399C160.977 63.1432 160.614 61.9219 160.002 60.8221C159.545 60 159.17 59.5817 159.199 59.5577C159.228 59.5336 159.314 59.6442 159.483 59.8413C159.724 60.1248 159.943 60.4271 160.137 60.7452C160.805 61.8503 161.205 63.0968 161.305 64.3846L161.093 64.3125C161.587 63.8462 162.127 63.4306 162.704 63.0721C163.095 62.8155 163.394 62.4419 163.56 62.0048C163.61 61.5645 163.584 61.1189 163.483 60.6875C163.363 59.8173 163.3 59.024 163.267 58.3606C163.233 57.6971 163.228 57.1586 163.233 56.7884C163.217 56.5959 163.225 56.402 163.257 56.2115V56.2115Z" fill="#263238"/>
<path d="M186.37 57.1346C186.077 57.476 175.499 71.6346 175.499 71.6346L176.989 72.4808L187.836 58.5385L186.37 57.1346Z" fill="#263238"/>
<path d="M143.899 68.3077C143.899 68.3077 155.021 84.3173 155.694 84.6298C157.011 85.25 172.224 72.1058 173.676 70.8462C173.878 70.5769 174.292 70.0144 175.119 68.8942C175.119 68.8942 176.321 63.4038 177.6 63.8221C178.879 64.2404 176.898 66.6154 177.735 68.7019C178.571 70.7885 182.389 65.8173 182.543 65.3654L183.528 64.0769C183.528 64.0769 184.562 67.0048 184.49 68.2308C184.264 72.149 180.557 76.8077 180.557 76.8077C180.557 76.8077 163.906 97.4327 152.501 98.0721C149.217 98.2548 143.366 88.9375 139.476 81.9471C138.34 79.9059 137.99 77.5197 138.492 75.2383C138.994 72.957 140.314 70.9381 142.202 69.5625L143.899 68.3077Z" fill="#FFBE9D"/>
<path d="M182.6 68.9231C182.813 68.4308 183.051 67.9494 183.312 67.4808C183.526 66.9874 183.767 66.506 184.033 66.0385C183.73 67.0791 183.242 68.0563 182.591 68.9231H182.6Z" fill="#EB996E"/>
<path d="M142.019 60.4952C142.019 60.4952 130.081 64.7404 138.956 84.8125L152.737 76.4952L150.775 71.8029L142.019 60.4952Z" fill="#455A64"/>
<path d="M141.106 60.8462C141.59 60.8011 142.078 60.8418 142.548 60.9663C143.098 61.1089 143.625 61.3307 144.111 61.625C144.753 62.0252 145.339 62.5103 145.851 63.0673C147.153 64.5212 148.244 66.151 149.092 67.9087C150.102 69.8606 151.044 72.0865 152.011 74.4183C152.299 75.1202 152.588 75.8077 152.857 76.4615L152.9 76.5673L152.799 76.6202C148.813 78.7933 145.342 80.8269 142.89 82.351C141.659 83.1106 140.683 83.7356 140.005 84.1683L139.235 84.649C139.147 84.7102 139.054 84.7633 138.957 84.8077C139.033 84.7336 139.117 84.6676 139.207 84.6106C139.375 84.4856 139.625 84.3029 139.957 84.0769C140.611 83.5962 141.577 82.9712 142.793 82.1923C145.226 80.6298 148.688 78.5625 152.679 76.3846L152.621 76.5385C152.352 75.8846 152.064 75.1971 151.775 74.4952C150.814 72.1635 149.852 69.9423 148.89 67.9952C148.059 66.2566 146.994 64.6392 145.726 63.1875C145.231 62.6354 144.665 62.1505 144.044 61.7452C143.568 61.4468 143.053 61.2154 142.515 61.0577C142.052 60.9474 141.581 60.8766 141.106 60.8462V60.8462Z" fill="#263238"/>
<path d="M166.781 31.0865C166.812 31.1535 166.831 31.2249 166.839 31.2981C166.876 31.5027 166.889 31.7107 166.878 31.9183C166.832 32.699 166.507 33.4375 165.964 34C165.551 34.4118 165.035 34.7047 164.47 34.8477C163.905 34.9907 163.311 34.9785 162.752 34.8125C162.075 34.6325 161.489 34.2076 161.108 33.6202C160.906 33.2961 160.819 32.9131 160.863 32.5337C160.884 32.3359 160.949 32.1451 161.051 31.9742C161.153 31.8033 161.29 31.6564 161.454 31.5433C161.625 31.4357 161.82 31.3723 162.021 31.3589C162.223 31.3455 162.424 31.3824 162.608 31.4663C162.964 31.6175 163.247 31.9023 163.396 32.2596C163.515 32.5929 163.548 32.9507 163.493 33.3001C163.437 33.6495 163.295 33.9794 163.079 34.2596C162.718 34.7269 162.204 35.0516 161.627 35.1765C161.05 35.3014 160.447 35.2185 159.925 34.9423C159.548 34.7452 159.15 34.5935 158.737 34.4904C158.429 34.421 158.106 34.4547 157.819 34.5865C157.578 34.7164 157.35 34.8677 157.136 35.0385C157.136 35.0385 157.18 34.976 157.276 34.8702C157.335 34.8041 157.401 34.7445 157.473 34.6923C157.567 34.6142 157.67 34.5479 157.781 34.4952C158.078 34.3467 158.414 34.2962 158.742 34.351C159.17 34.4435 159.585 34.5888 159.978 34.7837C160.201 34.8819 160.432 34.9576 160.67 35.0096C160.926 35.0574 161.189 35.0574 161.444 35.0096C162.02 34.9182 162.538 34.6061 162.887 34.1394C163.077 33.891 163.202 33.5991 163.251 33.2902C163.299 32.9812 163.27 32.665 163.166 32.3702C163.108 32.2211 163.02 32.0858 162.907 31.9729C162.794 31.8601 162.659 31.7722 162.51 31.7151C162.36 31.658 162.201 31.6329 162.041 31.6414C161.882 31.6499 161.726 31.6918 161.584 31.7644C161.451 31.8595 161.34 31.9813 161.257 32.1221C161.174 32.2629 161.122 32.4195 161.103 32.5817C161.069 32.9059 161.143 33.2323 161.315 33.5096C161.663 34.0466 162.197 34.4367 162.815 34.6058C163.336 34.7656 163.891 34.7835 164.422 34.6576C164.952 34.5316 165.44 34.2665 165.834 33.8894C166.363 33.3628 166.694 32.6701 166.772 31.9279C166.792 31.6479 166.795 31.3669 166.781 31.0865V31.0865Z" fill="#455A64"/>
<path d="M164.18 49.2163C164.18 49.2452 164.036 49.3125 163.772 49.3221C163.425 49.3268 163.082 49.248 162.773 49.0923C162.463 48.9367 162.196 48.7088 161.993 48.4279C161.848 48.2067 161.805 48.0481 161.834 48.0337C162.15 48.3534 162.504 48.6343 162.887 48.8702C163.303 49.0371 163.737 49.1534 164.18 49.2163V49.2163Z" fill="#263238"/>
<path d="M167.575 32.6923C167.733 32.9597 167.813 33.2663 167.806 33.5769C167.844 34.3362 167.587 35.0808 167.088 35.655C166.59 36.2293 165.889 36.5889 165.132 36.6587C164.825 36.7111 164.51 36.6744 164.224 36.5529C164.224 36.5096 164.575 36.5529 165.108 36.4808C165.801 36.3743 166.434 36.0264 166.895 35.4985C167.356 34.9707 167.615 34.2969 167.628 33.5962C167.642 33.0481 167.532 32.7163 167.575 32.6923Z" fill="#455A64"/>
<path d="M151.313 72.9327C151.342 72.9952 148.174 74.625 144.231 76.5721C140.288 78.5192 137.072 80.0529 137.019 79.9904C136.966 79.9279 140.154 78.2981 144.096 76.3462C148.039 74.3942 151.285 72.8702 151.313 72.9327Z" fill="#E0E0E0"/>
<path d="M148.424 67.4808C148.457 67.5385 145.635 69.1202 142.12 71.0048C138.606 72.8894 135.73 74.3702 135.701 74.3077C135.673 74.2452 138.49 72.6683 142.005 70.7837C145.52 68.899 148.39 67.4183 148.424 67.4808Z" fill="#E0E0E0"/>
<path d="M145.63 63.0721C145.181 63.3831 144.711 63.661 144.221 63.9038L140.769 65.8269L137.336 67.7885C136.875 68.0822 136.393 68.3425 135.894 68.5673C136.318 68.22 136.772 67.9096 137.25 67.6394C138.105 67.0962 139.303 66.375 140.649 65.6106C141.995 64.8462 143.236 64.2019 144.145 63.75C144.619 63.482 145.117 63.2552 145.63 63.0721V63.0721Z" fill="#E0E0E0"/>
<path d="M156.194 62.0192C155.869 62.0041 155.55 61.9188 155.261 61.7692C154.556 61.4534 153.907 61.0265 153.338 60.5048C152.767 59.9838 152.243 59.4144 151.77 58.8029C151.555 58.5674 151.372 58.3038 151.227 58.0192C151.256 58.0192 151.506 58.2548 151.905 58.6923C152.304 59.1298 152.843 59.726 153.506 60.3173C154.065 60.8248 154.687 61.2579 155.357 61.6058C155.853 61.8798 156.204 61.9904 156.194 62.0192Z" fill="#E0E0E0"/>
<path d="M163.204 59.4231C163.045 60.0027 162.694 60.5112 162.209 60.8654C161.778 61.2857 161.217 61.5454 160.617 61.601C161.116 61.3198 161.597 61.0099 162.06 60.6731C162.462 60.2758 162.844 59.8586 163.204 59.4231V59.4231Z" fill="#E0E0E0"/>
<path d="M175.71 66.6587C175.623 66.6856 175.532 66.7018 175.441 66.7067L174.667 66.8029C173.994 66.8798 173.018 66.9712 171.816 67.0673C169.412 67.2596 166.046 67.4471 162.377 67.5817C158.709 67.7163 155.348 67.7596 152.924 67.7404C151.717 67.7404 150.737 67.7067 150.063 67.6827L149.285 67.6442C149.194 67.6443 149.103 67.633 149.015 67.6106C149.105 67.5991 149.195 67.5991 149.285 67.6106H150.063L152.924 67.5865C155.328 67.5625 158.694 67.4856 162.368 67.3558C166.041 67.226 169.388 67.0577 171.801 66.9135L174.657 66.7308L175.436 66.6827C175.526 66.6623 175.618 66.6542 175.71 66.6587V66.6587Z" fill="#E0E0E0"/>
<path d="M171.912 72.3606C171.652 72.4199 171.389 72.4617 171.123 72.4856C170.609 72.5481 169.868 72.625 168.955 72.7115C167.123 72.8798 164.589 73.0529 161.786 73.1683C158.983 73.2836 156.439 73.3077 154.573 73.2885C153.655 73.2885 152.91 73.2596 152.395 73.2404C152.128 73.2425 151.861 73.2216 151.597 73.1779C151.862 73.1461 152.129 73.1333 152.395 73.1394L154.573 73.1106C156.41 73.1106 158.949 73.0288 161.747 72.9183C164.546 72.8077 167.084 72.6586 168.916 72.5336L171.09 72.3846C171.362 72.3508 171.638 72.3428 171.912 72.3606V72.3606Z" fill="#E0E0E0"/>
<path d="M163.291 79.3894C162.768 79.5103 162.235 79.5859 161.699 79.6154C160.709 79.7163 159.343 79.8269 157.829 79.9038C156.314 79.9808 154.944 80.0048 153.948 80C153.412 80.0252 152.875 80.0043 152.343 79.9375C152.872 79.8566 153.408 79.818 153.944 79.8221L157.814 79.6538L161.661 79.4375C162.202 79.3842 162.747 79.3682 163.291 79.3894V79.3894Z" fill="#E0E0E0"/>
<path d="M152.275 62.7067C152.275 62.7788 150.799 62.7933 148.982 62.8702C147.164 62.9471 145.698 63.0481 145.688 62.976C147.862 62.5917 150.077 62.5012 152.275 62.7067V62.7067Z" fill="#E0E0E0"/>
<path d="M172.556 62.4471C171.136 62.564 169.71 62.5993 168.286 62.5529C166.86 62.5905 165.433 62.5439 164.012 62.4135C165.433 62.2935 166.861 62.2565 168.286 62.3029C169.711 62.265 171.137 62.3132 172.556 62.4471V62.4471Z" fill="#E0E0E0"/>
<path d="M173.297 91.7019C173.161 91.8025 173.014 91.8865 172.859 91.9519C172.571 92.101 172.143 92.2981 171.609 92.524C170.207 93.1015 168.759 93.563 167.282 93.9038C165.804 94.2407 164.303 94.4577 162.791 94.5529C162.214 94.5865 161.742 94.5961 161.416 94.5865C161.254 94.5941 161.093 94.5828 160.935 94.5529C160.935 94.5144 161.646 94.4856 162.795 94.375C164.292 94.2311 165.777 93.9919 167.243 93.6586C168.713 93.3212 170.159 92.8859 171.57 92.3558C172.614 91.9519 173.282 91.6635 173.297 91.7019Z" fill="#E0E0E0"/>
<path d="M43.4131 157.139C54.9087 157.139 64.2278 148.25 64.2278 137.284C64.2278 126.318 54.9087 117.428 43.4131 117.428C31.9175 117.428 22.5985 126.318 22.5985 137.284C22.5985 148.25 31.9175 157.139 43.4131 157.139Z" fill="#E0E0E0"/>
<path d="M39.1723 89.4231C35.8739 89.5962 34.5757 93.0385 34.1814 93.8077C33.8428 94.605 33.6631 95.4608 33.6525 96.3269C33.6424 97.1942 33.4248 98.0465 33.0178 98.8125C32.2918 99.9712 30.7628 100.572 30.3493 101.875C29.8685 103.351 31.085 104.928 30.7628 106.442C30.5897 107.255 29.9983 107.923 29.8012 108.726C29.6193 109.584 29.7797 110.479 30.2483 111.221C31.3302 113.087 33.5804 114.019 35.7345 114.106C37.8885 114.192 39.9945 113.538 42.0572 112.904" fill="#263238"/>
<path d="M53.7026 93.6923C53.576 94.0568 53.5539 94.4495 53.6389 94.8259C53.7239 95.2023 53.9125 95.5473 54.1834 95.8221C54.7373 96.3532 55.3357 96.8357 55.9721 97.2644C56.29 97.4835 56.5615 97.7631 56.7711 98.0874C56.9807 98.4116 57.1242 98.774 57.1934 99.1538C57.2559 99.8558 56.9001 100.558 56.9962 101.255C57.2462 103.058 60.1167 103.596 60.2658 105.404C60.3716 106.611 59.1311 107.721 59.4772 108.88C59.6645 109.314 59.9069 109.723 60.1985 110.096C61.0159 111.452 60.4629 113.317 59.2801 114.365C58.0973 115.413 56.4625 115.784 54.8854 115.856C53.5584 115.913 52.0486 115.697 51.2697 114.625C50.5533 113.639 50.7023 112.303 50.8418 111.096C51.5101 105.462 51.3947 99.7692 51.2841 94.0962" fill="#263238"/>
<path d="M40.0426 119.764C40.0667 116.803 40.0426 113.688 40.0426 113.688C40.0426 113.688 36.2394 113.01 35.5037 108.029C34.8065 103.274 35.9845 93.0529 35.9845 93.0529C41.4995 90.875 47.7117 91.7164 51.5727 96.1539L50.9668 120.192C50.8995 122.981 48.4425 125.144 45.4566 125.048C42.4419 124.947 40.0186 122.596 40.0426 119.764Z" fill="#FFBE9D"/>
<path d="M37.0231 100.899C37.0191 101.065 37.0802 101.227 37.1933 101.349C37.3065 101.471 37.4627 101.544 37.629 101.553C37.7102 101.56 37.7921 101.551 37.8698 101.526C37.9476 101.502 38.0197 101.462 38.0819 101.409C38.144 101.356 38.1951 101.292 38.2321 101.219C38.2691 101.146 38.2912 101.067 38.2973 100.986C38.3 100.819 38.2379 100.657 38.124 100.535C38.0101 100.413 37.8533 100.34 37.6867 100.332C37.6057 100.325 37.524 100.334 37.4466 100.358C37.3691 100.383 37.2974 100.423 37.2356 100.476C37.1738 100.529 37.1231 100.593 37.0866 100.666C37.0502 100.739 37.0286 100.818 37.0231 100.899V100.899Z" fill="#263238"/>
<path d="M35.9989 100.409C36.0758 100.49 36.5615 100.139 37.249 100.149C38.5424 100.337 38.5184 100.534 38.5088 100.423C38.5472 100.389 38.4703 100.236 38.2491 100.077C37.9564 99.8659 37.6051 99.7516 37.2442 99.75C36.8863 99.7464 36.5363 99.8558 36.2441 100.062C36.0326 100.221 35.9604 100.37 35.9989 100.409Z" fill="#263238"/>
<path d="M44.0527 101.106C44.0487 101.272 44.1099 101.433 44.2232 101.554C44.3364 101.675 44.4927 101.747 44.6585 101.755C44.7396 101.763 44.8215 101.754 44.8993 101.73C44.977 101.705 45.049 101.665 45.111 101.612C45.1729 101.559 45.2236 101.494 45.2598 101.421C45.2961 101.348 45.3172 101.269 45.322 101.188C45.326 101.021 45.265 100.86 45.1518 100.738C45.0387 100.616 44.8824 100.542 44.7162 100.534C44.635 100.527 44.5532 100.537 44.4757 100.562C44.3982 100.587 44.3266 100.628 44.2648 100.681C44.2031 100.734 44.1525 100.799 44.1161 100.872C44.0797 100.945 44.0581 101.024 44.0527 101.106V101.106Z" fill="#263238"/>
<path d="M43.1582 100.644C43.2351 100.731 43.7256 100.375 44.4083 100.385C45.0911 100.394 45.596 100.745 45.6729 100.663C45.7498 100.582 45.6296 100.476 45.4132 100.312C45.1188 100.102 44.7656 99.9892 44.4035 99.9904C44.0459 99.9841 43.6956 100.092 43.4034 100.298C43.1919 100.481 43.1197 100.606 43.1582 100.644Z" fill="#263238"/>
<path d="M40.6052 105.572C40.2466 105.45 39.8729 105.377 39.4945 105.356C39.3214 105.356 39.1531 105.298 39.1243 105.178C39.1141 104.996 39.1576 104.816 39.2493 104.659L39.783 103.332C40.2747 102.204 40.6782 101.041 40.9898 99.851C40.9129 99.8221 40.2494 101.337 39.5041 103.216C39.3262 103.697 39.1579 104.13 38.9944 104.553C38.8797 104.763 38.8439 105.006 38.8935 105.24C38.9177 105.303 38.9565 105.36 39.0066 105.405C39.0567 105.45 39.1168 105.483 39.182 105.5C39.2769 105.529 39.3759 105.544 39.4753 105.543C39.8492 105.6 40.2288 105.61 40.6052 105.572Z" fill="#263238"/>
<path d="M40.0377 113.687C42.3796 113.751 44.6932 113.163 46.7211 111.99C46.7211 111.99 45.0671 115.389 40.0906 114.875L40.0377 113.687Z" fill="#EB996E"/>
<path d="M40.8695 107.212C41.0027 107.049 41.1747 106.923 41.3698 106.845C41.5648 106.766 41.7765 106.739 41.985 106.764C42.1435 106.778 42.2973 106.825 42.4365 106.902C42.5756 106.979 42.697 107.085 42.7928 107.212C42.8831 107.328 42.9356 107.469 42.9433 107.616C42.951 107.763 42.9136 107.909 42.8361 108.034C42.7233 108.155 42.5775 108.239 42.4167 108.278C42.256 108.316 42.0874 108.307 41.9322 108.25C41.6096 108.131 41.3138 107.95 41.0619 107.716C40.9858 107.66 40.9206 107.59 40.8695 107.51C40.8439 107.472 40.8302 107.428 40.8302 107.382C40.8302 107.337 40.8439 107.292 40.8695 107.255" fill="#EB996E"/>
<path d="M42.6246 106.067C42.5092 106.067 42.4996 106.808 41.8553 107.327C41.211 107.846 40.4128 107.76 40.4128 107.861C40.4128 107.962 40.5907 108.01 40.9225 108.019C41.3603 108.034 41.7889 107.891 42.1294 107.615C42.4548 107.354 42.6667 106.977 42.7208 106.562C42.7544 106.25 42.6727 106.062 42.6246 106.067Z" fill="#263238"/>
<path d="M49.4089 92.6058C47.5914 95.2019 42.7688 97.8702 39.3117 98.4904C39.7108 97.9615 41.8312 96.6538 42.2351 96.125C40.6725 97.2885 38.4318 98.8558 36.3595 98.9567C36.115 98.9926 35.8654 98.9541 35.6431 98.8461C35.5268 98.7531 35.4336 98.6343 35.3711 98.4992C35.3085 98.364 35.2782 98.2162 35.2825 98.0673C35.1646 96.5634 35.2129 95.051 35.4267 93.5577C35.5912 92.2957 36.233 91.1447 37.2202 90.3413C38.5521 89.3125 40.4513 89.0625 42.2447 89.0192C43.7458 88.9217 45.2512 89.1244 46.6731 89.6154C48.0482 90.1538 49.2262 91.2259 49.4282 92.5" fill="#263238"/>
<path d="M54.6306 104.236C54.8584 103.137 55.0189 102.026 55.1114 100.909C55.2605 98.3414 54.52 88.8894 45.6682 89.6298L45.3075 92.3269C45.3075 92.3269 43.942 101.553 49.6686 101.62C50.0535 103.68 51.0603 105.573 52.5535 107.043C52.5535 107.043 54.0536 107 54.5921 104.236" fill="#263238"/>
<path d="M49.6829 101.62C50.2177 101.515 50.771 101.557 51.2841 101.74C51.7979 101.934 52.2144 102.323 52.4428 102.822C52.6423 103.332 52.6423 103.899 52.4428 104.409C52.2369 104.914 51.9216 105.367 51.5197 105.736C51.2548 106.02 50.9248 106.236 50.558 106.365C50.373 106.429 50.175 106.446 49.982 106.414C49.7889 106.382 49.6068 106.303 49.4521 106.183" fill="#FFBE9D"/>
<path d="M49.9378 104.851C49.8753 104.851 50.1061 105.192 50.5917 105.067C50.7224 105.026 50.8434 104.959 50.9475 104.869C51.0516 104.78 51.1366 104.671 51.1975 104.548C51.348 104.278 51.4429 103.98 51.4764 103.673C51.5224 103.337 51.4456 102.996 51.26 102.712C51.185 102.593 51.0834 102.493 50.9632 102.421C50.8431 102.348 50.7076 102.304 50.5676 102.293C50.0868 102.293 49.9089 102.62 49.9618 102.63C50.0147 102.639 50.1974 102.495 50.5244 102.577C50.7244 102.655 50.8896 102.802 50.9894 102.992C51.0893 103.182 51.1171 103.402 51.0677 103.611C51.0052 104.159 50.7888 104.659 50.4955 104.779C50.2022 104.899 49.9714 104.808 49.9378 104.851Z" fill="#EB996E"/>
<path d="M50.6494 91.6346C51.3357 92.024 52.1471 92.1293 52.91 91.928C53.6729 91.7268 54.3268 91.2349 54.7316 90.5577C55.0118 90.1328 55.112 89.6141 55.0105 89.1154C54.8969 88.7896 54.6999 88.4993 54.4393 88.2732C54.1786 88.0472 53.8633 87.8933 53.5247 87.8269C53.0408 87.7006 52.5331 87.6955 52.0467 87.8121C51.5603 87.9286 51.1101 88.1632 50.736 88.4952C50.37 88.8378 50.1082 89.2767 49.9806 89.7615C49.8531 90.2463 49.8649 90.7572 50.0148 91.2356C50.1847 91.7056 50.4969 92.111 50.9079 92.3954C51.319 92.6797 51.8085 92.8289 52.3083 92.8221" fill="#263238"/>
<path d="M51.4476 105.981C50.941 106.317 50.4789 106.716 50.0725 107.168C49.6657 107.628 49.4536 108.228 49.4811 108.841C49.5555 109.173 49.5926 109.511 49.5916 109.851C49.4454 110.296 49.2079 110.705 48.8945 111.053C48.604 111.585 48.4908 112.196 48.5712 112.797C48.6516 113.398 48.9215 113.957 49.3416 114.394C50.2145 115.252 51.3919 115.729 52.616 115.721C53.3202 115.781 54.0251 115.613 54.6258 115.24C55.4528 114.663 55.7702 113.577 55.7942 112.563" fill="#263238"/>
<path d="M52.0534 93.6202C51.931 93.9479 51.7556 94.2532 51.5341 94.524C51.0453 95.2147 50.4719 95.8414 49.8272 96.3894C49.1874 96.9435 48.4817 97.4166 47.726 97.7981C47.427 97.9734 47.1026 98.1016 46.7644 98.1779C47.7861 97.5968 48.7604 96.9361 49.6782 96.2019C50.536 95.4046 51.3302 94.5414 52.0534 93.6202V93.6202Z" fill="#455A64"/>
<path d="M52.9717 93.5673C52.9853 93.9787 52.9317 94.3895 52.813 94.7837C52.576 95.7463 52.1968 96.6683 51.6879 97.5192C51.1758 98.3678 50.5388 99.1344 49.7983 99.7933C49.5052 100.082 49.1675 100.323 48.7982 100.505C49.8262 99.5921 50.7255 98.544 51.4716 97.3894C52.1445 96.1902 52.6493 94.9041 52.9717 93.5673V93.5673Z" fill="#455A64"/>
<path d="M33.7535 97.5962C33.8256 97.5962 33.9217 98.4231 34.2343 99.4087C34.5468 100.394 34.8786 101.149 34.8113 101.183C34.0672 100.139 33.6947 98.8763 33.7535 97.5962V97.5962Z" fill="#455A64"/>
<path d="M54.9624 114.587C55.1802 114.73 55.4328 114.811 55.6932 114.822C55.9957 114.818 56.2902 114.724 56.5395 114.553C56.8591 114.318 57.0855 113.977 57.179 113.591C57.2942 113.117 57.2942 112.623 57.179 112.149C57.078 111.625 56.8761 111.087 56.6981 110.495C56.4804 109.879 56.4064 109.221 56.4818 108.572C56.5924 107.87 57.0491 107.298 57.2703 106.649C57.3749 106.339 57.4164 106.012 57.3925 105.685C57.3686 105.359 57.2796 105.041 57.1309 104.75C56.8572 104.198 56.3875 103.768 55.8134 103.543C55.5315 103.438 55.2555 103.318 54.9864 103.183C54.7179 103.05 54.4903 102.848 54.3277 102.596C54.089 102.129 53.9858 101.604 54.0296 101.082C54.0618 100.674 54.0457 100.264 53.9815 99.8606C53.9286 99.5602 53.805 99.2768 53.6209 99.0337C53.4552 98.8309 53.2269 98.6889 52.9718 98.6298C53.0413 98.6129 53.1139 98.6129 53.1834 98.6298C53.3828 98.6817 53.562 98.7922 53.6978 98.9471C53.9019 99.1984 54.0465 99.4926 54.121 99.8077C54.203 100.221 54.2321 100.642 54.2075 101.063C54.1736 101.548 54.2769 102.032 54.5056 102.462C54.7749 102.904 55.3326 103.087 55.9 103.312C56.5279 103.552 57.0427 104.019 57.3424 104.62C57.5072 104.94 57.6066 105.29 57.6346 105.649C57.6627 106.008 57.619 106.37 57.5059 106.712C57.2559 107.399 56.8135 107.947 56.7174 108.577C56.6442 109.195 56.7115 109.821 56.9145 110.409C57.0828 110.986 57.2799 111.538 57.3953 112.082C57.5026 112.591 57.4878 113.118 57.3521 113.62C57.2377 114.043 56.977 114.411 56.6164 114.659C56.3414 114.838 56.0165 114.926 55.6884 114.909C55.4827 114.899 55.2833 114.835 55.1114 114.721C55.0528 114.687 55.002 114.641 54.9624 114.587V114.587Z" fill="#455A64"/>
<path d="M51.4909 114.245C51.4909 114.245 51.5534 114.399 51.7842 114.51C51.9459 114.577 52.1253 114.588 52.2942 114.542C52.4631 114.496 52.6118 114.395 52.7169 114.255C52.841 114.02 52.8993 113.757 52.8858 113.492C52.8722 113.227 52.7873 112.971 52.64 112.75C52.3659 112.207 51.8226 111.673 51.6784 110.88C51.639 110.687 51.6423 110.487 51.688 110.295C51.7337 110.104 51.8206 109.924 51.9428 109.769C52.1784 109.481 52.4573 109.288 52.6352 109.053C52.9431 108.603 53.0638 108.051 52.9718 107.514C52.9123 107.143 52.8206 106.778 52.6977 106.423C52.6417 106.294 52.6029 106.158 52.5823 106.019C52.5823 106.019 52.6737 106.144 52.7843 106.389C52.9521 106.739 53.0734 107.109 53.1449 107.49C53.2064 107.78 53.2097 108.08 53.1544 108.371C53.0991 108.663 52.9863 108.94 52.8227 109.187C52.616 109.466 52.3419 109.668 52.14 109.923C52.039 110.051 51.9673 110.2 51.9299 110.358C51.8925 110.517 51.8904 110.682 51.9236 110.841C52.039 111.529 52.5487 112.053 52.842 112.644C53 112.903 53.0837 113.2 53.0837 113.502C53.0837 113.805 53 114.102 52.842 114.361C52.769 114.455 52.677 114.534 52.5718 114.591C52.4666 114.648 52.3506 114.683 52.2313 114.692C52.0556 114.713 51.8777 114.68 51.7217 114.596C51.4812 114.423 51.4812 114.24 51.4909 114.245Z" fill="#455A64"/>
<path d="M32.6428 112.981C32.4954 112.868 32.3629 112.737 32.2485 112.591C31.9053 112.216 31.623 111.789 31.4119 111.327C31.2695 110.996 31.2006 110.639 31.21 110.279C31.2122 109.852 31.3616 109.44 31.6331 109.111C31.9312 108.769 32.3639 108.587 32.6236 108.264C32.7494 108.088 32.8327 107.884 32.8668 107.67C32.901 107.455 32.8852 107.236 32.8207 107.029C32.7033 106.584 32.5271 106.157 32.2966 105.76C32.071 105.366 31.9088 104.939 31.8158 104.495C31.7378 104.075 31.8257 103.641 32.061 103.284C32.271 102.999 32.5166 102.742 32.7918 102.519C33.1895 102.231 33.4791 101.818 33.614 101.346C33.6466 101.171 33.6466 100.992 33.614 100.817C33.614 100.817 33.6525 100.856 33.6862 100.942C33.7344 101.076 33.7492 101.22 33.7294 101.361C33.6254 101.871 33.3424 102.328 32.9313 102.649C32.6776 102.871 32.4502 103.121 32.2533 103.394C32.054 103.71 31.9851 104.091 32.061 104.457C32.1599 104.875 32.3221 105.275 32.5418 105.644C32.7846 106.06 32.9705 106.506 33.0948 106.971C33.1658 107.215 33.1803 107.471 33.1369 107.721C33.0936 107.971 32.9937 108.208 32.8447 108.413C32.5178 108.798 32.085 108.966 31.835 109.26C31.5916 109.544 31.454 109.904 31.4456 110.279C31.4308 110.607 31.4849 110.934 31.6042 111.24C31.7931 111.697 32.0456 112.124 32.3543 112.51C32.4655 112.657 32.5621 112.815 32.6428 112.981Z" fill="#455A64"/>
<path d="M52.6929 92.2596C52.3494 91.7935 51.956 91.3663 51.5197 90.9856C51.0353 90.6703 50.5177 90.4092 49.9763 90.2067C50.5884 90.2165 51.1815 90.4206 51.6699 90.7896C52.1582 91.1587 52.5165 91.6735 52.6929 92.2596V92.2596Z" fill="#055EFF"/>
<path d="M53.3708 87.6587C53.3997 87.6587 53.5584 87.8318 53.6882 88.2019C53.8544 88.6945 53.8695 89.2255 53.7316 89.7266C53.5936 90.2278 53.3089 90.6763 52.9141 91.0144C52.6063 91.2692 52.3755 91.3462 52.3611 91.3221C52.3467 91.2981 52.539 91.1587 52.789 90.8894C53.1219 90.5457 53.3632 90.124 53.4909 89.6629C53.6186 89.2017 53.6285 88.716 53.5199 88.25C53.4532 88.0576 53.4033 87.8597 53.3708 87.6587V87.6587Z" fill="#455A64"/>
<path opacity="0.3" d="M28.9694 146.798C28.9694 146.798 40.9177 158.144 48.0194 156.087C55.1211 154.029 57.2174 148.707 57.2174 148.707L57.3905 146.784L56.6789 146.303L29.33 144.12L28.9694 146.798Z" fill="black"/>
<path d="M21.9061 136.173L24.2092 130.288L32.4649 135.476L25.1084 146.817C25.1084 146.817 22.1177 142.913 21.9061 136.173Z" fill="#EB996E"/>
<path d="M31.2196 119.856C35.0661 117.846 40.0378 117.269 40.0378 117.269C41.4802 120.154 46.0336 120.524 48.7887 118.553L51.1158 116.981C51.4369 116.976 51.7581 116.99 52.0775 117.024C54.7315 117.273 57.2346 118.371 59.2161 120.153C61.1976 121.936 62.5519 124.31 63.0786 126.923C63.5375 128.973 63.733 131.073 63.6604 133.173C63.3575 138.428 57.9194 138.904 57.9194 138.904C57.9194 138.904 57.6405 144.091 57.2703 148.288C57.1906 149.75 56.7029 151.161 55.8624 152.36C55.0219 153.559 53.8623 154.498 52.515 155.072C50.6105 156.025 48.562 156.656 46.4519 156.942C43.1578 157.458 39.7875 157.158 36.6365 156.068C33.4854 154.978 30.6497 153.132 28.3779 150.692C29.2049 145.692 29.9935 139.216 29.9358 138.923C29.9264 138.892 29.9264 138.858 29.9358 138.827L24.5458 134.043L21.4878 131.476C21.4878 131.476 28.2193 121.524 31.2099 119.889" fill="#055EFF"/>
<path d="M15.5401 115.865C15.8286 116.207 26.4018 130.341 26.4018 130.341L24.916 131.188L14.064 117.245L15.5401 115.865Z" fill="#263238"/>
<path d="M56.7991 125.962C56.7991 125.962 46.8846 143.063 46.2211 143.375C44.8988 143.995 29.6857 130.846 28.2337 129.591C28.0365 129.322 27.623 128.76 26.7912 127.639C26.7912 127.639 25.594 122.144 24.3102 122.567C23.0264 122.99 25.0122 125.361 24.1804 127.447C23.3486 129.534 19.5261 124.562 19.3722 124.111L18.4106 122.822C18.4106 122.822 17.3768 125.75 17.4489 126.976C17.6701 130.894 21.3772 135.553 21.3772 135.553C21.3772 135.553 36.4461 154.428 47.8511 155.067C51.1351 155.255 57.4097 145.798 61.314 138.808C63.67 134.587 62.5737 130.303 58.6695 127.452L56.7991 125.962Z" fill="#FFBE9D"/>
<path d="M19.3098 127.644C18.659 126.777 18.1703 125.8 17.8673 124.76C17.9058 124.76 18.1895 125.409 18.5885 126.202C18.9876 126.995 19.3434 127.625 19.3098 127.644Z" fill="#EB996E"/>
<path d="M56.3328 121.183C55.9433 121.418 46.7164 138.534 46.7164 138.534L58.5878 147.827C60.4024 143.319 61.9754 138.718 63.2999 134.043C63.7422 132.365 63.5162 127.88 62.8912 126.149C62.0065 123.692 60.6698 124.303 58.6648 122.865L56.3328 121.183Z" fill="#055EFF"/>
<g opacity="0.7">
<path opacity="0.7" d="M60.2321 121.183C60.2321 121.183 60.1167 121.115 59.8955 121.005C59.5733 120.841 59.213 120.766 58.8521 120.788C58.2829 120.842 57.7431 121.067 57.3039 121.433C56.7162 121.903 56.201 122.457 55.7749 123.077C55.2525 123.853 54.7711 124.655 54.3324 125.481C53.8516 126.351 53.3035 127.284 52.7457 128.264C51.6254 130.221 50.3897 132.375 49.1011 134.635C48.3078 136.005 47.5433 137.337 46.8221 138.587L46.7932 138.433L54.8229 144.779L57.1549 146.649L57.7703 147.159C57.8456 147.214 57.9149 147.277 57.9771 147.346C57.895 147.303 57.8177 147.251 57.7463 147.192L57.102 146.712L54.7267 144.894L46.6442 138.644L46.5576 138.577L46.6394 138.462C47.3606 137.212 48.1251 135.88 48.9088 134.505C50.207 132.25 51.4475 130.106 52.5727 128.149L54.1786 125.375C54.6167 124.549 55.0982 123.746 55.621 122.971C56.0671 122.334 56.6088 121.77 57.227 121.298C57.6924 120.928 58.2588 120.706 58.8521 120.663C59.2284 120.65 59.6007 120.745 59.9244 120.937C60.0085 120.984 60.0888 121.037 60.1648 121.096C60.2129 121.154 60.2369 121.178 60.2321 121.183Z" fill="black"/>
</g>
<g clip-path="url(#clip0)">
<path d="M76.6474 64.3142V65.3846H76.2867V62.6502H77.2953C77.5946 62.6502 77.8287 62.7266 77.9978 62.8794C78.1681 63.0321 78.2532 63.2343 78.2532 63.486C78.2532 63.7514 78.1699 63.9561 78.0034 64.1001C77.8381 64.2428 77.6009 64.3142 77.2916 64.3142H76.6474ZM76.6474 64.0193H77.2953C77.4882 64.0193 77.6359 63.9742 77.7386 63.8841C77.8413 63.7927 77.8926 63.6612 77.8926 63.4897C77.8926 63.3269 77.8413 63.1967 77.7386 63.0991C77.6359 63.0014 77.4951 62.9507 77.316 62.947H76.6474V64.0193ZM79.4759 65.4222C79.2005 65.4222 78.9763 65.332 78.8035 65.1517C78.6307 64.9702 78.5443 64.7279 78.5443 64.425V64.3611C78.5443 64.1595 78.5825 63.9799 78.6589 63.8221C78.7365 63.6631 78.8442 63.5392 78.982 63.4503C79.1209 63.3601 79.2712 63.3151 79.4327 63.3151C79.6969 63.3151 79.9023 63.4021 80.0488 63.5761C80.1953 63.7501 80.2685 63.9993 80.2685 64.3235V64.4682H78.8918C78.8968 64.6685 78.955 64.8306 79.0665 64.9546C79.1792 65.0773 79.3219 65.1386 79.4947 65.1386C79.6174 65.1386 79.7213 65.1136 79.8065 65.0635C79.8916 65.0134 79.9661 64.947 80.03 64.8644L80.2422 65.0297C80.0719 65.2913 79.8165 65.4222 79.4759 65.4222ZM79.4327 63.6005C79.2925 63.6005 79.1748 63.6518 79.0796 63.7545C78.9845 63.8559 78.9256 63.9986 78.9031 64.1827H79.9211V64.1564C79.911 63.9799 79.8635 63.8434 79.7783 63.747C79.6932 63.6493 79.578 63.6005 79.4327 63.6005ZM80.5878 64.3517C80.5878 64.04 80.6617 63.7896 80.8094 63.6005C80.9572 63.4102 81.1506 63.3151 81.3898 63.3151C81.6277 63.3151 81.8162 63.3964 81.9551 63.5592V62.5H82.3026V65.3846H81.9833L81.9664 65.1668C81.8274 65.337 81.6339 65.4222 81.386 65.4222C81.1506 65.4222 80.9584 65.3258 80.8094 65.133C80.6617 64.9402 80.5878 64.6885 80.5878 64.378V64.3517ZM80.9353 64.3912C80.9353 64.6215 80.9829 64.8018 81.078 64.932C81.1732 65.0622 81.3047 65.1273 81.4724 65.1273C81.6928 65.1273 81.8537 65.0284 81.9551 64.8306V63.8972C81.8512 63.7057 81.6915 63.6099 81.4762 63.6099C81.3059 63.6099 81.1732 63.6756 81.078 63.8071C80.9829 63.9386 80.9353 64.1332 80.9353 64.3912ZM83.8258 63.6644C83.7732 63.6556 83.7163 63.6512 83.6549 63.6512C83.427 63.6512 83.2724 63.7482 83.191 63.9423V65.3846H82.8435V63.3526H83.1816L83.1872 63.5874C83.3012 63.4058 83.4627 63.3151 83.6718 63.3151C83.7394 63.3151 83.7908 63.3238 83.8258 63.3413V63.6644ZM84.0174 64.3498C84.0174 64.1508 84.0562 63.9717 84.1339 63.8127C84.2127 63.6537 84.3217 63.531 84.4607 63.4446C84.6009 63.3583 84.7606 63.3151 84.9396 63.3151C85.2163 63.3151 85.4398 63.4108 85.6101 63.6024C85.7817 63.7939 85.8674 64.0487 85.8674 64.3667V64.3912C85.8674 64.589 85.8292 64.7668 85.7529 64.9245C85.6777 65.081 85.5694 65.2031 85.4279 65.2907C85.2877 65.3784 85.1262 65.4222 84.9434 65.4222C84.6679 65.4222 84.4444 65.3264 84.2728 65.1348C84.1026 64.9433 84.0174 64.6898 84.0174 64.3743V64.3498ZM84.3667 64.3912C84.3667 64.6165 84.4187 64.7974 84.5227 64.9339C84.6278 65.0704 84.7681 65.1386 84.9434 65.1386C85.1199 65.1386 85.2601 65.0697 85.3641 64.932C85.468 64.793 85.52 64.599 85.52 64.3498C85.52 64.127 85.4667 63.9467 85.3603 63.809C85.2551 63.67 85.1149 63.6005 84.9396 63.6005C84.7681 63.6005 84.6297 63.6687 84.5245 63.8052C84.4193 63.9417 84.3667 64.137 84.3667 64.3912Z" fill="white"/>
</g>
<g clip-path="url(#clip1)">
<path d="M69.6223 125.248H68.4766L68.2193 125.962H67.8474L68.8917 123.227H69.2072L70.2534 125.962H69.8834L69.6223 125.248ZM68.5855 124.951H69.5152L69.0495 123.672L68.5855 124.951ZM70.8938 123.93L70.9032 124.155C71.0522 123.98 71.2532 123.892 71.5061 123.892C71.7904 123.892 71.9838 124.001 72.0865 124.219C72.1541 124.121 72.2418 124.042 72.3494 123.982C72.4584 123.922 72.5867 123.892 72.7345 123.892C73.1802 123.892 73.4069 124.128 73.4144 124.6V125.962H73.0669V124.621C73.0669 124.475 73.0337 124.367 72.9674 124.296C72.901 124.223 72.7896 124.187 72.6331 124.187C72.5041 124.187 72.397 124.226 72.3119 124.303C72.2267 124.38 72.1773 124.483 72.1635 124.613V125.962H71.8142V124.63C71.8142 124.335 71.6695 124.187 71.3803 124.187C71.1524 124.187 70.9965 124.284 70.9126 124.478V125.962H70.5652V123.93H70.8938ZM75.1949 125.962C75.1749 125.921 75.1586 125.85 75.1461 125.747C74.9845 125.915 74.7917 125.999 74.5676 125.999C74.3673 125.999 74.2026 125.943 74.0736 125.83C73.9459 125.716 73.8821 125.572 73.8821 125.398C73.8821 125.187 73.9622 125.023 74.1225 124.906C74.284 124.788 74.5106 124.73 74.8024 124.73H75.1404V124.57C75.1404 124.449 75.1041 124.352 75.0315 124.281C74.9589 124.208 74.8518 124.172 74.7103 124.172C74.5864 124.172 74.4825 124.203 74.3986 124.266C74.3147 124.328 74.2727 124.404 74.2727 124.493H73.9234C73.9234 124.392 73.9591 124.294 74.0305 124.2C74.1031 124.105 74.2007 124.03 74.3234 123.975C74.4474 123.92 74.5833 123.892 74.731 123.892C74.9652 123.892 75.1486 123.951 75.2813 124.069C75.4141 124.185 75.4829 124.346 75.4879 124.551V125.486C75.4879 125.673 75.5117 125.821 75.5593 125.932V125.962H75.1949ZM74.6183 125.697C74.7273 125.697 74.8305 125.669 74.9282 125.612C75.0259 125.556 75.0966 125.483 75.1404 125.393V124.976H74.8681C74.4424 124.976 74.2295 125.1 74.2295 125.349C74.2295 125.458 74.2658 125.543 74.3385 125.605C74.4111 125.666 74.5043 125.697 74.6183 125.697ZM76.3613 123.93L76.3725 124.185C76.5278 123.99 76.7306 123.892 76.9811 123.892C77.4106 123.892 77.6272 124.134 77.6309 124.619V125.962H77.2835V124.617C77.2822 124.47 77.2484 124.362 77.182 124.292C77.1169 124.222 77.0149 124.187 76.8759 124.187C76.7632 124.187 76.6643 124.217 76.5791 124.277C76.494 124.337 76.4276 124.416 76.3801 124.514V125.962H76.0326V123.93H76.3613ZM78.0704 124.929C78.0704 124.617 78.1443 124.366 78.292 124.177C78.4398 123.987 78.6333 123.892 78.8724 123.892C79.1103 123.892 79.2988 123.973 79.4377 124.136V123.077H79.7852V125.962H79.4659L79.449 125.744C79.31 125.914 79.1166 125.999 78.8686 125.999C78.6333 125.999 78.441 125.903 78.292 125.71C78.1443 125.517 78.0704 125.265 78.0704 124.955V124.929ZM78.4179 124.968C78.4179 125.198 78.4655 125.379 78.5606 125.509C78.6558 125.639 78.7873 125.704 78.955 125.704C79.1754 125.704 79.3363 125.605 79.4377 125.408V124.474C79.3338 124.283 79.1742 124.187 78.9588 124.187C78.7885 124.187 78.6558 124.253 78.5606 124.384C78.4655 124.515 78.4179 124.71 78.4179 124.968ZM81.5808 125.962C81.5607 125.921 81.5445 125.85 81.5319 125.747C81.3704 125.915 81.1776 125.999 80.9535 125.999C80.7531 125.999 80.5885 125.943 80.4595 125.83C80.3318 125.716 80.2679 125.572 80.2679 125.398C80.2679 125.187 80.3481 125.023 80.5083 124.906C80.6698 124.788 80.8965 124.73 81.1882 124.73H81.5263V124.57C81.5263 124.449 81.49 124.352 81.4174 124.281C81.3448 124.208 81.2377 124.172 81.0962 124.172C80.9722 124.172 80.8683 124.203 80.7844 124.266C80.7005 124.328 80.6586 124.404 80.6586 124.493H80.3092C80.3092 124.392 80.3449 124.294 80.4163 124.2C80.4889 124.105 80.5866 124.03 80.7093 123.975C80.8333 123.92 80.9691 123.892 81.1168 123.892C81.351 123.892 81.5344 123.951 81.6672 124.069C81.7999 124.185 81.8687 124.346 81.8737 124.551V125.486C81.8737 125.673 81.8975 125.821 81.9452 125.932V125.962H81.5808ZM81.0042 125.697C81.1131 125.697 81.2164 125.669 81.3141 125.612C81.4117 125.556 81.4825 125.483 81.5263 125.393V124.976H81.254C80.8283 124.976 80.6154 125.1 80.6154 125.349C80.6154 125.458 80.6517 125.543 80.7243 125.605C80.797 125.666 80.8902 125.697 81.0042 125.697Z" fill="white"/>
</g>
<g clip-path="url(#clip2)">
<path d="M45.266 127.645L45.4613 126.868H45.6351L45.3393 127.884H45.1984L44.9514 127.114L44.711 127.884H44.5701L44.2753 126.868H44.4481L44.6481 127.629L44.8847 126.868H45.0247L45.266 127.645ZM46.0013 127.884H45.8276V126.868H46.0013V127.884ZM45.8135 126.599C45.8135 126.571 45.822 126.547 45.8389 126.527C45.8564 126.508 45.8821 126.498 45.9159 126.498C45.9497 126.498 45.9753 126.508 45.9929 126.527C46.0104 126.547 46.0192 126.571 46.0192 126.599C46.0192 126.627 46.0104 126.65 45.9929 126.669C45.9753 126.688 45.9497 126.697 45.9159 126.697C45.8821 126.697 45.8564 126.688 45.8389 126.669C45.822 126.65 45.8135 126.627 45.8135 126.599ZM47.3978 127.742H47.9922V127.884H47.1855V127.757L47.7462 127.012H47.194V126.868H47.964V126.991L47.3978 127.742ZM48.5951 127.903C48.4574 127.903 48.3453 127.858 48.2589 127.768C48.1725 127.677 48.1293 127.556 48.1293 127.404V127.372C48.1293 127.272 48.1484 127.182 48.1866 127.103C48.2254 127.023 48.2793 126.961 48.3481 126.917C48.4176 126.872 48.4928 126.849 48.5735 126.849C48.7056 126.849 48.8083 126.893 48.8815 126.98C48.9548 127.067 48.9914 127.192 48.9914 127.354V127.426H48.3031C48.3056 127.526 48.3347 127.607 48.3904 127.669C48.4467 127.731 48.5181 127.761 48.6045 127.761C48.6659 127.761 48.7178 127.749 48.7604 127.724C48.803 127.699 48.8402 127.665 48.8722 127.624L48.9783 127.707C48.8931 127.838 48.7654 127.903 48.5951 127.903ZM48.5735 126.992C48.5034 126.992 48.4446 127.018 48.397 127.069C48.3494 127.12 48.32 127.191 48.3087 127.283H48.8177V127.27C48.8127 127.182 48.7889 127.114 48.7463 127.065C48.7037 127.017 48.6461 126.992 48.5735 126.992ZM49.6845 127.024C49.6582 127.02 49.6297 127.018 49.599 127.018C49.4851 127.018 49.4078 127.066 49.367 127.163V127.884H49.1933V126.868H49.3624L49.3652 126.986C49.4221 126.895 49.5029 126.849 49.6075 126.849C49.6413 126.849 49.6669 126.854 49.6845 126.863V127.024Z" fill="white"/>
<path d="M46.4442 127.743H47.0386V127.885H46.2319V127.757L46.7926 127.012H46.2404V126.869H47.0104V126.992L46.4442 127.743Z" fill="#11DE9A"/>
</g>
<defs>
<clipPath id="clip0">
<rect x="75.9694" y="62.5" width="10.0972" height="3.36539" fill="white"/>
</clipPath>
<clipPath id="clip1">
<rect x="67.7954" y="123.077" width="14.4245" height="3.36539" fill="white"/>
</clipPath>
<clipPath id="clip2">
<rect x="44.2354" y="126.442" width="5.76982" height="1.92309" fill="white"/>
</clipPath>
</defs>
</svg>
