<svg width="240" height="180" viewBox="0 0 194 111" fill="none" xmlns="http://www.w3.org/2000/svg">
<path d="M96.6174 111C43.2571 111 -1.52588e-05 108.5 -1.52588e-05 105.416C-1.52588e-05 102.332 43.2571 99.8323 96.6174 99.8323C149.978 99.8323 193.235 102.332 193.235 105.416C193.235 108.5 149.978 111 96.6174 111Z" fill="#F5F5F5"/>
<path d="M74.8174 54.0784C75.0966 54.0834 75.3759 54.0884 75.6551 54.1083C81.5787 54.5269 86.3705 59.5457 86.7494 65.7156C86.8342 67.1261 86.6946 68.4867 86.3655 69.7675C84.9993 75.0454 84.4907 80.5226 84.4907 85.9849V101.908C84.4907 103.065 83.5931 104.001 82.4812 104.001H74.8174H76.1338H42.9156V54.0784H74.8174Z" fill="#407BFF"/>
<path opacity="0.3" d="M74.8174 54.0784C75.0966 54.0834 75.3759 54.0884 75.6551 54.1083C81.5787 54.5269 86.3705 59.5457 86.7494 65.7156C86.8342 67.1261 86.6946 68.4867 86.3655 69.7675C84.9993 75.0454 84.4907 80.5226 84.4907 85.9849V101.908C84.4907 103.065 83.5931 104.001 82.4812 104.001H74.8174H76.1338H42.9156V54.0784H74.8174Z" fill="black"/>
<path d="M30.9586 66.5278C30.9586 59.361 36.7725 53.6097 43.7532 54.1081C49.6768 54.5267 54.4686 59.5454 54.8476 65.7154C54.9323 67.1259 54.7927 68.4864 54.4636 69.7673C53.0974 75.0452 52.5888 80.5224 52.5888 85.9847V101.908C52.5888 103.064 51.6913 104.001 50.5794 104.001H35.2517C34.1448 104.001 33.2423 103.064 33.2423 101.908V85.0477C33.2423 79.9194 32.7037 74.791 31.3924 69.852C31.1081 68.7954 30.9586 67.6791 30.9586 66.5278Z" fill="#407BFF"/>
<path d="M59.395 73.6896H109.836V104.001H59.395V73.6896Z" fill="#407BFF"/>
<path opacity="0.3" d="M59.395 73.6896H109.836V104.001H59.395V73.6896Z" fill="black"/>
<path d="M80.9156 37.3824H136.612C141.713 37.3824 145.846 41.514 145.846 46.6124V80.5424H71.6761V46.6124C71.6761 41.514 75.8147 37.3824 80.9156 37.3824Z" fill="#407BFF"/>
<path opacity="0.4" d="M80.9156 37.3824H136.612C141.713 37.3824 145.846 41.514 145.846 46.6124V80.5424H71.6761V46.6124C71.6761 41.514 75.8147 37.3824 80.9156 37.3824Z" fill="black"/>
<path d="M78.0535 37.3824H125.662C130.519 37.3824 134.453 41.3146 134.453 46.1689V80.5424H69.2628V46.1689C69.2628 41.3146 73.1969 37.3824 78.0535 37.3824Z" fill="#407BFF"/>
<path d="M60.0482 70.5348H106.954C107.402 70.5348 107.766 70.8986 107.766 71.3471V82.4561C107.766 82.9046 107.402 83.2684 106.954 83.2684H60.0482C58.5424 83.2684 57.3257 82.0524 57.3257 80.5473V73.2559C57.3257 71.7558 58.5424 70.5348 60.0482 70.5348Z" fill="#407BFF"/>
<path opacity="0.4" d="M60.0482 70.5348H106.954C107.402 70.5348 107.766 70.8986 107.766 71.3471V82.4561C107.766 82.9046 107.402 83.2684 106.954 83.2684H60.0482C58.5424 83.2684 57.3257 82.0524 57.3257 80.5473V73.2559C57.3257 71.7558 58.5424 70.5348 60.0482 70.5348Z" fill="black"/>
<path d="M43.7981 105.521H149.262C150.084 105.521 150.748 104.858 150.748 104.036V104.006H42.3122V104.036C42.3122 104.853 42.9754 105.521 43.7981 105.521Z" fill="#407BFF"/>
<path opacity="0.4" d="M43.7981 105.521H149.262C150.084 105.521 150.748 104.858 150.748 104.036V104.006H42.3122V104.036C42.3122 104.853 42.9754 105.521 43.7981 105.521Z" fill="black"/>
<path d="M85.9516 32.3635L85.7522 33.1759L85.5228 34.0531C85.3633 34.6412 85.1937 35.2342 85.0092 35.8223C84.6602 37.0085 84.2763 38.1946 83.8774 39.3758C83.4685 40.557 83.0646 41.7431 82.6109 42.9143C82.3915 43.5024 82.1721 44.0905 81.9377 44.6736L81.6635 45.3714C81.6236 45.471 81.5538 45.5807 81.4491 45.7053C81.0402 46.2236 80.1028 46.7967 79.0756 47.2004C78.0435 47.639 76.8867 47.958 75.7049 48.247C74.5182 48.5261 73.2966 48.7554 72.06 48.9448C70.8334 49.1541 69.5569 49.2936 68.3403 49.4232L68.2954 51.9401C70.978 52.2042 73.6107 52.2341 76.3282 51.9401C77.6845 51.7955 79.0507 51.5513 80.4518 51.1426C81.1499 50.9283 81.8579 50.6642 82.576 50.3054C83.289 49.9415 84.027 49.493 84.7101 48.8052C85.0491 48.4613 85.3732 48.0576 85.6475 47.5942C85.7173 47.4795 85.7771 47.3549 85.8419 47.2353L85.9666 46.9861L86.181 46.5426C86.4702 45.9495 86.7594 45.3564 87.0287 44.7534C87.5722 43.5473 88.1007 42.3312 88.5744 41.0902C89.0581 39.8543 89.5018 38.5983 89.9007 37.3175C90.0952 36.6746 90.2797 36.0316 90.4542 35.3738L90.7085 34.382C90.7883 34.0281 90.8531 33.7341 90.9329 33.3105L85.9516 32.3635Z" fill="#B55B52"/>
<path d="M87.5422 27.0658C85.5378 27.5742 84.1316 35.8324 84.1316 35.8324L89.6614 39.5902C89.6614 39.5902 94.9617 31.2622 93.421 29.0594C91.8154 26.7618 90.4741 26.3183 87.5422 27.0658Z" fill="#407BFF"/>
<path opacity="0.5" d="M87.5422 27.0658C85.5378 27.5742 84.1316 35.8324 84.1316 35.8324L89.6614 39.5902C89.6614 39.5902 94.9617 31.2622 93.421 29.0594C91.8154 26.7618 90.4741 26.3183 87.5422 27.0658Z" fill="#FAFAFA"/>
<path d="M87.3627 30.066L91.6609 31.0628L92.0747 35.2592C90.9528 37.5767 89.6664 39.5901 89.6664 39.5901L86.3106 37.3125C86.4502 35.3788 86.8142 31.3718 87.3627 30.066Z" fill="#407BFF"/>
<path opacity="0.3" d="M87.3627 30.066L91.6609 31.0628L92.0747 35.2592C90.9528 37.5767 89.6664 39.5901 89.6664 39.5901L86.3106 37.3125C86.4502 35.3788 86.8142 31.3718 87.3627 30.066Z" fill="#FAFAFA"/>
<path d="M69.0633 49.4034L65.6078 45.9047L65.1541 50.8338C65.1541 50.8338 67.7419 52.5831 69.537 51.6461L69.0633 49.4034Z" fill="#B55B52"/>
<path d="M61.5491 45.3814L61.3945 49.5279L65.1541 50.8287L65.6078 45.9047L61.5491 45.3814Z" fill="#B55B52"/>
<path d="M87.5422 27.0658C87.5422 27.0658 85.2236 27.8832 89.8708 56.4405C97.7191 56.4405 105.827 56.4405 109.646 56.4405C109.312 48.3966 109.307 43.4377 113.151 26.9263C113.151 26.9263 109.008 26.0242 104.755 25.8199C101.429 25.6604 98.7014 25.5557 95.7745 25.8199C91.9151 26.1687 87.5422 27.0658 87.5422 27.0658Z" fill="#407BFF"/>
<path opacity="0.5" d="M87.5422 27.0658C87.5422 27.0658 85.2236 27.8832 89.8708 56.4405C97.7191 56.4405 105.827 56.4405 109.646 56.4405C109.312 48.3966 109.307 43.4377 113.151 26.9263C113.151 26.9263 109.008 26.0242 104.755 25.8199C101.429 25.6604 98.7014 25.5557 95.7745 25.8199C91.9151 26.1687 87.5422 27.0658 87.5422 27.0658Z" fill="#FAFAFA"/>
<path d="M93.4808 26.079C94.2387 25.9793 95.0166 25.8896 95.7745 25.8198C98.7014 25.5507 101.429 25.6603 104.755 25.8198C105.448 25.8547 106.136 25.9045 106.799 25.9693L106.654 26.4229C106.575 26.677 104.595 32.6975 97.4598 35.8921L96.0936 36.5052L95.1263 35.3589C92.0547 31.7456 92.7777 27.9878 93.4808 26.079Z" fill="#407BFF"/>
<path opacity="0.3" d="M93.4808 26.079C94.2387 25.9793 95.0166 25.8896 95.7745 25.8198C98.7014 25.5507 101.429 25.6603 104.755 25.8198C105.448 25.8547 106.136 25.9045 106.799 25.9693L106.654 26.4229C106.575 26.677 104.595 32.6975 97.4598 35.8921L96.0936 36.5052L95.1263 35.3589C92.0547 31.7456 92.7777 27.9878 93.4808 26.079Z" fill="black"/>
<path d="M108.499 34.5914L111.052 36.7643C110.509 39.65 110.145 42.0572 109.905 44.1952C109.427 42.0472 108.215 36.2311 108.499 34.5914Z" fill="#407BFF"/>
<path opacity="0.3" d="M108.499 34.5914L111.052 36.7643C110.509 39.65 110.145 42.0572 109.905 44.1952C109.427 42.0472 108.215 36.2311 108.499 34.5914Z" fill="#FAFAFA"/>
<path d="M101.17 1.10999C106.405 -0.529694 109.317 5.09706 108.813 12.1392C108.454 17.1779 109.467 19.3758 112.483 19.2312C111.072 22.5255 93.2664 27.4994 88.1405 21.5836C89.5865 20.8011 90.3095 17.3224 89.2475 14.1975C86.8641 7.15538 89.0829 -3.47016 101.17 1.10999Z" fill="#263238"/>
<path d="M103.862 15.7126C103.294 18.5982 102.73 23.8911 104.75 25.8198C104.75 25.8198 103.039 31.2073 96.6421 34.073C93.2415 30.066 95.7695 25.8198 95.7695 25.8198C98.9906 25.0523 98.9058 22.6601 98.3474 20.4173L103.862 15.7126Z" fill="#B55B52"/>
<path d="M101.618 17.6314L98.3573 20.4124C98.492 20.9457 98.5967 21.484 98.6366 22.0073C99.8682 21.8279 101.558 20.4772 101.688 19.1914C101.748 18.5485 101.723 17.9305 101.618 17.6314Z" fill="#9E4541"/>
<path d="M103.593 7.62885C104.725 12.3236 105.303 14.2873 103.703 17.3673C101.294 22.0022 95.2758 22.3661 92.7628 18.0999C90.499 14.2623 89.0281 7.23013 92.9772 4.01057C96.8664 0.840853 102.461 2.93407 103.593 7.62885Z" fill="#B55B52"/>
<path d="M104.426 10.3899C104.426 10.3899 94.7024 7.36966 99.1501 2.26123C104.386 3.54706 104.426 5.08706 104.426 5.08706V10.3899Z" fill="#263238"/>
<path d="M98.5318 5.16181C94.8669 5.54058 91.227 7.6936 90.0652 9.64726C89.3871 6.32304 91.7705 2.1715 94.4182 1.58839C97.0709 1.00528 100.267 2.25124 100.267 2.25124L98.5318 5.16181Z" fill="#263238"/>
<path d="M106.011 10.7437C106.041 11.7355 105.617 12.6625 105.059 13.2655C104.221 14.1726 103.209 13.5795 102.94 12.4582C102.7 11.4464 102.84 9.75692 103.922 9.2685C104.989 8.78507 105.981 9.6074 106.011 10.7437Z" fill="#B55B52"/>
<path d="M64.9147 60.303C75.9493 60.1485 83.1893 67.7239 83.1893 67.7239C82.1322 70.794 81.464 73.0915 81.464 73.0915C75.4157 72.02 68.5447 71.5465 62.8804 70.1859C57.7645 68.9549 57.1761 62.7899 57.7047 60.2083C58.2332 57.6267 61.1302 57.0436 63.9724 56.2262C67.2134 55.2942 73.4163 55.2693 77.854 55.2942C82.5411 55.3241 88.699 55.7627 91.8952 56.4355C91.8952 56.4355 98.6665 56.2262 103.683 56.3458C106.615 55.9272 104.889 60.1834 100.262 63.7867C95.4604 67.5246 89.2625 68.9799 83.2441 68.0728L83.2092 68.0678" fill="#263238"/>
<path d="M82.1521 72.3588L83.5582 67.076C83.6081 66.8816 83.7826 66.762 83.977 66.7869L88.32 67.2953C88.7688 67.3501 89.0829 67.8285 88.9583 68.2721C88.4347 70.1061 88.0907 70.9634 87.4724 73.2908C87.0934 74.7212 86.4552 77.7164 85.9267 79.69C85.4131 81.6188 83.4186 81.25 83.4635 80.3828C83.6529 76.4854 82.9449 74.7461 82.2319 73.226C82.1022 72.9469 82.0773 72.6379 82.1521 72.3588Z" fill="#263238"/>
<path d="M81.5687 75.4739C81.6834 75.4739 81.7931 75.439 81.8928 75.3742C82.4762 74.9954 82.6458 73.6049 82.6956 72.8125C82.6956 72.7776 82.6757 72.7477 82.6458 72.7327C82.6108 72.7178 82.5759 72.7277 82.551 72.7527C82.3865 72.9321 80.9405 74.5419 81.1 75.1848C81.1299 75.2994 81.2047 75.3841 81.3244 75.429C81.4092 75.4589 81.4889 75.4739 81.5687 75.4739ZM82.5161 73.0417C82.4164 74.193 82.1571 75.0104 81.8031 75.2396C81.6784 75.3194 81.5388 75.3343 81.3842 75.2745C81.3144 75.2496 81.2795 75.2097 81.2596 75.1449C81.1549 74.7213 82.0225 73.6149 82.5161 73.0417Z" fill="#407BFF"/>
<path d="M82.1371 73.3008L83.9621 66.4581L81.5587 65.4613L78.1731 72.8124L82.1371 73.3008Z" fill="#407BFF"/>
<path opacity="0.6" d="M82.1371 73.3008L83.9621 66.4581L81.5587 65.4613L78.1731 72.8124L82.1371 73.3008Z" fill="#FAFAFA"/>
<path d="M80.6962 73.9936C81.2795 73.9936 82.3267 73.2908 82.6807 72.8622C82.7006 72.8423 82.7056 72.8074 82.6956 72.7825C82.6857 72.7576 82.6607 72.7376 82.6358 72.7327C82.581 72.7227 81.2995 72.4984 80.6613 72.947C80.4718 73.0815 80.3521 73.2659 80.3172 73.4902C80.2674 73.7842 80.392 73.9038 80.5017 73.9537C80.5516 73.9786 80.6214 73.9936 80.6962 73.9936ZM82.4513 72.8672C81.9577 73.3756 80.8956 73.9537 80.5615 73.8042C80.5316 73.7892 80.4369 73.7494 80.4718 73.5101C80.5017 73.3257 80.5914 73.1862 80.746 73.0715C81.2147 72.7476 82.1023 72.8224 82.4513 72.8672Z" fill="#407BFF"/>
<path d="M105.862 56.6997C112 55.9123 121.08 55.6083 121.598 62.0025C122.117 68.3968 117.704 74.9605 105.697 75.3144C93.6952 75.6682 91.1074 72.653 90.6736 70.0863C90.1251 66.8369 89.1927 66.0095 92.0448 64.5393C94.9019 63.0691 95.4454 58.0354 105.862 56.6997Z" fill="#263238"/>
<path d="M92.8775 73.4504L94.2836 68.1675C94.3334 67.9732 94.2437 67.7838 94.0642 67.709L90.0403 65.9946C89.6215 65.8152 89.1129 66.0793 89.0032 66.5279C88.5444 68.3769 88.4148 69.2939 87.7965 71.6163C87.4176 73.0467 86.4801 75.9623 85.9516 77.9359C85.438 79.8646 87.3527 80.5324 87.7467 79.7599C89.5217 76.2862 91.0027 75.125 92.3739 74.1631C92.6282 73.9887 92.8027 73.7345 92.8775 73.4504Z" fill="#263238"/>
<path d="M92.1345 76.5353C92.2293 76.5353 92.314 76.5004 92.3788 76.4306C92.8376 75.9522 92.3788 73.8391 92.329 73.5998C92.324 73.5649 92.2941 73.54 92.2592 73.535C92.2243 73.5301 92.1894 73.55 92.1744 73.5799C91.8254 74.2926 91.2819 75.5834 91.596 76.2014C91.6858 76.3808 91.8453 76.4904 92.0597 76.5303C92.0896 76.5353 92.1096 76.5353 92.1345 76.5353ZM92.2193 73.869C92.3639 74.6115 92.5633 76.002 92.2592 76.316C92.2143 76.3659 92.1594 76.3808 92.0896 76.3658C91.9251 76.3359 91.8104 76.2562 91.7406 76.1266C91.4813 75.6133 91.955 74.4471 92.2193 73.869Z" fill="#407BFF"/>
<path d="M93.5506 75.6631C93.6653 75.6631 93.8099 75.6033 93.9096 75.3492C93.9894 75.1349 93.9794 74.9205 93.8847 74.7062C93.5556 73.9985 92.329 73.555 92.2792 73.535C92.2542 73.5251 92.2193 73.5301 92.1994 73.55C92.1794 73.5699 92.1645 73.5948 92.1695 73.6247C92.2742 74.2427 92.9772 75.6033 93.5207 75.6582C93.5307 75.6631 93.5406 75.6631 93.5506 75.6631ZM92.3639 73.7444C92.688 73.8789 93.5008 74.2577 93.7351 74.776C93.8149 74.9505 93.8249 75.1199 93.7551 75.2943C93.6703 75.5186 93.5656 75.5037 93.5307 75.5037C93.1717 75.4638 92.5384 74.4272 92.3639 73.7444Z" fill="#407BFF"/>
<path d="M92.6531 73.3855L93.7999 66.9813L96.6022 66.8766L96.3878 75.0351L92.6531 73.3855Z" fill="#407BFF"/>
<path opacity="0.6" d="M92.6531 73.3855L93.7999 66.9813L96.6022 66.8766L96.3878 75.0351L92.6531 73.3855Z" fill="#FAFAFA"/>
<path d="M96.9961 11.0677C97.1108 11.4415 97.0061 11.8103 96.7618 11.8851C96.5174 11.9598 96.2232 11.7156 96.1086 11.3418C95.9939 10.968 96.0986 10.5992 96.3429 10.5245C96.5872 10.4497 96.8764 10.6889 96.9961 11.0677Z" fill="#263238"/>
<path d="M92.7528 12.3685C92.8675 12.7423 92.7628 13.1111 92.5185 13.1858C92.2741 13.2606 91.9799 13.0164 91.8653 12.6426C91.7506 12.2688 91.8553 11.9 92.0996 11.8252C92.3439 11.7505 92.6331 11.9947 92.7528 12.3685Z" fill="#263238"/>
<path d="M92.2143 11.8153L91.232 11.8303C91.232 11.8303 91.9101 12.3934 92.2143 11.8153Z" fill="#263238"/>
<path d="M94.0692 12.6675C94.0692 12.6675 93.9296 14.4766 93.4659 15.4734C94.1041 15.7824 94.882 15.3139 94.882 15.3139L94.0692 12.6675Z" fill="#A02724"/>
<path d="M96.9811 16.1362C96.9911 16.1362 97.0011 16.1363 97.016 16.1263C98.2078 15.5432 98.5917 14.2723 98.6067 14.2175C98.6166 14.1776 98.5967 14.1377 98.5568 14.1278C98.5169 14.1178 98.477 14.1377 98.467 14.1776C98.4621 14.1876 98.0831 15.4435 96.9512 15.9967C96.9163 16.0166 96.9014 16.0565 96.9163 16.0964C96.9263 16.1213 96.9512 16.1362 96.9811 16.1362Z" fill="#263238"/>
<path d="M97.2055 8.54086C97.2554 8.54086 97.3003 8.51594 97.3302 8.47607C97.375 8.40629 97.3551 8.31658 97.2903 8.27173C96.2631 7.59392 95.3207 7.98764 95.2808 8.00758C95.206 8.04247 95.1711 8.12719 95.206 8.20195C95.2359 8.27671 95.3257 8.3116 95.4005 8.27671C95.4354 8.26176 96.2382 7.92784 97.1307 8.51594C97.1507 8.53587 97.1756 8.54086 97.2055 8.54086Z" fill="#263238"/>
<path d="M90.0652 11.0927C90.1201 11.0927 90.1699 11.0628 90.1949 11.0129C90.6985 10.066 91.591 9.97627 91.601 9.97627C91.6808 9.97128 91.7406 9.89653 91.7356 9.81679C91.7306 9.73705 91.6558 9.67724 91.576 9.68222C91.5312 9.6872 90.519 9.78688 89.9356 10.8734C89.8957 10.9431 89.9256 11.0329 89.9954 11.0727C90.0203 11.0877 90.0403 11.0927 90.0652 11.0927Z" fill="#263238"/>
<path d="M96.4576 10.5095L95.4753 10.5244C95.4753 10.5294 96.1534 11.0876 96.4576 10.5095Z" fill="#263238"/>
<path d="M109.94 55.2793L110.1 57.0486C110.17 57.1881 110.005 57.3277 109.776 57.3277H89.771C89.5915 57.3277 89.4469 57.238 89.432 57.1283L89.2525 55.3591C89.2425 55.2345 89.3971 55.1348 89.5915 55.1348H109.616C109.766 55.1298 109.895 55.1896 109.94 55.2793Z" fill="#407BFF"/>
<path opacity="0.3" d="M109.94 55.2793L110.1 57.0486C110.17 57.1881 110.005 57.3277 109.776 57.3277H89.771C89.5915 57.3277 89.4469 57.238 89.432 57.1283L89.2525 55.3591C89.2425 55.2345 89.3971 55.1348 89.5915 55.1348H109.616C109.766 55.1298 109.895 55.1896 109.94 55.2793Z" fill="black"/>
<path d="M107.253 57.517H107.791C107.896 57.517 107.981 57.4622 107.971 57.3924L107.721 55.0948C107.716 55.0301 107.622 54.9703 107.512 54.9703H106.974C106.869 54.9703 106.784 55.0251 106.794 55.0948L107.043 57.3924C107.053 57.4622 107.143 57.517 107.253 57.517Z" fill="#263238"/>
<path d="M91.2819 57.517H91.8204C91.9251 57.517 92.0098 57.4622 91.9999 57.3924L91.7506 55.0948C91.7456 55.0301 91.6508 54.9703 91.5411 54.9703H91.0026C90.8979 54.9703 90.8131 55.0251 90.8231 55.0948L91.0724 57.3924C91.0774 57.4622 91.1722 57.517 91.2819 57.517Z" fill="#263238"/>
<path d="M99.2648 57.517H99.8033C99.9081 57.517 99.9928 57.4622 99.9828 57.3924L99.7335 55.0948C99.7285 55.0301 99.6338 54.9703 99.5241 54.9703H98.9856C98.8809 54.9703 98.7961 55.0251 98.8061 55.0948L99.0554 57.3924C99.0654 57.4622 99.1601 57.517 99.2648 57.517Z" fill="#263238"/>
<path d="M54.4386 42.7748H89.1427L94.1738 63.2584H59.4697L54.4386 42.7748Z" fill="#FAFAFA"/>
<path d="M72.0201 59.4458L93.2465 64.3948L106.869 60.5771L106.729 59.4458H72.0201Z" fill="#FAFAFA"/>
<path d="M110.195 33.9634C110.608 35.324 111.057 36.7295 111.456 38.1249C111.87 39.5204 112.279 40.9109 112.648 42.3064C113.007 43.7018 113.356 45.0923 113.625 46.4579C113.755 47.1407 113.874 47.8135 113.954 48.4614C114.039 49.0744 114.059 49.8569 114.044 49.817C114.014 50.0064 113.81 50.3951 113.456 50.7888C113.107 51.1875 112.633 51.5912 112.114 51.97C111.072 52.7425 109.856 53.4303 108.599 54.0682C106.071 55.3291 103.339 56.4505 100.631 57.4323L101.234 59.8744C104.266 59.356 107.193 58.6234 110.115 57.532C111.571 56.9788 113.022 56.3408 114.458 55.4687C115.171 55.0201 115.884 54.5267 116.577 53.8639C117.26 53.206 117.973 52.3737 118.387 51.1377C118.482 50.8287 118.562 50.4998 118.601 50.1559L118.626 49.8967L118.636 49.7073L118.651 49.3635C118.661 48.9099 118.651 48.4863 118.626 48.0677C118.581 47.2354 118.492 46.438 118.377 45.6605C118.153 44.1005 117.858 42.5954 117.504 41.1053C117.155 39.6201 116.786 38.1498 116.373 36.6946C115.944 35.2393 115.52 33.8089 115.011 32.3536L110.195 33.9634Z" fill="#B55B52"/>
<path d="M113.151 26.9263C115.131 27.5293 118.168 35.2991 118.168 35.2991L110.479 40.7913C110.479 40.7913 107.023 34.1478 107.856 31.5861C108.724 28.9198 110.888 26.2385 113.151 26.9263Z" fill="#407BFF"/>
<path opacity="0.5" d="M113.151 26.9263C115.131 27.5293 118.168 35.2991 118.168 35.2991L110.479 40.7913C110.479 40.7913 107.023 34.1478 107.856 31.5861C108.724 28.9198 110.888 26.2385 113.151 26.9263Z" fill="#FAFAFA"/>
<path d="M101.633 57.6067L97.016 56.4355L99.2149 60.8711C99.2149 60.8711 102.336 61.0056 103.368 59.2613L101.633 57.6067Z" fill="#B55B52"/>
<path d="M93.2814 58.12L95.3257 61.7333L99.215 60.8711L97.0111 56.4405L93.2814 58.12Z" fill="#B55B52"/>
<path d="M53.3716 42.7748H88.0757L93.1068 63.2584H58.4027L53.3716 42.7748Z" fill="#407BFF"/>
<path d="M58.4027 63.2583L58.5423 64.3946H93.2465L93.1068 63.2583H58.4027Z" fill="#407BFF"/>
<path d="M150.144 54.0784C150.424 54.0834 150.703 54.0884 150.982 54.1083C156.906 54.5269 161.697 59.5456 162.076 65.7156C162.161 67.1261 162.021 68.4866 161.692 69.7675C160.326 75.0454 159.818 80.5226 159.818 85.9849V101.908C159.818 103.064 158.92 104.001 157.808 104.001H150.144H142.48H109.262V54.0784H150.144Z" fill="#407BFF"/>
<path opacity="0.3" d="M150.144 54.0784C150.424 54.0834 150.703 54.0884 150.982 54.1083C156.906 54.5269 161.697 59.5456 162.076 65.7156C162.161 67.1261 162.021 68.4866 161.692 69.7675C160.326 75.0454 159.818 80.5226 159.818 85.9849V101.908C159.818 103.064 158.92 104.001 157.808 104.001H150.144H142.48H109.262V54.0784H150.144Z" fill="black"/>
<path d="M97.3053 66.5278C97.3053 59.361 103.119 53.6097 110.1 54.1081C116.024 54.5267 120.815 59.5454 121.194 65.7154C121.279 67.1258 121.139 68.4864 120.81 69.7673C119.444 75.0451 118.936 80.5224 118.936 85.9847V101.908C118.936 103.064 118.038 104.001 116.926 104.001H101.598C100.491 104.001 99.589 103.064 99.589 101.908V85.0477C99.589 79.9193 99.0505 74.791 97.7391 69.852C97.4549 68.7954 97.3053 67.679 97.3053 66.5278Z" fill="#407BFF"/>
</svg>
