<svg width="127" height="127" viewBox="0 0 127 127" fill="none" xmlns="http://www.w3.org/2000/svg">
<path d="M19.0714 98.8389C19.0714 98.8389 19.1097 93.3038 15.6197 89.1542C12.5311 85.4792 10.8873 83.1479 11.861 82.073C12.8347 80.998 14.9287 80.7398 17.7521 83.7133C20.5755 86.6867 20.7954 94.9231 20.4045 96.7868L19.0714 98.8389Z" fill="#055EFF"/>
<path opacity="0.2" d="M19.0714 98.8389C19.0714 98.8389 19.1097 93.3038 15.6197 89.1542C12.5311 85.4792 10.8873 83.1479 11.861 82.073C12.8347 80.998 14.9287 80.7398 17.7521 83.7133C20.5755 86.6867 20.7954 94.9231 20.4045 96.7868L19.0714 98.8389Z" fill="black"/>
<path d="M19.6578 92.8883C19.6181 92.8884 19.5795 92.8751 19.5484 92.8503C19.5173 92.8256 19.4956 92.7909 19.4868 92.7522C18.2653 87.039 15.1313 83.8806 13.3689 82.5055C13.3324 82.4773 13.3086 82.4357 13.3027 82.3899C13.2968 82.3441 13.3093 82.2978 13.3375 82.2612C13.3664 82.2245 13.4086 82.2007 13.4549 82.1948C13.5013 82.1889 13.5481 82.2015 13.5852 82.2298C15.3826 83.6258 18.5829 86.8576 19.8288 92.6789C19.834 92.7011 19.8346 92.7242 19.8306 92.7466C19.8267 92.7691 19.8183 92.7906 19.806 92.8098C19.7936 92.829 19.7775 92.8455 19.7587 92.8584C19.7398 92.8713 19.7186 92.8802 19.6962 92.8848L19.6578 92.8883Z" fill="white"/>
<path d="M18.9388 100.894L17.5184 101.715C17.3668 101.301 17.1113 100.932 16.7764 100.646C16.4414 100.359 16.0383 100.164 15.6058 100.078C14.0528 99.7287 12.4404 99.7881 11.3515 98.4409C10.2627 97.0938 11.5889 95.628 11.3515 94.6368C11.1142 93.6457 10.9607 93.3595 9.01325 92.3683C7.06583 91.3772 6.29803 89.7334 7.76383 88.6201C9.22962 87.5068 11.6028 88.3234 13.0407 89.3181C14.318 90.1906 15.5326 90.4209 16.96 90.5989C18.3874 90.7769 20.7117 91.5691 20.3557 94.8846C20.1226 96.9369 19.647 98.9542 18.9388 100.894Z" fill="#055EFF"/>
<path d="M13.4874 96.5387C13.4502 96.5384 13.4141 96.5265 13.384 96.5046C13.354 96.4826 13.3315 96.4519 13.3199 96.4166C13.3067 96.3722 13.3113 96.3243 13.3328 96.2833C13.3543 96.2422 13.391 96.2111 13.4351 96.1967C13.5607 96.1583 16.5761 95.2021 17.8569 96.2281C17.8887 96.2581 17.908 96.299 17.9112 96.3426C17.9143 96.3862 17.9009 96.4294 17.8737 96.4636C17.8465 96.4978 17.8074 96.5206 17.7643 96.5274C17.7211 96.5342 17.6769 96.5245 17.6405 96.5003C16.5097 95.5929 13.5712 96.5213 13.5398 96.5317L13.4874 96.5387Z" fill="white"/>
<path d="M19.0959 100.629C19.0534 100.63 19.0123 100.614 18.9807 100.586C18.9491 100.557 18.9292 100.518 18.9248 100.476C18.1466 93.1259 9.29246 89.6394 9.20521 89.6045C9.18358 89.5964 9.16377 89.5841 9.14694 89.5682C9.13011 89.5524 9.1166 89.5334 9.10718 89.5123C9.09777 89.4912 9.09264 89.4684 9.09209 89.4453C9.09154 89.4222 9.09559 89.3992 9.104 89.3777C9.12116 89.3354 9.1539 89.3013 9.19547 89.2825C9.23704 89.2636 9.28425 89.2615 9.32736 89.2765C9.42159 89.3149 18.4711 92.8746 19.2704 100.444C19.2753 100.49 19.2619 100.536 19.2331 100.572C19.2043 100.608 19.1625 100.631 19.1168 100.636L19.0959 100.629Z" fill="white"/>
<path d="M105.902 96.0679C105.941 95.9457 107.438 88.2398 105.902 82.7745C104.506 77.7628 102.685 75.9132 100.088 75.5048C97.4916 75.0965 96.3643 76.9671 97.7428 79.5009C99.1214 82.0346 102.44 85.3955 103.254 91.0562C103.603 93.3875 103.868 95.4117 103.868 95.4117L105.902 96.0679Z" fill="#055EFF"/>
<path opacity="0.2" d="M105.902 96.0679C105.941 95.9457 107.438 88.2398 105.902 82.7745C104.506 77.7628 102.685 75.9132 100.088 75.5048C97.4916 75.0965 96.3643 76.9671 97.7428 79.5009C99.1214 82.0346 102.44 85.3955 103.254 91.0562C103.603 93.3875 103.868 95.4117 103.868 95.4117L105.902 96.0679Z" fill="black"/>
<path d="M105.026 91.6426C105.004 91.6412 104.981 91.6354 104.96 91.6254C104.94 91.6153 104.921 91.6013 104.906 91.5842C104.891 91.567 104.879 91.5469 104.872 91.5252C104.864 91.5035 104.861 91.4805 104.862 91.4576C105.211 85.2175 103.173 79.6475 99.5193 76.9148C99.4822 76.887 99.4578 76.8457 99.4512 76.7999C99.4447 76.7541 99.4566 76.7075 99.4844 76.6705C99.5127 76.6342 99.5539 76.6103 99.5995 76.6038C99.645 76.5973 99.6913 76.6087 99.7287 76.6356C103.473 79.4276 105.574 85.1233 105.208 91.4785C105.205 91.5242 105.185 91.567 105.151 91.5977C105.117 91.6284 105.072 91.6445 105.026 91.6426Z" fill="white"/>
<path d="M109.919 100.081C109.72 98.6469 110.544 96.497 112.502 95.9875C114.46 95.478 115.332 94.3542 114.627 93.1257C113.922 91.8972 114.086 90.77 115.863 90.2604C117.639 89.7509 119.196 88.8644 118.173 86.9868C117.43 85.6292 117.266 84.7497 119.088 82.0764C120.599 79.8568 119.363 78.555 117.472 78.7993C115.58 79.0436 114.411 81.2981 113.228 81.675C112.045 82.052 111.773 80.0417 110.213 80.9421C108.653 81.8426 108.747 84.1495 108.698 85.7583C108.649 87.3672 108.544 87.7302 107.134 87.5347C105.724 87.3393 104.342 87.5696 104.374 90.9794C104.398 93.904 105.958 97.5266 105.958 97.5266L109.919 100.081Z" fill="#055EFF"/>
<path d="M107.445 97.9002H107.428C107.381 97.8949 107.338 97.8714 107.309 97.8348C107.279 97.7982 107.266 97.7514 107.271 97.7047C108.255 88.9134 115.8 81.4972 117.768 79.993C117.805 79.9648 117.852 79.9524 117.898 79.9586C117.944 79.9648 117.986 79.9891 118.014 80.0261C118.043 80.0632 118.055 80.1099 118.049 80.156C118.043 80.2022 118.018 80.244 117.981 80.2722C116.037 81.7554 108.59 89.074 107.62 97.7431C107.614 97.786 107.594 97.8256 107.562 97.8545C107.53 97.8834 107.488 97.8996 107.445 97.9002Z" fill="white"/>
<path d="M110.886 88.5014C110.851 88.5012 110.816 88.4905 110.787 88.4706C110.758 88.4507 110.735 88.4225 110.722 88.3898C110.707 88.3457 110.71 88.2976 110.729 88.2554C110.749 88.2132 110.784 88.1801 110.827 88.1629C113.64 87.1159 116.83 87.6115 116.966 87.6324C117.011 87.6401 117.051 87.6653 117.078 87.7025C117.105 87.7398 117.116 87.786 117.109 87.8313C117.1 87.8764 117.075 87.9165 117.038 87.9437C117.001 87.9709 116.956 87.9831 116.91 87.9779C116.879 87.9779 113.675 87.4754 110.949 88.491C110.929 88.4978 110.908 88.5013 110.886 88.5014Z" fill="white"/>
<path d="M108.38 93.7855C108.356 93.7852 108.332 93.7798 108.31 93.7696C108.287 93.7593 108.268 93.7445 108.251 93.7261C107.082 92.3638 106.289 90.7191 105.951 88.9553C105.948 88.9326 105.949 88.9095 105.955 88.8872C105.96 88.8649 105.97 88.8439 105.983 88.8254C105.997 88.807 106.014 88.7914 106.034 88.7795C106.054 88.7677 106.075 88.7598 106.098 88.7564C106.121 88.7529 106.144 88.754 106.166 88.7595C106.188 88.765 106.209 88.7748 106.228 88.7884C106.246 88.802 106.262 88.8192 106.274 88.8388C106.286 88.8585 106.294 88.8803 106.297 88.903C106.631 90.5973 107.394 92.1775 108.513 93.4923C108.535 93.518 108.549 93.5494 108.554 93.5828C108.558 93.6161 108.554 93.6502 108.54 93.6809C108.526 93.7116 108.503 93.7377 108.475 93.7562C108.447 93.7748 108.414 93.7849 108.38 93.7855Z" fill="white"/>
<path d="M18.939 46.8797V100.898L74.2275 68.9783L74.224 19.8706L33.1153 43.6061L31.6949 39.5123L18.939 46.8797Z" fill="#055EFF"/>
<path opacity="0.7" d="M18.939 46.8797V100.898L74.2275 68.9783L74.224 19.8706L33.1153 43.6061L31.6949 39.5123L18.939 46.8797Z" fill="black"/>
<path d="M18.939 100.898L21.7728 51.7901L77.0613 19.8706L74.2274 68.9783L18.939 100.898Z" fill="#E0E0E0"/>
<path d="M18.939 100.898L23.1898 52.6105L78.4783 20.6875L74.2274 68.9785L18.939 100.898Z" fill="#055EFF"/>
<path opacity="0.7" d="M18.939 100.898L23.1898 52.6105L78.4783 20.6875L74.2274 68.9785L18.939 100.898Z" fill="black"/>
<path d="M27.4438 51.7903V105.812L82.7323 73.889V24.7812L41.6202 48.5167L40.2033 44.4229L27.4438 51.7903Z" fill="#055EFF"/>
<path opacity="0.5" d="M27.4438 51.7903V105.812L82.7323 73.889V24.7812L41.6202 48.5167L40.2033 44.4229L27.4438 51.7903Z" fill="black"/>
<path d="M27.4438 105.812L30.2777 56.7007L85.5662 24.7812L82.7323 73.889L27.4438 105.812Z" fill="#E0E0E0"/>
<path d="M27.4438 105.812L31.6947 57.5206L86.9831 25.5977L82.7323 73.8887L27.4438 105.812Z" fill="#055EFF"/>
<path opacity="0.5" d="M27.4438 105.812L31.6947 57.5206L86.9831 25.5977L82.7323 73.8887L27.4438 105.812Z" fill="black"/>
<path d="M74.2132 123C64.2877 117.269 55.0811 111.04 50.8792 103.732L63.6525 96.3574L74.2132 123Z" fill="#E0E0E0"/>
<path d="M37.366 57.5208V111.539L92.6544 79.6194V30.5117L51.5423 54.2472L50.1254 50.1534L37.366 57.5208Z" fill="#055EFF"/>
<path opacity="0.2" d="M37.366 57.5208V111.539L92.6544 79.6194V30.5117L51.5423 54.2472L50.1254 50.1534L37.366 57.5208Z" fill="black"/>
<path d="M53.2943 73.491C53.1547 73.491 53.1338 73.3304 53.1338 73.2362V27.1683C53.145 26.9896 53.1975 26.8159 53.2871 26.6609C53.3767 26.5059 53.501 26.3737 53.6503 26.2749L93.5549 3.2409C93.6095 3.20681 93.6721 3.18757 93.7364 3.18506C93.876 3.18506 93.8969 3.3456 93.8969 3.43983V49.5077C93.886 49.687 93.8336 49.8613 93.744 50.0169C93.6544 50.1725 93.5299 50.3052 93.3804 50.4047L53.4758 73.4386C53.4207 73.4711 53.3583 73.4891 53.2943 73.491Z" fill="white"/>
<path d="M93.7155 3.34556C93.7184 3.37108 93.7184 3.39683 93.7155 3.42234V49.4903C93.7041 49.6388 93.6596 49.783 93.5853 49.9122C93.511 50.0414 93.4089 50.1524 93.2863 50.2371L53.3817 73.2711L53.3119 73.3025C53.3072 73.2771 53.3072 73.2511 53.3119 73.2257V27.1578C53.3239 27.0098 53.3686 26.8664 53.4429 26.7378C53.5171 26.6092 53.619 26.4988 53.7412 26.4144L93.6457 3.38046C93.6678 3.36507 93.6927 3.35438 93.719 3.34906L93.7155 3.34556ZM93.74 3.00006C93.6449 3.00289 93.5523 3.03056 93.4712 3.08033L53.5667 26.1143C53.3912 26.2295 53.2453 26.3842 53.1404 26.5661C53.0356 26.7479 52.9748 26.9517 52.9629 27.1613V73.2292C52.9629 73.5014 53.099 73.6585 53.3119 73.6585C53.407 73.656 53.4997 73.6283 53.5806 73.5782L93.4852 50.5442C93.6614 50.4298 93.808 50.2753 93.9129 50.0933C94.0179 49.9113 94.0782 49.707 94.089 49.4972V3.42933C94.089 3.15711 93.9529 2.99657 93.74 3.00006Z" fill="#055EFF"/>
<path opacity="0.7" d="M93.7155 3.34556C93.7184 3.37108 93.7184 3.39683 93.7155 3.42234V49.4903C93.7041 49.6388 93.6596 49.783 93.5853 49.9122C93.511 50.0414 93.4089 50.1524 93.2863 50.2371L53.3817 73.2711L53.3119 73.3025C53.3072 73.2771 53.3072 73.2511 53.3119 73.2257V27.1578C53.3239 27.0098 53.3686 26.8664 53.4429 26.7378C53.5171 26.6092 53.619 26.4988 53.7412 26.4144L93.6457 3.38046C93.6678 3.36507 93.6927 3.35438 93.719 3.34906L93.7155 3.34556ZM93.74 3.00006C93.6449 3.00289 93.5523 3.03056 93.4712 3.08033L53.5667 26.1143C53.3912 26.2295 53.2453 26.3842 53.1404 26.5661C53.0356 26.7479 52.9748 26.9517 52.9629 27.1613V73.2292C52.9629 73.5014 53.099 73.6585 53.3119 73.6585C53.407 73.656 53.4997 73.6283 53.5806 73.5782L93.4852 50.5442C93.6614 50.4298 93.808 50.2753 93.9129 50.0933C94.0179 49.9113 94.0782 49.707 94.089 49.4972V3.42933C94.089 3.15711 93.9529 2.99657 93.74 3.00006Z" fill="white"/>
<path d="M57.2136 28.9169L71.39 20.7329V37.101L57.2136 45.285V28.9169Z" fill="#055EFF"/>
<path opacity="0.8" d="M57.2136 28.9169L71.39 20.7329V37.101L57.2136 45.285V28.9169Z" fill="white"/>
<path d="M69.2645 24.8125V29.7334L68.8178 29.9812V28.477C68.8178 27.6464 68.1442 27.3637 67.3066 27.8453L61.3003 31.3178C60.4662 31.7995 59.7892 32.8639 59.7892 33.6945V35.1987L59.3459 35.464V30.5535L69.2645 24.8125Z" fill="white"/>
<path d="M66.5355 37.3416C65.8095 37.7604 65.2197 37.3207 65.2197 36.354V28.4771L63.3945 29.4682V37.4079C63.3945 38.3712 62.8047 39.5019 62.0787 39.9103L60.7595 40.6711V41.1946L67.8477 37.1008V36.5808L66.5355 37.3416Z" fill="white"/>
<path d="M74.2134 19.9263C74.2134 20.38 74.6217 20.5092 75.1208 20.223L88.9132 12.2484C89.1579 12.1097 89.3672 11.9162 89.5247 11.683C89.6821 11.4499 89.7834 11.1835 89.8206 10.9047C89.8206 10.4545 89.4123 10.3219 88.9132 10.6116L75.1312 18.5687C74.8825 18.7072 74.6698 18.9022 74.5104 19.138C74.3509 19.3739 74.2492 19.6439 74.2134 19.9263Z" fill="#455A64"/>
<path d="M74.2134 24.8127C74.2134 25.2664 74.6217 25.399 75.1208 25.1094L88.9028 17.1522C89.1475 17.0135 89.3568 16.82 89.5142 16.5869C89.6716 16.3537 89.7729 16.0873 89.8102 15.8085C89.8102 15.3583 89.4018 15.2257 88.9028 15.5154L75.1208 23.4725C74.8765 23.6109 74.6675 23.8039 74.5101 24.0363C74.3527 24.2688 74.2511 24.5345 74.2134 24.8127Z" fill="#455A64"/>
<path d="M74.2134 29.7334C74.2134 30.1871 74.6217 30.3198 75.1208 30.0301L88.9028 22.0729C89.147 21.9345 89.3561 21.7416 89.5135 21.5091C89.6709 21.2767 89.7724 21.0109 89.8102 20.7327C89.8102 20.279 89.4018 20.1464 88.9028 20.4361L75.1208 28.3933C74.8765 28.5316 74.6675 28.7246 74.5101 28.9571C74.3527 29.1895 74.2511 29.4552 74.2134 29.7334Z" fill="#455A64"/>
<path d="M74.2134 34.6441C74.2134 35.0978 74.6217 35.2304 75.1208 34.9407L88.9028 26.9835C89.147 26.8452 89.3561 26.6522 89.5135 26.4198C89.6709 26.1873 89.7724 25.9216 89.8102 25.6434C89.8102 25.1897 89.4018 25.0571 88.9028 25.3467L75.1208 33.3039C74.8765 33.4423 74.6675 33.6352 74.5101 33.8677C74.3527 34.1002 74.2511 34.3659 74.2134 34.6441Z" fill="#455A64"/>
<path d="M57.2136 49.3789C57.2136 49.8326 57.6185 49.9652 58.121 49.6755L88.9132 31.8765C89.1579 31.7386 89.3671 31.5458 89.5246 31.3132C89.6821 31.0807 89.7834 30.8147 89.8206 30.5364C89.8206 30.0827 89.4123 29.9535 88.9132 30.2397L58.121 48.0387C57.8762 48.1764 57.6668 48.3692 57.5093 48.6018C57.3518 48.8344 57.2506 49.1004 57.2136 49.3789Z" fill="#455A64"/>
<path d="M57.2136 54.2888C57.2136 54.7425 57.6185 54.8751 58.121 54.5855L88.9132 36.8074C89.158 36.6687 89.3672 36.4752 89.5247 36.2421C89.6821 36.009 89.7834 35.7426 89.8206 35.4638C89.8206 35.0136 89.4123 34.881 88.9132 35.1706L58.121 52.9487C57.8762 53.0864 57.6668 53.2792 57.5093 53.5118C57.3518 53.7443 57.2506 54.0104 57.2136 54.2888Z" fill="#455A64"/>
<path d="M57.2136 59.203C57.2136 59.6532 57.6185 59.7858 58.121 59.4961L88.9132 41.7181C89.158 41.5794 89.3672 41.3859 89.5247 41.1528C89.6821 40.9197 89.7834 40.6533 89.8206 40.3744C89.8206 39.9242 89.4123 39.7916 88.9132 40.0813L58.121 57.8593C57.8758 57.9974 57.6661 58.1907 57.5086 58.4239C57.3511 58.6572 57.2501 58.9239 57.2136 59.203Z" fill="#455A64"/>
<path d="M37.366 111.539L47.288 68.1617L102.576 36.2388L92.6544 79.6194L37.366 111.539Z" fill="#055EFF"/>
<path d="M50.8933 71.5572V103.732L63.6527 96.3641V64.1934L50.8933 71.5572Z" fill="#055EFF"/>
<path opacity="0.2" d="M50.8933 71.5572V103.732L63.6527 96.3641V64.1934L50.8933 71.5572Z" fill="black"/>
<path d="M74.2377 122.791C73.1523 121.981 62.6893 113.985 57.3706 102.549C51.7098 90.3894 51.7168 76.2061 51.7168 70.8699V70.7024L89.6461 48.8062C89.6461 54.1912 89.6461 68.3955 95.3313 80.5965C100.528 91.7645 110.59 99.6589 112.184 100.866L74.2377 122.791Z" fill="white"/>
<path d="M89.4717 49.1205C89.4717 54.7324 89.5798 68.6645 95.1743 80.684C100.196 91.4681 109.745 99.2229 111.87 100.86L74.2483 122.581C72.779 121.475 62.7104 113.612 57.5312 102.489C51.8774 90.3653 51.8774 76.2098 51.8774 70.8806V70.8143L89.4577 49.117L89.4717 49.1205ZM89.8067 48.5133L51.5284 70.6154C51.5284 75.6375 51.4237 90.2291 57.1997 102.636C62.8849 114.813 74.2134 123 74.2134 123L112.502 100.895C112.502 100.895 101.16 92.707 95.4919 80.5305C89.7125 68.1235 89.8207 53.5319 89.8207 48.5098L89.8067 48.5133Z" fill="#055EFF"/>
<path opacity="0.7" d="M89.4717 49.1205C89.4717 54.7324 89.5798 68.6645 95.1743 80.684C100.196 91.4681 109.745 99.2229 111.87 100.86L74.2483 122.581C72.779 121.475 62.7104 113.612 57.5312 102.489C51.8774 90.3653 51.8774 76.2098 51.8774 70.8806V70.8143L89.4577 49.117L89.4717 49.1205ZM89.8067 48.5133L51.5284 70.6154C51.5284 75.6375 51.4237 90.2291 57.1997 102.636C62.8849 114.813 74.2134 123 74.2134 123L112.502 100.895C112.502 100.895 101.16 92.707 95.4919 80.5305C89.7125 68.1235 89.8207 53.5319 89.8207 48.5098L89.8067 48.5133Z" fill="white"/>
<path d="M85.4896 55.9256L73.3863 62.9056C73.144 63.039 72.9376 63.2289 72.7844 63.4592C72.6313 63.6894 72.5361 63.9533 72.5068 64.2283C72.5243 64.6716 72.9466 64.7972 73.4456 64.5075L85.5524 57.5275C85.7918 57.3954 85.9962 57.2081 86.1486 56.981C86.3009 56.754 86.3969 56.4939 86.4284 56.2223C86.4075 55.7616 85.9922 55.636 85.4896 55.9256Z" fill="#455A64"/>
<path d="M85.7477 60.6898L73.6444 67.6697C73.405 67.7985 73.202 67.9857 73.0544 68.2139C72.9067 68.4421 72.8192 68.7039 72.7998 68.975C72.8382 69.4043 73.2779 69.5194 73.777 69.2298L85.8838 62.2498C86.122 62.1216 86.3236 61.9348 86.4695 61.707C86.6155 61.4792 86.701 61.218 86.7179 60.948C86.683 60.5153 86.2502 60.4106 85.7477 60.6898Z" fill="#455A64"/>
<path d="M86.233 65.3209L74.1262 72.3009C73.6271 72.5906 73.2642 73.1664 73.3235 73.5817C73.3828 73.997 73.84 74.1052 74.3426 73.8155L86.4494 66.8356C86.9484 66.5459 87.3044 65.9735 87.2416 65.5582C87.1788 65.1429 86.732 65.0312 86.233 65.3209Z" fill="#455A64"/>
<path d="M86.9587 69.8126L74.852 76.7926C74.3529 77.0823 74.0074 77.6477 74.0911 78.0525C74.1749 78.4573 74.6495 78.5481 75.1381 78.2584L87.2414 71.2784C87.744 70.9888 88.079 70.4269 87.9953 70.022C87.9115 69.6172 87.4753 69.523 86.9587 69.8126Z" fill="#455A64"/>
<path d="M87.943 74.1541L75.8362 81.134C75.3371 81.4237 75.0125 81.9751 75.1382 82.3625C75.2638 82.7499 75.742 82.8372 76.241 82.5475L88.3478 75.5675C88.8504 75.2778 89.1645 74.7299 89.0458 74.339C88.9271 73.9481 88.442 73.8644 87.943 74.1541Z" fill="#455A64"/>
<path d="M89.2204 78.3387L59.716 95.3733C59.2169 95.663 58.9133 96.2004 59.0494 96.5739C59.1855 96.9473 59.7055 97.0171 60.2046 96.7274L89.709 79.6928C90.2116 79.4031 90.5012 78.8691 90.3651 78.4922C90.229 78.1153 89.702 78.049 89.2204 78.3387Z" fill="#455A64"/>
<path d="M90.7735 82.3346L61.2726 99.3692C60.77 99.6589 60.4943 100.182 60.6619 100.538C60.8294 100.894 61.3598 100.95 61.8694 100.661L91.3738 83.6259C91.8764 83.3362 92.1451 82.8127 91.9776 82.4567C91.81 82.1007 91.2761 82.0484 90.7735 82.3346Z" fill="#455A64"/>
<path d="M92.7102 86.142L63.2058 103.177C62.7033 103.466 62.4555 103.976 62.6544 104.314C62.8534 104.653 63.4222 104.688 63.9248 104.398L93.4082 87.3635C93.9073 87.0774 94.1481 86.5713 93.9492 86.2328C93.7503 85.8942 93.1988 85.8524 92.7102 86.142Z" fill="#455A64"/>
<path d="M94.9683 89.7441L65.4674 106.775C64.9648 107.065 64.7415 107.564 64.9683 107.882C65.1952 108.199 65.792 108.231 66.2945 107.937L95.7954 90.9028C96.298 90.6131 96.5144 90.121 96.2875 89.7999C96.0607 89.4789 95.4709 89.4544 94.9683 89.7441Z" fill="#455A64"/>
<path d="M97.544 93.1676L68.0395 110.199C67.5405 110.488 67.3416 110.974 67.5928 111.277C67.8441 111.581 68.4618 111.595 68.9644 111.305L98.4688 94.2635C98.9679 93.9738 99.1668 93.4957 98.9086 93.1921C98.6503 92.8884 98.0465 92.8675 97.544 93.1676Z" fill="#455A64"/>
<path d="M100.388 96.4272L70.8944 113.458C70.3919 113.748 70.1964 114.223 70.4896 114.505C70.7827 114.788 71.404 114.795 71.903 114.505L101.407 97.4707C101.91 97.181 102.084 96.7134 101.805 96.4237C101.526 96.134 100.898 96.141 100.388 96.4272Z" fill="#455A64"/>
<path d="M103.529 99.5438L74.0249 116.575C73.5258 116.865 73.3618 117.329 73.6759 117.605C73.99 117.88 74.6321 117.87 75.1347 117.58L104.615 100.545C105.114 100.256 105.271 99.802 104.964 99.5228C104.657 99.2436 104.018 99.2541 103.529 99.5438Z" fill="#455A64"/>
<path d="M68.9994 65.4502L55.0813 73.4772C55.2349 78.5202 55.8107 85.7934 57.9187 93.1189L71.8403 85.0919C69.7288 77.7664 69.153 70.4897 68.9994 65.4502Z" fill="#055EFF"/>
<path opacity="0.8" d="M68.9994 65.4502L55.0813 73.4772C55.2349 78.5202 55.8107 85.7934 57.9187 93.1189L71.8403 85.0919C69.7288 77.7664 69.153 70.4897 68.9994 65.4502Z" fill="white"/>
<path d="M60.756 72.367C60.7748 72.0415 60.7242 71.7157 60.6074 71.4112C60.4907 71.1068 60.3106 70.8306 60.079 70.6011L55.0813 73.4838C55.1232 74.817 55.193 76.3072 55.3151 77.9126C55.9652 77.9874 56.6228 77.8658 57.2032 77.5636C59.1681 76.6632 60.756 74.3284 60.756 72.367Z" fill="#055EFF"/>
<path opacity="0.6" d="M60.756 72.367C60.7748 72.0415 60.7242 71.7157 60.6074 71.4112C60.4907 71.1068 60.3106 70.8306 60.079 70.6011L55.0813 73.4838C55.1232 74.817 55.193 76.3072 55.3151 77.9126C55.9652 77.9874 56.6228 77.8658 57.2032 77.5636C59.1681 76.6632 60.756 74.3284 60.756 72.367Z" fill="white"/>
<path d="M70.657 80.2754C69.7287 79.1063 67.8406 75.4941 67.0344 73.9201C67.0028 73.8579 66.9531 73.8066 66.892 73.7729C66.8309 73.7392 66.761 73.7246 66.6915 73.731C66.622 73.7373 66.556 73.7644 66.502 73.8087C66.448 73.853 66.4086 73.9125 66.3888 73.9795C65.5166 76.9608 65.0103 80.0371 64.8811 83.1407C63.7188 82.2179 62.7195 81.1066 61.9251 79.8531C61.8912 79.8045 61.8442 79.7667 61.7895 79.744C61.7348 79.7212 61.6748 79.7146 61.6164 79.7249C61.5581 79.7352 61.504 79.7619 61.4603 79.8019C61.4167 79.8419 61.3854 79.8936 61.3702 79.9508C59.8485 85.8105 60.6128 91.576 60.6128 91.576L71.8402 85.0916C71.3725 83.4722 70.9851 81.8599 70.657 80.2754Z" fill="#055EFF"/>
<path opacity="0.6" d="M70.657 80.2754C69.7287 79.1063 67.8406 75.4941 67.0344 73.9201C67.0028 73.8579 66.9531 73.8066 66.892 73.7729C66.8309 73.7392 66.761 73.7246 66.6915 73.731C66.622 73.7373 66.556 73.7644 66.502 73.8087C66.448 73.853 66.4086 73.9125 66.3888 73.9795C65.5166 76.9608 65.0103 80.0371 64.8811 83.1407C63.7188 82.2179 62.7195 81.1066 61.9251 79.8531C61.8912 79.8045 61.8442 79.7667 61.7895 79.744C61.7348 79.7212 61.6748 79.7146 61.6164 79.7249C61.5581 79.7352 61.504 79.7619 61.4603 79.8019C61.4167 79.8419 61.3854 79.8936 61.3702 79.9508C59.8485 85.8105 60.6128 91.576 60.6128 91.576L71.8402 85.0916C71.3725 83.4722 70.9851 81.8599 70.657 80.2754Z" fill="white"/>
<path d="M79.9465 38.1L63.5 54.5465L47.0535 38.1L38.1 47.0535L54.5465 63.5L38.1 79.9465L47.0535 88.9L63.5 72.4535L79.9465 88.9L88.9 79.9465L72.4535 63.5L88.9 47.0535L79.9465 38.1ZM63.5 0C28.3845 0 0 28.3845 0 63.5C0 98.6155 28.3845 127 63.5 127C98.6155 127 127 98.6155 127 63.5C127 28.3845 98.6155 0 63.5 0ZM63.5 114.3C35.4965 114.3 12.7 91.5035 12.7 63.5C12.7 35.4965 35.4965 12.7 63.5 12.7C91.5035 12.7 114.3 35.4965 114.3 63.5C114.3 91.5035 91.5035 114.3 63.5 114.3Z" fill="#FF3F1F" fill-opacity="0.48"/>
</svg>
