<svg width="394" height="429" viewBox="0 0 394 429" fill="none" xmlns="http://www.w3.org/2000/svg">
<g style="mix-blend-mode:luminosity" opacity="0.05">
<g clip-path="url(#clip0)">
<path d="M121.11 403.78C144.34 383.71 146.67 350.66 142.67 321.59C142 316.74 142.01 311.55 139.25 307.51C136.49 303.48 130.78 301.11 126.64 303.62C123.2 305.7 122.06 310.07 120.39 313.75C118.18 318.66 114.56 322.9 110.09 325.84C107.15 327.77 103.42 329.15 100.18 327.78C95.74 325.9 94.65 320.14 94.18 315.29C93.31 306.26 92.43 297.22 91.56 288.19C91.09 283.34 90.59 278.4 88.61 273.95C86.63 269.51 82.86 265.58 78.12 264.76C73.38 263.95 67.95 267.19 67.47 272.03C67.27 274.04 67.88 276.05 67.95 278.08C68.02 280.11 67.32 282.43 65.46 283.18C63.59 283.95 61.51 282.77 59.91 281.51C54.41 277.13 50.36 271.18 46.55 265.25C42.73 259.31 38.99 253.21 33.91 248.35C28.82 243.48 22.11 239.9 15.13 240.23C8.15001 240.55 1.20001 245.6 0.150014 252.59C-0.899986 259.6 3.80001 266.12 8.70001 271.2C15.98 278.74 24.34 285.21 33.43 290.34C35.07 291.27 36.84 292.27 37.61 294C39 297.12 36.27 300.64 33.19 302.03C29.7 303.61 25.75 303.63 22.02 304.47C18.29 305.3 14.37 307.39 13.31 311.11C11.84 316.27 16.51 321.03 20.94 324.01C29.8 329.98 39.67 334.39 49.99 337.01C53.69 337.95 57.56 338.7 60.69 340.91C63.82 343.12 66.01 347.29 64.62 350.88C63.23 354.48 58.89 356.03 55.09 355.72C51.29 355.41 47.74 353.73 44.04 352.76C37.12 350.93 28.57 352.28 24.9 358.47C22.49 362.54 22.78 367.83 24.67 372.19C26.55 376.55 29.83 380.14 33.25 383.4C45.21 394.82 59.91 403.49 75.9 407.25C91.88 411 106.34 410.97 121.11 403.78Z" fill="#F5F5F5"/>
<path d="M123.72 425.37C121.47 413.92 117.53 400.53 111.69 386.26C105.88 371.98 98.21 356.85 89.64 341.31C87.48 337.43 85.35 333.6 83.25 329.82C81.15 326.06 79.06 322.32 76.79 318.79C72.29 311.72 67.42 305.26 62.6 299.27C57.79 293.28 53 287.77 48.49 282.66C43.97 277.55 39.66 272.87 35.55 268.77C27.36 260.53 19.98 254.69 14.75 250.88C12.14 248.97 10.06 247.55 8.64001 246.61C7.96001 246.16 7.42001 245.81 7.02001 245.55C6.65001 245.32 6.46001 245.2 6.45001 245.22C6.44001 245.23 6.62001 245.37 6.97001 245.63C7.36001 245.91 7.88001 246.29 8.54001 246.76C9.92001 247.75 11.97 249.21 14.54 251.17C19.7 255.06 26.99 260.96 35.1 269.23C39.17 273.35 43.44 278.04 47.93 283.17C52.41 288.31 57.17 293.82 61.96 299.81C66.74 305.79 71.58 312.24 76.05 319.28C78.3 322.79 80.36 326.49 82.47 330.27C84.57 334.04 86.69 337.88 88.85 341.75C97.41 357.28 105.08 372.36 110.92 386.58C116.78 400.79 120.77 414.1 123.09 425.49" fill="#E0E0E0"/>
<path d="M76.54 318.79C76.6 318.79 76.69 318.04 76.8 316.67C76.92 315.31 77.02 313.33 77.11 310.88C77.3 305.99 77.33 299.22 77.33 291.76C77.33 284.29 77.46 277.55 77.72 272.67C77.84 270.23 77.96 268.26 78.06 266.9C78.15 265.54 78.18 264.78 78.11 264.77C78.05 264.76 77.91 265.51 77.71 266.86C77.5 268.21 77.29 270.19 77.08 272.63C76.65 277.51 76.43 284.29 76.43 291.76C76.45 299.12 76.46 305.78 76.47 310.87C76.46 313.17 76.45 315.11 76.44 316.66C76.45 318.03 76.48 318.79 76.54 318.79Z" fill="#E0E0E0"/>
<path d="M13.06 313.57C13.06 313.63 13.96 313.64 15.57 313.61C17.18 313.59 19.52 313.54 22.4 313.58C28.17 313.61 36.13 313.92 44.91 314.66C53.69 315.41 61.6 316.43 67.3 317.33C70.16 317.76 72.46 318.17 74.05 318.44C75.64 318.72 76.53 318.85 76.54 318.79C76.55 318.73 75.69 318.49 74.12 318.1C72.55 317.72 70.26 317.21 67.41 316.7C61.72 315.64 53.79 314.51 44.99 313.76C36.19 313.03 28.19 312.81 22.41 312.95C19.52 313 17.18 313.14 15.57 313.27C13.94 313.4 13.05 313.51 13.06 313.57Z" fill="#E0E0E0"/>
<path d="M110.81 385.2C110.84 385.21 110.96 384.93 111.16 384.4C111.39 383.76 111.66 382.98 111.99 382.04C112.7 379.99 113.66 376.98 114.79 373.26C117.06 365.82 119.87 355.43 122.81 343.94C125.76 332.44 128.47 322.04 130.58 314.56C131.62 310.92 132.47 307.93 133.1 305.71C133.37 304.75 133.59 303.95 133.77 303.3C133.91 302.75 133.98 302.45 133.95 302.44C133.92 302.43 133.8 302.71 133.6 303.25C133.37 303.89 133.1 304.67 132.77 305.61C132.06 307.67 131.1 310.67 129.97 314.39C127.7 321.83 124.89 332.22 121.94 343.72C118.99 355.22 116.28 365.61 114.17 373.09C113.13 376.73 112.28 379.72 111.65 381.94C111.38 382.91 111.16 383.7 110.98 384.35C110.84 384.89 110.78 385.19 110.81 385.2Z" fill="#E0E0E0"/>
<path d="M25.3 367.06C25.3 367.09 25.59 367.18 26.16 367.31C26.83 367.46 27.65 367.64 28.65 367.87C30.94 368.36 34.04 369.02 37.81 369.83C45.54 371.49 56.2 373.89 67.97 376.57C79.74 379.25 90.43 381.56 98.2 383.06C102.08 383.81 105.23 384.38 107.42 384.73C108.43 384.89 109.26 385.01 109.94 385.12C110.52 385.2 110.82 385.23 110.83 385.19C110.83 385.16 110.54 385.07 109.97 384.93C109.3 384.78 108.48 384.6 107.48 384.37C105.19 383.88 102.09 383.22 98.32 382.41C90.59 380.76 79.93 378.35 68.16 375.67C56.39 372.99 45.7 370.68 37.94 369.19C34.06 368.44 30.91 367.87 28.72 367.52C27.71 367.36 26.88 367.23 26.2 367.13C25.61 367.06 25.3 367.03 25.3 367.06Z" fill="#E0E0E0"/>
<path d="M97.34 182.78C96.59 182.78 95.87 182.36 95.53 181.64L91.19 172.61C90.92 172.04 90.93 171.38 91.21 170.82C91.5 170.26 92.03 169.87 92.65 169.76C94.28 169.48 95.77 168.46 96.74 166.96C97.64 165.58 97.95 163.99 97.6 162.58C97.25 161.18 96.23 159.9 94.78 159.08C93.24 158.2 91.4 157.94 89.87 158.4C86.74 159.33 84.5 163 84.98 166.4C85.13 167.5 84.37 168.52 83.27 168.67C82.15 168.82 81.15 168.06 81 166.96C80.25 161.61 83.71 156.04 88.73 154.54C91.33 153.76 94.27 154.14 96.78 155.58C99.17 156.95 100.89 159.14 101.51 161.61C102.13 164.09 101.62 166.84 100.11 169.15C99.02 170.82 97.52 172.13 95.8 172.93L99.14 179.89C99.62 180.89 99.2 182.09 98.2 182.57C97.92 182.71 97.63 182.78 97.34 182.78Z" fill="#E0E0E0"/>
<path d="M101.66 185.37C102.07 186.18 101.75 187.17 100.95 187.58C100.14 187.99 99.15 187.67 98.74 186.87C98.33 186.06 98.65 185.07 99.45 184.66C100.25 184.25 101.24 184.56 101.66 185.37Z" fill="#E0E0E0"/>
<path d="M42.38 152.53C41.86 152.53 41.36 152.24 41.11 151.73L38.08 145.43C37.89 145.03 37.9 144.57 38.1 144.18C38.3 143.79 38.67 143.51 39.11 143.44C40.25 143.24 41.29 142.53 41.97 141.48C42.6 140.52 42.82 139.41 42.57 138.42C42.33 137.44 41.61 136.55 40.6 135.97C39.52 135.35 38.24 135.18 37.17 135.5C34.98 136.15 33.42 138.71 33.75 141.09C33.86 141.86 33.32 142.57 32.56 142.68C31.78 142.79 31.08 142.25 30.97 141.48C30.45 137.74 32.87 133.85 36.37 132.81C38.18 132.27 40.24 132.53 41.99 133.54C43.66 134.49 44.86 136.03 45.29 137.75C45.72 139.49 45.37 141.4 44.32 143.02C43.56 144.18 42.51 145.1 41.31 145.66L43.65 150.52C43.99 151.22 43.69 152.06 42.99 152.39C42.79 152.49 42.58 152.53 42.38 152.53Z" fill="#F5F5F5"/>
<path d="M45.39 154.35C45.68 154.91 45.46 155.61 44.89 155.9C44.33 156.19 43.63 155.97 43.34 155.4C43.05 154.83 43.27 154.14 43.84 153.85C44.41 153.56 45.1 153.78 45.39 154.35Z" fill="#F5F5F5"/>
<path d="M291.9 155.93C292.12 156.4 292.07 156.98 291.72 157.42L287.32 162.85C287.04 163.19 286.62 163.38 286.18 163.37C285.74 163.36 285.33 163.14 285.08 162.78C284.41 161.84 283.32 161.2 282.09 161.03C280.95 160.87 279.85 161.15 279.07 161.79C278.29 162.43 277.79 163.46 277.7 164.61C277.6 165.85 277.99 167.08 278.74 167.91C280.27 169.61 283.25 169.93 285.25 168.61C285.9 168.18 286.77 168.36 287.19 169.01C287.62 169.67 287.44 170.53 286.79 170.96C283.64 173.03 279.09 172.51 276.64 169.79C275.37 168.38 274.73 166.41 274.89 164.4C275.04 162.48 275.91 160.74 277.28 159.62C278.66 158.49 280.55 157.99 282.46 158.25C283.84 158.44 285.11 159 286.14 159.84L289.53 155.65C290.02 155.05 290.9 154.95 291.51 155.44C291.68 155.58 291.81 155.75 291.9 155.93Z" fill="#F5F5F5"/>
<path d="M292.25 152.43C292.64 151.93 293.36 151.83 293.86 152.22C294.36 152.61 294.46 153.33 294.07 153.83C293.68 154.33 292.96 154.43 292.46 154.04C291.95 153.65 291.86 152.93 292.25 152.43Z" fill="#F5F5F5"/>
<path d="M277.24 25.49C277.46 25.96 277.41 26.54 277.06 26.98L272.66 32.41C272.38 32.75 271.96 32.94 271.52 32.93C271.08 32.92 270.67 32.7 270.42 32.34C269.75 31.4 268.66 30.76 267.43 30.59C266.29 30.43 265.19 30.71 264.41 31.35C263.63 31.99 263.13 33.02 263.04 34.17C262.94 35.41 263.33 36.64 264.08 37.47C265.61 39.17 268.59 39.49 270.59 38.17C271.24 37.74 272.11 37.92 272.53 38.57C272.96 39.23 272.78 40.09 272.13 40.52C268.98 42.59 264.43 42.07 261.98 39.35C260.71 37.94 260.07 35.97 260.23 33.96C260.38 32.04 261.25 30.3 262.62 29.18C264 28.05 265.89 27.55 267.8 27.81C269.18 28 270.45 28.56 271.48 29.4L274.87 25.21C275.36 24.61 276.24 24.51 276.85 25C277.02 25.14 277.15 25.3 277.24 25.49Z" fill="#F5F5F5"/>
<path d="M277.59 21.9799C277.98 21.4799 278.7 21.3799 279.2 21.7699C279.7 22.1599 279.8 22.8799 279.41 23.3799C279.02 23.8799 278.3 23.9799 277.8 23.5899C277.29 23.2099 277.2 22.4899 277.59 21.9799Z" fill="#F5F5F5"/>
<path d="M166.22 45.54C166.9 45.54 167.55 45.92 167.87 46.58L171.81 54.77C172.06 55.29 172.05 55.89 171.79 56.39C171.53 56.9 171.04 57.25 170.48 57.35C169 57.61 167.65 58.53 166.76 59.89C165.95 61.14 165.66 62.59 165.98 63.86C166.29 65.13 167.23 66.29 168.54 67.04C169.94 67.84 171.61 68.07 173 67.66C175.84 66.81 177.87 63.49 177.44 60.4C177.3 59.4 177.99 58.48 178.99 58.34C180.01 58.2 180.91 58.9 181.05 59.89C181.73 64.75 178.59 69.8 174.04 71.16C171.68 71.86 169.01 71.52 166.73 70.22C164.56 68.98 163 66.99 162.44 64.75C161.88 62.49 162.34 60 163.71 57.91C164.7 56.4 166.06 55.21 167.62 54.48L164.59 48.17C164.15 47.26 164.54 46.17 165.45 45.73C165.68 45.6 165.95 45.54 166.22 45.54Z" fill="#E0E0E0"/>
<path d="M162.3 43.18C161.92 42.45 162.21 41.55 162.95 41.17C163.68 40.79 164.58 41.08 164.96 41.82C165.34 42.55 165.05 43.45 164.31 43.83C163.57 44.21 162.67 43.92 162.3 43.18Z" fill="#E0E0E0"/>
<path d="M301.88 207.34C302.56 207.34 303.21 207.72 303.53 208.38L307.46 216.57C307.71 217.09 307.7 217.69 307.44 218.19C307.18 218.7 306.69 219.05 306.13 219.15C304.65 219.41 303.3 220.33 302.41 221.69C301.6 222.94 301.31 224.39 301.63 225.66C301.94 226.93 302.88 228.09 304.19 228.84C305.59 229.64 307.26 229.87 308.65 229.46C311.49 228.61 313.52 225.29 313.09 222.2C312.95 221.2 313.64 220.28 314.64 220.14C315.66 220 316.56 220.7 316.7 221.69C317.38 226.55 314.24 231.6 309.69 232.96C307.33 233.66 304.66 233.32 302.38 232.02C300.21 230.78 298.65 228.79 298.09 226.55C297.53 224.3 297.99 221.8 299.36 219.71C300.35 218.2 301.71 217.01 303.27 216.28L300.24 209.97C299.8 209.06 300.19 207.97 301.1 207.53C301.34 207.4 301.61 207.34 301.88 207.34Z" fill="#E0E0E0"/>
<path d="M297.96 204.98C297.58 204.25 297.87 203.35 298.61 202.97C299.35 202.59 300.24 202.88 300.62 203.62C301 204.35 300.71 205.25 299.97 205.63C299.23 206.01 298.33 205.72 297.96 204.98Z" fill="#E0E0E0"/>
<path d="M329.17 260.28C329.17 260.28 321.48 254.37 310.27 272.97C299.06 291.57 294.54 302.43 294.54 302.43C294.54 302.43 291.65 306.29 289.06 303.45C286.47 300.61 283.2 292.84 278.38 293.85C273.38 294.9 271.38 300.25 271.74 308.35C272.1 316.45 272.24 334.21 272.25 335.82C272.26 337.4 271.19 339.64 269.12 337.99C267.05 336.34 255.5 321.47 248.77 327.37C242.04 333.27 246.75 355.66 247.22 358.12C247.69 360.58 247.14 361.57 245.95 362.09C244.76 362.61 241.35 357.24 237.89 353.15C234.43 349.06 229.71 344.92 226.11 348.65C222.51 352.38 220.28 368.77 234.04 396.63L241.26 409.12L255.75 409.35C286.79 407.95 300.07 398.08 301.6 393.13C303.13 388.18 297.22 386.04 291.97 384.99C286.72 383.94 280.37 383.54 280.25 382.25C280.13 380.96 280.74 380 283.12 379.23C285.5 378.45 307.38 371.77 309.3 363.03C311.22 354.29 292.63 351.35 290.18 350.34C287.73 349.32 289.19 347.31 290.57 346.55C291.98 345.78 307.61 337.32 314.87 333.73C322.13 330.14 325.85 325.8 324.36 320.92C322.92 316.21 314.54 317.1 310.8 316.2C307.06 315.3 309.05 310.91 309.05 310.91C309.05 310.91 316.38 301.71 327.26 282.91C338.13 264.11 329 260.18 329 260.18" fill="#EBEBEB"/>
<path d="M319.1 276.91C319.1 276.91 319.04 277.05 318.89 277.32C318.73 277.6 318.52 277.99 318.24 278.49C317.65 279.53 316.8 281.03 315.7 282.96C313.49 286.84 310.26 292.42 306.24 299.31C298.2 313.08 286.93 332.02 274.42 352.89C261.91 373.77 250.6 392.68 242.49 406.41C238.45 413.27 235.18 418.82 232.9 422.68C231.77 424.59 230.9 426.07 230.29 427.1C229.99 427.59 229.77 427.97 229.6 428.24C229.44 428.5 229.35 428.62 229.35 428.62C229.35 428.62 229.41 428.48 229.56 428.21C229.71 427.93 229.93 427.54 230.21 427.04C230.8 426 231.65 424.5 232.75 422.58C234.96 418.71 238.19 413.12 242.21 406.24C250.25 392.47 261.52 373.53 274.03 352.65C286.54 331.78 297.85 312.87 305.96 299.14C310 292.28 313.27 286.73 315.55 282.87C316.68 280.96 317.55 279.47 318.16 278.45C318.46 277.96 318.68 277.58 318.85 277.31C319.01 277.04 319.1 276.91 319.1 276.91Z" fill="#E0E0E0"/>
<path d="M282.52 304.9C282.55 304.89 282.65 305.25 282.81 305.9C282.97 306.55 283.18 307.5 283.43 308.67C283.92 311.02 284.51 314.28 285.1 317.89C285.67 321.45 286.18 324.67 286.57 327.13C286.75 328.24 286.91 329.17 287.03 329.93C287.14 330.59 287.19 330.96 287.16 330.97C287.13 330.98 287.02 330.62 286.86 329.97C286.7 329.32 286.49 328.37 286.26 327.19C285.8 324.84 285.25 321.57 284.66 317.96C284.07 314.41 283.53 311.19 283.13 308.73C282.94 307.62 282.78 306.69 282.65 305.93C282.54 305.27 282.49 304.9 282.52 304.9Z" fill="#E0E0E0"/>
<path d="M288.46 331.31C288.43 331.19 295.1 329.67 303.35 327.93C311.6 326.18 318.31 324.87 318.33 324.99C318.36 325.11 311.69 326.63 303.44 328.37C295.2 330.11 288.49 331.43 288.46 331.31Z" fill="#E0E0E0"/>
<path d="M267.8 362.5C267.8 362.47 268.18 362.48 268.87 362.53C269.64 362.59 270.61 362.66 271.76 362.75C274.2 362.93 277.57 363.16 281.29 363.28C285.02 363.41 288.39 363.41 290.84 363.39C291.99 363.38 292.96 363.37 293.74 363.37C294.42 363.37 294.8 363.38 294.8 363.41C294.8 363.44 294.42 363.49 293.74 363.54C293.06 363.59 292.07 363.66 290.85 363.7C288.4 363.8 285.02 363.85 281.28 363.72C277.54 363.6 274.17 363.32 271.74 363.06C270.52 362.92 269.54 362.8 268.86 362.7C268.17 362.6 267.8 362.53 267.8 362.5Z" fill="#E0E0E0"/>
<path d="M257.17 339.79C257.2 339.78 257.38 340.08 257.68 340.64C258.01 341.29 258.43 342.08 258.91 343.02C259.93 345.04 261.31 347.84 262.82 350.94C264.32 354.04 265.66 356.87 266.61 358.92C267.04 359.88 267.41 360.7 267.71 361.36C267.96 361.94 268.09 362.27 268.06 362.28C268.03 362.29 267.85 361.99 267.55 361.43C267.22 360.78 266.8 359.99 266.32 359.05C265.3 357.03 263.92 354.23 262.41 351.13C260.91 348.03 259.57 345.2 258.62 343.15C258.19 342.19 257.82 341.37 257.52 340.71C257.27 340.13 257.14 339.8 257.17 339.79Z" fill="#E0E0E0"/>
<path d="M235.44 365.01C235.47 365 235.69 365.38 236.08 366.1C236.49 366.89 237.03 367.91 237.67 369.14C238.99 371.72 240.79 375.29 242.76 379.25C244.72 383.21 246.48 386.81 247.73 389.42C248.32 390.67 248.81 391.72 249.19 392.53C249.53 393.27 249.7 393.68 249.67 393.7C249.64 393.71 249.42 393.33 249.03 392.61C248.62 391.82 248.08 390.8 247.44 389.57C246.12 386.99 244.32 383.42 242.35 379.46C240.39 375.5 238.63 371.9 237.38 369.29C236.79 368.04 236.3 366.99 235.92 366.18C235.58 365.44 235.41 365.02 235.44 365.01Z" fill="#E0E0E0"/>
<path d="M249.51 392.91C249.51 392.88 249.99 392.88 250.86 392.91C251.81 392.95 253.04 392.99 254.53 393.05C257.63 393.17 261.91 393.31 266.64 393.34C271.37 393.37 275.66 393.29 278.76 393.21C280.25 393.17 281.49 393.14 282.43 393.12C283.3 393.1 283.78 393.11 283.78 393.14C283.78 393.17 283.3 393.23 282.44 393.3C281.57 393.37 280.32 393.46 278.77 393.54C275.67 393.7 271.38 393.84 266.64 393.8C261.9 393.77 257.61 393.58 254.52 393.38C252.97 393.28 251.72 393.18 250.85 393.1C249.98 393 249.51 392.94 249.51 392.91Z" fill="#E0E0E0"/>
<path d="M288.64 363.5L273.41 290.86C273.41 290.86 264.48 255.85 233.75 243.79L231.63 243.14C231.58 243.12 228.71 242.25 228.67 242.23C227.43 241.75 222.39 240.15 221.06 239.74C179.62 225.37 168.62 229.11 125.44 243.85C125.44 243.85 106.25 249.01 96.96 274.04C87.66 299.07 69.86 338.21 69.86 338.21L112.94 353.42L121.2 341.15V386.44V425.07H172.33H239.7L236.43 386.44L235.86 338.85" fill="#11DE9A"/>
<path d="M168.03 248.3C168.05 248.33 167.7 248.65 167.04 249.22C166.71 249.51 166.3 249.85 165.8 250.2C165.3 250.56 164.74 250.99 164.07 251.39C162.76 252.24 161.12 253.1 159.22 253.91C157.31 254.68 155.14 255.38 152.81 255.85C150.47 256.29 148.2 256.47 146.14 256.47C144.08 256.44 142.23 256.26 140.7 255.96C139.93 255.85 139.25 255.65 138.65 255.51C138.05 255.38 137.54 255.21 137.13 255.07C136.31 254.79 135.86 254.63 135.87 254.59C135.9 254.49 137.72 255.12 140.76 255.59C142.28 255.84 144.11 255.97 146.14 255.98C148.17 255.95 150.4 255.76 152.71 255.33C155.01 254.87 157.15 254.2 159.04 253.46C160.92 252.69 162.56 251.87 163.88 251.07C166.52 249.49 167.96 248.21 168.03 248.3Z" fill="#FAFAFA"/>
<g opacity="0.3">
<path opacity="0.3" d="M121.2 373.08L130.91 384.3H140.46V396.52L239.21 419.35L238.41 409.84L145.5 377.94H129.93L122.42 371.94L121.2 373.08Z" fill="black"/>
</g>
<path d="M150.28 363.09L142.04 361.56C142.04 361.56 122.52 340.21 118.85 339.9C115.84 339.65 99.23 339.81 93.44 339.88C92.34 339.89 91.45 340.79 91.45 341.89C91.45 342.97 92.3 343.86 93.38 343.9L113 344.66L113.09 346.24L93.44 346.5C91.44 346.65 90.16 349.82 96.56 350.39L113 350.97V351.99L96.33 354.32C95.49 354.44 93.27 354.87 93.25 355.72C93.25 355.72 92.24 357.81 96.99 358.4C98.62 358.6 113.09 358.12 113.09 358.12L112.53 359.42L97.55 362.65C96.46 362.89 95.74 363.92 95.89 365.03C96.05 366.16 97.06 366.96 98.2 366.85L114.2 365.37L129.9 377.91H150.9L150.28 363.09Z" fill="#AB6547"/>
<path d="M288.64 363.5L240.72 372.93L235.85 338.85" fill="#11DE9A"/>
<path d="M234.33 364.8L145.5 361.93L145.51 392.63L204.45 404.34L245.83 410.95C271.55 410.95 292.12 387.34 288.14 361.93L288.03 361.96L234.33 364.8Z" fill="#11DE9A"/>
<path d="M258.79 364.24C258.79 364.26 258.39 364.29 257.64 364.32C256.82 364.34 255.72 364.37 254.34 364.41C251.4 364.46 247.27 364.54 242.19 364.63C231.93 364.78 217.76 364.95 202.11 364.8C186.45 364.65 172.28 364.08 162.04 363.39C156.92 363.05 152.78 362.72 149.93 362.43C148.55 362.29 147.46 362.18 146.64 362.09C145.89 362.01 145.5 361.95 145.5 361.93C145.5 361.91 145.9 361.92 146.65 361.95C147.47 362 148.56 362.07 149.95 362.16C152.81 362.36 156.95 362.62 162.07 362.9C172.31 363.47 186.47 363.95 202.12 364.11C217.76 364.26 231.93 364.16 242.19 364.14C247.27 364.14 251.4 364.14 254.34 364.14C255.73 364.16 256.83 364.17 257.64 364.18C258.39 364.19 258.79 364.21 258.79 364.24Z" fill="#263238"/>
<path d="M145.5 362.21C145.51 362.21 145.52 362.4 145.53 362.76C145.54 363.15 145.55 363.68 145.56 364.35C145.57 365.78 145.6 367.82 145.62 370.4C145.64 375.65 145.68 383.12 145.72 392.1L145.55 391.89C155.58 394.04 167.61 396.7 180.55 399.42C198.3 403.17 214.45 406.14 226.2 407.95C232.07 408.85 236.84 409.51 240.13 409.95C241.75 410.16 243.02 410.33 243.92 410.45C244.33 410.51 244.66 410.56 244.91 410.59C245.13 410.63 245.24 410.65 245.24 410.66C245.24 410.67 245.12 410.66 244.9 410.65C244.65 410.63 244.32 410.6 243.91 410.56C243.01 410.46 241.73 410.33 240.1 410.16C236.8 409.79 232.02 409.18 226.14 408.32C214.37 406.6 198.19 403.69 180.44 399.93C167.49 397.21 155.47 394.52 145.45 392.32L145.28 392.28V392.1C145.31 383.12 145.34 375.65 145.36 370.4C145.38 367.82 145.4 365.78 145.42 364.35C145.43 363.68 145.44 363.15 145.45 362.76C145.48 362.4 145.49 362.21 145.5 362.21Z" fill="#263238"/>
<path d="M137.92 278.23C137.88 278.23 137.91 277.69 137.98 276.73C138.04 275.77 138.14 274.38 138.17 272.66C138.27 269.23 138.11 264.46 137.24 259.29C136.33 254.14 135.18 249.45 133.39 246.54C132.52 245.08 131.5 244.11 130.74 243.55C129.96 243 129.46 242.79 129.49 242.74C129.5 242.72 129.62 242.77 129.86 242.86C130.1 242.95 130.44 243.12 130.86 243.38C131.68 243.9 132.77 244.86 133.71 246.34C134.66 247.81 135.47 249.74 136.11 251.94C136.75 254.14 137.33 256.59 137.76 259.2C138.64 264.41 138.74 269.22 138.54 272.67C138.46 274.4 138.3 275.79 138.18 276.75C138.05 277.71 137.95 278.24 137.92 278.23Z" fill="#263238"/>
<path d="M235.61 251.25C235.75 251.25 235.87 271.66 235.87 296.83C235.87 322.01 235.75 342.42 235.61 342.42C235.47 342.42 235.35 322.01 235.35 296.83C235.35 271.66 235.47 251.25 235.61 251.25Z" fill="#263238"/>
<path d="M266.27 353.78C266.27 353.88 264.76 353.83 262.36 354.13C261.16 354.27 259.74 354.54 258.2 354.94C256.66 355.36 255 355.93 253.31 356.68C251.63 357.45 250.11 358.33 248.78 359.2C247.46 360.1 246.32 360.98 245.42 361.79C243.61 363.4 242.65 364.56 242.58 364.5C242.55 364.48 242.77 364.17 243.2 363.64C243.62 363.1 244.29 362.37 245.17 361.52C246.05 360.67 247.18 359.74 248.51 358.8C249.85 357.89 251.39 356.98 253.1 356.2C254.81 355.44 256.51 354.87 258.08 354.47C259.66 354.09 261.1 353.85 262.32 353.76C263.54 353.66 264.53 353.63 265.22 353.68C265.89 353.71 266.27 353.74 266.27 353.78Z" fill="#263238"/>
<g opacity="0.3">
<g opacity="0.3">
<path opacity="0.3" d="M138.75 358.03C153.72 349.09 163.07 334.28 172.2 319.43C181.33 304.58 189.84 288.98 202.5 276.99C208.32 271.48 215.12 266.84 217.26 259.13L194.5 277.22L131.1 350.13L138.75 358.03Z" fill="black"/>
</g>
</g>
<path d="M97.65 318.91C97.67 319.11 94.07 318.97 89.98 320.36C87.94 321.06 86.19 321.95 84.92 322.59C83.66 323.24 82.87 323.65 82.83 323.59C82.8 323.53 83.51 323.01 84.74 322.27C85.97 321.54 87.72 320.58 89.81 319.87C91.9 319.16 93.89 318.89 95.33 318.82C96.76 318.76 97.65 318.85 97.65 318.91Z" fill="#263238"/>
<path d="M97.65 318.91C97.67 319.11 94.07 318.97 89.98 320.36C87.94 321.06 86.19 321.95 84.92 322.59C83.66 323.24 82.87 323.65 82.83 323.59C82.8 323.53 83.51 323.01 84.74 322.27C85.97 321.54 87.72 320.58 89.81 319.87C91.9 319.16 93.89 318.89 95.33 318.82C96.76 318.76 97.65 318.85 97.65 318.91Z" fill="#263238"/>
<path d="M235.23 351.59C235.18 351.68 234.15 350.68 231.77 350C229.42 349.27 225.73 349.28 221.55 350.64C217.31 351.89 212.91 354.89 207.48 357.15C204.77 358.24 201.69 359.1 198.44 358.88C195.19 358.72 192.02 357.48 189 355.98C185.97 354.47 183.14 352.76 180.27 351.43C177.41 350.08 174.45 349.25 171.57 348.97C165.78 348.42 160.52 349.76 156.59 351.68C152.6 353.55 149.92 356.03 148.25 357.81C147.85 358.27 147.48 358.68 147.16 359.04C146.88 359.41 146.64 359.73 146.44 360C146.26 360.24 146.11 360.43 145.99 360.59C145.89 360.72 145.83 360.79 145.82 360.78C145.81 360.78 145.85 360.7 145.94 360.56C146.05 360.4 146.18 360.19 146.35 359.94C146.54 359.66 146.77 359.33 147.03 358.94C147.34 358.57 147.69 358.15 148.09 357.68C149.73 355.84 152.4 353.3 156.42 351.36C158.4 350.35 160.72 349.53 163.28 348.99C165.84 348.45 168.66 348.22 171.6 348.5C174.54 348.76 177.57 349.61 180.47 350.97C183.38 352.31 186.21 354.02 189.21 355.52C192.2 357.01 195.31 358.21 198.45 358.38C201.59 358.6 204.59 357.79 207.28 356.72C212.65 354.52 217.1 351.53 221.42 350.3C225.67 348.97 229.44 349.01 231.81 349.82C233 350.19 233.86 350.66 234.41 351.01C234.66 351.18 234.85 351.33 235.02 351.44C235.17 351.53 235.23 351.58 235.23 351.59Z" fill="#FAFAFA"/>
<path d="M278.67 314.61C278.65 314.68 278.05 314.31 276.87 314.27C275.7 314.2 273.98 314.62 272.17 315.71C270.32 316.74 268.54 318.62 266.02 320.04C264.77 320.73 263.25 321.25 261.64 321.14C260.04 321.05 258.49 320.41 257.03 319.68C255.56 318.94 254.2 318.11 252.79 317.55C251.39 316.97 249.96 316.59 248.58 316.37C247.2 316.14 245.87 316.09 244.62 316.15C243.38 316.2 242.22 316.37 241.19 316.6C239.12 317.06 237.53 317.75 236.47 318.29C235.41 318.82 234.86 319.2 234.83 319.15C234.82 319.14 234.95 319.03 235.21 318.85C235.47 318.67 235.85 318.39 236.38 318.11C237.42 317.51 239.01 316.76 241.11 316.24C242.16 315.98 243.33 315.78 244.6 315.72C245.87 315.64 247.24 315.67 248.65 315.89C250.07 316.1 251.53 316.48 252.98 317.07C254.44 317.64 255.81 318.48 257.26 319.2C258.7 319.93 260.17 320.53 261.66 320.62C263.15 320.73 264.56 320.26 265.78 319.61C268.22 318.28 270.05 316.42 271.97 315.39C273.85 314.31 275.65 313.93 276.87 314.07C277.48 314.12 277.93 314.27 278.23 314.39C278.53 314.51 278.67 314.59 278.67 314.61Z" fill="#FAFAFA"/>
<path d="M234.69 300.92C234.68 300.94 234.45 300.9 234.01 300.8C233.79 300.76 233.52 300.68 233.2 300.63C232.87 300.59 232.49 300.54 232.08 300.48C230.39 300.29 227.89 300.39 224.95 301.21C222.01 302.03 218.7 303.57 215.21 305.6C211.72 307.62 207.97 310.11 203.6 311.91C201.42 312.8 199.19 313.48 196.97 313.73C194.75 313.99 192.56 313.83 190.57 313.29C188.58 312.76 186.81 311.94 185.19 311.14C183.57 310.34 182.09 309.55 180.71 308.9C177.96 307.57 175.55 306.92 173.85 306.83C173 306.82 172.34 306.81 171.89 306.89C171.44 306.94 171.2 306.95 171.2 306.93C171.2 306.91 171.43 306.86 171.87 306.78C172.31 306.67 172.98 306.64 173.85 306.62C175.58 306.65 178.06 307.26 180.85 308.56C182.25 309.19 183.75 309.96 185.37 310.74C186.99 311.51 188.74 312.31 190.68 312.81C192.61 313.32 194.73 313.47 196.9 313.21C199.07 312.97 201.25 312.3 203.4 311.42C207.71 309.65 211.44 307.19 214.97 305.18C218.5 303.16 221.87 301.64 224.86 300.85C227.85 300.06 230.4 300.02 232.11 300.28C232.53 300.35 232.9 300.42 233.24 300.48C233.56 300.55 233.83 300.64 234.05 300.7C234.47 300.83 234.69 300.9 234.69 300.92Z" fill="#FAFAFA"/>
<path d="M265.65 270.16C265.67 270.19 265.29 270.41 264.58 270.78C263.87 271.15 262.85 271.66 261.54 272.23C260.24 272.8 258.65 273.42 256.8 273.87C254.97 274.33 252.84 274.54 250.66 274.29C248.48 274.06 246.47 273.6 244.62 273.35C242.78 273.08 241.1 273.06 239.71 273.26C236.9 273.64 235.53 274.92 235.49 274.82C235.48 274.81 235.56 274.73 235.71 274.59C235.87 274.45 236.12 274.26 236.46 274.05C237.14 273.63 238.23 273.14 239.65 272.9C241.07 272.65 242.8 272.63 244.68 272.88C246.56 273.11 248.58 273.56 250.71 273.78C255 274.29 258.8 272.92 261.4 271.9C262.71 271.38 263.76 270.91 264.49 270.6C265.23 270.28 265.64 270.12 265.65 270.16Z" fill="#FAFAFA"/>
<path d="M136.35 286.81C136.33 286.88 135.76 286.43 134.58 286.38C133.41 286.32 131.7 286.8 130 288.08C129.13 288.69 128.24 289.45 127.16 290.15C126.09 290.86 124.79 291.39 123.37 291.67C120.51 292.22 117.29 291.69 114.2 290.58C111.1 289.46 108.33 288.04 105.67 287.1C104.35 286.62 103.06 286.26 101.84 286.05C100.61 285.85 99.45 285.79 98.4 285.84C96.28 285.95 94.63 286.54 93.61 287.12C92.58 287.7 92.1 288.17 92.06 288.13C92.05 288.12 92.16 288 92.39 287.78C92.62 287.56 92.99 287.26 93.5 286.95C94.52 286.3 96.2 285.63 98.37 285.48C99.45 285.4 100.65 285.44 101.91 285.63C103.17 285.83 104.49 286.18 105.83 286.65C108.53 287.57 111.32 288.99 114.37 290.09C117.4 291.18 120.54 291.7 123.28 291.2C124.64 290.95 125.88 290.46 126.92 289.79C127.97 289.13 128.88 288.39 129.78 287.78C131.54 286.51 133.37 286.05 134.58 286.18C135.19 286.23 135.65 286.4 135.93 286.54C136.23 286.69 136.36 286.8 136.35 286.81Z" fill="#FAFAFA"/>
<path d="M192.69 363.4C192.7 363.39 192.81 363.48 193.01 363.68C193.22 363.87 193.48 364.18 193.8 364.6C194.41 365.45 195.16 366.85 195.43 368.74C195.7 370.6 195.49 373.02 194.1 375.18C192.77 377.33 190.51 379.04 189.23 381.51C188.62 382.75 188.47 384.12 188.73 385.4C188.98 386.68 189.5 387.87 190.03 388.97C191.12 391.15 192.13 393.27 192.09 395.23C192.06 397.19 191.08 398.6 190.22 399.22C189.79 399.54 189.38 399.68 189.12 399.75C188.84 399.8 188.7 399.81 188.7 399.8C188.68 399.74 189.3 399.71 190.1 399.06C190.87 398.43 191.75 397.06 191.73 395.23C191.72 393.39 190.73 391.37 189.6 389.18C189.05 388.07 188.5 386.86 188.23 385.49C187.94 384.13 188.1 382.6 188.76 381.27C189.42 379.95 190.37 378.87 191.26 377.87C192.16 376.87 193.03 375.92 193.69 374.9C195.03 372.87 195.28 370.57 195.06 368.77C194.84 366.94 194.17 365.56 193.62 364.69C193.07 363.85 192.65 363.44 192.69 363.4Z" fill="#FAFAFA"/>
<path d="M234.61 407.3C234.6 407.31 234.47 407.2 234.23 406.97C234.01 406.73 233.7 406.34 233.46 405.77C232.93 404.63 232.86 402.68 233.71 400.61C234.12 399.58 234.78 398.51 235.65 397.54C236.5 396.55 237.51 395.6 238.52 394.58C239.53 393.56 240.55 392.44 241.3 391.09C242.05 389.75 242.47 388.18 242.64 386.54C242.97 383.25 242.38 380.08 242.21 377.18C242 374.28 242.25 371.56 243.18 369.52C244.07 367.47 245.4 366.13 246.47 365.49C247 365.16 247.45 364.98 247.76 364.88C248.07 364.79 248.24 364.75 248.24 364.77C248.26 364.83 247.58 364.98 246.58 365.66C245.58 366.33 244.34 367.65 243.52 369.66C242.67 371.65 242.46 374.28 242.69 377.15C242.88 380.02 243.5 383.2 243.16 386.6C242.99 388.29 242.55 389.93 241.75 391.34C240.96 392.75 239.89 393.9 238.87 394.92C236.8 396.95 234.85 398.72 234.06 400.76C233.2 402.74 233.21 404.59 233.66 405.71C234.07 406.83 234.67 407.26 234.61 407.3Z" fill="#FAFAFA"/>
<path d="M239.74 420.57C239.74 420.57 239.39 420.87 238.63 421.27C237.87 421.68 236.65 422.15 235 422.31C233.36 422.48 231.31 422.3 229.06 421.64C226.8 421.01 224.4 419.79 221.87 418.32C219.33 416.88 216.6 415.15 213.36 414.06C210.13 412.97 206.38 412.88 202.63 413.69C198.86 414.47 195.1 416.02 191.21 417.64C187.33 419.24 183.29 421.01 178.86 421.9C176.65 422.36 174.4 422.5 172.2 422.27C170 422.06 167.89 421.38 165.99 420.43C162.16 418.52 159.11 415.75 155.99 413.49C154.43 412.36 152.87 411.3 151.24 410.52C150.83 410.32 150.42 410.13 150.02 409.94C149.61 409.76 149.19 409.63 148.77 409.47C147.95 409.14 147.1 408.95 146.28 408.73C142.96 407.92 139.72 407.94 136.85 408.35C133.97 408.77 131.44 409.59 129.36 410.59C128.83 410.82 128.35 411.12 127.88 411.36C127.4 411.6 126.96 411.87 126.55 412.15C126.14 412.42 125.73 412.67 125.36 412.93C125 413.21 124.67 413.47 124.35 413.73C123.69 414.21 123.19 414.74 122.73 415.16C122.26 415.58 121.91 415.98 121.63 416.3C121.36 416.6 121.14 416.84 120.97 417.03C120.82 417.19 120.74 417.27 120.73 417.27C120.72 417.26 120.79 417.17 120.93 417C121.09 416.81 121.29 416.55 121.55 416.24C121.82 415.9 122.16 415.49 122.62 415.06C123.08 414.62 123.57 414.08 124.22 413.58C124.54 413.32 124.88 413.05 125.23 412.76C125.6 412.49 126 412.23 126.42 411.95C126.83 411.66 127.27 411.38 127.75 411.13C128.23 410.88 128.71 410.57 129.24 410.33C131.34 409.29 133.89 408.45 136.81 407.99C139.72 407.55 143.01 407.51 146.4 408.32C147.24 408.54 148.11 408.73 148.94 409.06C149.36 409.22 149.79 409.35 150.21 409.53C150.62 409.72 151.04 409.92 151.46 410.12C153.13 410.92 154.72 411.98 156.29 413.12C159.44 415.38 162.49 418.13 166.23 419.99C168.09 420.91 170.13 421.57 172.27 421.77C174.4 421.98 176.6 421.85 178.77 421.4C183.12 420.52 187.14 418.78 191.03 417.18C194.92 415.57 198.71 414.02 202.54 413.23C206.35 412.41 210.2 412.52 213.51 413.66C216.81 414.79 219.54 416.55 222.07 418.01C224.58 419.5 226.93 420.72 229.16 421.37C231.37 422.05 233.38 422.25 235 422.11C236.62 421.99 237.83 421.55 238.6 421.18C239.36 420.81 239.73 420.54 239.74 420.57Z" fill="#FAFAFA"/>
<path d="M184.11 253.76C195.27 254.31 204.87 245.94 205.85 234.81C206.43 228.21 206.89 222.57 206.89 222.57C206.89 222.57 223.93 222.14 226.3 205.47C228.67 188.8 230.75 150.08 230.75 150.08C212.5 139.27 189.82 139.18 171.48 149.85L168.76 151.43L164.37 231.86C163.75 243.37 172.6 253.19 184.11 253.76Z" fill="#AB6547"/>
<path d="M209.24 193.95C209.25 193.77 210.71 193.67 213.06 193.64C213.67 193.65 214.16 193.58 214.25 193.26C214.41 192.91 214.26 192.24 214.04 191.48C213.65 189.88 213.25 188.27 212.83 186.57C211.18 179.59 210.13 173.86 210.49 173.77C210.84 173.69 212.47 179.28 214.12 186.26C214.5 187.96 214.87 189.59 215.23 191.19C215.36 191.91 215.67 192.78 215.23 193.73C215 194.21 214.48 194.5 214.07 194.56C213.66 194.63 213.32 194.58 213.03 194.56C210.68 194.36 209.24 194.13 209.24 193.95Z" fill="#263238"/>
<path d="M206.94 222.34C206.94 222.34 196.28 221.83 185.97 213.33C185.97 213.33 189.56 226.02 206.42 226.67L206.94 222.34Z" fill="#964724"/>
<path d="M229.961 152.98C229.961 152.98 219.461 157.37 206.511 149.99C198.011 145.15 187.951 142.45 185.611 144.09C183.271 145.72 182.301 154.7 173.501 156.85C173.501 156.85 173.151 174.06 166.331 173.07C159.521 172.08 159.023 155.92 165.261 145.71C171.5 135.5 173.961 135.913 181 134C188.021 132.092 200 134 200 134C200 134 209.285 135.905 216 137C221.011 137.817 223.911 137.15 230.911 141.15C237.911 145.15 229.961 152.98 229.961 152.98Z" fill="#110702"/>
<path d="M168.57 168.99C168.3 168.83 157.54 164.11 156.42 175.57C155.3 187.03 167.04 185.79 167.1 185.46C167.15 185.14 168.57 168.99 168.57 168.99Z" fill="#AB6547"/>
<path d="M164.02 180.78C163.97 180.74 163.81 180.9 163.45 181.02C163.11 181.14 162.53 181.19 161.95 180.91C160.78 180.35 159.95 178.33 160.1 176.25C160.17 175.2 160.49 174.23 160.94 173.44C161.37 172.64 161.97 172.1 162.59 172.05C163.21 171.97 163.61 172.38 163.72 172.71C163.84 173.05 163.75 173.27 163.81 173.29C163.84 173.32 164.07 173.12 164.03 172.64C164 172.41 163.9 172.12 163.65 171.88C163.4 171.63 163 171.48 162.57 171.48C161.68 171.46 160.81 172.19 160.31 173.05C159.77 173.91 159.39 175 159.31 176.18C159.16 178.5 160.13 180.77 161.74 181.41C162.53 181.7 163.22 181.52 163.6 181.28C163.97 181.06 164.06 180.81 164.02 180.78Z" fill="#964724"/>
<path d="M224.74 175.49C224.61 176.85 223.36 177.86 221.94 177.75C220.52 177.64 219.48 176.46 219.6 175.1C219.73 173.74 220.98 172.73 222.4 172.84C223.82 172.94 224.87 174.13 224.74 175.49Z" fill="#263238"/>
<path d="M226.77 175.26C226.41 175.55 224.66 173.87 221.9 173.51C219.15 173.12 216.95 174.27 216.69 173.9C216.56 173.73 216.96 173.17 217.93 172.65C218.88 172.13 220.44 171.7 222.15 171.93C223.86 172.16 225.22 172.98 225.97 173.74C226.74 174.49 226.95 175.13 226.77 175.26Z" fill="#263238"/>
<path d="M199.69 172.01C199.56 173.37 198.31 174.38 196.89 174.27C195.47 174.16 194.43 172.98 194.55 171.62C194.68 170.26 195.93 169.25 197.35 169.36C198.77 169.46 199.82 170.65 199.69 172.01Z" fill="#263238"/>
<path d="M201.48 171.93C201.12 172.22 199.37 170.54 196.61 170.18C193.86 169.79 191.66 170.94 191.4 170.57C191.27 170.4 191.67 169.84 192.64 169.32C193.59 168.8 195.15 168.37 196.86 168.6C198.57 168.83 199.93 169.65 200.68 170.41C201.45 171.16 201.66 171.81 201.48 171.93Z" fill="#263238"/>
<path d="M200.42 164.36C199.88 164.84 197.81 163.34 195.03 163.08C192.25 162.75 189.92 163.79 189.49 163.2C189.29 162.92 189.66 162.21 190.68 161.53C191.68 160.85 193.39 160.29 195.3 160.49C197.21 160.69 198.76 161.6 199.6 162.48C200.46 163.36 200.68 164.13 200.42 164.36Z" fill="#263238"/>
<path d="M226.98 167.956C227.108 168.321 226.608 168.918 225.533 169.404C224.479 169.89 222.851 170.167 221.095 169.89C219.339 169.603 217.881 168.818 217.019 168.023C216.146 167.227 215.848 166.486 216.071 166.188C216.582 165.569 218.764 166.641 221.531 167.05C224.288 167.525 226.682 167.194 226.98 167.956Z" fill="#263238"/>
<path d="M206.918 200.001C207.365 200.032 207.673 200.833 207.611 201.789C207.55 202.745 207.149 203.501 206.702 203.47C206.255 203.439 205.946 202.637 206.008 201.681C206.07 200.725 206.486 199.97 206.918 200.001Z" fill="#263238"/>
<path d="M166.53 189.83C166.56 189.84 166.52 190.1 166.28 190.5C166.05 190.9 165.59 191.44 164.83 191.82C164.09 192.21 162.99 192.4 161.91 191.99C160.85 191.61 159.84 190.69 159.4 189.44C158.98 188.18 159.21 186.86 159.75 185.88C160.29 184.88 161.15 184.25 161.91 183.92C162.68 183.58 163.37 183.51 163.82 183.52C164.28 183.53 164.53 183.6 164.53 183.63C164.54 183.73 163.48 183.56 162.07 184.25C161.38 184.6 160.63 185.2 160.17 186.1C159.71 186.99 159.52 188.17 159.89 189.27C160.26 190.36 161.15 191.18 162.07 191.54C163.01 191.92 163.96 191.79 164.66 191.48C166.12 190.84 166.46 189.76 166.53 189.83Z" fill="#455A64"/>
<path d="M177.6 258.32C177.6 258.32 183.18 250.44 186.68 246.01C190.93 240.65 193.46 236.02 193.46 233.52C193.46 231.01 193.46 220.24 193.46 220.24C193.46 220.24 198.75 218.99 199.5 225C200.26 231.01 199.5 232.52 199.5 232.52C199.5 232.52 221.7 217.57 223.21 218.65C225.86 220.56 220.84 224.55 220.84 224.55L207.31 236.78L215.02 234.34C216.89 233.75 218.9 234.76 219.53 236.61C220.05 238.13 219.49 239.81 218.15 240.72L213.59 244.67L215.89 243.75C217.59 243.07 219.53 243.8 220.35 245.43C221.01 246.74 220.78 248.32 219.78 249.39L215.62 253.82L217.57 252.78C218.83 252.11 220.39 252.61 221.02 253.87C221.55 254.93 221.26 256.22 220.33 256.96L195.47 276.61L177.6 258.32Z" fill="#AB6547"/>
<path d="M195.48 276.6C195.48 276.6 195.38 276.51 195.17 276.31C194.95 276.09 194.65 275.79 194.26 275.4C193.44 274.58 192.26 273.39 190.73 271.85C187.63 268.71 183.13 264.15 177.48 258.43L177.38 258.33L177.46 258.22C179.09 255.92 180.85 253.45 182.77 250.84C183.73 249.54 184.73 248.2 185.77 246.84C186.83 245.48 187.91 244.11 188.93 242.63C189.96 241.15 190.95 239.6 191.8 237.93C192.63 236.25 193.41 234.48 193.22 232.5C193.22 228.56 193.21 224.46 193.21 220.24V220.04L193.4 220C194.75 219.75 196.2 219.9 197.41 220.66C198.01 221.05 198.48 221.6 198.87 222.19C199.2 222.81 199.46 223.48 199.6 224.17C199.87 225.55 199.96 226.91 200.05 228.32C200.09 229.02 200.1 229.73 200.07 230.44C200.02 231.16 200.01 231.84 199.73 232.62L199.36 232.3C202.79 230 206.34 227.67 210.01 225.35C211.85 224.19 213.71 223.03 215.62 221.9C217.54 220.78 219.45 219.64 221.55 218.72C221.83 218.61 222.11 218.5 222.41 218.41C222.56 218.37 222.71 218.33 222.89 218.32C222.98 218.31 223.08 218.32 223.19 218.34C223.35 218.4 223.41 218.46 223.46 218.51C224 218.87 224.31 219.63 224.21 220.27C224.02 221.57 223.2 222.52 222.43 223.38C221.62 224.25 220.7 224.96 219.88 225.74C219.03 226.51 218.19 227.27 217.35 228.03C213.99 231.07 210.69 234.04 207.48 236.95L207.23 236.52C208.75 236.04 210.25 235.57 211.74 235.09C212.48 234.85 213.23 234.62 213.96 234.39C214.33 234.28 214.69 234.15 215.07 234.05C215.46 233.94 215.88 233.89 216.28 233.91C217.93 233.96 219.41 235.19 219.81 236.74C220.25 238.29 219.57 240.03 218.27 240.89L218.29 240.87C216.74 242.21 215.22 243.53 213.72 244.82L213.48 244.43C214.23 244.13 214.98 243.83 215.71 243.54C216.48 243.22 217.37 243.16 218.17 243.38C219.79 243.81 220.96 245.39 220.91 247.01C220.9 247.81 220.63 248.59 220.15 249.21C219.65 249.81 219.15 250.3 218.65 250.84C217.66 251.89 216.69 252.92 215.74 253.93L215.5 253.61C216.2 253.24 216.9 252.87 217.59 252.51C218.35 252.15 219.25 252.19 219.97 252.56C220.7 252.92 221.22 253.63 221.38 254.41C221.54 255.19 221.34 256.01 220.87 256.62C220.63 256.93 220.32 257.15 220.05 257.37C219.77 257.59 219.49 257.81 219.22 258.02C218.67 258.45 218.13 258.88 217.6 259.3C216.53 260.14 215.5 260.95 214.5 261.73C210.51 264.86 207.06 267.56 204.23 269.78C201.42 271.97 199.23 273.68 197.72 274.86C196.99 275.43 196.42 275.86 196.03 276.17C195.67 276.47 195.48 276.6 195.48 276.6C195.48 276.6 195.68 276.42 196.06 276.11C196.46 275.79 197.02 275.33 197.75 274.74C199.25 273.54 201.43 271.79 204.22 269.56C207.02 267.32 210.43 264.6 214.38 261.45C215.37 260.66 216.39 259.85 217.44 259.01C217.97 258.59 218.5 258.17 219.04 257.73C219.31 257.51 219.58 257.3 219.86 257.08C220.14 256.85 220.41 256.66 220.61 256.39C221.02 255.87 221.19 255.15 221.04 254.49C220.9 253.83 220.45 253.22 219.82 252.91C219.2 252.59 218.42 252.56 217.78 252.87C217.1 253.23 216.41 253.6 215.71 253.97L214.64 254.54L215.47 253.66C216.42 252.65 217.38 251.61 218.37 250.56C218.85 250.03 219.39 249.5 219.84 248.96C220.26 248.41 220.5 247.72 220.51 247.01C220.55 245.59 219.52 244.19 218.09 243.82C217.38 243.63 216.61 243.68 215.92 243.97C215.18 244.27 214.44 244.57 213.69 244.87L212.41 245.38L213.45 244.48C214.94 243.19 216.46 241.87 218.01 240.52L218.02 240.51L218.03 240.5C219.17 239.74 219.76 238.22 219.37 236.87C219.02 235.51 217.72 234.44 216.28 234.4C215.57 234.33 214.88 234.63 214.13 234.86C213.39 235.09 212.65 235.33 211.91 235.56C210.42 236.03 208.92 236.51 207.4 236.99L206.29 237.34L207.15 236.56C210.36 233.65 213.66 230.67 217.03 227.63C217.87 226.87 218.72 226.11 219.57 225.34C220.41 224.55 221.31 223.85 222.08 223.02C222.83 222.2 223.58 221.25 223.72 220.21C223.78 219.7 223.6 219.21 223.16 218.91C223.1 218.76 222.84 218.84 222.57 218.91C222.31 218.98 222.04 219.09 221.77 219.2C219.74 220.09 217.81 221.23 215.91 222.34C214.01 223.47 212.15 224.62 210.31 225.78C206.64 228.1 203.09 230.42 199.66 232.71L199.02 233.14L199.29 232.39C199.49 231.83 199.55 231.08 199.58 230.41C199.61 229.72 199.6 229.03 199.56 228.34C199.48 226.97 199.38 225.57 199.13 224.27C199 223.62 198.76 223.01 198.46 222.44C198.11 221.9 197.69 221.41 197.16 221.07C196.1 220.39 194.73 220.24 193.52 220.47L193.71 220.24C193.71 224.47 193.7 228.56 193.7 232.5C193.69 233 193.71 233.47 193.67 233.99C193.6 234.49 193.5 234.98 193.35 235.45C193.05 236.39 192.65 237.27 192.22 238.12C191.35 239.82 190.34 241.38 189.3 242.86C188.27 244.35 187.16 245.73 186.11 247.08C185.06 248.43 184.06 249.76 183.1 251.06C181.17 253.66 179.39 256.12 177.76 258.41L177.74 258.2C183.3 263.95 187.74 268.52 190.79 271.68C192.3 273.25 193.48 274.47 194.29 275.32C194.68 275.73 194.98 276.04 195.19 276.27C195.38 276.48 195.48 276.6 195.48 276.6Z" fill="#964724"/>
<path d="M195.48 276.6L127.34 366.56C117 380.22 98.36 385.21 82.88 377.8C71.56 372.38 63.26 361 70.2 337.58L135.47 292.92L175.14 254.63L195.48 276.6Z" fill="#11DE9A"/>
<path d="M82.88 377.8C82.88 377.8 83.13 377.92 83.62 378.17C84.11 378.43 84.82 378.81 85.75 379.3C87.7 380.11 90.63 381.32 94.66 381.69C96.66 381.84 98.91 381.92 101.33 381.57C102.55 381.47 103.79 381.16 105.09 380.91C105.74 380.76 106.38 380.55 107.04 380.37C107.71 380.2 108.37 379.97 109.04 379.71C111.73 378.76 114.51 377.45 117.23 375.69C119.95 373.95 122.63 371.77 124.91 368.98C129.56 363.48 134.37 357.2 139.56 350.49C144.74 343.78 150.22 336.55 155.98 328.95C167.48 313.73 180.05 296.94 193.18 279.27C193.88 278.33 194.58 277.39 195.27 276.45L195.29 276.78C188.32 269.24 181.51 261.89 174.96 254.8L175.31 254.82C161.42 266.28 148.57 277.23 136.91 286.98C125.27 296.74 114.83 305.31 106 312.29C97.18 319.28 90.01 324.72 85.01 328.37C82.53 330.22 80.56 331.58 79.25 332.53C78.6 332.99 78.1 333.34 77.75 333.59C77.41 333.83 77.23 333.94 77.23 333.94C77.23 333.94 77.39 333.8 77.72 333.55C78.06 333.29 78.55 332.93 79.19 332.45C80.48 331.48 82.43 330.09 84.89 328.23C89.85 324.54 96.99 319.06 105.78 312.04C114.57 305.02 124.98 296.43 136.61 286.65C148.24 276.88 161.08 265.92 174.97 254.44L175.16 254.29L175.32 254.47C181.88 261.55 188.69 268.91 195.66 276.44L195.81 276.6L195.68 276.77C194.98 277.71 194.29 278.65 193.59 279.59C180.45 297.26 167.87 314.04 156.35 329.25C150.58 336.85 145.09 344.06 139.89 350.77C134.68 357.47 129.86 363.73 125.18 369.23C122.87 372.04 120.15 374.23 117.4 375.98C114.65 377.74 111.84 379.05 109.13 380C108.46 380.25 107.79 380.48 107.11 380.65C106.44 380.83 105.79 381.04 105.14 381.18C103.83 381.43 102.57 381.73 101.34 381.83C98.9 382.16 96.63 382.08 94.62 381.91C90.57 381.5 87.63 380.26 85.69 379.42C84.75 378.92 84.05 378.51 83.58 378.24C83.11 377.95 82.88 377.8 82.88 377.8Z" fill="#263238"/>
<path d="M134.54 354.37C134.5 354.43 133.77 353.73 132.16 353C130.56 352.26 127.98 351.75 124.83 352.08C123.26 352.23 121.56 352.59 119.78 353.13C118 353.67 116.15 354.43 114.19 355.2C112.23 355.97 110.16 356.79 107.93 357.39C105.7 357.98 103.28 358.34 100.82 358.08C98.36 357.82 96.06 357.05 93.94 356.17C91.81 355.29 89.84 354.28 87.93 353.42C84.14 351.65 80.45 350.51 77.29 350.69C74.13 350.83 71.73 352.05 70.41 353.19C69.06 354.34 68.65 355.28 68.59 355.24C68.57 355.23 68.69 355.01 68.93 354.6C69.2 354.21 69.6 353.63 70.28 353.03C71.59 351.82 74.03 350.51 77.27 350.32C80.52 350.09 84.3 351.23 88.12 352.98C90.05 353.84 92.02 354.83 94.13 355.7C96.23 356.57 98.49 357.31 100.87 357.56C103.25 357.81 105.61 357.47 107.8 356.89C110 356.31 112.05 355.51 114.01 354.75C115.97 353.99 117.83 353.24 119.65 352.71C121.46 352.18 123.19 351.84 124.79 351.7C128 351.41 130.63 351.99 132.23 352.81C133.86 353.61 134.54 354.37 134.54 354.37Z" fill="#FAFAFA"/>
<path d="M158.62 324.2C158.54 324.18 159.02 323.6 158.88 322.42C158.73 321.29 157.81 319.62 155.87 318.76C154.92 318.32 153.79 318.03 152.56 317.75C151.34 317.47 149.99 317.14 148.69 316.51C146.06 315.29 143.64 313.18 141.4 310.8C139.15 308.41 137.15 306.02 135.01 304.19C132.9 302.34 130.65 301.09 128.6 300.53C126.56 299.95 124.8 299.97 123.64 300.19C122.47 300.4 121.86 300.69 121.84 300.64C121.83 300.62 121.98 300.55 122.27 300.42C122.56 300.29 123 300.12 123.6 300C124.77 299.71 126.59 299.63 128.69 300.18C130.8 300.7 133.15 301.96 135.31 303.83C137.5 305.68 139.53 308.08 141.76 310.45C143.99 312.82 146.35 314.88 148.88 316.09C151.38 317.33 154.04 317.42 156.01 318.44C158.04 319.4 158.96 321.2 159.06 322.41C159.11 323.03 158.99 323.51 158.85 323.8C158.73 324.08 158.63 324.21 158.62 324.2Z" fill="#FAFAFA"/>
<path d="M216.71 75.86C216.7 75.86 216.68 75.86 216.67 75.86C215.84 75.84 215.19 75.15 215.21 74.32L215.55 60.97C215.56 60.5 215.79 60.06 216.18 59.79C216.56 59.52 217.05 59.44 217.5 59.58C219.92 60.33 222.65 59.99 225 58.64C227.18 57.39 228.73 55.41 229.25 53.21C229.76 51.02 229.26 48.55 227.87 46.42C226.38 44.14 224.12 42.57 221.68 42.12C216.77 41.21 211.38 44.48 209.67 49.42C209.4 50.2 208.54 50.62 207.76 50.35C206.98 50.08 206.56 49.22 206.83 48.44C209.01 42.16 215.91 38.01 222.22 39.17C225.46 39.77 228.43 41.82 230.37 44.78C232.2 47.59 232.86 50.91 232.16 53.89C231.46 56.9 229.39 59.57 226.48 61.24C224 62.66 221.18 63.21 218.5 62.86L218.2 74.4C218.18 75.22 217.52 75.86 216.71 75.86Z" fill="#263238"/>
<path d="M313.372 133.443C313.363 133.448 313.346 133.458 313.337 133.463C312.608 133.861 311.7 133.588 311.302 132.859L304.922 121.128C304.696 120.716 304.675 120.22 304.878 119.791C305.072 119.367 305.456 119.053 305.916 118.949C308.386 118.388 310.581 116.729 311.941 114.385C313.204 112.212 313.556 109.723 312.906 107.557C312.253 105.406 310.585 103.517 308.316 102.367C305.886 101.138 303.144 100.908 300.806 101.738C296.098 103.405 293.066 108.932 294.055 114.065C294.211 114.876 293.676 115.669 292.866 115.826C292.055 115.982 291.261 115.447 291.105 114.636C289.853 108.108 293.754 101.064 299.798 98.9134C302.904 97.813 306.501 98.1033 309.661 99.6968C312.651 101.215 314.883 103.761 315.767 106.691C316.665 109.648 316.208 112.995 314.523 115.897C313.085 118.366 310.918 120.253 308.422 121.29L313.932 131.433C314.325 132.154 314.073 133.038 313.372 133.443Z" fill="#263238"/>
<path d="M48.2126 117.839C48.204 117.834 48.1866 117.824 48.178 117.819C47.4692 117.387 47.2513 116.464 47.6836 115.756L54.653 104.364C54.8967 103.962 55.3159 103.696 55.7886 103.657C56.2527 103.613 56.7171 103.789 57.0368 104.135C58.7576 105.995 61.2918 107.065 64.002 107.071C66.5149 107.079 68.8472 106.139 70.3976 104.494C71.9343 102.852 72.7362 100.463 72.5975 97.9234C72.4471 95.2039 71.2749 92.7142 69.3868 91.1045C65.5896 87.8614 59.2867 87.9983 55.3358 91.4215C54.712 91.962 53.7572 91.8957 53.2167 91.2719C52.6762 90.6481 52.7425 89.6933 53.3663 89.1528C58.3942 84.8041 66.4448 84.6601 71.3294 88.8197C73.8353 90.9593 75.3824 94.2197 75.5825 97.7531C75.7624 101.102 74.6739 104.307 72.5777 106.538C70.4665 108.794 67.3388 110.072 63.9837 110.063C61.1259 110.053 58.4088 109.119 56.2628 107.476L50.233 117.32C49.8057 118.02 48.9141 118.244 48.2126 117.839Z" fill="#263238"/>
<path d="M219.03 82.46C219.03 83.67 218.05 84.65 216.84 84.65C215.63 84.65 214.65 83.67 214.65 82.46C214.65 81.25 215.63 80.27 216.84 80.27C218.05 80.26 219.03 81.25 219.03 82.46Z" fill="#263238"/>
<path d="M318.681 137.999C319.286 139.047 318.927 140.385 317.879 140.99C316.831 141.595 315.493 141.237 314.888 140.189C314.283 139.141 314.641 137.802 315.689 137.197C316.732 136.583 318.076 136.951 318.681 137.999Z" fill="#263238"/>
<path d="M46.9219 124.715C46.3169 125.763 44.9781 126.122 43.9303 125.517C42.8824 124.912 42.5237 123.573 43.1287 122.525C43.7337 121.477 45.0724 121.118 46.1203 121.723C47.1731 122.32 47.5269 123.667 46.9219 124.715Z" fill="#263238"/>
<path d="M52.57 229.78C50.32 229.78 48.1 229.13 46.31 227.79C44.21 226.21 42.81 223.71 42.48 220.91C42.16 218.26 42.88 215.66 44.43 213.78C46 211.88 48.43 210.7 51.08 210.54C53.2 210.41 55.28 210.93 57.01 212L60.96 204.51C61.35 203.78 62.25 203.5 62.99 203.88C63.72 204.27 64 205.17 63.62 205.91L58.84 214.97C58.62 215.39 58.22 215.67 57.76 215.75C57.3 215.83 56.82 215.68 56.48 215.36C55.14 214.09 53.25 213.43 51.27 213.55C49.44 213.66 47.79 214.45 46.75 215.71C45.71 216.97 45.24 218.74 45.46 220.58C45.7 222.56 46.66 224.32 48.11 225.41C50.99 227.57 55.7 227.16 58.39 224.51C58.98 223.93 59.93 223.94 60.51 224.53C61.09 225.12 61.08 226.07 60.49 226.65C58.39 228.7 55.46 229.78 52.57 229.78Z" fill="#263238"/>
<path d="M63.46 198.84C63.87 198.01 64.88 197.67 65.72 198.08C66.55 198.49 66.89 199.5 66.48 200.33C66.07 201.16 65.06 201.5 64.23 201.09C63.38 200.69 63.04 199.68 63.46 198.84Z" fill="#263238"/>
<path d="M355.3 204.54C354.84 204.54 354.38 204.32 354.08 203.92L348.08 195.62C347.8 195.24 347.72 194.75 347.86 194.3C348 193.85 348.34 193.49 348.78 193.33C350.51 192.7 351.95 191.29 352.72 189.46C353.43 187.77 353.46 185.95 352.79 184.45C352.12 182.96 350.74 181.76 349 181.14C347.12 180.47 345.11 180.56 343.5 181.37C340.29 183 338.57 187.4 339.74 190.99C340 191.78 339.57 192.62 338.78 192.88C337.99 193.14 337.15 192.71 336.89 191.92C335.25 186.92 337.6 180.98 342.14 178.69C344.48 177.51 347.35 177.37 350 178.31C352.51 179.2 354.53 180.99 355.53 183.22C356.54 185.47 356.52 188.17 355.49 190.62C354.66 192.58 353.28 194.21 351.56 195.29L356.52 202.16C357.01 202.83 356.85 203.77 356.18 204.25C355.92 204.44 355.61 204.54 355.3 204.54Z" fill="#263238"/>
<path d="M360.49 206.89C361.05 207.63 360.91 208.68 360.17 209.25C359.43 209.81 358.38 209.67 357.81 208.93C357.25 208.19 357.39 207.13 358.13 206.57C358.87 206.01 359.92 206.15 360.49 206.89Z" fill="#263238"/>
<line x1="200.354" y1="160.354" x2="196.354" y2="164.354" stroke="#AB6547"/>
</g>
</g>
<defs>
<clipPath id="clip0">
<rect width="393.34" height="428.61" fill="white"/>
</clipPath>
</defs>
</svg>
