<svg width="35" height="37" viewBox="0 0 35 37" fill="none" xmlns="http://www.w3.org/2000/svg">
<path d="M31.5347 12.7956H31.4783C30.6964 12.7984 29.945 13.0991 29.3771 13.636C28.9338 12.3409 27.758 11.4131 26.3767 11.4131C25.5211 11.4242 24.708 11.7872 24.1292 12.4171C23.6063 11.3136 22.5262 10.5736 21.2813 10.5736H21.2212C20.5048 10.5736 19.8073 10.7869 19.3311 11.211V3.36406C19.3311 1.50905 17.8927 0 16.1372 0C14.3836 0 12.9508 1.50781 12.9496 3.36158L12.9359 18.8805L11.9945 17.736C11.2368 16.7927 10.1212 16.2068 8.91468 16.1182C7.73236 16.0373 6.56926 16.4489 5.70097 17.2555L4.94241 17.8848C4.71208 18.0758 4.64636 18.4016 4.78431 18.6666L12.1613 32.8297C13.5032 35.4079 16.056 37 18.8233 37H27.0974C31.2932 37 34.7103 33.3734 34.7146 28.9036C34.7165 26.9066 34.7186 25.4211 34.7199 24.2112C34.7242 20.9535 34.7258 19.7355 34.7174 16.1495C34.713 14.2994 33.2855 12.7956 31.5347 12.7956V12.7956ZM33.4501 24.2143C33.4489 25.4242 33.4467 26.9054 33.4449 28.9023C33.4411 32.6725 30.5938 35.7303 27.0974 35.7303H18.8233C16.5309 35.7303 14.4096 34.4001 13.2872 32.2438L6.14674 18.5305L6.52307 18.2212C6.53113 18.2144 6.5395 18.2085 6.54725 18.201C7.16011 17.6244 7.98532 17.3284 8.82509 17.3845C9.68285 17.4502 10.4752 17.8696 11.0118 18.5423L13.076 21.0555C13.2462 21.2625 13.528 21.3403 13.7804 21.2501C14.0327 21.1599 14.2013 20.9209 14.2016 20.6528L14.2137 3.36282C14.2143 2.20902 15.0833 1.27005 16.1379 1.27005C17.1922 1.27005 18.0614 2.20933 18.0614 3.36406V13.7904C18.0614 13.8264 18.0598 13.8623 18.0598 13.8986C18.0598 13.9144 18.0614 13.9293 18.0614 13.9445V18.4031C18.0614 18.7537 18.3456 19.038 18.6962 19.038C19.0469 19.038 19.3311 18.7537 19.3311 18.4031V13.8118C19.3311 12.6977 20.1932 11.8433 21.2212 11.8433H21.2813C22.3359 11.8433 23.2197 12.7445 23.2197 13.8995V17.9778C23.2197 18.3284 23.504 18.6127 23.8546 18.6127C24.2052 18.6127 24.4894 18.3284 24.4894 17.9778V14.7778C24.4894 13.623 25.3363 12.6834 26.3971 12.6834C27.452 12.6834 28.2986 13.623 28.2986 14.7778V17.7968C28.2986 18.1474 28.5829 18.4317 28.9335 18.4317C29.2841 18.4317 29.5684 18.1474 29.5684 17.7968V16.1622C29.5684 15.0071 30.4233 14.0654 31.4783 14.0654H31.5347C32.5868 14.0654 33.4452 15.0034 33.4476 16.1547C33.456 19.7386 33.4545 20.9581 33.4501 24.2143V24.2143Z" fill="#055EFF"/>
<path d="M21.5533 6.28821H29.7815L28.3062 7.76348C28.1419 7.92312 28.0762 8.15872 28.1345 8.38005C28.1928 8.6017 28.3657 8.77468 28.5874 8.83296C28.8087 8.89093 29.0443 8.82521 29.204 8.66091L31.7537 6.11151C32.0017 5.86352 32.0017 5.46146 31.7537 5.21377L29.204 2.66437C28.9557 2.41886 28.5558 2.4201 28.309 2.66685C28.0619 2.91392 28.0607 3.31381 28.3062 3.56212L29.7626 5.01847H21.5533C21.2027 5.01847 20.9184 5.30274 20.9184 5.65334C20.9184 6.00395 21.2027 6.28821 21.5533 6.28821V6.28821Z" fill="#055EFF"/>
<path d="M2.44669 6.28821H10.6017C10.9523 6.28821 11.2366 6.00395 11.2366 5.65334C11.2366 5.30274 10.9523 5.01847 10.6017 5.01847H2.4656L3.92195 3.56212C4.16747 3.31381 4.16623 2.91392 3.91916 2.66685C3.67241 2.4201 3.27251 2.41886 3.02421 2.66437L0.474503 5.21377C0.226817 5.46177 0.226817 5.86383 0.474503 6.11151L3.02421 8.66091C3.18417 8.82304 3.41883 8.8869 3.63893 8.82831C3.85902 8.77003 4.03076 8.59798 4.08935 8.37788C4.14794 8.15779 4.08408 7.92343 3.92195 7.76317L2.44669 6.28821Z" fill="#055EFF"/>
</svg>
