<svg width="86" height="26" viewBox="0 0 86 26" fill="none" xmlns="http://www.w3.org/2000/svg">
<path d="M6.304 25L0.32 7.688H3.36L7.584 21.16L11.584 7.688H14.656L18.528 21.16L22.784 7.688H25.888L19.84 25H17.024L13.12 11.784L9.12 25H7.584H6.304ZM30.7628 25H28.0108V7.688H30.7628V25ZM27.8188 1.96C27.8188 1.512 27.9681 1.13866 28.2668 0.839998C28.5868 0.519999 28.9601 0.359999 29.3868 0.359999C29.8348 0.359999 30.2081 0.519999 30.5068 0.839998C30.8268 1.13866 30.9868 1.512 30.9868 1.96C30.9868 2.38667 30.8268 2.76 30.5068 3.08C30.2081 3.37867 29.8348 3.528 29.3868 3.528C28.9601 3.528 28.5868 3.37867 28.2668 3.08C27.9681 2.76 27.8188 2.38667 27.8188 1.96ZM57.7515 25H54.0395H53.4955H50.5515H48.4075C47.9382 25 47.5328 24.8613 47.1915 24.584C46.8715 24.3067 46.7115 23.8907 46.7115 23.336C46.7115 22.9947 46.7755 22.6107 46.9035 22.184C47.0528 21.7573 47.3088 21.288 47.6715 20.776L54.8715 10.216H47.7995L46.7115 7.688H50.4555H51.2555H54.1995H55.4475C56.0662 7.688 56.5568 7.83733 56.9195 8.136C57.3035 8.41333 57.4955 8.82933 57.4955 9.384C57.4955 9.68267 57.4315 10.024 57.3035 10.408C57.1968 10.7707 56.9942 11.176 56.6955 11.624L49.5275 22.568H57.0155L57.7515 25ZM62.6213 17.032V17.896C62.6213 18.6427 62.6426 19.3253 62.6853 19.944C62.7279 20.5627 62.8559 21.1067 63.0693 21.576C63.3039 22.0453 63.6666 22.408 64.1573 22.664C64.6479 22.92 65.3519 23.048 66.2693 23.048C67.6559 23.048 68.6053 22.7707 69.1173 22.216C69.6293 21.64 69.8853 20.84 69.8853 19.816C70.0133 19.816 70.1946 19.816 70.4293 19.816C70.6639 19.816 70.9093 19.816 71.1653 19.816C71.4213 19.7947 71.6773 19.784 71.9333 19.784C72.1893 19.784 72.4133 19.784 72.6053 19.784C72.6053 20.616 72.5093 21.3733 72.3173 22.056C72.1253 22.7173 71.7839 23.2933 71.2933 23.784C70.8239 24.2533 70.1733 24.6267 69.3413 24.904C68.5306 25.16 67.5066 25.288 66.2693 25.288C64.8186 25.288 63.6666 25.1067 62.8133 24.744C61.9813 24.36 61.3519 23.848 60.9253 23.208C60.4986 22.5467 60.2213 21.768 60.0933 20.872C59.9653 19.976 59.9013 18.9947 59.9013 17.928V14.792C59.9013 13.7253 59.9546 12.744 60.0613 11.848C60.1893 10.9307 60.4666 10.1413 60.8932 9.48C61.3413 8.81867 61.9813 8.30667 62.8133 7.944C63.6666 7.56 64.8186 7.368 66.2693 7.368C67.6133 7.368 68.7013 7.54933 69.5333 7.912C70.3653 8.27467 71.0053 8.78667 71.4533 9.448C71.9226 10.088 72.2319 10.8773 72.3813 11.816C72.5519 12.7333 72.6373 13.7573 72.6373 14.888V17.032H62.6213ZM66.2693 9.608C65.3519 9.608 64.6479 9.74667 64.1573 10.024C63.6666 10.28 63.3039 10.632 63.0693 11.08C62.8559 11.528 62.7279 12.0507 62.6853 12.648C62.6426 13.2453 62.6213 13.8853 62.6213 14.568V14.888H69.9173C69.9173 13.992 69.8746 13.2133 69.7893 12.552C69.7253 11.8907 69.5653 11.3467 69.3093 10.92C69.0746 10.472 68.7119 10.1413 68.2213 9.928C67.7519 9.71467 67.1013 9.608 66.2693 9.608ZM75.094 13.48C75.094 12.3707 75.19 11.4533 75.382 10.728C75.574 9.98133 75.9367 9.384 76.47 8.936C77.0033 8.488 77.718 8.168 78.614 7.976C79.5313 7.784 80.7153 7.688 82.166 7.688H85.238L84.086 9.96H82.358C81.4407 9.96 80.6833 10.0133 80.086 10.12C79.51 10.2053 79.0513 10.376 78.71 10.632C78.3687 10.888 78.134 11.2507 78.006 11.72C77.878 12.168 77.814 12.7547 77.814 13.48V25H75.094V13.48Z" fill="#055EFF"/>
<path d="M44.6578 25H40.9458H40.4018H37.4578H35.3138C34.8444 25 34.4391 24.8613 34.0978 24.584C33.7778 24.3067 33.6178 23.8907 33.6178 23.336C33.6178 22.9947 33.6818 22.6107 33.8098 22.184C33.9591 21.7573 34.2151 21.288 34.5778 20.776L41.7778 10.216H34.7057L33.6178 7.688H37.3618H38.1618H41.1058H42.3538C42.9724 7.688 43.4631 7.83733 43.8258 8.136C44.2098 8.41333 44.4018 8.82933 44.4018 9.384C44.4018 9.68267 44.3378 10.024 44.2098 10.408C44.1031 10.7707 43.9004 11.176 43.6018 11.624L36.4338 22.568H43.9218L44.6578 25Z" fill="#11DE9A"/>
</svg>
