<svg width="500" height="500" viewBox="0 0 500 500" fill="none" xmlns="http://www.w3.org/2000/svg">
<path d="M469.56 276.3C469.56 276.44 373.35 276.56 254.69 276.56C136.03 276.56 39.8 276.44 39.8 276.3C39.8 276.16 136 276 254.69 276C373.38 276 469.56 276.15 469.56 276.3Z" fill="#E0E0E0"/>
<path d="M170.31 240C165.73 238.72 161.459 236.521 157.756 233.539C154.052 230.556 150.995 226.851 148.768 222.649C146.542 218.447 145.194 213.836 144.805 209.096C144.417 204.357 144.997 199.588 146.51 195.08C148.86 188.08 153.4 181.89 155.34 174.75C157.55 166.65 156.23 158.06 154.87 149.75C153.51 141.44 152.12 132.9 154.19 124.75C156.26 116.6 162.77 108.97 171.19 108.39C178.95 107.86 186.13 113.61 189.37 120.69C192.61 127.77 192.64 135.89 191.88 143.69C191.12 151.49 189.65 159.18 190.11 166.96C191.05 182.69 199.86 197.51 198.83 213.24C198.29 221.43 195.12 226.67 189.69 232.83C185.01 238.14 177.24 241.64 170.35 240.01" fill="#F0F0F0"/>
<path d="M171.8 279.13C171.68 279.13 171.58 250.73 171.58 215.71C171.58 180.69 171.68 152.27 171.8 152.27C171.92 152.27 172.01 180.67 172.01 215.71C172.01 250.75 171.91 279.13 171.8 279.13Z" fill="#E0E0E0"/>
<path d="M185.89 202.57C185.96 202.66 182.89 205.19 179.02 208.2C175.15 211.21 171.96 213.6 171.89 213.5C171.82 213.4 174.89 210.89 178.76 207.87C182.63 204.85 185.82 202.48 185.89 202.57Z" fill="#E0E0E0"/>
<path d="M171.81 200.74C170.289 199.95 168.837 199.034 167.47 198C166.03 197.079 164.663 196.05 163.38 194.92C164.902 195.704 166.354 196.617 167.72 197.65C169.167 198.565 170.535 199.598 171.81 200.74V200.74Z" fill="#E0E0E0"/>
<path d="M85.06 155.7L67.93 190.25L73.04 190.44L58.53 217.9H66.15L54.26 242.3H120.73L106.1 217.9L113.11 217.6L99.08 190.15L104.27 189.85L85.06 155.7Z" fill="#F0F0F0"/>
<path d="M85.71 195.66C85.85 195.66 85.71 213.6 85.49 235.72C85.27 257.84 84.89 275.78 84.75 275.78C84.61 275.78 84.75 257.84 84.97 235.71C85.19 213.58 85.56 195.65 85.71 195.66Z" fill="#E0E0E0"/>
<path d="M95.59 206C94.0846 207.583 92.4562 209.044 90.72 210.37C89.0952 211.839 87.3564 213.176 85.52 214.37C87.027 212.789 88.6553 211.328 90.39 210C92.0161 208.533 93.7547 207.195 95.59 206V206Z" fill="#E0E0E0"/>
<path d="M67.1301 89H115.88C115.88 89 115.88 77.84 110.12 77.84C108.058 77.7735 106.037 78.4281 104.405 79.6912C102.773 80.9543 101.633 82.7468 101.18 84.76C101.18 84.76 101.18 64 90.7001 67C80.7901 69.9 79.7001 83.23 79.7001 83.23C79.7001 83.23 77.9101 76.52 72.5401 80.3C67.1701 84.08 67.1301 89 67.1301 89Z" fill="#F0F0F0"/>
<path d="M481.88 439.52C481.88 439.66 381.03 439.78 256.66 439.78C132.29 439.78 31.4099 439.66 31.4099 439.52C31.4099 439.38 132.24 439.26 256.66 439.26C381.08 439.26 481.88 439.37 481.88 439.52Z" fill="#263238"/>
<path d="M223.37 140.8V324.4H429.86V140.8H407.52L362.3 84.13L324.16 140.25L223.37 140.8Z" fill="#055EFF"/>
<g opacity="0.5">
<path opacity="0.5" d="M223.37 140.8V324.4H429.86V140.8H407.52L362.3 84.13L324.16 140.25L223.37 140.8Z" fill="white"/>
</g>
<path d="M264.19 73.31C263.19 74.67 204.88 143.46 204.88 143.46H322.82L362.3 84.13L407.52 140.8L448.88 140.75L398.39 71.62L264.19 73.31Z" fill="#263238"/>
<path d="M303.37 316.79H254.44V324.41H303.37V316.79Z" fill="#E6E6E6"/>
<path d="M308.46 328.19H243.17V334.1H308.46V328.19Z" fill="#E6E6E6"/>
<path d="M257.69 242.97L258.09 316.38H300.12V242.97H257.69Z" fill="#055EFF"/>
<g opacity="0.2">
<path opacity="0.2" d="M257.69 242.97L258.09 316.38H300.12V242.97H257.69Z" fill="black"/>
</g>
<g opacity="0.4">
<path opacity="0.4" d="M290.7 281.53C291.722 281.53 292.55 280.702 292.55 279.68C292.55 278.658 291.722 277.83 290.7 277.83C289.678 277.83 288.85 278.658 288.85 279.68C288.85 280.702 289.678 281.53 290.7 281.53Z" fill="black"/>
</g>
<path d="M279.05 217.76L240.29 249.71V258.55L279.39 226.79L315.2 256.14V246.91L279.05 217.76Z" fill="#263238"/>
<path d="M300.06 63.8199H291V76.3699H300.06V63.8199Z" fill="#055EFF"/>
<path d="M315.73 57.21H306.18V76.37H315.73V57.21Z" fill="#055EFF"/>
<g opacity="0.4">
<path opacity="0.4" d="M300.06 63.8199H291V76.3699H300.06V63.8199Z" fill="black"/>
<path opacity="0.4" d="M315.73 57.21H306.18V76.37H315.73V57.21Z" fill="black"/>
</g>
<path d="M369.08 113.64H358.4V124.32H369.08V113.64Z" fill="white"/>
<g opacity="0.1">
<path opacity="0.1" d="M322.82 143.46H328.51L365.87 88.61L362.3 84.13L322.82 143.46Z" fill="black"/>
</g>
<g opacity="0.1">
<path opacity="0.1" d="M223.37 143.46V149.39L322.82 143.46H223.37Z" fill="black"/>
</g>
<g opacity="0.1">
<path opacity="0.1" d="M407.52 140.8L429.86 148.21V140.8H407.52Z" fill="black"/>
</g>
<path d="M306.18 321.48H249.31V328.87H306.18V321.48Z" fill="#E6E6E6"/>
<path d="M304.69 321.58C304.69 321.72 292.39 321.84 277.22 321.84C262.05 321.84 249.76 321.72 249.76 321.58C249.76 321.44 262.05 321.32 277.22 321.32C292.39 321.32 304.69 321.43 304.69 321.58Z" fill="#E0E0E0"/>
<path d="M304.69 328.19C304.69 328.33 292.39 328.45 277.22 328.45C262.05 328.45 249.76 328.33 249.76 328.19C249.76 328.05 262.05 327.93 277.22 327.93C292.39 327.93 304.69 328 304.69 328.19Z" fill="#E0E0E0"/>
<path d="M301.83 153.63H254.44V198.65H301.83V153.63Z" fill="white"/>
<path d="M275.88 153.63C275.88 153.63 262.44 176.54 255.08 176.74C255.08 176.74 261.9 180.22 262.42 198.65H254.42V153.65L275.88 153.63Z" fill="#055EFF"/>
<path d="M280.39 153.63C280.39 153.63 293.82 176.54 301.19 176.74C301.19 176.74 294.36 180.22 293.85 198.65H301.85V153.65L280.39 153.63Z" fill="#055EFF"/>
<path d="M278.5 153.23H277V201.25H278.5V153.23Z" fill="#263238"/>
<path d="M253.74 176.49V177.99H301.76V176.49H253.74Z" fill="#263238"/>
<path d="M304.21 198.65H251.28V199.77H304.21V198.65Z" fill="#263238"/>
<path d="M400.77 153.63H353.38V198.65H400.77V153.63Z" fill="white"/>
<path d="M374.82 153.63C374.82 153.63 361.39 176.54 354.02 176.74C354.02 176.74 360.85 180.22 361.36 198.65H353.36V153.65L374.82 153.63Z" fill="#055EFF"/>
<path d="M379.33 153.63C379.33 153.63 392.76 176.54 400.13 176.74C400.13 176.74 393.31 180.22 392.79 198.65H400.79V153.65L379.33 153.63Z" fill="#055EFF"/>
<path d="M377.44 153.23H375.94V201.25H377.44V153.23Z" fill="#263238"/>
<path d="M352.68 176.49V177.99H400.7V176.49H352.68Z" fill="#263238"/>
<path d="M403.16 198.65H350.23V199.77H403.16V198.65Z" fill="#263238"/>
<path d="M400.77 248.7H353.38V293.72H400.77V248.7Z" fill="white"/>
<path d="M374.82 248.7C374.82 248.7 361.39 271.62 354.02 271.82C354.02 271.82 360.85 275.3 361.36 293.72H353.36V248.72L374.82 248.7Z" fill="#055EFF"/>
<path d="M379.33 248.7C379.33 248.7 392.76 271.62 400.13 271.82C400.13 271.82 393.31 275.3 392.79 293.72H400.79V248.72L379.33 248.7Z" fill="#055EFF"/>
<path d="M377.44 248.3H375.94V296.32H377.44V248.3Z" fill="#263238"/>
<path d="M352.68 271.57V273.07H400.7V271.57H352.68Z" fill="#263238"/>
<path d="M403.16 293.72H350.23V294.84H403.16V293.72Z" fill="#263238"/>
<path d="M228.17 288.48V438.8H241.07V298.58H339.22V288.48H228.17Z" fill="#455A64"/>
<path d="M241.07 298.58H236.9V438.8H241.07V298.58Z" fill="#263238"/>
<path d="M339.22 288.48H331.37V298.58H339.22V288.48Z" fill="#263238"/>
<path d="M341.53 305.94H246.83V365.66H341.53V305.94Z" fill="#055EFF"/>
<path d="M341.53 305.94H246.83V365.66H341.53V305.94Z" fill="#055EFF"/>
<path d="M341.54 305.94H336.31V365.66H341.54V305.94Z" fill="#055EFF"/>
<g opacity="0.2">
<path opacity="0.2" d="M341.54 305.94H336.31V365.66H341.54V305.94Z" fill="black"/>
</g>
<path d="M331.37 360.51C331.37 360.51 331.37 360.19 331.37 359.6C331.37 359.01 331.37 358.12 331.37 356.99C331.37 354.69 331.37 351.34 331.32 347.05C331.32 338.46 331.26 326.12 331.21 311.05L331.42 311.25L252.42 311.31L252.68 311.05C252.68 328.59 252.68 345.31 252.68 360.53L252.44 360.29L309.24 360.4L325.53 360.47H329.88H331H331.39H329.93H325.63L309.38 360.54L252.38 360.66H252.14V360.42C252.14 345.2 252.14 328.48 252.14 310.94V310.67H252.41L331.41 310.73H331.61V311C331.61 326.14 331.53 338.53 331.51 347.15C331.51 351.42 331.51 354.75 331.45 357.04V359.61C331.38 360.22 331.37 360.51 331.37 360.51Z" fill="#263238"/>
<path d="M265.12 298.58H262.31V305.94H265.12V298.58Z" fill="#055EFF"/>
<path d="M311.37 298.58H308.56V305.94H311.37V298.58Z" fill="#055EFF"/>
<path d="M278.12 323.35V326.49H284.41V329.61H278.12V334.49H274.12V320.23H285.3V323.35H278.12Z" fill="#055EFF"/>
<path d="M286.31 327.36C286.31 323.09 289.67 319.95 294.23 319.95C298.79 319.95 302.16 323.09 302.16 327.36C302.16 331.63 298.8 334.78 294.23 334.78C289.66 334.78 286.31 331.64 286.31 327.36ZM298.08 327.36C298.037 326.607 297.774 325.883 297.324 325.278C296.874 324.672 296.257 324.212 295.549 323.954C294.84 323.695 294.071 323.65 293.337 323.824C292.603 323.997 291.936 324.382 291.419 324.931C290.901 325.479 290.555 326.168 290.425 326.91C290.294 327.653 290.383 328.418 290.682 329.11C290.981 329.803 291.477 330.392 292.107 330.806C292.738 331.22 293.476 331.441 294.23 331.44C294.757 331.445 295.279 331.342 295.764 331.135C296.248 330.929 296.685 330.625 297.047 330.242C297.409 329.859 297.687 329.405 297.865 328.909C298.042 328.413 298.116 327.886 298.08 327.36V327.36Z" fill="#055EFF"/>
<path d="M310.51 330.7H308.31V334.49H304.31V320.23H310.83C314.72 320.23 317.16 322.23 317.16 325.51C317.198 326.453 316.953 327.386 316.455 328.188C315.958 328.99 315.231 329.625 314.37 330.01L317.45 334.49H313.1L310.51 330.7ZM310.51 323.41H308.27V327.59H310.51C312.18 327.59 313.02 326.81 313.02 325.51C313.02 324.21 312.22 323.41 310.55 323.41H310.51Z" fill="#055EFF"/>
<path d="M266.78 353.48L268.17 350.36C269.644 351.301 271.352 351.81 273.1 351.83C274.85 351.83 275.54 351.34 275.54 350.62C275.54 348.25 267.03 349.98 267.03 344.42C267.03 341.75 269.21 339.57 273.66 339.57C275.549 339.539 277.414 339.99 279.08 340.88L277.78 344.02C276.514 343.297 275.088 342.898 273.63 342.86C271.86 342.86 271.22 343.46 271.22 344.21C271.22 346.49 279.7 344.79 279.7 350.3C279.7 352.9 277.52 355.12 273.08 355.12C270.868 355.175 268.684 354.607 266.78 353.48V353.48Z" fill="#055EFF"/>
<path d="M291.67 351.92H285.34L284.17 354.83H279.85L286.45 339.83H290.62L297.24 354.83H292.84L291.67 351.92ZM290.43 348.8L288.5 344L286.58 348.78L290.43 348.8Z" fill="#055EFF"/>
<path d="M298.44 339.87H302.67V351.47H309.81V354.83H298.44V339.87Z" fill="#055EFF"/>
<path d="M323.48 351.56V354.83H311.48V339.83H323.2V343.1H315.66V345.62H322.3V348.78H315.66V351.52L323.48 351.56Z" fill="#055EFF"/>
<path d="M329.51 315.12C329.46 315.12 329.45 314.93 329.34 314.63C329.195 314.224 328.925 313.874 328.57 313.63C328.315 313.448 328.019 313.332 327.708 313.294C327.397 313.256 327.082 313.295 326.79 313.41C326.44 313.544 326.138 313.781 325.926 314.09C325.713 314.399 325.6 314.765 325.6 315.14C325.602 315.514 325.717 315.879 325.929 316.188C326.141 316.496 326.441 316.734 326.79 316.87C327.082 316.979 327.397 317.016 327.707 316.978C328.017 316.94 328.313 316.827 328.57 316.65C328.923 316.403 329.191 316.054 329.34 315.65C329.45 315.35 329.46 315.17 329.51 315.17C329.56 315.17 329.59 315.35 329.51 315.7C329.425 316.201 329.158 316.654 328.76 316.97C328.462 317.211 328.107 317.373 327.729 317.44C327.351 317.506 326.963 317.475 326.6 317.35C326.149 317.189 325.759 316.893 325.484 316.502C325.208 316.11 325.06 315.644 325.06 315.165C325.06 314.686 325.208 314.22 325.484 313.828C325.759 313.437 326.149 313.141 326.6 312.98C326.963 312.855 327.351 312.824 327.729 312.89C328.107 312.957 328.462 313.118 328.76 313.36C329.158 313.676 329.425 314.129 329.51 314.63C329.59 314.93 329.53 315.12 329.51 315.12Z" fill="#263238"/>
<path d="M328.56 313.87C328.66 313.97 328.29 314.53 327.72 315.13C327.15 315.73 326.62 316.13 326.51 316.04C326.4 315.95 326.78 315.38 327.35 314.78C327.92 314.18 328.45 313.77 328.56 313.87Z" fill="#263238"/>
<path d="M328.78 315.9C328.78 316.03 328.01 315.9 327.32 315.28C326.63 314.66 326.32 314.05 326.43 313.97C326.54 313.89 327.02 314.36 327.65 314.88C328.28 315.4 328.84 315.76 328.78 315.9Z" fill="#263238"/>
<path d="M328.74 357.28C328.74 357.28 328.68 357.09 328.58 356.79C328.431 356.386 328.163 356.037 327.81 355.79C327.555 355.609 327.258 355.494 326.948 355.455C326.637 355.417 326.322 355.456 326.03 355.57C325.68 355.704 325.378 355.941 325.166 356.25C324.953 356.559 324.84 356.925 324.84 357.3C324.846 357.666 324.959 358.022 325.165 358.324C325.371 358.626 325.662 358.861 326 359C326.292 359.109 326.607 359.146 326.917 359.108C327.227 359.07 327.523 358.957 327.78 358.78C328.13 358.53 328.397 358.182 328.55 357.78C328.65 357.48 328.67 357.3 328.71 357.3C328.75 357.3 328.8 357.48 328.71 357.83C328.625 358.329 328.362 358.78 327.97 359.1C327.671 359.341 327.317 359.502 326.939 359.568C326.561 359.635 326.173 359.604 325.81 359.48C325.355 359.324 324.959 359.029 324.68 358.638C324.4 358.246 324.25 357.776 324.25 357.295C324.25 356.814 324.4 356.344 324.68 355.953C324.959 355.561 325.355 355.266 325.81 355.11C326.173 354.986 326.561 354.955 326.939 355.022C327.317 355.088 327.671 355.249 327.97 355.49C328.362 355.81 328.625 356.261 328.71 356.76C328.83 357.09 328.77 357.28 328.74 357.28Z" fill="#263238"/>
<path d="M327.79 356C327.9 356.1 327.53 356.66 326.96 357.26C326.39 357.86 325.86 358.26 325.75 358.17C325.64 358.08 326.02 357.51 326.58 356.91C327.14 356.31 327.69 355.93 327.79 356Z" fill="#263238"/>
<path d="M328 358.06C328 358.19 327.23 358.01 326.54 357.44C325.85 356.87 325.54 356.21 325.65 356.13C325.76 356.05 326.24 356.52 326.87 357.04C327.5 357.56 328.08 357.92 328 358.06Z" fill="#263238"/>
<path d="M258.71 356.26C258.71 356.26 258.65 356.08 258.54 355.78C258.391 355.376 258.123 355.027 257.77 354.78C257.513 354.603 257.217 354.49 256.907 354.452C256.597 354.414 256.282 354.451 255.99 354.56C255.642 354.697 255.343 354.935 255.131 355.243C254.919 355.552 254.804 355.916 254.8 356.29C254.806 356.663 254.923 357.025 255.137 357.329C255.351 357.634 255.652 357.868 256 358C256.291 358.115 256.607 358.154 256.918 358.116C257.229 358.078 257.525 357.962 257.78 357.78C258.135 357.536 258.405 357.186 258.55 356.78C258.66 356.48 258.67 356.29 258.72 356.29C258.77 356.29 258.8 356.48 258.72 356.83C258.635 357.331 258.368 357.784 257.97 358.1C257.672 358.342 257.317 358.503 256.939 358.57C256.561 358.636 256.173 358.605 255.81 358.48C255.359 358.319 254.969 358.023 254.694 357.632C254.418 357.241 254.27 356.774 254.27 356.295C254.27 355.817 254.418 355.35 254.694 354.958C254.969 354.567 255.359 354.271 255.81 354.11C256.173 353.985 256.561 353.954 256.939 354.021C257.317 354.087 257.672 354.249 257.97 354.49C258.368 354.806 258.635 355.259 258.72 355.76C258.79 356.08 258.73 356.27 258.71 356.26Z" fill="#263238"/>
<path d="M257.76 355C257.86 355.09 257.49 355.66 256.93 356.26C256.37 356.86 255.82 357.26 255.71 357.17C255.6 357.08 255.98 356.5 256.55 355.9C257.12 355.3 257.65 354.92 257.76 355Z" fill="#263238"/>
<path d="M258 357.05C257.95 357.18 257.23 356.99 256.54 356.43C255.85 355.87 255.54 355.19 255.65 355.12C255.76 355.05 256.24 355.51 256.87 356.02C257.5 356.53 258 356.91 258 357.05Z" fill="#263238"/>
<path d="M259.08 315.94C259.03 315.94 259.02 315.76 258.91 315.46C258.761 315.056 258.493 314.707 258.14 314.46C257.883 314.283 257.587 314.17 257.277 314.132C256.967 314.094 256.653 314.131 256.36 314.24C256.011 314.376 255.711 314.614 255.499 314.922C255.287 315.231 255.172 315.596 255.17 315.97C255.17 316.345 255.283 316.711 255.496 317.02C255.708 317.329 256.01 317.566 256.36 317.7C256.652 317.815 256.967 317.854 257.278 317.816C257.589 317.778 257.885 317.662 258.14 317.48C258.495 317.236 258.765 316.886 258.91 316.48C259.02 316.18 259.03 315.99 259.08 315.99C259.13 315.99 259.16 316.18 259.08 316.53C258.995 317.031 258.728 317.484 258.33 317.8C258.032 318.042 257.677 318.203 257.299 318.27C256.921 318.336 256.533 318.305 256.17 318.18C255.719 318.019 255.329 317.723 255.054 317.332C254.778 316.94 254.63 316.474 254.63 315.995C254.63 315.516 254.778 315.05 255.054 314.658C255.329 314.267 255.719 313.971 256.17 313.81C256.533 313.685 256.921 313.654 257.299 313.72C257.677 313.787 258.032 313.949 258.33 314.19C258.728 314.506 258.995 314.959 259.08 315.46C259.16 315.76 259.1 315.94 259.08 315.94Z" fill="#263238"/>
<path d="M258.13 314.7C258.23 314.79 257.86 315.36 257.29 315.96C256.72 316.56 256.19 316.96 256.08 316.87C255.97 316.78 256.35 316.2 256.92 315.6C257.49 315 258 314.6 258.13 314.7Z" fill="#263238"/>
<path d="M258.35 316.73C258.3 316.86 257.58 316.67 256.89 316.11C256.2 315.55 255.89 314.87 256 314.8C256.11 314.73 256.59 315.19 257.22 315.7C257.85 316.21 258.41 316.59 258.35 316.73Z" fill="#263238"/>
<path d="M377.47 416.66C371.47 413.43 369.06 408.87 367.64 402.2C366.957 398.852 366.999 395.396 367.763 392.065C368.527 388.734 369.996 385.606 372.07 382.89C375.56 378.4 380.68 375.12 383.07 369.97C385.61 364.47 384.69 357.48 388.56 352.83C391.22 349.63 395.5 348.36 398.91 345.97C401.68 343.97 403.84 341.33 406.32 338.97C408.8 336.61 411.83 334.61 415.22 334.47C420.34 334.27 424.86 338.8 425.69 343.85C426.52 348.9 424.24 354.09 420.74 357.85C418.21 360.56 414.95 362.79 413.48 366.2C410.71 372.61 415.29 380.53 412.25 386.81C410.03 391.4 404.11 394.15 403.84 399.24C403.73 401.11 404.47 402.92 404.67 404.78C405.3 410.61 400.4 415.93 394.79 417.62C389.18 419.31 383.12 418.19 377.47 416.62" fill="#11DE9A"/>
<path d="M406.59 356.24C406.443 356.51 406.265 356.761 406.06 356.99L404.43 359.06C403.71 359.94 402.84 361.06 401.91 362.36C400.98 363.66 399.83 365.13 398.76 366.86C398.2 367.71 397.61 368.6 397.01 369.53C396.41 370.46 395.85 371.53 395.23 372.53C393.98 374.53 392.84 376.86 391.59 379.24C386.355 389.699 382.782 400.91 381 412.47C380.64 415.14 380.25 417.67 380.1 420.06C380.01 421.25 379.88 422.4 379.83 423.51C379.78 424.62 379.76 425.69 379.72 426.71C379.6 428.71 379.72 430.59 379.72 432.2C379.72 433.81 379.79 435.2 379.88 436.35C379.97 437.5 379.98 438.35 380.02 438.98C380.046 439.286 380.046 439.594 380.02 439.9C379.94 439.603 379.893 439.298 379.88 438.99C379.81 438.32 379.72 437.45 379.61 436.37C379.5 435.29 379.36 433.84 379.33 432.22C379.3 430.6 379.16 428.74 379.24 426.7C379.24 425.7 379.29 424.6 379.31 423.49C379.33 422.38 379.46 421.21 379.54 420.01C379.67 417.61 380.04 415.06 380.38 412.37C382.102 400.726 385.688 389.434 391 378.93C392.27 376.54 393.44 374.25 394.72 372.21C395.35 371.21 395.92 370.21 396.54 369.21L398.34 366.55C399.45 364.83 400.62 363.39 401.59 362.09C402.56 360.79 403.45 359.71 404.21 358.85L405.94 356.85C406.133 356.623 406.351 356.418 406.59 356.24V356.24Z" fill="#263238"/>
<path d="M351.18 394.79C352.38 394.889 353.548 395.227 354.614 395.786C355.681 396.344 356.625 397.111 357.39 398.04C358.909 399.916 359.977 402.116 360.51 404.47C361.67 408.97 360.89 414.26 359.57 418.71C354.72 416.94 351.77 411.71 350.44 408.99C348.33 404.66 347.16 395.57 351.18 394.79Z" fill="#11DE9A"/>
<path d="M366.52 424.22C365.797 423.084 365.389 421.775 365.338 420.429C365.287 419.083 365.595 417.748 366.23 416.56C366.877 415.381 367.754 414.344 368.809 413.51C369.863 412.675 371.074 412.06 372.37 411.7C372.949 411.471 373.57 411.37 374.192 411.405C374.813 411.439 375.42 411.608 375.97 411.9C376.434 412.259 376.793 412.736 377.01 413.282C377.226 413.827 377.292 414.421 377.2 415C377.009 416.152 376.515 417.232 375.77 418.13C373.38 421.31 370.48 423.95 366.52 424.25" fill="#11DE9A"/>
<g opacity="0.2">
<path opacity="0.2" d="M351.18 394.79C352.38 394.889 353.548 395.227 354.614 395.786C355.681 396.344 356.625 397.111 357.39 398.04C358.909 399.916 359.977 402.116 360.51 404.47C361.67 408.97 360.89 414.26 359.57 418.71C354.72 416.94 351.77 411.71 350.44 408.99C348.33 404.66 347.16 395.57 351.18 394.79Z" fill="black"/>
</g>
<g opacity="0.2">
<path opacity="0.2" d="M366.52 424.22C365.797 423.084 365.389 421.775 365.338 420.429C365.287 419.083 365.595 417.748 366.23 416.56C366.877 415.381 367.754 414.344 368.809 413.51C369.863 412.675 371.074 412.06 372.37 411.7C372.949 411.471 373.57 411.37 374.192 411.405C374.813 411.439 375.42 411.608 375.97 411.9C376.434 412.259 376.793 412.736 377.01 413.282C377.226 413.827 377.292 414.421 377.2 415C377.009 416.152 376.515 417.232 375.77 418.13C373.38 421.31 370.48 423.95 366.52 424.25" fill="black"/>
</g>
<g opacity="0.2">
<path opacity="0.2" d="M361.47 428.63C359.87 426.288 357.734 424.36 355.24 423.007C352.747 421.654 349.966 420.915 347.13 420.85C345.69 420.85 343.98 421.17 343.41 422.5C342.84 423.83 343.79 425.3 344.83 426.3C347.039 428.35 349.806 429.7 352.781 430.181C355.757 430.661 358.808 430.25 361.55 429" fill="black"/>
</g>
<path d="M361.47 428.63C359.87 426.288 357.734 424.36 355.24 423.007C352.747 421.654 349.966 420.915 347.13 420.85C345.69 420.85 343.98 421.17 343.41 422.5C342.84 423.83 343.79 425.3 344.83 426.3C347.039 428.35 349.806 429.7 352.781 430.181C355.757 430.661 358.808 430.25 361.55 429" fill="#11DE9A"/>
<path d="M366.56 439.65C366.433 439.351 366.352 439.034 366.32 438.71C366.2 438.09 366.04 437.2 365.88 436.09C365.413 433.187 365.339 430.233 365.66 427.31C366.013 424.353 367.168 421.549 369 419.2C369.554 418.497 370.196 417.869 370.91 417.33C371.16 417.117 371.439 416.942 371.74 416.81C370.855 417.614 370.036 418.486 369.29 419.42C367.609 421.786 366.553 424.537 366.22 427.42C365.918 430.3 365.945 433.206 366.3 436.08C366.454 437.264 366.541 438.456 366.56 439.65V439.65Z" fill="#263238"/>
<path d="M352.69 401.64C352.962 402.102 353.199 402.583 353.4 403.08C353.84 404.02 354.4 405.4 355.16 407.08C356.61 410.49 358.54 415.23 360.54 420.51C362.54 425.79 364.23 430.63 365.39 434.15C365.98 435.9 366.39 437.33 366.73 438.32C366.91 438.829 367.05 439.35 367.15 439.88C366.902 439.403 366.698 438.904 366.54 438.39C366.16 437.33 365.65 435.94 365.04 434.27C363.79 430.78 362.04 425.98 360.04 420.7C358.04 415.42 356.17 410.7 354.81 407.22L353.21 403.14C352.994 402.656 352.82 402.154 352.69 401.64V401.64Z" fill="#263238"/>
<path d="M349.61 424.38C349.918 424.336 350.231 424.336 350.54 424.38C350.906 424.396 351.27 424.439 351.63 424.51C352.112 424.582 352.59 424.682 353.06 424.81C354.286 425.124 355.478 425.556 356.62 426.1C358.012 426.791 359.326 427.629 360.54 428.6C361.74 429.587 362.826 430.704 363.78 431.93C364.557 432.93 365.228 434.01 365.78 435.15C366.001 435.581 366.194 436.025 366.36 436.48C366.501 436.805 366.622 437.139 366.72 437.48C366.833 437.775 366.901 438.085 366.92 438.4C366.83 438.4 366.46 437.15 365.46 435.28C364.883 434.192 364.214 433.155 363.46 432.18C362.499 431.007 361.427 429.928 360.26 428.96C359.074 428.019 357.802 427.192 356.46 426.49C355.351 425.937 354.197 425.478 353.01 425.12C350.92 424.58 349.6 424.48 349.61 424.38Z" fill="#263238"/>
<path d="M123 436.44L122.75 438.65C122.75 438.65 116.92 452.33 118 453.36C118.735 454.052 119.662 454.506 120.66 454.662C121.658 454.817 122.679 454.666 123.59 454.23C126.17 453.16 135.89 440.74 135.89 440.74L136.28 438.92L123 436.44Z" fill="#353D40"/>
<path d="M118.39 450.48C118.39 450.48 121.49 448.48 124.08 452.48C124.08 452.48 125.44 451.72 128.91 447.74C132.38 443.76 135.72 439.89 135.72 439.89C135.72 439.89 136.08 439.5 136.01 439.89C135.94 440.28 135.86 440.84 135.86 440.84L129.22 448.84C129.22 448.84 125.22 453.53 124.12 454.03C122.987 454.725 121.63 454.958 120.33 454.68C119.334 454.483 118.445 453.928 117.83 453.12C117.8 452.89 118.39 450.48 118.39 450.48Z" fill="#F0F0F0"/>
<path d="M124.75 453.82C124.221 452.62 123.333 451.613 122.208 450.938C121.084 450.263 119.778 449.953 118.47 450.05C118.843 449.909 119.243 449.855 119.64 449.89C120.604 449.906 121.546 450.179 122.37 450.68C123.198 451.164 123.886 451.852 124.37 452.68C124.591 453.022 124.722 453.414 124.75 453.82V453.82Z" fill="#263238"/>
<path d="M136.28 439.25C136.097 439.523 135.896 439.783 135.68 440.03L134 442.09L128.21 448.8C127.183 450.074 126.048 451.258 124.82 452.34C123.78 453.227 122.483 453.757 121.12 453.85C120.194 453.881 119.287 453.584 118.56 453.01C118.293 452.807 118.075 452.547 117.92 452.25C118.144 452.487 118.384 452.708 118.64 452.91C119.357 453.425 120.228 453.68 121.11 453.63C122.417 453.508 123.653 452.976 124.64 452.11C125.847 451.032 126.964 449.859 127.98 448.6L133.83 441.94L135.63 439.94C135.825 439.69 136.042 439.459 136.28 439.25V439.25Z" fill="#263238"/>
<path d="M124.92 446.43C124.367 446.294 123.835 446.082 123.34 445.8C122.806 445.605 122.297 445.35 121.82 445.04C122.399 445.066 122.964 445.227 123.47 445.51C124.017 445.703 124.513 446.017 124.92 446.43V446.43Z" fill="#263238"/>
<path d="M126.29 444.37C125.652 444.304 125.025 444.163 124.42 443.95C123.789 443.84 123.174 443.652 122.59 443.39C123.887 443.411 125.159 443.755 126.29 444.39V444.37Z" fill="#263238"/>
<path d="M127.58 442.59C127.52 442.66 126.73 442.18 125.64 441.85C124.55 441.52 123.64 441.45 123.64 441.36C124.356 441.264 125.084 441.324 125.775 441.536C126.465 441.749 127.102 442.108 127.64 442.59H127.58Z" fill="#263238"/>
<path d="M128.18 440.61C128.13 440.69 127.41 440.33 126.46 440.08C125.87 439.975 125.286 439.838 124.71 439.67C125.322 439.582 125.945 439.619 126.542 439.781C127.139 439.943 127.696 440.225 128.18 440.61V440.61Z" fill="#455A64"/>
<path d="M127.52 438.93C127.133 438.853 126.768 438.692 126.45 438.46C126.093 438.243 125.758 437.992 125.45 437.71C125.28 437.55 125.1 437.37 124.92 437.18C124.819 437.078 124.732 436.964 124.66 436.84C124.611 436.76 124.586 436.668 124.586 436.575C124.586 436.482 124.611 436.39 124.66 436.31C124.763 436.183 124.903 436.092 125.061 436.047C125.218 436.002 125.385 436.007 125.54 436.06C125.802 436.12 126.047 436.236 126.26 436.4C126.605 436.674 126.868 437.037 127.02 437.45C127.191 437.808 127.26 438.206 127.22 438.6C127.22 438.6 127.11 438.16 126.82 437.54C126.653 437.182 126.403 436.87 126.09 436.63C125.77 436.39 125.16 436.19 124.92 436.48C124.83 436.59 124.92 436.79 125.14 436.98C125.296 437.163 125.463 437.337 125.64 437.5C125.936 437.78 126.25 438.041 126.58 438.28C127.14 438.69 127.54 438.89 127.52 438.93Z" fill="#455A64"/>
<path d="M127.31 438.74C127.317 438.332 127.446 437.935 127.68 437.6C127.901 437.21 128.201 436.869 128.56 436.6C128.772 436.44 129.004 436.309 129.25 436.21C129.392 436.15 129.546 436.126 129.7 436.14C129.797 436.146 129.891 436.179 129.971 436.235C130.05 436.292 130.112 436.37 130.15 436.46C130.188 436.614 130.189 436.776 130.153 436.93C130.116 437.085 130.043 437.229 129.94 437.35C129.803 437.576 129.635 437.782 129.44 437.96C129.113 438.262 128.724 438.487 128.3 438.62C127.923 438.78 127.504 438.808 127.11 438.7C127.489 438.626 127.863 438.529 128.23 438.41C128.602 438.256 128.942 438.032 129.23 437.75C129.4 437.583 129.548 437.395 129.67 437.19C129.74 437.104 129.792 437.005 129.823 436.898C129.854 436.792 129.863 436.68 129.85 436.57C129.8 436.42 129.56 436.41 129.34 436.5C129.121 436.589 128.913 436.703 128.72 436.84C128.381 437.068 128.086 437.356 127.85 437.69C127.46 438.3 127.37 438.75 127.31 438.74Z" fill="#455A64"/>
<path d="M133.93 438.59C133.558 438.578 133.189 438.665 132.86 438.84C132.103 439.329 131.527 440.052 131.22 440.9C130.913 441.751 130.875 442.676 131.11 443.55C131.29 444.22 131.53 444.6 131.49 444.63C131.206 444.356 131.003 444.011 130.9 443.63C130.568 442.719 130.568 441.721 130.9 440.81C131.228 439.895 131.879 439.13 132.73 438.66C133.47 438.3 134 438.56 133.93 438.59Z" fill="#263238"/>
<path d="M130.17 444.35C129.894 444.906 129.53 445.413 129.09 445.85C128.726 446.351 128.28 446.788 127.77 447.14C128.046 446.584 128.41 446.078 128.85 445.64C129.214 445.139 129.66 444.703 130.17 444.35V444.35Z" fill="#263238"/>
<path d="M131.52 443.11C131.61 443.11 131.71 443.29 131.8 443.54C131.89 443.79 131.93 444.01 131.8 444.05C131.67 444.09 131.55 443.92 131.46 443.64C131.37 443.36 131.44 443.13 131.52 443.11Z" fill="#263238"/>
<path d="M131.66 441.13C131.74 441.13 131.73 441.39 131.66 441.65C131.59 441.91 131.53 442.12 131.44 442.11C131.35 442.1 131.29 441.87 131.35 441.59C131.41 441.31 131.58 441.1 131.66 441.13Z" fill="#263238"/>
<path d="M132.82 439.53C132.87 439.6 132.74 439.79 132.56 439.97C132.38 440.15 132.19 440.3 132.12 440.25C132.05 440.2 132.12 439.97 132.33 439.76C132.54 439.55 132.76 439.46 132.82 439.53Z" fill="#455A64"/>
<path d="M134.64 438.76C134.64 438.85 134.44 438.94 134.19 439.01C133.94 439.08 133.71 439.11 133.68 439.01C133.65 438.91 133.83 438.77 134.11 438.69C134.39 438.61 134.63 438.68 134.64 438.76Z" fill="#455A64"/>
<path d="M155.07 441.38L157.07 432.23L139.96 428.44L136.96 441.78L138.01 442.09C142.67 443.4 161.8 448.42 165.17 448.16C168.88 447.88 155.07 441.38 155.07 441.38Z" fill="#353D40"/>
<path d="M143.14 443C143.216 441.5 142.727 440.027 141.77 438.87C140.841 437.716 139.514 436.953 138.05 436.73L137 441.54L143.14 443Z" fill="#353D40"/>
<path d="M161.76 444.81C161.76 444.81 166.53 447.41 165.76 448.11C164.99 448.81 145.41 444.46 136.96 441.78L137.07 441.41L159.81 446.67C159.81 446.67 160.75 444.63 161.76 444.81Z" fill="#F0F0F0"/>
<path d="M136.76 441.34C136.849 441.384 136.943 441.417 137.04 441.44L137.88 441.67L140.96 442.5C143.56 443.18 147.17 444.07 151.18 444.97C155.19 445.87 158.83 446.59 161.48 447.09L164.62 447.65L165.47 447.79H165.77C165.676 447.755 165.579 447.732 165.48 447.72L164.63 447.54L161.51 446.91C158.87 446.38 155.23 445.62 151.23 444.73C147.23 443.84 143.61 443 141 442.35L137.91 441.59L137.06 441.39L136.76 441.34Z" fill="#263238"/>
<path d="M159.69 446.94C159.942 446.454 160.248 445.998 160.6 445.58C161.007 445.215 161.453 444.896 161.93 444.63C161.353 444.707 160.826 444.996 160.45 445.44C160.022 445.83 159.751 446.364 159.69 446.94V446.94Z" fill="#263238"/>
<path d="M155.22 443.25C155.22 443.3 155.57 443.06 155.9 442.72C156.23 442.38 156.48 442.07 156.44 442.03C156.4 441.99 156.09 442.23 155.75 442.57C155.41 442.91 155.18 443.21 155.22 443.25Z" fill="#263238"/>
<path d="M154 442.21C154 442.26 154.34 442.14 154.7 441.95C155.06 441.76 155.31 441.54 155.29 441.49C155.27 441.44 154.95 441.56 154.59 441.76C154.23 441.96 154 442.16 154 442.21Z" fill="#263238"/>
<path d="M153.48 440.4C153.48 440.46 153.85 440.6 154.35 440.72C154.642 440.823 154.953 440.858 155.26 440.82C154.994 440.658 154.698 440.553 154.39 440.51C154.098 440.408 153.788 440.37 153.48 440.4Z" fill="#263238"/>
<path d="M153.43 439.2C153.68 439.462 154.005 439.64 154.36 439.71C154.694 439.853 155.066 439.885 155.42 439.8C155.098 439.669 154.762 439.572 154.42 439.51C154.099 439.38 153.768 439.276 153.43 439.2V439.2Z" fill="#263238"/>
<path d="M156.13 441.89C156.48 442.034 156.852 442.115 157.23 442.13C157.639 442.165 158.051 442.165 158.46 442.13C158.707 442.117 158.952 442.077 159.19 442.01C159.338 441.959 159.463 441.856 159.54 441.72C159.574 441.643 159.586 441.558 159.574 441.475C159.561 441.391 159.525 441.313 159.47 441.25C159.099 440.947 158.634 440.781 158.155 440.781C157.676 440.781 157.211 440.947 156.84 441.25C156.624 441.433 156.447 441.657 156.32 441.91C156.267 441.998 156.237 442.098 156.23 442.2C156.414 441.882 156.654 441.601 156.94 441.37C157.251 441.148 157.618 441.02 158 441C158.229 440.973 158.462 440.993 158.684 441.059C158.905 441.124 159.111 441.233 159.29 441.38C159.44 441.55 159.29 441.74 159.1 441.81C158.882 441.879 158.657 441.923 158.43 441.94C158.03 441.968 157.629 441.968 157.23 441.94C156.56 442 156.14 441.86 156.13 441.89Z" fill="#263238"/>
<path d="M156.4 442C156.585 441.797 156.691 441.535 156.7 441.26C156.729 440.965 156.688 440.666 156.58 440.39C156.521 440.208 156.418 440.043 156.28 439.911C156.142 439.778 155.974 439.682 155.79 439.63C155.732 439.629 155.675 439.639 155.621 439.66C155.567 439.681 155.518 439.712 155.476 439.752C155.434 439.792 155.4 439.839 155.377 439.892C155.354 439.945 155.341 440.002 155.34 440.06C155.321 440.243 155.345 440.428 155.41 440.6C155.501 440.874 155.625 441.136 155.78 441.38C155.908 441.613 156.089 441.812 156.31 441.96C156.31 441.96 156.14 441.71 155.91 441.3C155.782 441.057 155.679 440.803 155.6 440.54C155.5 440.27 155.49 439.83 155.78 439.84C156.07 439.85 156.28 440.21 156.4 440.47C156.508 440.715 156.559 440.982 156.55 441.25C156.524 441.504 156.474 441.755 156.4 442V442Z" fill="#263238"/>
<path d="M138.15 436.74C138.15 436.74 138.65 436.8 139.4 437.06C140.383 437.397 141.25 438.005 141.903 438.813C142.556 439.622 142.967 440.598 143.09 441.63C143.18 442.42 143.09 442.92 143.09 442.92C143.132 442.811 143.159 442.696 143.17 442.58C143.209 442.248 143.209 441.912 143.17 441.58C143.088 440.508 142.682 439.486 142.008 438.648C141.333 437.811 140.42 437.198 139.39 436.89C139.081 436.794 138.762 436.73 138.44 436.7C138.27 436.72 138.15 436.72 138.15 436.74Z" fill="#263238"/>
<path d="M141.5 430C141.129 431.143 140.819 432.305 140.57 433.48C140.263 434.642 140.022 435.821 139.85 437.01C140.23 435.87 140.54 434.708 140.78 433.53C141.095 432.37 141.336 431.191 141.5 430Z" fill="#455A64"/>
<path d="M145.67 441.84C147.255 442.519 148.948 442.912 150.67 443C150.67 442.94 149.55 442.76 148.18 442.44C146.81 442.12 145.69 441.78 145.67 441.84Z" fill="#263238"/>
<path d="M142.32 441.09C142.26 441.09 142.32 441.34 142.41 441.63C142.5 441.92 142.48 442.15 142.54 442.16C142.6 442.17 142.69 441.91 142.62 441.58C142.55 441.25 142.36 441.05 142.32 441.09Z" fill="#263238"/>
<path d="M141.4 439.23C141.35 439.23 141.4 439.47 141.56 439.69C141.72 439.91 141.85 440.06 141.9 440.03C141.95 440 141.9 439.79 141.74 439.57C141.58 439.35 141.45 439.2 141.4 439.23Z" fill="#455A64"/>
<path d="M139.75 438.11C139.75 438.17 139.98 438.22 140.21 438.37C140.44 438.52 140.6 438.69 140.65 438.66C140.7 438.63 140.65 438.36 140.32 438.19C139.99 438.02 139.75 438.06 139.75 438.11Z" fill="#455A64"/>
<path d="M138.54 437.49C138.54 437.54 138.59 437.65 138.72 437.73C138.85 437.81 138.98 437.85 139.01 437.8C139.04 437.75 139.01 437.64 138.84 437.56C138.67 437.48 138.58 437.44 138.54 437.49Z" fill="#455A64"/>
<path d="M163.22 286.6L143 279.44L115.1 284.5L115.9 440.82L142.38 440.47C142.38 440.47 142.38 438.65 142.32 435.47L157.85 439.72C157.85 439.72 172.98 388.6 178.14 367.62C182.41 350.1 163.22 286.6 163.22 286.6ZM142 410C141.59 372.18 141.05 311.71 141.6 303.84C141.6 303.84 156.43 356.62 156.6 361.09C156.67 363.78 148.45 389.91 142 410Z" fill="#263238"/>
<path d="M142.26 408.54C142.4 408.54 142.52 415.54 142.52 424.19C142.52 432.84 142.41 439.85 142.27 439.85C142.13 439.85 142.01 432.85 142 424.19C141.99 415.53 142.12 408.54 142.26 408.54Z" fill="#455A64"/>
<path d="M148 436.76C148 436.76 148 436.64 148.07 436.4C148.14 436.16 148.21 435.79 148.32 435.4C148.55 434.45 148.88 433.1 149.32 431.4C150.21 427.89 151.48 422.86 153.06 416.66C156.27 404.19 160.69 387.02 165.58 368.06C166.58 364.23 167.58 360.48 168.48 356.89V357C165.23 340.44 161.98 325.95 159.41 315.62L156.41 303.48C156.06 302.08 155.79 300.98 155.59 300.21C155.51 299.85 155.44 299.57 155.39 299.36C155.379 299.26 155.379 299.16 155.39 299.06C155.431 299.15 155.465 299.244 155.49 299.34L155.73 300.18C155.95 300.95 156.25 302.04 156.64 303.43C157.41 306.26 158.51 310.38 159.82 315.54C162.48 325.85 165.82 340.34 169.06 356.9V357L166.17 368.17C161.17 387.12 156.74 404.27 153.49 416.73L149.59 431.43C149.13 433.14 148.76 434.48 148.51 435.43C148.38 435.87 148.29 436.21 148.21 436.43C148.156 436.549 148.085 436.661 148 436.76Z" fill="#455A64"/>
<path d="M127.05 439.52C126.91 439.52 126.79 408.06 126.79 369.26C126.79 330.46 126.91 299 127.05 299C127.19 299 127.31 330.45 127.31 369.26C127.31 408.07 127.2 439.52 127.05 439.52Z" fill="#455A64"/>
<path d="M134.4 201.55L150.4 202.34C150.57 200.48 150.71 193.28 150.71 193.28C150.71 193.28 157.37 192.5 157.71 185.87C158.05 179.24 157.46 163.99 157.46 163.99C153.758 162.219 149.651 161.471 145.562 161.822C141.474 162.174 137.555 163.613 134.21 165.99L133.21 166.71L134.4 201.55Z" fill="#E6BBAC"/>
<path d="M154.12 175.32C153.949 175.135 153.853 174.892 153.853 174.64C153.853 174.388 153.949 174.145 154.12 173.96C154.195 173.826 154.3 173.711 154.427 173.624C154.553 173.537 154.698 173.48 154.85 173.458C155.002 173.437 155.157 173.45 155.303 173.498C155.449 173.545 155.582 173.626 155.692 173.733C155.802 173.841 155.885 173.972 155.936 174.117C155.987 174.262 156.004 174.417 155.985 174.569C155.967 174.722 155.913 174.868 155.829 174.996C155.745 175.125 155.632 175.232 155.5 175.31C155.315 175.489 155.069 175.589 154.812 175.591C154.555 175.593 154.307 175.496 154.12 175.32V175.32Z" fill="#263238"/>
<path d="M157.18 173.87C157.07 173.98 156.44 173.46 155.53 173.42C154.62 173.38 153.94 173.83 153.84 173.7C153.74 173.57 153.9 173.45 154.2 173.24C154.601 172.971 155.078 172.841 155.56 172.87C156.04 172.886 156.501 173.062 156.87 173.37C157.14 173.61 157.23 173.82 157.18 173.87Z" fill="#263238"/>
<path d="M145.67 174.27C145.842 174.374 145.978 174.528 146.062 174.711C146.145 174.894 146.171 175.098 146.136 175.297C146.102 175.495 146.008 175.678 145.868 175.822C145.728 175.966 145.547 176.065 145.35 176.105C145.153 176.145 144.948 176.124 144.763 176.046C144.578 175.968 144.42 175.836 144.311 175.667C144.202 175.498 144.146 175.3 144.151 175.099C144.157 174.898 144.222 174.703 144.34 174.54C144.487 174.336 144.706 174.195 144.952 174.145C145.199 174.095 145.455 174.139 145.67 174.27Z" fill="#263238"/>
<path d="M147.24 174.3C147.13 174.41 146.5 173.89 145.59 173.85C144.68 173.81 143.99 174.26 143.9 174.14C143.81 174.02 143.96 173.88 144.26 173.67C144.659 173.406 145.133 173.276 145.611 173.299C146.09 173.322 146.548 173.498 146.92 173.8C147.2 174 147.29 174.26 147.24 174.3Z" fill="#263238"/>
<path d="M150.62 182C151.094 181.826 151.595 181.738 152.1 181.74C152.34 181.74 152.53 181.68 152.56 181.55C152.569 181.311 152.517 181.074 152.41 180.86C152.2 180.25 151.98 179.63 151.76 178.98C151.133 177.388 150.67 175.736 150.38 174.05C151.16 175.571 151.786 177.165 152.25 178.81C152.46 179.47 152.67 180.09 152.87 180.71C153.009 181.025 153.04 181.376 152.96 181.71C152.922 181.8 152.864 181.88 152.789 181.942C152.714 182.005 152.625 182.049 152.53 182.07C152.394 182.088 152.256 182.088 152.12 182.07C151.62 182.133 151.112 182.109 150.62 182Z" fill="#263238"/>
<path d="M147.61 182.87C146.68 182.27 150.18 184.36 152.04 184.34C151.713 184.805 151.239 185.146 150.695 185.307C150.15 185.469 149.567 185.441 149.04 185.23C147.07 184.43 147.61 182.87 147.61 182.87Z" fill="white"/>
<path d="M150.74 193.19C147.678 193.13 144.702 192.163 142.19 190.41C142.19 190.41 144.06 195.25 150.69 194.9L150.74 193.19Z" fill="#D88876"/>
<path d="M134.46 174C134.31 174 129.53 173.44 130.12 179.06C130.71 184.68 136.18 182.23 136.18 182.06C136.18 181.89 134.46 174 134.46 174Z" fill="#E6BBAC"/>
<path d="M134.25 180.31C134.25 180.31 134.16 180.39 134 180.49C133.777 180.612 133.516 180.644 133.27 180.58C132.884 180.386 132.556 180.093 132.319 179.731C132.082 179.37 131.944 178.952 131.92 178.52C131.859 178.04 131.904 177.552 132.05 177.09C132.086 176.909 132.165 176.74 132.28 176.595C132.394 176.451 132.542 176.336 132.71 176.26C132.819 176.218 132.939 176.216 133.049 176.255C133.159 176.293 133.251 176.369 133.31 176.47C133.41 176.62 133.38 176.74 133.41 176.74C133.44 176.74 133.52 176.64 133.41 176.41C133.367 176.275 133.279 176.158 133.16 176.08C132.991 175.983 132.791 175.951 132.6 175.99C132.372 176.063 132.167 176.193 132.004 176.368C131.841 176.543 131.726 176.757 131.67 176.99C131.482 177.501 131.42 178.05 131.49 178.59C131.516 179.093 131.689 179.577 131.988 179.982C132.286 180.388 132.697 180.696 133.17 180.87C133.325 180.899 133.485 180.892 133.637 180.851C133.79 180.809 133.931 180.734 134.05 180.63C134.25 180.45 134.27 180.32 134.25 180.31Z" fill="#D88876"/>
<path d="M156.54 164.4C157.345 164.142 158.041 163.624 158.519 162.927C158.997 162.23 159.229 161.394 159.18 160.55C159.1 159.709 158.792 158.905 158.29 158.225C157.788 157.545 157.11 157.014 156.33 156.69C155.546 156.375 154.704 156.229 153.86 156.262C153.015 156.294 152.187 156.505 151.43 156.88C151.164 155.652 150.47 154.558 149.472 153.795C148.473 153.032 147.236 152.649 145.981 152.715C144.726 152.781 143.536 153.292 142.623 154.156C141.71 155.02 141.135 156.181 141 157.43C140.81 156.16 139.34 155.43 138.06 155.43C137.417 155.381 136.772 155.479 136.172 155.716C135.573 155.954 135.035 156.324 134.6 156.8C134.185 157.291 133.966 157.918 133.987 158.561C134.007 159.204 134.265 159.816 134.71 160.28C133.263 160.125 131.81 160.509 130.63 161.36C130.051 161.793 129.59 162.364 129.288 163.02C128.986 163.677 128.852 164.399 128.9 165.12C128.974 165.835 129.271 166.509 129.748 167.048C130.225 167.586 130.859 167.961 131.56 168.12C132.04 168.21 132.63 168.22 132.9 168.63C133.025 168.877 133.077 169.154 133.05 169.43V174.19C133.493 174.026 133.981 174.038 134.415 174.225C134.848 174.411 135.194 174.756 135.38 175.19C135.735 176.064 135.849 177.017 135.71 177.95C136.13 178.56 137.16 178.35 137.59 177.75C137.954 177.106 138.104 176.364 138.02 175.63L137.93 167.97C138.311 168.171 138.738 168.272 139.169 168.262C139.599 168.252 140.021 168.132 140.392 167.914C140.764 167.695 141.074 167.386 141.292 167.014C141.51 166.642 141.63 166.221 141.64 165.79C142.194 166.297 142.854 166.674 143.572 166.894C144.29 167.114 145.048 167.172 145.791 167.063C146.534 166.954 147.243 166.68 147.867 166.263C148.492 165.846 149.015 165.295 149.4 164.65C150.182 165.287 151.039 165.827 151.95 166.26C152.877 166.682 153.928 166.746 154.9 166.44C155.378 166.273 155.794 165.965 156.093 165.556C156.391 165.147 156.558 164.656 156.57 164.15L156.23 163.87" fill="#263238"/>
<path d="M209.46 220.51C208.378 220.51 207.321 220.831 206.421 221.432C205.521 222.033 204.82 222.887 204.406 223.887C203.992 224.886 203.884 225.986 204.095 227.047C204.306 228.108 204.827 229.083 205.592 229.848C206.357 230.613 207.332 231.134 208.393 231.345C209.454 231.556 210.554 231.448 211.553 231.034C212.553 230.62 213.407 229.919 214.008 229.019C214.609 228.119 214.93 227.062 214.93 225.98C214.931 225.261 214.791 224.549 214.516 223.885C214.242 223.221 213.839 222.617 213.331 222.109C212.823 221.601 212.219 221.198 211.555 220.924C210.891 220.649 210.179 220.509 209.46 220.51V220.51ZM209.46 224.99C209.149 224.99 208.846 224.898 208.588 224.725C208.33 224.553 208.128 224.308 208.009 224.021C207.891 223.734 207.86 223.418 207.92 223.114C207.981 222.809 208.13 222.529 208.35 222.31C208.569 222.09 208.849 221.941 209.154 221.88C209.458 221.82 209.774 221.851 210.061 221.97C210.348 222.088 210.593 222.29 210.765 222.548C210.938 222.806 211.03 223.11 211.03 223.42C211.033 223.627 210.994 223.833 210.916 224.025C210.838 224.218 210.723 224.393 210.577 224.54C210.431 224.687 210.256 224.803 210.065 224.882C209.873 224.961 209.667 225.001 209.46 225V224.99Z" fill="#353D40"/>
<path d="M207.65 231.05V240.88C207.65 240.88 209.83 241.88 209.71 242.01C209.59 242.14 211.28 240.88 211.28 240.88V239.7L210.28 238.7L211.28 237.79L210.28 236.54L211.28 235.43L210.16 234.17L211.28 233.04V231.04L207.65 231.05Z" fill="#353D40"/>
<path d="M215.55 211.76L209.3 206.17L203 211.84L204.86 212.13L205.02 217.86L213.53 218.01L213.28 212.01L215.55 211.76ZM209.25 216.94C209.056 216.924 208.871 216.853 208.718 216.734C208.564 216.615 208.449 216.454 208.385 216.27C208.322 216.087 208.313 215.889 208.36 215.7C208.407 215.512 208.508 215.341 208.651 215.209C208.793 215.077 208.971 214.99 209.162 214.957C209.354 214.925 209.551 214.949 209.729 215.026C209.907 215.104 210.059 215.231 210.165 215.394C210.272 215.556 210.329 215.746 210.33 215.94C210.33 216.078 210.302 216.215 210.247 216.342C210.192 216.469 210.111 216.583 210.009 216.677C209.908 216.771 209.788 216.843 209.657 216.888C209.527 216.933 209.388 216.951 209.25 216.94Z" fill="#263238"/>
<path d="M210.09 216.57C210.09 216.57 209.9 216.62 209.6 216.62C209.181 216.588 208.76 216.653 208.37 216.81C207.801 217.023 207.307 217.398 206.95 217.89C206.516 218.492 206.32 219.233 206.4 219.97C206.488 220.705 206.844 221.382 207.4 221.87C207.855 222.275 208.418 222.539 209.02 222.63C209.6 222.666 210.183 222.619 210.75 222.49C210.511 222.694 210.231 222.844 209.929 222.932C209.628 223.02 209.311 223.043 209 223C208.302 222.955 207.636 222.689 207.1 222.24C206.429 221.684 206.002 220.887 205.91 220.02C205.82 219.155 206.067 218.288 206.6 217.6C207.024 217.046 207.617 216.646 208.29 216.46C208.731 216.321 209.2 216.304 209.65 216.41C209.93 216.48 210.1 216.54 210.09 216.57Z" fill="#455A64"/>
<path d="M212.08 221.18C211.95 221.11 212.26 220.4 212.21 219.52C212.16 218.64 211.83 217.97 211.93 217.88C212.03 217.79 212.7 218.43 212.73 219.49C212.76 220.55 212.19 221.27 212.08 221.18Z" fill="#455A64"/>
<path d="M193.66 213.19C194.279 211.352 195.073 209.577 196.03 207.89C196.896 206.55 198.148 205.504 199.62 204.89C201.54 204.16 203.68 204.45 205.72 204.75L210.64 205.48C211.31 205.58 212.16 205.89 212.14 206.56C212.107 206.755 212.018 206.936 211.883 207.08C211.747 207.224 211.572 207.325 211.38 207.37C210.987 207.445 210.583 207.445 210.19 207.37C209.102 207.232 208.004 207.198 206.91 207.27C206.13 207.32 205.16 207.6 205.03 208.37C204.9 209.14 205.65 209.65 206.34 209.67C207.041 209.622 207.714 209.375 208.28 208.96L210.21 207.82C210.55 207.552 210.98 207.427 211.41 207.47C212.12 207.63 212.29 208.65 211.91 209.27C211.459 209.847 210.889 210.321 210.24 210.66C207.76 212.34 206.61 215.06 205.47 218.66" fill="#E6BBAC"/>
<path d="M193.71 212.43L182.71 240.79L171.27 214.32C167.69 201.51 151.87 200.67 151.87 200.67L136.22 198.67C130.59 196.38 121.47 198.29 117.9 200.26C113.35 202.76 109.31 210.45 108.41 216.12C108.41 216.12 92.65 256.87 95.34 261.12C98.03 265.37 114.86 282 114.86 282L112.51 290.58L139.29 292.27L142 281.7L142.32 293.01L167.5 294.78C166.4 284.83 164.62 274.83 164.14 271.98L162.14 242.79L162.4 236.79L162.64 236.17C165 240.12 167.97 245.17 171.64 251.65C179 264.65 186.43 261.33 190.79 256.11C192.649 253.721 194.049 251.009 194.92 248.11L205.75 217.67L193.71 212.43ZM117 261.09C117 261.25 114.3 256.28 114.3 256.28L118.24 243.28C118.24 243.28 117 260.94 117 261.09Z" fill="#353D40"/>
<path d="M134.17 199L142.62 231.45L151.38 200.98L150.41 200.9L150.64 196.89L134.17 194.92V199Z" fill="white"/>
<path d="M133.72 199.31C133.742 199.456 133.742 199.604 133.72 199.75C133.66 200.08 133.59 200.5 133.5 201C133.29 202.15 132.99 203.72 132.62 205.65C132.25 207.58 131.76 210.03 131.23 212.71C130.98 214.02 130.6 215.53 131.34 216.77C132.08 218.01 133.62 218.61 135.14 219.12L135.43 219.22L135.27 219.48C134.06 221.59 134.16 224.48 135.05 226.97C135.635 228.553 136.323 230.097 137.11 231.59C137.85 233.083 138.567 234.527 139.26 235.92C140.62 238.7 141.89 241.27 143.02 243.55L142.62 243.65C142.62 239.98 142.62 236.95 142.62 234.76C142.62 233.76 142.62 232.93 142.62 232.31C142.596 232.024 142.596 231.736 142.62 231.45C142.68 231.733 142.707 232.021 142.7 232.31C142.7 232.93 142.75 233.74 142.79 234.76C142.84 236.94 142.92 239.97 143.01 243.64V244.56L142.59 243.74C141.45 241.46 140.16 238.9 138.76 236.14C138.07 234.75 137.35 233.3 136.6 231.82C135.8 230.305 135.102 228.738 134.51 227.13C133.59 224.51 133.51 221.52 134.79 219.23L134.93 219.6C134.146 219.352 133.387 219.034 132.66 218.65C131.929 218.275 131.314 217.708 130.88 217.01C130.494 216.32 130.33 215.527 130.41 214.74C130.476 214.026 130.593 213.318 130.76 212.62C131.33 209.95 131.83 207.62 132.26 205.62C132.69 203.62 133.03 202.14 133.26 201C133.37 200.5 133.47 200.09 133.55 199.76C133.588 199.604 133.645 199.452 133.72 199.31V199.31Z" fill="#263238"/>
<path d="M152.91 201.18C153.062 201.674 153.176 202.179 153.25 202.69C153.43 203.69 153.68 205.1 153.95 206.9C154.22 208.7 154.54 210.83 154.73 213.27C154.73 213.88 154.81 214.5 154.79 215.16C154.796 215.875 154.579 216.574 154.17 217.16C153.297 218.299 152.157 219.206 150.85 219.8V219.36C151.306 219.738 151.695 220.192 152 220.7C152.08 220.82 152.15 220.95 152.22 221.08C152.263 221.191 152.284 221.31 152.28 221.43V221.67C152.22 221.98 152.14 222.26 152.06 222.55C151.06 225.68 149.82 228.55 148.73 231.14C147.64 233.73 146.6 236.07 145.73 238.01C144.86 239.95 144.13 241.53 143.62 242.61L143.01 243.85C142.87 244.13 142.79 244.27 142.77 244.26C142.794 244.099 142.845 243.944 142.92 243.8C143.06 243.46 143.23 243.04 143.43 242.53L145.43 237.87C146.27 235.87 147.25 233.54 148.33 230.95C149.41 228.36 150.61 225.47 151.6 222.4C151.684 222.135 151.751 221.864 151.8 221.59V221.41C151.794 221.384 151.794 221.356 151.8 221.33L151.59 220.97C151.322 220.523 150.984 220.121 150.59 219.78L150.27 219.51L150.63 219.33C151.857 218.784 152.931 217.946 153.76 216.89C154.54 215.89 154.29 214.53 154.27 213.34C154.12 210.93 153.83 208.78 153.61 206.98C153.39 205.18 153.2 203.83 153.06 202.76C152.96 202.239 152.91 201.71 152.91 201.18Z" fill="#263238"/>
<path d="M142 282.94C141.85 282.94 142 273.76 142.31 262.46C142.62 251.16 143 242 143.18 242C143.36 242 143.18 251.17 142.87 262.48C142.56 273.79 142.18 282.94 142 282.94Z" fill="#263238"/>
<path d="M146.11 250.19C146.05 250.19 146.38 249.82 146.92 250.07C147.104 250.147 147.258 250.281 147.36 250.452C147.461 250.624 147.505 250.823 147.485 251.022C147.465 251.22 147.382 251.406 147.248 251.554C147.113 251.701 146.935 251.801 146.74 251.84C146.55 251.91 146.342 251.916 146.148 251.856C145.954 251.797 145.785 251.677 145.666 251.512C145.547 251.348 145.485 251.15 145.489 250.947C145.494 250.744 145.564 250.549 145.69 250.39C146.03 249.91 146.48 250.02 146.45 250.08C146.42 250.14 146.16 250.21 146.01 250.57C145.968 250.661 145.946 250.76 145.946 250.86C145.946 250.96 145.968 251.059 146.01 251.15C146.072 251.241 146.163 251.308 146.269 251.341C146.374 251.373 146.487 251.369 146.59 251.33C146.699 251.313 146.799 251.261 146.875 251.181C146.95 251.102 146.998 250.999 147.01 250.89C147.006 250.79 146.979 250.693 146.93 250.606C146.881 250.519 146.813 250.445 146.73 250.39C146.43 250.15 146.15 250.25 146.11 250.19Z" fill="#263238"/>
<path d="M146.22 260.58C146.15 260.58 146.48 260.22 147.03 260.46C147.187 260.534 147.322 260.647 147.422 260.789C147.522 260.931 147.584 261.097 147.6 261.27C147.607 261.498 147.535 261.722 147.397 261.904C147.258 262.086 147.062 262.215 146.84 262.27C146.626 262.331 146.398 262.319 146.191 262.236C145.985 262.152 145.812 262.003 145.7 261.81C145.626 261.65 145.595 261.473 145.61 261.298C145.626 261.122 145.688 260.954 145.79 260.81C146.14 260.32 146.58 260.43 146.55 260.5C146.52 260.57 146.26 260.63 146.11 260.99C146.068 261.081 146.046 261.18 146.046 261.28C146.046 261.38 146.068 261.479 146.11 261.57C146.18 261.654 146.272 261.716 146.376 261.749C146.48 261.781 146.591 261.784 146.697 261.755C146.802 261.727 146.897 261.669 146.97 261.588C147.043 261.508 147.092 261.407 147.11 261.3C147.105 261.201 147.077 261.104 147.028 261.017C146.98 260.931 146.912 260.856 146.83 260.8C146.53 260.54 146.25 260.65 146.22 260.58Z" fill="#263238"/>
<path d="M145.77 272.34C145.71 272.34 146.03 271.98 146.58 272.22C146.738 272.292 146.874 272.403 146.976 272.543C147.077 272.684 147.141 272.848 147.16 273.02C147.166 273.25 147.093 273.475 146.953 273.657C146.812 273.839 146.614 273.967 146.39 274.02C146.176 274.081 145.947 274.069 145.741 273.986C145.534 273.902 145.362 273.753 145.25 273.56C145.175 273.4 145.144 273.223 145.16 273.048C145.176 272.872 145.238 272.704 145.34 272.56C145.69 272.07 146.14 272.18 146.1 272.25C146.06 272.32 145.81 272.37 145.66 272.74C145.618 272.831 145.596 272.93 145.596 273.03C145.596 273.13 145.618 273.229 145.66 273.32C145.728 273.407 145.821 273.47 145.927 273.502C146.032 273.535 146.145 273.534 146.25 273.5C146.359 273.479 146.458 273.425 146.534 273.344C146.609 273.263 146.657 273.16 146.67 273.05C146.661 272.951 146.63 272.854 146.58 272.768C146.53 272.682 146.461 272.607 146.38 272.55C146.08 272.3 145.8 272.41 145.77 272.34Z" fill="#263238"/>
<path d="M151.38 232.6H158.74V231.45H150.99L151.38 232.6Z" fill="#263238"/>
<path d="M203.64 223.29C201.601 222.606 199.621 221.756 197.72 220.75C195.743 219.903 193.837 218.9 192.02 217.75C194.059 218.439 196.038 219.292 197.94 220.3C199.918 221.141 201.824 222.141 203.64 223.29V223.29Z" fill="#455A64"/>
<path d="M193.66 215.54C193.66 215.54 193.72 215.21 194.16 215.05C194.423 214.942 194.717 214.942 194.98 215.05C195.15 215.133 195.29 215.265 195.383 215.429C195.476 215.593 195.517 215.782 195.5 215.97C195.502 216.167 195.435 216.359 195.311 216.512C195.187 216.665 195.013 216.771 194.82 216.81C194.663 216.829 194.503 216.797 194.365 216.72C194.227 216.643 194.116 216.524 194.05 216.38C194.001 216.293 193.975 216.195 193.975 216.095C193.975 215.995 194.001 215.897 194.05 215.81C194.13 215.69 194.21 215.68 194.23 215.7C194.25 215.72 194.17 215.95 194.38 216.18C194.59 216.41 194.97 216.41 195 215.94C195.03 215.47 194.6 215.32 194.27 215.37C193.94 215.42 193.72 215.59 193.66 215.54Z" fill="#455A64"/>
<path d="M182.14 246.74C182.003 245.664 182.044 244.573 182.26 243.51C182.304 242.425 182.524 241.355 182.91 240.34C182.995 242.501 182.735 244.661 182.14 246.74V246.74Z" fill="#263238"/>
<path d="M184.69 246.43C184.135 245.561 183.723 244.609 183.47 243.61C183.063 242.658 182.819 241.643 182.75 240.61C183.726 242.421 184.382 244.386 184.69 246.42V246.43Z" fill="#263238"/>
<path d="M144.66 198.28C144.297 199.69 143.662 201.014 142.79 202.18L144.26 206.18H145.51L146.57 202.34C146.57 202.34 145.83 201.75 145.29 198.16L144.66 198.28Z" fill="#455A64"/>
<path d="M150.36 200.81C150.36 200.81 150.24 201.08 149.92 201.5C149.477 202.15 148.818 202.621 148.06 202.83C147.777 202.898 147.483 202.901 147.198 202.839C146.914 202.776 146.648 202.65 146.42 202.47C145.98 201.992 145.685 201.399 145.57 200.76C145.182 199.381 144.96 197.961 144.91 196.53L145.41 196.59C145.17 197.41 144.96 198.28 144.66 199.15C144.376 200.022 144.004 200.863 143.55 201.66C143.308 202.074 142.964 202.418 142.55 202.66C142.153 202.889 141.697 202.994 141.24 202.96C140.462 202.877 139.704 202.66 139 202.32C138.389 202.031 137.801 201.696 137.24 201.32C136.436 200.796 135.662 200.228 134.92 199.62C134.627 199.423 134.361 199.187 134.13 198.92C134.19 198.84 135.39 199.75 137.43 201C137.988 201.335 138.569 201.629 139.17 201.88C139.831 202.179 140.537 202.369 141.26 202.44C141.636 202.453 142.009 202.359 142.334 202.17C142.66 201.981 142.925 201.703 143.1 201.37C143.508 200.603 143.843 199.8 144.1 198.97C144.38 198.12 144.6 197.26 144.85 196.43C144.858 196.398 144.873 196.367 144.893 196.34C144.913 196.314 144.938 196.291 144.967 196.275C144.996 196.258 145.028 196.247 145.061 196.243C145.094 196.239 145.128 196.241 145.16 196.25C145.212 196.266 145.258 196.298 145.292 196.34C145.326 196.383 145.346 196.435 145.35 196.49C145.387 197.887 145.581 199.276 145.93 200.63C146.017 201.193 146.256 201.722 146.62 202.16C146.801 202.307 147.012 202.412 147.239 202.468C147.465 202.523 147.701 202.527 147.93 202.48C148.633 202.311 149.261 201.918 149.72 201.36C149.909 201.151 150.124 200.966 150.36 200.81Z" fill="#E0E0E0"/>
<path d="M144.26 206.17C144.05 206.69 140.12 221.85 140.12 221.85L142.61 231.45L147.22 215.45C147.22 215.45 145.66 205.66 145.59 205.92C145.52 206.18 144.26 206.17 144.26 206.17Z" fill="#455A64"/>
<path d="M129.86 277.17C127.828 277.569 125.744 277.637 123.69 277.37C121.632 277.267 119.606 276.828 117.69 276.07C117.69 275.92 120.41 276.55 123.77 276.85C127.13 277.15 129.85 277 129.86 277.17Z" fill="#263238"/>
<path d="M164.59 279.24C163.175 279.412 161.745 279.412 160.33 279.24C158.908 279.251 157.49 279.083 156.11 278.74C157.521 278.571 158.948 278.571 160.36 278.74C161.785 278.739 163.205 278.907 164.59 279.24V279.24Z" fill="#263238"/>
<path d="M118.4 229C118.427 229.182 118.427 229.368 118.4 229.55C118.4 229.97 118.42 230.5 118.46 231.14C118.46 232.52 118.53 234.51 118.54 236.98C118.54 241.91 118.41 248.72 118.01 256.23C117.61 263.74 117.01 270.53 116.45 275.43C116.18 277.88 115.93 279.86 115.74 281.23C115.65 281.86 115.57 282.38 115.51 282.8C115.488 282.983 115.451 283.163 115.4 283.34C115.371 283.158 115.371 282.972 115.4 282.79C115.4 282.37 115.48 281.84 115.53 281.2C115.66 279.76 115.85 277.79 116.07 275.4C116.52 270.49 117.07 263.71 117.48 256.2C117.89 248.69 118.07 241.9 118.16 236.97C118.16 234.56 118.23 232.59 118.25 231.14C118.25 230.5 118.25 229.97 118.25 229.55C118.271 229.36 118.322 229.174 118.4 229V229Z" fill="#263238"/>
<path d="M114.29 256.77C114.824 253.964 115.526 251.192 116.39 248.47C117.092 245.696 117.964 242.967 119 240.3C118.472 243.11 117.774 245.885 116.91 248.61C116.203 251.381 115.328 254.106 114.29 256.77Z" fill="#263238"/>
<path d="M117.39 262.05C116.136 260.321 115.023 258.496 114.06 256.59C112.943 254.766 111.98 252.853 111.18 250.87C112.438 252.596 113.551 254.422 114.51 256.33C115.627 258.153 116.59 260.067 117.39 262.05Z" fill="#263238"/>
<path d="M269.287 327.74H268.007L267.474 331H265.892L266.425 327.74H264.659V326.284H266.663L267.013 324.185H265.256V322.73H267.252L267.8 319.422H269.375L268.834 322.73H270.114L270.663 319.422H272.245L271.697 322.73H273.534V324.185H271.458L271.108 326.284H272.929V327.74H270.87L270.337 331H268.754L269.287 327.74ZM268.246 326.284H269.526L269.876 324.185H268.595L268.246 326.284ZM274.758 331V319.422H278.917C280.407 319.422 281.539 319.695 282.313 320.241C283.092 320.787 283.482 321.58 283.482 322.619C283.482 323.218 283.344 323.729 283.068 324.153C282.792 324.577 282.387 324.89 281.851 325.092C282.456 325.251 282.92 325.548 283.243 325.982C283.566 326.417 283.728 326.947 283.728 327.573C283.728 328.707 283.368 329.561 282.647 330.133C281.931 330.7 280.868 330.989 279.458 331H274.758ZM277.549 326.078V328.853H279.378C279.882 328.853 280.269 328.739 280.539 328.511C280.81 328.278 280.945 327.952 280.945 327.533C280.945 326.568 280.465 326.083 279.506 326.078H277.549ZM277.549 324.249H279.005C279.614 324.243 280.049 324.132 280.309 323.915C280.568 323.697 280.698 323.377 280.698 322.953C280.698 322.465 280.558 322.115 280.277 321.903C279.996 321.686 279.543 321.577 278.917 321.577H277.549V324.249ZM295.076 325.449C295.076 326.579 294.866 327.578 294.447 328.447C294.029 329.317 293.432 329.987 292.658 330.459C291.89 330.926 291.012 331.159 290.026 331.159C289.04 331.159 288.165 330.934 287.402 330.483C286.639 330.027 286.042 329.378 285.613 328.535C285.189 327.692 284.966 326.724 284.945 325.632V324.98C284.945 323.846 285.152 322.847 285.565 321.982C285.984 321.113 286.58 320.442 287.354 319.971C288.134 319.499 289.019 319.263 290.01 319.263C290.991 319.263 291.866 319.496 292.634 319.963C293.403 320.429 293.999 321.094 294.424 321.959C294.853 322.817 295.07 323.803 295.076 324.917V325.449ZM292.237 324.964C292.237 323.814 292.043 322.942 291.656 322.348C291.275 321.749 290.726 321.45 290.01 321.45C288.611 321.45 287.871 322.499 287.792 324.599L287.784 325.449C287.784 326.584 287.972 327.456 288.348 328.066C288.725 328.675 289.284 328.98 290.026 328.98C290.731 328.98 291.275 328.681 291.656 328.082C292.038 327.483 292.231 326.621 292.237 325.497V324.964ZM300.817 326.913H299.306V331H296.515V319.422H301.071C302.444 319.422 303.518 319.727 304.292 320.336C305.066 320.946 305.453 321.807 305.453 322.921C305.453 323.727 305.289 324.395 304.96 324.925C304.637 325.455 304.128 325.884 303.433 326.213L305.851 330.881V331H302.861L300.817 326.913ZM299.306 324.758H301.071C301.602 324.758 301.999 324.62 302.264 324.344C302.535 324.063 302.67 323.674 302.67 323.175C302.67 322.677 302.535 322.287 302.264 322.006C301.994 321.72 301.596 321.577 301.071 321.577H299.306V324.758ZM313.715 328.837H309.89L309.222 331H306.24L310.487 319.422H313.111L317.389 331H314.391L313.715 328.837ZM310.558 326.682H313.047L311.799 322.666L310.558 326.682ZM266.647 347.837H262.822L262.154 350H259.172L263.419 338.422H266.043L270.321 350H267.323L266.647 347.837ZM263.49 345.682H265.979L264.731 341.666L263.49 345.682ZM273.963 347.853H278.822V350H271.172V338.422H273.963V347.853ZM288.889 338.422V346C288.889 346.859 288.706 347.604 288.34 348.235C287.974 348.86 287.45 349.337 286.766 349.666C286.082 349.995 285.273 350.159 284.34 350.159C282.93 350.159 281.82 349.793 281.009 349.062C280.197 348.33 279.784 347.328 279.768 346.056V338.422H282.575V346.111C282.607 347.378 283.195 348.012 284.34 348.012C284.918 348.012 285.356 347.853 285.652 347.535C285.949 347.217 286.098 346.7 286.098 345.984V338.422H288.889ZM300.117 348.569C299.688 349.046 299.06 349.43 298.233 349.722C297.406 350.013 296.499 350.159 295.513 350.159C293.997 350.159 292.785 349.695 291.879 348.767C290.972 347.84 290.487 346.549 290.424 344.895L290.416 343.893C290.416 342.753 290.617 341.759 291.02 340.911C291.423 340.057 291.998 339.403 292.746 338.947C293.498 338.485 294.368 338.255 295.354 338.255C296.796 338.255 297.914 338.586 298.71 339.249C299.51 339.906 299.977 340.89 300.109 342.199H297.421C297.326 341.552 297.119 341.091 296.801 340.815C296.483 340.54 296.033 340.402 295.449 340.402C294.75 340.402 294.209 340.699 293.827 341.293C293.445 341.886 293.252 342.735 293.247 343.837V344.537C293.247 345.693 293.443 346.562 293.835 347.145C294.233 347.723 294.856 348.012 295.704 348.012C296.43 348.012 296.971 347.85 297.326 347.527V345.73H295.386V343.813H300.117V348.569ZM308.316 347.837H304.491L303.823 350H300.841L305.087 338.422H307.711L311.99 350H308.992L308.316 347.837ZM305.159 345.682H307.648L306.399 341.666L305.159 345.682ZM317.142 345.913H315.632V350H312.84V338.422H317.397C318.77 338.422 319.843 338.727 320.617 339.336C321.391 339.946 321.778 340.807 321.778 341.921C321.778 342.727 321.614 343.395 321.285 343.925C320.962 344.455 320.453 344.884 319.759 345.213L322.176 349.881V350H319.186L317.142 345.913ZM315.632 343.758H317.397C317.927 343.758 318.325 343.62 318.59 343.344C318.86 343.063 318.995 342.674 318.995 342.175C318.995 341.677 318.86 341.287 318.59 341.006C318.319 340.72 317.922 340.577 317.397 340.577H315.632V343.758Z" fill="white" fill-opacity="0.18"/>
<path d="M268.287 327.74H267.007L266.474 331H264.892L265.425 327.74H263.659V326.284H265.663L266.013 324.185H264.256V322.73H266.252L266.8 319.422H268.375L267.834 322.73H269.114L269.663 319.422H271.245L270.697 322.73H272.534V324.185H270.458L270.108 326.284H271.929V327.74H269.87L269.337 331H267.754L268.287 327.74ZM267.246 326.284H268.526L268.876 324.185H267.595L267.246 326.284ZM273.758 331V319.422H277.917C279.407 319.422 280.539 319.695 281.313 320.241C282.092 320.787 282.482 321.58 282.482 322.619C282.482 323.218 282.344 323.729 282.068 324.153C281.792 324.577 281.387 324.89 280.851 325.092C281.456 325.251 281.92 325.548 282.243 325.982C282.566 326.417 282.728 326.947 282.728 327.573C282.728 328.707 282.368 329.561 281.647 330.133C280.931 330.7 279.868 330.989 278.458 331H273.758ZM276.549 326.078V328.853H278.378C278.882 328.853 279.269 328.739 279.539 328.511C279.81 328.278 279.945 327.952 279.945 327.533C279.945 326.568 279.465 326.083 278.506 326.078H276.549ZM276.549 324.249H278.005C278.614 324.243 279.049 324.132 279.309 323.915C279.568 323.697 279.698 323.377 279.698 322.953C279.698 322.465 279.558 322.115 279.277 321.903C278.996 321.686 278.543 321.577 277.917 321.577H276.549V324.249ZM294.076 325.449C294.076 326.579 293.866 327.578 293.447 328.447C293.029 329.317 292.432 329.987 291.658 330.459C290.89 330.926 290.012 331.159 289.026 331.159C288.04 331.159 287.165 330.934 286.402 330.483C285.639 330.027 285.042 329.378 284.613 328.535C284.189 327.692 283.966 326.724 283.945 325.632V324.98C283.945 323.846 284.152 322.847 284.565 321.982C284.984 321.113 285.58 320.442 286.354 319.971C287.134 319.499 288.019 319.263 289.01 319.263C289.991 319.263 290.866 319.496 291.634 319.963C292.403 320.429 292.999 321.094 293.424 321.959C293.853 322.817 294.07 323.803 294.076 324.917V325.449ZM291.237 324.964C291.237 323.814 291.043 322.942 290.656 322.348C290.275 321.749 289.726 321.45 289.01 321.45C287.611 321.45 286.871 322.499 286.792 324.599L286.784 325.449C286.784 326.584 286.972 327.456 287.348 328.066C287.725 328.675 288.284 328.98 289.026 328.98C289.731 328.98 290.275 328.681 290.656 328.082C291.038 327.483 291.231 326.621 291.237 325.497V324.964ZM299.817 326.913H298.306V331H295.515V319.422H300.071C301.444 319.422 302.518 319.727 303.292 320.336C304.066 320.946 304.453 321.807 304.453 322.921C304.453 323.727 304.289 324.395 303.96 324.925C303.637 325.455 303.128 325.884 302.433 326.213L304.851 330.881V331H301.861L299.817 326.913ZM298.306 324.758H300.071C300.602 324.758 300.999 324.62 301.264 324.344C301.535 324.063 301.67 323.674 301.67 323.175C301.67 322.677 301.535 322.287 301.264 322.006C300.994 321.72 300.596 321.577 300.071 321.577H298.306V324.758ZM312.715 328.837H308.89L308.222 331H305.24L309.487 319.422H312.111L316.389 331H313.391L312.715 328.837ZM309.558 326.682H312.047L310.799 322.666L309.558 326.682ZM265.647 347.837H261.822L261.154 350H258.172L262.419 338.422H265.043L269.321 350H266.323L265.647 347.837ZM262.49 345.682H264.979L263.731 341.666L262.49 345.682ZM272.963 347.853H277.822V350H270.172V338.422H272.963V347.853ZM287.889 338.422V346C287.889 346.859 287.706 347.604 287.34 348.235C286.974 348.86 286.45 349.337 285.766 349.666C285.082 349.995 284.273 350.159 283.34 350.159C281.93 350.159 280.82 349.793 280.009 349.062C279.197 348.33 278.784 347.328 278.768 346.056V338.422H281.575V346.111C281.607 347.378 282.195 348.012 283.34 348.012C283.918 348.012 284.356 347.853 284.652 347.535C284.949 347.217 285.098 346.7 285.098 345.984V338.422H287.889ZM299.117 348.569C298.688 349.046 298.06 349.43 297.233 349.722C296.406 350.013 295.499 350.159 294.513 350.159C292.997 350.159 291.785 349.695 290.879 348.767C289.972 347.84 289.487 346.549 289.424 344.895L289.416 343.893C289.416 342.753 289.617 341.759 290.02 340.911C290.423 340.057 290.998 339.403 291.746 338.947C292.498 338.485 293.368 338.255 294.354 338.255C295.796 338.255 296.914 338.586 297.71 339.249C298.51 339.906 298.977 340.89 299.109 342.199H296.421C296.326 341.552 296.119 341.091 295.801 340.815C295.483 340.54 295.033 340.402 294.449 340.402C293.75 340.402 293.209 340.699 292.827 341.293C292.445 341.886 292.252 342.735 292.247 343.837V344.537C292.247 345.693 292.443 346.562 292.835 347.145C293.233 347.723 293.856 348.012 294.704 348.012C295.43 348.012 295.971 347.85 296.326 347.527V345.73H294.386V343.813H299.117V348.569ZM307.316 347.837H303.491L302.823 350H299.841L304.087 338.422H306.711L310.99 350H307.992L307.316 347.837ZM304.159 345.682H306.648L305.399 341.666L304.159 345.682ZM316.142 345.913H314.632V350H311.84V338.422H316.397C317.77 338.422 318.843 338.727 319.617 339.336C320.391 339.946 320.778 340.807 320.778 341.921C320.778 342.727 320.614 343.395 320.285 343.925C319.962 344.455 319.453 344.884 318.759 345.213L321.176 349.881V350H318.186L316.142 345.913ZM314.632 343.758H316.397C316.927 343.758 317.325 343.62 317.59 343.344C317.86 343.063 317.995 342.674 317.995 342.175C317.995 341.677 317.86 341.287 317.59 341.006C317.319 340.72 316.922 340.577 316.397 340.577H314.632V343.758Z" fill="white"/>
</svg>
