<svg xmlns="http://www.w3.org/2000/svg" xmlns:xlink="http://www.w3.org/1999/xlink" width="59" height="111" fill="none" xmlns:v="https://vecta.io/nano"><g fill="#e67e33"><path d="M34.307 26.023c3.26-3.26 3.26-8.542 0-11.8s-8.542-3.26-11.8 0-3.26 8.542 0 11.8 8.542 3.26 11.8 0z"/><path d="M34.064 14.363c-.15 0-.3-.01-.45-.03l.046-.35c1.923.263 4.922-1.4 6.54-3.643l.596-.858c1.4-2.077 2.87-4.225 7.707-4.225 5.34 0 9.33-3.118 10.047-5.255l.333.11c-.753 2.253-4.88 5.5-10.38 5.5-4.642 0-5.983 1.976-7.406 4.07l-.602.865c-1.573 2.158-4.4 3.808-6.432 3.808z"/><use xlink:href="#B"/></g><use xlink:href="#B" opacity=".2" fill="#000"/><use xlink:href="#C" fill="#e67e33"/><use xlink:href="#C" opacity=".3" fill="#000"/><g fill="#e67e33"><path d="M18.696 53.953c3.503-1.54 5.93-2.883 6.152-4.355s.09-3.696-.19-4.134a2.37 2.37 0 0 0 .35.165c-.215-.69-.685-1.275-1.314-1.633a12.86 12.86 0 0 1-2.904-2.277c-1.05-1.107-3.1-2.214-5.255-1.713s-7.33 1.818-8.208 5.658.543 6.306 1.88 7.602 5.185 2.575 9.487.687z"/><use xlink:href="#D"/></g><use xlink:href="#D" opacity=".3" fill="#000"/><use xlink:href="#E" fill="#e67e33"/><use xlink:href="#E" opacity=".3" fill="#000"/><g fill="#e67e33"><path d="M23.936 49.952c.392.7 2.193 1.286 2.757 2.477s2.852 9.3 2.63 11.4-1.05 9.483-.186 12.072 1.752 7.006 1.63 10.19 3.1 13.112 2.673 16.286 2.42 4.68 2.294 6.8-4.01 1.794-5.41 1.794-3.696-.918-3.612-2.316a4.25 4.25 0 0 0-.834-2.571s-2.102 3.258-7.227 3.258H8.757c-1.422 0-2.925-2.754 1.836-3.465-3.1-1.503-6.4-4.26-4.51-8.27s2.964-7.308 2.673-8.937-.378-4.677.585-6.558 2.88-6.4 1.545-8.684-1.05-13.575-.92-16.248-.865-3.6-1.198-4.022c.037.35.103.695.196 1.033 0 0-1.9-2.743-1.272-4.382s16.244.133 16.244.133z"/><path d="M27.947 62.045c.596 1.293.554 2.964 1.4 1.63l3.916-6.79c.627-.88 2.715-3.654 3.363-5.157s1.752-8.2 2.28-9.304 1.81-1.45 1.352-3.058-2.193-3.258-4-2.32-1.983 3.906-2.568 5.514-1.4 5.006-1.983 5.426-3.717 1.527-4.76 1.443-2.988-.96-3.093.23 3.223 10.524 4.08 12.384z"/><path d="M39.834 38.87c.722-.7 1.692-.83 2.035 0s-2.035 2.102-2.035 2.102V38.87z"/><path d="M38.502 37.75c.406-1.05 2.263-2.242 3.055-1.29.627.76-1.654 2.767-1.654 2.767l-1.4-1.478z"/><path d="M37.5 37c0-1.14 1.324-2.897 2.403-2.284.855.5-.57 3.153-.57 3.153L37.5 37z"/><path d="M35.606 37.775c-.44-1.35.098-3.458 1.335-3.458 1.174 0 1.05 3.132 1.05 3.132l-2.386.326z"/><path d="M34.5 40.332c-.76-.998-.925-2.9.1-3.272.977-.35 1.773 2.312 1.773 2.312l-1.88.96zM15.56 73.237c-.252 1.167.088 2.522-.837 1.583s-3-5.496-4.62-5.097c-1.4.35-2.494-1.706-3.503-3.335-.722-1.163-2.922-6.376-3.56-7.185s-1.752-.858-1.664-2.256 1.107-4.66 2.715-4.113 2.725 2.845 3.416 4.1 1.454 1.177 3.086.767c1.186-.3 2.32-.762 3.36-1.4.7-.522 1.948-.627 2.55.172s-.582 15.092-.942 16.766z"/><path d="M1.943 56.408c-.73-.7-1.752-1.324-1.818-.427-.105 1.293 2.403 2.656 2.403 2.656l-.585-2.228z"/><path d="M3.3 55.235c-.627-.95-2.694-1.695-3.258-.592-.452.88 2.214 2.34 2.214 2.34L3.3 55.235z"/><path d="M3.867 54.275c-.252-1.114-1.923-2.54-2.84-1.706-.73.662 1.247 2.97 1.247 2.97l1.594-1.265z"/><path d="M5.194 54.895c.137-1.4-.848-3.35-2.056-3.08-1.146.252-.326 3.28-.326 3.28l2.382-.2z"/><path d="M6.396 56.363c.522-1.135.266-3.04-.82-3.153-1.03-.12-1.226 2.64-1.226 2.64l2.046.51z"/></g><g fill="#fafafa"><path opacity=".7" d="M39.315 39.768c.3-1.05-.26-1.857-1.26-2.256-1.08-.43-2.27.2-2.102.87.165.596.893.508 1.443.837.4.224 1.3 2.803 1.92.55zm1.797-.85c.053-.483-.595-.448-.925-.147s-.35.827.084.732.8-.2.84-.585zm-6.32-1.104c.28-.32.64.123.638.512s-.33.7-.522.378-.354-.634-.116-.9zm5.85-.725c0-.525-.7-.4-1.012-.028s-.256.932.186.774.837-.322.827-.746zm-3.81-1.674c-.466-.242-.7.427-.508.876s.7.673.77.207.112-.9-.263-1.083zm2.538.073c-.3-.54-.942-.042-1.07.508s.23 1.104.606.7.694-.757.462-1.2zm-36.85 21.5a1.63 1.63 0 0 1-.157-.635c-.01-.22.026-.44.104-.646a1.63 1.63 0 0 1 .35-.553c.153-.16.335-.286.538-.373.907-.473 2.046.06 1.97.7-.07.57-.73.536-1.177.88-.315.238-.77 2.718-1.625.627zm-1.712-.764c-.053-.424.518-.406.8-.144s.315.718-.06.64-.708-.158-.75-.498zm4.99-2.326c-.417-.235-.592.235-.424.585s.634.578.7.242.06-.64-.277-.827zm-4.8.806c-.04-.46.582-.413.886-.116s.308.792-.095.7-.76-.214-.792-.585zM3.57 52.44c.312-.35.7.144.7.567s-.37.767-.57.403-.378-.697-.13-.97zm-1.693.626c.203-.497.82-.12.977.35s-.102.984-.466.67-.676-.63-.5-1.02z"/><path opacity=".2" d="M13.61 76.4c-.2-2.74.122-5.492.977-8.103 1.05-3.3-1.244-7.78 3.573-9.65 4.26-1.654 6.656 9.2 5.21 12.61s-1.4 9.903-.792 12.706 1.538 5.76 1.342 9.297-.543 6.572-1.366 9.33-3.42 3.377-4.428 2.193c-1.545-1.818-4.8-7.58-3.237-12.846 1.548-5.15-1.097-12.77-1.28-15.537z"/></g><g fill="#000"><path opacity=".1" d="M13.157 46.967c-3.1.904-.638-4.4 1.916-4.593s6.887 2.02-1.916 4.593z"/><path opacity=".3" d="M15.35 44.757c-.154-.746.09-1.69 1.177-1.67.357.003 1.608 1.776-1.177 1.67z"/></g><path d="M20.696 43.128c-.287-.602-.28-1.26.62-1.026.294.08 1.678 1.678-.62 1.026z" fill="#e67e33"/><path opacity=".3" d="M20.696 43.128c-.287-.602-.28-1.26.62-1.026.294.08 1.678 1.678-.62 1.026z" fill="#000"/><path opacity=".7" d="M21.2 43.7c-.722 0-1.096.126-1.135.564s1.05.7 1.272.452.532-1.005-.137-1.016z" fill="#fafafa"/><defs ><path id="B" d="M36.8 20.46c.02-.012.037-.027.05-.046s.023-.04.03-.063a.17.17 0 0 0 .002-.069c-.004-.023-.013-.045-.025-.064-.025-.04-.065-.066-.1-.076s-.093-.001-.132.024c-.533.336-1.084.642-1.65.918 0-.09 0-.186-.024-.28l1.85-.988c.04-.024.067-.062.078-.107s.004-.092-.02-.13c-.01-.02-.026-.038-.045-.052s-.04-.024-.06-.03a.17.17 0 0 0-.132.019l-1.706.91c-.07-.608-.174-1.21-.312-1.808.48-.773.9-1.577 1.286-2.407.01-.02.015-.043.016-.067s-.003-.046-.01-.068-.02-.04-.037-.058a.17.17 0 0 0-.056-.039c-.042-.02-.1-.02-.134-.004s-.078.05-.098.09a19.48 19.48 0 0 1-1.086 2.07l-.228-.78c.395-.67.747-1.367 1.05-2.084.018-.043.018-.092 0-.135s-.05-.078-.094-.096-.09-.017-.133 0-.077.052-.094.094a17.4 17.4 0 0 1-.876 1.776 15.55 15.55 0 0 0-1.279-2.767l.88-.35c.02-.008.04-.02.058-.035s.03-.034.04-.055.015-.043.015-.066-.004-.046-.012-.067c-.016-.044-.048-.08-.1-.1s-.1-.022-.134-.006l-.942.39a3.81 3.81 0 0 0-.231-.35l.56-.273a.17.17 0 0 0 .056-.039c.016-.017.03-.036.037-.058s.012-.045.01-.068-.006-.046-.016-.066c-.02-.042-.054-.075-.097-.092s-.092-.015-.134.004l-.617.3-.78-1.03c-.014-.018-.032-.032-.053-.043s-.043-.017-.065-.02-.046.001-.068.008-.042.02-.06.034-.034.035-.045.056-.017.046-.018.07L30.876 12c-.015-.018-.033-.033-.053-.043a.17.17 0 0 0-.133-.011c-.022.007-.042.02-.06.034-.035.03-.057.074-.06.12s.01.093.04.13c.357.412.69.845.995 1.296l-.172.09a15.25 15.25 0 0 0-1.401-1.825c-.016-.016-.036-.03-.057-.038s-.044-.014-.067-.014-.046.005-.067.014-.04.022-.057.038c-.023.02-.04.045-.046.074-.024-.033-.047-.066-.067-.102-.013-.02-.03-.036-.05-.05s-.04-.022-.064-.027-.046-.005-.07 0-.044.014-.064.027c-.038.025-.064.064-.074.11l-.05-.09c-.023-.04-.06-.07-.105-.083a.18.18 0 0 0-.133.013c-.04.023-.07.06-.082.105s-.007.092.016.133l1.24 2.407-.095.056c-.393-.928-.862-1.822-1.4-2.673-.012-.02-.028-.04-.047-.053s-.04-.025-.064-.03-.047-.007-.07-.003-.046.013-.066.025-.037.03-.05.05-.022.042-.027.065-.004.047.001.07.015.045.03.064c.536.848.998 1.74 1.384 2.666l-.235.14a25.51 25.51 0 0 0-1.499-2.981c-.01-.02-.026-.038-.045-.052a.17.17 0 0 0-.129-.034c-.023.003-.045.01-.064.023-.04.024-.07.063-.08.108s-.005.093.018.134c.567.96 1.068 1.96 1.5 2.988l-1.023.655c-.532-1.243-1.18-2.433-1.934-3.556-.013-.02-.03-.036-.048-.048s-.04-.02-.063-.026-.046-.004-.068.001a.17.17 0 0 0-.062.027c-.038.026-.065.066-.074.11s0 .092.025.13a21.68 21.68 0 0 1 1.93 3.556l-.932.64a37.28 37.28 0 0 0-2.168-3.854c-.026-.04-.066-.066-.11-.076s-.093-.001-.132.025-.066.066-.076.11-.001.093.025.132c.8 1.24 1.527 2.527 2.176 3.854l-.512.37-1.752-4.204c-.01-.02-.022-.04-.04-.056s-.036-.03-.058-.037-.045-.013-.068-.012-.046.005-.067.015c-.042.02-.075.053-.092.095s-.017.1.001.132l1.797 4.267-.322.242-1.6-4.36c-.008-.022-.02-.042-.035-.06s-.034-.03-.055-.042-.043-.016-.067-.017-.046.002-.068.01c-.033.01-.063.03-.084.058s-.034.06-.035.096a.2.2 0 0 0-.091 0c-.023.005-.044.014-.063.027s-.035.03-.048.048-.02.04-.026.063-.004.046 0 .068c.332 1.622.78 3.22 1.338 4.778l-1.87 1.615a16.54 16.54 0 0 1 .35-5.98.18.18 0 0 0-.023-.136.18.18 0 0 0-.248-.057.18.18 0 0 0-.08.112 16.97 16.97 0 0 0-.305 6.358l-.23.214a16.51 16.51 0 0 1 .175-5.955c.005-.022.006-.046.002-.068s-.012-.044-.025-.063a.17.17 0 0 0-.11-.075c-.023-.005-.046-.006-.07-.002s-.045.013-.064.026-.036.03-.05.05-.022.04-.027.064c-.446 2.08-.492 4.226-.137 6.323l-.172.168a14.9 14.9 0 0 1 .147-5.756c.01-.046-.001-.093-.026-.132s-.065-.067-.1-.078-.092.001-.13.027-.066.065-.076.1a15.22 15.22 0 0 0-.109 6.138l-.172.175c-.41-1.8-.387-3.672.07-5.46.013-.046.006-.096-.018-.138s-.064-.072-.1-.085-.096-.006-.138.018-.072.063-.085.1a12.04 12.04 0 0 0-.021 5.857l-.224.242a8.99 8.99 0 0 1-.2-4.445c.01-.046.003-.093-.02-.133s-.063-.07-.108-.08-.093-.003-.132.02-.068.063-.078.108c-.332 1.606-.24 3.27.263 4.83l-.396.445c-.03.035-.045.08-.042.128s.024.1.06.12c.01.008.023.015.035.02-.018.035-.024.075-.017.113s.026.074.055.1.073.043.116.042a.17.17 0 0 0 .071-.015c.022-.01.042-.025.058-.044l.26-.287.158.43-.382-.053c-.023-.004-.047-.003-.07.003s-.044.015-.063.03-.035.03-.047.05-.02.042-.024.065-.003.046.003.07.015.044.03.063.03.035.05.047.042.02.065.024c-.014.02-.025.043-.032.067-.008.042 0 .086.022.122s.057.064.097.077a.07.07 0 0 0 0 .028c-.005.023-.006.046-.002.07s.012.045.025.064.028.036.047.05.04.023.063.028l.627.133.08.168-.333-.063c-.023-.005-.046-.006-.07-.002s-.045.012-.064.025-.037.03-.05.047-.023.04-.028.063c-.01.046 0 .094.025.133s.065.067.11.077l.606.11.05.098-.277-.053c-.023-.005-.047-.005-.07 0s-.045.014-.064.027-.036.03-.05.05a.18.18 0 0 0-.027.134.18.18 0 0 0 .027.065c.013.02.03.036.05.05s.04.022.064.027l.57.105.095.165-.175-.063c-.022-.008-.045-.012-.068-.012s-.046.006-.067.015-.04.023-.056.04-.028.037-.037.06c-.016.043-.014.09.005.133s.054.075.097.09l.596.203c.02.028.04.056.056.084-.04-.013-.085-.01-.125.006s-.07.05-.09.088c-.01.02-.014.044-.015.067s.004.046.012.068.02.04.037.058.035.03.056.04c.147.067.312.126.483.186l.63.788.017.017c.025.014.052.02.08.02.017.003.035.003.053 0l.25-.077.51.606c.016.018.036.033.06.043a.18.18 0 0 0 .071.016c.044-.001.086-.017.12-.046.016-.016.03-.036.038-.057s.014-.044.014-.067-.005-.046-.014-.067-.022-.04-.038-.057l-.413-.49.112-.038c.35.487.75.967 1.177 1.44.016.018.036.033.058.044s.047.016.07.016c.043-.001.084-.017.116-.046.02-.02.035-.042.045-.067.02-.016.037-.037.048-.06a.17.17 0 0 0 .015-.076l.11.15c.017.022.04.04.064.052s.052.018.08.018c.037 0 .073-.012.102-.035.02-.013.035-.03.046-.05s.02-.04.024-.064.003-.046-.003-.07-.015-.043-.03-.062l-.872-1.317.942.035a15.59 15.59 0 0 0 2.687-.249l1.3 1.913c.017.02.038.038.062.05s.05.017.078.017c.038.001.075-.012.105-.035.02-.017.038-.038.05-.062s.017-.05.017-.078c.012.002.023.002.035 0 .02.003.042.003.063 0h.018l.024-.02.02-.028v-.042l.035.02h.017c.02.003.042.003.063 0h.087l.05-.042c.007-.008.013-.018.018-.028s.001-.02 0-.032.002-.023 0-.035.002-.014 0-.02c0-.024-.028-.788-.16-2.01l.497-.158a16.34 16.34 0 0 1-.186 1.969c-.004.023-.003.046.002.07s.015.044.028.063.03.035.05.047.04.02.064.024h.116c.04.001.08-.014.112-.04s.053-.063.06-.104c.02.014.043.024.067.028h.035c.036-.001.072-.013.1-.034s.052-.05.064-.085h.066c.04 0 .078-.014.11-.04s.053-.06.062-.098l.396-2.22.168-.074-.326 1.92c-.005.023-.005.046 0 .068s.013.044.026.063.03.036.048.05.04.022.063.026h.035c.04 0 .08-.014.11-.04s.053-.06.06-.1l.35-2.16.123-.056-.326 1.84c-.005.022-.005.046 0 .068s.013.044.026.063.03.036.048.05.04.022.063.026h.035c.04-.001.08-.015.1-.04s.053-.06.062-.1l.35-2.102.35-.182a11.82 11.82 0 0 1-.505 1.794c-.008.02-.012.044-.012.067s.006.045.015.066a.17.17 0 0 0 .098.091c.02.005.042.005.063 0 .036-.001.07-.012.1-.033s.052-.05.065-.083c.255-.696.447-1.414.575-2.144l.186-.11c-.098.544-.255 1.075-.47 1.584-.01.027-.016.056-.014.084s.012.057.027.08.037.045.062.06a.18.18 0 0 0 .082.024c.034 0 .068-.01.096-.03s.05-.045.065-.077a8.16 8.16 0 0 0 .55-1.979 15.49 15.49 0 0 0 1.443-1.051.17.17 0 0 0 .043-.053c.01-.02.017-.043.02-.065a.17.17 0 0 0-.008-.068c-.007-.022-.018-.042-.033-.06s-.035-.034-.056-.045-.046-.017-.07-.018l.29-.238c.017-.015.032-.033.042-.053a.17.17 0 0 0 .01-.133c-.007-.022-.02-.042-.034-.06-.03-.035-.074-.057-.12-.06s-.093.01-.13.04a13.3 13.3 0 0 1-1.296.995l.02-.238c.603-.407 1.175-.858 1.713-1.35.016-.016.03-.035.038-.056s.013-.044.013-.067-.005-.045-.013-.066-.022-.04-.038-.056c-.02-.023-.047-.04-.077-.046l.105-.07c.038-.026.065-.066.074-.11s0-.092-.025-.13-.065-.063-.11-.073l.09-.05c.04-.023.07-.06.084-.106s.007-.093-.016-.134-.06-.07-.106-.084-.093-.007-.134.015l-1.6.85a.83.83 0 0 0 0-.095c.633-.293 1.25-.624 1.843-.99zm-2.172.78l-.147.067v-.284l.144-.067c-.007.095 0 .19.004.27v.014zm.03.872v.116l-.172.095v-.133l.172-.077zm-2.887 2.214c0-.13 0-.263-.02-.396l.06-.02v.403l-.038.014zm.038.33v.277h-.024v-.27l.024-.007zm-1.895 1.282l-.035-.088.305-.07.02.084-.29.074zm.378.26l.406 1.727-.655-1.664.25-.063zm-3.53-1.068l.375-.266.6-.046-.536.308-.438.003zm5.955-4.554l-.186.217-.11-.84.182-.228a10.54 10.54 0 0 1 .123.865l-.01-.014zm.182-1.23l.277-.378.123.88-.27.35c-.024-.277-.07-.56-.12-.837l-.01-.014zm-8.408 6.726h.07l-.05.024-.02-.024zm-.217-.385l-.207-.382h.13l.19.39-.112-.007zm-.396-.753l-.07-.147h.154l.067.147h-.15zm-.238-.512l-.077-.172.182.02.067.168-.172-.017zm-.186-.932v.02h-.003l.003-.02zm-.056.368h.19v.035h-.196l.007-.035zm6.032-.564l.09.28-.526.112-.088-.217.105-.09.417-.084zm-.64.823l-.098.067-.038-.074.126-.02.01.028zm-.25-.35l.084-.066c.004.017.01.034.018.05l-.102.017zm-.25.4l.098.2-.298.042-.11-.196.308-.046zm2.2-.907l.35-.312.43-.123.02.252-.806.245.003-.063zm1.09-.974c.035-.032.067-.067.098-.098v.154l-.102.028.003-.084zm.046.445l.098-.032v.235l-.088.028c.028-.063.024-.14.014-.217l-.024-.014zm.438-.14l.196-.063v.214l-.182.07c.01-.06.01-.133.01-.207l-.024-.014zm-.032-.35c0-.087 0-.172-.025-.26l.235-.077v.26l-.2.077zm-1.345.396l-.298.074c0-.07-.025-.14-.04-.2l.718-.2a2.65 2.65 0 0 1-.357.357l-.025-.01zm-.88.73c0-.046-.028-.095-.046-.144l.322-.073-.277.217zm-1.752.35l-.214.165h-.053l-.144-.266.35-.053.06.154zm-.64.217a18.42 18.42 0 0 1-3.437 0c0-.02 0-.042-.025-.067h.168a24.37 24.37 0 0 0 3.153-.214l.14.28zm-3.29.382l1.506.063 1.653-.077-.3.217c-.934.055-1.87.043-2.803-.035l-.056-.168zm3.566.12v.028h-.063l.063-.028zm1.934-.48l.06.193-.452.09c.154-.087.284-.182.403-.28l-.01-.003zm.35-.105l.263-.07c0 .077.024.154.04.228l-.238.06-.063-.217zm.603-.16l.78-.235v.228l-.753.235a1.16 1.16 0 0 0-.021-.235l-.007.007zm1.12-.35l.07-.025v.228l-.067.024c.014-.073.007-.147.004-.235l-.007.007zm.413-.147l.168-.063v.228l-.147.056-.02-.22zm.518-.196l.18-.07v.2l-.172.074-.007-.214zm0-.378v-.196l.186-.067v.19l-.186.074zm0-.567c0-.088 0-.175-.017-.263l.193-.074v.273l-.175.063zm-.042-.63v-.137l.182-.207.02.27-.203.074zm-.368-.256l-.245.26-.105-.802.25-.287.098.834.003-.003zm-.553.58l-.12.038-.105-.7.126-.137.095.802.003-.003zm-.462.158l-.77.228.7-.7.067.476.003-.004zm-1.167.7c0 .07.028.14.04.207l-.392.09c-.007-.018-.013-.037-.018-.056l.217-.196.154-.046zm-1.167.47l-.11.02-.067-.172.466-.102-.29.252zm-.46.08l-.203.035-.074-.15.214-.042.063.158zm-.564.098l-.35.046-.07-.133.35-.063.067.15h.003zm-.722.095c-1.087.138-2.183.2-3.28.19v-.03c1.08-.024 2.156-.12 3.223-.284l.056.126zm-3.412-.193c-.305-.905-.54-1.833-.7-2.775l2.018-1.668a42.97 42.97 0 0 0 1.85 4.183c-1.05.155-2.11.24-3.17.26h.004zm-.35 0h-.2a16.54 16.54 0 0 1-.638-2.295l.217-.207c.146.848.35 1.685.613 2.505l.018-.003zm-.588 0h-.147a12.94 12.94 0 0 1-.575-1.836l.16-.16c.14.674.322 1.338.543 2l.018.007zm.417 1.08l.07.165H23.2l-.09-.172.098.007zm.238.536l.063.13h-.038l-.07-.13h.046zm1.4 1.012l-.203-.406 1.05.077-.578.35-.27-.02zm-.375-.764l-.074-.16 1.517.063h.58l-.35.228-1.688-.137.014.007zm3.605.025l.03.05h-.13l.098-.05zm.298-.186l.207-.13.154.3-.26.028-.102-.2zm.585-.19h.077l.126.32h-.042l-.16-.32zm.33.617l.046.123c-.018-.04-.038-.08-.06-.12l.014-.003zm.476.252l-.123-.308.382-.07.084.298-.343.08zm-.25-.623l-.13-.326.448-.09.098.35-.43.06.014.007zm.66-.497l.19-.05.053.35-.14.035a3.29 3.29 0 0 1-.116-.343l.014.007zm.53-.137l.7-.217c0 .126.017.26.02.385l-.683.203-.042-.378.003.007zm1.47-.483l.112-.046-.017.4-.095.04c-.017-.154-.014-.266-.014-.4l.014.007zm.473-.186l.18-.077c0 .13 0 .263-.025.392l-.175.084.007-.406.014.007zm.536-.23l.18-.08c0 .126-.018.25-.028.375l-.172.08.02-.375zm0-.39v-.2l.2-.084v.193l-.2.09zm0-.582v-.168l.22-.084v.158l-.22.095zm0-.54v-.277l.25-.098v.28l-.25.095zm-.032-.638c0-.172-.028-.35-.046-.515l.266-.326.035.743-.256.098zm.51-1.22l.308-.427.14 1.24-.378.165-.08-.995.01.017zm-.056-.518l-.144-.87.245-.35.18.827-.28.392zm-.242-1.342c-.28-1.263-.74-2.48-1.363-3.612l.193-.09c.605 1.056 1.075 2.183 1.4 3.356l-.23.347zm-.25.35l-.287.396c-.297-1.42-.768-2.795-1.4-4.1l.266-.13a13.21 13.21 0 0 1 1.412 3.829l.01.003zm-1.84-4.018l-.16-.312.217-.12.193.312-.25.12zm-.315.158l-.14.07-.13-.298.12-.066.14.29.01.004zm.154.312c.667 1.372 1.147 2.827 1.43 4.326l-.182.238a20.94 20.94 0 0 0-1.401-4.488l.154-.077zm.953 4.926l-.252.305c-.28-1.674-.72-3.318-1.314-4.908l.137-.07a20.29 20.29 0 0 1 1.419 4.67l.01.003zm-.557.652l-.137.15a28.07 28.07 0 0 0-1.419-5.115l.235-.13a26.21 26.21 0 0 1 1.321 5.094zm-.434.476l-.827.84c-.396-1.883-.95-3.73-1.654-5.52l1.05-.592c.648 1.702 1.127 3.463 1.43 5.258v.014zm-1.128 1.125l-.217.207-.214.053a50.92 50.92 0 0 0-2.119-5.311l.91-.568a34.14 34.14 0 0 1 1.639 5.605v.014zm-.77.35l-.606.13-2.028-4.96.557-.375a50.33 50.33 0 0 1 2.077 5.188v.018zm-.953.203l-.235.05-2.07-4.645.33-.235 1.976 4.813v.018zm-.595.11l-.35.063c-.72-1.412-1.364-2.864-1.923-4.347l.287-.2 1.986 4.477v.017zm-2.4-4.628l.27-.2v.02l-.27.19zm-3.465 3.45c.13.518.292 1.028.483 1.527h-.214l-.438-1.345.168-.182zm.92 2.557l.077.168-.214-.032-.084-.172.22.035zm.273.543l.067.123-.224-.035-.067-.12.224.032zm.27.504l.2.35-.228-.056-.19-.32.207.024zm.46.746l.13.19-.214-.046-.12-.182.203.038zm2-.105l.595-.382h.277l-.792.382h-.08zm1.643-.385c.326 0 .64-.032.953-.06l.207.35c-.645.083-1.294.125-1.944.126l.785-.434v.017zm1.338-.098l.235-.028.165.326-.203.032-.196-.33zm.568.62l.053.102-.16.032-.063-.102.172-.032zm1.296-.28v.042-.042zm-.09-.35l-.08-.287.095-.024c0 .102.028.2.04.298l-.053.014zm.35-.392l.638-.182v.277l-.606.19c0-.098-.014-.175-.024-.287l-.007.004zm1.345.263c-.002-.014-.002-.028 0-.042.002.014.002.028 0 .042zm.017-.42v-.263l.063-.024c0 .088 0 .182-.028.273l-.035.014zm.43-.434l.172-.07c0 .088-.017.172-.024.26l-.172.077.035-.266h-.01zm.54-.238l.15-.07c0 .088-.018.172-.028.256l-.147.074.035-.273-.01.014zm.515-.252l.403-.217-.032.252-.4.217.038-.266-.01.014zm.038-.406c0-.12 0-.23.017-.35l.417-.203c0 .11-.017.217-.028.322-.123.077-.26.14-.396.217l-.01.014zm.792-.74l.18-.098v.26l-.182.12.014-.294-.01.014zm-.35-.22l-.4.2v-.18l.403-.182c.032.035.032.087.028.137l-.02.014zm-.392-.35v-.147l.403-.165v.123l-.403.19zm0-.526v-.287l.385-.165v.287l-.385.165zm.834-1.05l-.133.063-.196-1.503.084-.126c.133.526.2 1.047.266 1.56l-.02.007zm-.35-2.042c-.02.038-.045.074-.07.112l-.196-.816.052-.084c.098.256.168.518.23.78l-.017.007zm-.378-1.18a15.12 15.12 0 0 0-1.156-2.802 15.36 15.36 0 0 1 1.198 2.729l-.042.073zm-2.028-3.594l.2.35-.186.084-.196-.33.172-.105zm-.666-.04l-.19.105-.883-1.5a14.76 14.76 0 0 1 1.072 1.415v-.01zm-1.46-1.363c.35.53.662 1.072.967 1.64l-.105.063-.862-1.692v-.01zm.7 2.197l.123.28-.126.063-.112-.277.116-.066zm-.42.25l.105.26-.235.126-.095-.25.224-.137zm-.526.322l.088.23-1.05.596-.066-.172 1.037-.645-.007-.01zm-1.317.85l.063.158-.928.582-.053-.105.925-.624-.007-.01zm-1.205.84l.042.088-.543.35-.024-.067a7.46 7.46 0 0 0 .532-.361l-.007-.01zm-.816.603l.02.052-.312.23v-.038l.29-.245zm-2.137-3.573l1.4 3.706-.256.203c-.456-1.278-.836-2.583-1.14-3.906l-.007-.003zm-2.848 8.408l.203-.214c.098.35.2.68.35 1.02l-.252-.02-.294-.78-.007-.004zm.7 1.752l.22.042.077.168-.207-.035c-.014-.077-.046-.133-.074-.193l-.017.018zm.294.56l.196.038c0 .032.032.067.05.098l-.19-.035-.056-.102zm.287.497l.172.032.147.263-.158-.046-.16-.25zm.6.697l.102.158-.112-.035-.112-.15.123.028zm.403.603l.193.26-.235-.28.042.02zm1.972.988l-.497-.732h.052a7.95 7.95 0 0 0 .434.743l.01-.01zm.116-1.026l.35-.154h.676c.728-.002 1.455-.053 2.175-.154l.07.112c-1.083.19-2.184.26-3.282.207l.01-.01zm3.976.038l.63 1.174-.76-1.146.13-.028zm1.43-.722v-.07l.56-.172v.06l-.57.193.01-.01zm1.64-.61c.002-.013.002-.026 0-.04l.172-.07v.032l-.172.077zm.547-.252v-.025l.137-.063v.017l-.137.07zm.508-.266l.35-.182-.35.19v-.007zm1.012-.977l-.193.12c0-.084.02-.165.028-.25l.19-.112c-.017.09-.028.172-.035.252l.01-.01zm.4-.914v-.214l1.107-.662-1.117.886.01-.01zm1.05-1.247l-1.05.63a.83.83 0 0 0 0-.095l1.037-.526.014-.01zm-1.4.32l-.16.077v-.112l.158-.07c-.004.045 0 .08 0 .116l.004-.01z"/><path id="C" d="M13.854 41.835c.718-1.815 2.207-4.88 4.593-6.712.228-.175.645.16.585.477-.46 2.473.214 6.046.487 7.315.056.266-.087.47-.326.466l-4.256-.053c-.68-.007-1.324-.883-1.082-1.492z"/><path id="D" d="M7.685 47.55C7.083 45.594 6.23 42 6.634 38.297c.04-.35.483-.568.627-.298 1.135 2.102 3.584 3.773 4.474 4.323.093.08.152.19.165.312s-.02.243-.095.34l-2.603 4.414c-.424.718-1.317.813-1.517.16z"/><path id="E" d="M26.308 101.242c3.727 1.835 7.234 5.135 17.25 5.1 6.915-.02 13.312-3.944 14.692-3.128s-3.254 4.29-9.71 5.58c-8.257 1.646-17.334.676-20.007-.613s-7.3-1.318-7.3-1.318l5.066-5.622z"/></defs></svg>