<svg xmlns="http://www.w3.org/2000/svg" xmlns:xlink="http://www.w3.org/1999/xlink" width="158" height="308" fill="none" xmlns:v="https://vecta.io/nano"><style><![CDATA[.B{fill:#263238}.C{fill:#d59780}.D{fill:#262626}.E{fill:#7086a9}.F{fill:#7081a9}.G{fill:#353d40}]]></style><path d="M133.505 41.488c.924-.527 1.673-6.87.924-11.455s1.33-5.547 2.265-4.123a7.58 7.58 0 0 1 1.109 2.709c2.13.608 4.05 1.79 5.547 3.42 2.34 2.635 5.085 5.852 3.902 12.536-.23 1.294-1.544 3.023-2.19 4.9-1.017 2.93 12.62 26.154 12.62 39.042 0 12.435-7.913 10.89-15.716 6.804-8.977-4.696-22.946-19.562-22.946-19.562l-6.712-24.194c9.134.666 10.17 2.09 15.772 9.06l12.776 16.327c-2.357-9.245-4.724-22.317-8.542-25.535" class="C"/><path d="M110.55 51.278c5.27.056 8.22.425 11.474 2.385s5.963 6.47 8.033 8.83 10.364 13.544 10.364 13.544l-2.57-11.593 11.436-3.162s3.45 7.692 5.686 13.267 3.698 11.538 2.718 17.482-4.15 7.48-9.245 6.268-10.577-4.114-23.196-15.57L111.38 69.926l-.832-18.647z" class="E"/><path d="M136.482 59.6l1.73 6.47c2.194-.015 4.374-.35 6.47-.998 4.096-1.12 5.103-2.718 5.103-2.718l-2.524-5.834s-5.02 3.402-10.78 3.08z" class="F"/><path d="M140.42 76.037c1.406 6.786 4.863 11.87 6.98 13.683 0 0-8.015-3.994-8.912-16.27l1.932 2.59z" fill="#37474f"/><path d="M147.743 29.007l-22.03-12.02c-.2-.134-.435-.21-.677-.22s-.48.047-.692.165l-1.987 1.128a1.37 1.37 0 0 0-.675 1.128l-1.442 13.054a3.22 3.22 0 0 0 .356 1.693c.27.52.678.96 1.178 1.266l22.03 12.02a1.4 1.4 0 0 0 1.295.102l2.135-1.22a1.39 1.39 0 0 0 .427-.471c.104-.188.164-.397.174-.61l1.442-13.09a3.2 3.2 0 0 0-.361-1.674c-.27-.515-.676-.946-1.173-1.247z" class="G"/><g fill="#000"><path opacity=".35" d="M145.69 30.172l-22.03-12.018c-.21-.136-.457-.21-.708-.21s-.496.072-.707.21l.11-.074 1.988-1.12c.21-.116.45-.17.69-.162s.475.085.677.217l22.03 12.02c.303.183.57.42.786.703l-2.016 1.12c.027.032.052.066.074.102a2.83 2.83 0 0 0-.897-.786z"/><path opacity=".45" d="M121.773 35.238l22.03 12.018a1.25 1.25 0 0 0 1.309.094 1.25 1.25 0 0 0 .495-.47c.118-.2.18-.428.174-.66l1.442-13.082c.04-.585-.083-1.17-.354-1.7s-.68-.956-1.18-1.26l-22.03-12.018a1.25 1.25 0 0 0-1.31-.094c-.205.108-.376.27-.495.47s-.178.428-.174.66l-1.442 13.035a3.23 3.23 0 0 0 .346 1.714c.27.53.682.972 1.19 1.282z"/><path opacity=".35" d="M145.302 38.215a1.47 1.47 0 0 1 .491.568c.112.228.162.482.147.736.001.097-.025.193-.075.276s-.122.15-.208.196-.183.065-.28.06-.2-.04-.27-.096c-.213-.14-.385-.332-.497-.56s-.16-.48-.14-.735c-.003-.098.022-.195.07-.28s.12-.154.207-.2a.53.53 0 0 1 .554.035z"/></g><use xlink:href="#B" class="G"/><use xlink:href="#B" opacity=".7" fill="#fff"/><path d="M143.175 44.456L143.1 45l-19.7-10.798c-.22-.155-.398-.36-.522-.598a1.68 1.68 0 0 1-.19-.771l1.544-13.035.48.268-1.48 12.5c-.004.27.06.538.183.778s.306.446.53.6l19.23 10.52z" class="G"/><path opacity=".55" d="M149.287 31.956l-1.452 13.09a1.38 1.38 0 0 1-.173.612c-.104.188-.25.35-.428.47-.36.23-1.775 1.035-2.135 1.22-.028.008-.056.008-.084 0 .226-.1.418-.264.554-.47a1.3 1.3 0 0 0 .214-.695l1.442-13.082a3.23 3.23 0 0 0-.73-2.274l2.043-1.156a3.21 3.21 0 0 1 .749 2.284z" fill="#000"/><path d="M133.135 41.488c-.712-.656-.878-2.7-2.043-4.53-1.35-2.108-4.706-1.738-3.754 0s1.24 3.217 1.794 7.47 1.507 4.623 3.217 7.026l1.156-9.716-.37-.25z" class="C"/><path d="M142.602 18.588c-.263-.228-.47-.513-.604-.834a2.25 2.25 0 0 1-.172-1.015l.13-2.912c0-.72.435-1.072.925-.786a2.28 2.28 0 0 1 .598.836 2.27 2.27 0 0 1 .169 1.013l-.13 2.912c-.064.73-.462 1.082-.915.786zm-6.258-1.322a1.89 1.89 0 0 1-.684-1.119l-.814-3.116c-.194-.777 0-1.5.388-1.6s.925.435 1.1 1.202l.813 3.116c.194.777 0 1.498-.388 1.6a.56.56 0 0 1-.22.002.55.55 0 0 1-.204-.085zM153.456 57a1.49 1.49 0 0 1-.407-.444l-1.525-2.478c-.2-.3-.3-.62-.35-.966a2.22 2.22 0 0 1 .12-1.021c.26-.48.776-.37 1.155.25l1.535 2.478c.187.292.305.623.343.968a2.28 2.28 0 0 1-.12 1.02.47.47 0 0 1-.13.182.48.48 0 0 1-.62.013zm2.404-9.965L154 45.86a2.25 2.25 0 0 1-.6-.835 2.26 2.26 0 0 1-.168-1.014c0-.73.426-1.082.925-.786l1.85 1.174c.263.228.47.513.604.834a2.25 2.25 0 0 1 .172 1.015c-.1.786-.48 1.1-.933.786zM152.8 35.1a1.85 1.85 0 0 1-.694-1.12c-.203-.777 0-1.498.4-1.6l1.654-.434c.416-.1.925.425 1.12 1.202s0 1.488-.388 1.6l-1.664.435a.53.53 0 0 1-.217.002.52.52 0 0 1-.199-.085zm-4.2-9.995c-.165-.118-.303-.27-.407-.444a2.29 2.29 0 0 1-.339-.964 2.27 2.27 0 0 1 .117-1.015l1.045-1.94c.25-.48.767-.37 1.156.25.187.292.304.623.343.968s-.003.694-.12 1.02l-1.036 1.932a.48.48 0 0 1-.332.286.49.49 0 0 1-.427-.092z" fill="#e0e0e0"/><path d="M75.418 302.096c-.342 1.36-1.063 5.205-8.22 5.205s-11.25-2.93-12.657-6.564-.6-6.324-.47-9.495-2.22-5.186-2.773-6.896c-.767-2.524 1.34-6 1.34-6l22.78 23.74zm67.036-19.73c.184.567.25 1.166.192 1.76a4.35 4.35 0 0 1-.525 1.69c-.517.702-5.315 4.178-11.232 3.457-4.344-.428-8.522-1.9-12.185-4.262-3.458-2.034-5.843-2.33-9.365-2.32s-5.927-.657-6.222-1.535c-.5-1.553-.546-2.55.203-2.524l39.134 3.735z" fill="#fff"/><path d="M55.052 273.15c0 6.518 12.472 7.7 12.167 2.46l4.354-15.236-14.108-1.497-2.413 14.274z" class="C"/><path d="M75.326 298.842c-.462-1.24-2.043-3.153-2.7-4.3a35.03 35.03 0 0 1-4.696-19.618c0-.38.074-1.12-.268-1.396s-.767 0-1.193.11c-.734.2-1.495.3-2.256.268-2.524-.065-5.186-1.045-5.824-1.045-.5 0-.84 1.48-1.026 3.097-.804-.675-.925-1.85-1.655-2.58-.38-.407-.564-.444-.47-1.026l.176-1.082c-.6-.268-1.48 2.1-2.265 3.9-.925 2.07-1.997 4.4-1.442 6.722a19.09 19.09 0 0 0 1.507 3.698c1.092 2.017 1.676 4.27 1.7 6.564l-.25 2.986c.002 1.68.488 3.327 1.4 4.74a8.76 8.76 0 0 0 3.741 3.229c4.096 1.923 10.55 2.598 14.737.12 1.414-.887 1.267-3.152.786-4.39z" class="B"/><path d="M105.834 267.834c3.532 2.533 6.786 2.848 10.937.767l2.1-22.188H103.57l2.265 21.42z" class="C"/><path d="M71.926 126.19c-2.796 25.88-6.617 77.196-6.617 77.196s-4.27 7.782-5.928 20.25c-2.06 15.407-4.474 44.707-4.474 44.707s7.26 4.677 14.325 2.412c0 0 16.16-46.214 19.386-61.41 2.796-13.235 7.218-28.035 7.218-28.035l6.81 24.588c-1.62 5.866-2.298 11.948-2.013 18.023.307 7.126 3.13 34.356 3.13 34.356 2.34 2.2 11.334 2.486 14.335.59l4.94-52.822c.83-9.844 2.368-80.413 2.368-80.413l-53.48.555z" class="B"/><path d="M95.836 181.31l4.294-28.42s7.71-2.414 13.22-6.833c0 0-2.016 5.076-10.465 8.968l-3.812 23.047 3.885 29.14-7.123-25.902z" fill="#000"/><path d="M139.42 277.92c-5.842-2.18-11.528-4.733-15.124-7.266-.84-.575-1.653-1.192-2.432-1.85-1.488-1.49-2.394-4.743-3.032-5.113-.213-.12-.51 0-.925.287a1.05 1.05 0 0 0-.684-.407l-.083.925c-1.206.777-2.57 1.276-3.994 1.46-3.587.453-3.698-.26-3.846.925-.035.43-.035.863 0 1.294-1.914-.24-3.43-.795-3.54-1.516l-.296-2.367c-1.895-.092-1.895 3.29-2.376 7.12-.388 3.088-1.044 5.344-.1 7.58 2.95 2.385 7.97 1.6 10.862 1.96 4.096.518 6.102 3.457 11.825 5.205 9.245 2.773 14.847-1.045 16.493-2.69 1.054-2.052.453-4.382-2.737-5.547z" class="B"/><path d="M94.352 52.194c-7.22 1.1-15.485 1.673-20.552 2.367-5.547.75-7.507 5.27-7.507 14.792 0 13.932 7.128 37.165 7.128 37.165l-1.942 23.76c6.472 6.925 37.535 9.957 54.092-.203v-55.22c-.785-14.016-8.893-22.983-14.06-23.38 0-.046-4.752-1.165-17.16.72z" class="E"/><g class="D"><path d="M87.344 8.9s-3.957.545-5.408 3.532c-1.267 2.598-.814 8.866.87 15.717s3.273 10.946 4.262 12.84c.66 1.164 1.743 2.03 3.023 2.422l-.194-8.108-.296-5.65s3.624-4.955 4.03-9.014c.508-5.214-.592-7.396-.592-7.396L87.344 8.9z"/><path d="M83.17 16.26c.012 3.207 1.224 6.338 3.48 9s5.458 4.73 9.198 5.948 7.852 1.528 11.815.892 7.598-2.2 10.448-4.465 4.784-5.17 5.56-8.316.356-6.406-1.205-9.364-4.19-5.483-7.56-7.255-7.327-2.71-11.37-2.7a25.11 25.11 0 0 0-7.815 1.253c-2.476.82-4.724 2.02-6.615 3.53s-3.39 3.3-4.407 5.27-1.537 4.078-1.527 6.207z"/></g><path d="M89.832 28.72c-1.36 1.183-2.468-1.85-3.615-3.06s-4.88-2.773-6.73 1.11 1.7 9.44 4.502 10.734c4.096 1.85 5.926-2.228 5.926-2.228l.435 17.048c4.308 7.766 13.138 5.187 14.487 8.737.805-3.153 4.956-4.623 1.988-8.07v-5.547s4.623.684 6.823.333c3.698-.592 5.667-3.393 6.786-7.396 1.793-6.472 2.514-17.362 0-29.935-4.16-3.226-18.61-2.7-27.356 2.848.62 11.122-1.877 14.256-3.245 15.43z" class="C"/><path d="M106.76 47.433s-8.32-1.646-11.215-3.18a9.54 9.54 0 0 1-4.031-3.957c.446 1.696 1.225 3.287 2.293 4.678 2.136 2.71 12.943 4.678 12.943 4.678l.01-2.22z" fill="#d08f77"/><path d="M104.837 26.206a1.66 1.66 0 0 1-1.071 1.491c-.305.116-.637.14-.956.07s-.61-.235-.835-.47-.38-.532-.438-.852a1.67 1.67 0 0 1 .105-.952c.128-.3.34-.556.613-.737s.59-.276.918-.277c.223.004.443.05.647.14a1.68 1.68 0 0 1 .544.378c.155.16.276.35.357.558a1.69 1.69 0 0 1 .116.652z" class="B"/><path d="M106.205 23.31l-7.22.47a2.31 2.31 0 0 1 .519-2.174c.54-.604 1.39-.984 2.37-1.062.478-.026.972.026 1.452.153s.936.325 1.34.583a3.89 3.89 0 0 1 1.014.92 2.82 2.82 0 0 1 .526 1.109z" class="D"/><path d="M105.456 37.31l5.307 1.978c-.113.357-.298.687-.542.97a2.77 2.77 0 0 1-1.955.96c-.374.02-.748-.036-1.1-.165a2.96 2.96 0 0 1-1.71-3.744z" fill="#b16668"/><path d="M107.166 41.054a2.68 2.68 0 0 0 1.47.111c-.028-.663-.31-1.3-.8-1.75a2.58 2.58 0 0 0-1.78-.719 2.36 2.36 0 0 0-.721.12 2.88 2.88 0 0 0 .61 1.364c.32.393.737.694 1.21.874z" fill="#f28f8f"/><path d="M120.034 22.485l-4.08-.37a1.96 1.96 0 0 1 .187-.785c.116-.246.282-.465.487-.643s.445-.312.705-.392a1.96 1.96 0 0 1 .803-.075c.546.064 1.047.334 1.4.756a2.15 2.15 0 0 1 .499 1.511z" class="D"/><path d="M118.584 25.65c-.013.326-.12.642-.312.907a1.67 1.67 0 0 1-.761.584c-.306.116-.64.14-.957.067s-.61-.236-.835-.472-.378-.533-.436-.855-.02-.653.11-.953.344-.556.617-.735.593-.274.92-.272c.222.005.44.053.645.143a1.7 1.7 0 0 1 .541.379 1.69 1.69 0 0 1 .354.557 1.68 1.68 0 0 1 .115.65z" class="B"/><path d="M109.83 25.53l-.746 9.48 5.426-1.124-4.1-8.436c-.197-.02-.396.008-.58.08z" fill="#c27e65"/><path d="M96.035 21.657L83.86 24.43c1.1.302 2.072.95 2.773 1.85l9.384-1.775.018-2.847z" class="B"/><g class="F"><path d="M90.23 47.544c-1.054.083-1.525.24-2.385 1.96l-1.85 3.698a11.78 11.78 0 0 0 3.569 7.581c3.532 3.578 11.362 6.01 11.362 6.01s.647-3.624 1.147-5.113c1.1-3.254 2.773-.666 2.773-.666-.116-.72-.437-1.4-.924-1.932-.703-.62-5.187-1.008-8.755-3.254-2.243-1.514-3.96-3.688-4.91-6.222l-.028-2.062z"/><path d="M104.836 61.06a3.7 3.7 0 0 1 .155-1.536c.16-.495.422-.952.77-1.34a6.99 6.99 0 0 0 1.007-4.354v-4.89c1.22.157 2.117.37 2.876 2.256s2.144 5.74 1.516 9.513-2.247 5.02-2.247 5.02l-1.516-4.622c-.592-1.433-1.683-1.895-2.56-.046z"/></g><path d="M74.55 54.43c-3.27.17-6.4 1.345-8.992 3.36s-4.48 4.777-5.44 7.91l-10.4 31.35c-5.482-2.644-18.767-9.07-21.41-11.408a49 49 0 0 1-6.767-7.257 32.65 32.65 0 0 1-3.236-4.881c-1.12-2.12-1.995-4.358-2.607-6.675-.703-2.043-3.328.11-3.29 3.763.072 1.998.465 3.97 1.165 5.843l-5.75-.564c-2.062-.166-8.404-.055-7.775 3.3.148.75.656 1.442.582 2.2a4.81 4.81 0 0 1-.305 1.045c-.203.66-.225 1.364-.062 2.036s.503 1.288.987 1.782a3.08 3.08 0 0 1 .925 1.562 4.79 4.79 0 0 0 .601 1.849 7.61 7.61 0 0 0 1.193 1.045 6.12 6.12 0 0 1 1.174 1.683c.293.626.673 1.208 1.128 1.73 1.128 1.174 2.95.87 4.42.85 1.97 0 4.456-.5 6.583-.277 3.892.925 18.093 13.442 30.25 20.052 4.16 2.265 7.563 3.393 10.17 1.997 2.228-.878 3.32-3.32 4.743-6.804l11.575-29.963c3.17-9.023 2.92-21.106.545-25.535z" class="C"/><path d="M11.415 77.6c1.96 0 2.847.98 3.652 3.55.47 1.526 1.85 4.18 3.874 4.743a4.07 4.07 0 0 1-2.45-.213c-1.045-.536-1.285-.555-1.562.046a3.08 3.08 0 0 1-.925 1.035 2.06 2.06 0 0 1 .971 2.274c-.36 1.58-3.892 2.774-7.294 2.256 0 0 5.205-.102 5.797-1.97S10.943 86.4 8.91 86.54c0 0 4.918-.434 5.113-2.163s-2.062-2.228-4.974-2.015c0 0 3.994-.583 4.216-2.07.26-1.82-1.183-2.358-1.85-2.7z" fill="#d08f77"/><path d="M76.36 54.246c-3.985-.083-7.61.564-10.78 2.866S60.96 60.745 56.8 73.448l-7.58 22.937L34 89.303a30.51 30.51 0 0 1-6.213 12.213s10.022 7.914 15.17 11.16 10.983 6.166 13.7 5.26 3.698-1.544 7.34-10.79l11.15-28.354s4.373-13.415 1.202-24.546z" class="E"/><path d="M38.18 91.245L30.44 87.15s-2.163 7.396-6.536 11.538l8.126 6.11s6.314-5.307 6.148-13.553z" class="F"/><path d="M49.208 96.385c5.852 3.273 8.07 7.46 8.07 7.46s-.84-5.908-7.22-10.003l-.85 2.542z" fill="#37474f"/><path d="M124.86 20.51l-.823-.074c-2.654-.185-6.13-.14-8.22.582-2.616.924-3.54 1.85-4.992 1.923s-2.533-.823-5.335-1.525c-2.228-.564-5.935-.333-8.773.065l-.878.14a1.47 1.47 0 0 0-.98 1.516 3.27 3.27 0 0 0 .85 1.701 2.22 2.22 0 0 1 .287.684c.305 1.183.5 3.476 1.082 4.724a5.86 5.86 0 0 0 1.119 1.673 5.62 5.62 0 0 0 .573.481l.333.213a4.86 4.86 0 0 0 .989.444l.167.046.258.074.278.056c.287.055.577.09.87.102h.84c3.606-.12 5.103-1.932 6-3.772s.657-4.39 2.32-4.447h.305c1.23.24 1.08 2.59 1.85 4.243.29.663.69 1.272 1.183 1.803.086.096.178.186.277.268l.148.13.158.13.147.102.158.102.12.074.083.055a4.96 4.96 0 0 0 1.433.527h.14c.58.106 1.168.143 1.756.11 1.108.024 2.196-.302 3.108-.93s1.605-1.53 1.977-2.573c.462-1.574.805-3.18 1.026-4.807a1.47 1.47 0 0 1 .305-.638 3.49 3.49 0 0 0 .758-1.784c.047-.693-.443-1.368-.896-1.415zm-17.29 7.396a5.66 5.66 0 0 1-1.248 2.561 5.14 5.14 0 0 1-1.788 1.217c-.676.274-1.403.4-2.132.373-.722.067-1.45-.053-2.112-.35s-1.237-.76-1.67-1.342l-.12-.176-.11-.176a1.5 1.5 0 0 1-.093-.166l-.083-.148-.055-.12a.56.56 0 0 1-.046-.111l-.083-.176c-.074-.176-.13-.35-.185-.518l-.092-.314-.12-.5a.48.48 0 0 1 0-.102v-.092c-.277-1.248-.6-3.698 0-4.3s2.256-1.23 4.937-1.063h.286a9.12 9.12 0 0 1 1.23.166l.47.102c.41.088.81.206 1.202.35l.36.14.397.176h.084l.138.083a2.3 2.3 0 0 1 .805.629c.48.795.323 2.44.027 3.864v-.01zm15.652-1.137c-.212 1-.656 3.143-2.533 4.142a4.62 4.62 0 0 1-1.997.518 4.19 4.19 0 0 1-4.012-1.738.72.72 0 0 1-.074-.111l-.083-.13v-.074l-.11-.194c-.04-.075-.074-.152-.102-.23l-.055-.11a.35.35 0 0 1 0-.065.24.24 0 0 1 0-.093V28.6a6.74 6.74 0 0 1-.259-.925c-.278-1.396-.426-3.023.074-3.818s2.487-1.73 4.39-2.034l1.24-.148h1.266c.205.017.41.045.61.083h.397l.176.055.323.25h.056c.24.1.46.237.656.407.62.518.296 3.032.037 4.3v-.01z" class="B"/><path d="M105.018 61.32c1.4 21.145 3.947 65.548 2.82 74.006" stroke="#29344e" stroke-width=".846"/><path d="M117.705 25.374L117 24.67s.5-.195.705 0 0 .705 0 .705zm-14.097.79l-.704-.705s.5-.195.704 0 0 .705 0 .705z" fill-opacity=".8" stroke-opacity=".8" fill="#fff" stroke="#fff" stroke-width=".141"/><path fill-rule="evenodd" d="M121.896 32.06c-.705 6.373-1.83 16.532-10.534 15.763-7.046-.622-19.03-2-19.735-7.648-.564-4.51-1.644-9.398-2.114-11.277.96 1.598 1.715 4.095 2.413 6.4.84 2.777 1.597 5.274 2.52 5.582l.902.31c1.633.573 2.833.994 4.032.394.627-.313 1.36-1.6 2.12-2.935.95-1.668 1.94-3.408 2.815-3.408 1.41 0 6.137.5 7.048 1.4s1.4 7.048 1.4 7.048c1.644-.235 5.78-2.96 9.162-11.982l-.038.343zm-17.582 4.6c1.4 0 5.965 1.032 6.343 1.4.705.705 1.16 3.82.705 4.934-.445 1.096-9.163-1-9.867-1.4s1.41-4.934 2.82-4.934z" fill-opacity=".3" class="D"/><defs ><path id="B" d="M123.4 34.203c-.223-.15-.405-.355-.53-.594a1.63 1.63 0 0 1-.183-.774l1.544-13.035 19.72 10.807c.22.153.4.358.525.596a1.66 1.66 0 0 1 .187.772l-1.544 13.017-19.72-10.79z"/></defs></svg>