<svg width="16" height="16" viewBox="0 0 16 16" fill="none" xmlns="http://www.w3.org/2000/svg">
<path fill-rule="evenodd" clip-rule="evenodd" d="M6 11.3334L8 9.37335C7.74 9.34669 7.54667 9.33335 7.33333 9.33335C5.55333 9.33335 2 10.2267 2 12V13.3334H8L6 11.3334ZM7.33333 8.00002C8.80667 8.00002 10 6.80669 10 5.33335C10 3.86002 8.80667 2.66669 7.33333 2.66669C5.86 2.66669 4.66667 3.86002 4.66667 5.33335C4.66667 6.80669 5.86 8.00002 7.33333 8.00002Z" fill="#C4C4C4"/>
<path fill-rule="evenodd" clip-rule="evenodd" d="M10.3133 13.6667L8 11.3334L8.93333 10.3934L10.3133 11.78L13.7333 8.33337L14.6667 9.27337L10.3133 13.6667Z" fill="#C4C4C4"/>
</svg>
