<svg width="16" height="16" viewBox="0 0 16 16" fill="none" xmlns="http://www.w3.org/2000/svg">
<path d="M7.86668 7.26667C6.35335 6.87333 5.86668 6.46667 5.86668 5.83333C5.86668 5.10667 6.54001 4.6 7.66668 4.6C8.85335 4.6 9.29335 5.16667 9.33335 6H10.8067C10.76 4.85333 10.06 3.8 8.66668 3.46V2H6.66668V3.44C5.37335 3.72 4.33335 4.56 4.33335 5.84667C4.33335 7.38667 5.60668 8.15333 7.46668 8.6C9.13335 9 9.46668 9.58667 9.46668 10.2067C9.46668 10.6667 9.14002 11.4 7.66668 11.4C6.29335 11.4 5.75335 10.7867 5.68002 10H4.21335C4.29335 11.46 5.38668 12.28 6.66668 12.5533V14H8.66668V12.5667C9.96668 12.32 11 11.5667 11 10.2C11 8.30667 9.38002 7.66 7.86668 7.26667Z" fill="#C4C4C4"/>
</svg>
