<svg width="26" height="26" viewBox="0 0 26 26" fill="none" xmlns="http://www.w3.org/2000/svg">
<g clip-path="url(#clip0)">
<path d="M18.8875 17.71C18.08 17.71 17.3575 18.0288 16.805 18.5281L9.22939 14.1187C9.28251 13.8744 9.32501 13.63 9.32501 13.375C9.32501 13.12 9.28251 12.8756 9.22939 12.6313L16.72 8.26438C17.2938 8.79563 18.0481 9.125 18.8875 9.125C20.6513 9.125 22.075 7.70125 22.075 5.9375C22.075 4.17375 20.6513 2.75 18.8875 2.75C17.1238 2.75 15.7 4.17375 15.7 5.9375C15.7 6.1925 15.7425 6.43687 15.7956 6.68125L8.30501 11.0481C7.73126 10.5169 6.97689 10.1875 6.13751 10.1875C4.37376 10.1875 2.95001 11.6113 2.95001 13.375C2.95001 15.1387 4.37376 16.5625 6.13751 16.5625C6.97689 16.5625 7.73126 16.2331 8.30501 15.7019L15.87 20.1219C15.8169 20.345 15.785 20.5788 15.785 20.8125C15.785 22.5231 17.1769 23.915 18.8875 23.915C20.5981 23.915 21.99 22.5231 21.99 20.8125C21.99 19.1019 20.5981 17.71 18.8875 17.71Z" fill="#055EFF"/>
</g>
<defs>
<clipPath id="clip0">
<rect width="25.5" height="25.5" fill="white"/>
</clipPath>
</defs>
</svg>
