<svg width="16" height="16" viewBox="0 0 16 16" fill="none" xmlns="http://www.w3.org/2000/svg">
<path d="M9.73001 10.7068V10.3706L9.39836 10.3155C7.37988 9.98008 5.84334 8.2296 5.84334 6.11344C5.84334 3.75252 7.75242 1.84344 10.1133 1.84344C12.4743 1.84344 14.3833 3.75252 14.3833 6.11344C14.3833 8.3029 12.7366 10.1028 10.6201 10.3529L10.27 10.3942V10.7468V13.3334V13.7301H10.6667H12.27V14.2701H2.39668V11.3334V10.9368H2.00001H1.73001V8.66678C1.73001 8.51918 1.85242 8.39678 2.00001 8.39678H4.00001C4.1476 8.39678 4.27001 8.51918 4.27001 8.66678V10.9368H4.00001H3.60334V11.3334V13.3334V13.7301H4.00001H9.33334H9.73001V13.3334V10.7068ZM3.60334 6.33344C3.60334 6.6677 3.33427 6.93678 3.00001 6.93678C2.66575 6.93678 2.39668 6.6677 2.39668 6.33344C2.39668 5.99918 2.66575 5.73011 3.00001 5.73011C3.33427 5.73011 3.60334 5.99918 3.60334 6.33344Z" fill="#11DE9A" stroke="#11DE9A" stroke-width="0.793333"/>
</svg>
