<svg width="26" height="26" viewBox="0 0 26 26" fill="none" xmlns="http://www.w3.org/2000/svg">
<g clip-path="url(#clip0)">
<path d="M18.9375 17.96C18.13 17.96 17.4075 18.2788 16.855 18.7781L9.27938 14.3687C9.3325 14.1244 9.375 13.88 9.375 13.625C9.375 13.37 9.3325 13.1256 9.27938 12.8813L16.77 8.51438C17.3438 9.04563 18.0981 9.375 18.9375 9.375C20.7013 9.375 22.125 7.95125 22.125 6.1875C22.125 4.42375 20.7013 3 18.9375 3C17.1737 3 15.75 4.42375 15.75 6.1875C15.75 6.4425 15.7925 6.68687 15.8456 6.93125L8.355 11.2981C7.78125 10.7669 7.02688 10.4375 6.1875 10.4375C4.42375 10.4375 3 11.8612 3 13.625C3 15.3888 4.42375 16.8125 6.1875 16.8125C7.02688 16.8125 7.78125 16.4831 8.355 15.9519L15.92 20.3719C15.8669 20.595 15.835 20.8288 15.835 21.0625C15.835 22.7731 17.2269 24.165 18.9375 24.165C20.6481 24.165 22.04 22.7731 22.04 21.0625C22.04 19.3519 20.6481 17.96 18.9375 17.96Z" fill="white"/>
</g>
<defs>
<clipPath id="clip0">
<rect width="25.5" height="25.5" fill="white" transform="translate(0.0499878 0.25)"/>
</clipPath>
</defs>
</svg>
