<svg width="13" height="12" viewBox="0 0 13 12" fill="none" xmlns="http://www.w3.org/2000/svg">
<path d="M10.9349 6.81698V2.26463C10.9349 1.39539 10.2273 0.687744 9.35805 0.687744C8.94015 0.687744 8.53896 0.854905 8.24364 1.15022L7.54714 1.84673C7.45799 1.81887 7.36326 1.80215 7.26296 1.80215C7.04008 1.80215 6.83392 1.86902 6.66118 1.98046L8.19907 3.51834C8.31051 3.3456 8.37737 3.13944 8.37737 2.91656C8.37737 2.81626 8.36066 2.72711 8.33837 2.63238L9.03487 1.93588C9.11845 1.8523 9.23546 1.80215 9.35805 1.80215C9.61436 1.80215 9.82053 2.00832 9.82053 2.26463V6.81698H6.00368C5.83652 6.69997 5.68608 6.56624 5.54678 6.41579L4.76669 5.55213C4.66082 5.43512 4.5271 5.34039 4.38222 5.27353C4.20949 5.18995 4.02004 5.14537 3.82502 5.14537C3.13409 5.15094 2.57688 5.70815 2.57688 6.39908V6.81698H0.905273V10.1602C0.905273 10.7731 1.40676 11.2746 2.01968 11.2746C2.01968 11.5811 2.27042 11.8318 2.57688 11.8318H10.3777C10.6842 11.8318 10.9349 11.5811 10.9349 11.2746C11.5479 11.2746 12.0493 10.7731 12.0493 10.1602V6.81698H10.9349Z" fill="#3D3F40"/>
</svg>
