<svg width="15" height="13" viewBox="0 0 15 13" fill="none" xmlns="http://www.w3.org/2000/svg">
<path d="M12.8132 1.55261C12.6646 1.11428 12.2485 0.802246 11.7582 0.802246H3.58588C3.09554 0.802246 2.68692 1.11428 2.53091 1.55261L0.985596 6.00281V11.9463C0.985596 12.3549 1.31992 12.6893 1.72853 12.6893H2.47147C2.88009 12.6893 3.21441 12.3549 3.21441 11.9463V11.2034H12.1297V11.9463C12.1297 12.3549 12.464 12.6893 12.8726 12.6893H13.6155C14.0242 12.6893 14.3585 12.3549 14.3585 11.9463V6.00281L12.8132 1.55261ZM3.58588 8.97456C2.96924 8.97456 2.47147 8.47679 2.47147 7.86016C2.47147 7.24352 2.96924 6.74575 3.58588 6.74575C4.20252 6.74575 4.70029 7.24352 4.70029 7.86016C4.70029 8.47679 4.20252 8.97456 3.58588 8.97456ZM11.7582 8.97456C11.1416 8.97456 10.6438 8.47679 10.6438 7.86016C10.6438 7.24352 11.1416 6.74575 11.7582 6.74575C12.3748 6.74575 12.8726 7.24352 12.8726 7.86016C12.8726 8.47679 12.3748 8.97456 11.7582 8.97456ZM2.47147 5.25987L3.58588 1.91665H11.7582L12.8726 5.25987H2.47147Z" fill="#3D3F40"/>
</svg>
