<svg xmlns="http://www.w3.org/2000/svg" width="29" height="18" fill="none"><path d="M0 13.298c8.212-4.29 16.724 3.64 25.287 0V.97C16.687 4.337 8.663-2.393 0 .97v12.327z" fill="#3d3f40"/><path d="M1.3 1.61l-.206 9.866c7.78-2.595 15.098 3.396 23.016 1.162l-.092-9.908C16.207 4.76 9.12-.48 1.3 1.61zM21 12.073c-2.27.018-4.317-.283-6.532-.77 1.048-.492 1.708-1.76 1.717-3.28.01-1.45-.8-3.284-1.912-4.243 2.232.515 4.304.845 6.6.85.018.993.967 2.2 1.954 1.965l.055 3.634c-.975.234-1.89.85-1.872 1.843zM2.46 4.677c.98-.257 1.93-1.556 1.977-2.532 2.163-.154 4.215.266 6.3.733-1.122.47-1.917 1.757-2.01 3.342-.077 1.34.595 3.1 1.608 4.006-2.078-.46-4.123-.896-6.27-.733.048-.98-.804-1.473-1.752-1.2l.135-3.606z" fill="#f9f9f9"/><path d="M13.797 6.24c-.046-.062-.097-.12-.154-.17-.078-.07-.16-.136-.246-.197-.098-.07-.2-.13-.307-.188a2.15 2.15 0 0 0-.338-.144l-.01 1.244.112.054.595.33a2.45 2.45 0 0 1 .447.35 1.42 1.42 0 0 1 .284.4 1.27 1.27 0 0 1 .094.52 1.01 1.01 0 0 1-.117.517c-.076.127-.2.228-.323.3-.15.068-.315.102-.48.1a2.32 2.32 0 0 1-.595-.074v.632l-.317-.083V9.2a4.19 4.19 0 0 1-.846-.397 3.82 3.82 0 0 1-.727-.583l.327-.493c.057.075.12.144.192.206a3.21 3.21 0 0 0 .307.24 3.86 3.86 0 0 0 .377.238 2.96 2.96 0 0 0 .424.2l.01-1.242-.074-.042-.075-.04-.563-.326a2.01 2.01 0 0 1-.394-.329c-.1-.108-.178-.233-.234-.37a1.15 1.15 0 0 1-.071-.449 1.07 1.07 0 0 1 .114-.493c.068-.13.17-.24.295-.318a1.05 1.05 0 0 1 .437-.145 1.91 1.91 0 0 1 .546.026v-.607l.307.08v.607c.257.08.503.193.73.338a3.74 3.74 0 0 1 .587.469l-.318.477zM11.8 5.876a.55.55 0 0 0 .045.23.7.7 0 0 0 .135.2 2.48 2.48 0 0 0 .537.364l.012-1.184a.77.77 0 0 0-.541.029c-.06.04-.1.095-.14.16s-.045.138-.04.2H11.8zm1.733 2.46a.59.59 0 0 0-.212-.461 3.25 3.25 0 0 0-.596-.4l-.01 1.2a1.04 1.04 0 0 0 .604.014c.07-.025.13-.073.17-.136s.058-.138.05-.213l-.008.006zm5.117-.02a1.05 1.05 0 0 0 .99 1.028.96.96 0 0 0 .374-.07c.12-.048.226-.12.316-.212s.16-.2.206-.32a.96.96 0 0 0 .064-.375 1 1 0 0 0-.987-.965.88.88 0 0 0-.367.05.9.9 0 0 0-.595.864zM6.558 5.835c-.02.254-.137.5-.328.66a.97.97 0 0 1-.696.242.9.9 0 0 1-.922-.943 1.03 1.03 0 0 1 .314-.686 1.02 1.02 0 0 1 .7-.284.96.96 0 0 1 .933 1.014z" fill="#b3b3b3"/><path d="M2.718 17.014c8.212-4.287 16.724 3.64 25.287 0V4.688c-8.6 3.367-16.63-3.365-25.286 0v12.326z" fill="#3d3f40"/><path d="M4.018 5.326L3.81 15.2c7.78-2.592 15.097 3.404 23.018 1.164l-.092-9.905c-7.812 2.017-14.9-3.21-22.718-1.124zM23.72 15.8c-2.272.02-4.318-.283-6.532-.776 1.048-.5 1.706-1.76 1.717-3.28.005-1.442-.8-3.287-1.914-4.243 2.234.515 4.304.844 6.592.85.018.993.967 2.2 1.954 1.965l.055 3.636c-.976.24-1.89.856-1.872 1.85zM5.173 8.393c.976-.252 1.932-1.554 1.982-2.535 2.16-.154 4.215.266 6.31.735-1.122.472-1.918 1.756-2.01 3.342-.08 1.34.595 3.1 1.61 4.005-2.083-.466-4.126-.895-6.272-.726.048-.98-.804-1.474-1.752-1.2l.13-3.61z" fill="#f9f9f9"/><path d="M16.515 9.954a1.3 1.3 0 0 0-.162-.171 2.5 2.5 0 0 0-.246-.195c-.098-.07-.2-.132-.308-.188s-.22-.112-.338-.154l-.01 1.244.114.054.593.33a2.46 2.46 0 0 1 .444.357 1.37 1.37 0 0 1 .283.412c.07.163.105.34.1.516a1 1 0 0 1-.118.517.73.73 0 0 1-.323.294 1.12 1.12 0 0 1-.48.103c-.198 0-.395-.025-.587-.074v.63l-.317-.085V12.9a4.13 4.13 0 0 1-.846-.397c-.266-.164-.5-.358-.727-.58l.326-.494a1.71 1.71 0 0 0 .194.206 3.05 3.05 0 0 0 .298.24 3.52 3.52 0 0 0 .377.238 3.29 3.29 0 0 0 .436.198l.012-1.242c-.024-.015-.05-.03-.075-.04s-.05-.026-.075-.04l-.56-.326c-.145-.092-.277-.202-.394-.328a1.21 1.21 0 0 1-.234-.37 1.14 1.14 0 0 1-.077-.441 1.1 1.1 0 0 1 .114-.493.83.83 0 0 1 .297-.318 1.02 1.02 0 0 1 .437-.145 1.82 1.82 0 0 1 .546.025v-.606l.307.078v.615c.256.082.5.198.724.344a3.81 3.81 0 0 1 .587.469l-.312.46zm-1.998-.363a.56.56 0 0 0 .18.424c.16.146.342.268.536.364l.01-1.182a.77.77 0 0 0-.54.029.4.4 0 0 0-.181.364h-.006zm1.734 2.46a.59.59 0 0 0-.214-.461 3.21 3.21 0 0 0-.595-.4l-.01 1.2a1.04 1.04 0 0 0 .604.014c.07-.026.13-.074.17-.136s.058-.137.05-.2l-.006.005zm5.117-.02c.006.265.1.518.295.708a1.06 1.06 0 0 0 .697.322.95.95 0 0 0 .372-.073.92.92 0 0 0 .314-.213.95.95 0 0 0 .269-.692 1 1 0 0 0-.988-.965.9.9 0 0 0-.958.913zM9.274 9.55a.97.97 0 0 1-1.018.898.9.9 0 0 1-.923-.942 1.03 1.03 0 0 1 .314-.686 1.02 1.02 0 0 1 .7-.284.96.96 0 0 1 .927 1.015z" fill="#b3b3b3"/></svg>