<svg xmlns="http://www.w3.org/2000/svg" width="21" height="19" fill="#3d3f40"><path d="M20.6 9.46c-.224-.398-.747-.548-1.17-.3l-2.838 1.643-.722.423v3.934l.672.398c.025 0 .025.025.05.025L19.37 17.2c.125.1.3.15.473.15a.84.84 0 0 0 .846-.846V13.17l.025-3.286c0-.15-.025-.3-.124-.423zM4 8.2c2.216 0 4.008-1.793 4.008-4.008S6.224.174 4 .174A4.01 4.01 0 0 0 0 4.182C-.025 6.398 1.793 8.2 4 8.2zm0-5.65a1.643 1.643 0 1 1 0 3.286 1.66 1.66 0 0 1-1.643-1.643C2.34 3.26 3.087 2.54 4 2.54z"/><path d="M14.166 8.414c-.647.324-1.37.523-2.14.523a4.66 4.66 0 0 1-2.59-.772H6.598c-.747.498-1.643.772-2.6.772-.772 0-1.494-.174-2.14-.523-.573.324-.97.97-.97 1.668v6.075c0 1.12.92 2.017 2.017 2.017h10.232c1.12 0 2.017-.92 2.017-2.017v-6.075c-.025-.697-.423-1.344-.996-1.668zm-2.14-.214c2.216 0 4.008-1.793 4.008-4.008S14.24.174 12.025.174 8.017 1.966 8.017 4.182 9.8 8.2 12.025 8.2zm0-5.65a1.643 1.643 0 1 1 0 3.286 1.66 1.66 0 0 1-1.643-1.643c0-.92.722-1.643 1.643-1.643z"/></svg>