<svg xmlns="http://www.w3.org/2000/svg" xmlns:xlink="http://www.w3.org/1999/xlink" width="68" height="77" fill="none"><path opacity=".25" d="M41.71 0L0 19.038l26.29 57.666L68 57.666 41.71 0z" fill="url(#A)"/><path d="M41.374.667L.724 19.22l25.708 56.392 40.65-18.553L41.374.667z" fill="#f9f9f9"/><path d="M30.506 3.827L10.34 13.03l2.228 4.888 20.166-9.204-2.228-4.888z" fill="url(#B)"/><path d="M18.245 3.653c-1.556.71-2.23 2.58-1.502 4.175s2.58 2.312 4.136 1.6 2.23-2.58 1.502-4.175-2.58-2.312-4.135-1.6zm2.076 4.554a1.83 1.83 0 0 1-2.024-.286 1.83 1.83 0 0 1-.551-.916c-.09-.353-.07-.725.053-1.068a1.83 1.83 0 0 1 1.648-1.21 1.83 1.83 0 0 1 1.034.27c.3.19.556.47.708.8a1.81 1.81 0 0 1 .065 1.384 1.81 1.81 0 0 1-.932 1.025v-.001z" fill="url(#C)"/><g fill="#3d4143"><path d="M30.295 3.928l-19.74 9 2.13 4.673 19.74-9-2.13-4.673z"/><path d="M18.342 3.866c-.546.25-1.006.655-1.32 1.165s-.473 1.103-.452 1.703.22 1.18.57 1.667.838.86 1.4 1.07a3.03 3.03 0 0 0 1.758.111c.584-.138 1.114-.446 1.523-.885s.68-1 .775-1.582.015-1.2-.234-1.747c-.334-.732-.945-1.302-1.698-1.584a3.03 3.03 0 0 0-2.32.082zm1.985 4.354a1.75 1.75 0 0 1-1.919-.312 1.75 1.75 0 0 1-.446-1.893 1.75 1.75 0 0 1 1.577-1.137A1.75 1.75 0 0 1 21.193 5.9a1.75 1.75 0 0 1-.866 2.319v.001z"/></g><path d="M15.502 23.51l-8.703 3.972 3.97 8.71 8.703-3.972-3.97-8.71z" fill="url(#D)"/><path d="M23.4 40.753l-8.703 3.972 3.97 8.71 8.704-3.972-3.97-8.71z" fill="url(#E)"/><path d="M15.328 23.973l-8.066 3.682 3.68 8.07 8.066-3.682-3.68-8.07z" fill="#404b50"/><path d="M23.123 41.07l-8.066 3.682 3.68 8.07 8.066-3.682-3.68-8.07z" fill="#3d4143"/><path d="M32.827 18.997L21.77 24.043l.352.772L33.18 19.77l-.352-.772zm7.728-2.13L22.3 25.2l.352.772 18.256-8.332-.352-.772zm-.76 1.745l-16.97 7.745.352.772 16.97-7.745-.352-.772zm.826 17.482L29.565 41.14l.352.772 11.056-5.046-.352-.772zm7.728-2.13l-18.256 8.332.352.772L48.7 34.738l-.352-.772zM47.6 35.7l-16.97 7.745.352.772 16.97-7.745-.352-.772z" fill="#e0e0e0"/><path d="M11.085 30.204l2.077.675.683-4 1.01.277L13.72 32.1l-3.133-1.374.498-.523z" fill="url(#F)"/><path d="M11.35 30.15l1.806.586.594-3.478.878.24-.988 4.3-2.724-1.194.434-.455zm7.843 17.205L21 47.94l.594-3.478.878.24-.988 4.3L18.76 47.8l.434-.455z" fill="#f9f9f9"/><path d="M53.867 47.758L28.076 59.53l3.92 8.602L57.79 56.36l-3.92-8.602z" fill="#e0e0e0"/><path d="M50.128 54.614c-.99-.283-2.006-.23-2.32.905-.107.382-.12.976-.53 1.172-.603.3-1.33-.3-1.854-.526-.975-.44-1.976-.14-2.54.785-.286.47-.41 1.01-.506 1.543-.042.232-.048.518-.145.737-.187.418-.772.38-1.156.364-.084 0-.17-.01-.256-.02a2.27 2.27 0 0 0 .429-1.444c-.025-.848-.575-1.775-1.537-1.67-.86.09-1.468.922-1.37 1.764.082.716.548 1.27 1.146 1.61l-.884.365a3.72 3.72 0 0 0-.377.21c-.838-.405-1.94-.48-2.693-.068-.365.2-.098.793.268.592.574-.314 1.208-.235 1.808-.036l.05.018a1.62 1.62 0 0 0-.157.243c-.34.66 0 1.7.825 1.772 1.163.1 1.218-1.438.586-2.05l-.082-.075c.26-.126.544-.22.794-.328a3.3 3.3 0 0 0 .617-.344l.045.012c.888.2 2.275.264 2.594-.813.274-.934.3-2.92 1.776-2.735.602.074 1.096.537 1.668.704.513.153 1.106.16 1.526-.218.347-.31.425-.77.53-1.2.054-.222.108-.487.29-.645.327-.285.866-.117 1.23-.013.398.113.63-.496.225-.6zm-11.54 7.57c-.196.194-.403.04-.508-.163-.127-.247-.072-.5.1-.708a1.2 1.2 0 0 1 .085-.102c.387.25.704.61.337.973h-.004zm.687-4.833c.403-.374.963-.292 1.203.222s.134 1.24-.202 1.692c-.045.06-.094.115-.148.166-.234-.078-.45-.202-.638-.364-.476-.43-.745-1.224-.212-1.718l-.004.003z" fill="#3d4143"/><defs><linearGradient id="A" x1="47.145" y1="67.185" x2="20.83" y2="9.53" xlink:href="#G"><stop stop-color="gray" stop-opacity=".25"/><stop offset=".54" stop-color="gray" stop-opacity=".12"/><stop offset="1" stop-color="gray" stop-opacity=".1"/></linearGradient><linearGradient id="B" x1="12718.1" y1="-4884.47" x2="12584.2" y2="-5177.77" xlink:href="#G"><stop stop-color="gray" stop-opacity=".25"/><stop offset=".54" stop-color="gray" stop-opacity=".12"/><stop offset="1" stop-color="gray" stop-opacity=".1"/></linearGradient><linearGradient id="C" x1="3753.71" y1="-970.431" x2="3567.43" y2="-1378.57" xlink:href="#G"><stop stop-color="gray" stop-opacity=".25"/><stop offset=".54" stop-color="gray" stop-opacity=".12"/><stop offset="1" stop-color="gray" stop-opacity=".1"/></linearGradient><linearGradient id="D" x1="5147.31" y1="1159.37" x2="4722.37" y2="228.348" xlink:href="#G"><stop stop-color="gray" stop-opacity=".25"/><stop offset=".54" stop-color="gray" stop-opacity=".12"/><stop offset="1" stop-color="gray" stop-opacity=".1"/></linearGradient><linearGradient id="E" x1="6006.11" y1="3015.87" x2="5581.14" y2="2084.76" xlink:href="#G"><stop stop-color="gray" stop-opacity=".25"/><stop offset=".54" stop-color="gray" stop-opacity=".12"/><stop offset="1" stop-color="gray" stop-opacity=".1"/></linearGradient><linearGradient id="F" x1="2358.77" y1="694.912" x2="2244.97" y2="445.589" xlink:href="#G"><stop stop-color="gray" stop-opacity=".25"/><stop offset=".54" stop-color="gray" stop-opacity=".12"/><stop offset="1" stop-color="gray" stop-opacity=".1"/></linearGradient><linearGradient id="G" gradientUnits="userSpaceOnUse"/></defs></svg>