<svg xmlns="http://www.w3.org/2000/svg" width="20" height="19" fill="#3d3f40"><path d="M0 4.014v4.582c0 .316.257.573.573.573s.573-.257.573-.573l.033-6.453C.482 2.477 0 3.2 0 4.014zm18.377-1.872L18.4 7.38v1.215c0 .316.257.573.573.573s.573-.257.573-.573v-4.58c0-.824-.482-1.536-1.18-1.87zM15.513.174H4.044a1.72 1.72 0 0 0-1.719 1.719v12.272a1.72 1.72 0 0 0 1.197 1.638v.82a1.55 1.55 0 0 0 .044.367c.165.68.778 1.185 1.507 1.185.714 0 1.317-.486 1.497-1.144a1.55 1.55 0 0 0 .055-.407v-.74h6.308v.74c0 .14.02.277.055.407.18.658.782 1.144 1.497 1.144.73 0 1.342-.506 1.507-1.185a1.55 1.55 0 0 0 .044-.367v-.82a1.72 1.72 0 0 0 1.197-1.638V1.892a1.72 1.72 0 0 0-1.72-1.718zM5.972 12.9c0 .316-.257.573-.573.573s-.573-.256-.573-.573v-1.374c0-.316.257-.573.573-.573s.573.257.573.573V12.9zm8.758 0c0 .316-.257.573-.573.573s-.573-.256-.573-.573v-1.374c0-.316.257-.573.573-.573s.573.257.573.573V12.9zm1.356-4.724H3.47v-4.24h12.615v4.24z"/></svg>