<svg xmlns="http://www.w3.org/2000/svg" width="28" height="18" fill="#3d3f40"><path d="M23.413.174H1.956v1.223h21.457V.174zm-6.205 5.4h2.812l-1.04-3.73h-2.568l.795 3.73zm5.685 0h2.904l-2.384-3.73h-1.926l1.406 3.73zM4.187 1.855h-2.23L0 5.584h2.934l1.253-3.73zm4.463 3.73l.825-3.73h-2.63l-1.04 3.73H8.65zm2.812 0h2.904l-.336-3.73h-2.2l-.367 3.73zM8.6 10.016H4.77v1.926H8.6v-1.926zm-3.363 4.83a.46.46 0 0 0 .458-.458.46.46 0 0 0-.458-.458.46.46 0 0 0-.458.458.46.46 0 0 0 .458.458zm20.295-6.42h-1.895V7.54c.214.153.5.245.795.245.795 0 1.437-.642 1.437-1.437v-.52h-2.873v.52c0 .795-.642 1.437-1.437 1.437s-1.437-.642-1.437-1.437v-.52H17.24v.52c0 .795-.642 1.437-1.437 1.437s-1.437-.642-1.437-1.437v-.52h-2.873v.52c0 .795-.642 1.437-1.437 1.437S8.62 7.142 8.62 6.348v-.52H5.746v.52c0 .795-.642 1.437-1.437 1.437s-1.437-.642-1.437-1.437v-.52H0v.52c0 .795.642 1.437 1.437 1.437.122 0 .214-.03.336-.03v8.833H.917v.886h23.535v-.886h-.856v-2.904h3.912V8.426H25.52zm-16.14 8.16h-5.5v-7.52h5.502v7.52zm12.073-1.253h-10.4V9.16h10.392v6.174zm3.118-2.292h-.948V9.068h.948v3.974z"/></svg>