<svg xmlns="http://www.w3.org/2000/svg" xmlns:xlink="http://www.w3.org/1999/xlink" width="17" height="18" fill="none"><g clip-path="url(#A)"><g fill="#212121"><path d="M15.526 7.363c1.102-2.094.245-3.976-1.922-4.533C13.008.668 11.118-.162 9.042.982 6.946-.13 5.063.736 4.504 2.894c-2.15.59-2.982 2.49-1.846 4.565-1.104 2.094-.245 3.974 1.917 4.533.596 2.155 2.49 2.98 4.57 1.85 2.09 1.1 3.974.245 4.53-1.924 2.155-.59 2.987-2.486 1.85-4.555z"/><path d="M8.112 17.985h1.973l-.744-9.47 1.367-1.74-.015-.01L9.307 8.1l-.265-3.355-.106.002-.437 6.987-1.895-2.34-.027.015 1.873 3.124-.34 5.46zM3.436 18H.972v-7.6l1.205-.707 1.26.707V18z"/><path d="M6.386 18H3.922v-7.6l1.205-.707 1.26.707V18zm3.16 0H7.08v-7.6l1.205-.707 1.26.707V18zm2.95 0H10.03v-7.6l1.205-.707 1.26.707V18z"/><path d="M12.9 11.675H.557c-.052 0-.093.042-.093.093v1.443c0 .05.042.093.093.093H12.9c.05 0 .093-.042.093-.093v-1.44c0-.05-.042-.093-.093-.093zm0 3.75H.557c-.052 0-.093.042-.093.093v1.443c0 .052.042.093.093.093H12.9c.05 0 .093-.042.093-.093v-1.44c0-.052-.042-.093-.093-.093z"/><use xlink:href="#B"/><use xlink:href="#C"/><use xlink:href="#D"/><path d="M3.225 13.008c0-.033-.013-.064-.036-.087s-.054-.036-.087-.036-.064.013-.087.036-.036.054-.036.087.013.064.036.087.054.036.087.036.064-.013.087-.036.036-.054.036-.087zm-1.797 2.717c0-.033-.013-.064-.036-.087s-.054-.036-.087-.036-.064.013-.087.036-.036.054-.036.087.013.064.036.087.054.036.087.036.064-.013.087-.036.036-.054.036-.087z"/><use xlink:href="#E"/><path d="M3.225 15.725c0-.033-.013-.064-.036-.087s-.054-.036-.087-.036-.064.013-.087.036-.036.054-.036.087.013.064.036.087.054.036.087.036.064-.013.087-.036.036-.054.036-.087z"/><use xlink:href="#F"/><path d="M4.378 11.975c-.001-.032-.014-.063-.037-.086s-.054-.036-.086-.037c-.028.006-.054.02-.072.043s-.028.05-.028.08.01.057.028.08.044.038.072.043c.032-.001.063-.014.086-.037s.036-.054.037-.086zm0 1.033c0-.033-.013-.064-.036-.087s-.054-.036-.087-.036-.064.013-.087.036-.036.054-.036.087.013.064.036.087.054.036.087.036.064-.013.087-.036.036-.054.036-.087zm1.797-1.033c0-.033-.013-.064-.036-.087s-.054-.036-.087-.036c-.025-.001-.05.006-.07.02s-.037.033-.047.056a.13.13 0 0 0-.008.073c.004.025.017.047.034.065s.04.03.065.034a.13.13 0 0 0 .073-.008c.023-.01.042-.026.056-.047s.02-.046.02-.07zm0 1.033c0-.033-.013-.064-.036-.087s-.054-.036-.087-.036-.064.013-.087.036-.036.054-.036.087.013.064.036.087.054.036.087.036.064-.013.087-.036.036-.054.036-.087zm-1.797 2.717c0-.033-.013-.064-.036-.087s-.054-.036-.087-.036-.064.013-.087.036-.036.054-.036.087.013.064.036.087.054.036.087.036.064-.013.087-.036.036-.054.036-.087zm0 1.03c0-.033-.013-.064-.036-.087s-.054-.036-.087-.036-.064.013-.087.036-.036.054-.036.087.013.064.036.087.054.036.087.036.063-.014.086-.037.036-.054.037-.086zm1.797-1.03c0-.033-.013-.064-.036-.087s-.054-.036-.087-.036-.064.013-.087.036-.036.054-.036.087.013.064.036.087.054.036.087.036.064-.013.087-.036.036-.054.036-.087zm0 1.03c0-.033-.013-.064-.036-.087s-.054-.036-.087-.036-.064.013-.087.036-.036.054-.036.087.014.063.037.086.054.036.086.037a.12.12 0 0 0 .087-.036c.023-.023.036-.054.036-.087zm1.362-4.78c-.001-.032-.014-.063-.037-.086s-.054-.036-.086-.037c-.028.006-.054.02-.072.043s-.028.05-.028.08.01.057.028.08.044.038.072.043c.032-.001.063-.014.086-.037s.036-.054.037-.086zm0 1.033c0-.033-.013-.064-.036-.087s-.054-.036-.087-.036-.064.013-.087.036-.036.054-.036.087.013.064.036.087.054.036.087.036.064-.013.087-.036.036-.054.036-.087zm1.79-1.033a.12.12 0 0 0-.022-.068c-.014-.02-.033-.035-.056-.044s-.047-.01-.07-.006-.045.017-.062.034-.028.04-.033.063a.12.12 0 0 0 .007.07c.01.022.025.04.045.055s.044.02.068.02c.016 0 .032-.003.048-.01s.03-.016.04-.027.02-.026.026-.04.01-.03.01-.048z"/><use xlink:href="#G"/><path d="M7.537 15.725c0-.033-.013-.064-.036-.087s-.054-.036-.087-.036-.064.013-.087.036-.036.054-.036.087.013.064.036.087.054.036.087.036.064-.013.087-.036.036-.054.036-.087zm0 1.03c0-.033-.013-.064-.036-.087s-.054-.036-.087-.036-.064.013-.087.036-.036.054-.036.087.013.064.036.087.054.036.087.036.063-.014.086-.037.036-.054.037-.086zm1.79-1.03c0-.024-.007-.048-.02-.068s-.033-.036-.055-.045a.12.12 0 0 0-.07-.007.13.13 0 0 0-.063.034c-.017.017-.03.04-.034.063s-.002.048.007.07.025.04.045.055.044.02.068.02c.033 0 .064-.013.087-.036s.036-.054.036-.087zm0 1.03c0-.033-.013-.064-.036-.087s-.054-.036-.087-.036-.064.013-.087.036-.036.054-.036.087.013.064.036.087.054.036.087.036.064-.013.087-.036.036-.054.036-.087zm1.16-4.78c-.001-.032-.014-.063-.037-.086s-.054-.036-.086-.037c-.028.006-.054.02-.072.043s-.028.05-.028.08.01.057.028.08.044.038.072.043c.032-.001.063-.014.086-.037s.036-.054.037-.086zm0 1.033c0-.033-.013-.064-.036-.087s-.054-.036-.087-.036-.064.013-.087.036-.036.054-.036.087.013.064.036.087.054.036.087.036.064-.013.087-.036.036-.054.036-.087zm1.797-1.033c0-.033-.013-.064-.036-.087s-.054-.036-.087-.036c-.025-.001-.05.006-.07.02s-.037.033-.047.056a.13.13 0 0 0-.008.073c.004.025.017.047.034.065s.04.03.065.034a.13.13 0 0 0 .073-.008c.023-.01.042-.026.056-.047s.02-.046.02-.07zm0 1.033c0-.033-.013-.064-.036-.087s-.054-.036-.087-.036-.064.013-.087.036-.036.054-.036.087.013.064.036.087.054.036.087.036.064-.013.087-.036.036-.054.036-.087zm-1.797 2.717c0-.033-.013-.064-.036-.087s-.054-.036-.087-.036-.064.013-.087.036-.036.054-.036.087.013.064.036.087.054.036.087.036.064-.013.087-.036.036-.054.036-.087zm0 1.03c0-.033-.013-.064-.036-.087s-.054-.036-.087-.036-.064.013-.087.036-.036.054-.036.087.013.064.036.087.054.036.087.036.063-.014.086-.037.036-.054.037-.086zm1.797-1.03c0-.033-.013-.064-.036-.087s-.054-.036-.087-.036-.064.013-.087.036-.036.054-.036.087.013.064.036.087.054.036.087.036.064-.013.087-.036.036-.054.036-.087zm0 1.03c0-.033-.013-.064-.036-.087s-.054-.036-.087-.036-.064.013-.087.036-.036.054-.036.087.014.063.037.086.054.036.086.037a.12.12 0 0 0 .087-.036c.023-.023.036-.054.036-.087z"/></g><path d="M15.062 6.892c1.102-2.094.245-3.976-1.922-4.533C12.55.204 10.654-.626 8.6.508 6.494-.594 4.612.263 4.052 2.43 1.9 3.02 1.058 4.91 2.194 6.995c-1.104 2.086-.23 3.974 1.917 4.54.596 2.155 2.49 2.987 4.57 1.85 2.09 1.1 3.974.245 4.53-1.924 2.155-.6 2.987-2.494 1.85-4.57z" fill="#3d3f40"/><path d="M7.648 17.52H9.62l-.744-9.47 1.367-1.738-.015-.01-1.387 1.323-.265-3.355-.106.002-.437 6.987L6.14 8.92l-.027.015 1.873 3.124-.34 5.46z" fill="#c5c5c5"/><g fill="#f9f9f9"><path d="M2.972 17.536H.508v-7.6l1.205-.707 1.26.707v7.6zm2.95 0H3.458v-7.6l1.205-.707 1.26.707v7.6zm3.158 0H6.617v-7.6l1.205-.707 1.26.707v7.6zm2.95 0H9.567v-7.6l1.205-.707 1.26.707v7.6z"/></g><g fill="#3d3f40"><path d="M12.446 11.2H.093c-.052 0-.093.042-.093.093v1.443c0 .052.042.093.093.093h12.353c.052 0 .093-.042.093-.093v-1.443c0-.052-.042-.093-.093-.093zm0 3.752H.093c-.052 0-.093.042-.093.093v1.443c0 .05.042.093.093.093h12.353c.052 0 .093-.042.093-.093v-1.443c0-.052-.042-.093-.093-.093z"/></g><g fill="#67707a"><path d="M.965 11.5c-.001-.032-.014-.063-.037-.086s-.054-.036-.086-.037c-.028.006-.054.02-.072.043s-.028.05-.028.08.01.057.028.08.044.038.072.043c.032-.001.063-.014.086-.037s.036-.054.037-.086zm0 1.032c0-.033-.013-.064-.036-.087s-.054-.036-.087-.036-.064.013-.087.036-.036.054-.036.087.013.064.036.087.054.036.087.036.064-.013.087-.036.036-.054.036-.087z"/><use xlink:href="#H"/><path d="M2.76 12.542c0-.033-.013-.064-.036-.087s-.054-.036-.087-.036-.064.013-.087.036-.036.054-.036.087.013.064.036.087.054.036.087.036.064-.013.087-.036.036-.054.036-.087zM.965 15.26c0-.033-.013-.064-.036-.087s-.054-.036-.087-.036-.064.013-.087.036-.036.054-.036.087.013.064.036.087.054.036.087.036.064-.013.087-.036.036-.054.036-.087zm0 1.032c0-.033-.013-.064-.036-.087s-.054-.036-.087-.036-.064.013-.087.036-.036.054-.036.087.013.064.036.087.054.036.087.036.063-.014.086-.037.036-.054.037-.086zM2.76 15.26c0-.033-.013-.064-.036-.087s-.054-.036-.087-.036-.064.013-.087.036-.036.054-.036.087.013.064.036.087.054.036.087.036.064-.013.087-.036.036-.054.036-.087zm0 1.032c0-.033-.013-.064-.036-.087s-.054-.036-.087-.036-.064.013-.087.036-.036.054-.036.087.014.063.037.086.054.036.086.037a.12.12 0 0 0 .087-.036c.023-.023.036-.054.036-.087zM3.927 11.5c-.001-.032-.014-.063-.037-.086s-.054-.036-.086-.037c-.028.006-.054.02-.072.043s-.028.05-.028.08.01.057.028.08.044.038.072.043c.032-.001.063-.014.086-.037s.036-.054.037-.086zm0 1.032c0-.033-.013-.064-.036-.087s-.054-.036-.087-.036-.064.013-.087.036-.036.054-.036.087.013.064.036.087.054.036.087.036.064-.013.087-.036.036-.054.036-.087zM5.7 11.5c0-.033-.013-.064-.036-.087s-.054-.036-.087-.036c-.025-.001-.05.007-.07.02s-.037.033-.047.056a.13.13 0 0 0-.008.073c.004.025.017.047.034.065s.04.03.065.034a.13.13 0 0 0 .073-.008c.023-.01.042-.026.056-.047s.02-.046.02-.07zm0 1.032c0-.033-.013-.064-.036-.087s-.054-.036-.087-.036-.064.013-.087.036-.036.054-.036.087.013.064.036.087.054.036.087.036.064-.013.087-.036.036-.054.036-.087zM3.927 15.26c0-.033-.013-.064-.036-.087s-.054-.036-.087-.036-.064.013-.087.036-.036.054-.036.087.013.064.036.087.054.036.087.036.064-.013.087-.036.036-.054.036-.087zm0 1.032c0-.033-.013-.064-.036-.087s-.054-.036-.087-.036-.064.013-.087.036-.036.054-.036.087.013.064.036.087.054.036.087.036.063-.014.086-.037.036-.054.037-.086zM5.7 15.26c0-.033-.013-.064-.036-.087s-.054-.036-.087-.036-.064.013-.087.036-.036.054-.036.087.013.064.036.087.054.036.087.036.064-.013.087-.036.036-.054.036-.087zm0 1.032c0-.033-.013-.064-.036-.087s-.054-.036-.087-.036-.064.013-.087.036-.036.054-.036.087.014.063.037.086.054.036.086.037a.12.12 0 0 0 .087-.036c.023-.023.036-.054.036-.087zM7.073 11.5c-.001-.032-.014-.063-.037-.086s-.054-.036-.086-.037c-.028.006-.054.02-.072.043s-.028.05-.028.08.01.057.028.08.044.038.072.043c.032-.001.063-.014.086-.037s.036-.054.037-.086zm0 1.032c0-.033-.013-.064-.036-.087s-.054-.036-.087-.036-.064.013-.087.036-.036.054-.036.087.013.064.036.087.054.036.087.036.064-.013.087-.036.036-.054.036-.087zM8.87 11.5c0-.024-.008-.048-.022-.067s-.033-.035-.056-.044-.047-.01-.07-.006-.045.017-.062.034-.028.04-.033.063a.12.12 0 0 0 .007.07c.01.022.025.04.045.055s.044.02.068.02c.016 0 .032-.003.048-.01s.03-.016.04-.027.02-.025.026-.04.01-.03.01-.048zm0 1.032c0-.024-.007-.048-.02-.068s-.033-.036-.055-.045a.12.12 0 0 0-.07-.007c-.023.005-.046.016-.063.034s-.03.04-.034.063-.002.048.007.07.025.042.045.055.044.02.068.02c.033 0 .064-.013.087-.036s.036-.054.036-.087zM7.073 15.26c0-.033-.013-.064-.036-.087s-.054-.036-.087-.036-.064.013-.087.036-.036.054-.036.087.013.064.036.087.054.036.087.036.064-.013.087-.036.036-.054.036-.087zm0 1.032c0-.033-.013-.064-.036-.087s-.054-.036-.087-.036-.064.013-.087.036-.036.054-.036.087.013.064.036.087.054.036.087.036.063-.014.086-.037.036-.054.037-.086zM8.87 15.26c0-.024-.007-.048-.02-.068s-.033-.036-.055-.045a.12.12 0 0 0-.07-.007c-.023.005-.046.016-.063.034s-.03.04-.034.063-.002.05.007.07.025.042.045.055.044.02.068.02c.033 0 .064-.013.087-.036s.036-.054.036-.087zm0 1.032c0-.033-.013-.064-.036-.087s-.054-.036-.087-.036-.064.013-.087.036-.036.054-.036.087.013.064.036.087.054.036.087.036.064-.013.087-.036.036-.054.036-.087zm1.153-4.782c-.001-.032-.014-.063-.037-.086s-.054-.036-.086-.037c-.028.006-.054.02-.072.043s-.028.05-.028.08.01.057.028.08.044.038.072.043c.032-.001.063-.014.086-.037s.036-.054.037-.086zm.001 1.032c0-.033-.013-.064-.036-.087s-.054-.036-.087-.036-.064.013-.087.036-.036.054-.036.087.013.064.036.087.054.036.087.036.064-.013.087-.036.036-.054.036-.087zM11.82 11.5c0-.033-.013-.064-.036-.087s-.054-.036-.087-.036c-.025-.001-.05.007-.07.02s-.037.033-.047.056-.013.048-.008.073.017.047.034.065.04.03.065.034a.13.13 0 0 0 .073-.008c.023-.01.043-.026.056-.047s.02-.046.02-.07zm0 1.032c0-.033-.013-.064-.036-.087s-.054-.036-.087-.036-.064.013-.087.036-.036.054-.036.087.013.064.036.087.054.036.087.036.064-.013.087-.036.036-.054.036-.087zm-1.796 2.718c0-.033-.013-.064-.036-.087s-.054-.036-.087-.036-.064.013-.087.036-.036.054-.036.087.013.064.036.087.054.036.087.036.064-.013.087-.036.036-.054.036-.087zm0 1.032c0-.033-.013-.064-.036-.087s-.054-.036-.087-.036-.064.013-.087.036-.036.054-.036.087.013.064.036.087.054.036.087.036.063-.014.086-.037.036-.054.037-.086zm1.796-1.032c0-.033-.013-.064-.036-.087s-.054-.036-.087-.036-.064.013-.087.036-.036.054-.036.087.013.064.036.087.054.036.087.036.064-.013.087-.036.036-.054.036-.087zm0 1.032c0-.033-.013-.064-.036-.087s-.054-.036-.087-.036-.064.013-.087.036-.036.054-.036.087.014.063.037.086.054.036.086.037a.12.12 0 0 0 .087-.036c.023-.023.036-.054.036-.087z"/></g></g><defs><clipPath id="A"><path fill="#fff" d="M0 0h16.034v18H0z"/></clipPath><path id="B" d="M1.428 11.975c-.001-.032-.014-.063-.037-.086s-.054-.036-.086-.037c-.028.006-.054.02-.072.043s-.028.05-.028.08.01.057.028.08.044.038.072.043c.032-.001.063-.014.086-.037s.036-.054.037-.086z"/><path id="C" d="M1.428 13.008c0-.033-.013-.064-.036-.087s-.054-.036-.087-.036-.064.013-.087.036-.036.054-.036.087.013.064.036.087.054.036.087.036.064-.013.087-.036.036-.054.036-.087z"/><path id="D" d="M3.225 11.975c0-.033-.013-.064-.036-.087s-.054-.036-.087-.036c-.025-.001-.05.006-.07.02s-.037.033-.047.056-.012.048-.008.073.017.047.034.065.04.03.065.034.05.002.073-.008.042-.026.056-.047.02-.046.02-.07z"/><path id="E" d="M1.428 16.756c0-.033-.013-.064-.036-.087s-.054-.036-.087-.036-.064.013-.087.036-.036.054-.036.087.013.064.036.087.054.036.087.036.063-.014.086-.037.036-.054.037-.086z"/><path id="F" d="M3.225 16.756c0-.033-.013-.064-.036-.087s-.054-.036-.087-.036-.064.013-.087.036-.036.054-.036.087.014.063.037.086.054.036.086.037.064-.013.087-.036.036-.054.036-.087z"/><path id="G" d="M9.326 13.008c0-.024-.007-.048-.02-.068s-.033-.036-.055-.045-.047-.012-.07-.007-.046.016-.063.034-.03.04-.034.063-.002.05.007.07.025.042.045.055.044.02.068.02c.033 0 .064-.013.087-.036s.036-.054.036-.087z"/><path id="H" d="M2.76 11.51c0-.033-.013-.064-.036-.087s-.054-.036-.087-.036c-.025-.001-.05.007-.07.02s-.037.033-.047.056-.012.048-.008.073.017.047.034.065.04.03.065.034.05.002.073-.008.042-.026.056-.047.02-.046.02-.07z"/></defs></svg>