<svg width="14" height="14" viewBox="0 0 14 14" fill="none" xmlns="http://www.w3.org/2000/svg">
<path d="M9.64356 9.03239H9.05637L8.84825 8.8317C9.57667 7.98436 10.0152 6.88431 10.0152 5.68762C10.0152 3.01924 7.85225 0.856289 5.18387 0.856289C2.51549 0.856289 0.352539 3.01924 0.352539 5.68762C0.352539 8.356 2.51549 10.519 5.18387 10.519C6.38056 10.519 7.48061 10.0804 8.32795 9.352L8.52864 9.56012V10.1473L12.245 13.8563L13.3525 12.7488L9.64356 9.03239ZM5.18387 9.03239C3.3331 9.03239 1.8391 7.53839 1.8391 5.68762C1.8391 3.83685 3.3331 2.34285 5.18387 2.34285C7.03464 2.34285 8.52864 3.83685 8.52864 5.68762C8.52864 7.53839 7.03464 9.03239 5.18387 9.03239Z" fill="#065DF9"/>
</svg>
