<svg xmlns="http://www.w3.org/2000/svg" width="18" height="18" fill="none"><g fill="#212121"><path d="M14.63 2.452h-2.04V5.74h2.04V2.452z"/><path d="M15.665 17.2H2.83V7.13l6.4-5.375 6.436 5.375V17.2z"/><path d="M9.248 2.3l7.174 6.713H18L9.248.495.498 9.024h1.576L9.248 2.3zm5.737-.8H12.23v.966h2.754V1.5zm1.102 15.7H2.406v.8h13.68v-.8zM7.835 8.398l.915.908v1.272l-.915.908H6.46l-.925-.908V9.306l.915-.908h1.386zm4.4.618l-4.854 6.26-1.12-.85 4.854-6.26 1.12.85zm-5.558.667v.523l.216.214h.5l.22-.214v-.523l-.22-.217h-.5l-.216.217zm5.36 2.264l.915.908v1.277l-.915.908H10.66l-.9-.908v-1.27l.912-.908 1.373-.008zm-1.157 1.3v.505l.216.215h.5l.216-.215v-.497l-.216-.215h-.5l-.216.207z"/></g><g fill="#f9f9f9"><path d="M14.13 1.958h-2.04v3.287h2.04V1.958z"/><path d="M15.167 16.715H2.332V6.634l6.4-5.375 6.436 5.375v10.08z"/></g><path d="M8.75 1.816l7.174 6.713h1.58L8.75 0 0 8.53h1.576L8.75 1.816z" fill="#3d3f40"/><path d="M14.487 1.015h-2.754v.966h2.754v-.966z" fill="#67707a"/><path d="M15.6 16.715H1.908v.8h13.68v-.8zM7.337 7.903l.914.908v1.272l-.914.908H5.96l-.914-.908v-1.27l.914-.908h1.376zm4.4.618l-4.852 6.26-1.12-.85 4.852-6.26 1.12.85zm-5.558.675V9.7l.216.215h.5l.22-.215v-.505l-.22-.217h-.5l-.216.217zm5.36 2.264l.915.908v1.272l-.915.908h-1.376l-.912-.908v-1.272l.912-.908h1.376zm-1.157 1.3v.505l.216.217h.5l.216-.217v-.505l-.216-.215h-.5l-.216.215z" fill="#3d3f40"/></svg>