<svg width="38" height="12" viewBox="0 0 38 12" fill="none" xmlns="http://www.w3.org/2000/svg">
<path d="M2.758 11L0.14 3.426H1.47L3.318 9.32L5.068 3.426H6.412L8.106 9.32L9.968 3.426H11.326L8.68 11H7.448L5.74 5.218L3.99 11H3.318H2.758ZM13.4587 11H12.2547V3.426H13.4587V11ZM12.1707 0.92C12.1707 0.723999 12.236 0.560666 12.3667 0.429999C12.5067 0.289999 12.67 0.219999 12.8567 0.219999C13.0527 0.219999 13.216 0.289999 13.3467 0.429999C13.4867 0.560666 13.5567 0.723999 13.5567 0.92C13.5567 1.10667 13.4867 1.27 13.3467 1.41C13.216 1.54067 13.0527 1.606 12.8567 1.606C12.67 1.606 12.5067 1.54067 12.3667 1.41C12.236 1.27 12.1707 1.10667 12.1707 0.92ZM25.2663 11H23.6423H23.4043H22.1163H21.1783C20.9729 11 20.7956 10.9393 20.6463 10.818C20.5063 10.6967 20.4363 10.5147 20.4363 10.272C20.4363 10.1227 20.4643 9.95467 20.5203 9.768C20.5856 9.58133 20.6976 9.376 20.8563 9.152L24.0063 4.532H20.9123L20.4363 3.426H22.0743H22.4243H23.7123H24.2583C24.5289 3.426 24.7436 3.49133 24.9023 3.622C25.0703 3.74333 25.1543 3.92533 25.1543 4.168C25.1543 4.29867 25.1263 4.448 25.0703 4.616C25.0236 4.77467 24.9349 4.952 24.8043 5.148L21.6683 9.936H24.9443L25.2663 11ZM27.3968 7.514V7.892C27.3968 8.21867 27.4061 8.51733 27.4248 8.788C27.4435 9.05867 27.4995 9.29667 27.5928 9.502C27.6955 9.70733 27.8541 9.866 28.0688 9.978C28.2835 10.09 28.5915 10.146 28.9928 10.146C29.5995 10.146 30.0148 10.0247 30.2388 9.782C30.4628 9.53 30.5748 9.18 30.5748 8.732C30.6308 8.732 30.7101 8.732 30.8128 8.732C30.9155 8.732 31.0228 8.732 31.1348 8.732C31.2468 8.72267 31.3588 8.718 31.4708 8.718C31.5828 8.718 31.6808 8.718 31.7648 8.718C31.7648 9.082 31.7228 9.41333 31.6388 9.712C31.5548 10.0013 31.4055 10.2533 31.1908 10.468C30.9855 10.6733 30.7008 10.8367 30.3368 10.958C29.9821 11.07 29.5341 11.126 28.9928 11.126C28.3581 11.126 27.8541 11.0467 27.4808 10.888C27.1168 10.72 26.8415 10.496 26.6548 10.216C26.4681 9.92667 26.3468 9.586 26.2908 9.194C26.2348 8.802 26.2068 8.37267 26.2068 7.906V6.534C26.2068 6.06733 26.2301 5.638 26.2768 5.246C26.3328 4.84467 26.4541 4.49933 26.6408 4.21C26.8368 3.92067 27.1168 3.69667 27.4808 3.538C27.8541 3.37 28.3581 3.286 28.9928 3.286C29.5808 3.286 30.0568 3.36533 30.4208 3.524C30.7848 3.68267 31.0648 3.90667 31.2608 4.196C31.4661 4.476 31.6015 4.82133 31.6668 5.232C31.7415 5.63333 31.7788 6.08133 31.7788 6.576V7.514H27.3968ZM28.9928 4.266C28.5915 4.266 28.2835 4.32667 28.0688 4.448C27.8541 4.56 27.6955 4.714 27.5928 4.91C27.4995 5.106 27.4435 5.33467 27.4248 5.596C27.4061 5.85733 27.3968 6.13733 27.3968 6.436V6.576H30.5888C30.5888 6.184 30.5701 5.84333 30.5328 5.554C30.5048 5.26467 30.4348 5.02667 30.3228 4.84C30.2201 4.644 30.0615 4.49933 29.8468 4.406C29.6415 4.31267 29.3568 4.266 28.9928 4.266ZM32.8536 5.96C32.8536 5.47467 32.8956 5.07333 32.9796 4.756C33.0636 4.42933 33.2223 4.168 33.4556 3.972C33.689 3.776 34.0016 3.636 34.3936 3.552C34.795 3.468 35.313 3.426 35.9476 3.426H37.2916L36.7876 4.42H36.0316C35.6303 4.42 35.299 4.44333 35.0376 4.49C34.7856 4.52733 34.585 4.602 34.4356 4.714C34.2863 4.826 34.1836 4.98467 34.1276 5.19C34.0716 5.386 34.0436 5.64267 34.0436 5.96V11H32.8536V5.96Z" fill="#055EFF"/>
<path d="M19.5378 11H17.9138H17.6758H16.3878H15.4498C15.2444 11 15.0671 10.9393 14.9178 10.818C14.7778 10.6967 14.7078 10.5147 14.7078 10.272C14.7078 10.1227 14.7358 9.95467 14.7918 9.768C14.8571 9.58133 14.9691 9.376 15.1278 9.152L18.2778 4.532H15.1838L14.7078 3.426H16.3458H16.6958H17.9838H18.5298C18.8004 3.426 19.0151 3.49133 19.1738 3.622C19.3418 3.74333 19.4258 3.92533 19.4258 4.168C19.4258 4.29867 19.3978 4.448 19.3418 4.616C19.2951 4.77467 19.2064 4.952 19.0758 5.148L15.9398 9.936H19.2158L19.5378 11Z" fill="#11DE9A"/>
</svg>
